G04 #@! TF.FileFunction,Legend,Top*
%FSLAX46Y46*%
G04 Gerber Fmt 4.6, Leading zero omitted, Abs format (unit mm)*
G04 Created by KiCad (PCBNEW 4.0.7) date 05/06/18 18:03:06*
%MOMM*%
%LPD*%
G01*
G04 APERTURE LIST*
%ADD10C,0.100000*%
%ADD11C,0.150000*%
%ADD12C,0.200000*%
%ADD13C,0.120000*%
%ADD14C,0.015000*%
G04 APERTURE END LIST*
D10*
D11*
X66795618Y-125095000D02*
G75*
G03X66795618Y-125095000I-628618J0D01*
G01*
D12*
X97768531Y-138176000D02*
G75*
G03X97768531Y-138176000I-740531J0D01*
G01*
X121495420Y-141224000D02*
G75*
G03X121495420Y-141224000I-718420J0D01*
G01*
X99524420Y-123952000D02*
G75*
G03X99524420Y-123952000I-718420J0D01*
G01*
X121368420Y-119253000D02*
G75*
G03X121368420Y-119253000I-718420J0D01*
G01*
X66802000Y-149225000D02*
G75*
G03X66802000Y-149225000I-635000J0D01*
G01*
D13*
X85150000Y-154880000D02*
X82490000Y-154880000D01*
X85150000Y-162560000D02*
X85150000Y-154880000D01*
X82490000Y-162560000D02*
X82490000Y-154880000D01*
X85150000Y-162560000D02*
X82490000Y-162560000D01*
X85150000Y-163830000D02*
X85150000Y-165160000D01*
X85150000Y-165160000D02*
X83820000Y-165160000D01*
X138490000Y-138370000D02*
X135830000Y-138370000D01*
X138490000Y-151130000D02*
X138490000Y-138370000D01*
X135830000Y-151130000D02*
X135830000Y-138370000D01*
X138490000Y-151130000D02*
X135830000Y-151130000D01*
X138490000Y-152400000D02*
X138490000Y-153730000D01*
X138490000Y-153730000D02*
X137160000Y-153730000D01*
X73397932Y-65758482D02*
G75*
G02X67873500Y-65759500I-2762432J1171982D01*
G01*
X68337747Y-62658205D02*
G75*
G02X72933500Y-62658500I2297753J-1928295D01*
G01*
X75545500Y-58026500D02*
X75545500Y-61892500D01*
X75545500Y-66281500D02*
X75545500Y-70146500D01*
X65725500Y-58026500D02*
X65725500Y-61892500D01*
X65725500Y-66281500D02*
X65725500Y-70146500D01*
X75545500Y-58026500D02*
X73960500Y-58026500D01*
X72310500Y-58026500D02*
X71460500Y-58026500D01*
X69810500Y-58026500D02*
X68960500Y-58026500D01*
X67310500Y-58026500D02*
X65725500Y-58026500D01*
X75545500Y-70146500D02*
X65725500Y-70146500D01*
X63750000Y-155960000D02*
X63750000Y-156360000D01*
X68330000Y-155190000D02*
X68330000Y-156360000D01*
X68330000Y-159770000D02*
X68330000Y-158600000D01*
X63750000Y-159000000D02*
X63750000Y-158600000D01*
X64520000Y-159770000D02*
X68330000Y-159770000D01*
X64520000Y-159770000D02*
X63750000Y-159000000D01*
X64520000Y-155190000D02*
X68330000Y-155190000D01*
X64520000Y-155190000D02*
X63750000Y-155960000D01*
X63750000Y-133100000D02*
X63750000Y-133500000D01*
X68330000Y-132330000D02*
X68330000Y-133500000D01*
X68330000Y-136910000D02*
X68330000Y-135740000D01*
X63750000Y-136140000D02*
X63750000Y-135740000D01*
X64520000Y-136910000D02*
X68330000Y-136910000D01*
X64520000Y-136910000D02*
X63750000Y-136140000D01*
X64520000Y-132330000D02*
X68330000Y-132330000D01*
X64520000Y-132330000D02*
X63750000Y-133100000D01*
X63750000Y-140720000D02*
X63750000Y-141120000D01*
X68330000Y-139950000D02*
X68330000Y-141120000D01*
X68330000Y-144530000D02*
X68330000Y-143360000D01*
X63750000Y-143760000D02*
X63750000Y-143360000D01*
X64520000Y-144530000D02*
X68330000Y-144530000D01*
X64520000Y-144530000D02*
X63750000Y-143760000D01*
X64520000Y-139950000D02*
X68330000Y-139950000D01*
X64520000Y-139950000D02*
X63750000Y-140720000D01*
X63750000Y-116590000D02*
X63750000Y-116990000D01*
X68330000Y-115820000D02*
X68330000Y-116990000D01*
X68330000Y-120400000D02*
X68330000Y-119230000D01*
X63750000Y-119630000D02*
X63750000Y-119230000D01*
X64520000Y-120400000D02*
X68330000Y-120400000D01*
X64520000Y-120400000D02*
X63750000Y-119630000D01*
X64520000Y-115820000D02*
X68330000Y-115820000D01*
X64520000Y-115820000D02*
X63750000Y-116590000D01*
D11*
X85510000Y-181110000D02*
X85510000Y-182110000D01*
X87210000Y-182110000D02*
X87210000Y-181110000D01*
X89320000Y-181110000D02*
X89320000Y-182110000D01*
X91020000Y-182110000D02*
X91020000Y-181110000D01*
X130040000Y-138850000D02*
X129040000Y-138850000D01*
X129040000Y-140550000D02*
X130040000Y-140550000D01*
X130040000Y-135675000D02*
X129040000Y-135675000D01*
X129040000Y-137375000D02*
X130040000Y-137375000D01*
X130040000Y-132500000D02*
X129040000Y-132500000D01*
X129040000Y-134200000D02*
X130040000Y-134200000D01*
X113372000Y-127627000D02*
X113372000Y-126627000D01*
X111672000Y-126627000D02*
X111672000Y-127627000D01*
D13*
X130547932Y-86078482D02*
G75*
G02X125023500Y-86079500I-2762432J1171982D01*
G01*
X125487747Y-82978205D02*
G75*
G02X130083500Y-82978500I2297753J-1928295D01*
G01*
X132695500Y-78346500D02*
X132695500Y-82212500D01*
X132695500Y-86601500D02*
X132695500Y-90466500D01*
X122875500Y-78346500D02*
X122875500Y-82212500D01*
X122875500Y-86601500D02*
X122875500Y-90466500D01*
X132695500Y-78346500D02*
X131110500Y-78346500D01*
X129460500Y-78346500D02*
X128610500Y-78346500D01*
X126960500Y-78346500D02*
X126110500Y-78346500D01*
X124460500Y-78346500D02*
X122875500Y-78346500D01*
X132695500Y-90466500D02*
X122875500Y-90466500D01*
X61960000Y-169250000D02*
X59960000Y-169250000D01*
X59960000Y-169250000D02*
X59960000Y-173100000D01*
X61960000Y-169250000D02*
X61960000Y-173100000D01*
X107690500Y-102806038D02*
G75*
G03X113240500Y-104351330I2990000J-462D01*
G01*
X107690500Y-102806962D02*
G75*
G02X113240500Y-101261670I2990000J462D01*
G01*
X113180500Y-102806500D02*
G75*
G03X113180500Y-102806500I-2500000J0D01*
G01*
X113240500Y-104351500D02*
X113240500Y-101261500D01*
X101972932Y-86078482D02*
G75*
G02X96448500Y-86079500I-2762432J1171982D01*
G01*
X96912747Y-82978205D02*
G75*
G02X101508500Y-82978500I2297753J-1928295D01*
G01*
X104120500Y-78346500D02*
X104120500Y-82212500D01*
X104120500Y-86601500D02*
X104120500Y-90466500D01*
X94300500Y-78346500D02*
X94300500Y-82212500D01*
X94300500Y-86601500D02*
X94300500Y-90466500D01*
X104120500Y-78346500D02*
X102535500Y-78346500D01*
X100885500Y-78346500D02*
X100035500Y-78346500D01*
X98385500Y-78346500D02*
X97535500Y-78346500D01*
X95885500Y-78346500D02*
X94300500Y-78346500D01*
X104120500Y-90466500D02*
X94300500Y-90466500D01*
X73397932Y-86078482D02*
G75*
G02X67873500Y-86079500I-2762432J1171982D01*
G01*
X68337747Y-82978205D02*
G75*
G02X72933500Y-82978500I2297753J-1928295D01*
G01*
X75545500Y-78346500D02*
X75545500Y-82212500D01*
X75545500Y-86601500D02*
X75545500Y-90466500D01*
X65725500Y-78346500D02*
X65725500Y-82212500D01*
X65725500Y-86601500D02*
X65725500Y-90466500D01*
X75545500Y-78346500D02*
X73960500Y-78346500D01*
X72310500Y-78346500D02*
X71460500Y-78346500D01*
X69810500Y-78346500D02*
X68960500Y-78346500D01*
X67310500Y-78346500D02*
X65725500Y-78346500D01*
X75545500Y-90466500D02*
X65725500Y-90466500D01*
X136020500Y-92071500D02*
X138680500Y-92071500D01*
X136020500Y-79311500D02*
X136020500Y-92071500D01*
X138680500Y-79311500D02*
X138680500Y-92071500D01*
X136020500Y-79311500D02*
X138680500Y-79311500D01*
X136020500Y-78041500D02*
X136020500Y-76711500D01*
X136020500Y-76711500D02*
X137350500Y-76711500D01*
X82680500Y-90801500D02*
X85340500Y-90801500D01*
X82680500Y-78041500D02*
X82680500Y-90801500D01*
X85340500Y-78041500D02*
X85340500Y-90801500D01*
X82680500Y-78041500D02*
X85340500Y-78041500D01*
X82680500Y-76771500D02*
X82680500Y-75441500D01*
X82680500Y-75441500D02*
X84010500Y-75441500D01*
D11*
X151193500Y-182753000D02*
X151193500Y-172720000D01*
X151193500Y-172720000D02*
X140779500Y-172720000D01*
X151193500Y-182753000D02*
X140779500Y-182753000D01*
X117411500Y-177736500D02*
X117411500Y-181165500D01*
X117411500Y-181165500D02*
X119951500Y-181165500D01*
X117411500Y-177736500D02*
X117411500Y-174307500D01*
X117411500Y-174307500D02*
X119951500Y-174307500D01*
X140779500Y-187896500D02*
X140779500Y-167576500D01*
X119951500Y-187896500D02*
X119951500Y-167576500D01*
X118300500Y-168719500D02*
X142176500Y-168719500D01*
X118554500Y-186753500D02*
X142430500Y-186753500D01*
X151193500Y-203771500D02*
X151193500Y-193738500D01*
X151193500Y-193738500D02*
X140779500Y-193738500D01*
X151193500Y-203771500D02*
X140779500Y-203771500D01*
X117411500Y-198755000D02*
X117411500Y-202184000D01*
X117411500Y-202184000D02*
X119951500Y-202184000D01*
X117411500Y-198755000D02*
X117411500Y-195326000D01*
X117411500Y-195326000D02*
X119951500Y-195326000D01*
X140779500Y-208915000D02*
X140779500Y-188595000D01*
X119951500Y-208915000D02*
X119951500Y-188595000D01*
X118300500Y-189738000D02*
X142176500Y-189738000D01*
X118554500Y-207772000D02*
X142430500Y-207772000D01*
D13*
X82490000Y-152460000D02*
X85150000Y-152460000D01*
X82490000Y-139700000D02*
X82490000Y-152460000D01*
X85150000Y-139700000D02*
X85150000Y-152460000D01*
X82490000Y-139700000D02*
X85150000Y-139700000D01*
X82490000Y-138430000D02*
X82490000Y-137100000D01*
X82490000Y-137100000D02*
X83820000Y-137100000D01*
D11*
X47498000Y-193738500D02*
X47498000Y-203771500D01*
X47498000Y-203771500D02*
X57912000Y-203771500D01*
X47498000Y-193738500D02*
X57912000Y-193738500D01*
X81280000Y-198755000D02*
X81280000Y-195326000D01*
X81280000Y-195326000D02*
X78740000Y-195326000D01*
X81280000Y-198755000D02*
X81280000Y-202184000D01*
X81280000Y-202184000D02*
X78740000Y-202184000D01*
X57912000Y-188595000D02*
X57912000Y-208915000D01*
X78740000Y-188595000D02*
X78740000Y-208915000D01*
X80391000Y-207772000D02*
X56515000Y-207772000D01*
X80137000Y-189738000D02*
X56261000Y-189738000D01*
D13*
X63580000Y-184940000D02*
X54780000Y-184940000D01*
X54780000Y-184940000D02*
X54780000Y-175740000D01*
X69480000Y-182240000D02*
X69480000Y-184940000D01*
X69480000Y-184940000D02*
X67580000Y-184940000D01*
X54780000Y-175740000D02*
X69480000Y-175740000D01*
X69480000Y-175740000D02*
X69480000Y-178340000D01*
D11*
X89570000Y-144540000D02*
X90770000Y-144540000D01*
X90770000Y-146290000D02*
X89570000Y-146290000D01*
X105375000Y-151370000D02*
X104175000Y-151370000D01*
X104175000Y-149620000D02*
X105375000Y-149620000D01*
X105375000Y-148830000D02*
X104175000Y-148830000D01*
X104175000Y-147080000D02*
X105375000Y-147080000D01*
X102270000Y-121680000D02*
X103470000Y-121680000D01*
X103470000Y-123430000D02*
X102270000Y-123430000D01*
X122520000Y-156450000D02*
X121320000Y-156450000D01*
X121320000Y-154700000D02*
X122520000Y-154700000D01*
X105375000Y-133590000D02*
X104175000Y-133590000D01*
X104175000Y-131840000D02*
X105375000Y-131840000D01*
X113065000Y-136285000D02*
X114265000Y-136285000D01*
X114265000Y-138035000D02*
X113065000Y-138035000D01*
D13*
X130547932Y-65758482D02*
G75*
G02X125023500Y-65759500I-2762432J1171982D01*
G01*
X125487747Y-62658205D02*
G75*
G02X130083500Y-62658500I2297753J-1928295D01*
G01*
X132695500Y-58026500D02*
X132695500Y-61892500D01*
X132695500Y-66281500D02*
X132695500Y-70146500D01*
X122875500Y-58026500D02*
X122875500Y-61892500D01*
X122875500Y-66281500D02*
X122875500Y-70146500D01*
X132695500Y-58026500D02*
X131110500Y-58026500D01*
X129460500Y-58026500D02*
X128610500Y-58026500D01*
X126960500Y-58026500D02*
X126110500Y-58026500D01*
X124460500Y-58026500D02*
X122875500Y-58026500D01*
X132695500Y-70146500D02*
X122875500Y-70146500D01*
D11*
X108458000Y-216852500D02*
X91948000Y-216852500D01*
X91948000Y-216852500D02*
X90678000Y-216852500D01*
X90551000Y-217233500D02*
X90551000Y-199453500D01*
X90678000Y-199834500D02*
X108458000Y-199834500D01*
X108585000Y-199453500D02*
X108585000Y-217233500D01*
X121475500Y-97218500D02*
X121475500Y-103314500D01*
X133921500Y-97218500D02*
X133921500Y-103314500D01*
X120713500Y-96964500D02*
X134937500Y-96964500D01*
X134937500Y-103568500D02*
X120713500Y-103568500D01*
X64325500Y-97218500D02*
X64325500Y-103314500D01*
X76771500Y-97218500D02*
X76771500Y-103314500D01*
X63563500Y-96964500D02*
X77787500Y-96964500D01*
X77787500Y-103568500D02*
X63563500Y-103568500D01*
X92900500Y-97218500D02*
X92900500Y-103314500D01*
X105346500Y-97218500D02*
X105346500Y-103314500D01*
X92138500Y-96964500D02*
X106362500Y-96964500D01*
X106362500Y-103568500D02*
X92138500Y-103568500D01*
D13*
X101972932Y-65758482D02*
G75*
G02X96448500Y-65759500I-2762432J1171982D01*
G01*
X96912747Y-62658205D02*
G75*
G02X101508500Y-62658500I2297753J-1928295D01*
G01*
X104120500Y-58026500D02*
X104120500Y-61892500D01*
X104120500Y-66281500D02*
X104120500Y-70146500D01*
X94300500Y-58026500D02*
X94300500Y-61892500D01*
X94300500Y-66281500D02*
X94300500Y-70146500D01*
X104120500Y-58026500D02*
X102535500Y-58026500D01*
X100885500Y-58026500D02*
X100035500Y-58026500D01*
X98385500Y-58026500D02*
X97535500Y-58026500D01*
X95885500Y-58026500D02*
X94300500Y-58026500D01*
X104120500Y-70146500D02*
X94300500Y-70146500D01*
D11*
X68326000Y-148590000D02*
X68326000Y-153670000D01*
X68326000Y-153670000D02*
X63754000Y-153670000D01*
X63754000Y-153670000D02*
X63754000Y-148590000D01*
X63754000Y-148590000D02*
X68326000Y-148590000D01*
X66802000Y-148590000D02*
X66802000Y-149098000D01*
X66802000Y-149098000D02*
X65532000Y-149098000D01*
X65532000Y-149098000D02*
X65532000Y-148590000D01*
X68326000Y-124460000D02*
X68326000Y-129540000D01*
X68326000Y-129540000D02*
X63754000Y-129540000D01*
X63754000Y-129540000D02*
X63754000Y-124460000D01*
X63754000Y-124460000D02*
X68326000Y-124460000D01*
X66802000Y-124460000D02*
X66802000Y-124968000D01*
X66802000Y-124968000D02*
X65532000Y-124968000D01*
X65532000Y-124968000D02*
X65532000Y-124460000D01*
D13*
X89670000Y-143725000D02*
X90670000Y-143725000D01*
X90670000Y-142025000D02*
X89670000Y-142025000D01*
X104005000Y-142025000D02*
X103005000Y-142025000D01*
X103005000Y-143725000D02*
X104005000Y-143725000D01*
X102100000Y-126150000D02*
X101100000Y-126150000D01*
X101100000Y-127850000D02*
X102100000Y-127850000D01*
X90940000Y-121500000D02*
X91940000Y-121500000D01*
X91940000Y-119800000D02*
X90940000Y-119800000D01*
X128770000Y-119165000D02*
X127770000Y-119165000D01*
X127770000Y-120865000D02*
X128770000Y-120865000D01*
X60460000Y-146900000D02*
X61460000Y-146900000D01*
X61460000Y-145200000D02*
X60460000Y-145200000D01*
X60460000Y-122770000D02*
X61460000Y-122770000D01*
X61460000Y-121070000D02*
X60460000Y-121070000D01*
X85340500Y-93221500D02*
X82680500Y-93221500D01*
X85340500Y-100901500D02*
X85340500Y-93221500D01*
X82680500Y-100901500D02*
X82680500Y-93221500D01*
X85340500Y-100901500D02*
X82680500Y-100901500D01*
X85340500Y-102171500D02*
X85340500Y-103501500D01*
X85340500Y-103501500D02*
X84010500Y-103501500D01*
X118545500Y-99031500D02*
X118545500Y-100231500D01*
X116785500Y-100231500D02*
X116785500Y-99031500D01*
X63750000Y-163580000D02*
X63750000Y-163980000D01*
X68330000Y-162810000D02*
X68330000Y-163980000D01*
X68330000Y-167390000D02*
X68330000Y-166220000D01*
X63750000Y-166620000D02*
X63750000Y-166220000D01*
X64520000Y-167390000D02*
X68330000Y-167390000D01*
X64520000Y-167390000D02*
X63750000Y-166620000D01*
X64520000Y-162810000D02*
X68330000Y-162810000D01*
X64520000Y-162810000D02*
X63750000Y-163580000D01*
X121420000Y-153885000D02*
X122420000Y-153885000D01*
X122420000Y-152185000D02*
X121420000Y-152185000D01*
X114265000Y-140580000D02*
X113065000Y-140580000D01*
X113065000Y-138820000D02*
X114265000Y-138820000D01*
X111370000Y-145450000D02*
X111370000Y-146650000D01*
X109610000Y-146650000D02*
X109610000Y-145450000D01*
X127670000Y-122945000D02*
X128870000Y-122945000D01*
X128870000Y-124705000D02*
X127670000Y-124705000D01*
D11*
X99441000Y-147955000D02*
X94615000Y-147955000D01*
X94615000Y-147955000D02*
X94615000Y-137795000D01*
X94615000Y-137795000D02*
X99441000Y-137795000D01*
X99441000Y-137795000D02*
X99441000Y-147955000D01*
X97663000Y-137795000D02*
X97663000Y-138430000D01*
X97663000Y-138430000D02*
X96393000Y-138430000D01*
X96393000Y-138430000D02*
X96393000Y-137795000D01*
X99060000Y-126111000D02*
X93980000Y-126111000D01*
X93980000Y-126111000D02*
X93980000Y-121539000D01*
X93980000Y-121539000D02*
X99060000Y-121539000D01*
X99060000Y-121539000D02*
X99060000Y-126111000D01*
X99060000Y-124587000D02*
X98552000Y-124587000D01*
X98552000Y-124587000D02*
X98552000Y-123317000D01*
X98552000Y-123317000D02*
X99060000Y-123317000D01*
X122936000Y-140970000D02*
X122936000Y-146050000D01*
X122936000Y-146050000D02*
X118364000Y-146050000D01*
X118364000Y-146050000D02*
X118364000Y-140970000D01*
X118364000Y-140970000D02*
X122936000Y-140970000D01*
X121412000Y-140970000D02*
X121412000Y-141478000D01*
X121412000Y-141478000D02*
X120142000Y-141478000D01*
X120142000Y-141478000D02*
X120142000Y-140970000D01*
X121412000Y-118872000D02*
X121412000Y-119634000D01*
X121412000Y-119634000D02*
X119888000Y-119634000D01*
X119888000Y-119634000D02*
X119888000Y-118872000D01*
X122936000Y-130048000D02*
X118364000Y-130048000D01*
X118364000Y-130048000D02*
X118364000Y-118872000D01*
X118364000Y-118872000D02*
X122936000Y-118872000D01*
X122936000Y-118872000D02*
X122936000Y-130048000D01*
X128870000Y-128510000D02*
X127670000Y-128510000D01*
X127670000Y-126760000D02*
X128870000Y-126760000D01*
D13*
X135830000Y-132140000D02*
X138490000Y-132140000D01*
X135830000Y-119380000D02*
X135830000Y-132140000D01*
X138490000Y-119380000D02*
X138490000Y-132140000D01*
X135830000Y-119380000D02*
X138490000Y-119380000D01*
X135830000Y-118110000D02*
X135830000Y-116780000D01*
X135830000Y-116780000D02*
X137160000Y-116780000D01*
X136020500Y-70481500D02*
X138680500Y-70481500D01*
X136020500Y-57721500D02*
X136020500Y-70481500D01*
X138680500Y-57721500D02*
X138680500Y-70481500D01*
X136020500Y-57721500D02*
X138680500Y-57721500D01*
X136020500Y-56451500D02*
X136020500Y-55121500D01*
X136020500Y-55121500D02*
X137350500Y-55121500D01*
X103370000Y-119800000D02*
X102370000Y-119800000D01*
X102370000Y-121500000D02*
X103370000Y-121500000D01*
X118325000Y-149090000D02*
X118325000Y-148090000D01*
X116625000Y-148090000D02*
X116625000Y-149090000D01*
X122975000Y-137930000D02*
X122975000Y-138930000D01*
X124675000Y-138930000D02*
X124675000Y-137930000D01*
X85340500Y-54486500D02*
X82680500Y-54486500D01*
X85340500Y-59626500D02*
X85340500Y-54486500D01*
X82680500Y-59626500D02*
X82680500Y-54486500D01*
X85340500Y-59626500D02*
X82680500Y-59626500D01*
X85340500Y-60896500D02*
X85340500Y-62226500D01*
X85340500Y-62226500D02*
X84010500Y-62226500D01*
X82680500Y-69846500D02*
X85340500Y-69846500D01*
X82680500Y-64706500D02*
X82680500Y-69846500D01*
X85340500Y-64706500D02*
X85340500Y-69846500D01*
X82680500Y-64706500D02*
X85340500Y-64706500D01*
X82680500Y-63436500D02*
X82680500Y-62106500D01*
X82680500Y-62106500D02*
X84010500Y-62106500D01*
X85150000Y-116145000D02*
X82490000Y-116145000D01*
X85150000Y-121285000D02*
X85150000Y-116145000D01*
X82490000Y-121285000D02*
X82490000Y-116145000D01*
X85150000Y-121285000D02*
X82490000Y-121285000D01*
X85150000Y-122555000D02*
X85150000Y-123885000D01*
X85150000Y-123885000D02*
X83820000Y-123885000D01*
X82490000Y-131505000D02*
X85150000Y-131505000D01*
X82490000Y-126365000D02*
X82490000Y-131505000D01*
X85150000Y-126365000D02*
X85150000Y-131505000D01*
X82490000Y-126365000D02*
X85150000Y-126365000D01*
X82490000Y-125095000D02*
X82490000Y-123765000D01*
X82490000Y-123765000D02*
X83820000Y-123765000D01*
D14*
X81006190Y-163079522D02*
X81363333Y-163079522D01*
X81434762Y-163103332D01*
X81482381Y-163150951D01*
X81506190Y-163222379D01*
X81506190Y-163269998D01*
X81553810Y-162960475D02*
X81553810Y-162579523D01*
X81506190Y-162460475D02*
X81006190Y-162460475D01*
X81363333Y-162293809D01*
X81006190Y-162127142D01*
X81506190Y-162127142D01*
X81363333Y-161912856D02*
X81363333Y-161674761D01*
X81506190Y-161960475D02*
X81006190Y-161793808D01*
X81506190Y-161627142D01*
X81506190Y-161460475D02*
X81006190Y-161460475D01*
X81506190Y-161222380D02*
X81006190Y-161222380D01*
X81506190Y-160936666D01*
X81006190Y-160936666D01*
X81053810Y-160722380D02*
X81030000Y-160698570D01*
X81006190Y-160650951D01*
X81006190Y-160531904D01*
X81030000Y-160484285D01*
X81053810Y-160460475D01*
X81101429Y-160436666D01*
X81149048Y-160436666D01*
X81220476Y-160460475D01*
X81506190Y-160746189D01*
X81506190Y-160436666D01*
X81363333Y-160246190D02*
X81363333Y-160008095D01*
X81506190Y-160293809D02*
X81006190Y-160127142D01*
X81506190Y-159960476D01*
X81006190Y-159793809D02*
X81410952Y-159793809D01*
X81458571Y-159770000D01*
X81482381Y-159746190D01*
X81506190Y-159698571D01*
X81506190Y-159603333D01*
X81482381Y-159555714D01*
X81458571Y-159531905D01*
X81410952Y-159508095D01*
X81006190Y-159508095D01*
X81006190Y-159317618D02*
X81506190Y-158984285D01*
X81006190Y-158984285D02*
X81506190Y-159317618D01*
X81553810Y-158912857D02*
X81553810Y-158531905D01*
X81506190Y-158174762D02*
X81506190Y-158412857D01*
X81006190Y-158412857D01*
X81244286Y-158008095D02*
X81244286Y-157841429D01*
X81506190Y-157770000D02*
X81506190Y-158008095D01*
X81006190Y-158008095D01*
X81006190Y-157770000D01*
X81506190Y-157555714D02*
X81006190Y-157555714D01*
X81006190Y-157436667D01*
X81030000Y-157365238D01*
X81077619Y-157317619D01*
X81125238Y-157293810D01*
X81220476Y-157270000D01*
X81291905Y-157270000D01*
X81387143Y-157293810D01*
X81434762Y-157317619D01*
X81482381Y-157365238D01*
X81506190Y-157436667D01*
X81506190Y-157555714D01*
X81506190Y-156793810D02*
X81506190Y-157079524D01*
X81506190Y-156936667D02*
X81006190Y-156936667D01*
X81077619Y-156984286D01*
X81125238Y-157031905D01*
X81149048Y-157079524D01*
X139045190Y-148645141D02*
X139402333Y-148645141D01*
X139473762Y-148668951D01*
X139521381Y-148716570D01*
X139545190Y-148787998D01*
X139545190Y-148835617D01*
X139592810Y-148526094D02*
X139592810Y-148145142D01*
X139545190Y-148026094D02*
X139045190Y-148026094D01*
X139402333Y-147859428D01*
X139045190Y-147692761D01*
X139545190Y-147692761D01*
X139402333Y-147478475D02*
X139402333Y-147240380D01*
X139545190Y-147526094D02*
X139045190Y-147359427D01*
X139545190Y-147192761D01*
X139545190Y-147026094D02*
X139045190Y-147026094D01*
X139545190Y-146787999D02*
X139045190Y-146787999D01*
X139545190Y-146502285D01*
X139045190Y-146502285D01*
X139092810Y-146287999D02*
X139069000Y-146264189D01*
X139045190Y-146216570D01*
X139045190Y-146097523D01*
X139069000Y-146049904D01*
X139092810Y-146026094D01*
X139140429Y-146002285D01*
X139188048Y-146002285D01*
X139259476Y-146026094D01*
X139545190Y-146311808D01*
X139545190Y-146002285D01*
X139402333Y-145811809D02*
X139402333Y-145573714D01*
X139545190Y-145859428D02*
X139045190Y-145692761D01*
X139545190Y-145526095D01*
X139045190Y-145359428D02*
X139449952Y-145359428D01*
X139497571Y-145335619D01*
X139521381Y-145311809D01*
X139545190Y-145264190D01*
X139545190Y-145168952D01*
X139521381Y-145121333D01*
X139497571Y-145097524D01*
X139449952Y-145073714D01*
X139045190Y-145073714D01*
X139045190Y-144883237D02*
X139545190Y-144549904D01*
X139045190Y-144549904D02*
X139545190Y-144883237D01*
X139592810Y-144478476D02*
X139592810Y-144097524D01*
X139283286Y-143811810D02*
X139283286Y-143978476D01*
X139545190Y-143978476D02*
X139045190Y-143978476D01*
X139045190Y-143740381D01*
X139045190Y-143597524D02*
X139545190Y-143264191D01*
X139045190Y-143264191D02*
X139545190Y-143597524D01*
X139521381Y-143097525D02*
X139545190Y-143026096D01*
X139545190Y-142907049D01*
X139521381Y-142859430D01*
X139497571Y-142835620D01*
X139449952Y-142811811D01*
X139402333Y-142811811D01*
X139354714Y-142835620D01*
X139330905Y-142859430D01*
X139307095Y-142907049D01*
X139283286Y-143002287D01*
X139259476Y-143049906D01*
X139235667Y-143073715D01*
X139188048Y-143097525D01*
X139140429Y-143097525D01*
X139092810Y-143073715D01*
X139069000Y-143049906D01*
X139045190Y-143002287D01*
X139045190Y-142883239D01*
X139069000Y-142811811D01*
X139045190Y-142645144D02*
X139545190Y-142526097D01*
X139188048Y-142430859D01*
X139545190Y-142335621D01*
X139045190Y-142216573D01*
X139545190Y-141764192D02*
X139545190Y-142049906D01*
X139545190Y-141907049D02*
X139045190Y-141907049D01*
X139116619Y-141954668D01*
X139164238Y-142002287D01*
X139188048Y-142049906D01*
X70231096Y-55153690D02*
X70231096Y-54653690D01*
X70397762Y-55010833D01*
X70564429Y-54653690D01*
X70564429Y-55153690D01*
X70802525Y-55153690D02*
X70802525Y-54653690D01*
X70993001Y-54653690D02*
X71326334Y-55153690D01*
X71326334Y-54653690D02*
X70993001Y-55153690D01*
X71778714Y-55153690D02*
X71493000Y-55153690D01*
X71635857Y-55153690D02*
X71635857Y-54653690D01*
X71588238Y-54725119D01*
X71540619Y-54772738D01*
X71493000Y-54796548D01*
X65044001Y-154864571D02*
X65020191Y-154888381D01*
X64948763Y-154912190D01*
X64901144Y-154912190D01*
X64829715Y-154888381D01*
X64782096Y-154840762D01*
X64758287Y-154793143D01*
X64734477Y-154697905D01*
X64734477Y-154626476D01*
X64758287Y-154531238D01*
X64782096Y-154483619D01*
X64829715Y-154436000D01*
X64901144Y-154412190D01*
X64948763Y-154412190D01*
X65020191Y-154436000D01*
X65044001Y-154459810D01*
X65520191Y-154912190D02*
X65234477Y-154912190D01*
X65377334Y-154912190D02*
X65377334Y-154412190D01*
X65329715Y-154483619D01*
X65282096Y-154531238D01*
X65234477Y-154555048D01*
X65615429Y-154959810D02*
X65996381Y-154959810D01*
X66115429Y-154912190D02*
X66115429Y-154412190D01*
X66401143Y-154912190D01*
X66401143Y-154412190D01*
X66639239Y-154650286D02*
X66805905Y-154650286D01*
X66877334Y-154912190D02*
X66639239Y-154912190D01*
X66639239Y-154412190D01*
X66877334Y-154412190D01*
X67353524Y-154436000D02*
X67305905Y-154412190D01*
X67234477Y-154412190D01*
X67163048Y-154436000D01*
X67115429Y-154483619D01*
X67091620Y-154531238D01*
X67067810Y-154626476D01*
X67067810Y-154697905D01*
X67091620Y-154793143D01*
X67115429Y-154840762D01*
X67163048Y-154888381D01*
X67234477Y-154912190D01*
X67282096Y-154912190D01*
X67353524Y-154888381D01*
X67377334Y-154864571D01*
X67377334Y-154697905D01*
X67282096Y-154697905D01*
X67853524Y-154912190D02*
X67567810Y-154912190D01*
X67710667Y-154912190D02*
X67710667Y-154412190D01*
X67663048Y-154483619D01*
X67615429Y-154531238D01*
X67567810Y-154555048D01*
D11*
X62889048Y-159561429D02*
X63650953Y-159561429D01*
X63270001Y-159942381D02*
X63270001Y-159180476D01*
D14*
X64790001Y-132004571D02*
X64766191Y-132028381D01*
X64694763Y-132052190D01*
X64647144Y-132052190D01*
X64575715Y-132028381D01*
X64528096Y-131980762D01*
X64504287Y-131933143D01*
X64480477Y-131837905D01*
X64480477Y-131766476D01*
X64504287Y-131671238D01*
X64528096Y-131623619D01*
X64575715Y-131576000D01*
X64647144Y-131552190D01*
X64694763Y-131552190D01*
X64766191Y-131576000D01*
X64790001Y-131599810D01*
X65266191Y-132052190D02*
X64980477Y-132052190D01*
X65123334Y-132052190D02*
X65123334Y-131552190D01*
X65075715Y-131623619D01*
X65028096Y-131671238D01*
X64980477Y-131695048D01*
X65361429Y-132099810D02*
X65742381Y-132099810D01*
X65861429Y-132052190D02*
X65861429Y-131552190D01*
X66147143Y-132052190D01*
X66147143Y-131552190D01*
X66385239Y-131790286D02*
X66551905Y-131790286D01*
X66623334Y-132052190D02*
X66385239Y-132052190D01*
X66385239Y-131552190D01*
X66623334Y-131552190D01*
X67099524Y-131576000D02*
X67051905Y-131552190D01*
X66980477Y-131552190D01*
X66909048Y-131576000D01*
X66861429Y-131623619D01*
X66837620Y-131671238D01*
X66813810Y-131766476D01*
X66813810Y-131837905D01*
X66837620Y-131933143D01*
X66861429Y-131980762D01*
X66909048Y-132028381D01*
X66980477Y-132052190D01*
X67028096Y-132052190D01*
X67099524Y-132028381D01*
X67123334Y-132004571D01*
X67123334Y-131837905D01*
X67028096Y-131837905D01*
X67313810Y-131599810D02*
X67337620Y-131576000D01*
X67385239Y-131552190D01*
X67504286Y-131552190D01*
X67551905Y-131576000D01*
X67575715Y-131599810D01*
X67599524Y-131647429D01*
X67599524Y-131695048D01*
X67575715Y-131766476D01*
X67290001Y-132052190D01*
X67599524Y-132052190D01*
D11*
X62889048Y-136701429D02*
X63650953Y-136701429D01*
X63270001Y-137082381D02*
X63270001Y-136320476D01*
D14*
X64790001Y-139624571D02*
X64766191Y-139648381D01*
X64694763Y-139672190D01*
X64647144Y-139672190D01*
X64575715Y-139648381D01*
X64528096Y-139600762D01*
X64504287Y-139553143D01*
X64480477Y-139457905D01*
X64480477Y-139386476D01*
X64504287Y-139291238D01*
X64528096Y-139243619D01*
X64575715Y-139196000D01*
X64647144Y-139172190D01*
X64694763Y-139172190D01*
X64766191Y-139196000D01*
X64790001Y-139219810D01*
X64980477Y-139219810D02*
X65004287Y-139196000D01*
X65051906Y-139172190D01*
X65170953Y-139172190D01*
X65218572Y-139196000D01*
X65242382Y-139219810D01*
X65266191Y-139267429D01*
X65266191Y-139315048D01*
X65242382Y-139386476D01*
X64956668Y-139672190D01*
X65266191Y-139672190D01*
X65361429Y-139719810D02*
X65742381Y-139719810D01*
X65861429Y-139672190D02*
X65861429Y-139172190D01*
X66147143Y-139672190D01*
X66147143Y-139172190D01*
X66385239Y-139410286D02*
X66551905Y-139410286D01*
X66623334Y-139672190D02*
X66385239Y-139672190D01*
X66385239Y-139172190D01*
X66623334Y-139172190D01*
X67099524Y-139196000D02*
X67051905Y-139172190D01*
X66980477Y-139172190D01*
X66909048Y-139196000D01*
X66861429Y-139243619D01*
X66837620Y-139291238D01*
X66813810Y-139386476D01*
X66813810Y-139457905D01*
X66837620Y-139553143D01*
X66861429Y-139600762D01*
X66909048Y-139648381D01*
X66980477Y-139672190D01*
X67028096Y-139672190D01*
X67099524Y-139648381D01*
X67123334Y-139624571D01*
X67123334Y-139457905D01*
X67028096Y-139457905D01*
X67599524Y-139672190D02*
X67313810Y-139672190D01*
X67456667Y-139672190D02*
X67456667Y-139172190D01*
X67409048Y-139243619D01*
X67361429Y-139291238D01*
X67313810Y-139315048D01*
D11*
X62889048Y-144321429D02*
X63650953Y-144321429D01*
X63270001Y-144702381D02*
X63270001Y-143940476D01*
D14*
X64790001Y-115494571D02*
X64766191Y-115518381D01*
X64694763Y-115542190D01*
X64647144Y-115542190D01*
X64575715Y-115518381D01*
X64528096Y-115470762D01*
X64504287Y-115423143D01*
X64480477Y-115327905D01*
X64480477Y-115256476D01*
X64504287Y-115161238D01*
X64528096Y-115113619D01*
X64575715Y-115066000D01*
X64647144Y-115042190D01*
X64694763Y-115042190D01*
X64766191Y-115066000D01*
X64790001Y-115089810D01*
X64980477Y-115089810D02*
X65004287Y-115066000D01*
X65051906Y-115042190D01*
X65170953Y-115042190D01*
X65218572Y-115066000D01*
X65242382Y-115089810D01*
X65266191Y-115137429D01*
X65266191Y-115185048D01*
X65242382Y-115256476D01*
X64956668Y-115542190D01*
X65266191Y-115542190D01*
X65361429Y-115589810D02*
X65742381Y-115589810D01*
X65861429Y-115542190D02*
X65861429Y-115042190D01*
X66147143Y-115542190D01*
X66147143Y-115042190D01*
X66385239Y-115280286D02*
X66551905Y-115280286D01*
X66623334Y-115542190D02*
X66385239Y-115542190D01*
X66385239Y-115042190D01*
X66623334Y-115042190D01*
X67099524Y-115066000D02*
X67051905Y-115042190D01*
X66980477Y-115042190D01*
X66909048Y-115066000D01*
X66861429Y-115113619D01*
X66837620Y-115161238D01*
X66813810Y-115256476D01*
X66813810Y-115327905D01*
X66837620Y-115423143D01*
X66861429Y-115470762D01*
X66909048Y-115518381D01*
X66980477Y-115542190D01*
X67028096Y-115542190D01*
X67099524Y-115518381D01*
X67123334Y-115494571D01*
X67123334Y-115327905D01*
X67028096Y-115327905D01*
X67313810Y-115089810D02*
X67337620Y-115066000D01*
X67385239Y-115042190D01*
X67504286Y-115042190D01*
X67551905Y-115066000D01*
X67575715Y-115089810D01*
X67599524Y-115137429D01*
X67599524Y-115185048D01*
X67575715Y-115256476D01*
X67290001Y-115542190D01*
X67599524Y-115542190D01*
D11*
X62889048Y-120191429D02*
X63650953Y-120191429D01*
X63270001Y-120572381D02*
X63270001Y-119810476D01*
D14*
X84887571Y-183736999D02*
X84911381Y-183760809D01*
X84935190Y-183832237D01*
X84935190Y-183879856D01*
X84911381Y-183951285D01*
X84863762Y-183998904D01*
X84816143Y-184022713D01*
X84720905Y-184046523D01*
X84649476Y-184046523D01*
X84554238Y-184022713D01*
X84506619Y-183998904D01*
X84459000Y-183951285D01*
X84435190Y-183879856D01*
X84435190Y-183832237D01*
X84459000Y-183760809D01*
X84482810Y-183736999D01*
X84982810Y-183641761D02*
X84982810Y-183260809D01*
X84887571Y-182856047D02*
X84911381Y-182879857D01*
X84935190Y-182951285D01*
X84935190Y-182998904D01*
X84911381Y-183070333D01*
X84863762Y-183117952D01*
X84816143Y-183141761D01*
X84720905Y-183165571D01*
X84649476Y-183165571D01*
X84554238Y-183141761D01*
X84506619Y-183117952D01*
X84459000Y-183070333D01*
X84435190Y-182998904D01*
X84435190Y-182951285D01*
X84459000Y-182879857D01*
X84482810Y-182856047D01*
X84935190Y-182403666D02*
X84935190Y-182641761D01*
X84435190Y-182641761D01*
X84673286Y-182236999D02*
X84673286Y-182070333D01*
X84935190Y-181998904D02*
X84935190Y-182236999D01*
X84435190Y-182236999D01*
X84435190Y-181998904D01*
X84792333Y-181808428D02*
X84792333Y-181570333D01*
X84935190Y-181856047D02*
X84435190Y-181689380D01*
X84935190Y-181522714D01*
X84935190Y-181356047D02*
X84435190Y-181356047D01*
X84935190Y-181070333D01*
X84435190Y-181070333D01*
X84982810Y-180951285D02*
X84982810Y-180570333D01*
X84935190Y-180451285D02*
X84435190Y-180451285D01*
X84935190Y-180213190D02*
X84435190Y-180213190D01*
X84935190Y-179927476D01*
X84435190Y-179927476D01*
X84935190Y-179427476D02*
X84935190Y-179713190D01*
X84935190Y-179570333D02*
X84435190Y-179570333D01*
X84506619Y-179617952D01*
X84554238Y-179665571D01*
X84578048Y-179713190D01*
X91872571Y-183479046D02*
X91896381Y-183502856D01*
X91920190Y-183574284D01*
X91920190Y-183621903D01*
X91896381Y-183693332D01*
X91848762Y-183740951D01*
X91801143Y-183764760D01*
X91705905Y-183788570D01*
X91634476Y-183788570D01*
X91539238Y-183764760D01*
X91491619Y-183740951D01*
X91444000Y-183693332D01*
X91420190Y-183621903D01*
X91420190Y-183574284D01*
X91444000Y-183502856D01*
X91467810Y-183479046D01*
X91967810Y-183383808D02*
X91967810Y-183002856D01*
X91920190Y-182883808D02*
X91420190Y-182883808D01*
X91420190Y-182764761D01*
X91444000Y-182693332D01*
X91491619Y-182645713D01*
X91539238Y-182621904D01*
X91634476Y-182598094D01*
X91705905Y-182598094D01*
X91801143Y-182621904D01*
X91848762Y-182645713D01*
X91896381Y-182693332D01*
X91920190Y-182764761D01*
X91920190Y-182883808D01*
X91920190Y-182383808D02*
X91420190Y-182383808D01*
X91920190Y-181859999D02*
X91682095Y-182026666D01*
X91920190Y-182145713D02*
X91420190Y-182145713D01*
X91420190Y-181955237D01*
X91444000Y-181907618D01*
X91467810Y-181883809D01*
X91515429Y-181859999D01*
X91586857Y-181859999D01*
X91634476Y-181883809D01*
X91658286Y-181907618D01*
X91682095Y-181955237D01*
X91682095Y-182145713D01*
X91420190Y-181717142D02*
X91420190Y-181431428D01*
X91920190Y-181574285D02*
X91420190Y-181574285D01*
X91682095Y-181169523D02*
X91920190Y-181169523D01*
X91420190Y-181336190D02*
X91682095Y-181169523D01*
X91420190Y-181002857D01*
X91967810Y-180955238D02*
X91967810Y-180574286D01*
X91920190Y-180455238D02*
X91420190Y-180455238D01*
X91920190Y-180217143D02*
X91420190Y-180217143D01*
X91920190Y-179931429D01*
X91420190Y-179931429D01*
X91920190Y-179431429D02*
X91920190Y-179717143D01*
X91920190Y-179574286D02*
X91420190Y-179574286D01*
X91491619Y-179621905D01*
X91539238Y-179669524D01*
X91563048Y-179717143D01*
X128290000Y-138608571D02*
X128266190Y-138632381D01*
X128194762Y-138656190D01*
X128147143Y-138656190D01*
X128075714Y-138632381D01*
X128028095Y-138584762D01*
X128004286Y-138537143D01*
X127980476Y-138441905D01*
X127980476Y-138370476D01*
X128004286Y-138275238D01*
X128028095Y-138227619D01*
X128075714Y-138180000D01*
X128147143Y-138156190D01*
X128194762Y-138156190D01*
X128266190Y-138180000D01*
X128290000Y-138203810D01*
X128385238Y-138703810D02*
X128766190Y-138703810D01*
X128885238Y-138656190D02*
X128885238Y-138156190D01*
X128885238Y-138394286D02*
X129170952Y-138394286D01*
X129170952Y-138656190D02*
X129170952Y-138156190D01*
X129504286Y-138156190D02*
X129599524Y-138156190D01*
X129647143Y-138180000D01*
X129694762Y-138227619D01*
X129718571Y-138322857D01*
X129718571Y-138489524D01*
X129694762Y-138584762D01*
X129647143Y-138632381D01*
X129599524Y-138656190D01*
X129504286Y-138656190D01*
X129456667Y-138632381D01*
X129409048Y-138584762D01*
X129385238Y-138489524D01*
X129385238Y-138322857D01*
X129409048Y-138227619D01*
X129456667Y-138180000D01*
X129504286Y-138156190D01*
X130170953Y-138656190D02*
X129932858Y-138656190D01*
X129932858Y-138156190D01*
X130337620Y-138656190D02*
X130337620Y-138156190D01*
X130456667Y-138156190D01*
X130528096Y-138180000D01*
X130575715Y-138227619D01*
X130599524Y-138275238D01*
X130623334Y-138370476D01*
X130623334Y-138441905D01*
X130599524Y-138537143D01*
X130575715Y-138584762D01*
X130528096Y-138632381D01*
X130456667Y-138656190D01*
X130337620Y-138656190D01*
X131099524Y-138656190D02*
X130813810Y-138656190D01*
X130956667Y-138656190D02*
X130956667Y-138156190D01*
X130909048Y-138227619D01*
X130861429Y-138275238D01*
X130813810Y-138299048D01*
X128290000Y-135433571D02*
X128266190Y-135457381D01*
X128194762Y-135481190D01*
X128147143Y-135481190D01*
X128075714Y-135457381D01*
X128028095Y-135409762D01*
X128004286Y-135362143D01*
X127980476Y-135266905D01*
X127980476Y-135195476D01*
X128004286Y-135100238D01*
X128028095Y-135052619D01*
X128075714Y-135005000D01*
X128147143Y-134981190D01*
X128194762Y-134981190D01*
X128266190Y-135005000D01*
X128290000Y-135028810D01*
X128385238Y-135528810D02*
X128766190Y-135528810D01*
X128885238Y-135481190D02*
X128885238Y-134981190D01*
X128885238Y-135219286D02*
X129170952Y-135219286D01*
X129170952Y-135481190D02*
X129170952Y-134981190D01*
X129504286Y-134981190D02*
X129599524Y-134981190D01*
X129647143Y-135005000D01*
X129694762Y-135052619D01*
X129718571Y-135147857D01*
X129718571Y-135314524D01*
X129694762Y-135409762D01*
X129647143Y-135457381D01*
X129599524Y-135481190D01*
X129504286Y-135481190D01*
X129456667Y-135457381D01*
X129409048Y-135409762D01*
X129385238Y-135314524D01*
X129385238Y-135147857D01*
X129409048Y-135052619D01*
X129456667Y-135005000D01*
X129504286Y-134981190D01*
X130170953Y-135481190D02*
X129932858Y-135481190D01*
X129932858Y-134981190D01*
X130337620Y-135481190D02*
X130337620Y-134981190D01*
X130456667Y-134981190D01*
X130528096Y-135005000D01*
X130575715Y-135052619D01*
X130599524Y-135100238D01*
X130623334Y-135195476D01*
X130623334Y-135266905D01*
X130599524Y-135362143D01*
X130575715Y-135409762D01*
X130528096Y-135457381D01*
X130456667Y-135481190D01*
X130337620Y-135481190D01*
X130813810Y-135028810D02*
X130837620Y-135005000D01*
X130885239Y-134981190D01*
X131004286Y-134981190D01*
X131051905Y-135005000D01*
X131075715Y-135028810D01*
X131099524Y-135076429D01*
X131099524Y-135124048D01*
X131075715Y-135195476D01*
X130790001Y-135481190D01*
X131099524Y-135481190D01*
X128599525Y-132258571D02*
X128575715Y-132282381D01*
X128504287Y-132306190D01*
X128456668Y-132306190D01*
X128385239Y-132282381D01*
X128337620Y-132234762D01*
X128313811Y-132187143D01*
X128290001Y-132091905D01*
X128290001Y-132020476D01*
X128313811Y-131925238D01*
X128337620Y-131877619D01*
X128385239Y-131830000D01*
X128456668Y-131806190D01*
X128504287Y-131806190D01*
X128575715Y-131830000D01*
X128599525Y-131853810D01*
X128694763Y-132353810D02*
X129075715Y-132353810D01*
X129432858Y-132306190D02*
X129194763Y-132306190D01*
X129194763Y-131806190D01*
X129599525Y-132306190D02*
X129599525Y-131806190D01*
X129790001Y-131806190D01*
X129837620Y-131830000D01*
X129861429Y-131853810D01*
X129885239Y-131901429D01*
X129885239Y-131972857D01*
X129861429Y-132020476D01*
X129837620Y-132044286D01*
X129790001Y-132068095D01*
X129599525Y-132068095D01*
X130266191Y-132044286D02*
X130099525Y-132044286D01*
X130099525Y-132306190D02*
X130099525Y-131806190D01*
X130337620Y-131806190D01*
X130790000Y-132306190D02*
X130504286Y-132306190D01*
X130647143Y-132306190D02*
X130647143Y-131806190D01*
X130599524Y-131877619D01*
X130551905Y-131925238D01*
X130504286Y-131949048D01*
X110887001Y-124257571D02*
X110863191Y-124281381D01*
X110791763Y-124305190D01*
X110744144Y-124305190D01*
X110672715Y-124281381D01*
X110625096Y-124233762D01*
X110601287Y-124186143D01*
X110577477Y-124090905D01*
X110577477Y-124019476D01*
X110601287Y-123924238D01*
X110625096Y-123876619D01*
X110672715Y-123829000D01*
X110744144Y-123805190D01*
X110791763Y-123805190D01*
X110863191Y-123829000D01*
X110887001Y-123852810D01*
X110982239Y-124352810D02*
X111363191Y-124352810D01*
X111410810Y-123805190D02*
X111577477Y-124305190D01*
X111744143Y-123805190D01*
X112196524Y-124257571D02*
X112172714Y-124281381D01*
X112101286Y-124305190D01*
X112053667Y-124305190D01*
X111982238Y-124281381D01*
X111934619Y-124233762D01*
X111910810Y-124186143D01*
X111887000Y-124090905D01*
X111887000Y-124019476D01*
X111910810Y-123924238D01*
X111934619Y-123876619D01*
X111982238Y-123829000D01*
X112053667Y-123805190D01*
X112101286Y-123805190D01*
X112172714Y-123829000D01*
X112196524Y-123852810D01*
X112506048Y-123805190D02*
X112601286Y-123805190D01*
X112648905Y-123829000D01*
X112696524Y-123876619D01*
X112720333Y-123971857D01*
X112720333Y-124138524D01*
X112696524Y-124233762D01*
X112648905Y-124281381D01*
X112601286Y-124305190D01*
X112506048Y-124305190D01*
X112458429Y-124281381D01*
X112410810Y-124233762D01*
X112387000Y-124138524D01*
X112387000Y-123971857D01*
X112410810Y-123876619D01*
X112458429Y-123829000D01*
X112506048Y-123805190D01*
X113196524Y-124305190D02*
X112910810Y-124305190D01*
X113053667Y-124305190D02*
X113053667Y-123805190D01*
X113006048Y-123876619D01*
X112958429Y-123924238D01*
X112910810Y-123948048D01*
X126472358Y-75473690D02*
X126472358Y-74973690D01*
X126591405Y-74973690D01*
X126662834Y-74997500D01*
X126710453Y-75045119D01*
X126734262Y-75092738D01*
X126758072Y-75187976D01*
X126758072Y-75259405D01*
X126734262Y-75354643D01*
X126710453Y-75402262D01*
X126662834Y-75449881D01*
X126591405Y-75473690D01*
X126472358Y-75473690D01*
X126948548Y-75330833D02*
X127186643Y-75330833D01*
X126900929Y-75473690D02*
X127067596Y-74973690D01*
X127234262Y-75473690D01*
X127400929Y-75473690D02*
X127400929Y-74973690D01*
X127567595Y-75330833D01*
X127734262Y-74973690D01*
X127734262Y-75473690D01*
X127972358Y-75473690D02*
X127972358Y-74973690D01*
X128162834Y-74973690D01*
X128210453Y-74997500D01*
X128234262Y-75021310D01*
X128258072Y-75068929D01*
X128258072Y-75140357D01*
X128234262Y-75187976D01*
X128210453Y-75211786D01*
X128162834Y-75235595D01*
X127972358Y-75235595D01*
X128472358Y-75211786D02*
X128639024Y-75211786D01*
X128710453Y-75473690D02*
X128472358Y-75473690D01*
X128472358Y-74973690D01*
X128710453Y-74973690D01*
X128924739Y-75473690D02*
X128924739Y-74973690D01*
X129210453Y-75473690D01*
X129210453Y-74973690D01*
X129710453Y-75473690D02*
X129424739Y-75473690D01*
X129567596Y-75473690D02*
X129567596Y-74973690D01*
X129519977Y-75045119D01*
X129472358Y-75092738D01*
X129424739Y-75116548D01*
X59281190Y-172390475D02*
X58781190Y-172390475D01*
X58781190Y-172271428D01*
X58805000Y-172199999D01*
X58852619Y-172152380D01*
X58900238Y-172128571D01*
X58995476Y-172104761D01*
X59066905Y-172104761D01*
X59162143Y-172128571D01*
X59209762Y-172152380D01*
X59257381Y-172199999D01*
X59281190Y-172271428D01*
X59281190Y-172390475D01*
X59328810Y-172009523D02*
X59328810Y-171628571D01*
X59281190Y-171509523D02*
X58781190Y-171509523D01*
X59281190Y-171271428D02*
X58781190Y-171271428D01*
X59281190Y-170985714D01*
X58781190Y-170985714D01*
X59281190Y-170485714D02*
X59281190Y-170771428D01*
X59281190Y-170628571D02*
X58781190Y-170628571D01*
X58852619Y-170676190D01*
X58900238Y-170723809D01*
X58924048Y-170771428D01*
X110105167Y-99095690D02*
X110105167Y-98595690D01*
X110224214Y-98595690D01*
X110295643Y-98619500D01*
X110343262Y-98667119D01*
X110367071Y-98714738D01*
X110390881Y-98809976D01*
X110390881Y-98881405D01*
X110367071Y-98976643D01*
X110343262Y-99024262D01*
X110295643Y-99071881D01*
X110224214Y-99095690D01*
X110105167Y-99095690D01*
X110486119Y-99143310D02*
X110867071Y-99143310D01*
X111081357Y-98595690D02*
X111176595Y-98595690D01*
X111224214Y-98619500D01*
X111271833Y-98667119D01*
X111295642Y-98762357D01*
X111295642Y-98929024D01*
X111271833Y-99024262D01*
X111224214Y-99071881D01*
X111176595Y-99095690D01*
X111081357Y-99095690D01*
X111033738Y-99071881D01*
X110986119Y-99024262D01*
X110962309Y-98929024D01*
X110962309Y-98762357D01*
X110986119Y-98667119D01*
X111033738Y-98619500D01*
X111081357Y-98595690D01*
X111509929Y-99095690D02*
X111509929Y-98595690D01*
X111795643Y-99095690D01*
X111795643Y-98595690D01*
X112295643Y-99095690D02*
X112009929Y-99095690D01*
X112152786Y-99095690D02*
X112152786Y-98595690D01*
X112105167Y-98667119D01*
X112057548Y-98714738D01*
X112009929Y-98738548D01*
X98413214Y-75021286D02*
X98246548Y-75021286D01*
X98246548Y-75283190D02*
X98246548Y-74783190D01*
X98484643Y-74783190D01*
X98675119Y-75283190D02*
X98675119Y-74783190D01*
X98841785Y-75140333D01*
X99008452Y-74783190D01*
X99008452Y-75283190D01*
X99341786Y-74783190D02*
X99437024Y-74783190D01*
X99484643Y-74807000D01*
X99532262Y-74854619D01*
X99556071Y-74949857D01*
X99556071Y-75116524D01*
X99532262Y-75211762D01*
X99484643Y-75259381D01*
X99437024Y-75283190D01*
X99341786Y-75283190D01*
X99294167Y-75259381D01*
X99246548Y-75211762D01*
X99222738Y-75116524D01*
X99222738Y-74949857D01*
X99246548Y-74854619D01*
X99294167Y-74807000D01*
X99341786Y-74783190D01*
X99770358Y-75283190D02*
X99770358Y-74783190D01*
X99889405Y-74783190D01*
X99960834Y-74807000D01*
X100008453Y-74854619D01*
X100032262Y-74902238D01*
X100056072Y-74997476D01*
X100056072Y-75068905D01*
X100032262Y-75164143D01*
X100008453Y-75211762D01*
X99960834Y-75259381D01*
X99889405Y-75283190D01*
X99770358Y-75283190D01*
X100532262Y-75283190D02*
X100246548Y-75283190D01*
X100389405Y-75283190D02*
X100389405Y-74783190D01*
X100341786Y-74854619D01*
X100294167Y-74902238D01*
X100246548Y-74926048D01*
X69846167Y-75402286D02*
X69679501Y-75402286D01*
X69679501Y-75664190D02*
X69679501Y-75164190D01*
X69917596Y-75164190D01*
X70060453Y-75164190D02*
X70393786Y-75664190D01*
X70393786Y-75164190D02*
X70060453Y-75664190D01*
X70512833Y-75164190D02*
X70679500Y-75664190D01*
X70846166Y-75164190D01*
X71108071Y-75164190D02*
X71203309Y-75164190D01*
X71250928Y-75188000D01*
X71298547Y-75235619D01*
X71322356Y-75330857D01*
X71322356Y-75497524D01*
X71298547Y-75592762D01*
X71250928Y-75640381D01*
X71203309Y-75664190D01*
X71108071Y-75664190D01*
X71060452Y-75640381D01*
X71012833Y-75592762D01*
X70989023Y-75497524D01*
X70989023Y-75330857D01*
X71012833Y-75235619D01*
X71060452Y-75188000D01*
X71108071Y-75164190D01*
X71774738Y-75664190D02*
X71536643Y-75664190D01*
X71536643Y-75164190D01*
X72203309Y-75664190D02*
X71917595Y-75664190D01*
X72060452Y-75664190D02*
X72060452Y-75164190D01*
X72012833Y-75235619D01*
X71965214Y-75283238D01*
X71917595Y-75307048D01*
X139680190Y-88066141D02*
X140037333Y-88066141D01*
X140108762Y-88089951D01*
X140156381Y-88137570D01*
X140180190Y-88208998D01*
X140180190Y-88256617D01*
X140227810Y-87947094D02*
X140227810Y-87566142D01*
X140037333Y-87470904D02*
X140037333Y-87232809D01*
X140180190Y-87518523D02*
X139680190Y-87351856D01*
X140180190Y-87185190D01*
X139680190Y-87018523D02*
X140084952Y-87018523D01*
X140132571Y-86994714D01*
X140156381Y-86970904D01*
X140180190Y-86923285D01*
X140180190Y-86828047D01*
X140156381Y-86780428D01*
X140132571Y-86756619D01*
X140084952Y-86732809D01*
X139680190Y-86732809D01*
X139680190Y-86542332D02*
X140180190Y-86208999D01*
X139680190Y-86208999D02*
X140180190Y-86542332D01*
X139727810Y-86042333D02*
X139704000Y-86018523D01*
X139680190Y-85970904D01*
X139680190Y-85851857D01*
X139704000Y-85804238D01*
X139727810Y-85780428D01*
X139775429Y-85756619D01*
X139823048Y-85756619D01*
X139894476Y-85780428D01*
X140180190Y-86066142D01*
X140180190Y-85756619D01*
X140180190Y-85542333D02*
X139680190Y-85542333D01*
X140037333Y-85375667D01*
X139680190Y-85209000D01*
X140180190Y-85209000D01*
X140037333Y-84994714D02*
X140037333Y-84756619D01*
X140180190Y-85042333D02*
X139680190Y-84875666D01*
X140180190Y-84709000D01*
X140180190Y-84542333D02*
X139680190Y-84542333D01*
X140180190Y-84304238D02*
X139680190Y-84304238D01*
X140180190Y-84018524D01*
X139680190Y-84018524D01*
X140227810Y-83899476D02*
X140227810Y-83518524D01*
X139918286Y-83232810D02*
X139918286Y-83399476D01*
X140180190Y-83399476D02*
X139680190Y-83399476D01*
X139680190Y-83161381D01*
X139680190Y-83018524D02*
X140180190Y-82685191D01*
X139680190Y-82685191D02*
X140180190Y-83018524D01*
X140156381Y-82518525D02*
X140180190Y-82447096D01*
X140180190Y-82328049D01*
X140156381Y-82280430D01*
X140132571Y-82256620D01*
X140084952Y-82232811D01*
X140037333Y-82232811D01*
X139989714Y-82256620D01*
X139965905Y-82280430D01*
X139942095Y-82328049D01*
X139918286Y-82423287D01*
X139894476Y-82470906D01*
X139870667Y-82494715D01*
X139823048Y-82518525D01*
X139775429Y-82518525D01*
X139727810Y-82494715D01*
X139704000Y-82470906D01*
X139680190Y-82423287D01*
X139680190Y-82304239D01*
X139704000Y-82232811D01*
X139680190Y-82066144D02*
X140180190Y-81947097D01*
X139823048Y-81851859D01*
X140180190Y-81756621D01*
X139680190Y-81637573D01*
X140180190Y-81185192D02*
X140180190Y-81470906D01*
X140180190Y-81328049D02*
X139680190Y-81328049D01*
X139751619Y-81375668D01*
X139799238Y-81423287D01*
X139823048Y-81470906D01*
X86276690Y-87133522D02*
X86633833Y-87133522D01*
X86705262Y-87157332D01*
X86752881Y-87204951D01*
X86776690Y-87276379D01*
X86776690Y-87323998D01*
X86824310Y-87014475D02*
X86824310Y-86633523D01*
X86633833Y-86538285D02*
X86633833Y-86300190D01*
X86776690Y-86585904D02*
X86276690Y-86419237D01*
X86776690Y-86252571D01*
X86276690Y-86085904D02*
X86681452Y-86085904D01*
X86729071Y-86062095D01*
X86752881Y-86038285D01*
X86776690Y-85990666D01*
X86776690Y-85895428D01*
X86752881Y-85847809D01*
X86729071Y-85824000D01*
X86681452Y-85800190D01*
X86276690Y-85800190D01*
X86276690Y-85609713D02*
X86776690Y-85276380D01*
X86276690Y-85276380D02*
X86776690Y-85609713D01*
X86324310Y-85109714D02*
X86300500Y-85085904D01*
X86276690Y-85038285D01*
X86276690Y-84919238D01*
X86300500Y-84871619D01*
X86324310Y-84847809D01*
X86371929Y-84824000D01*
X86419548Y-84824000D01*
X86490976Y-84847809D01*
X86776690Y-85133523D01*
X86776690Y-84824000D01*
X86776690Y-84609714D02*
X86276690Y-84609714D01*
X86633833Y-84443048D01*
X86276690Y-84276381D01*
X86776690Y-84276381D01*
X86633833Y-84062095D02*
X86633833Y-83824000D01*
X86776690Y-84109714D02*
X86276690Y-83943047D01*
X86776690Y-83776381D01*
X86776690Y-83609714D02*
X86276690Y-83609714D01*
X86776690Y-83371619D02*
X86276690Y-83371619D01*
X86776690Y-83085905D01*
X86276690Y-83085905D01*
X86824310Y-82966857D02*
X86824310Y-82585905D01*
X86276690Y-82538286D02*
X86776690Y-82371619D01*
X86276690Y-82204953D01*
X86276690Y-81943048D02*
X86276690Y-81847810D01*
X86300500Y-81800191D01*
X86348119Y-81752572D01*
X86443357Y-81728763D01*
X86610024Y-81728763D01*
X86705262Y-81752572D01*
X86752881Y-81800191D01*
X86776690Y-81847810D01*
X86776690Y-81943048D01*
X86752881Y-81990667D01*
X86705262Y-82038286D01*
X86610024Y-82062096D01*
X86443357Y-82062096D01*
X86348119Y-82038286D01*
X86300500Y-81990667D01*
X86276690Y-81943048D01*
X86776690Y-81276381D02*
X86776690Y-81514476D01*
X86276690Y-81514476D01*
X86776690Y-80847810D02*
X86776690Y-81133524D01*
X86776690Y-80990667D02*
X86276690Y-80990667D01*
X86348119Y-81038286D01*
X86395738Y-81085905D01*
X86419548Y-81133524D01*
X127710668Y-166731190D02*
X127710668Y-167088333D01*
X127686858Y-167159762D01*
X127639239Y-167207381D01*
X127567811Y-167231190D01*
X127520192Y-167231190D01*
X127829715Y-167278810D02*
X128210667Y-167278810D01*
X128615429Y-167183571D02*
X128591619Y-167207381D01*
X128520191Y-167231190D01*
X128472572Y-167231190D01*
X128401143Y-167207381D01*
X128353524Y-167159762D01*
X128329715Y-167112143D01*
X128305905Y-167016905D01*
X128305905Y-166945476D01*
X128329715Y-166850238D01*
X128353524Y-166802619D01*
X128401143Y-166755000D01*
X128472572Y-166731190D01*
X128520191Y-166731190D01*
X128591619Y-166755000D01*
X128615429Y-166778810D01*
X129067810Y-167231190D02*
X128829715Y-167231190D01*
X128829715Y-166731190D01*
X129234477Y-166969286D02*
X129401143Y-166969286D01*
X129472572Y-167231190D02*
X129234477Y-167231190D01*
X129234477Y-166731190D01*
X129472572Y-166731190D01*
X129663048Y-167088333D02*
X129901143Y-167088333D01*
X129615429Y-167231190D02*
X129782096Y-166731190D01*
X129948762Y-167231190D01*
X130115429Y-167231190D02*
X130115429Y-166731190D01*
X130401143Y-167231190D01*
X130401143Y-166731190D01*
X130520191Y-167278810D02*
X130901143Y-167278810D01*
X131020191Y-167231190D02*
X131020191Y-166731190D01*
X131258286Y-167231190D02*
X131258286Y-166731190D01*
X131544000Y-167231190D01*
X131544000Y-166731190D01*
X132044000Y-167231190D02*
X131758286Y-167231190D01*
X131901143Y-167231190D02*
X131901143Y-166731190D01*
X131853524Y-166802619D01*
X131805905Y-166850238D01*
X131758286Y-166874048D01*
X127968621Y-210038190D02*
X127968621Y-210395333D01*
X127944811Y-210466762D01*
X127897192Y-210514381D01*
X127825764Y-210538190D01*
X127778145Y-210538190D01*
X128087668Y-210585810D02*
X128468620Y-210585810D01*
X128587668Y-210538190D02*
X128587668Y-210038190D01*
X128706715Y-210038190D01*
X128778144Y-210062000D01*
X128825763Y-210109619D01*
X128849572Y-210157238D01*
X128873382Y-210252476D01*
X128873382Y-210323905D01*
X128849572Y-210419143D01*
X128825763Y-210466762D01*
X128778144Y-210514381D01*
X128706715Y-210538190D01*
X128587668Y-210538190D01*
X129087668Y-210538190D02*
X129087668Y-210038190D01*
X129611477Y-210538190D02*
X129444810Y-210300095D01*
X129325763Y-210538190D02*
X129325763Y-210038190D01*
X129516239Y-210038190D01*
X129563858Y-210062000D01*
X129587667Y-210085810D01*
X129611477Y-210133429D01*
X129611477Y-210204857D01*
X129587667Y-210252476D01*
X129563858Y-210276286D01*
X129516239Y-210300095D01*
X129325763Y-210300095D01*
X129754334Y-210038190D02*
X130040048Y-210038190D01*
X129897191Y-210538190D02*
X129897191Y-210038190D01*
X130301953Y-210300095D02*
X130301953Y-210538190D01*
X130135286Y-210038190D02*
X130301953Y-210300095D01*
X130468619Y-210038190D01*
X130516238Y-210585810D02*
X130897190Y-210585810D01*
X131016238Y-210538190D02*
X131016238Y-210038190D01*
X131254333Y-210538190D02*
X131254333Y-210038190D01*
X131540047Y-210538190D01*
X131540047Y-210038190D01*
X132040047Y-210538190D02*
X131754333Y-210538190D01*
X131897190Y-210538190D02*
X131897190Y-210038190D01*
X131849571Y-210109619D01*
X131801952Y-210157238D01*
X131754333Y-210181048D01*
X81260190Y-149300022D02*
X81617333Y-149300022D01*
X81688762Y-149323832D01*
X81736381Y-149371451D01*
X81760190Y-149442879D01*
X81760190Y-149490498D01*
X81807810Y-149180975D02*
X81807810Y-148800023D01*
X81760190Y-148680975D02*
X81260190Y-148680975D01*
X81617333Y-148514309D01*
X81260190Y-148347642D01*
X81760190Y-148347642D01*
X81617333Y-148133356D02*
X81617333Y-147895261D01*
X81760190Y-148180975D02*
X81260190Y-148014308D01*
X81760190Y-147847642D01*
X81760190Y-147680975D02*
X81260190Y-147680975D01*
X81760190Y-147442880D02*
X81260190Y-147442880D01*
X81760190Y-147157166D01*
X81260190Y-147157166D01*
X81307810Y-146942880D02*
X81284000Y-146919070D01*
X81260190Y-146871451D01*
X81260190Y-146752404D01*
X81284000Y-146704785D01*
X81307810Y-146680975D01*
X81355429Y-146657166D01*
X81403048Y-146657166D01*
X81474476Y-146680975D01*
X81760190Y-146966689D01*
X81760190Y-146657166D01*
X81617333Y-146466690D02*
X81617333Y-146228595D01*
X81760190Y-146514309D02*
X81260190Y-146347642D01*
X81760190Y-146180976D01*
X81260190Y-146014309D02*
X81664952Y-146014309D01*
X81712571Y-145990500D01*
X81736381Y-145966690D01*
X81760190Y-145919071D01*
X81760190Y-145823833D01*
X81736381Y-145776214D01*
X81712571Y-145752405D01*
X81664952Y-145728595D01*
X81260190Y-145728595D01*
X81260190Y-145538118D02*
X81760190Y-145204785D01*
X81260190Y-145204785D02*
X81760190Y-145538118D01*
X81807810Y-145133357D02*
X81807810Y-144752405D01*
X81260190Y-144704786D02*
X81760190Y-144538119D01*
X81260190Y-144371453D01*
X81260190Y-144109548D02*
X81260190Y-144014310D01*
X81284000Y-143966691D01*
X81331619Y-143919072D01*
X81426857Y-143895263D01*
X81593524Y-143895263D01*
X81688762Y-143919072D01*
X81736381Y-143966691D01*
X81760190Y-144014310D01*
X81760190Y-144109548D01*
X81736381Y-144157167D01*
X81688762Y-144204786D01*
X81593524Y-144228596D01*
X81426857Y-144228596D01*
X81331619Y-144204786D01*
X81284000Y-144157167D01*
X81260190Y-144109548D01*
X81760190Y-143442881D02*
X81760190Y-143680976D01*
X81260190Y-143680976D01*
X81760190Y-143014310D02*
X81760190Y-143300024D01*
X81760190Y-143157167D02*
X81260190Y-143157167D01*
X81331619Y-143204786D01*
X81379238Y-143252405D01*
X81403048Y-143300024D01*
X67699048Y-208768190D02*
X67699048Y-209125333D01*
X67675238Y-209196762D01*
X67627619Y-209244381D01*
X67556191Y-209268190D01*
X67508572Y-209268190D01*
X67818095Y-209315810D02*
X68199047Y-209315810D01*
X68413333Y-208768190D02*
X68508571Y-208768190D01*
X68556190Y-208792000D01*
X68603809Y-208839619D01*
X68627618Y-208934857D01*
X68627618Y-209101524D01*
X68603809Y-209196762D01*
X68556190Y-209244381D01*
X68508571Y-209268190D01*
X68413333Y-209268190D01*
X68365714Y-209244381D01*
X68318095Y-209196762D01*
X68294285Y-209101524D01*
X68294285Y-208934857D01*
X68318095Y-208839619D01*
X68365714Y-208792000D01*
X68413333Y-208768190D01*
X68841905Y-208768190D02*
X68841905Y-209172952D01*
X68865714Y-209220571D01*
X68889524Y-209244381D01*
X68937143Y-209268190D01*
X69032381Y-209268190D01*
X69080000Y-209244381D01*
X69103809Y-209220571D01*
X69127619Y-209172952D01*
X69127619Y-208768190D01*
X69627619Y-209268190D02*
X69341905Y-209268190D01*
X69484762Y-209268190D02*
X69484762Y-208768190D01*
X69437143Y-208839619D01*
X69389524Y-208887238D01*
X69341905Y-208911048D01*
X72243190Y-181996352D02*
X72600333Y-181996352D01*
X72671762Y-182020162D01*
X72719381Y-182067781D01*
X72743190Y-182139209D01*
X72743190Y-182186828D01*
X72790810Y-181877305D02*
X72790810Y-181496353D01*
X72743190Y-181377305D02*
X72243190Y-181377305D01*
X72243190Y-181186829D01*
X72267000Y-181139210D01*
X72290810Y-181115401D01*
X72338429Y-181091591D01*
X72409857Y-181091591D01*
X72457476Y-181115401D01*
X72481286Y-181139210D01*
X72505095Y-181186829D01*
X72505095Y-181377305D01*
X72243190Y-180782067D02*
X72243190Y-180686829D01*
X72267000Y-180639210D01*
X72314619Y-180591591D01*
X72409857Y-180567782D01*
X72576524Y-180567782D01*
X72671762Y-180591591D01*
X72719381Y-180639210D01*
X72743190Y-180686829D01*
X72743190Y-180782067D01*
X72719381Y-180829686D01*
X72671762Y-180877305D01*
X72576524Y-180901115D01*
X72409857Y-180901115D01*
X72314619Y-180877305D01*
X72267000Y-180829686D01*
X72243190Y-180782067D01*
X72243190Y-180401114D02*
X72743190Y-180282067D01*
X72386048Y-180186829D01*
X72743190Y-180091591D01*
X72243190Y-179972543D01*
X72481286Y-179782066D02*
X72481286Y-179615400D01*
X72743190Y-179543971D02*
X72743190Y-179782066D01*
X72243190Y-179782066D01*
X72243190Y-179543971D01*
X72743190Y-179043971D02*
X72505095Y-179210638D01*
X72743190Y-179329685D02*
X72243190Y-179329685D01*
X72243190Y-179139209D01*
X72267000Y-179091590D01*
X72290810Y-179067781D01*
X72338429Y-179043971D01*
X72409857Y-179043971D01*
X72457476Y-179067781D01*
X72481286Y-179091590D01*
X72505095Y-179139209D01*
X72505095Y-179329685D01*
X72743190Y-178567781D02*
X72743190Y-178853495D01*
X72743190Y-178710638D02*
X72243190Y-178710638D01*
X72314619Y-178758257D01*
X72362238Y-178805876D01*
X72386048Y-178853495D01*
X88765239Y-147165190D02*
X88598572Y-146927095D01*
X88479525Y-147165190D02*
X88479525Y-146665190D01*
X88670001Y-146665190D01*
X88717620Y-146689000D01*
X88741429Y-146712810D01*
X88765239Y-146760429D01*
X88765239Y-146831857D01*
X88741429Y-146879476D01*
X88717620Y-146903286D01*
X88670001Y-146927095D01*
X88479525Y-146927095D01*
X88860477Y-147212810D02*
X89241429Y-147212810D01*
X89527143Y-146903286D02*
X89360477Y-146903286D01*
X89360477Y-147165190D02*
X89360477Y-146665190D01*
X89598572Y-146665190D01*
X89741429Y-146665190D02*
X90074762Y-147165190D01*
X90074762Y-146665190D02*
X89741429Y-147165190D01*
X90193809Y-146665190D02*
X90360476Y-147165190D01*
X90527142Y-146665190D01*
X90789047Y-146665190D02*
X90884285Y-146665190D01*
X90931904Y-146689000D01*
X90979523Y-146736619D01*
X91003332Y-146831857D01*
X91003332Y-146998524D01*
X90979523Y-147093762D01*
X90931904Y-147141381D01*
X90884285Y-147165190D01*
X90789047Y-147165190D01*
X90741428Y-147141381D01*
X90693809Y-147093762D01*
X90669999Y-146998524D01*
X90669999Y-146831857D01*
X90693809Y-146736619D01*
X90741428Y-146689000D01*
X90789047Y-146665190D01*
X91455714Y-147165190D02*
X91217619Y-147165190D01*
X91217619Y-146665190D01*
X91884285Y-147165190D02*
X91598571Y-147165190D01*
X91741428Y-147165190D02*
X91741428Y-146665190D01*
X91693809Y-146736619D01*
X91646190Y-146784238D01*
X91598571Y-146808048D01*
X103326573Y-152245190D02*
X103159906Y-152007095D01*
X103040859Y-152245190D02*
X103040859Y-151745190D01*
X103231335Y-151745190D01*
X103278954Y-151769000D01*
X103302763Y-151792810D01*
X103326573Y-151840429D01*
X103326573Y-151911857D01*
X103302763Y-151959476D01*
X103278954Y-151983286D01*
X103231335Y-152007095D01*
X103040859Y-152007095D01*
X103421811Y-152292810D02*
X103802763Y-152292810D01*
X103921811Y-152245190D02*
X103921811Y-151745190D01*
X104088477Y-152102333D01*
X104255144Y-151745190D01*
X104255144Y-152245190D01*
X104493240Y-152245190D02*
X104493240Y-151745190D01*
X104683716Y-151745190D02*
X105017049Y-152245190D01*
X105017049Y-151745190D02*
X104683716Y-152245190D01*
X105088477Y-152292810D02*
X105469429Y-152292810D01*
X105755143Y-151983286D02*
X105588477Y-151983286D01*
X105588477Y-152245190D02*
X105588477Y-151745190D01*
X105826572Y-151745190D01*
X106278952Y-152245190D02*
X105993238Y-152245190D01*
X106136095Y-152245190D02*
X106136095Y-151745190D01*
X106088476Y-151816619D01*
X106040857Y-151864238D01*
X105993238Y-151888048D01*
X103290858Y-146657190D02*
X103124191Y-146419095D01*
X103005144Y-146657190D02*
X103005144Y-146157190D01*
X103195620Y-146157190D01*
X103243239Y-146181000D01*
X103267048Y-146204810D01*
X103290858Y-146252429D01*
X103290858Y-146323857D01*
X103267048Y-146371476D01*
X103243239Y-146395286D01*
X103195620Y-146419095D01*
X103005144Y-146419095D01*
X103386096Y-146704810D02*
X103767048Y-146704810D01*
X103886096Y-146657190D02*
X103886096Y-146157190D01*
X104052762Y-146514333D01*
X104219429Y-146157190D01*
X104219429Y-146657190D01*
X104457525Y-146657190D02*
X104457525Y-146157190D01*
X104648001Y-146157190D02*
X104981334Y-146657190D01*
X104981334Y-146157190D02*
X104648001Y-146657190D01*
X105052762Y-146704810D02*
X105433714Y-146704810D01*
X105814666Y-146181000D02*
X105767047Y-146157190D01*
X105695619Y-146157190D01*
X105624190Y-146181000D01*
X105576571Y-146228619D01*
X105552762Y-146276238D01*
X105528952Y-146371476D01*
X105528952Y-146442905D01*
X105552762Y-146538143D01*
X105576571Y-146585762D01*
X105624190Y-146633381D01*
X105695619Y-146657190D01*
X105743238Y-146657190D01*
X105814666Y-146633381D01*
X105838476Y-146609571D01*
X105838476Y-146442905D01*
X105743238Y-146442905D01*
X106314666Y-146657190D02*
X106028952Y-146657190D01*
X106171809Y-146657190D02*
X106171809Y-146157190D01*
X106124190Y-146228619D01*
X106076571Y-146276238D01*
X106028952Y-146300048D01*
X101548572Y-124051190D02*
X101381905Y-123813095D01*
X101262858Y-124051190D02*
X101262858Y-123551190D01*
X101453334Y-123551190D01*
X101500953Y-123575000D01*
X101524762Y-123598810D01*
X101548572Y-123646429D01*
X101548572Y-123717857D01*
X101524762Y-123765476D01*
X101500953Y-123789286D01*
X101453334Y-123813095D01*
X101262858Y-123813095D01*
X101643810Y-124098810D02*
X102024762Y-124098810D01*
X102239048Y-123551190D02*
X102334286Y-123551190D01*
X102381905Y-123575000D01*
X102429524Y-123622619D01*
X102453333Y-123717857D01*
X102453333Y-123884524D01*
X102429524Y-123979762D01*
X102381905Y-124027381D01*
X102334286Y-124051190D01*
X102239048Y-124051190D01*
X102191429Y-124027381D01*
X102143810Y-123979762D01*
X102120000Y-123884524D01*
X102120000Y-123717857D01*
X102143810Y-123622619D01*
X102191429Y-123575000D01*
X102239048Y-123551190D01*
X102643810Y-123908333D02*
X102881905Y-123908333D01*
X102596191Y-124051190D02*
X102762858Y-123551190D01*
X102929524Y-124051190D01*
X102977143Y-124098810D02*
X103358095Y-124098810D01*
X103477143Y-124051190D02*
X103477143Y-123551190D01*
X103715238Y-124051190D02*
X103715238Y-123551190D01*
X104000952Y-124051190D01*
X104000952Y-123551190D01*
X104500952Y-124051190D02*
X104215238Y-124051190D01*
X104358095Y-124051190D02*
X104358095Y-123551190D01*
X104310476Y-123622619D01*
X104262857Y-123670238D01*
X104215238Y-123694048D01*
X120265239Y-157071190D02*
X120098572Y-156833095D01*
X119979525Y-157071190D02*
X119979525Y-156571190D01*
X120170001Y-156571190D01*
X120217620Y-156595000D01*
X120241429Y-156618810D01*
X120265239Y-156666429D01*
X120265239Y-156737857D01*
X120241429Y-156785476D01*
X120217620Y-156809286D01*
X120170001Y-156833095D01*
X119979525Y-156833095D01*
X120360477Y-157118810D02*
X120741429Y-157118810D01*
X120955715Y-156571190D02*
X121050953Y-156571190D01*
X121098572Y-156595000D01*
X121146191Y-156642619D01*
X121170000Y-156737857D01*
X121170000Y-156904524D01*
X121146191Y-156999762D01*
X121098572Y-157047381D01*
X121050953Y-157071190D01*
X120955715Y-157071190D01*
X120908096Y-157047381D01*
X120860477Y-156999762D01*
X120836667Y-156904524D01*
X120836667Y-156737857D01*
X120860477Y-156642619D01*
X120908096Y-156595000D01*
X120955715Y-156571190D01*
X121360477Y-156928333D02*
X121598572Y-156928333D01*
X121312858Y-157071190D02*
X121479525Y-156571190D01*
X121646191Y-157071190D01*
X121693810Y-157118810D02*
X122074762Y-157118810D01*
X122289048Y-156571190D02*
X122384286Y-156571190D01*
X122431905Y-156595000D01*
X122479524Y-156642619D01*
X122503333Y-156737857D01*
X122503333Y-156904524D01*
X122479524Y-156999762D01*
X122431905Y-157047381D01*
X122384286Y-157071190D01*
X122289048Y-157071190D01*
X122241429Y-157047381D01*
X122193810Y-156999762D01*
X122170000Y-156904524D01*
X122170000Y-156737857D01*
X122193810Y-156642619D01*
X122241429Y-156595000D01*
X122289048Y-156571190D01*
X122717620Y-156571190D02*
X122717620Y-156975952D01*
X122741429Y-157023571D01*
X122765239Y-157047381D01*
X122812858Y-157071190D01*
X122908096Y-157071190D01*
X122955715Y-157047381D01*
X122979524Y-157023571D01*
X123003334Y-156975952D01*
X123003334Y-156571190D01*
X123170001Y-156571190D02*
X123455715Y-156571190D01*
X123312858Y-157071190D02*
X123312858Y-156571190D01*
X123884286Y-157071190D02*
X123598572Y-157071190D01*
X123741429Y-157071190D02*
X123741429Y-156571190D01*
X123693810Y-156642619D01*
X123646191Y-156690238D01*
X123598572Y-156714048D01*
X108049190Y-136298523D02*
X107811095Y-136465190D01*
X108049190Y-136584237D02*
X107549190Y-136584237D01*
X107549190Y-136393761D01*
X107573000Y-136346142D01*
X107596810Y-136322333D01*
X107644429Y-136298523D01*
X107715857Y-136298523D01*
X107763476Y-136322333D01*
X107787286Y-136346142D01*
X107811095Y-136393761D01*
X107811095Y-136584237D01*
X108096810Y-136203285D02*
X108096810Y-135822333D01*
X107549190Y-135608047D02*
X107549190Y-135512809D01*
X107573000Y-135465190D01*
X107620619Y-135417571D01*
X107715857Y-135393762D01*
X107882524Y-135393762D01*
X107977762Y-135417571D01*
X108025381Y-135465190D01*
X108049190Y-135512809D01*
X108049190Y-135608047D01*
X108025381Y-135655666D01*
X107977762Y-135703285D01*
X107882524Y-135727095D01*
X107715857Y-135727095D01*
X107620619Y-135703285D01*
X107573000Y-135655666D01*
X107549190Y-135608047D01*
X107906333Y-135203285D02*
X107906333Y-134965190D01*
X108049190Y-135250904D02*
X107549190Y-135084237D01*
X108049190Y-134917571D01*
X108096810Y-134869952D02*
X108096810Y-134489000D01*
X107549190Y-134274714D02*
X107549190Y-134179476D01*
X107573000Y-134131857D01*
X107620619Y-134084238D01*
X107715857Y-134060429D01*
X107882524Y-134060429D01*
X107977762Y-134084238D01*
X108025381Y-134131857D01*
X108049190Y-134179476D01*
X108049190Y-134274714D01*
X108025381Y-134322333D01*
X107977762Y-134369952D01*
X107882524Y-134393762D01*
X107715857Y-134393762D01*
X107620619Y-134369952D01*
X107573000Y-134322333D01*
X107549190Y-134274714D01*
X107549190Y-133846142D02*
X107953952Y-133846142D01*
X108001571Y-133822333D01*
X108025381Y-133798523D01*
X108049190Y-133750904D01*
X108049190Y-133655666D01*
X108025381Y-133608047D01*
X108001571Y-133584238D01*
X107953952Y-133560428D01*
X107549190Y-133560428D01*
X107549190Y-133393761D02*
X107549190Y-133108047D01*
X108049190Y-133250904D02*
X107549190Y-133250904D01*
X108096810Y-133060428D02*
X108096810Y-132679476D01*
X107787286Y-132393762D02*
X107787286Y-132560428D01*
X108049190Y-132560428D02*
X107549190Y-132560428D01*
X107549190Y-132322333D01*
X108049190Y-131869953D02*
X108049190Y-132155667D01*
X108049190Y-132012810D02*
X107549190Y-132012810D01*
X107620619Y-132060429D01*
X107668238Y-132108048D01*
X107692048Y-132155667D01*
X112653096Y-136116190D02*
X112486429Y-135878095D01*
X112367382Y-136116190D02*
X112367382Y-135616190D01*
X112557858Y-135616190D01*
X112605477Y-135640000D01*
X112629286Y-135663810D01*
X112653096Y-135711429D01*
X112653096Y-135782857D01*
X112629286Y-135830476D01*
X112605477Y-135854286D01*
X112557858Y-135878095D01*
X112367382Y-135878095D01*
X112748334Y-136163810D02*
X113129286Y-136163810D01*
X113224524Y-136092381D02*
X113295953Y-136116190D01*
X113415000Y-136116190D01*
X113462619Y-136092381D01*
X113486429Y-136068571D01*
X113510238Y-136020952D01*
X113510238Y-135973333D01*
X113486429Y-135925714D01*
X113462619Y-135901905D01*
X113415000Y-135878095D01*
X113319762Y-135854286D01*
X113272143Y-135830476D01*
X113248334Y-135806667D01*
X113224524Y-135759048D01*
X113224524Y-135711429D01*
X113248334Y-135663810D01*
X113272143Y-135640000D01*
X113319762Y-135616190D01*
X113438810Y-135616190D01*
X113510238Y-135640000D01*
X113700714Y-135973333D02*
X113938809Y-135973333D01*
X113653095Y-136116190D02*
X113819762Y-135616190D01*
X113986428Y-136116190D01*
X114105476Y-135616190D02*
X114224523Y-136116190D01*
X114319761Y-135759048D01*
X114414999Y-136116190D01*
X114534047Y-135616190D01*
X114986428Y-136116190D02*
X114700714Y-136116190D01*
X114843571Y-136116190D02*
X114843571Y-135616190D01*
X114795952Y-135687619D01*
X114748333Y-135735238D01*
X114700714Y-135759048D01*
X126654881Y-55193381D02*
X126726310Y-55217190D01*
X126845357Y-55217190D01*
X126892976Y-55193381D01*
X126916786Y-55169571D01*
X126940595Y-55121952D01*
X126940595Y-55074333D01*
X126916786Y-55026714D01*
X126892976Y-55002905D01*
X126845357Y-54979095D01*
X126750119Y-54955286D01*
X126702500Y-54931476D01*
X126678691Y-54907667D01*
X126654881Y-54860048D01*
X126654881Y-54812429D01*
X126678691Y-54764810D01*
X126702500Y-54741000D01*
X126750119Y-54717190D01*
X126869167Y-54717190D01*
X126940595Y-54741000D01*
X127107262Y-54717190D02*
X127226309Y-55217190D01*
X127321547Y-54860048D01*
X127416785Y-55217190D01*
X127535833Y-54717190D01*
X127726310Y-55217190D02*
X127726310Y-54717190D01*
X127964405Y-55217190D02*
X127964405Y-54717190D01*
X128250119Y-55217190D01*
X128250119Y-54717190D01*
X128750119Y-54741000D02*
X128702500Y-54717190D01*
X128631072Y-54717190D01*
X128559643Y-54741000D01*
X128512024Y-54788619D01*
X128488215Y-54836238D01*
X128464405Y-54931476D01*
X128464405Y-55002905D01*
X128488215Y-55098143D01*
X128512024Y-55145762D01*
X128559643Y-55193381D01*
X128631072Y-55217190D01*
X128678691Y-55217190D01*
X128750119Y-55193381D01*
X128773929Y-55169571D01*
X128773929Y-55002905D01*
X128678691Y-55002905D01*
X129250119Y-55217190D02*
X128964405Y-55217190D01*
X129107262Y-55217190D02*
X129107262Y-54717190D01*
X129059643Y-54788619D01*
X129012024Y-54836238D01*
X128964405Y-54860048D01*
X125928667Y-95960381D02*
X126000096Y-95984190D01*
X126119143Y-95984190D01*
X126166762Y-95960381D01*
X126190572Y-95936571D01*
X126214381Y-95888952D01*
X126214381Y-95841333D01*
X126190572Y-95793714D01*
X126166762Y-95769905D01*
X126119143Y-95746095D01*
X126023905Y-95722286D01*
X125976286Y-95698476D01*
X125952477Y-95674667D01*
X125928667Y-95627048D01*
X125928667Y-95579429D01*
X125952477Y-95531810D01*
X125976286Y-95508000D01*
X126023905Y-95484190D01*
X126142953Y-95484190D01*
X126214381Y-95508000D01*
X126381048Y-95484190D02*
X126500095Y-95984190D01*
X126595333Y-95627048D01*
X126690571Y-95984190D01*
X126809619Y-95484190D01*
X126881048Y-96031810D02*
X127262000Y-96031810D01*
X127381048Y-95984190D02*
X127381048Y-95484190D01*
X127381048Y-95722286D02*
X127666762Y-95722286D01*
X127666762Y-95984190D02*
X127666762Y-95484190D01*
X128000096Y-95484190D02*
X128095334Y-95484190D01*
X128142953Y-95508000D01*
X128190572Y-95555619D01*
X128214381Y-95650857D01*
X128214381Y-95817524D01*
X128190572Y-95912762D01*
X128142953Y-95960381D01*
X128095334Y-95984190D01*
X128000096Y-95984190D01*
X127952477Y-95960381D01*
X127904858Y-95912762D01*
X127881048Y-95817524D01*
X127881048Y-95650857D01*
X127904858Y-95555619D01*
X127952477Y-95508000D01*
X128000096Y-95484190D01*
X128666763Y-95984190D02*
X128428668Y-95984190D01*
X128428668Y-95484190D01*
X128833430Y-95984190D02*
X128833430Y-95484190D01*
X128952477Y-95484190D01*
X129023906Y-95508000D01*
X129071525Y-95555619D01*
X129095334Y-95603238D01*
X129119144Y-95698476D01*
X129119144Y-95769905D01*
X129095334Y-95865143D01*
X129071525Y-95912762D01*
X129023906Y-95960381D01*
X128952477Y-95984190D01*
X128833430Y-95984190D01*
X129595334Y-95984190D02*
X129309620Y-95984190D01*
X129452477Y-95984190D02*
X129452477Y-95484190D01*
X129404858Y-95555619D01*
X129357239Y-95603238D01*
X129309620Y-95627048D01*
X69358096Y-96150881D02*
X69429525Y-96174690D01*
X69548572Y-96174690D01*
X69596191Y-96150881D01*
X69620001Y-96127071D01*
X69643810Y-96079452D01*
X69643810Y-96031833D01*
X69620001Y-95984214D01*
X69596191Y-95960405D01*
X69548572Y-95936595D01*
X69453334Y-95912786D01*
X69405715Y-95888976D01*
X69381906Y-95865167D01*
X69358096Y-95817548D01*
X69358096Y-95769929D01*
X69381906Y-95722310D01*
X69405715Y-95698500D01*
X69453334Y-95674690D01*
X69572382Y-95674690D01*
X69643810Y-95698500D01*
X69810477Y-95674690D02*
X69929524Y-96174690D01*
X70024762Y-95817548D01*
X70120000Y-96174690D01*
X70239048Y-95674690D01*
X70310477Y-96222310D02*
X70691429Y-96222310D01*
X70810477Y-96174690D02*
X70810477Y-95674690D01*
X71048572Y-96174690D02*
X71048572Y-95674690D01*
X71334286Y-96174690D01*
X71334286Y-95674690D01*
X71548572Y-96150881D02*
X71620001Y-96174690D01*
X71739048Y-96174690D01*
X71786667Y-96150881D01*
X71810477Y-96127071D01*
X71834286Y-96079452D01*
X71834286Y-96031833D01*
X71810477Y-95984214D01*
X71786667Y-95960405D01*
X71739048Y-95936595D01*
X71643810Y-95912786D01*
X71596191Y-95888976D01*
X71572382Y-95865167D01*
X71548572Y-95817548D01*
X71548572Y-95769929D01*
X71572382Y-95722310D01*
X71596191Y-95698500D01*
X71643810Y-95674690D01*
X71762858Y-95674690D01*
X71834286Y-95698500D01*
X72000953Y-95674690D02*
X72120000Y-96174690D01*
X72215238Y-95817548D01*
X72310476Y-96174690D01*
X72429524Y-95674690D01*
X72881905Y-96174690D02*
X72596191Y-96174690D01*
X72739048Y-96174690D02*
X72739048Y-95674690D01*
X72691429Y-95746119D01*
X72643810Y-95793738D01*
X72596191Y-95817548D01*
X97770382Y-96341381D02*
X97841811Y-96365190D01*
X97960858Y-96365190D01*
X98008477Y-96341381D01*
X98032287Y-96317571D01*
X98056096Y-96269952D01*
X98056096Y-96222333D01*
X98032287Y-96174714D01*
X98008477Y-96150905D01*
X97960858Y-96127095D01*
X97865620Y-96103286D01*
X97818001Y-96079476D01*
X97794192Y-96055667D01*
X97770382Y-96008048D01*
X97770382Y-95960429D01*
X97794192Y-95912810D01*
X97818001Y-95889000D01*
X97865620Y-95865190D01*
X97984668Y-95865190D01*
X98056096Y-95889000D01*
X98222763Y-95865190D02*
X98341810Y-96365190D01*
X98437048Y-96008048D01*
X98532286Y-96365190D01*
X98651334Y-95865190D01*
X98722763Y-96412810D02*
X99103715Y-96412810D01*
X99175144Y-95865190D02*
X99294191Y-96365190D01*
X99389429Y-96008048D01*
X99484667Y-96365190D01*
X99603715Y-95865190D01*
X99770382Y-96222333D02*
X100008477Y-96222333D01*
X99722763Y-96365190D02*
X99889430Y-95865190D01*
X100056096Y-96365190D01*
X100151334Y-95865190D02*
X100318001Y-96365190D01*
X100484667Y-95865190D01*
X100651334Y-96103286D02*
X100818000Y-96103286D01*
X100889429Y-96365190D02*
X100651334Y-96365190D01*
X100651334Y-95865190D01*
X100889429Y-95865190D01*
X101365619Y-96365190D02*
X101079905Y-96365190D01*
X101222762Y-96365190D02*
X101222762Y-95865190D01*
X101175143Y-95936619D01*
X101127524Y-95984238D01*
X101079905Y-96008048D01*
X97996501Y-54780690D02*
X98282215Y-54780690D01*
X98139358Y-55280690D02*
X98139358Y-54780690D01*
X98734596Y-55280690D02*
X98567929Y-55042595D01*
X98448882Y-55280690D02*
X98448882Y-54780690D01*
X98639358Y-54780690D01*
X98686977Y-54804500D01*
X98710786Y-54828310D01*
X98734596Y-54875929D01*
X98734596Y-54947357D01*
X98710786Y-54994976D01*
X98686977Y-55018786D01*
X98639358Y-55042595D01*
X98448882Y-55042595D01*
X98948882Y-55280690D02*
X98948882Y-54780690D01*
X99448881Y-54804500D02*
X99401262Y-54780690D01*
X99329834Y-54780690D01*
X99258405Y-54804500D01*
X99210786Y-54852119D01*
X99186977Y-54899738D01*
X99163167Y-54994976D01*
X99163167Y-55066405D01*
X99186977Y-55161643D01*
X99210786Y-55209262D01*
X99258405Y-55256881D01*
X99329834Y-55280690D01*
X99377453Y-55280690D01*
X99448881Y-55256881D01*
X99472691Y-55233071D01*
X99472691Y-55066405D01*
X99377453Y-55066405D01*
X99948881Y-55280690D02*
X99663167Y-55280690D01*
X99806024Y-55280690D02*
X99806024Y-54780690D01*
X99758405Y-54852119D01*
X99710786Y-54899738D01*
X99663167Y-54923548D01*
X64984477Y-147808190D02*
X64984477Y-148212952D01*
X65008286Y-148260571D01*
X65032096Y-148284381D01*
X65079715Y-148308190D01*
X65174953Y-148308190D01*
X65222572Y-148284381D01*
X65246381Y-148260571D01*
X65270191Y-148212952D01*
X65270191Y-147808190D01*
X65389239Y-148355810D02*
X65770191Y-148355810D01*
X65889239Y-148308190D02*
X65889239Y-147808190D01*
X66174953Y-148308190D01*
X66174953Y-147808190D01*
X66413049Y-148046286D02*
X66579715Y-148046286D01*
X66651144Y-148308190D02*
X66413049Y-148308190D01*
X66413049Y-147808190D01*
X66651144Y-147808190D01*
X67127334Y-147832000D02*
X67079715Y-147808190D01*
X67008287Y-147808190D01*
X66936858Y-147832000D01*
X66889239Y-147879619D01*
X66865430Y-147927238D01*
X66841620Y-148022476D01*
X66841620Y-148093905D01*
X66865430Y-148189143D01*
X66889239Y-148236762D01*
X66936858Y-148284381D01*
X67008287Y-148308190D01*
X67055906Y-148308190D01*
X67127334Y-148284381D01*
X67151144Y-148260571D01*
X67151144Y-148093905D01*
X67055906Y-148093905D01*
X67627334Y-148308190D02*
X67341620Y-148308190D01*
X67484477Y-148308190D02*
X67484477Y-147808190D01*
X67436858Y-147879619D01*
X67389239Y-147927238D01*
X67341620Y-147951048D01*
X64984477Y-123678190D02*
X64984477Y-124082952D01*
X65008286Y-124130571D01*
X65032096Y-124154381D01*
X65079715Y-124178190D01*
X65174953Y-124178190D01*
X65222572Y-124154381D01*
X65246381Y-124130571D01*
X65270191Y-124082952D01*
X65270191Y-123678190D01*
X65389239Y-124225810D02*
X65770191Y-124225810D01*
X65889239Y-124178190D02*
X65889239Y-123678190D01*
X66174953Y-124178190D01*
X66174953Y-123678190D01*
X66413049Y-123916286D02*
X66579715Y-123916286D01*
X66651144Y-124178190D02*
X66413049Y-124178190D01*
X66413049Y-123678190D01*
X66651144Y-123678190D01*
X67127334Y-123702000D02*
X67079715Y-123678190D01*
X67008287Y-123678190D01*
X66936858Y-123702000D01*
X66889239Y-123749619D01*
X66865430Y-123797238D01*
X66841620Y-123892476D01*
X66841620Y-123963905D01*
X66865430Y-124059143D01*
X66889239Y-124106762D01*
X66936858Y-124154381D01*
X67008287Y-124178190D01*
X67055906Y-124178190D01*
X67127334Y-124154381D01*
X67151144Y-124130571D01*
X67151144Y-123963905D01*
X67055906Y-123963905D01*
X67341620Y-123725810D02*
X67365430Y-123702000D01*
X67413049Y-123678190D01*
X67532096Y-123678190D01*
X67579715Y-123702000D01*
X67603525Y-123725810D01*
X67627334Y-123773429D01*
X67627334Y-123821048D01*
X67603525Y-123892476D01*
X67317811Y-124178190D01*
X67627334Y-124178190D01*
X88955715Y-141783571D02*
X88931905Y-141807381D01*
X88860477Y-141831190D01*
X88812858Y-141831190D01*
X88741429Y-141807381D01*
X88693810Y-141759762D01*
X88670001Y-141712143D01*
X88646191Y-141616905D01*
X88646191Y-141545476D01*
X88670001Y-141450238D01*
X88693810Y-141402619D01*
X88741429Y-141355000D01*
X88812858Y-141331190D01*
X88860477Y-141331190D01*
X88931905Y-141355000D01*
X88955715Y-141378810D01*
X89050953Y-141878810D02*
X89431905Y-141878810D01*
X89646191Y-141331190D02*
X89741429Y-141331190D01*
X89789048Y-141355000D01*
X89836667Y-141402619D01*
X89860476Y-141497857D01*
X89860476Y-141664524D01*
X89836667Y-141759762D01*
X89789048Y-141807381D01*
X89741429Y-141831190D01*
X89646191Y-141831190D01*
X89598572Y-141807381D01*
X89550953Y-141759762D01*
X89527143Y-141664524D01*
X89527143Y-141497857D01*
X89550953Y-141402619D01*
X89598572Y-141355000D01*
X89646191Y-141331190D01*
X90050953Y-141688333D02*
X90289048Y-141688333D01*
X90003334Y-141831190D02*
X90170001Y-141331190D01*
X90336667Y-141831190D01*
X90670000Y-141569286D02*
X90741429Y-141593095D01*
X90765238Y-141616905D01*
X90789048Y-141664524D01*
X90789048Y-141735952D01*
X90765238Y-141783571D01*
X90741429Y-141807381D01*
X90693810Y-141831190D01*
X90503334Y-141831190D01*
X90503334Y-141331190D01*
X90670000Y-141331190D01*
X90717619Y-141355000D01*
X90741429Y-141378810D01*
X90765238Y-141426429D01*
X90765238Y-141474048D01*
X90741429Y-141521667D01*
X90717619Y-141545476D01*
X90670000Y-141569286D01*
X90503334Y-141569286D01*
X91098572Y-141593095D02*
X91098572Y-141831190D01*
X90931905Y-141331190D02*
X91098572Y-141593095D01*
X91265238Y-141331190D01*
X91693809Y-141831190D02*
X91408095Y-141831190D01*
X91550952Y-141831190D02*
X91550952Y-141331190D01*
X91503333Y-141402619D01*
X91455714Y-141450238D01*
X91408095Y-141474048D01*
X102290715Y-141402571D02*
X102266905Y-141426381D01*
X102195477Y-141450190D01*
X102147858Y-141450190D01*
X102076429Y-141426381D01*
X102028810Y-141378762D01*
X102005001Y-141331143D01*
X101981191Y-141235905D01*
X101981191Y-141164476D01*
X102005001Y-141069238D01*
X102028810Y-141021619D01*
X102076429Y-140974000D01*
X102147858Y-140950190D01*
X102195477Y-140950190D01*
X102266905Y-140974000D01*
X102290715Y-140997810D01*
X102385953Y-141497810D02*
X102766905Y-141497810D01*
X102981191Y-140950190D02*
X103076429Y-140950190D01*
X103124048Y-140974000D01*
X103171667Y-141021619D01*
X103195476Y-141116857D01*
X103195476Y-141283524D01*
X103171667Y-141378762D01*
X103124048Y-141426381D01*
X103076429Y-141450190D01*
X102981191Y-141450190D01*
X102933572Y-141426381D01*
X102885953Y-141378762D01*
X102862143Y-141283524D01*
X102862143Y-141116857D01*
X102885953Y-141021619D01*
X102933572Y-140974000D01*
X102981191Y-140950190D01*
X103385953Y-141307333D02*
X103624048Y-141307333D01*
X103338334Y-141450190D02*
X103505001Y-140950190D01*
X103671667Y-141450190D01*
X104005000Y-141188286D02*
X104076429Y-141212095D01*
X104100238Y-141235905D01*
X104124048Y-141283524D01*
X104124048Y-141354952D01*
X104100238Y-141402571D01*
X104076429Y-141426381D01*
X104028810Y-141450190D01*
X103838334Y-141450190D01*
X103838334Y-140950190D01*
X104005000Y-140950190D01*
X104052619Y-140974000D01*
X104076429Y-140997810D01*
X104100238Y-141045429D01*
X104100238Y-141093048D01*
X104076429Y-141140667D01*
X104052619Y-141164476D01*
X104005000Y-141188286D01*
X103838334Y-141188286D01*
X104433572Y-141212095D02*
X104433572Y-141450190D01*
X104266905Y-140950190D02*
X104433572Y-141212095D01*
X104600238Y-140950190D01*
X104743095Y-140997810D02*
X104766905Y-140974000D01*
X104814524Y-140950190D01*
X104933571Y-140950190D01*
X104981190Y-140974000D01*
X105005000Y-140997810D01*
X105028809Y-141045429D01*
X105028809Y-141093048D01*
X105005000Y-141164476D01*
X104719286Y-141450190D01*
X105028809Y-141450190D01*
X100385715Y-128448571D02*
X100361905Y-128472381D01*
X100290477Y-128496190D01*
X100242858Y-128496190D01*
X100171429Y-128472381D01*
X100123810Y-128424762D01*
X100100001Y-128377143D01*
X100076191Y-128281905D01*
X100076191Y-128210476D01*
X100100001Y-128115238D01*
X100123810Y-128067619D01*
X100171429Y-128020000D01*
X100242858Y-127996190D01*
X100290477Y-127996190D01*
X100361905Y-128020000D01*
X100385715Y-128043810D01*
X100480953Y-128543810D02*
X100861905Y-128543810D01*
X101076191Y-127996190D02*
X101171429Y-127996190D01*
X101219048Y-128020000D01*
X101266667Y-128067619D01*
X101290476Y-128162857D01*
X101290476Y-128329524D01*
X101266667Y-128424762D01*
X101219048Y-128472381D01*
X101171429Y-128496190D01*
X101076191Y-128496190D01*
X101028572Y-128472381D01*
X100980953Y-128424762D01*
X100957143Y-128329524D01*
X100957143Y-128162857D01*
X100980953Y-128067619D01*
X101028572Y-128020000D01*
X101076191Y-127996190D01*
X101480953Y-128353333D02*
X101719048Y-128353333D01*
X101433334Y-128496190D02*
X101600001Y-127996190D01*
X101766667Y-128496190D01*
X102100000Y-128234286D02*
X102171429Y-128258095D01*
X102195238Y-128281905D01*
X102219048Y-128329524D01*
X102219048Y-128400952D01*
X102195238Y-128448571D01*
X102171429Y-128472381D01*
X102123810Y-128496190D01*
X101933334Y-128496190D01*
X101933334Y-127996190D01*
X102100000Y-127996190D01*
X102147619Y-128020000D01*
X102171429Y-128043810D01*
X102195238Y-128091429D01*
X102195238Y-128139048D01*
X102171429Y-128186667D01*
X102147619Y-128210476D01*
X102100000Y-128234286D01*
X101933334Y-128234286D01*
X102528572Y-128258095D02*
X102528572Y-128496190D01*
X102361905Y-127996190D02*
X102528572Y-128258095D01*
X102695238Y-127996190D01*
X102814286Y-127996190D02*
X103123809Y-127996190D01*
X102957143Y-128186667D01*
X103028571Y-128186667D01*
X103076190Y-128210476D01*
X103100000Y-128234286D01*
X103123809Y-128281905D01*
X103123809Y-128400952D01*
X103100000Y-128448571D01*
X103076190Y-128472381D01*
X103028571Y-128496190D01*
X102885714Y-128496190D01*
X102838095Y-128472381D01*
X102814286Y-128448571D01*
X90225715Y-119558571D02*
X90201905Y-119582381D01*
X90130477Y-119606190D01*
X90082858Y-119606190D01*
X90011429Y-119582381D01*
X89963810Y-119534762D01*
X89940001Y-119487143D01*
X89916191Y-119391905D01*
X89916191Y-119320476D01*
X89940001Y-119225238D01*
X89963810Y-119177619D01*
X90011429Y-119130000D01*
X90082858Y-119106190D01*
X90130477Y-119106190D01*
X90201905Y-119130000D01*
X90225715Y-119153810D01*
X90320953Y-119653810D02*
X90701905Y-119653810D01*
X90916191Y-119106190D02*
X91011429Y-119106190D01*
X91059048Y-119130000D01*
X91106667Y-119177619D01*
X91130476Y-119272857D01*
X91130476Y-119439524D01*
X91106667Y-119534762D01*
X91059048Y-119582381D01*
X91011429Y-119606190D01*
X90916191Y-119606190D01*
X90868572Y-119582381D01*
X90820953Y-119534762D01*
X90797143Y-119439524D01*
X90797143Y-119272857D01*
X90820953Y-119177619D01*
X90868572Y-119130000D01*
X90916191Y-119106190D01*
X91320953Y-119463333D02*
X91559048Y-119463333D01*
X91273334Y-119606190D02*
X91440001Y-119106190D01*
X91606667Y-119606190D01*
X91940000Y-119344286D02*
X92011429Y-119368095D01*
X92035238Y-119391905D01*
X92059048Y-119439524D01*
X92059048Y-119510952D01*
X92035238Y-119558571D01*
X92011429Y-119582381D01*
X91963810Y-119606190D01*
X91773334Y-119606190D01*
X91773334Y-119106190D01*
X91940000Y-119106190D01*
X91987619Y-119130000D01*
X92011429Y-119153810D01*
X92035238Y-119201429D01*
X92035238Y-119249048D01*
X92011429Y-119296667D01*
X91987619Y-119320476D01*
X91940000Y-119344286D01*
X91773334Y-119344286D01*
X92368572Y-119368095D02*
X92368572Y-119606190D01*
X92201905Y-119106190D02*
X92368572Y-119368095D01*
X92535238Y-119106190D01*
X92916190Y-119272857D02*
X92916190Y-119606190D01*
X92797143Y-119082381D02*
X92678095Y-119439524D01*
X92987619Y-119439524D01*
X126817620Y-118923571D02*
X126793810Y-118947381D01*
X126722382Y-118971190D01*
X126674763Y-118971190D01*
X126603334Y-118947381D01*
X126555715Y-118899762D01*
X126531906Y-118852143D01*
X126508096Y-118756905D01*
X126508096Y-118685476D01*
X126531906Y-118590238D01*
X126555715Y-118542619D01*
X126603334Y-118495000D01*
X126674763Y-118471190D01*
X126722382Y-118471190D01*
X126793810Y-118495000D01*
X126817620Y-118518810D01*
X126912858Y-119018810D02*
X127293810Y-119018810D01*
X127508096Y-118471190D02*
X127603334Y-118471190D01*
X127650953Y-118495000D01*
X127698572Y-118542619D01*
X127722381Y-118637857D01*
X127722381Y-118804524D01*
X127698572Y-118899762D01*
X127650953Y-118947381D01*
X127603334Y-118971190D01*
X127508096Y-118971190D01*
X127460477Y-118947381D01*
X127412858Y-118899762D01*
X127389048Y-118804524D01*
X127389048Y-118637857D01*
X127412858Y-118542619D01*
X127460477Y-118495000D01*
X127508096Y-118471190D01*
X127912858Y-118828333D02*
X128150953Y-118828333D01*
X127865239Y-118971190D02*
X128031906Y-118471190D01*
X128198572Y-118971190D01*
X128531905Y-118709286D02*
X128603334Y-118733095D01*
X128627143Y-118756905D01*
X128650953Y-118804524D01*
X128650953Y-118875952D01*
X128627143Y-118923571D01*
X128603334Y-118947381D01*
X128555715Y-118971190D01*
X128365239Y-118971190D01*
X128365239Y-118471190D01*
X128531905Y-118471190D01*
X128579524Y-118495000D01*
X128603334Y-118518810D01*
X128627143Y-118566429D01*
X128627143Y-118614048D01*
X128603334Y-118661667D01*
X128579524Y-118685476D01*
X128531905Y-118709286D01*
X128365239Y-118709286D01*
X128960477Y-118733095D02*
X128960477Y-118971190D01*
X128793810Y-118471190D02*
X128960477Y-118733095D01*
X129127143Y-118471190D01*
X129555714Y-118971190D02*
X129270000Y-118971190D01*
X129412857Y-118971190D02*
X129412857Y-118471190D01*
X129365238Y-118542619D01*
X129317619Y-118590238D01*
X129270000Y-118614048D01*
X129722381Y-118471190D02*
X130031904Y-118471190D01*
X129865238Y-118661667D01*
X129936666Y-118661667D01*
X129984285Y-118685476D01*
X130008095Y-118709286D01*
X130031904Y-118756905D01*
X130031904Y-118875952D01*
X130008095Y-118923571D01*
X129984285Y-118947381D01*
X129936666Y-118971190D01*
X129793809Y-118971190D01*
X129746190Y-118947381D01*
X129722381Y-118923571D01*
X58928191Y-144958571D02*
X58904381Y-144982381D01*
X58832953Y-145006190D01*
X58785334Y-145006190D01*
X58713905Y-144982381D01*
X58666286Y-144934762D01*
X58642477Y-144887143D01*
X58618667Y-144791905D01*
X58618667Y-144720476D01*
X58642477Y-144625238D01*
X58666286Y-144577619D01*
X58713905Y-144530000D01*
X58785334Y-144506190D01*
X58832953Y-144506190D01*
X58904381Y-144530000D01*
X58928191Y-144553810D01*
X59023429Y-145053810D02*
X59404381Y-145053810D01*
X59523429Y-145006190D02*
X59523429Y-144506190D01*
X59713905Y-144506190D01*
X59761524Y-144530000D01*
X59785333Y-144553810D01*
X59809143Y-144601429D01*
X59809143Y-144672857D01*
X59785333Y-144720476D01*
X59761524Y-144744286D01*
X59713905Y-144768095D01*
X59523429Y-144768095D01*
X59975810Y-144506190D02*
X60094857Y-145006190D01*
X60190095Y-144649048D01*
X60285333Y-145006190D01*
X60404381Y-144506190D01*
X60880572Y-145006190D02*
X60713905Y-144768095D01*
X60594858Y-145006190D02*
X60594858Y-144506190D01*
X60785334Y-144506190D01*
X60832953Y-144530000D01*
X60856762Y-144553810D01*
X60880572Y-144601429D01*
X60880572Y-144672857D01*
X60856762Y-144720476D01*
X60832953Y-144744286D01*
X60785334Y-144768095D01*
X60594858Y-144768095D01*
X61261524Y-144744286D02*
X61332953Y-144768095D01*
X61356762Y-144791905D01*
X61380572Y-144839524D01*
X61380572Y-144910952D01*
X61356762Y-144958571D01*
X61332953Y-144982381D01*
X61285334Y-145006190D01*
X61094858Y-145006190D01*
X61094858Y-144506190D01*
X61261524Y-144506190D01*
X61309143Y-144530000D01*
X61332953Y-144553810D01*
X61356762Y-144601429D01*
X61356762Y-144649048D01*
X61332953Y-144696667D01*
X61309143Y-144720476D01*
X61261524Y-144744286D01*
X61094858Y-144744286D01*
X61690096Y-144768095D02*
X61690096Y-145006190D01*
X61523429Y-144506190D02*
X61690096Y-144768095D01*
X61856762Y-144506190D01*
X61999619Y-144553810D02*
X62023429Y-144530000D01*
X62071048Y-144506190D01*
X62190095Y-144506190D01*
X62237714Y-144530000D01*
X62261524Y-144553810D01*
X62285333Y-144601429D01*
X62285333Y-144649048D01*
X62261524Y-144720476D01*
X61975810Y-145006190D01*
X62285333Y-145006190D01*
X58928191Y-120828571D02*
X58904381Y-120852381D01*
X58832953Y-120876190D01*
X58785334Y-120876190D01*
X58713905Y-120852381D01*
X58666286Y-120804762D01*
X58642477Y-120757143D01*
X58618667Y-120661905D01*
X58618667Y-120590476D01*
X58642477Y-120495238D01*
X58666286Y-120447619D01*
X58713905Y-120400000D01*
X58785334Y-120376190D01*
X58832953Y-120376190D01*
X58904381Y-120400000D01*
X58928191Y-120423810D01*
X59023429Y-120923810D02*
X59404381Y-120923810D01*
X59523429Y-120876190D02*
X59523429Y-120376190D01*
X59713905Y-120376190D01*
X59761524Y-120400000D01*
X59785333Y-120423810D01*
X59809143Y-120471429D01*
X59809143Y-120542857D01*
X59785333Y-120590476D01*
X59761524Y-120614286D01*
X59713905Y-120638095D01*
X59523429Y-120638095D01*
X59975810Y-120376190D02*
X60094857Y-120876190D01*
X60190095Y-120519048D01*
X60285333Y-120876190D01*
X60404381Y-120376190D01*
X60880572Y-120876190D02*
X60713905Y-120638095D01*
X60594858Y-120876190D02*
X60594858Y-120376190D01*
X60785334Y-120376190D01*
X60832953Y-120400000D01*
X60856762Y-120423810D01*
X60880572Y-120471429D01*
X60880572Y-120542857D01*
X60856762Y-120590476D01*
X60832953Y-120614286D01*
X60785334Y-120638095D01*
X60594858Y-120638095D01*
X61261524Y-120614286D02*
X61332953Y-120638095D01*
X61356762Y-120661905D01*
X61380572Y-120709524D01*
X61380572Y-120780952D01*
X61356762Y-120828571D01*
X61332953Y-120852381D01*
X61285334Y-120876190D01*
X61094858Y-120876190D01*
X61094858Y-120376190D01*
X61261524Y-120376190D01*
X61309143Y-120400000D01*
X61332953Y-120423810D01*
X61356762Y-120471429D01*
X61356762Y-120519048D01*
X61332953Y-120566667D01*
X61309143Y-120590476D01*
X61261524Y-120614286D01*
X61094858Y-120614286D01*
X61690096Y-120638095D02*
X61690096Y-120876190D01*
X61523429Y-120376190D02*
X61690096Y-120638095D01*
X61856762Y-120376190D01*
X61975810Y-120376190D02*
X62285333Y-120376190D01*
X62118667Y-120566667D01*
X62190095Y-120566667D01*
X62237714Y-120590476D01*
X62261524Y-120614286D01*
X62285333Y-120661905D01*
X62285333Y-120780952D01*
X62261524Y-120828571D01*
X62237714Y-120852381D01*
X62190095Y-120876190D01*
X62047238Y-120876190D01*
X61999619Y-120852381D01*
X61975810Y-120828571D01*
X86276690Y-101040022D02*
X86633833Y-101040022D01*
X86705262Y-101063832D01*
X86752881Y-101111451D01*
X86776690Y-101182879D01*
X86776690Y-101230498D01*
X86824310Y-100920975D02*
X86824310Y-100540023D01*
X86633833Y-100444785D02*
X86633833Y-100206690D01*
X86776690Y-100492404D02*
X86276690Y-100325737D01*
X86776690Y-100159071D01*
X86276690Y-99992404D02*
X86681452Y-99992404D01*
X86729071Y-99968595D01*
X86752881Y-99944785D01*
X86776690Y-99897166D01*
X86776690Y-99801928D01*
X86752881Y-99754309D01*
X86729071Y-99730500D01*
X86681452Y-99706690D01*
X86276690Y-99706690D01*
X86276690Y-99516213D02*
X86776690Y-99182880D01*
X86276690Y-99182880D02*
X86776690Y-99516213D01*
X86324310Y-99016214D02*
X86300500Y-98992404D01*
X86276690Y-98944785D01*
X86276690Y-98825738D01*
X86300500Y-98778119D01*
X86324310Y-98754309D01*
X86371929Y-98730500D01*
X86419548Y-98730500D01*
X86490976Y-98754309D01*
X86776690Y-99040023D01*
X86776690Y-98730500D01*
X86776690Y-98516214D02*
X86276690Y-98516214D01*
X86633833Y-98349548D01*
X86276690Y-98182881D01*
X86776690Y-98182881D01*
X86633833Y-97968595D02*
X86633833Y-97730500D01*
X86776690Y-98016214D02*
X86276690Y-97849547D01*
X86776690Y-97682881D01*
X86776690Y-97516214D02*
X86276690Y-97516214D01*
X86776690Y-97278119D02*
X86276690Y-97278119D01*
X86776690Y-96992405D01*
X86276690Y-96992405D01*
X86824310Y-96873357D02*
X86824310Y-96492405D01*
X86776690Y-96135262D02*
X86776690Y-96373357D01*
X86276690Y-96373357D01*
X86514786Y-95968595D02*
X86514786Y-95801929D01*
X86776690Y-95730500D02*
X86776690Y-95968595D01*
X86276690Y-95968595D01*
X86276690Y-95730500D01*
X86776690Y-95516214D02*
X86276690Y-95516214D01*
X86276690Y-95397167D01*
X86300500Y-95325738D01*
X86348119Y-95278119D01*
X86395738Y-95254310D01*
X86490976Y-95230500D01*
X86562405Y-95230500D01*
X86657643Y-95254310D01*
X86705262Y-95278119D01*
X86752881Y-95325738D01*
X86776690Y-95397167D01*
X86776690Y-95516214D01*
X86776690Y-94754310D02*
X86776690Y-95040024D01*
X86776690Y-94897167D02*
X86276690Y-94897167D01*
X86348119Y-94944786D01*
X86395738Y-94992405D01*
X86419548Y-95040024D01*
X116191690Y-100583880D02*
X115953595Y-100750547D01*
X116191690Y-100869594D02*
X115691690Y-100869594D01*
X115691690Y-100679118D01*
X115715500Y-100631499D01*
X115739310Y-100607690D01*
X115786929Y-100583880D01*
X115858357Y-100583880D01*
X115905976Y-100607690D01*
X115929786Y-100631499D01*
X115953595Y-100679118D01*
X115953595Y-100869594D01*
X116239310Y-100488642D02*
X116239310Y-100107690D01*
X116191690Y-99750547D02*
X116191690Y-99988642D01*
X115691690Y-99988642D01*
X115929786Y-99583880D02*
X115929786Y-99417214D01*
X116191690Y-99345785D02*
X116191690Y-99583880D01*
X115691690Y-99583880D01*
X115691690Y-99345785D01*
X116191690Y-99131499D02*
X115691690Y-99131499D01*
X115691690Y-99012452D01*
X115715500Y-98941023D01*
X115763119Y-98893404D01*
X115810738Y-98869595D01*
X115905976Y-98845785D01*
X115977405Y-98845785D01*
X116072643Y-98869595D01*
X116120262Y-98893404D01*
X116167881Y-98941023D01*
X116191690Y-99012452D01*
X116191690Y-99131499D01*
X116191690Y-98369595D02*
X116191690Y-98655309D01*
X116191690Y-98512452D02*
X115691690Y-98512452D01*
X115763119Y-98560071D01*
X115810738Y-98607690D01*
X115834548Y-98655309D01*
X64516191Y-162484571D02*
X64492381Y-162508381D01*
X64420953Y-162532190D01*
X64373334Y-162532190D01*
X64301905Y-162508381D01*
X64254286Y-162460762D01*
X64230477Y-162413143D01*
X64206667Y-162317905D01*
X64206667Y-162246476D01*
X64230477Y-162151238D01*
X64254286Y-162103619D01*
X64301905Y-162056000D01*
X64373334Y-162032190D01*
X64420953Y-162032190D01*
X64492381Y-162056000D01*
X64516191Y-162079810D01*
X64611429Y-162579810D02*
X64992381Y-162579810D01*
X65111429Y-162532190D02*
X65111429Y-162032190D01*
X65301905Y-162032190D01*
X65349524Y-162056000D01*
X65373333Y-162079810D01*
X65397143Y-162127429D01*
X65397143Y-162198857D01*
X65373333Y-162246476D01*
X65349524Y-162270286D01*
X65301905Y-162294095D01*
X65111429Y-162294095D01*
X65563810Y-162032190D02*
X65682857Y-162532190D01*
X65778095Y-162175048D01*
X65873333Y-162532190D01*
X65992381Y-162032190D01*
X66468572Y-162532190D02*
X66301905Y-162294095D01*
X66182858Y-162532190D02*
X66182858Y-162032190D01*
X66373334Y-162032190D01*
X66420953Y-162056000D01*
X66444762Y-162079810D01*
X66468572Y-162127429D01*
X66468572Y-162198857D01*
X66444762Y-162246476D01*
X66420953Y-162270286D01*
X66373334Y-162294095D01*
X66182858Y-162294095D01*
X66849524Y-162270286D02*
X66920953Y-162294095D01*
X66944762Y-162317905D01*
X66968572Y-162365524D01*
X66968572Y-162436952D01*
X66944762Y-162484571D01*
X66920953Y-162508381D01*
X66873334Y-162532190D01*
X66682858Y-162532190D01*
X66682858Y-162032190D01*
X66849524Y-162032190D01*
X66897143Y-162056000D01*
X66920953Y-162079810D01*
X66944762Y-162127429D01*
X66944762Y-162175048D01*
X66920953Y-162222667D01*
X66897143Y-162246476D01*
X66849524Y-162270286D01*
X66682858Y-162270286D01*
X67278096Y-162294095D02*
X67278096Y-162532190D01*
X67111429Y-162032190D02*
X67278096Y-162294095D01*
X67444762Y-162032190D01*
X67873333Y-162532190D02*
X67587619Y-162532190D01*
X67730476Y-162532190D02*
X67730476Y-162032190D01*
X67682857Y-162103619D01*
X67635238Y-162151238D01*
X67587619Y-162175048D01*
D11*
X62889048Y-167181429D02*
X63650953Y-167181429D01*
X63270001Y-167562381D02*
X63270001Y-166800476D01*
D14*
X120336668Y-151943571D02*
X120312858Y-151967381D01*
X120241430Y-151991190D01*
X120193811Y-151991190D01*
X120122382Y-151967381D01*
X120074763Y-151919762D01*
X120050954Y-151872143D01*
X120027144Y-151776905D01*
X120027144Y-151705476D01*
X120050954Y-151610238D01*
X120074763Y-151562619D01*
X120122382Y-151515000D01*
X120193811Y-151491190D01*
X120241430Y-151491190D01*
X120312858Y-151515000D01*
X120336668Y-151538810D01*
X120431906Y-152038810D02*
X120812858Y-152038810D01*
X120908096Y-151967381D02*
X120979525Y-151991190D01*
X121098572Y-151991190D01*
X121146191Y-151967381D01*
X121170001Y-151943571D01*
X121193810Y-151895952D01*
X121193810Y-151848333D01*
X121170001Y-151800714D01*
X121146191Y-151776905D01*
X121098572Y-151753095D01*
X121003334Y-151729286D01*
X120955715Y-151705476D01*
X120931906Y-151681667D01*
X120908096Y-151634048D01*
X120908096Y-151586429D01*
X120931906Y-151538810D01*
X120955715Y-151515000D01*
X121003334Y-151491190D01*
X121122382Y-151491190D01*
X121193810Y-151515000D01*
X121384286Y-151848333D02*
X121622381Y-151848333D01*
X121336667Y-151991190D02*
X121503334Y-151491190D01*
X121670000Y-151991190D01*
X121789048Y-151491190D02*
X121908095Y-151991190D01*
X122003333Y-151634048D01*
X122098571Y-151991190D01*
X122217619Y-151491190D01*
X122408096Y-151991190D02*
X122408096Y-151491190D01*
X122646191Y-151991190D02*
X122646191Y-151491190D01*
X122931905Y-151991190D01*
X122931905Y-151491190D01*
X123098572Y-151491190D02*
X123384286Y-151491190D01*
X123241429Y-151991190D02*
X123241429Y-151491190D01*
X123812857Y-151991190D02*
X123527143Y-151991190D01*
X123670000Y-151991190D02*
X123670000Y-151491190D01*
X123622381Y-151562619D01*
X123574762Y-151610238D01*
X123527143Y-151634048D01*
X112188811Y-141196190D02*
X112022144Y-140958095D01*
X111903097Y-141196190D02*
X111903097Y-140696190D01*
X112093573Y-140696190D01*
X112141192Y-140720000D01*
X112165001Y-140743810D01*
X112188811Y-140791429D01*
X112188811Y-140862857D01*
X112165001Y-140910476D01*
X112141192Y-140934286D01*
X112093573Y-140958095D01*
X111903097Y-140958095D01*
X112284049Y-141243810D02*
X112665001Y-141243810D01*
X112760239Y-141172381D02*
X112831668Y-141196190D01*
X112950715Y-141196190D01*
X112998334Y-141172381D01*
X113022144Y-141148571D01*
X113045953Y-141100952D01*
X113045953Y-141053333D01*
X113022144Y-141005714D01*
X112998334Y-140981905D01*
X112950715Y-140958095D01*
X112855477Y-140934286D01*
X112807858Y-140910476D01*
X112784049Y-140886667D01*
X112760239Y-140839048D01*
X112760239Y-140791429D01*
X112784049Y-140743810D01*
X112807858Y-140720000D01*
X112855477Y-140696190D01*
X112974525Y-140696190D01*
X113045953Y-140720000D01*
X113236429Y-141053333D02*
X113474524Y-141053333D01*
X113188810Y-141196190D02*
X113355477Y-140696190D01*
X113522143Y-141196190D01*
X113641191Y-140696190D02*
X113760238Y-141196190D01*
X113855476Y-140839048D01*
X113950714Y-141196190D01*
X114069762Y-140696190D01*
X114426905Y-140934286D02*
X114260239Y-140934286D01*
X114260239Y-141196190D02*
X114260239Y-140696190D01*
X114498334Y-140696190D01*
X114855476Y-140934286D02*
X114926905Y-140958095D01*
X114950714Y-140981905D01*
X114974524Y-141029524D01*
X114974524Y-141100952D01*
X114950714Y-141148571D01*
X114926905Y-141172381D01*
X114879286Y-141196190D01*
X114688810Y-141196190D01*
X114688810Y-140696190D01*
X114855476Y-140696190D01*
X114903095Y-140720000D01*
X114926905Y-140743810D01*
X114950714Y-140791429D01*
X114950714Y-140839048D01*
X114926905Y-140886667D01*
X114903095Y-140910476D01*
X114855476Y-140934286D01*
X114688810Y-140934286D01*
X115450714Y-141196190D02*
X115165000Y-141196190D01*
X115307857Y-141196190D02*
X115307857Y-140696190D01*
X115260238Y-140767619D01*
X115212619Y-140815238D01*
X115165000Y-140839048D01*
X109192190Y-147768237D02*
X108954095Y-147934904D01*
X109192190Y-148053951D02*
X108692190Y-148053951D01*
X108692190Y-147863475D01*
X108716000Y-147815856D01*
X108739810Y-147792047D01*
X108787429Y-147768237D01*
X108858857Y-147768237D01*
X108906476Y-147792047D01*
X108930286Y-147815856D01*
X108954095Y-147863475D01*
X108954095Y-148053951D01*
X109239810Y-147672999D02*
X109239810Y-147292047D01*
X109168381Y-147196809D02*
X109192190Y-147125380D01*
X109192190Y-147006333D01*
X109168381Y-146958714D01*
X109144571Y-146934904D01*
X109096952Y-146911095D01*
X109049333Y-146911095D01*
X109001714Y-146934904D01*
X108977905Y-146958714D01*
X108954095Y-147006333D01*
X108930286Y-147101571D01*
X108906476Y-147149190D01*
X108882667Y-147172999D01*
X108835048Y-147196809D01*
X108787429Y-147196809D01*
X108739810Y-147172999D01*
X108716000Y-147149190D01*
X108692190Y-147101571D01*
X108692190Y-146982523D01*
X108716000Y-146911095D01*
X109049333Y-146720619D02*
X109049333Y-146482524D01*
X109192190Y-146768238D02*
X108692190Y-146601571D01*
X109192190Y-146434905D01*
X108692190Y-146315857D02*
X109192190Y-146196810D01*
X108835048Y-146101572D01*
X109192190Y-146006334D01*
X108692190Y-145887286D01*
X108692190Y-145553952D02*
X109049333Y-145553952D01*
X109120762Y-145577762D01*
X109168381Y-145625381D01*
X109192190Y-145696809D01*
X109192190Y-145744428D01*
X108692190Y-145220619D02*
X108692190Y-145125381D01*
X108716000Y-145077762D01*
X108763619Y-145030143D01*
X108858857Y-145006334D01*
X109025524Y-145006334D01*
X109120762Y-145030143D01*
X109168381Y-145077762D01*
X109192190Y-145125381D01*
X109192190Y-145220619D01*
X109168381Y-145268238D01*
X109120762Y-145315857D01*
X109025524Y-145339667D01*
X108858857Y-145339667D01*
X108763619Y-145315857D01*
X108716000Y-145268238D01*
X108692190Y-145220619D01*
X109192190Y-144792047D02*
X108692190Y-144792047D01*
X109192190Y-144553952D02*
X108692190Y-144553952D01*
X109192190Y-144268238D01*
X108692190Y-144268238D01*
X109192190Y-143768238D02*
X109192190Y-144053952D01*
X109192190Y-143911095D02*
X108692190Y-143911095D01*
X108763619Y-143958714D01*
X108811238Y-144006333D01*
X108835048Y-144053952D01*
X126841429Y-122781190D02*
X126674762Y-122543095D01*
X126555715Y-122781190D02*
X126555715Y-122281190D01*
X126746191Y-122281190D01*
X126793810Y-122305000D01*
X126817619Y-122328810D01*
X126841429Y-122376429D01*
X126841429Y-122447857D01*
X126817619Y-122495476D01*
X126793810Y-122519286D01*
X126746191Y-122543095D01*
X126555715Y-122543095D01*
X126936667Y-122828810D02*
X127317619Y-122828810D01*
X127412857Y-122757381D02*
X127484286Y-122781190D01*
X127603333Y-122781190D01*
X127650952Y-122757381D01*
X127674762Y-122733571D01*
X127698571Y-122685952D01*
X127698571Y-122638333D01*
X127674762Y-122590714D01*
X127650952Y-122566905D01*
X127603333Y-122543095D01*
X127508095Y-122519286D01*
X127460476Y-122495476D01*
X127436667Y-122471667D01*
X127412857Y-122424048D01*
X127412857Y-122376429D01*
X127436667Y-122328810D01*
X127460476Y-122305000D01*
X127508095Y-122281190D01*
X127627143Y-122281190D01*
X127698571Y-122305000D01*
X127865238Y-122281190D02*
X127984285Y-122781190D01*
X128079523Y-122424048D01*
X128174761Y-122781190D01*
X128293809Y-122281190D01*
X128484286Y-122781190D02*
X128484286Y-122281190D01*
X128722381Y-122781190D02*
X128722381Y-122281190D01*
X129008095Y-122781190D01*
X129008095Y-122281190D01*
X129508095Y-122305000D02*
X129460476Y-122281190D01*
X129389048Y-122281190D01*
X129317619Y-122305000D01*
X129270000Y-122352619D01*
X129246191Y-122400238D01*
X129222381Y-122495476D01*
X129222381Y-122566905D01*
X129246191Y-122662143D01*
X129270000Y-122709762D01*
X129317619Y-122757381D01*
X129389048Y-122781190D01*
X129436667Y-122781190D01*
X129508095Y-122757381D01*
X129531905Y-122733571D01*
X129531905Y-122566905D01*
X129436667Y-122566905D01*
X130008095Y-122781190D02*
X129722381Y-122781190D01*
X129865238Y-122781190D02*
X129865238Y-122281190D01*
X129817619Y-122352619D01*
X129770000Y-122400238D01*
X129722381Y-122424048D01*
X95074029Y-148290790D02*
X95074029Y-148695552D01*
X95097838Y-148743171D01*
X95121648Y-148766981D01*
X95169267Y-148790790D01*
X95264505Y-148790790D01*
X95312124Y-148766981D01*
X95335933Y-148743171D01*
X95359743Y-148695552D01*
X95359743Y-148290790D01*
X95478791Y-148838410D02*
X95859743Y-148838410D01*
X95978791Y-148790790D02*
X95978791Y-148290790D01*
X96145457Y-148647933D01*
X96312124Y-148290790D01*
X96312124Y-148790790D01*
X96526410Y-148647933D02*
X96764505Y-148647933D01*
X96478791Y-148790790D02*
X96645458Y-148290790D01*
X96812124Y-148790790D01*
X96978791Y-148790790D02*
X96978791Y-148290790D01*
X97216886Y-148790790D02*
X97216886Y-148290790D01*
X97502600Y-148790790D01*
X97502600Y-148290790D01*
X97835934Y-148290790D02*
X97931172Y-148290790D01*
X97978791Y-148314600D01*
X98026410Y-148362219D01*
X98050219Y-148457457D01*
X98050219Y-148624124D01*
X98026410Y-148719362D01*
X97978791Y-148766981D01*
X97931172Y-148790790D01*
X97835934Y-148790790D01*
X97788315Y-148766981D01*
X97740696Y-148719362D01*
X97716886Y-148624124D01*
X97716886Y-148457457D01*
X97740696Y-148362219D01*
X97788315Y-148314600D01*
X97835934Y-148290790D01*
X98240696Y-148647933D02*
X98478791Y-148647933D01*
X98193077Y-148790790D02*
X98359744Y-148290790D01*
X98526410Y-148790790D01*
X98954981Y-148790790D02*
X98669267Y-148790790D01*
X98812124Y-148790790D02*
X98812124Y-148290790D01*
X98764505Y-148362219D01*
X98716886Y-148409838D01*
X98669267Y-148433648D01*
X93071190Y-126178189D02*
X93475952Y-126178189D01*
X93523571Y-126154380D01*
X93547381Y-126130570D01*
X93571190Y-126082951D01*
X93571190Y-125987713D01*
X93547381Y-125940094D01*
X93523571Y-125916285D01*
X93475952Y-125892475D01*
X93071190Y-125892475D01*
X93618810Y-125773427D02*
X93618810Y-125392475D01*
X93071190Y-125178189D02*
X93071190Y-125082951D01*
X93095000Y-125035332D01*
X93142619Y-124987713D01*
X93237857Y-124963904D01*
X93404524Y-124963904D01*
X93499762Y-124987713D01*
X93547381Y-125035332D01*
X93571190Y-125082951D01*
X93571190Y-125178189D01*
X93547381Y-125225808D01*
X93499762Y-125273427D01*
X93404524Y-125297237D01*
X93237857Y-125297237D01*
X93142619Y-125273427D01*
X93095000Y-125225808D01*
X93071190Y-125178189D01*
X93428333Y-124773427D02*
X93428333Y-124535332D01*
X93571190Y-124821046D02*
X93071190Y-124654379D01*
X93571190Y-124487713D01*
X93309286Y-124154380D02*
X93309286Y-124321046D01*
X93571190Y-124321046D02*
X93071190Y-124321046D01*
X93071190Y-124082951D01*
X93071190Y-123940094D02*
X93571190Y-123606761D01*
X93071190Y-123606761D02*
X93571190Y-123940094D01*
X93309286Y-123249619D02*
X93333095Y-123178190D01*
X93356905Y-123154381D01*
X93404524Y-123130571D01*
X93475952Y-123130571D01*
X93523571Y-123154381D01*
X93547381Y-123178190D01*
X93571190Y-123225809D01*
X93571190Y-123416285D01*
X93071190Y-123416285D01*
X93071190Y-123249619D01*
X93095000Y-123202000D01*
X93118810Y-123178190D01*
X93166429Y-123154381D01*
X93214048Y-123154381D01*
X93261667Y-123178190D01*
X93285476Y-123202000D01*
X93309286Y-123249619D01*
X93309286Y-123416285D01*
X93071190Y-122916285D02*
X93475952Y-122916285D01*
X93523571Y-122892476D01*
X93547381Y-122868666D01*
X93571190Y-122821047D01*
X93571190Y-122725809D01*
X93547381Y-122678190D01*
X93523571Y-122654381D01*
X93475952Y-122630571D01*
X93071190Y-122630571D01*
X93309286Y-122225809D02*
X93309286Y-122392475D01*
X93571190Y-122392475D02*
X93071190Y-122392475D01*
X93071190Y-122154380D01*
X93571190Y-121702000D02*
X93571190Y-121987714D01*
X93571190Y-121844857D02*
X93071190Y-121844857D01*
X93142619Y-121892476D01*
X93190238Y-121940095D01*
X93214048Y-121987714D01*
X118209525Y-146665190D02*
X118209525Y-147069952D01*
X118233334Y-147117571D01*
X118257144Y-147141381D01*
X118304763Y-147165190D01*
X118400001Y-147165190D01*
X118447620Y-147141381D01*
X118471429Y-147117571D01*
X118495239Y-147069952D01*
X118495239Y-146665190D01*
X118614287Y-147212810D02*
X118995239Y-147212810D01*
X119209525Y-146665190D02*
X119304763Y-146665190D01*
X119352382Y-146689000D01*
X119400001Y-146736619D01*
X119423810Y-146831857D01*
X119423810Y-146998524D01*
X119400001Y-147093762D01*
X119352382Y-147141381D01*
X119304763Y-147165190D01*
X119209525Y-147165190D01*
X119161906Y-147141381D01*
X119114287Y-147093762D01*
X119090477Y-146998524D01*
X119090477Y-146831857D01*
X119114287Y-146736619D01*
X119161906Y-146689000D01*
X119209525Y-146665190D01*
X119614287Y-147022333D02*
X119852382Y-147022333D01*
X119566668Y-147165190D02*
X119733335Y-146665190D01*
X119900001Y-147165190D01*
X120066668Y-147165190D02*
X120066668Y-146665190D01*
X120257144Y-146665190D01*
X120304763Y-146689000D01*
X120328572Y-146712810D01*
X120352382Y-146760429D01*
X120352382Y-146831857D01*
X120328572Y-146879476D01*
X120304763Y-146903286D01*
X120257144Y-146927095D01*
X120066668Y-146927095D01*
X120804763Y-147165190D02*
X120566668Y-147165190D01*
X120566668Y-146665190D01*
X121209525Y-147165190D02*
X120971430Y-147165190D01*
X120971430Y-146665190D01*
X121352382Y-147141381D02*
X121423811Y-147165190D01*
X121542858Y-147165190D01*
X121590477Y-147141381D01*
X121614287Y-147117571D01*
X121638096Y-147069952D01*
X121638096Y-147022333D01*
X121614287Y-146974714D01*
X121590477Y-146950905D01*
X121542858Y-146927095D01*
X121447620Y-146903286D01*
X121400001Y-146879476D01*
X121376192Y-146855667D01*
X121352382Y-146808048D01*
X121352382Y-146760429D01*
X121376192Y-146712810D01*
X121400001Y-146689000D01*
X121447620Y-146665190D01*
X121566668Y-146665190D01*
X121638096Y-146689000D01*
X121828572Y-147022333D02*
X122066667Y-147022333D01*
X121780953Y-147165190D02*
X121947620Y-146665190D01*
X122114286Y-147165190D01*
X122233334Y-146665190D02*
X122352381Y-147165190D01*
X122447619Y-146808048D01*
X122542857Y-147165190D01*
X122661905Y-146665190D01*
X123114286Y-147165190D02*
X122828572Y-147165190D01*
X122971429Y-147165190D02*
X122971429Y-146665190D01*
X122923810Y-146736619D01*
X122876191Y-146784238D01*
X122828572Y-146808048D01*
X119423810Y-130536190D02*
X119423810Y-130940952D01*
X119447619Y-130988571D01*
X119471429Y-131012381D01*
X119519048Y-131036190D01*
X119614286Y-131036190D01*
X119661905Y-131012381D01*
X119685714Y-130988571D01*
X119709524Y-130940952D01*
X119709524Y-130536190D01*
X119828572Y-131083810D02*
X120209524Y-131083810D01*
X120328572Y-131036190D02*
X120328572Y-130536190D01*
X120519048Y-130536190D01*
X120566667Y-130560000D01*
X120590476Y-130583810D01*
X120614286Y-130631429D01*
X120614286Y-130702857D01*
X120590476Y-130750476D01*
X120566667Y-130774286D01*
X120519048Y-130798095D01*
X120328572Y-130798095D01*
X121066667Y-131036190D02*
X120828572Y-131036190D01*
X120828572Y-130536190D01*
X121471429Y-131036190D02*
X121233334Y-131036190D01*
X121233334Y-130536190D01*
X121900000Y-131036190D02*
X121614286Y-131036190D01*
X121757143Y-131036190D02*
X121757143Y-130536190D01*
X121709524Y-130607619D01*
X121661905Y-130655238D01*
X121614286Y-130679048D01*
X113057858Y-118376190D02*
X113057858Y-118733333D01*
X113034048Y-118804762D01*
X112986429Y-118852381D01*
X112915001Y-118876190D01*
X112867382Y-118876190D01*
X113224524Y-118376190D02*
X113510238Y-118376190D01*
X113367381Y-118876190D02*
X113367381Y-118376190D01*
X113676905Y-118876190D02*
X113676905Y-118376190D01*
X113867381Y-118376190D01*
X113915000Y-118400000D01*
X113938809Y-118423810D01*
X113962619Y-118471429D01*
X113962619Y-118542857D01*
X113938809Y-118590476D01*
X113915000Y-118614286D01*
X113867381Y-118638095D01*
X113676905Y-118638095D01*
X114438809Y-118876190D02*
X114153095Y-118876190D01*
X114295952Y-118876190D02*
X114295952Y-118376190D01*
X114248333Y-118447619D01*
X114200714Y-118495238D01*
X114153095Y-118519048D01*
X126829525Y-126591190D02*
X126662858Y-126353095D01*
X126543811Y-126591190D02*
X126543811Y-126091190D01*
X126734287Y-126091190D01*
X126781906Y-126115000D01*
X126805715Y-126138810D01*
X126829525Y-126186429D01*
X126829525Y-126257857D01*
X126805715Y-126305476D01*
X126781906Y-126329286D01*
X126734287Y-126353095D01*
X126543811Y-126353095D01*
X126924763Y-126638810D02*
X127305715Y-126638810D01*
X127400953Y-126567381D02*
X127472382Y-126591190D01*
X127591429Y-126591190D01*
X127639048Y-126567381D01*
X127662858Y-126543571D01*
X127686667Y-126495952D01*
X127686667Y-126448333D01*
X127662858Y-126400714D01*
X127639048Y-126376905D01*
X127591429Y-126353095D01*
X127496191Y-126329286D01*
X127448572Y-126305476D01*
X127424763Y-126281667D01*
X127400953Y-126234048D01*
X127400953Y-126186429D01*
X127424763Y-126138810D01*
X127448572Y-126115000D01*
X127496191Y-126091190D01*
X127615239Y-126091190D01*
X127686667Y-126115000D01*
X128067619Y-126329286D02*
X127900953Y-126329286D01*
X127900953Y-126591190D02*
X127900953Y-126091190D01*
X128139048Y-126091190D01*
X128424762Y-126091190D02*
X128520000Y-126091190D01*
X128567619Y-126115000D01*
X128615238Y-126162619D01*
X128639047Y-126257857D01*
X128639047Y-126424524D01*
X128615238Y-126519762D01*
X128567619Y-126567381D01*
X128520000Y-126591190D01*
X128424762Y-126591190D01*
X128377143Y-126567381D01*
X128329524Y-126519762D01*
X128305714Y-126424524D01*
X128305714Y-126257857D01*
X128329524Y-126162619D01*
X128377143Y-126115000D01*
X128424762Y-126091190D01*
X128853334Y-126091190D02*
X128853334Y-126495952D01*
X128877143Y-126543571D01*
X128900953Y-126567381D01*
X128948572Y-126591190D01*
X129043810Y-126591190D01*
X129091429Y-126567381D01*
X129115238Y-126543571D01*
X129139048Y-126495952D01*
X129139048Y-126091190D01*
X129305715Y-126091190D02*
X129591429Y-126091190D01*
X129448572Y-126591190D02*
X129448572Y-126091190D01*
X130020000Y-126591190D02*
X129734286Y-126591190D01*
X129877143Y-126591190D02*
X129877143Y-126091190D01*
X129829524Y-126162619D01*
X129781905Y-126210238D01*
X129734286Y-126234048D01*
X138918190Y-127749713D02*
X139275333Y-127749713D01*
X139346762Y-127773523D01*
X139394381Y-127821142D01*
X139418190Y-127892570D01*
X139418190Y-127940189D01*
X139465810Y-127630666D02*
X139465810Y-127249714D01*
X139418190Y-127130666D02*
X138918190Y-127130666D01*
X139275333Y-126964000D01*
X138918190Y-126797333D01*
X139418190Y-126797333D01*
X139275333Y-126583047D02*
X139275333Y-126344952D01*
X139418190Y-126630666D02*
X138918190Y-126463999D01*
X139418190Y-126297333D01*
X139418190Y-126130666D02*
X138918190Y-126130666D01*
X139418190Y-125892571D02*
X138918190Y-125892571D01*
X139418190Y-125606857D01*
X138918190Y-125606857D01*
X138965810Y-125392571D02*
X138942000Y-125368761D01*
X138918190Y-125321142D01*
X138918190Y-125202095D01*
X138942000Y-125154476D01*
X138965810Y-125130666D01*
X139013429Y-125106857D01*
X139061048Y-125106857D01*
X139132476Y-125130666D01*
X139418190Y-125416380D01*
X139418190Y-125106857D01*
X139275333Y-124916381D02*
X139275333Y-124678286D01*
X139418190Y-124964000D02*
X138918190Y-124797333D01*
X139418190Y-124630667D01*
X138918190Y-124464000D02*
X139322952Y-124464000D01*
X139370571Y-124440191D01*
X139394381Y-124416381D01*
X139418190Y-124368762D01*
X139418190Y-124273524D01*
X139394381Y-124225905D01*
X139370571Y-124202096D01*
X139322952Y-124178286D01*
X138918190Y-124178286D01*
X138918190Y-123987809D02*
X139418190Y-123654476D01*
X138918190Y-123654476D02*
X139418190Y-123987809D01*
X139465810Y-123583048D02*
X139465810Y-123202096D01*
X139418190Y-123083048D02*
X138918190Y-123083048D01*
X138918190Y-122892572D01*
X138942000Y-122844953D01*
X138965810Y-122821144D01*
X139013429Y-122797334D01*
X139084857Y-122797334D01*
X139132476Y-122821144D01*
X139156286Y-122844953D01*
X139180095Y-122892572D01*
X139180095Y-123083048D01*
X139418190Y-122344953D02*
X139418190Y-122583048D01*
X138918190Y-122583048D01*
X139418190Y-121940191D02*
X139418190Y-122178286D01*
X138918190Y-122178286D01*
X139418190Y-121511620D02*
X139418190Y-121797334D01*
X139418190Y-121654477D02*
X138918190Y-121654477D01*
X138989619Y-121702096D01*
X139037238Y-121749715D01*
X139061048Y-121797334D01*
X139680190Y-66662713D02*
X140037333Y-66662713D01*
X140108762Y-66686523D01*
X140156381Y-66734142D01*
X140180190Y-66805570D01*
X140180190Y-66853189D01*
X140227810Y-66543666D02*
X140227810Y-66162714D01*
X140037333Y-66067476D02*
X140037333Y-65829381D01*
X140180190Y-66115095D02*
X139680190Y-65948428D01*
X140180190Y-65781762D01*
X139680190Y-65615095D02*
X140084952Y-65615095D01*
X140132571Y-65591286D01*
X140156381Y-65567476D01*
X140180190Y-65519857D01*
X140180190Y-65424619D01*
X140156381Y-65377000D01*
X140132571Y-65353191D01*
X140084952Y-65329381D01*
X139680190Y-65329381D01*
X139680190Y-65138904D02*
X140180190Y-64805571D01*
X139680190Y-64805571D02*
X140180190Y-65138904D01*
X139727810Y-64638905D02*
X139704000Y-64615095D01*
X139680190Y-64567476D01*
X139680190Y-64448429D01*
X139704000Y-64400810D01*
X139727810Y-64377000D01*
X139775429Y-64353191D01*
X139823048Y-64353191D01*
X139894476Y-64377000D01*
X140180190Y-64662714D01*
X140180190Y-64353191D01*
X140180190Y-64138905D02*
X139680190Y-64138905D01*
X140037333Y-63972239D01*
X139680190Y-63805572D01*
X140180190Y-63805572D01*
X140037333Y-63591286D02*
X140037333Y-63353191D01*
X140180190Y-63638905D02*
X139680190Y-63472238D01*
X140180190Y-63305572D01*
X140180190Y-63138905D02*
X139680190Y-63138905D01*
X140180190Y-62900810D02*
X139680190Y-62900810D01*
X140180190Y-62615096D01*
X139680190Y-62615096D01*
X140227810Y-62496048D02*
X140227810Y-62115096D01*
X140180190Y-61996048D02*
X139680190Y-61996048D01*
X139680190Y-61805572D01*
X139704000Y-61757953D01*
X139727810Y-61734144D01*
X139775429Y-61710334D01*
X139846857Y-61710334D01*
X139894476Y-61734144D01*
X139918286Y-61757953D01*
X139942095Y-61805572D01*
X139942095Y-61996048D01*
X140180190Y-61257953D02*
X140180190Y-61496048D01*
X139680190Y-61496048D01*
X140180190Y-60853191D02*
X140180190Y-61091286D01*
X139680190Y-61091286D01*
X140180190Y-60424620D02*
X140180190Y-60710334D01*
X140180190Y-60567477D02*
X139680190Y-60567477D01*
X139751619Y-60615096D01*
X139799238Y-60662715D01*
X139823048Y-60710334D01*
X101131906Y-119558571D02*
X101108096Y-119582381D01*
X101036668Y-119606190D01*
X100989049Y-119606190D01*
X100917620Y-119582381D01*
X100870001Y-119534762D01*
X100846192Y-119487143D01*
X100822382Y-119391905D01*
X100822382Y-119320476D01*
X100846192Y-119225238D01*
X100870001Y-119177619D01*
X100917620Y-119130000D01*
X100989049Y-119106190D01*
X101036668Y-119106190D01*
X101108096Y-119130000D01*
X101131906Y-119153810D01*
X101227144Y-119653810D02*
X101608096Y-119653810D01*
X101727144Y-119606190D02*
X101727144Y-119106190D01*
X101917620Y-119106190D01*
X101965239Y-119130000D01*
X101989048Y-119153810D01*
X102012858Y-119201429D01*
X102012858Y-119272857D01*
X101989048Y-119320476D01*
X101965239Y-119344286D01*
X101917620Y-119368095D01*
X101727144Y-119368095D01*
X102298572Y-119606190D02*
X102250953Y-119582381D01*
X102227144Y-119534762D01*
X102227144Y-119106190D01*
X102560477Y-119606190D02*
X102512858Y-119582381D01*
X102489049Y-119534762D01*
X102489049Y-119106190D01*
X103036668Y-119606190D02*
X102870001Y-119368095D01*
X102750954Y-119606190D02*
X102750954Y-119106190D01*
X102941430Y-119106190D01*
X102989049Y-119130000D01*
X103012858Y-119153810D01*
X103036668Y-119201429D01*
X103036668Y-119272857D01*
X103012858Y-119320476D01*
X102989049Y-119344286D01*
X102941430Y-119368095D01*
X102750954Y-119368095D01*
X103441430Y-119582381D02*
X103393811Y-119606190D01*
X103298573Y-119606190D01*
X103250954Y-119582381D01*
X103227144Y-119534762D01*
X103227144Y-119344286D01*
X103250954Y-119296667D01*
X103298573Y-119272857D01*
X103393811Y-119272857D01*
X103441430Y-119296667D01*
X103465239Y-119344286D01*
X103465239Y-119391905D01*
X103227144Y-119439524D01*
X103608096Y-119272857D02*
X103798572Y-119272857D01*
X103679525Y-119606190D02*
X103679525Y-119177619D01*
X103703334Y-119130000D01*
X103750953Y-119106190D01*
X103798572Y-119106190D01*
X103965239Y-119606190D02*
X103965239Y-119106190D01*
X104203334Y-119272857D02*
X104203334Y-119606190D01*
X104203334Y-119320476D02*
X104227143Y-119296667D01*
X104274762Y-119272857D01*
X104346191Y-119272857D01*
X104393810Y-119296667D01*
X104417619Y-119344286D01*
X104417619Y-119606190D01*
X104917619Y-119606190D02*
X104631905Y-119606190D01*
X104774762Y-119606190D02*
X104774762Y-119106190D01*
X104727143Y-119177619D01*
X104679524Y-119225238D01*
X104631905Y-119249048D01*
X116383571Y-149804285D02*
X116407381Y-149828095D01*
X116431190Y-149899523D01*
X116431190Y-149947142D01*
X116407381Y-150018571D01*
X116359762Y-150066190D01*
X116312143Y-150089999D01*
X116216905Y-150113809D01*
X116145476Y-150113809D01*
X116050238Y-150089999D01*
X116002619Y-150066190D01*
X115955000Y-150018571D01*
X115931190Y-149947142D01*
X115931190Y-149899523D01*
X115955000Y-149828095D01*
X115978810Y-149804285D01*
X116478810Y-149709047D02*
X116478810Y-149328095D01*
X115931190Y-149113809D02*
X115931190Y-149018571D01*
X115955000Y-148970952D01*
X116002619Y-148923333D01*
X116097857Y-148899524D01*
X116264524Y-148899524D01*
X116359762Y-148923333D01*
X116407381Y-148970952D01*
X116431190Y-149018571D01*
X116431190Y-149113809D01*
X116407381Y-149161428D01*
X116359762Y-149209047D01*
X116264524Y-149232857D01*
X116097857Y-149232857D01*
X116002619Y-149209047D01*
X115955000Y-149161428D01*
X115931190Y-149113809D01*
X116288333Y-148709047D02*
X116288333Y-148470952D01*
X116431190Y-148756666D02*
X115931190Y-148589999D01*
X116431190Y-148423333D01*
X116169286Y-148090000D02*
X116193095Y-148018571D01*
X116216905Y-147994762D01*
X116264524Y-147970952D01*
X116335952Y-147970952D01*
X116383571Y-147994762D01*
X116407381Y-148018571D01*
X116431190Y-148066190D01*
X116431190Y-148256666D01*
X115931190Y-148256666D01*
X115931190Y-148090000D01*
X115955000Y-148042381D01*
X115978810Y-148018571D01*
X116026429Y-147994762D01*
X116074048Y-147994762D01*
X116121667Y-148018571D01*
X116145476Y-148042381D01*
X116169286Y-148090000D01*
X116169286Y-148256666D01*
X116193095Y-147661428D02*
X116431190Y-147661428D01*
X115931190Y-147828095D02*
X116193095Y-147661428D01*
X115931190Y-147494762D01*
X115931190Y-147090000D02*
X115931190Y-147328095D01*
X116169286Y-147351905D01*
X116145476Y-147328095D01*
X116121667Y-147280476D01*
X116121667Y-147161429D01*
X116145476Y-147113810D01*
X116169286Y-147090000D01*
X116216905Y-147066191D01*
X116335952Y-147066191D01*
X116383571Y-147090000D01*
X116407381Y-147113810D01*
X116431190Y-147161429D01*
X116431190Y-147280476D01*
X116407381Y-147328095D01*
X116383571Y-147351905D01*
X122733571Y-139644285D02*
X122757381Y-139668095D01*
X122781190Y-139739523D01*
X122781190Y-139787142D01*
X122757381Y-139858571D01*
X122709762Y-139906190D01*
X122662143Y-139929999D01*
X122566905Y-139953809D01*
X122495476Y-139953809D01*
X122400238Y-139929999D01*
X122352619Y-139906190D01*
X122305000Y-139858571D01*
X122281190Y-139787142D01*
X122281190Y-139739523D01*
X122305000Y-139668095D01*
X122328810Y-139644285D01*
X122828810Y-139549047D02*
X122828810Y-139168095D01*
X122281190Y-138953809D02*
X122281190Y-138858571D01*
X122305000Y-138810952D01*
X122352619Y-138763333D01*
X122447857Y-138739524D01*
X122614524Y-138739524D01*
X122709762Y-138763333D01*
X122757381Y-138810952D01*
X122781190Y-138858571D01*
X122781190Y-138953809D01*
X122757381Y-139001428D01*
X122709762Y-139049047D01*
X122614524Y-139072857D01*
X122447857Y-139072857D01*
X122352619Y-139049047D01*
X122305000Y-139001428D01*
X122281190Y-138953809D01*
X122638333Y-138549047D02*
X122638333Y-138310952D01*
X122781190Y-138596666D02*
X122281190Y-138429999D01*
X122781190Y-138263333D01*
X122519286Y-137930000D02*
X122543095Y-137858571D01*
X122566905Y-137834762D01*
X122614524Y-137810952D01*
X122685952Y-137810952D01*
X122733571Y-137834762D01*
X122757381Y-137858571D01*
X122781190Y-137906190D01*
X122781190Y-138096666D01*
X122281190Y-138096666D01*
X122281190Y-137930000D01*
X122305000Y-137882381D01*
X122328810Y-137858571D01*
X122376429Y-137834762D01*
X122424048Y-137834762D01*
X122471667Y-137858571D01*
X122495476Y-137882381D01*
X122519286Y-137930000D01*
X122519286Y-138096666D01*
X122543095Y-137501428D02*
X122781190Y-137501428D01*
X122281190Y-137668095D02*
X122543095Y-137501428D01*
X122281190Y-137334762D01*
X122281190Y-136953810D02*
X122281190Y-137049048D01*
X122305000Y-137096667D01*
X122328810Y-137120476D01*
X122400238Y-137168095D01*
X122495476Y-137191905D01*
X122685952Y-137191905D01*
X122733571Y-137168095D01*
X122757381Y-137144286D01*
X122781190Y-137096667D01*
X122781190Y-137001429D01*
X122757381Y-136953810D01*
X122733571Y-136930000D01*
X122685952Y-136906191D01*
X122566905Y-136906191D01*
X122519286Y-136930000D01*
X122495476Y-136953810D01*
X122471667Y-137001429D01*
X122471667Y-137096667D01*
X122495476Y-137144286D01*
X122519286Y-137168095D01*
X122566905Y-137191905D01*
X86403690Y-60872331D02*
X86760833Y-60872331D01*
X86832262Y-60896141D01*
X86879881Y-60943760D01*
X86903690Y-61015188D01*
X86903690Y-61062807D01*
X86951310Y-60753284D02*
X86951310Y-60372332D01*
X86760833Y-60277094D02*
X86760833Y-60038999D01*
X86903690Y-60324713D02*
X86403690Y-60158046D01*
X86903690Y-59991380D01*
X86403690Y-59824713D02*
X86808452Y-59824713D01*
X86856071Y-59800904D01*
X86879881Y-59777094D01*
X86903690Y-59729475D01*
X86903690Y-59634237D01*
X86879881Y-59586618D01*
X86856071Y-59562809D01*
X86808452Y-59538999D01*
X86403690Y-59538999D01*
X86403690Y-59348522D02*
X86903690Y-59015189D01*
X86403690Y-59015189D02*
X86903690Y-59348522D01*
X86451310Y-58848523D02*
X86427500Y-58824713D01*
X86403690Y-58777094D01*
X86403690Y-58658047D01*
X86427500Y-58610428D01*
X86451310Y-58586618D01*
X86498929Y-58562809D01*
X86546548Y-58562809D01*
X86617976Y-58586618D01*
X86903690Y-58872332D01*
X86903690Y-58562809D01*
X86903690Y-58348523D02*
X86403690Y-58348523D01*
X86760833Y-58181857D01*
X86403690Y-58015190D01*
X86903690Y-58015190D01*
X86760833Y-57800904D02*
X86760833Y-57562809D01*
X86903690Y-57848523D02*
X86403690Y-57681856D01*
X86903690Y-57515190D01*
X86903690Y-57348523D02*
X86403690Y-57348523D01*
X86903690Y-57110428D02*
X86403690Y-57110428D01*
X86903690Y-56824714D01*
X86403690Y-56824714D01*
X86951310Y-56705666D02*
X86951310Y-56324714D01*
X86641786Y-56039000D02*
X86641786Y-56205666D01*
X86903690Y-56205666D02*
X86403690Y-56205666D01*
X86403690Y-55967571D01*
X86403690Y-55824714D02*
X86903690Y-55491381D01*
X86403690Y-55491381D02*
X86903690Y-55824714D01*
X86903690Y-55039001D02*
X86903690Y-55324715D01*
X86903690Y-55181858D02*
X86403690Y-55181858D01*
X86475119Y-55229477D01*
X86522738Y-55277096D01*
X86546548Y-55324715D01*
X86467190Y-69706713D02*
X86824333Y-69706713D01*
X86895762Y-69730523D01*
X86943381Y-69778142D01*
X86967190Y-69849570D01*
X86967190Y-69897189D01*
X87014810Y-69587666D02*
X87014810Y-69206714D01*
X86824333Y-69111476D02*
X86824333Y-68873381D01*
X86967190Y-69159095D02*
X86467190Y-68992428D01*
X86967190Y-68825762D01*
X86467190Y-68659095D02*
X86871952Y-68659095D01*
X86919571Y-68635286D01*
X86943381Y-68611476D01*
X86967190Y-68563857D01*
X86967190Y-68468619D01*
X86943381Y-68421000D01*
X86919571Y-68397191D01*
X86871952Y-68373381D01*
X86467190Y-68373381D01*
X86467190Y-68182904D02*
X86967190Y-67849571D01*
X86467190Y-67849571D02*
X86967190Y-68182904D01*
X86514810Y-67682905D02*
X86491000Y-67659095D01*
X86467190Y-67611476D01*
X86467190Y-67492429D01*
X86491000Y-67444810D01*
X86514810Y-67421000D01*
X86562429Y-67397191D01*
X86610048Y-67397191D01*
X86681476Y-67421000D01*
X86967190Y-67706714D01*
X86967190Y-67397191D01*
X86967190Y-67182905D02*
X86467190Y-67182905D01*
X86824333Y-67016239D01*
X86467190Y-66849572D01*
X86967190Y-66849572D01*
X86824333Y-66635286D02*
X86824333Y-66397191D01*
X86967190Y-66682905D02*
X86467190Y-66516238D01*
X86967190Y-66349572D01*
X86967190Y-66182905D02*
X86467190Y-66182905D01*
X86967190Y-65944810D02*
X86467190Y-65944810D01*
X86967190Y-65659096D01*
X86467190Y-65659096D01*
X87014810Y-65540048D02*
X87014810Y-65159096D01*
X86967190Y-65040048D02*
X86467190Y-65040048D01*
X86967190Y-64801953D02*
X86467190Y-64801953D01*
X86967190Y-64516239D01*
X86467190Y-64516239D01*
X86943381Y-64301953D02*
X86967190Y-64230524D01*
X86967190Y-64111477D01*
X86943381Y-64063858D01*
X86919571Y-64040048D01*
X86871952Y-64016239D01*
X86824333Y-64016239D01*
X86776714Y-64040048D01*
X86752905Y-64063858D01*
X86729095Y-64111477D01*
X86705286Y-64206715D01*
X86681476Y-64254334D01*
X86657667Y-64278143D01*
X86610048Y-64301953D01*
X86562429Y-64301953D01*
X86514810Y-64278143D01*
X86491000Y-64254334D01*
X86467190Y-64206715D01*
X86467190Y-64087667D01*
X86491000Y-64016239D01*
X86467190Y-63849572D02*
X86967190Y-63730525D01*
X86610048Y-63635287D01*
X86967190Y-63540049D01*
X86467190Y-63421001D01*
X86967190Y-62968620D02*
X86967190Y-63254334D01*
X86967190Y-63111477D02*
X86467190Y-63111477D01*
X86538619Y-63159096D01*
X86586238Y-63206715D01*
X86610048Y-63254334D01*
X81006190Y-122213331D02*
X81363333Y-122213331D01*
X81434762Y-122237141D01*
X81482381Y-122284760D01*
X81506190Y-122356188D01*
X81506190Y-122403807D01*
X81553810Y-122094284D02*
X81553810Y-121713332D01*
X81506190Y-121594284D02*
X81006190Y-121594284D01*
X81363333Y-121427618D01*
X81006190Y-121260951D01*
X81506190Y-121260951D01*
X81363333Y-121046665D02*
X81363333Y-120808570D01*
X81506190Y-121094284D02*
X81006190Y-120927617D01*
X81506190Y-120760951D01*
X81506190Y-120594284D02*
X81006190Y-120594284D01*
X81506190Y-120356189D02*
X81006190Y-120356189D01*
X81506190Y-120070475D01*
X81006190Y-120070475D01*
X81053810Y-119856189D02*
X81030000Y-119832379D01*
X81006190Y-119784760D01*
X81006190Y-119665713D01*
X81030000Y-119618094D01*
X81053810Y-119594284D01*
X81101429Y-119570475D01*
X81149048Y-119570475D01*
X81220476Y-119594284D01*
X81506190Y-119879998D01*
X81506190Y-119570475D01*
X81363333Y-119379999D02*
X81363333Y-119141904D01*
X81506190Y-119427618D02*
X81006190Y-119260951D01*
X81506190Y-119094285D01*
X81006190Y-118927618D02*
X81410952Y-118927618D01*
X81458571Y-118903809D01*
X81482381Y-118879999D01*
X81506190Y-118832380D01*
X81506190Y-118737142D01*
X81482381Y-118689523D01*
X81458571Y-118665714D01*
X81410952Y-118641904D01*
X81006190Y-118641904D01*
X81006190Y-118451427D02*
X81506190Y-118118094D01*
X81006190Y-118118094D02*
X81506190Y-118451427D01*
X81553810Y-118046666D02*
X81553810Y-117665714D01*
X81244286Y-117380000D02*
X81244286Y-117546666D01*
X81506190Y-117546666D02*
X81006190Y-117546666D01*
X81006190Y-117308571D01*
X81006190Y-117165714D02*
X81506190Y-116832381D01*
X81006190Y-116832381D02*
X81506190Y-117165714D01*
X81506190Y-116380001D02*
X81506190Y-116665715D01*
X81506190Y-116522858D02*
X81006190Y-116522858D01*
X81077619Y-116570477D01*
X81125238Y-116618096D01*
X81149048Y-116665715D01*
X81006190Y-130920713D02*
X81363333Y-130920713D01*
X81434762Y-130944523D01*
X81482381Y-130992142D01*
X81506190Y-131063570D01*
X81506190Y-131111189D01*
X81553810Y-130801666D02*
X81553810Y-130420714D01*
X81506190Y-130301666D02*
X81006190Y-130301666D01*
X81363333Y-130135000D01*
X81006190Y-129968333D01*
X81506190Y-129968333D01*
X81363333Y-129754047D02*
X81363333Y-129515952D01*
X81506190Y-129801666D02*
X81006190Y-129634999D01*
X81506190Y-129468333D01*
X81506190Y-129301666D02*
X81006190Y-129301666D01*
X81506190Y-129063571D02*
X81006190Y-129063571D01*
X81506190Y-128777857D01*
X81006190Y-128777857D01*
X81053810Y-128563571D02*
X81030000Y-128539761D01*
X81006190Y-128492142D01*
X81006190Y-128373095D01*
X81030000Y-128325476D01*
X81053810Y-128301666D01*
X81101429Y-128277857D01*
X81149048Y-128277857D01*
X81220476Y-128301666D01*
X81506190Y-128587380D01*
X81506190Y-128277857D01*
X81363333Y-128087381D02*
X81363333Y-127849286D01*
X81506190Y-128135000D02*
X81006190Y-127968333D01*
X81506190Y-127801667D01*
X81006190Y-127635000D02*
X81410952Y-127635000D01*
X81458571Y-127611191D01*
X81482381Y-127587381D01*
X81506190Y-127539762D01*
X81506190Y-127444524D01*
X81482381Y-127396905D01*
X81458571Y-127373096D01*
X81410952Y-127349286D01*
X81006190Y-127349286D01*
X81006190Y-127158809D02*
X81506190Y-126825476D01*
X81006190Y-126825476D02*
X81506190Y-127158809D01*
X81553810Y-126754048D02*
X81553810Y-126373096D01*
X81506190Y-126254048D02*
X81006190Y-126254048D01*
X81506190Y-126015953D02*
X81006190Y-126015953D01*
X81506190Y-125730239D01*
X81006190Y-125730239D01*
X81482381Y-125515953D02*
X81506190Y-125444524D01*
X81506190Y-125325477D01*
X81482381Y-125277858D01*
X81458571Y-125254048D01*
X81410952Y-125230239D01*
X81363333Y-125230239D01*
X81315714Y-125254048D01*
X81291905Y-125277858D01*
X81268095Y-125325477D01*
X81244286Y-125420715D01*
X81220476Y-125468334D01*
X81196667Y-125492143D01*
X81149048Y-125515953D01*
X81101429Y-125515953D01*
X81053810Y-125492143D01*
X81030000Y-125468334D01*
X81006190Y-125420715D01*
X81006190Y-125301667D01*
X81030000Y-125230239D01*
X81006190Y-125063572D02*
X81506190Y-124944525D01*
X81149048Y-124849287D01*
X81506190Y-124754049D01*
X81006190Y-124635001D01*
X81506190Y-124182620D02*
X81506190Y-124468334D01*
X81506190Y-124325477D02*
X81006190Y-124325477D01*
X81077619Y-124373096D01*
X81125238Y-124420715D01*
X81149048Y-124468334D01*
M02*
