M48
;DRILL file {KiCad 4.0.7} date 05/06/18 18:03:11
;FORMAT={-:-/ absolute / metric / decimal}
FMAT,2
METRIC,TZ
T1C0.400
T2C0.900
T3C1.000
T4C1.500
T5C2.000
T6C2.000
%
G90
G05
M71
T1
X61.595Y-127.635
X61.595Y-151.765
X62.23Y-123.19
X62.23Y-134.62
X62.23Y-147.32
X62.23Y-157.48
X64.77Y-170.815
X69.85Y-165.1
X74.93Y-173.99
X76.835Y-153.035
X76.835Y-154.305
X77.47Y-132.715
X77.47Y-134.366
X77.47Y-135.89
X77.47Y-163.195
X81.915Y-135.89
X82.042Y-132.715
X82.042Y-134.366
X84.455Y-208.28
X85.09Y-166.37
X86.995Y-142.875
X86.995Y-145.415
X88.9Y-120.65
X93.345Y-127.
X95.25Y-142.875
X96.012Y-128.778
X98.425Y-128.778
X98.425Y-166.37
X99.06Y-142.875
X101.6Y-147.955
X103.505Y-166.37
X104.775Y-127.
X106.68Y-122.555
X106.68Y-142.875
X108.712Y-142.621
X110.49Y-137.16
X114.935Y-125.095
X114.935Y-128.905
X116.205Y-145.415
X117.475Y-151.765
X123.825Y-135.255
X123.825Y-146.685
X123.825Y-160.655
X125.095Y-159.385
X127.Y-148.59
X127.Y-157.48
X131.445Y-120.015
X131.445Y-127.635
X132.715Y-133.35
T2
X109.41Y-102.806
X111.95Y-102.806
T3
X68.135Y-57.087
X68.135Y-77.406
X70.635Y-57.087
X70.635Y-77.406
X73.135Y-57.087
X73.135Y-77.406
X83.82Y-117.475
X83.82Y-120.015
X83.82Y-122.555
X83.82Y-125.095
X83.82Y-127.635
X83.82Y-130.175
X83.82Y-138.43
X83.82Y-140.97
X83.82Y-143.51
X83.82Y-146.05
X83.82Y-148.59
X83.82Y-151.13
X83.82Y-156.21
X83.82Y-158.75
X83.82Y-161.29
X83.82Y-163.83
X84.01Y-55.816
X84.01Y-58.356
X84.01Y-60.896
X84.01Y-63.436
X84.01Y-65.977
X84.01Y-68.516
X84.01Y-76.772
X84.01Y-79.311
X84.01Y-81.852
X84.01Y-84.391
X84.01Y-86.931
X84.01Y-89.471
X84.01Y-94.551
X84.01Y-97.091
X84.01Y-99.631
X84.01Y-102.171
X96.71Y-57.087
X96.71Y-77.406
X99.21Y-57.087
X99.21Y-77.406
X101.71Y-57.087
X101.71Y-77.406
X125.285Y-57.087
X125.285Y-77.406
X127.785Y-57.087
X127.785Y-77.406
X130.285Y-57.087
X130.285Y-77.406
X137.16Y-118.11
X137.16Y-120.65
X137.16Y-123.19
X137.16Y-125.73
X137.16Y-128.27
X137.16Y-130.81
X137.16Y-139.7
X137.16Y-142.24
X137.16Y-144.78
X137.16Y-147.32
X137.16Y-149.86
X137.16Y-152.4
X137.35Y-56.451
X137.35Y-58.991
X137.35Y-61.531
X137.35Y-64.072
X137.35Y-66.611
X137.35Y-69.151
X137.35Y-78.041
X137.35Y-80.581
X137.35Y-83.121
X137.35Y-85.661
X137.35Y-88.201
X137.35Y-90.742
T4
X94.068Y-203.743
X94.068Y-208.343
X94.068Y-212.944
X99.568Y-203.743
X99.568Y-208.343
X99.568Y-212.944
X105.068Y-203.743
X105.068Y-208.343
X105.068Y-212.944
T5
X61.826Y-206.755
X61.849Y-190.755
X74.826Y-190.755
X74.826Y-206.755
X123.865Y-169.736
X123.865Y-185.736
X123.865Y-190.755
X123.865Y-206.755
X136.843Y-185.736
X136.843Y-206.755
X136.865Y-169.736
X136.865Y-190.755
T6
X66.236Y-64.087
X66.236Y-84.406
X75.035Y-64.087
X75.035Y-84.406
X94.81Y-64.087
X94.81Y-84.406
X103.611Y-64.087
X103.611Y-84.406
X123.385Y-64.087
X123.385Y-84.406
X132.185Y-64.087
X132.185Y-84.406
T3
X62.58Y-179.34G85X62.58Y-181.34
G05
X64.58Y-185.04G85X66.58Y-185.04
G05
X65.975Y-99.766G85X65.975Y-100.766
G05
X68.58Y-179.34G85X68.58Y-181.34
G05
X70.675Y-99.766G85X70.675Y-100.766
G05
X75.376Y-99.766G85X75.376Y-100.766
G05
X94.55Y-99.766G85X94.55Y-100.766
G05
X99.251Y-99.766G85X99.251Y-100.766
G05
X103.95Y-99.766G85X103.95Y-100.766
G05
X123.125Y-99.766G85X123.125Y-100.766
G05
X127.825Y-99.766G85X127.825Y-100.766
G05
X132.525Y-99.766G85X132.525Y-100.766
G05
T0
M30
