G04 #@! TF.FileFunction,Soldermask,Bot*
%FSLAX46Y46*%
G04 Gerber Fmt 4.6, Leading zero omitted, Abs format (unit mm)*
G04 Created by KiCad (PCBNEW 4.0.7) date 05/06/18 18:03:06*
%MOMM*%
%LPD*%
G01*
G04 APERTURE LIST*
%ADD10C,0.100000*%
%ADD11R,2.100000X2.100000*%
%ADD12O,2.100000X2.100000*%
%ADD13C,2.200000*%
%ADD14C,4.400000*%
%ADD15R,2.200000X2.200000*%
%ADD16O,5.400000X4.400000*%
%ADD17R,3.900000X3.900000*%
%ADD18O,3.900000X3.400000*%
%ADD19O,3.400000X4.400000*%
G04 APERTURE END LIST*
D10*
D11*
X83820000Y-163830000D03*
D12*
X83820000Y-161290000D03*
X83820000Y-158750000D03*
X83820000Y-156210000D03*
D11*
X137160000Y-152400000D03*
D12*
X137160000Y-149860000D03*
X137160000Y-147320000D03*
X137160000Y-144780000D03*
X137160000Y-142240000D03*
X137160000Y-139700000D03*
D13*
X73135500Y-57086500D03*
X70635500Y-57086500D03*
X68135500Y-57086500D03*
D14*
X75035500Y-64086500D03*
X66235500Y-64086500D03*
D13*
X130285500Y-77406500D03*
X127785500Y-77406500D03*
X125285500Y-77406500D03*
D14*
X132185500Y-84406500D03*
X123385500Y-84406500D03*
D15*
X111950500Y-102806500D03*
D13*
X109410500Y-102806500D03*
X101710500Y-77406500D03*
X99210500Y-77406500D03*
X96710500Y-77406500D03*
D14*
X103610500Y-84406500D03*
X94810500Y-84406500D03*
D13*
X73135500Y-77406500D03*
X70635500Y-77406500D03*
X68135500Y-77406500D03*
D14*
X75035500Y-84406500D03*
X66235500Y-84406500D03*
D11*
X137350500Y-78041500D03*
D12*
X137350500Y-80581500D03*
X137350500Y-83121500D03*
X137350500Y-85661500D03*
X137350500Y-88201500D03*
X137350500Y-90741500D03*
D11*
X84010500Y-76771500D03*
D12*
X84010500Y-79311500D03*
X84010500Y-81851500D03*
X84010500Y-84391500D03*
X84010500Y-86931500D03*
X84010500Y-89471500D03*
D16*
X123865500Y-185736500D03*
X123865500Y-169736500D03*
X136865500Y-169736500D03*
X136842500Y-185736500D03*
X123865500Y-206755000D03*
X123865500Y-190755000D03*
X136865500Y-190755000D03*
X136842500Y-206755000D03*
D11*
X83820000Y-138430000D03*
D12*
X83820000Y-140970000D03*
X83820000Y-143510000D03*
X83820000Y-146050000D03*
X83820000Y-148590000D03*
X83820000Y-151130000D03*
D16*
X74826000Y-190755000D03*
X74826000Y-206755000D03*
X61826000Y-206755000D03*
X61849000Y-190755000D03*
D17*
X68580000Y-180340000D03*
X62580000Y-180340000D03*
X65580000Y-185040000D03*
D13*
X130285500Y-57086500D03*
X127785500Y-57086500D03*
X125285500Y-57086500D03*
D14*
X132185500Y-64086500D03*
X123385500Y-64086500D03*
D18*
X105068000Y-212943500D03*
X99568000Y-212943500D03*
X94068000Y-212943500D03*
X105068000Y-208343500D03*
X99568000Y-208343500D03*
X94068000Y-208343500D03*
X105068000Y-203743500D03*
X99568000Y-203743500D03*
X94068000Y-203743500D03*
D19*
X127825500Y-100266500D03*
X132525500Y-100266500D03*
X123125500Y-100266500D03*
X70675500Y-100266500D03*
X75375500Y-100266500D03*
X65975500Y-100266500D03*
X99250500Y-100266500D03*
X103950500Y-100266500D03*
X94550500Y-100266500D03*
D13*
X101710500Y-57086500D03*
X99210500Y-57086500D03*
X96710500Y-57086500D03*
D14*
X103610500Y-64086500D03*
X94810500Y-64086500D03*
D11*
X84010500Y-102171500D03*
D12*
X84010500Y-99631500D03*
X84010500Y-97091500D03*
X84010500Y-94551500D03*
D11*
X137160000Y-118110000D03*
D12*
X137160000Y-120650000D03*
X137160000Y-123190000D03*
X137160000Y-125730000D03*
X137160000Y-128270000D03*
X137160000Y-130810000D03*
D11*
X137350500Y-56451500D03*
D12*
X137350500Y-58991500D03*
X137350500Y-61531500D03*
X137350500Y-64071500D03*
X137350500Y-66611500D03*
X137350500Y-69151500D03*
D11*
X84010500Y-60896500D03*
D12*
X84010500Y-58356500D03*
X84010500Y-55816500D03*
D11*
X84010500Y-63436500D03*
D12*
X84010500Y-65976500D03*
X84010500Y-68516500D03*
D11*
X83820000Y-122555000D03*
D12*
X83820000Y-120015000D03*
X83820000Y-117475000D03*
D11*
X83820000Y-125095000D03*
D12*
X83820000Y-127635000D03*
X83820000Y-130175000D03*
M02*
