G04 #@! TF.FileFunction,Legend,Bot*
%FSLAX46Y46*%
G04 Gerber Fmt 4.6, Leading zero omitted, Abs format (unit mm)*
G04 Created by KiCad (PCBNEW 4.0.7) date 05/06/18 18:03:06*
%MOMM*%
%LPD*%
G01*
G04 APERTURE LIST*
%ADD10C,0.100000*%
%ADD11C,0.300000*%
G04 APERTURE END LIST*
D10*
D11*
X108177143Y-159871430D02*
X105177143Y-159871430D01*
X105177143Y-161014287D01*
X105320000Y-161300001D01*
X105462857Y-161442858D01*
X105748571Y-161585715D01*
X106177143Y-161585715D01*
X106462857Y-161442858D01*
X106605714Y-161300001D01*
X106748571Y-161014287D01*
X106748571Y-159871430D01*
X108177143Y-164300001D02*
X108177143Y-162871430D01*
X105177143Y-162871430D01*
X108177143Y-166728572D02*
X108177143Y-165300001D01*
X105177143Y-165300001D01*
X108034286Y-169871429D02*
X108177143Y-170300000D01*
X108177143Y-171014286D01*
X108034286Y-171300000D01*
X107891429Y-171442857D01*
X107605714Y-171585714D01*
X107320000Y-171585714D01*
X107034286Y-171442857D01*
X106891429Y-171300000D01*
X106748571Y-171014286D01*
X106605714Y-170442857D01*
X106462857Y-170157143D01*
X106320000Y-170014286D01*
X106034286Y-169871429D01*
X105748571Y-169871429D01*
X105462857Y-170014286D01*
X105320000Y-170157143D01*
X105177143Y-170442857D01*
X105177143Y-171157143D01*
X105320000Y-171585714D01*
X106748571Y-173442857D02*
X108177143Y-173442857D01*
X105177143Y-172442857D02*
X106748571Y-173442857D01*
X105177143Y-174442857D01*
X108177143Y-175442858D02*
X105177143Y-175442858D01*
X108177143Y-177157143D01*
X105177143Y-177157143D01*
X105177143Y-178157143D02*
X105177143Y-179871429D01*
X108177143Y-179014286D02*
X105177143Y-179014286D01*
X108177143Y-180871429D02*
X105177143Y-180871429D01*
X106605714Y-180871429D02*
X106605714Y-182585714D01*
X108177143Y-182585714D02*
X105177143Y-182585714D01*
X108177143Y-188014285D02*
X106748571Y-187014285D01*
X108177143Y-186300000D02*
X105177143Y-186300000D01*
X105177143Y-187442857D01*
X105320000Y-187728571D01*
X105462857Y-187871428D01*
X105748571Y-188014285D01*
X106177143Y-188014285D01*
X106462857Y-187871428D01*
X106605714Y-187728571D01*
X106748571Y-187442857D01*
X106748571Y-186300000D01*
X108034286Y-190442857D02*
X108177143Y-190157143D01*
X108177143Y-189585714D01*
X108034286Y-189300000D01*
X107748571Y-189157143D01*
X106605714Y-189157143D01*
X106320000Y-189300000D01*
X106177143Y-189585714D01*
X106177143Y-190157143D01*
X106320000Y-190442857D01*
X106605714Y-190585714D01*
X106891429Y-190585714D01*
X107177143Y-189157143D01*
X106177143Y-191585714D02*
X108177143Y-192300000D01*
X106177143Y-193014286D01*
X106605714Y-195157143D02*
X106748571Y-195585714D01*
X106891429Y-195728571D01*
X107177143Y-195871428D01*
X107605714Y-195871428D01*
X107891429Y-195728571D01*
X108034286Y-195585714D01*
X108177143Y-195300000D01*
X108177143Y-194157143D01*
X105177143Y-194157143D01*
X105177143Y-195157143D01*
X105320000Y-195442857D01*
X105462857Y-195585714D01*
X105748571Y-195728571D01*
X106034286Y-195728571D01*
X106320000Y-195585714D01*
X106462857Y-195442857D01*
X106605714Y-195157143D01*
X106605714Y-194157143D01*
X112691429Y-166157142D02*
X112834286Y-166014285D01*
X112977143Y-165585714D01*
X112977143Y-165300000D01*
X112834286Y-164871428D01*
X112548571Y-164585714D01*
X112262857Y-164442857D01*
X111691429Y-164300000D01*
X111262857Y-164300000D01*
X110691429Y-164442857D01*
X110405714Y-164585714D01*
X110120000Y-164871428D01*
X109977143Y-165300000D01*
X109977143Y-165585714D01*
X110120000Y-166014285D01*
X110262857Y-166157142D01*
X112977143Y-167442857D02*
X109977143Y-167442857D01*
X112977143Y-168728571D02*
X111405714Y-168728571D01*
X111120000Y-168585714D01*
X110977143Y-168300000D01*
X110977143Y-167871428D01*
X111120000Y-167585714D01*
X111262857Y-167442857D01*
X112977143Y-170157143D02*
X110977143Y-170157143D01*
X111548571Y-170157143D02*
X111262857Y-170300000D01*
X111120000Y-170442857D01*
X110977143Y-170728571D01*
X110977143Y-171014286D01*
X112977143Y-172014286D02*
X110977143Y-172014286D01*
X109977143Y-172014286D02*
X110120000Y-171871429D01*
X110262857Y-172014286D01*
X110120000Y-172157143D01*
X109977143Y-172014286D01*
X110262857Y-172014286D01*
X112834286Y-173300000D02*
X112977143Y-173585714D01*
X112977143Y-174157142D01*
X112834286Y-174442857D01*
X112548571Y-174585714D01*
X112405714Y-174585714D01*
X112120000Y-174442857D01*
X111977143Y-174157142D01*
X111977143Y-173728571D01*
X111834286Y-173442857D01*
X111548571Y-173300000D01*
X111405714Y-173300000D01*
X111120000Y-173442857D01*
X110977143Y-173728571D01*
X110977143Y-174157142D01*
X111120000Y-174442857D01*
X112834286Y-178014285D02*
X112977143Y-178442856D01*
X112977143Y-179157142D01*
X112834286Y-179442856D01*
X112691429Y-179585713D01*
X112405714Y-179728570D01*
X112120000Y-179728570D01*
X111834286Y-179585713D01*
X111691429Y-179442856D01*
X111548571Y-179157142D01*
X111405714Y-178585713D01*
X111262857Y-178299999D01*
X111120000Y-178157142D01*
X110834286Y-178014285D01*
X110548571Y-178014285D01*
X110262857Y-178157142D01*
X110120000Y-178299999D01*
X109977143Y-178585713D01*
X109977143Y-179299999D01*
X110120000Y-179728570D01*
X110977143Y-182299999D02*
X112977143Y-182299999D01*
X110977143Y-181014285D02*
X112548571Y-181014285D01*
X112834286Y-181157142D01*
X112977143Y-181442856D01*
X112977143Y-181871428D01*
X112834286Y-182157142D01*
X112691429Y-182299999D01*
X110977143Y-183299999D02*
X110977143Y-184442856D01*
X109977143Y-183728571D02*
X112548571Y-183728571D01*
X112834286Y-183871428D01*
X112977143Y-184157142D01*
X112977143Y-184442856D01*
X110977143Y-185014285D02*
X110977143Y-186157142D01*
X109977143Y-185442857D02*
X112548571Y-185442857D01*
X112834286Y-185585714D01*
X112977143Y-185871428D01*
X112977143Y-186157142D01*
X112977143Y-187585714D02*
X112834286Y-187300000D01*
X112691429Y-187157143D01*
X112405714Y-187014286D01*
X111548571Y-187014286D01*
X111262857Y-187157143D01*
X111120000Y-187300000D01*
X110977143Y-187585714D01*
X110977143Y-188014286D01*
X111120000Y-188300000D01*
X111262857Y-188442857D01*
X111548571Y-188585714D01*
X112405714Y-188585714D01*
X112691429Y-188442857D01*
X112834286Y-188300000D01*
X112977143Y-188014286D01*
X112977143Y-187585714D01*
X110977143Y-189871429D02*
X112977143Y-189871429D01*
X111262857Y-189871429D02*
X111120000Y-190014286D01*
X110977143Y-190300000D01*
X110977143Y-190728572D01*
X111120000Y-191014286D01*
X111405714Y-191157143D01*
X112977143Y-191157143D01*
M02*
