G04 #@! TF.FileFunction,Copper,L2,Bot,Signal*
%FSLAX46Y46*%
G04 Gerber Fmt 4.6, Leading zero omitted, Abs format (unit mm)*
G04 Created by KiCad (PCBNEW 4.0.7) date 05/06/18 18:03:06*
%MOMM*%
%LPD*%
G01*
G04 APERTURE LIST*
%ADD10C,0.100000*%
%ADD11R,1.700000X1.700000*%
%ADD12O,1.700000X1.700000*%
%ADD13C,1.800000*%
%ADD14C,4.000000*%
%ADD15R,1.800000X1.800000*%
%ADD16O,5.000000X4.000000*%
%ADD17R,3.500000X3.500000*%
%ADD18O,3.500000X3.000000*%
%ADD19O,3.000000X4.000000*%
%ADD20C,0.600000*%
%ADD21C,0.750000*%
%ADD22C,0.500000*%
%ADD23C,0.254000*%
G04 APERTURE END LIST*
D10*
D11*
X83820000Y-163830000D03*
D12*
X83820000Y-161290000D03*
X83820000Y-158750000D03*
X83820000Y-156210000D03*
D11*
X137160000Y-152400000D03*
D12*
X137160000Y-149860000D03*
X137160000Y-147320000D03*
X137160000Y-144780000D03*
X137160000Y-142240000D03*
X137160000Y-139700000D03*
D13*
X73135500Y-57086500D03*
X70635500Y-57086500D03*
X68135500Y-57086500D03*
D14*
X75035500Y-64086500D03*
X66235500Y-64086500D03*
D13*
X130285500Y-77406500D03*
X127785500Y-77406500D03*
X125285500Y-77406500D03*
D14*
X132185500Y-84406500D03*
X123385500Y-84406500D03*
D15*
X111950500Y-102806500D03*
D13*
X109410500Y-102806500D03*
X101710500Y-77406500D03*
X99210500Y-77406500D03*
X96710500Y-77406500D03*
D14*
X103610500Y-84406500D03*
X94810500Y-84406500D03*
D13*
X73135500Y-77406500D03*
X70635500Y-77406500D03*
X68135500Y-77406500D03*
D14*
X75035500Y-84406500D03*
X66235500Y-84406500D03*
D11*
X137350500Y-78041500D03*
D12*
X137350500Y-80581500D03*
X137350500Y-83121500D03*
X137350500Y-85661500D03*
X137350500Y-88201500D03*
X137350500Y-90741500D03*
D11*
X84010500Y-76771500D03*
D12*
X84010500Y-79311500D03*
X84010500Y-81851500D03*
X84010500Y-84391500D03*
X84010500Y-86931500D03*
X84010500Y-89471500D03*
D16*
X123865500Y-185736500D03*
X123865500Y-169736500D03*
X136865500Y-169736500D03*
X136842500Y-185736500D03*
X123865500Y-206755000D03*
X123865500Y-190755000D03*
X136865500Y-190755000D03*
X136842500Y-206755000D03*
D11*
X83820000Y-138430000D03*
D12*
X83820000Y-140970000D03*
X83820000Y-143510000D03*
X83820000Y-146050000D03*
X83820000Y-148590000D03*
X83820000Y-151130000D03*
D16*
X74826000Y-190755000D03*
X74826000Y-206755000D03*
X61826000Y-206755000D03*
X61849000Y-190755000D03*
D17*
X68580000Y-180340000D03*
X62580000Y-180340000D03*
X65580000Y-185040000D03*
D13*
X130285500Y-57086500D03*
X127785500Y-57086500D03*
X125285500Y-57086500D03*
D14*
X132185500Y-64086500D03*
X123385500Y-64086500D03*
D18*
X105068000Y-212943500D03*
X99568000Y-212943500D03*
X94068000Y-212943500D03*
X105068000Y-208343500D03*
X99568000Y-208343500D03*
X94068000Y-208343500D03*
X105068000Y-203743500D03*
X99568000Y-203743500D03*
X94068000Y-203743500D03*
D19*
X127825500Y-100266500D03*
X132525500Y-100266500D03*
X123125500Y-100266500D03*
X70675500Y-100266500D03*
X75375500Y-100266500D03*
X65975500Y-100266500D03*
X99250500Y-100266500D03*
X103950500Y-100266500D03*
X94550500Y-100266500D03*
D13*
X101710500Y-57086500D03*
X99210500Y-57086500D03*
X96710500Y-57086500D03*
D14*
X103610500Y-64086500D03*
X94810500Y-64086500D03*
D11*
X84010500Y-102171500D03*
D12*
X84010500Y-99631500D03*
X84010500Y-97091500D03*
X84010500Y-94551500D03*
D11*
X137160000Y-118110000D03*
D12*
X137160000Y-120650000D03*
X137160000Y-123190000D03*
X137160000Y-125730000D03*
X137160000Y-128270000D03*
X137160000Y-130810000D03*
D11*
X137350500Y-56451500D03*
D12*
X137350500Y-58991500D03*
X137350500Y-61531500D03*
X137350500Y-64071500D03*
X137350500Y-66611500D03*
X137350500Y-69151500D03*
D11*
X84010500Y-60896500D03*
D12*
X84010500Y-58356500D03*
X84010500Y-55816500D03*
D11*
X84010500Y-63436500D03*
D12*
X84010500Y-65976500D03*
X84010500Y-68516500D03*
D11*
X83820000Y-122555000D03*
D12*
X83820000Y-120015000D03*
X83820000Y-117475000D03*
D11*
X83820000Y-125095000D03*
D12*
X83820000Y-127635000D03*
X83820000Y-130175000D03*
D20*
X117475000Y-151765000D03*
X110490000Y-137160000D03*
X101600000Y-147955000D03*
X123825000Y-146685000D03*
X123825000Y-135255000D03*
X131445000Y-127635000D03*
X104775000Y-127000000D03*
X86995000Y-142875000D03*
X86995000Y-145415000D03*
X74930000Y-173990000D03*
X114935000Y-128905000D03*
X114935000Y-125095000D03*
X131445000Y-120015000D03*
X132715000Y-133350000D03*
X106680000Y-142875000D03*
X93345000Y-127000000D03*
X106680000Y-122555000D03*
X88900000Y-120650000D03*
X99060000Y-142875000D03*
X76835000Y-154305000D03*
X77470000Y-132715000D03*
X82042000Y-132715000D03*
X82042000Y-134366000D03*
X116205000Y-145415000D03*
X108712000Y-142621000D03*
X77470000Y-134366000D03*
X81915000Y-135890000D03*
X96012000Y-128778000D03*
X98425000Y-128778000D03*
X127000000Y-148590000D03*
X125095000Y-159385000D03*
X123825000Y-160655000D03*
X85090000Y-166370000D03*
X77470000Y-163195000D03*
X98425000Y-166370000D03*
X103505000Y-166370000D03*
X127000000Y-157480000D03*
X77470000Y-135890000D03*
X84455000Y-208280000D03*
X95250000Y-142875000D03*
X76835000Y-153035000D03*
X64770000Y-170815000D03*
X62230000Y-147320000D03*
X62230000Y-123190000D03*
X61595000Y-127635000D03*
X62230000Y-134620000D03*
X61595000Y-151765000D03*
X69850000Y-165100000D03*
X62230000Y-157480000D03*
D21*
X76835000Y-154305000D02*
X95250000Y-154305000D01*
X97790000Y-151765000D02*
X97790000Y-149860000D01*
X95250000Y-154305000D02*
X97790000Y-151765000D01*
X97790000Y-149860000D02*
X97790000Y-144145000D01*
X97790000Y-144145000D02*
X99060000Y-142875000D01*
X82042000Y-132715000D02*
X77470000Y-132715000D01*
X114427000Y-143002000D02*
X116205000Y-145415000D01*
X108712000Y-142621000D02*
X109093000Y-143002000D01*
X109093000Y-143002000D02*
X114427000Y-143002000D01*
X77470000Y-134366000D02*
X82042000Y-134366000D01*
X96012000Y-128778000D02*
X98425000Y-128778000D01*
X127000000Y-157480000D02*
X127000000Y-148590000D01*
X77470000Y-163195000D02*
X80645000Y-166370000D01*
X80645000Y-166370000D02*
X85090000Y-166370000D01*
X98425000Y-166370000D02*
X103505000Y-166370000D01*
X123825000Y-160655000D02*
X125095000Y-159385000D01*
X77470000Y-135890000D02*
X81915000Y-135890000D01*
X84518500Y-208343500D02*
X94068000Y-208343500D01*
D22*
X84455000Y-208280000D02*
X84518500Y-208343500D01*
D21*
X95250000Y-142875000D02*
X96520000Y-144145000D01*
X96520000Y-151130000D02*
X95885000Y-151765000D01*
X96520000Y-144145000D02*
X96520000Y-151130000D01*
X94615000Y-153035000D02*
X95885000Y-151765000D01*
X76835000Y-153035000D02*
X94615000Y-153035000D01*
D23*
G36*
X134100500Y-114300000D02*
X134154546Y-114571705D01*
X134308454Y-114802046D01*
X134538795Y-114955954D01*
X134810500Y-115010000D01*
X140133000Y-115010000D01*
X140133000Y-209983000D01*
X134810500Y-209983000D01*
X134538795Y-210037046D01*
X134308454Y-210190954D01*
X134154546Y-210421295D01*
X134100500Y-210693000D01*
X134100500Y-216587000D01*
X64464000Y-216587000D01*
X64464000Y-212943500D01*
X91636275Y-212943500D01*
X91798792Y-213760529D01*
X92261602Y-214453173D01*
X92954246Y-214915983D01*
X93771275Y-215078500D01*
X94364725Y-215078500D01*
X95181754Y-214915983D01*
X95874398Y-214453173D01*
X96337208Y-213760529D01*
X96499725Y-212943500D01*
X97136275Y-212943500D01*
X97298792Y-213760529D01*
X97761602Y-214453173D01*
X98454246Y-214915983D01*
X99271275Y-215078500D01*
X99864725Y-215078500D01*
X100681754Y-214915983D01*
X101374398Y-214453173D01*
X101837208Y-213760529D01*
X101999725Y-212943500D01*
X102636275Y-212943500D01*
X102798792Y-213760529D01*
X103261602Y-214453173D01*
X103954246Y-214915983D01*
X104771275Y-215078500D01*
X105364725Y-215078500D01*
X106181754Y-214915983D01*
X106874398Y-214453173D01*
X107337208Y-213760529D01*
X107499725Y-212943500D01*
X107337208Y-212126471D01*
X106874398Y-211433827D01*
X106181754Y-210971017D01*
X105364725Y-210808500D01*
X104771275Y-210808500D01*
X103954246Y-210971017D01*
X103261602Y-211433827D01*
X102798792Y-212126471D01*
X102636275Y-212943500D01*
X101999725Y-212943500D01*
X101837208Y-212126471D01*
X101374398Y-211433827D01*
X100681754Y-210971017D01*
X99864725Y-210808500D01*
X99271275Y-210808500D01*
X98454246Y-210971017D01*
X97761602Y-211433827D01*
X97298792Y-212126471D01*
X97136275Y-212943500D01*
X96499725Y-212943500D01*
X96337208Y-212126471D01*
X95874398Y-211433827D01*
X95181754Y-210971017D01*
X94364725Y-210808500D01*
X93771275Y-210808500D01*
X92954246Y-210971017D01*
X92261602Y-211433827D01*
X91798792Y-212126471D01*
X91636275Y-212943500D01*
X64464000Y-212943500D01*
X64464000Y-211264500D01*
X64409954Y-210992795D01*
X64256046Y-210762454D01*
X64025705Y-210608546D01*
X63754000Y-210554500D01*
X58431965Y-210554500D01*
X58434101Y-207292162D01*
X58746333Y-207292162D01*
X58842976Y-207646038D01*
X59372971Y-208528424D01*
X60200296Y-209140822D01*
X61199000Y-209390000D01*
X61699000Y-209390000D01*
X61699000Y-206882000D01*
X61953000Y-206882000D01*
X61953000Y-209390000D01*
X62453000Y-209390000D01*
X63451704Y-209140822D01*
X64279029Y-208528424D01*
X64809024Y-207646038D01*
X64905667Y-207292162D01*
X64798991Y-206882000D01*
X61953000Y-206882000D01*
X61699000Y-206882000D01*
X58853009Y-206882000D01*
X58746333Y-207292162D01*
X58434101Y-207292162D01*
X58434452Y-206755000D01*
X71629582Y-206755000D01*
X71830159Y-207763371D01*
X72401356Y-208618226D01*
X73256211Y-209189423D01*
X74264582Y-209390000D01*
X75387418Y-209390000D01*
X76395789Y-209189423D01*
X77250644Y-208618226D01*
X77434210Y-208343500D01*
X83508500Y-208343500D01*
X83519894Y-208400782D01*
X83519838Y-208465167D01*
X83544642Y-208525198D01*
X83585382Y-208730010D01*
X83804322Y-209057678D01*
X84131990Y-209276618D01*
X84518500Y-209353500D01*
X91927731Y-209353500D01*
X92261602Y-209853173D01*
X92954246Y-210315983D01*
X93771275Y-210478500D01*
X94364725Y-210478500D01*
X95181754Y-210315983D01*
X95874398Y-209853173D01*
X96337208Y-209160529D01*
X96499725Y-208343500D01*
X97136275Y-208343500D01*
X97298792Y-209160529D01*
X97761602Y-209853173D01*
X98454246Y-210315983D01*
X99271275Y-210478500D01*
X99864725Y-210478500D01*
X100681754Y-210315983D01*
X101374398Y-209853173D01*
X101837208Y-209160529D01*
X101999725Y-208343500D01*
X102636275Y-208343500D01*
X102798792Y-209160529D01*
X103261602Y-209853173D01*
X103954246Y-210315983D01*
X104771275Y-210478500D01*
X105364725Y-210478500D01*
X106181754Y-210315983D01*
X106874398Y-209853173D01*
X107337208Y-209160529D01*
X107499725Y-208343500D01*
X107337208Y-207526471D01*
X107180648Y-207292162D01*
X120785833Y-207292162D01*
X120882476Y-207646038D01*
X121412471Y-208528424D01*
X122239796Y-209140822D01*
X123238500Y-209390000D01*
X123738500Y-209390000D01*
X123738500Y-206882000D01*
X123992500Y-206882000D01*
X123992500Y-209390000D01*
X124492500Y-209390000D01*
X125491204Y-209140822D01*
X126318529Y-208528424D01*
X126848524Y-207646038D01*
X126945167Y-207292162D01*
X126838491Y-206882000D01*
X123992500Y-206882000D01*
X123738500Y-206882000D01*
X120892509Y-206882000D01*
X120785833Y-207292162D01*
X107180648Y-207292162D01*
X106874398Y-206833827D01*
X106756426Y-206755000D01*
X133646082Y-206755000D01*
X133846659Y-207763371D01*
X134417856Y-208618226D01*
X135272711Y-209189423D01*
X136281082Y-209390000D01*
X137403918Y-209390000D01*
X138412289Y-209189423D01*
X139267144Y-208618226D01*
X139838341Y-207763371D01*
X140038918Y-206755000D01*
X139838341Y-205746629D01*
X139267144Y-204891774D01*
X138412289Y-204320577D01*
X137403918Y-204120000D01*
X136281082Y-204120000D01*
X135272711Y-204320577D01*
X134417856Y-204891774D01*
X133846659Y-205746629D01*
X133646082Y-206755000D01*
X106756426Y-206755000D01*
X106181754Y-206371017D01*
X105411671Y-206217838D01*
X120785833Y-206217838D01*
X120892509Y-206628000D01*
X123738500Y-206628000D01*
X123738500Y-204120000D01*
X123992500Y-204120000D01*
X123992500Y-206628000D01*
X126838491Y-206628000D01*
X126945167Y-206217838D01*
X126848524Y-205863962D01*
X126318529Y-204981576D01*
X125491204Y-204369178D01*
X124492500Y-204120000D01*
X123992500Y-204120000D01*
X123738500Y-204120000D01*
X123238500Y-204120000D01*
X122239796Y-204369178D01*
X121412471Y-204981576D01*
X120882476Y-205863962D01*
X120785833Y-206217838D01*
X105411671Y-206217838D01*
X105364725Y-206208500D01*
X104771275Y-206208500D01*
X103954246Y-206371017D01*
X103261602Y-206833827D01*
X102798792Y-207526471D01*
X102636275Y-208343500D01*
X101999725Y-208343500D01*
X101837208Y-207526471D01*
X101374398Y-206833827D01*
X100681754Y-206371017D01*
X99864725Y-206208500D01*
X99271275Y-206208500D01*
X98454246Y-206371017D01*
X97761602Y-206833827D01*
X97298792Y-207526471D01*
X97136275Y-208343500D01*
X96499725Y-208343500D01*
X96337208Y-207526471D01*
X95874398Y-206833827D01*
X95181754Y-206371017D01*
X94364725Y-206208500D01*
X93771275Y-206208500D01*
X92954246Y-206371017D01*
X92261602Y-206833827D01*
X91927731Y-207333500D01*
X84518500Y-207333500D01*
X84460665Y-207345004D01*
X84269833Y-207344838D01*
X83926057Y-207486883D01*
X83662808Y-207749673D01*
X83520162Y-208093201D01*
X83519994Y-208285714D01*
X83508500Y-208343500D01*
X77434210Y-208343500D01*
X77821841Y-207763371D01*
X78022418Y-206755000D01*
X77821841Y-205746629D01*
X77250644Y-204891774D01*
X76395789Y-204320577D01*
X75387418Y-204120000D01*
X74264582Y-204120000D01*
X73256211Y-204320577D01*
X72401356Y-204891774D01*
X71830159Y-205746629D01*
X71629582Y-206755000D01*
X58434452Y-206755000D01*
X58434804Y-206217838D01*
X58746333Y-206217838D01*
X58853009Y-206628000D01*
X61699000Y-206628000D01*
X61699000Y-204120000D01*
X61953000Y-204120000D01*
X61953000Y-206628000D01*
X64798991Y-206628000D01*
X64905667Y-206217838D01*
X64809024Y-205863962D01*
X64279029Y-204981576D01*
X63451704Y-204369178D01*
X62453000Y-204120000D01*
X61953000Y-204120000D01*
X61699000Y-204120000D01*
X61199000Y-204120000D01*
X60200296Y-204369178D01*
X59372971Y-204981576D01*
X58842976Y-205863962D01*
X58746333Y-206217838D01*
X58434804Y-206217838D01*
X58436424Y-203743500D01*
X91636275Y-203743500D01*
X91798792Y-204560529D01*
X92261602Y-205253173D01*
X92954246Y-205715983D01*
X93771275Y-205878500D01*
X94364725Y-205878500D01*
X95181754Y-205715983D01*
X95874398Y-205253173D01*
X96337208Y-204560529D01*
X96499725Y-203743500D01*
X97136275Y-203743500D01*
X97298792Y-204560529D01*
X97761602Y-205253173D01*
X98454246Y-205715983D01*
X99271275Y-205878500D01*
X99864725Y-205878500D01*
X100681754Y-205715983D01*
X101374398Y-205253173D01*
X101837208Y-204560529D01*
X101999725Y-203743500D01*
X102636275Y-203743500D01*
X102798792Y-204560529D01*
X103261602Y-205253173D01*
X103954246Y-205715983D01*
X104771275Y-205878500D01*
X105364725Y-205878500D01*
X106181754Y-205715983D01*
X106874398Y-205253173D01*
X107337208Y-204560529D01*
X107499725Y-203743500D01*
X107337208Y-202926471D01*
X106874398Y-202233827D01*
X106181754Y-201771017D01*
X105364725Y-201608500D01*
X104771275Y-201608500D01*
X103954246Y-201771017D01*
X103261602Y-202233827D01*
X102798792Y-202926471D01*
X102636275Y-203743500D01*
X101999725Y-203743500D01*
X101837208Y-202926471D01*
X101374398Y-202233827D01*
X100681754Y-201771017D01*
X99864725Y-201608500D01*
X99271275Y-201608500D01*
X98454246Y-201771017D01*
X97761602Y-202233827D01*
X97298792Y-202926471D01*
X97136275Y-203743500D01*
X96499725Y-203743500D01*
X96337208Y-202926471D01*
X95874398Y-202233827D01*
X95181754Y-201771017D01*
X94364725Y-201608500D01*
X93771275Y-201608500D01*
X92954246Y-201771017D01*
X92261602Y-202233827D01*
X91798792Y-202926471D01*
X91636275Y-203743500D01*
X58436424Y-203743500D01*
X58444931Y-190755000D01*
X58652582Y-190755000D01*
X58853159Y-191763371D01*
X59424356Y-192618226D01*
X60279211Y-193189423D01*
X61287582Y-193390000D01*
X62410418Y-193390000D01*
X63418789Y-193189423D01*
X64273644Y-192618226D01*
X64844841Y-191763371D01*
X65045418Y-190755000D01*
X71629582Y-190755000D01*
X71830159Y-191763371D01*
X72401356Y-192618226D01*
X73256211Y-193189423D01*
X74264582Y-193390000D01*
X75387418Y-193390000D01*
X76395789Y-193189423D01*
X77250644Y-192618226D01*
X77821841Y-191763371D01*
X78022418Y-190755000D01*
X120669082Y-190755000D01*
X120869659Y-191763371D01*
X121440856Y-192618226D01*
X122295711Y-193189423D01*
X123304082Y-193390000D01*
X124426918Y-193390000D01*
X125435289Y-193189423D01*
X126290144Y-192618226D01*
X126861341Y-191763371D01*
X126955070Y-191292162D01*
X133785833Y-191292162D01*
X133882476Y-191646038D01*
X134412471Y-192528424D01*
X135239796Y-193140822D01*
X136238500Y-193390000D01*
X136738500Y-193390000D01*
X136738500Y-190882000D01*
X136992500Y-190882000D01*
X136992500Y-193390000D01*
X137492500Y-193390000D01*
X138491204Y-193140822D01*
X139318529Y-192528424D01*
X139848524Y-191646038D01*
X139945167Y-191292162D01*
X139838491Y-190882000D01*
X136992500Y-190882000D01*
X136738500Y-190882000D01*
X133892509Y-190882000D01*
X133785833Y-191292162D01*
X126955070Y-191292162D01*
X127061918Y-190755000D01*
X126861341Y-189746629D01*
X126290144Y-188891774D01*
X125435289Y-188320577D01*
X125024275Y-188238821D01*
X125491204Y-188122322D01*
X126318529Y-187509924D01*
X126848524Y-186627538D01*
X126945167Y-186273662D01*
X126838491Y-185863500D01*
X123992500Y-185863500D01*
X123992500Y-185883500D01*
X123738500Y-185883500D01*
X123738500Y-185863500D01*
X120892509Y-185863500D01*
X120785833Y-186273662D01*
X120882476Y-186627538D01*
X121412471Y-187509924D01*
X122239796Y-188122322D01*
X122706725Y-188238821D01*
X122295711Y-188320577D01*
X121440856Y-188891774D01*
X120869659Y-189746629D01*
X120669082Y-190755000D01*
X78022418Y-190755000D01*
X77821841Y-189746629D01*
X77250644Y-188891774D01*
X76395789Y-188320577D01*
X75387418Y-188120000D01*
X74264582Y-188120000D01*
X73256211Y-188320577D01*
X72401356Y-188891774D01*
X71830159Y-189746629D01*
X71629582Y-190755000D01*
X65045418Y-190755000D01*
X64844841Y-189746629D01*
X64273644Y-188891774D01*
X63418789Y-188320577D01*
X62410418Y-188120000D01*
X61287582Y-188120000D01*
X60279211Y-188320577D01*
X59424356Y-188891774D01*
X58853159Y-189746629D01*
X58652582Y-190755000D01*
X58444931Y-190755000D01*
X58452897Y-178590000D01*
X60182560Y-178590000D01*
X60182560Y-182090000D01*
X60226838Y-182325317D01*
X60365910Y-182541441D01*
X60578110Y-182686431D01*
X60830000Y-182737440D01*
X63516045Y-182737440D01*
X63378559Y-182825910D01*
X63233569Y-183038110D01*
X63182560Y-183290000D01*
X63182560Y-186790000D01*
X63226838Y-187025317D01*
X63365910Y-187241441D01*
X63578110Y-187386431D01*
X63830000Y-187437440D01*
X67330000Y-187437440D01*
X67565317Y-187393162D01*
X67781441Y-187254090D01*
X67926431Y-187041890D01*
X67977440Y-186790000D01*
X67977440Y-185736500D01*
X133646082Y-185736500D01*
X133846659Y-186744871D01*
X134417856Y-187599726D01*
X135272711Y-188170923D01*
X135696522Y-188255224D01*
X135239796Y-188369178D01*
X134412471Y-188981576D01*
X133882476Y-189863962D01*
X133785833Y-190217838D01*
X133892509Y-190628000D01*
X136738500Y-190628000D01*
X136738500Y-190608000D01*
X136992500Y-190608000D01*
X136992500Y-190628000D01*
X139838491Y-190628000D01*
X139945167Y-190217838D01*
X139848524Y-189863962D01*
X139318529Y-188981576D01*
X138491204Y-188369178D01*
X138014072Y-188250133D01*
X138412289Y-188170923D01*
X139267144Y-187599726D01*
X139838341Y-186744871D01*
X140038918Y-185736500D01*
X139838341Y-184728129D01*
X139267144Y-183873274D01*
X138412289Y-183302077D01*
X137403918Y-183101500D01*
X136281082Y-183101500D01*
X135272711Y-183302077D01*
X134417856Y-183873274D01*
X133846659Y-184728129D01*
X133646082Y-185736500D01*
X67977440Y-185736500D01*
X67977440Y-185199338D01*
X120785833Y-185199338D01*
X120892509Y-185609500D01*
X123738500Y-185609500D01*
X123738500Y-183101500D01*
X123992500Y-183101500D01*
X123992500Y-185609500D01*
X126838491Y-185609500D01*
X126945167Y-185199338D01*
X126848524Y-184845462D01*
X126318529Y-183963076D01*
X125491204Y-183350678D01*
X124492500Y-183101500D01*
X123992500Y-183101500D01*
X123738500Y-183101500D01*
X123238500Y-183101500D01*
X122239796Y-183350678D01*
X121412471Y-183963076D01*
X120882476Y-184845462D01*
X120785833Y-185199338D01*
X67977440Y-185199338D01*
X67977440Y-183290000D01*
X67933162Y-183054683D01*
X67794090Y-182838559D01*
X67646097Y-182737440D01*
X70330000Y-182737440D01*
X70565317Y-182693162D01*
X70781441Y-182554090D01*
X70926431Y-182341890D01*
X70977440Y-182090000D01*
X70977440Y-178590000D01*
X70933162Y-178354683D01*
X70794090Y-178138559D01*
X70581890Y-177993569D01*
X70330000Y-177942560D01*
X66830000Y-177942560D01*
X66594683Y-177986838D01*
X66378559Y-178125910D01*
X66233569Y-178338110D01*
X66182560Y-178590000D01*
X66182560Y-182090000D01*
X66226838Y-182325317D01*
X66365910Y-182541441D01*
X66513903Y-182642560D01*
X64643955Y-182642560D01*
X64781441Y-182554090D01*
X64926431Y-182341890D01*
X64977440Y-182090000D01*
X64977440Y-178590000D01*
X64933162Y-178354683D01*
X64794090Y-178138559D01*
X64581890Y-177993569D01*
X64330000Y-177942560D01*
X60830000Y-177942560D01*
X60594683Y-177986838D01*
X60378559Y-178125910D01*
X60233569Y-178338110D01*
X60182560Y-178590000D01*
X58452897Y-178590000D01*
X58453332Y-177927000D01*
X71755000Y-177927000D01*
X71804410Y-177916994D01*
X71846035Y-177888553D01*
X71873315Y-177846159D01*
X71882000Y-177800000D01*
X71882000Y-169736500D01*
X120669082Y-169736500D01*
X120869659Y-170744871D01*
X121440856Y-171599726D01*
X122295711Y-172170923D01*
X123304082Y-172371500D01*
X124426918Y-172371500D01*
X125435289Y-172170923D01*
X126290144Y-171599726D01*
X126861341Y-170744871D01*
X126955070Y-170273662D01*
X133785833Y-170273662D01*
X133882476Y-170627538D01*
X134412471Y-171509924D01*
X135239796Y-172122322D01*
X136238500Y-172371500D01*
X136738500Y-172371500D01*
X136738500Y-169863500D01*
X136992500Y-169863500D01*
X136992500Y-172371500D01*
X137492500Y-172371500D01*
X138491204Y-172122322D01*
X139318529Y-171509924D01*
X139848524Y-170627538D01*
X139945167Y-170273662D01*
X139838491Y-169863500D01*
X136992500Y-169863500D01*
X136738500Y-169863500D01*
X133892509Y-169863500D01*
X133785833Y-170273662D01*
X126955070Y-170273662D01*
X127061918Y-169736500D01*
X126955071Y-169199338D01*
X133785833Y-169199338D01*
X133892509Y-169609500D01*
X136738500Y-169609500D01*
X136738500Y-167101500D01*
X136992500Y-167101500D01*
X136992500Y-169609500D01*
X139838491Y-169609500D01*
X139945167Y-169199338D01*
X139848524Y-168845462D01*
X139318529Y-167963076D01*
X138491204Y-167350678D01*
X137492500Y-167101500D01*
X136992500Y-167101500D01*
X136738500Y-167101500D01*
X136238500Y-167101500D01*
X135239796Y-167350678D01*
X134412471Y-167963076D01*
X133882476Y-168845462D01*
X133785833Y-169199338D01*
X126955071Y-169199338D01*
X126861341Y-168728129D01*
X126290144Y-167873274D01*
X125435289Y-167302077D01*
X124426918Y-167101500D01*
X123304082Y-167101500D01*
X122295711Y-167302077D01*
X121440856Y-167873274D01*
X120869659Y-168728129D01*
X120669082Y-169736500D01*
X71882000Y-169736500D01*
X71882000Y-163195000D01*
X76460000Y-163195000D01*
X76536882Y-163581510D01*
X76755822Y-163909178D01*
X79930822Y-167084178D01*
X80258490Y-167303118D01*
X80645000Y-167380000D01*
X85090000Y-167380000D01*
X85476510Y-167303118D01*
X85804178Y-167084178D01*
X86023118Y-166756510D01*
X86100000Y-166370000D01*
X97415000Y-166370000D01*
X97491882Y-166756510D01*
X97710822Y-167084178D01*
X98038490Y-167303118D01*
X98425000Y-167380000D01*
X103505000Y-167380000D01*
X103891510Y-167303118D01*
X104219178Y-167084178D01*
X104438118Y-166756510D01*
X104515000Y-166370000D01*
X104438118Y-165983490D01*
X104219178Y-165655822D01*
X103891510Y-165436882D01*
X103505000Y-165360000D01*
X98425000Y-165360000D01*
X98038490Y-165436882D01*
X97710822Y-165655822D01*
X97491882Y-165983490D01*
X97415000Y-166370000D01*
X86100000Y-166370000D01*
X86023118Y-165983490D01*
X85804178Y-165655822D01*
X85476510Y-165436882D01*
X85090000Y-165360000D01*
X81063356Y-165360000D01*
X78683356Y-162980000D01*
X82322560Y-162980000D01*
X82322560Y-164680000D01*
X82366838Y-164915317D01*
X82505910Y-165131441D01*
X82718110Y-165276431D01*
X82970000Y-165327440D01*
X84670000Y-165327440D01*
X84905317Y-165283162D01*
X85121441Y-165144090D01*
X85266431Y-164931890D01*
X85317440Y-164680000D01*
X85317440Y-162980000D01*
X85273162Y-162744683D01*
X85134090Y-162528559D01*
X84921890Y-162383569D01*
X84813893Y-162361699D01*
X85091645Y-162056924D01*
X85261476Y-161646890D01*
X85140155Y-161417000D01*
X83947000Y-161417000D01*
X83947000Y-161437000D01*
X83693000Y-161437000D01*
X83693000Y-161417000D01*
X82499845Y-161417000D01*
X82378524Y-161646890D01*
X82548355Y-162056924D01*
X82824501Y-162359937D01*
X82734683Y-162376838D01*
X82518559Y-162515910D01*
X82373569Y-162728110D01*
X82322560Y-162980000D01*
X78683356Y-162980000D01*
X78184178Y-162480822D01*
X77856510Y-162261882D01*
X77470000Y-162185000D01*
X77083490Y-162261882D01*
X76755822Y-162480822D01*
X76536882Y-162808490D01*
X76460000Y-163195000D01*
X71882000Y-163195000D01*
X71882000Y-153035000D01*
X75825000Y-153035000D01*
X75901882Y-153421510D01*
X76067917Y-153670000D01*
X75901882Y-153918490D01*
X75825000Y-154305000D01*
X75901882Y-154691510D01*
X76120822Y-155019178D01*
X76448490Y-155238118D01*
X76835000Y-155315000D01*
X82637249Y-155315000D01*
X82418946Y-155641715D01*
X82305907Y-156210000D01*
X82418946Y-156778285D01*
X82740853Y-157260054D01*
X83070026Y-157480000D01*
X82740853Y-157699946D01*
X82418946Y-158181715D01*
X82305907Y-158750000D01*
X82418946Y-159318285D01*
X82740853Y-159800054D01*
X83081553Y-160027702D01*
X82938642Y-160094817D01*
X82548355Y-160523076D01*
X82378524Y-160933110D01*
X82499845Y-161163000D01*
X83693000Y-161163000D01*
X83693000Y-161143000D01*
X83947000Y-161143000D01*
X83947000Y-161163000D01*
X85140155Y-161163000D01*
X85261476Y-160933110D01*
X85146287Y-160655000D01*
X122815000Y-160655000D01*
X122891882Y-161041510D01*
X123110822Y-161369178D01*
X123438490Y-161588118D01*
X123825000Y-161665000D01*
X124211510Y-161588118D01*
X124539178Y-161369178D01*
X125809178Y-160099178D01*
X126028118Y-159771510D01*
X126105000Y-159385000D01*
X126028118Y-158998490D01*
X125809178Y-158670822D01*
X125481510Y-158451882D01*
X125095000Y-158375000D01*
X124708490Y-158451882D01*
X124380822Y-158670822D01*
X123110822Y-159940822D01*
X122891882Y-160268490D01*
X122815000Y-160655000D01*
X85146287Y-160655000D01*
X85091645Y-160523076D01*
X84701358Y-160094817D01*
X84558447Y-160027702D01*
X84899147Y-159800054D01*
X85221054Y-159318285D01*
X85334093Y-158750000D01*
X85221054Y-158181715D01*
X84899147Y-157699946D01*
X84569974Y-157480000D01*
X84899147Y-157260054D01*
X85221054Y-156778285D01*
X85334093Y-156210000D01*
X85221054Y-155641715D01*
X85002751Y-155315000D01*
X95250000Y-155315000D01*
X95636510Y-155238118D01*
X95964178Y-155019178D01*
X98504178Y-152479178D01*
X98723118Y-152151511D01*
X98800000Y-151765000D01*
X98800000Y-148590000D01*
X125990000Y-148590000D01*
X125990000Y-157480000D01*
X126066882Y-157866510D01*
X126285822Y-158194178D01*
X126613490Y-158413118D01*
X127000000Y-158490000D01*
X127386510Y-158413118D01*
X127714178Y-158194178D01*
X127933118Y-157866510D01*
X128010000Y-157480000D01*
X128010000Y-148590000D01*
X127933118Y-148203490D01*
X127714178Y-147875822D01*
X127386510Y-147656882D01*
X127000000Y-147580000D01*
X126613490Y-147656882D01*
X126285822Y-147875822D01*
X126066882Y-148203490D01*
X125990000Y-148590000D01*
X98800000Y-148590000D01*
X98800000Y-144563356D01*
X99774178Y-143589178D01*
X99993118Y-143261510D01*
X100070000Y-142875000D01*
X100019477Y-142621000D01*
X107702000Y-142621000D01*
X107778882Y-143007510D01*
X107997822Y-143335178D01*
X108378822Y-143716178D01*
X108706490Y-143935118D01*
X109093000Y-144012000D01*
X113916640Y-144012000D01*
X115391894Y-146014131D01*
X115683065Y-146279687D01*
X116053697Y-146413603D01*
X116447363Y-146395490D01*
X116804131Y-146228107D01*
X117069687Y-145936935D01*
X117203603Y-145566304D01*
X117185490Y-145172638D01*
X117018107Y-144815869D01*
X116991678Y-144780000D01*
X135645907Y-144780000D01*
X135758946Y-145348285D01*
X136080853Y-145830054D01*
X136410026Y-146050000D01*
X136080853Y-146269946D01*
X135758946Y-146751715D01*
X135645907Y-147320000D01*
X135758946Y-147888285D01*
X136080853Y-148370054D01*
X136410026Y-148590000D01*
X136080853Y-148809946D01*
X135758946Y-149291715D01*
X135645907Y-149860000D01*
X135758946Y-150428285D01*
X136080853Y-150910054D01*
X136122452Y-150937850D01*
X136074683Y-150946838D01*
X135858559Y-151085910D01*
X135713569Y-151298110D01*
X135662560Y-151550000D01*
X135662560Y-153250000D01*
X135706838Y-153485317D01*
X135845910Y-153701441D01*
X136058110Y-153846431D01*
X136310000Y-153897440D01*
X138010000Y-153897440D01*
X138245317Y-153853162D01*
X138461441Y-153714090D01*
X138606431Y-153501890D01*
X138657440Y-153250000D01*
X138657440Y-151550000D01*
X138613162Y-151314683D01*
X138474090Y-151098559D01*
X138261890Y-150953569D01*
X138194459Y-150939914D01*
X138239147Y-150910054D01*
X138561054Y-150428285D01*
X138674093Y-149860000D01*
X138561054Y-149291715D01*
X138239147Y-148809946D01*
X137909974Y-148590000D01*
X138239147Y-148370054D01*
X138561054Y-147888285D01*
X138674093Y-147320000D01*
X138561054Y-146751715D01*
X138239147Y-146269946D01*
X137909974Y-146050000D01*
X138239147Y-145830054D01*
X138561054Y-145348285D01*
X138674093Y-144780000D01*
X138561054Y-144211715D01*
X138239147Y-143729946D01*
X137898447Y-143502298D01*
X138041358Y-143435183D01*
X138431645Y-143006924D01*
X138601476Y-142596890D01*
X138480155Y-142367000D01*
X137287000Y-142367000D01*
X137287000Y-142387000D01*
X137033000Y-142387000D01*
X137033000Y-142367000D01*
X135839845Y-142367000D01*
X135718524Y-142596890D01*
X135888355Y-143006924D01*
X136278642Y-143435183D01*
X136421553Y-143502298D01*
X136080853Y-143729946D01*
X135758946Y-144211715D01*
X135645907Y-144780000D01*
X116991678Y-144780000D01*
X115240106Y-142402869D01*
X115183639Y-142351369D01*
X115141178Y-142287822D01*
X115039387Y-142219807D01*
X114948935Y-142137313D01*
X114877056Y-142111342D01*
X114813510Y-142068882D01*
X114693443Y-142044999D01*
X114578303Y-142003397D01*
X114501957Y-142006910D01*
X114427000Y-141992000D01*
X109511356Y-141992000D01*
X109426178Y-141906822D01*
X109098510Y-141687882D01*
X108712000Y-141611000D01*
X108325490Y-141687882D01*
X107997822Y-141906822D01*
X107778882Y-142234490D01*
X107702000Y-142621000D01*
X100019477Y-142621000D01*
X99993118Y-142488490D01*
X99774178Y-142160822D01*
X99446510Y-141941882D01*
X99060000Y-141865000D01*
X98673490Y-141941882D01*
X98345822Y-142160822D01*
X97155000Y-143351644D01*
X95964178Y-142160822D01*
X95636510Y-141941882D01*
X95250000Y-141865000D01*
X94863490Y-141941882D01*
X94535822Y-142160822D01*
X94316882Y-142488490D01*
X94240000Y-142875000D01*
X94316882Y-143261510D01*
X94535822Y-143589178D01*
X95510000Y-144563356D01*
X95510000Y-150711644D01*
X94196644Y-152025000D01*
X85002751Y-152025000D01*
X85221054Y-151698285D01*
X85334093Y-151130000D01*
X85221054Y-150561715D01*
X84899147Y-150079946D01*
X84569974Y-149860000D01*
X84899147Y-149640054D01*
X85221054Y-149158285D01*
X85334093Y-148590000D01*
X85221054Y-148021715D01*
X84899147Y-147539946D01*
X84569974Y-147320000D01*
X84899147Y-147100054D01*
X85221054Y-146618285D01*
X85334093Y-146050000D01*
X85221054Y-145481715D01*
X84899147Y-144999946D01*
X84569974Y-144780000D01*
X84899147Y-144560054D01*
X85221054Y-144078285D01*
X85334093Y-143510000D01*
X85221054Y-142941715D01*
X84899147Y-142459946D01*
X84569974Y-142240000D01*
X84899147Y-142020054D01*
X85221054Y-141538285D01*
X85334093Y-140970000D01*
X85221054Y-140401715D01*
X84899147Y-139919946D01*
X84857548Y-139892150D01*
X84905317Y-139883162D01*
X85121441Y-139744090D01*
X85151566Y-139700000D01*
X135645907Y-139700000D01*
X135758946Y-140268285D01*
X136080853Y-140750054D01*
X136421553Y-140977702D01*
X136278642Y-141044817D01*
X135888355Y-141473076D01*
X135718524Y-141883110D01*
X135839845Y-142113000D01*
X137033000Y-142113000D01*
X137033000Y-142093000D01*
X137287000Y-142093000D01*
X137287000Y-142113000D01*
X138480155Y-142113000D01*
X138601476Y-141883110D01*
X138431645Y-141473076D01*
X138041358Y-141044817D01*
X137898447Y-140977702D01*
X138239147Y-140750054D01*
X138561054Y-140268285D01*
X138674093Y-139700000D01*
X138561054Y-139131715D01*
X138239147Y-138649946D01*
X137757378Y-138328039D01*
X137189093Y-138215000D01*
X137130907Y-138215000D01*
X136562622Y-138328039D01*
X136080853Y-138649946D01*
X135758946Y-139131715D01*
X135645907Y-139700000D01*
X85151566Y-139700000D01*
X85266431Y-139531890D01*
X85317440Y-139280000D01*
X85317440Y-137580000D01*
X85273162Y-137344683D01*
X85134090Y-137128559D01*
X84921890Y-136983569D01*
X84670000Y-136932560D01*
X82970000Y-136932560D01*
X82734683Y-136976838D01*
X82518559Y-137115910D01*
X82373569Y-137328110D01*
X82322560Y-137580000D01*
X82322560Y-139280000D01*
X82366838Y-139515317D01*
X82505910Y-139731441D01*
X82718110Y-139876431D01*
X82785541Y-139890086D01*
X82740853Y-139919946D01*
X82418946Y-140401715D01*
X82305907Y-140970000D01*
X82418946Y-141538285D01*
X82740853Y-142020054D01*
X83070026Y-142240000D01*
X82740853Y-142459946D01*
X82418946Y-142941715D01*
X82305907Y-143510000D01*
X82418946Y-144078285D01*
X82740853Y-144560054D01*
X83070026Y-144780000D01*
X82740853Y-144999946D01*
X82418946Y-145481715D01*
X82305907Y-146050000D01*
X82418946Y-146618285D01*
X82740853Y-147100054D01*
X83070026Y-147320000D01*
X82740853Y-147539946D01*
X82418946Y-148021715D01*
X82305907Y-148590000D01*
X82418946Y-149158285D01*
X82740853Y-149640054D01*
X83070026Y-149860000D01*
X82740853Y-150079946D01*
X82418946Y-150561715D01*
X82305907Y-151130000D01*
X82418946Y-151698285D01*
X82637249Y-152025000D01*
X76835000Y-152025000D01*
X76448490Y-152101882D01*
X76120822Y-152320822D01*
X75901882Y-152648490D01*
X75825000Y-153035000D01*
X71882000Y-153035000D01*
X71882000Y-132715000D01*
X76460000Y-132715000D01*
X76536882Y-133101510D01*
X76755822Y-133429178D01*
X76922428Y-133540500D01*
X76755822Y-133651822D01*
X76536882Y-133979490D01*
X76460000Y-134366000D01*
X76536882Y-134752510D01*
X76755822Y-135080178D01*
X76827393Y-135128000D01*
X76755822Y-135175822D01*
X76536882Y-135503490D01*
X76460000Y-135890000D01*
X76536882Y-136276510D01*
X76755822Y-136604178D01*
X77083490Y-136823118D01*
X77470000Y-136900000D01*
X81915000Y-136900000D01*
X82301510Y-136823118D01*
X82629178Y-136604178D01*
X82848118Y-136276510D01*
X82925000Y-135890000D01*
X82848118Y-135503490D01*
X82629178Y-135175822D01*
X82621107Y-135170429D01*
X82756178Y-135080178D01*
X82975118Y-134752510D01*
X83052000Y-134366000D01*
X82975118Y-133979490D01*
X82756178Y-133651822D01*
X82589572Y-133540500D01*
X82756178Y-133429178D01*
X82975118Y-133101510D01*
X83052000Y-132715000D01*
X82975118Y-132328490D01*
X82756178Y-132000822D01*
X82428510Y-131781882D01*
X82042000Y-131705000D01*
X77470000Y-131705000D01*
X77083490Y-131781882D01*
X76755822Y-132000822D01*
X76536882Y-132328490D01*
X76460000Y-132715000D01*
X71882000Y-132715000D01*
X71882000Y-117475000D01*
X82305907Y-117475000D01*
X82418946Y-118043285D01*
X82740853Y-118525054D01*
X83070026Y-118745000D01*
X82740853Y-118964946D01*
X82418946Y-119446715D01*
X82305907Y-120015000D01*
X82418946Y-120583285D01*
X82740853Y-121065054D01*
X82782452Y-121092850D01*
X82734683Y-121101838D01*
X82518559Y-121240910D01*
X82373569Y-121453110D01*
X82322560Y-121705000D01*
X82322560Y-123405000D01*
X82366838Y-123640317D01*
X82487015Y-123827077D01*
X82373569Y-123993110D01*
X82322560Y-124245000D01*
X82322560Y-125945000D01*
X82366838Y-126180317D01*
X82505910Y-126396441D01*
X82718110Y-126541431D01*
X82785541Y-126555086D01*
X82740853Y-126584946D01*
X82418946Y-127066715D01*
X82305907Y-127635000D01*
X82418946Y-128203285D01*
X82740853Y-128685054D01*
X83070026Y-128905000D01*
X82740853Y-129124946D01*
X82418946Y-129606715D01*
X82305907Y-130175000D01*
X82418946Y-130743285D01*
X82740853Y-131225054D01*
X83222622Y-131546961D01*
X83790907Y-131660000D01*
X83849093Y-131660000D01*
X84417378Y-131546961D01*
X84899147Y-131225054D01*
X85221054Y-130743285D01*
X85334093Y-130175000D01*
X85221054Y-129606715D01*
X84899147Y-129124946D01*
X84569974Y-128905000D01*
X84760043Y-128778000D01*
X95002000Y-128778000D01*
X95078882Y-129164510D01*
X95297822Y-129492178D01*
X95625490Y-129711118D01*
X96012000Y-129788000D01*
X98425000Y-129788000D01*
X98811510Y-129711118D01*
X99139178Y-129492178D01*
X99358118Y-129164510D01*
X99435000Y-128778000D01*
X99358118Y-128391490D01*
X99139178Y-128063822D01*
X98811510Y-127844882D01*
X98425000Y-127768000D01*
X96012000Y-127768000D01*
X95625490Y-127844882D01*
X95297822Y-128063822D01*
X95078882Y-128391490D01*
X95002000Y-128778000D01*
X84760043Y-128778000D01*
X84899147Y-128685054D01*
X85221054Y-128203285D01*
X85334093Y-127635000D01*
X85221054Y-127066715D01*
X84899147Y-126584946D01*
X84857548Y-126557150D01*
X84905317Y-126548162D01*
X85121441Y-126409090D01*
X85266431Y-126196890D01*
X85317440Y-125945000D01*
X85317440Y-124245000D01*
X85273162Y-124009683D01*
X85152985Y-123822923D01*
X85266431Y-123656890D01*
X85317440Y-123405000D01*
X85317440Y-123190000D01*
X135645907Y-123190000D01*
X135758946Y-123758285D01*
X136080853Y-124240054D01*
X136410026Y-124460000D01*
X136080853Y-124679946D01*
X135758946Y-125161715D01*
X135645907Y-125730000D01*
X135758946Y-126298285D01*
X136080853Y-126780054D01*
X136410026Y-127000000D01*
X136080853Y-127219946D01*
X135758946Y-127701715D01*
X135645907Y-128270000D01*
X135758946Y-128838285D01*
X136080853Y-129320054D01*
X136410026Y-129540000D01*
X136080853Y-129759946D01*
X135758946Y-130241715D01*
X135645907Y-130810000D01*
X135758946Y-131378285D01*
X136080853Y-131860054D01*
X136562622Y-132181961D01*
X137130907Y-132295000D01*
X137189093Y-132295000D01*
X137757378Y-132181961D01*
X138239147Y-131860054D01*
X138561054Y-131378285D01*
X138674093Y-130810000D01*
X138561054Y-130241715D01*
X138239147Y-129759946D01*
X137909974Y-129540000D01*
X138239147Y-129320054D01*
X138561054Y-128838285D01*
X138674093Y-128270000D01*
X138561054Y-127701715D01*
X138239147Y-127219946D01*
X137909974Y-127000000D01*
X138239147Y-126780054D01*
X138561054Y-126298285D01*
X138674093Y-125730000D01*
X138561054Y-125161715D01*
X138239147Y-124679946D01*
X137909974Y-124460000D01*
X138239147Y-124240054D01*
X138561054Y-123758285D01*
X138674093Y-123190000D01*
X138561054Y-122621715D01*
X138239147Y-122139946D01*
X137898447Y-121912298D01*
X138041358Y-121845183D01*
X138431645Y-121416924D01*
X138601476Y-121006890D01*
X138480155Y-120777000D01*
X137287000Y-120777000D01*
X137287000Y-120797000D01*
X137033000Y-120797000D01*
X137033000Y-120777000D01*
X135839845Y-120777000D01*
X135718524Y-121006890D01*
X135888355Y-121416924D01*
X136278642Y-121845183D01*
X136421553Y-121912298D01*
X136080853Y-122139946D01*
X135758946Y-122621715D01*
X135645907Y-123190000D01*
X85317440Y-123190000D01*
X85317440Y-121705000D01*
X85273162Y-121469683D01*
X85134090Y-121253559D01*
X84921890Y-121108569D01*
X84854459Y-121094914D01*
X84899147Y-121065054D01*
X85221054Y-120583285D01*
X85334093Y-120015000D01*
X85221054Y-119446715D01*
X84899147Y-118964946D01*
X84569974Y-118745000D01*
X84899147Y-118525054D01*
X85221054Y-118043285D01*
X85334093Y-117475000D01*
X85291327Y-117260000D01*
X135662560Y-117260000D01*
X135662560Y-118960000D01*
X135706838Y-119195317D01*
X135845910Y-119411441D01*
X136058110Y-119556431D01*
X136166107Y-119578301D01*
X135888355Y-119883076D01*
X135718524Y-120293110D01*
X135839845Y-120523000D01*
X137033000Y-120523000D01*
X137033000Y-120503000D01*
X137287000Y-120503000D01*
X137287000Y-120523000D01*
X138480155Y-120523000D01*
X138601476Y-120293110D01*
X138431645Y-119883076D01*
X138155499Y-119580063D01*
X138245317Y-119563162D01*
X138461441Y-119424090D01*
X138606431Y-119211890D01*
X138657440Y-118960000D01*
X138657440Y-117260000D01*
X138613162Y-117024683D01*
X138474090Y-116808559D01*
X138261890Y-116663569D01*
X138010000Y-116612560D01*
X136310000Y-116612560D01*
X136074683Y-116656838D01*
X135858559Y-116795910D01*
X135713569Y-117008110D01*
X135662560Y-117260000D01*
X85291327Y-117260000D01*
X85221054Y-116906715D01*
X84899147Y-116424946D01*
X84417378Y-116103039D01*
X83849093Y-115990000D01*
X83790907Y-115990000D01*
X83222622Y-116103039D01*
X82740853Y-116424946D01*
X82418946Y-116906715D01*
X82305907Y-117475000D01*
X71882000Y-117475000D01*
X71882000Y-108977500D01*
X134100500Y-108977500D01*
X134100500Y-114300000D01*
X134100500Y-114300000D01*
G37*
X134100500Y-114300000D02*
X134154546Y-114571705D01*
X134308454Y-114802046D01*
X134538795Y-114955954D01*
X134810500Y-115010000D01*
X140133000Y-115010000D01*
X140133000Y-209983000D01*
X134810500Y-209983000D01*
X134538795Y-210037046D01*
X134308454Y-210190954D01*
X134154546Y-210421295D01*
X134100500Y-210693000D01*
X134100500Y-216587000D01*
X64464000Y-216587000D01*
X64464000Y-212943500D01*
X91636275Y-212943500D01*
X91798792Y-213760529D01*
X92261602Y-214453173D01*
X92954246Y-214915983D01*
X93771275Y-215078500D01*
X94364725Y-215078500D01*
X95181754Y-214915983D01*
X95874398Y-214453173D01*
X96337208Y-213760529D01*
X96499725Y-212943500D01*
X97136275Y-212943500D01*
X97298792Y-213760529D01*
X97761602Y-214453173D01*
X98454246Y-214915983D01*
X99271275Y-215078500D01*
X99864725Y-215078500D01*
X100681754Y-214915983D01*
X101374398Y-214453173D01*
X101837208Y-213760529D01*
X101999725Y-212943500D01*
X102636275Y-212943500D01*
X102798792Y-213760529D01*
X103261602Y-214453173D01*
X103954246Y-214915983D01*
X104771275Y-215078500D01*
X105364725Y-215078500D01*
X106181754Y-214915983D01*
X106874398Y-214453173D01*
X107337208Y-213760529D01*
X107499725Y-212943500D01*
X107337208Y-212126471D01*
X106874398Y-211433827D01*
X106181754Y-210971017D01*
X105364725Y-210808500D01*
X104771275Y-210808500D01*
X103954246Y-210971017D01*
X103261602Y-211433827D01*
X102798792Y-212126471D01*
X102636275Y-212943500D01*
X101999725Y-212943500D01*
X101837208Y-212126471D01*
X101374398Y-211433827D01*
X100681754Y-210971017D01*
X99864725Y-210808500D01*
X99271275Y-210808500D01*
X98454246Y-210971017D01*
X97761602Y-211433827D01*
X97298792Y-212126471D01*
X97136275Y-212943500D01*
X96499725Y-212943500D01*
X96337208Y-212126471D01*
X95874398Y-211433827D01*
X95181754Y-210971017D01*
X94364725Y-210808500D01*
X93771275Y-210808500D01*
X92954246Y-210971017D01*
X92261602Y-211433827D01*
X91798792Y-212126471D01*
X91636275Y-212943500D01*
X64464000Y-212943500D01*
X64464000Y-211264500D01*
X64409954Y-210992795D01*
X64256046Y-210762454D01*
X64025705Y-210608546D01*
X63754000Y-210554500D01*
X58431965Y-210554500D01*
X58434101Y-207292162D01*
X58746333Y-207292162D01*
X58842976Y-207646038D01*
X59372971Y-208528424D01*
X60200296Y-209140822D01*
X61199000Y-209390000D01*
X61699000Y-209390000D01*
X61699000Y-206882000D01*
X61953000Y-206882000D01*
X61953000Y-209390000D01*
X62453000Y-209390000D01*
X63451704Y-209140822D01*
X64279029Y-208528424D01*
X64809024Y-207646038D01*
X64905667Y-207292162D01*
X64798991Y-206882000D01*
X61953000Y-206882000D01*
X61699000Y-206882000D01*
X58853009Y-206882000D01*
X58746333Y-207292162D01*
X58434101Y-207292162D01*
X58434452Y-206755000D01*
X71629582Y-206755000D01*
X71830159Y-207763371D01*
X72401356Y-208618226D01*
X73256211Y-209189423D01*
X74264582Y-209390000D01*
X75387418Y-209390000D01*
X76395789Y-209189423D01*
X77250644Y-208618226D01*
X77434210Y-208343500D01*
X83508500Y-208343500D01*
X83519894Y-208400782D01*
X83519838Y-208465167D01*
X83544642Y-208525198D01*
X83585382Y-208730010D01*
X83804322Y-209057678D01*
X84131990Y-209276618D01*
X84518500Y-209353500D01*
X91927731Y-209353500D01*
X92261602Y-209853173D01*
X92954246Y-210315983D01*
X93771275Y-210478500D01*
X94364725Y-210478500D01*
X95181754Y-210315983D01*
X95874398Y-209853173D01*
X96337208Y-209160529D01*
X96499725Y-208343500D01*
X97136275Y-208343500D01*
X97298792Y-209160529D01*
X97761602Y-209853173D01*
X98454246Y-210315983D01*
X99271275Y-210478500D01*
X99864725Y-210478500D01*
X100681754Y-210315983D01*
X101374398Y-209853173D01*
X101837208Y-209160529D01*
X101999725Y-208343500D01*
X102636275Y-208343500D01*
X102798792Y-209160529D01*
X103261602Y-209853173D01*
X103954246Y-210315983D01*
X104771275Y-210478500D01*
X105364725Y-210478500D01*
X106181754Y-210315983D01*
X106874398Y-209853173D01*
X107337208Y-209160529D01*
X107499725Y-208343500D01*
X107337208Y-207526471D01*
X107180648Y-207292162D01*
X120785833Y-207292162D01*
X120882476Y-207646038D01*
X121412471Y-208528424D01*
X122239796Y-209140822D01*
X123238500Y-209390000D01*
X123738500Y-209390000D01*
X123738500Y-206882000D01*
X123992500Y-206882000D01*
X123992500Y-209390000D01*
X124492500Y-209390000D01*
X125491204Y-209140822D01*
X126318529Y-208528424D01*
X126848524Y-207646038D01*
X126945167Y-207292162D01*
X126838491Y-206882000D01*
X123992500Y-206882000D01*
X123738500Y-206882000D01*
X120892509Y-206882000D01*
X120785833Y-207292162D01*
X107180648Y-207292162D01*
X106874398Y-206833827D01*
X106756426Y-206755000D01*
X133646082Y-206755000D01*
X133846659Y-207763371D01*
X134417856Y-208618226D01*
X135272711Y-209189423D01*
X136281082Y-209390000D01*
X137403918Y-209390000D01*
X138412289Y-209189423D01*
X139267144Y-208618226D01*
X139838341Y-207763371D01*
X140038918Y-206755000D01*
X139838341Y-205746629D01*
X139267144Y-204891774D01*
X138412289Y-204320577D01*
X137403918Y-204120000D01*
X136281082Y-204120000D01*
X135272711Y-204320577D01*
X134417856Y-204891774D01*
X133846659Y-205746629D01*
X133646082Y-206755000D01*
X106756426Y-206755000D01*
X106181754Y-206371017D01*
X105411671Y-206217838D01*
X120785833Y-206217838D01*
X120892509Y-206628000D01*
X123738500Y-206628000D01*
X123738500Y-204120000D01*
X123992500Y-204120000D01*
X123992500Y-206628000D01*
X126838491Y-206628000D01*
X126945167Y-206217838D01*
X126848524Y-205863962D01*
X126318529Y-204981576D01*
X125491204Y-204369178D01*
X124492500Y-204120000D01*
X123992500Y-204120000D01*
X123738500Y-204120000D01*
X123238500Y-204120000D01*
X122239796Y-204369178D01*
X121412471Y-204981576D01*
X120882476Y-205863962D01*
X120785833Y-206217838D01*
X105411671Y-206217838D01*
X105364725Y-206208500D01*
X104771275Y-206208500D01*
X103954246Y-206371017D01*
X103261602Y-206833827D01*
X102798792Y-207526471D01*
X102636275Y-208343500D01*
X101999725Y-208343500D01*
X101837208Y-207526471D01*
X101374398Y-206833827D01*
X100681754Y-206371017D01*
X99864725Y-206208500D01*
X99271275Y-206208500D01*
X98454246Y-206371017D01*
X97761602Y-206833827D01*
X97298792Y-207526471D01*
X97136275Y-208343500D01*
X96499725Y-208343500D01*
X96337208Y-207526471D01*
X95874398Y-206833827D01*
X95181754Y-206371017D01*
X94364725Y-206208500D01*
X93771275Y-206208500D01*
X92954246Y-206371017D01*
X92261602Y-206833827D01*
X91927731Y-207333500D01*
X84518500Y-207333500D01*
X84460665Y-207345004D01*
X84269833Y-207344838D01*
X83926057Y-207486883D01*
X83662808Y-207749673D01*
X83520162Y-208093201D01*
X83519994Y-208285714D01*
X83508500Y-208343500D01*
X77434210Y-208343500D01*
X77821841Y-207763371D01*
X78022418Y-206755000D01*
X77821841Y-205746629D01*
X77250644Y-204891774D01*
X76395789Y-204320577D01*
X75387418Y-204120000D01*
X74264582Y-204120000D01*
X73256211Y-204320577D01*
X72401356Y-204891774D01*
X71830159Y-205746629D01*
X71629582Y-206755000D01*
X58434452Y-206755000D01*
X58434804Y-206217838D01*
X58746333Y-206217838D01*
X58853009Y-206628000D01*
X61699000Y-206628000D01*
X61699000Y-204120000D01*
X61953000Y-204120000D01*
X61953000Y-206628000D01*
X64798991Y-206628000D01*
X64905667Y-206217838D01*
X64809024Y-205863962D01*
X64279029Y-204981576D01*
X63451704Y-204369178D01*
X62453000Y-204120000D01*
X61953000Y-204120000D01*
X61699000Y-204120000D01*
X61199000Y-204120000D01*
X60200296Y-204369178D01*
X59372971Y-204981576D01*
X58842976Y-205863962D01*
X58746333Y-206217838D01*
X58434804Y-206217838D01*
X58436424Y-203743500D01*
X91636275Y-203743500D01*
X91798792Y-204560529D01*
X92261602Y-205253173D01*
X92954246Y-205715983D01*
X93771275Y-205878500D01*
X94364725Y-205878500D01*
X95181754Y-205715983D01*
X95874398Y-205253173D01*
X96337208Y-204560529D01*
X96499725Y-203743500D01*
X97136275Y-203743500D01*
X97298792Y-204560529D01*
X97761602Y-205253173D01*
X98454246Y-205715983D01*
X99271275Y-205878500D01*
X99864725Y-205878500D01*
X100681754Y-205715983D01*
X101374398Y-205253173D01*
X101837208Y-204560529D01*
X101999725Y-203743500D01*
X102636275Y-203743500D01*
X102798792Y-204560529D01*
X103261602Y-205253173D01*
X103954246Y-205715983D01*
X104771275Y-205878500D01*
X105364725Y-205878500D01*
X106181754Y-205715983D01*
X106874398Y-205253173D01*
X107337208Y-204560529D01*
X107499725Y-203743500D01*
X107337208Y-202926471D01*
X106874398Y-202233827D01*
X106181754Y-201771017D01*
X105364725Y-201608500D01*
X104771275Y-201608500D01*
X103954246Y-201771017D01*
X103261602Y-202233827D01*
X102798792Y-202926471D01*
X102636275Y-203743500D01*
X101999725Y-203743500D01*
X101837208Y-202926471D01*
X101374398Y-202233827D01*
X100681754Y-201771017D01*
X99864725Y-201608500D01*
X99271275Y-201608500D01*
X98454246Y-201771017D01*
X97761602Y-202233827D01*
X97298792Y-202926471D01*
X97136275Y-203743500D01*
X96499725Y-203743500D01*
X96337208Y-202926471D01*
X95874398Y-202233827D01*
X95181754Y-201771017D01*
X94364725Y-201608500D01*
X93771275Y-201608500D01*
X92954246Y-201771017D01*
X92261602Y-202233827D01*
X91798792Y-202926471D01*
X91636275Y-203743500D01*
X58436424Y-203743500D01*
X58444931Y-190755000D01*
X58652582Y-190755000D01*
X58853159Y-191763371D01*
X59424356Y-192618226D01*
X60279211Y-193189423D01*
X61287582Y-193390000D01*
X62410418Y-193390000D01*
X63418789Y-193189423D01*
X64273644Y-192618226D01*
X64844841Y-191763371D01*
X65045418Y-190755000D01*
X71629582Y-190755000D01*
X71830159Y-191763371D01*
X72401356Y-192618226D01*
X73256211Y-193189423D01*
X74264582Y-193390000D01*
X75387418Y-193390000D01*
X76395789Y-193189423D01*
X77250644Y-192618226D01*
X77821841Y-191763371D01*
X78022418Y-190755000D01*
X120669082Y-190755000D01*
X120869659Y-191763371D01*
X121440856Y-192618226D01*
X122295711Y-193189423D01*
X123304082Y-193390000D01*
X124426918Y-193390000D01*
X125435289Y-193189423D01*
X126290144Y-192618226D01*
X126861341Y-191763371D01*
X126955070Y-191292162D01*
X133785833Y-191292162D01*
X133882476Y-191646038D01*
X134412471Y-192528424D01*
X135239796Y-193140822D01*
X136238500Y-193390000D01*
X136738500Y-193390000D01*
X136738500Y-190882000D01*
X136992500Y-190882000D01*
X136992500Y-193390000D01*
X137492500Y-193390000D01*
X138491204Y-193140822D01*
X139318529Y-192528424D01*
X139848524Y-191646038D01*
X139945167Y-191292162D01*
X139838491Y-190882000D01*
X136992500Y-190882000D01*
X136738500Y-190882000D01*
X133892509Y-190882000D01*
X133785833Y-191292162D01*
X126955070Y-191292162D01*
X127061918Y-190755000D01*
X126861341Y-189746629D01*
X126290144Y-188891774D01*
X125435289Y-188320577D01*
X125024275Y-188238821D01*
X125491204Y-188122322D01*
X126318529Y-187509924D01*
X126848524Y-186627538D01*
X126945167Y-186273662D01*
X126838491Y-185863500D01*
X123992500Y-185863500D01*
X123992500Y-185883500D01*
X123738500Y-185883500D01*
X123738500Y-185863500D01*
X120892509Y-185863500D01*
X120785833Y-186273662D01*
X120882476Y-186627538D01*
X121412471Y-187509924D01*
X122239796Y-188122322D01*
X122706725Y-188238821D01*
X122295711Y-188320577D01*
X121440856Y-188891774D01*
X120869659Y-189746629D01*
X120669082Y-190755000D01*
X78022418Y-190755000D01*
X77821841Y-189746629D01*
X77250644Y-188891774D01*
X76395789Y-188320577D01*
X75387418Y-188120000D01*
X74264582Y-188120000D01*
X73256211Y-188320577D01*
X72401356Y-188891774D01*
X71830159Y-189746629D01*
X71629582Y-190755000D01*
X65045418Y-190755000D01*
X64844841Y-189746629D01*
X64273644Y-188891774D01*
X63418789Y-188320577D01*
X62410418Y-188120000D01*
X61287582Y-188120000D01*
X60279211Y-188320577D01*
X59424356Y-188891774D01*
X58853159Y-189746629D01*
X58652582Y-190755000D01*
X58444931Y-190755000D01*
X58452897Y-178590000D01*
X60182560Y-178590000D01*
X60182560Y-182090000D01*
X60226838Y-182325317D01*
X60365910Y-182541441D01*
X60578110Y-182686431D01*
X60830000Y-182737440D01*
X63516045Y-182737440D01*
X63378559Y-182825910D01*
X63233569Y-183038110D01*
X63182560Y-183290000D01*
X63182560Y-186790000D01*
X63226838Y-187025317D01*
X63365910Y-187241441D01*
X63578110Y-187386431D01*
X63830000Y-187437440D01*
X67330000Y-187437440D01*
X67565317Y-187393162D01*
X67781441Y-187254090D01*
X67926431Y-187041890D01*
X67977440Y-186790000D01*
X67977440Y-185736500D01*
X133646082Y-185736500D01*
X133846659Y-186744871D01*
X134417856Y-187599726D01*
X135272711Y-188170923D01*
X135696522Y-188255224D01*
X135239796Y-188369178D01*
X134412471Y-188981576D01*
X133882476Y-189863962D01*
X133785833Y-190217838D01*
X133892509Y-190628000D01*
X136738500Y-190628000D01*
X136738500Y-190608000D01*
X136992500Y-190608000D01*
X136992500Y-190628000D01*
X139838491Y-190628000D01*
X139945167Y-190217838D01*
X139848524Y-189863962D01*
X139318529Y-188981576D01*
X138491204Y-188369178D01*
X138014072Y-188250133D01*
X138412289Y-188170923D01*
X139267144Y-187599726D01*
X139838341Y-186744871D01*
X140038918Y-185736500D01*
X139838341Y-184728129D01*
X139267144Y-183873274D01*
X138412289Y-183302077D01*
X137403918Y-183101500D01*
X136281082Y-183101500D01*
X135272711Y-183302077D01*
X134417856Y-183873274D01*
X133846659Y-184728129D01*
X133646082Y-185736500D01*
X67977440Y-185736500D01*
X67977440Y-185199338D01*
X120785833Y-185199338D01*
X120892509Y-185609500D01*
X123738500Y-185609500D01*
X123738500Y-183101500D01*
X123992500Y-183101500D01*
X123992500Y-185609500D01*
X126838491Y-185609500D01*
X126945167Y-185199338D01*
X126848524Y-184845462D01*
X126318529Y-183963076D01*
X125491204Y-183350678D01*
X124492500Y-183101500D01*
X123992500Y-183101500D01*
X123738500Y-183101500D01*
X123238500Y-183101500D01*
X122239796Y-183350678D01*
X121412471Y-183963076D01*
X120882476Y-184845462D01*
X120785833Y-185199338D01*
X67977440Y-185199338D01*
X67977440Y-183290000D01*
X67933162Y-183054683D01*
X67794090Y-182838559D01*
X67646097Y-182737440D01*
X70330000Y-182737440D01*
X70565317Y-182693162D01*
X70781441Y-182554090D01*
X70926431Y-182341890D01*
X70977440Y-182090000D01*
X70977440Y-178590000D01*
X70933162Y-178354683D01*
X70794090Y-178138559D01*
X70581890Y-177993569D01*
X70330000Y-177942560D01*
X66830000Y-177942560D01*
X66594683Y-177986838D01*
X66378559Y-178125910D01*
X66233569Y-178338110D01*
X66182560Y-178590000D01*
X66182560Y-182090000D01*
X66226838Y-182325317D01*
X66365910Y-182541441D01*
X66513903Y-182642560D01*
X64643955Y-182642560D01*
X64781441Y-182554090D01*
X64926431Y-182341890D01*
X64977440Y-182090000D01*
X64977440Y-178590000D01*
X64933162Y-178354683D01*
X64794090Y-178138559D01*
X64581890Y-177993569D01*
X64330000Y-177942560D01*
X60830000Y-177942560D01*
X60594683Y-177986838D01*
X60378559Y-178125910D01*
X60233569Y-178338110D01*
X60182560Y-178590000D01*
X58452897Y-178590000D01*
X58453332Y-177927000D01*
X71755000Y-177927000D01*
X71804410Y-177916994D01*
X71846035Y-177888553D01*
X71873315Y-177846159D01*
X71882000Y-177800000D01*
X71882000Y-169736500D01*
X120669082Y-169736500D01*
X120869659Y-170744871D01*
X121440856Y-171599726D01*
X122295711Y-172170923D01*
X123304082Y-172371500D01*
X124426918Y-172371500D01*
X125435289Y-172170923D01*
X126290144Y-171599726D01*
X126861341Y-170744871D01*
X126955070Y-170273662D01*
X133785833Y-170273662D01*
X133882476Y-170627538D01*
X134412471Y-171509924D01*
X135239796Y-172122322D01*
X136238500Y-172371500D01*
X136738500Y-172371500D01*
X136738500Y-169863500D01*
X136992500Y-169863500D01*
X136992500Y-172371500D01*
X137492500Y-172371500D01*
X138491204Y-172122322D01*
X139318529Y-171509924D01*
X139848524Y-170627538D01*
X139945167Y-170273662D01*
X139838491Y-169863500D01*
X136992500Y-169863500D01*
X136738500Y-169863500D01*
X133892509Y-169863500D01*
X133785833Y-170273662D01*
X126955070Y-170273662D01*
X127061918Y-169736500D01*
X126955071Y-169199338D01*
X133785833Y-169199338D01*
X133892509Y-169609500D01*
X136738500Y-169609500D01*
X136738500Y-167101500D01*
X136992500Y-167101500D01*
X136992500Y-169609500D01*
X139838491Y-169609500D01*
X139945167Y-169199338D01*
X139848524Y-168845462D01*
X139318529Y-167963076D01*
X138491204Y-167350678D01*
X137492500Y-167101500D01*
X136992500Y-167101500D01*
X136738500Y-167101500D01*
X136238500Y-167101500D01*
X135239796Y-167350678D01*
X134412471Y-167963076D01*
X133882476Y-168845462D01*
X133785833Y-169199338D01*
X126955071Y-169199338D01*
X126861341Y-168728129D01*
X126290144Y-167873274D01*
X125435289Y-167302077D01*
X124426918Y-167101500D01*
X123304082Y-167101500D01*
X122295711Y-167302077D01*
X121440856Y-167873274D01*
X120869659Y-168728129D01*
X120669082Y-169736500D01*
X71882000Y-169736500D01*
X71882000Y-163195000D01*
X76460000Y-163195000D01*
X76536882Y-163581510D01*
X76755822Y-163909178D01*
X79930822Y-167084178D01*
X80258490Y-167303118D01*
X80645000Y-167380000D01*
X85090000Y-167380000D01*
X85476510Y-167303118D01*
X85804178Y-167084178D01*
X86023118Y-166756510D01*
X86100000Y-166370000D01*
X97415000Y-166370000D01*
X97491882Y-166756510D01*
X97710822Y-167084178D01*
X98038490Y-167303118D01*
X98425000Y-167380000D01*
X103505000Y-167380000D01*
X103891510Y-167303118D01*
X104219178Y-167084178D01*
X104438118Y-166756510D01*
X104515000Y-166370000D01*
X104438118Y-165983490D01*
X104219178Y-165655822D01*
X103891510Y-165436882D01*
X103505000Y-165360000D01*
X98425000Y-165360000D01*
X98038490Y-165436882D01*
X97710822Y-165655822D01*
X97491882Y-165983490D01*
X97415000Y-166370000D01*
X86100000Y-166370000D01*
X86023118Y-165983490D01*
X85804178Y-165655822D01*
X85476510Y-165436882D01*
X85090000Y-165360000D01*
X81063356Y-165360000D01*
X78683356Y-162980000D01*
X82322560Y-162980000D01*
X82322560Y-164680000D01*
X82366838Y-164915317D01*
X82505910Y-165131441D01*
X82718110Y-165276431D01*
X82970000Y-165327440D01*
X84670000Y-165327440D01*
X84905317Y-165283162D01*
X85121441Y-165144090D01*
X85266431Y-164931890D01*
X85317440Y-164680000D01*
X85317440Y-162980000D01*
X85273162Y-162744683D01*
X85134090Y-162528559D01*
X84921890Y-162383569D01*
X84813893Y-162361699D01*
X85091645Y-162056924D01*
X85261476Y-161646890D01*
X85140155Y-161417000D01*
X83947000Y-161417000D01*
X83947000Y-161437000D01*
X83693000Y-161437000D01*
X83693000Y-161417000D01*
X82499845Y-161417000D01*
X82378524Y-161646890D01*
X82548355Y-162056924D01*
X82824501Y-162359937D01*
X82734683Y-162376838D01*
X82518559Y-162515910D01*
X82373569Y-162728110D01*
X82322560Y-162980000D01*
X78683356Y-162980000D01*
X78184178Y-162480822D01*
X77856510Y-162261882D01*
X77470000Y-162185000D01*
X77083490Y-162261882D01*
X76755822Y-162480822D01*
X76536882Y-162808490D01*
X76460000Y-163195000D01*
X71882000Y-163195000D01*
X71882000Y-153035000D01*
X75825000Y-153035000D01*
X75901882Y-153421510D01*
X76067917Y-153670000D01*
X75901882Y-153918490D01*
X75825000Y-154305000D01*
X75901882Y-154691510D01*
X76120822Y-155019178D01*
X76448490Y-155238118D01*
X76835000Y-155315000D01*
X82637249Y-155315000D01*
X82418946Y-155641715D01*
X82305907Y-156210000D01*
X82418946Y-156778285D01*
X82740853Y-157260054D01*
X83070026Y-157480000D01*
X82740853Y-157699946D01*
X82418946Y-158181715D01*
X82305907Y-158750000D01*
X82418946Y-159318285D01*
X82740853Y-159800054D01*
X83081553Y-160027702D01*
X82938642Y-160094817D01*
X82548355Y-160523076D01*
X82378524Y-160933110D01*
X82499845Y-161163000D01*
X83693000Y-161163000D01*
X83693000Y-161143000D01*
X83947000Y-161143000D01*
X83947000Y-161163000D01*
X85140155Y-161163000D01*
X85261476Y-160933110D01*
X85146287Y-160655000D01*
X122815000Y-160655000D01*
X122891882Y-161041510D01*
X123110822Y-161369178D01*
X123438490Y-161588118D01*
X123825000Y-161665000D01*
X124211510Y-161588118D01*
X124539178Y-161369178D01*
X125809178Y-160099178D01*
X126028118Y-159771510D01*
X126105000Y-159385000D01*
X126028118Y-158998490D01*
X125809178Y-158670822D01*
X125481510Y-158451882D01*
X125095000Y-158375000D01*
X124708490Y-158451882D01*
X124380822Y-158670822D01*
X123110822Y-159940822D01*
X122891882Y-160268490D01*
X122815000Y-160655000D01*
X85146287Y-160655000D01*
X85091645Y-160523076D01*
X84701358Y-160094817D01*
X84558447Y-160027702D01*
X84899147Y-159800054D01*
X85221054Y-159318285D01*
X85334093Y-158750000D01*
X85221054Y-158181715D01*
X84899147Y-157699946D01*
X84569974Y-157480000D01*
X84899147Y-157260054D01*
X85221054Y-156778285D01*
X85334093Y-156210000D01*
X85221054Y-155641715D01*
X85002751Y-155315000D01*
X95250000Y-155315000D01*
X95636510Y-155238118D01*
X95964178Y-155019178D01*
X98504178Y-152479178D01*
X98723118Y-152151511D01*
X98800000Y-151765000D01*
X98800000Y-148590000D01*
X125990000Y-148590000D01*
X125990000Y-157480000D01*
X126066882Y-157866510D01*
X126285822Y-158194178D01*
X126613490Y-158413118D01*
X127000000Y-158490000D01*
X127386510Y-158413118D01*
X127714178Y-158194178D01*
X127933118Y-157866510D01*
X128010000Y-157480000D01*
X128010000Y-148590000D01*
X127933118Y-148203490D01*
X127714178Y-147875822D01*
X127386510Y-147656882D01*
X127000000Y-147580000D01*
X126613490Y-147656882D01*
X126285822Y-147875822D01*
X126066882Y-148203490D01*
X125990000Y-148590000D01*
X98800000Y-148590000D01*
X98800000Y-144563356D01*
X99774178Y-143589178D01*
X99993118Y-143261510D01*
X100070000Y-142875000D01*
X100019477Y-142621000D01*
X107702000Y-142621000D01*
X107778882Y-143007510D01*
X107997822Y-143335178D01*
X108378822Y-143716178D01*
X108706490Y-143935118D01*
X109093000Y-144012000D01*
X113916640Y-144012000D01*
X115391894Y-146014131D01*
X115683065Y-146279687D01*
X116053697Y-146413603D01*
X116447363Y-146395490D01*
X116804131Y-146228107D01*
X117069687Y-145936935D01*
X117203603Y-145566304D01*
X117185490Y-145172638D01*
X117018107Y-144815869D01*
X116991678Y-144780000D01*
X135645907Y-144780000D01*
X135758946Y-145348285D01*
X136080853Y-145830054D01*
X136410026Y-146050000D01*
X136080853Y-146269946D01*
X135758946Y-146751715D01*
X135645907Y-147320000D01*
X135758946Y-147888285D01*
X136080853Y-148370054D01*
X136410026Y-148590000D01*
X136080853Y-148809946D01*
X135758946Y-149291715D01*
X135645907Y-149860000D01*
X135758946Y-150428285D01*
X136080853Y-150910054D01*
X136122452Y-150937850D01*
X136074683Y-150946838D01*
X135858559Y-151085910D01*
X135713569Y-151298110D01*
X135662560Y-151550000D01*
X135662560Y-153250000D01*
X135706838Y-153485317D01*
X135845910Y-153701441D01*
X136058110Y-153846431D01*
X136310000Y-153897440D01*
X138010000Y-153897440D01*
X138245317Y-153853162D01*
X138461441Y-153714090D01*
X138606431Y-153501890D01*
X138657440Y-153250000D01*
X138657440Y-151550000D01*
X138613162Y-151314683D01*
X138474090Y-151098559D01*
X138261890Y-150953569D01*
X138194459Y-150939914D01*
X138239147Y-150910054D01*
X138561054Y-150428285D01*
X138674093Y-149860000D01*
X138561054Y-149291715D01*
X138239147Y-148809946D01*
X137909974Y-148590000D01*
X138239147Y-148370054D01*
X138561054Y-147888285D01*
X138674093Y-147320000D01*
X138561054Y-146751715D01*
X138239147Y-146269946D01*
X137909974Y-146050000D01*
X138239147Y-145830054D01*
X138561054Y-145348285D01*
X138674093Y-144780000D01*
X138561054Y-144211715D01*
X138239147Y-143729946D01*
X137898447Y-143502298D01*
X138041358Y-143435183D01*
X138431645Y-143006924D01*
X138601476Y-142596890D01*
X138480155Y-142367000D01*
X137287000Y-142367000D01*
X137287000Y-142387000D01*
X137033000Y-142387000D01*
X137033000Y-142367000D01*
X135839845Y-142367000D01*
X135718524Y-142596890D01*
X135888355Y-143006924D01*
X136278642Y-143435183D01*
X136421553Y-143502298D01*
X136080853Y-143729946D01*
X135758946Y-144211715D01*
X135645907Y-144780000D01*
X116991678Y-144780000D01*
X115240106Y-142402869D01*
X115183639Y-142351369D01*
X115141178Y-142287822D01*
X115039387Y-142219807D01*
X114948935Y-142137313D01*
X114877056Y-142111342D01*
X114813510Y-142068882D01*
X114693443Y-142044999D01*
X114578303Y-142003397D01*
X114501957Y-142006910D01*
X114427000Y-141992000D01*
X109511356Y-141992000D01*
X109426178Y-141906822D01*
X109098510Y-141687882D01*
X108712000Y-141611000D01*
X108325490Y-141687882D01*
X107997822Y-141906822D01*
X107778882Y-142234490D01*
X107702000Y-142621000D01*
X100019477Y-142621000D01*
X99993118Y-142488490D01*
X99774178Y-142160822D01*
X99446510Y-141941882D01*
X99060000Y-141865000D01*
X98673490Y-141941882D01*
X98345822Y-142160822D01*
X97155000Y-143351644D01*
X95964178Y-142160822D01*
X95636510Y-141941882D01*
X95250000Y-141865000D01*
X94863490Y-141941882D01*
X94535822Y-142160822D01*
X94316882Y-142488490D01*
X94240000Y-142875000D01*
X94316882Y-143261510D01*
X94535822Y-143589178D01*
X95510000Y-144563356D01*
X95510000Y-150711644D01*
X94196644Y-152025000D01*
X85002751Y-152025000D01*
X85221054Y-151698285D01*
X85334093Y-151130000D01*
X85221054Y-150561715D01*
X84899147Y-150079946D01*
X84569974Y-149860000D01*
X84899147Y-149640054D01*
X85221054Y-149158285D01*
X85334093Y-148590000D01*
X85221054Y-148021715D01*
X84899147Y-147539946D01*
X84569974Y-147320000D01*
X84899147Y-147100054D01*
X85221054Y-146618285D01*
X85334093Y-146050000D01*
X85221054Y-145481715D01*
X84899147Y-144999946D01*
X84569974Y-144780000D01*
X84899147Y-144560054D01*
X85221054Y-144078285D01*
X85334093Y-143510000D01*
X85221054Y-142941715D01*
X84899147Y-142459946D01*
X84569974Y-142240000D01*
X84899147Y-142020054D01*
X85221054Y-141538285D01*
X85334093Y-140970000D01*
X85221054Y-140401715D01*
X84899147Y-139919946D01*
X84857548Y-139892150D01*
X84905317Y-139883162D01*
X85121441Y-139744090D01*
X85151566Y-139700000D01*
X135645907Y-139700000D01*
X135758946Y-140268285D01*
X136080853Y-140750054D01*
X136421553Y-140977702D01*
X136278642Y-141044817D01*
X135888355Y-141473076D01*
X135718524Y-141883110D01*
X135839845Y-142113000D01*
X137033000Y-142113000D01*
X137033000Y-142093000D01*
X137287000Y-142093000D01*
X137287000Y-142113000D01*
X138480155Y-142113000D01*
X138601476Y-141883110D01*
X138431645Y-141473076D01*
X138041358Y-141044817D01*
X137898447Y-140977702D01*
X138239147Y-140750054D01*
X138561054Y-140268285D01*
X138674093Y-139700000D01*
X138561054Y-139131715D01*
X138239147Y-138649946D01*
X137757378Y-138328039D01*
X137189093Y-138215000D01*
X137130907Y-138215000D01*
X136562622Y-138328039D01*
X136080853Y-138649946D01*
X135758946Y-139131715D01*
X135645907Y-139700000D01*
X85151566Y-139700000D01*
X85266431Y-139531890D01*
X85317440Y-139280000D01*
X85317440Y-137580000D01*
X85273162Y-137344683D01*
X85134090Y-137128559D01*
X84921890Y-136983569D01*
X84670000Y-136932560D01*
X82970000Y-136932560D01*
X82734683Y-136976838D01*
X82518559Y-137115910D01*
X82373569Y-137328110D01*
X82322560Y-137580000D01*
X82322560Y-139280000D01*
X82366838Y-139515317D01*
X82505910Y-139731441D01*
X82718110Y-139876431D01*
X82785541Y-139890086D01*
X82740853Y-139919946D01*
X82418946Y-140401715D01*
X82305907Y-140970000D01*
X82418946Y-141538285D01*
X82740853Y-142020054D01*
X83070026Y-142240000D01*
X82740853Y-142459946D01*
X82418946Y-142941715D01*
X82305907Y-143510000D01*
X82418946Y-144078285D01*
X82740853Y-144560054D01*
X83070026Y-144780000D01*
X82740853Y-144999946D01*
X82418946Y-145481715D01*
X82305907Y-146050000D01*
X82418946Y-146618285D01*
X82740853Y-147100054D01*
X83070026Y-147320000D01*
X82740853Y-147539946D01*
X82418946Y-148021715D01*
X82305907Y-148590000D01*
X82418946Y-149158285D01*
X82740853Y-149640054D01*
X83070026Y-149860000D01*
X82740853Y-150079946D01*
X82418946Y-150561715D01*
X82305907Y-151130000D01*
X82418946Y-151698285D01*
X82637249Y-152025000D01*
X76835000Y-152025000D01*
X76448490Y-152101882D01*
X76120822Y-152320822D01*
X75901882Y-152648490D01*
X75825000Y-153035000D01*
X71882000Y-153035000D01*
X71882000Y-132715000D01*
X76460000Y-132715000D01*
X76536882Y-133101510D01*
X76755822Y-133429178D01*
X76922428Y-133540500D01*
X76755822Y-133651822D01*
X76536882Y-133979490D01*
X76460000Y-134366000D01*
X76536882Y-134752510D01*
X76755822Y-135080178D01*
X76827393Y-135128000D01*
X76755822Y-135175822D01*
X76536882Y-135503490D01*
X76460000Y-135890000D01*
X76536882Y-136276510D01*
X76755822Y-136604178D01*
X77083490Y-136823118D01*
X77470000Y-136900000D01*
X81915000Y-136900000D01*
X82301510Y-136823118D01*
X82629178Y-136604178D01*
X82848118Y-136276510D01*
X82925000Y-135890000D01*
X82848118Y-135503490D01*
X82629178Y-135175822D01*
X82621107Y-135170429D01*
X82756178Y-135080178D01*
X82975118Y-134752510D01*
X83052000Y-134366000D01*
X82975118Y-133979490D01*
X82756178Y-133651822D01*
X82589572Y-133540500D01*
X82756178Y-133429178D01*
X82975118Y-133101510D01*
X83052000Y-132715000D01*
X82975118Y-132328490D01*
X82756178Y-132000822D01*
X82428510Y-131781882D01*
X82042000Y-131705000D01*
X77470000Y-131705000D01*
X77083490Y-131781882D01*
X76755822Y-132000822D01*
X76536882Y-132328490D01*
X76460000Y-132715000D01*
X71882000Y-132715000D01*
X71882000Y-117475000D01*
X82305907Y-117475000D01*
X82418946Y-118043285D01*
X82740853Y-118525054D01*
X83070026Y-118745000D01*
X82740853Y-118964946D01*
X82418946Y-119446715D01*
X82305907Y-120015000D01*
X82418946Y-120583285D01*
X82740853Y-121065054D01*
X82782452Y-121092850D01*
X82734683Y-121101838D01*
X82518559Y-121240910D01*
X82373569Y-121453110D01*
X82322560Y-121705000D01*
X82322560Y-123405000D01*
X82366838Y-123640317D01*
X82487015Y-123827077D01*
X82373569Y-123993110D01*
X82322560Y-124245000D01*
X82322560Y-125945000D01*
X82366838Y-126180317D01*
X82505910Y-126396441D01*
X82718110Y-126541431D01*
X82785541Y-126555086D01*
X82740853Y-126584946D01*
X82418946Y-127066715D01*
X82305907Y-127635000D01*
X82418946Y-128203285D01*
X82740853Y-128685054D01*
X83070026Y-128905000D01*
X82740853Y-129124946D01*
X82418946Y-129606715D01*
X82305907Y-130175000D01*
X82418946Y-130743285D01*
X82740853Y-131225054D01*
X83222622Y-131546961D01*
X83790907Y-131660000D01*
X83849093Y-131660000D01*
X84417378Y-131546961D01*
X84899147Y-131225054D01*
X85221054Y-130743285D01*
X85334093Y-130175000D01*
X85221054Y-129606715D01*
X84899147Y-129124946D01*
X84569974Y-128905000D01*
X84760043Y-128778000D01*
X95002000Y-128778000D01*
X95078882Y-129164510D01*
X95297822Y-129492178D01*
X95625490Y-129711118D01*
X96012000Y-129788000D01*
X98425000Y-129788000D01*
X98811510Y-129711118D01*
X99139178Y-129492178D01*
X99358118Y-129164510D01*
X99435000Y-128778000D01*
X99358118Y-128391490D01*
X99139178Y-128063822D01*
X98811510Y-127844882D01*
X98425000Y-127768000D01*
X96012000Y-127768000D01*
X95625490Y-127844882D01*
X95297822Y-128063822D01*
X95078882Y-128391490D01*
X95002000Y-128778000D01*
X84760043Y-128778000D01*
X84899147Y-128685054D01*
X85221054Y-128203285D01*
X85334093Y-127635000D01*
X85221054Y-127066715D01*
X84899147Y-126584946D01*
X84857548Y-126557150D01*
X84905317Y-126548162D01*
X85121441Y-126409090D01*
X85266431Y-126196890D01*
X85317440Y-125945000D01*
X85317440Y-124245000D01*
X85273162Y-124009683D01*
X85152985Y-123822923D01*
X85266431Y-123656890D01*
X85317440Y-123405000D01*
X85317440Y-123190000D01*
X135645907Y-123190000D01*
X135758946Y-123758285D01*
X136080853Y-124240054D01*
X136410026Y-124460000D01*
X136080853Y-124679946D01*
X135758946Y-125161715D01*
X135645907Y-125730000D01*
X135758946Y-126298285D01*
X136080853Y-126780054D01*
X136410026Y-127000000D01*
X136080853Y-127219946D01*
X135758946Y-127701715D01*
X135645907Y-128270000D01*
X135758946Y-128838285D01*
X136080853Y-129320054D01*
X136410026Y-129540000D01*
X136080853Y-129759946D01*
X135758946Y-130241715D01*
X135645907Y-130810000D01*
X135758946Y-131378285D01*
X136080853Y-131860054D01*
X136562622Y-132181961D01*
X137130907Y-132295000D01*
X137189093Y-132295000D01*
X137757378Y-132181961D01*
X138239147Y-131860054D01*
X138561054Y-131378285D01*
X138674093Y-130810000D01*
X138561054Y-130241715D01*
X138239147Y-129759946D01*
X137909974Y-129540000D01*
X138239147Y-129320054D01*
X138561054Y-128838285D01*
X138674093Y-128270000D01*
X138561054Y-127701715D01*
X138239147Y-127219946D01*
X137909974Y-127000000D01*
X138239147Y-126780054D01*
X138561054Y-126298285D01*
X138674093Y-125730000D01*
X138561054Y-125161715D01*
X138239147Y-124679946D01*
X137909974Y-124460000D01*
X138239147Y-124240054D01*
X138561054Y-123758285D01*
X138674093Y-123190000D01*
X138561054Y-122621715D01*
X138239147Y-122139946D01*
X137898447Y-121912298D01*
X138041358Y-121845183D01*
X138431645Y-121416924D01*
X138601476Y-121006890D01*
X138480155Y-120777000D01*
X137287000Y-120777000D01*
X137287000Y-120797000D01*
X137033000Y-120797000D01*
X137033000Y-120777000D01*
X135839845Y-120777000D01*
X135718524Y-121006890D01*
X135888355Y-121416924D01*
X136278642Y-121845183D01*
X136421553Y-121912298D01*
X136080853Y-122139946D01*
X135758946Y-122621715D01*
X135645907Y-123190000D01*
X85317440Y-123190000D01*
X85317440Y-121705000D01*
X85273162Y-121469683D01*
X85134090Y-121253559D01*
X84921890Y-121108569D01*
X84854459Y-121094914D01*
X84899147Y-121065054D01*
X85221054Y-120583285D01*
X85334093Y-120015000D01*
X85221054Y-119446715D01*
X84899147Y-118964946D01*
X84569974Y-118745000D01*
X84899147Y-118525054D01*
X85221054Y-118043285D01*
X85334093Y-117475000D01*
X85291327Y-117260000D01*
X135662560Y-117260000D01*
X135662560Y-118960000D01*
X135706838Y-119195317D01*
X135845910Y-119411441D01*
X136058110Y-119556431D01*
X136166107Y-119578301D01*
X135888355Y-119883076D01*
X135718524Y-120293110D01*
X135839845Y-120523000D01*
X137033000Y-120523000D01*
X137033000Y-120503000D01*
X137287000Y-120503000D01*
X137287000Y-120523000D01*
X138480155Y-120523000D01*
X138601476Y-120293110D01*
X138431645Y-119883076D01*
X138155499Y-119580063D01*
X138245317Y-119563162D01*
X138461441Y-119424090D01*
X138606431Y-119211890D01*
X138657440Y-118960000D01*
X138657440Y-117260000D01*
X138613162Y-117024683D01*
X138474090Y-116808559D01*
X138261890Y-116663569D01*
X138010000Y-116612560D01*
X136310000Y-116612560D01*
X136074683Y-116656838D01*
X135858559Y-116795910D01*
X135713569Y-117008110D01*
X135662560Y-117260000D01*
X85291327Y-117260000D01*
X85221054Y-116906715D01*
X84899147Y-116424946D01*
X84417378Y-116103039D01*
X83849093Y-115990000D01*
X83790907Y-115990000D01*
X83222622Y-116103039D01*
X82740853Y-116424946D01*
X82418946Y-116906715D01*
X82305907Y-117475000D01*
X71882000Y-117475000D01*
X71882000Y-108977500D01*
X134100500Y-108977500D01*
X134100500Y-114300000D01*
G36*
X70993000Y-171958000D02*
X64770000Y-171958000D01*
X64720590Y-171968006D01*
X64678965Y-171996447D01*
X64651685Y-172038841D01*
X64643000Y-172085000D01*
X64643000Y-177038000D01*
X58453914Y-177038000D01*
X58494535Y-115010000D01*
X63817500Y-115010000D01*
X64089205Y-114955954D01*
X64319546Y-114802046D01*
X64473454Y-114571705D01*
X64527500Y-114300000D01*
X64527500Y-108977500D01*
X70993000Y-108977500D01*
X70993000Y-171958000D01*
X70993000Y-171958000D01*
G37*
X70993000Y-171958000D02*
X64770000Y-171958000D01*
X64720590Y-171968006D01*
X64678965Y-171996447D01*
X64651685Y-172038841D01*
X64643000Y-172085000D01*
X64643000Y-177038000D01*
X58453914Y-177038000D01*
X58494535Y-115010000D01*
X63817500Y-115010000D01*
X64089205Y-114955954D01*
X64319546Y-114802046D01*
X64473454Y-114571705D01*
X64527500Y-114300000D01*
X64527500Y-108977500D01*
X70993000Y-108977500D01*
X70993000Y-171958000D01*
M02*
