G04 #@! TF.FileFunction,Copper,L2,Bot,Signal*
%FSLAX46Y46*%
G04 Gerber Fmt 4.6, Leading zero omitted, Abs format (unit mm)*
G04 Created by KiCad (PCBNEW 4.0.7) date 04/04/18 08:51:17*
%MOMM*%
%LPD*%
G01*
G04 APERTURE LIST*
%ADD10C,0.100000*%
%ADD11C,1.800000*%
%ADD12C,4.000000*%
%ADD13R,1.800000X1.800000*%
%ADD14R,1.700000X1.700000*%
%ADD15O,1.700000X1.700000*%
%ADD16O,5.000000X4.000000*%
%ADD17R,3.500000X3.500000*%
%ADD18O,3.500000X3.000000*%
%ADD19O,3.000000X4.000000*%
%ADD20R,1.250000X1.500000*%
%ADD21C,0.600000*%
%ADD22C,0.500000*%
%ADD23C,0.250000*%
%ADD24C,0.254000*%
G04 APERTURE END LIST*
D10*
D11*
X133651000Y-57023000D03*
X131151000Y-57023000D03*
X128651000Y-57023000D03*
D12*
X135551000Y-64023000D03*
X126751000Y-64023000D03*
D13*
X101727000Y-103759000D03*
D11*
X99187000Y-103759000D03*
X72183000Y-57023000D03*
X69683000Y-57023000D03*
X67183000Y-57023000D03*
D12*
X74083000Y-64023000D03*
X65283000Y-64023000D03*
D11*
X102663000Y-78359000D03*
X100163000Y-78359000D03*
X97663000Y-78359000D03*
D12*
X104563000Y-85359000D03*
X95763000Y-85359000D03*
D14*
X60579000Y-58547000D03*
D15*
X60579000Y-61087000D03*
X60579000Y-63627000D03*
X60579000Y-66167000D03*
D14*
X140335000Y-90043000D03*
D15*
X140335000Y-92583000D03*
X140335000Y-95123000D03*
X140335000Y-97663000D03*
X140335000Y-100203000D03*
X140335000Y-102743000D03*
D14*
X60579000Y-76327000D03*
D15*
X60579000Y-78867000D03*
X60579000Y-81407000D03*
X60579000Y-83947000D03*
D14*
X140335000Y-66167000D03*
D15*
X140335000Y-63627000D03*
X140335000Y-61087000D03*
X140335000Y-58547000D03*
D14*
X140335000Y-72263000D03*
D15*
X140335000Y-74803000D03*
X140335000Y-77343000D03*
X140335000Y-79883000D03*
X140335000Y-82423000D03*
X140335000Y-84963000D03*
D16*
X125707000Y-185673000D03*
X125707000Y-169673000D03*
X138707000Y-169673000D03*
X138684000Y-185673000D03*
X125707000Y-206755000D03*
X125707000Y-190755000D03*
X138707000Y-190755000D03*
X138684000Y-206755000D03*
D14*
X60325000Y-120777000D03*
D15*
X60325000Y-123317000D03*
X60325000Y-125857000D03*
X60325000Y-128397000D03*
D14*
X140081000Y-134493000D03*
D15*
X140081000Y-137033000D03*
X140081000Y-139573000D03*
X140081000Y-142113000D03*
X140081000Y-144653000D03*
X140081000Y-147193000D03*
D14*
X60325000Y-138557000D03*
D15*
X60325000Y-141097000D03*
X60325000Y-143637000D03*
X60325000Y-146177000D03*
D14*
X140081000Y-128397000D03*
D15*
X140081000Y-125857000D03*
X140081000Y-123317000D03*
X140081000Y-120777000D03*
D14*
X140081000Y-152273000D03*
D15*
X140081000Y-154813000D03*
X140081000Y-157353000D03*
X140081000Y-159893000D03*
X140081000Y-162433000D03*
X140081000Y-164973000D03*
D16*
X74826000Y-190755000D03*
X74826000Y-206755000D03*
X61826000Y-206755000D03*
X61849000Y-190755000D03*
D17*
X68199000Y-170815000D03*
X62199000Y-170815000D03*
X65199000Y-175515000D03*
D11*
X133651000Y-78359000D03*
X131151000Y-78359000D03*
X128651000Y-78359000D03*
D12*
X135551000Y-85359000D03*
X126751000Y-85359000D03*
D11*
X102531000Y-57023000D03*
X100031000Y-57023000D03*
X97531000Y-57023000D03*
D12*
X104431000Y-64023000D03*
X95631000Y-64023000D03*
D18*
X104941000Y-213388000D03*
X99441000Y-213388000D03*
X93941000Y-213388000D03*
X104941000Y-208788000D03*
X99441000Y-208788000D03*
X93941000Y-208788000D03*
X104941000Y-204188000D03*
X99441000Y-204188000D03*
X93941000Y-204188000D03*
D19*
X131191000Y-97155000D03*
X135891000Y-97155000D03*
X126491000Y-97155000D03*
X69723000Y-97155000D03*
X74423000Y-97155000D03*
X65023000Y-97155000D03*
X100203000Y-97155000D03*
X104903000Y-97155000D03*
X95503000Y-97155000D03*
D11*
X72183000Y-78359000D03*
X69683000Y-78359000D03*
X67183000Y-78359000D03*
D12*
X74083000Y-85359000D03*
X65283000Y-85359000D03*
D20*
X67945000Y-133497000D03*
X67945000Y-135997000D03*
D14*
X60579000Y-101219000D03*
D15*
X60579000Y-98679000D03*
X60579000Y-96139000D03*
X60579000Y-93599000D03*
D14*
X60325000Y-163449000D03*
D15*
X60325000Y-160909000D03*
X60325000Y-158369000D03*
X60325000Y-155829000D03*
D21*
X69977000Y-178816000D03*
X66294000Y-183134000D03*
X86106000Y-173609000D03*
X86233000Y-167259000D03*
X115189000Y-174625000D03*
X120015000Y-178689000D03*
X103505000Y-183007000D03*
X120396000Y-161544000D03*
X122047000Y-150749000D03*
X105537000Y-114046000D03*
X109728000Y-139954000D03*
X104648000Y-133604000D03*
X120015000Y-139954000D03*
X95631000Y-143256000D03*
X94361000Y-138557000D03*
X88011000Y-154178000D03*
X78105000Y-127889000D03*
X69723000Y-127508000D03*
X73787000Y-117094000D03*
X83058000Y-118618000D03*
X106045000Y-195834000D03*
X115697000Y-189865000D03*
X92583000Y-183769000D03*
X85979000Y-192786000D03*
X93853000Y-192913000D03*
X107569000Y-187452000D03*
X107569000Y-185801000D03*
X88646000Y-127000000D03*
X92456000Y-130810000D03*
X69215000Y-133096000D03*
X136271000Y-130937000D03*
X133985000Y-130937000D03*
X80772000Y-160147000D03*
X83693000Y-157226000D03*
X114681000Y-196469000D03*
X116332000Y-196469000D03*
X121793000Y-183642000D03*
X121793000Y-180340000D03*
X128143000Y-147320000D03*
X125476000Y-147320000D03*
X92075000Y-133223000D03*
X86868000Y-128143000D03*
X64262000Y-134747000D03*
X65913000Y-134747000D03*
X110998000Y-130556000D03*
X110998000Y-132207000D03*
X136271000Y-129667000D03*
X133985000Y-129667000D03*
X133985000Y-137033000D03*
X136271000Y-128143000D03*
X133985000Y-128143000D03*
X81661000Y-193421000D03*
X83820000Y-191262000D03*
X95631000Y-200025000D03*
X97790000Y-200025000D03*
D22*
X107569000Y-187452000D02*
X107569000Y-185801000D01*
X88646000Y-127000000D02*
X92456000Y-130810000D01*
D23*
X68707000Y-133096000D02*
X68306000Y-133497000D01*
X69215000Y-133096000D02*
X68707000Y-133096000D01*
X68306000Y-133497000D02*
X67945000Y-133497000D01*
X133985000Y-130937000D02*
X136271000Y-130937000D01*
D22*
X80772000Y-160147000D02*
X83693000Y-157226000D01*
X116332000Y-196469000D02*
X114681000Y-196469000D01*
X121793000Y-180340000D02*
X121793000Y-183642000D01*
X125476000Y-147320000D02*
X128143000Y-147320000D01*
X92075000Y-133223000D02*
X86995000Y-128143000D01*
X86995000Y-128143000D02*
X86868000Y-128143000D01*
D23*
X65913000Y-134747000D02*
X64262000Y-134747000D01*
X110998000Y-132207000D02*
X110998000Y-130556000D01*
X133985000Y-129667000D02*
X136271000Y-129667000D01*
X140081000Y-137033000D02*
X133985000Y-137033000D01*
X133985000Y-128143000D02*
X136271000Y-128143000D01*
X83820000Y-191262000D02*
X81661000Y-193421000D01*
X97790000Y-200025000D02*
X95631000Y-200025000D01*
D24*
G36*
X133783000Y-115697000D02*
X133837046Y-115968705D01*
X133990954Y-116199046D01*
X134221295Y-116352954D01*
X134493000Y-116407000D01*
X141911000Y-116407000D01*
X141911000Y-208713000D01*
X140966805Y-208713000D01*
X141108644Y-208618226D01*
X141679841Y-207763371D01*
X141880418Y-206755000D01*
X141679841Y-205746629D01*
X141108644Y-204891774D01*
X140253789Y-204320577D01*
X139245418Y-204120000D01*
X138122582Y-204120000D01*
X137114211Y-204320577D01*
X136259356Y-204891774D01*
X135688159Y-205746629D01*
X135487582Y-206755000D01*
X135688159Y-207763371D01*
X136259356Y-208618226D01*
X136401195Y-208713000D01*
X134493000Y-208713000D01*
X134221295Y-208767046D01*
X133990954Y-208920954D01*
X133837046Y-209151295D01*
X133783000Y-209423000D01*
X133783000Y-216841000D01*
X66623000Y-216841000D01*
X66623000Y-213388000D01*
X91509275Y-213388000D01*
X91671792Y-214205029D01*
X92134602Y-214897673D01*
X92827246Y-215360483D01*
X93644275Y-215523000D01*
X94237725Y-215523000D01*
X95054754Y-215360483D01*
X95747398Y-214897673D01*
X96210208Y-214205029D01*
X96372725Y-213388000D01*
X97009275Y-213388000D01*
X97171792Y-214205029D01*
X97634602Y-214897673D01*
X98327246Y-215360483D01*
X99144275Y-215523000D01*
X99737725Y-215523000D01*
X100554754Y-215360483D01*
X101247398Y-214897673D01*
X101710208Y-214205029D01*
X101872725Y-213388000D01*
X102509275Y-213388000D01*
X102671792Y-214205029D01*
X103134602Y-214897673D01*
X103827246Y-215360483D01*
X104644275Y-215523000D01*
X105237725Y-215523000D01*
X106054754Y-215360483D01*
X106747398Y-214897673D01*
X107210208Y-214205029D01*
X107372725Y-213388000D01*
X107210208Y-212570971D01*
X106747398Y-211878327D01*
X106054754Y-211415517D01*
X105237725Y-211253000D01*
X104644275Y-211253000D01*
X103827246Y-211415517D01*
X103134602Y-211878327D01*
X102671792Y-212570971D01*
X102509275Y-213388000D01*
X101872725Y-213388000D01*
X101710208Y-212570971D01*
X101247398Y-211878327D01*
X100554754Y-211415517D01*
X99737725Y-211253000D01*
X99144275Y-211253000D01*
X98327246Y-211415517D01*
X97634602Y-211878327D01*
X97171792Y-212570971D01*
X97009275Y-213388000D01*
X96372725Y-213388000D01*
X96210208Y-212570971D01*
X95747398Y-211878327D01*
X95054754Y-211415517D01*
X94237725Y-211253000D01*
X93644275Y-211253000D01*
X92827246Y-211415517D01*
X92134602Y-211878327D01*
X91671792Y-212570971D01*
X91509275Y-213388000D01*
X66623000Y-213388000D01*
X66623000Y-209423000D01*
X66568954Y-209151295D01*
X66415046Y-208920954D01*
X66184705Y-208767046D01*
X65913000Y-208713000D01*
X64029674Y-208713000D01*
X64279029Y-208528424D01*
X64809024Y-207646038D01*
X64905667Y-207292162D01*
X64798991Y-206882000D01*
X61953000Y-206882000D01*
X61953000Y-206902000D01*
X61699000Y-206902000D01*
X61699000Y-206882000D01*
X58853009Y-206882000D01*
X58746333Y-207292162D01*
X58842976Y-207646038D01*
X59372971Y-208528424D01*
X59622326Y-208713000D01*
X58495000Y-208713000D01*
X58495000Y-206755000D01*
X71629582Y-206755000D01*
X71830159Y-207763371D01*
X72401356Y-208618226D01*
X73256211Y-209189423D01*
X74264582Y-209390000D01*
X75387418Y-209390000D01*
X76395789Y-209189423D01*
X76996559Y-208788000D01*
X91509275Y-208788000D01*
X91671792Y-209605029D01*
X92134602Y-210297673D01*
X92827246Y-210760483D01*
X93644275Y-210923000D01*
X94237725Y-210923000D01*
X95054754Y-210760483D01*
X95747398Y-210297673D01*
X96210208Y-209605029D01*
X96372725Y-208788000D01*
X97009275Y-208788000D01*
X97171792Y-209605029D01*
X97634602Y-210297673D01*
X98327246Y-210760483D01*
X99144275Y-210923000D01*
X99737725Y-210923000D01*
X100554754Y-210760483D01*
X101247398Y-210297673D01*
X101710208Y-209605029D01*
X101872725Y-208788000D01*
X102509275Y-208788000D01*
X102671792Y-209605029D01*
X103134602Y-210297673D01*
X103827246Y-210760483D01*
X104644275Y-210923000D01*
X105237725Y-210923000D01*
X106054754Y-210760483D01*
X106747398Y-210297673D01*
X107210208Y-209605029D01*
X107372725Y-208788000D01*
X107210208Y-207970971D01*
X106756643Y-207292162D01*
X122627333Y-207292162D01*
X122723976Y-207646038D01*
X123253971Y-208528424D01*
X124081296Y-209140822D01*
X125080000Y-209390000D01*
X125580000Y-209390000D01*
X125580000Y-206882000D01*
X125834000Y-206882000D01*
X125834000Y-209390000D01*
X126334000Y-209390000D01*
X127332704Y-209140822D01*
X128160029Y-208528424D01*
X128690024Y-207646038D01*
X128786667Y-207292162D01*
X128679991Y-206882000D01*
X125834000Y-206882000D01*
X125580000Y-206882000D01*
X122734009Y-206882000D01*
X122627333Y-207292162D01*
X106756643Y-207292162D01*
X106747398Y-207278327D01*
X106054754Y-206815517D01*
X105237725Y-206653000D01*
X104644275Y-206653000D01*
X103827246Y-206815517D01*
X103134602Y-207278327D01*
X102671792Y-207970971D01*
X102509275Y-208788000D01*
X101872725Y-208788000D01*
X101710208Y-207970971D01*
X101247398Y-207278327D01*
X100554754Y-206815517D01*
X99737725Y-206653000D01*
X99144275Y-206653000D01*
X98327246Y-206815517D01*
X97634602Y-207278327D01*
X97171792Y-207970971D01*
X97009275Y-208788000D01*
X96372725Y-208788000D01*
X96210208Y-207970971D01*
X95747398Y-207278327D01*
X95054754Y-206815517D01*
X94237725Y-206653000D01*
X93644275Y-206653000D01*
X92827246Y-206815517D01*
X92134602Y-207278327D01*
X91671792Y-207970971D01*
X91509275Y-208788000D01*
X76996559Y-208788000D01*
X77250644Y-208618226D01*
X77821841Y-207763371D01*
X78022418Y-206755000D01*
X77821841Y-205746629D01*
X77250644Y-204891774D01*
X76395789Y-204320577D01*
X75729278Y-204188000D01*
X91509275Y-204188000D01*
X91671792Y-205005029D01*
X92134602Y-205697673D01*
X92827246Y-206160483D01*
X93644275Y-206323000D01*
X94237725Y-206323000D01*
X95054754Y-206160483D01*
X95747398Y-205697673D01*
X96210208Y-205005029D01*
X96372725Y-204188000D01*
X97009275Y-204188000D01*
X97171792Y-205005029D01*
X97634602Y-205697673D01*
X98327246Y-206160483D01*
X99144275Y-206323000D01*
X99737725Y-206323000D01*
X100554754Y-206160483D01*
X101247398Y-205697673D01*
X101710208Y-205005029D01*
X101872725Y-204188000D01*
X102509275Y-204188000D01*
X102671792Y-205005029D01*
X103134602Y-205697673D01*
X103827246Y-206160483D01*
X104644275Y-206323000D01*
X105237725Y-206323000D01*
X105766410Y-206217838D01*
X122627333Y-206217838D01*
X122734009Y-206628000D01*
X125580000Y-206628000D01*
X125580000Y-204120000D01*
X125834000Y-204120000D01*
X125834000Y-206628000D01*
X128679991Y-206628000D01*
X128786667Y-206217838D01*
X128690024Y-205863962D01*
X128160029Y-204981576D01*
X127332704Y-204369178D01*
X126334000Y-204120000D01*
X125834000Y-204120000D01*
X125580000Y-204120000D01*
X125080000Y-204120000D01*
X124081296Y-204369178D01*
X123253971Y-204981576D01*
X122723976Y-205863962D01*
X122627333Y-206217838D01*
X105766410Y-206217838D01*
X106054754Y-206160483D01*
X106747398Y-205697673D01*
X107210208Y-205005029D01*
X107372725Y-204188000D01*
X107210208Y-203370971D01*
X106747398Y-202678327D01*
X106054754Y-202215517D01*
X105237725Y-202053000D01*
X104644275Y-202053000D01*
X103827246Y-202215517D01*
X103134602Y-202678327D01*
X102671792Y-203370971D01*
X102509275Y-204188000D01*
X101872725Y-204188000D01*
X101710208Y-203370971D01*
X101247398Y-202678327D01*
X100554754Y-202215517D01*
X99737725Y-202053000D01*
X99144275Y-202053000D01*
X98327246Y-202215517D01*
X97634602Y-202678327D01*
X97171792Y-203370971D01*
X97009275Y-204188000D01*
X96372725Y-204188000D01*
X96210208Y-203370971D01*
X95747398Y-202678327D01*
X95054754Y-202215517D01*
X94237725Y-202053000D01*
X93644275Y-202053000D01*
X92827246Y-202215517D01*
X92134602Y-202678327D01*
X91671792Y-203370971D01*
X91509275Y-204188000D01*
X75729278Y-204188000D01*
X75387418Y-204120000D01*
X74264582Y-204120000D01*
X73256211Y-204320577D01*
X72401356Y-204891774D01*
X71830159Y-205746629D01*
X71629582Y-206755000D01*
X58495000Y-206755000D01*
X58495000Y-206217838D01*
X58746333Y-206217838D01*
X58853009Y-206628000D01*
X61699000Y-206628000D01*
X61699000Y-204120000D01*
X61953000Y-204120000D01*
X61953000Y-206628000D01*
X64798991Y-206628000D01*
X64905667Y-206217838D01*
X64809024Y-205863962D01*
X64279029Y-204981576D01*
X63451704Y-204369178D01*
X62453000Y-204120000D01*
X61953000Y-204120000D01*
X61699000Y-204120000D01*
X61199000Y-204120000D01*
X60200296Y-204369178D01*
X59372971Y-204981576D01*
X58842976Y-205863962D01*
X58746333Y-206217838D01*
X58495000Y-206217838D01*
X58495000Y-200210167D01*
X94695838Y-200210167D01*
X94837883Y-200553943D01*
X95100673Y-200817192D01*
X95444201Y-200959838D01*
X95816167Y-200960162D01*
X96159943Y-200818117D01*
X96193118Y-200785000D01*
X97227537Y-200785000D01*
X97259673Y-200817192D01*
X97603201Y-200959838D01*
X97975167Y-200960162D01*
X98318943Y-200818117D01*
X98582192Y-200555327D01*
X98724838Y-200211799D01*
X98725162Y-199839833D01*
X98583117Y-199496057D01*
X98320327Y-199232808D01*
X97976799Y-199090162D01*
X97604833Y-199089838D01*
X97261057Y-199231883D01*
X97227882Y-199265000D01*
X96193463Y-199265000D01*
X96161327Y-199232808D01*
X95817799Y-199090162D01*
X95445833Y-199089838D01*
X95102057Y-199231883D01*
X94838808Y-199494673D01*
X94696162Y-199838201D01*
X94695838Y-200210167D01*
X58495000Y-200210167D01*
X58495000Y-196654167D01*
X113745838Y-196654167D01*
X113887883Y-196997943D01*
X114150673Y-197261192D01*
X114494201Y-197403838D01*
X114866167Y-197404162D01*
X114987569Y-197354000D01*
X116025178Y-197354000D01*
X116145201Y-197403838D01*
X116517167Y-197404162D01*
X116860943Y-197262117D01*
X117124192Y-196999327D01*
X117266838Y-196655799D01*
X117267162Y-196283833D01*
X117125117Y-195940057D01*
X116862327Y-195676808D01*
X116518799Y-195534162D01*
X116146833Y-195533838D01*
X116025431Y-195584000D01*
X114987822Y-195584000D01*
X114867799Y-195534162D01*
X114495833Y-195533838D01*
X114152057Y-195675883D01*
X113888808Y-195938673D01*
X113746162Y-196282201D01*
X113745838Y-196654167D01*
X58495000Y-196654167D01*
X58495000Y-193606167D01*
X80725838Y-193606167D01*
X80867883Y-193949943D01*
X81130673Y-194213192D01*
X81474201Y-194355838D01*
X81846167Y-194356162D01*
X82189943Y-194214117D01*
X82453192Y-193951327D01*
X82595838Y-193607799D01*
X82595879Y-193560923D01*
X83959680Y-192197122D01*
X84005167Y-192197162D01*
X84348943Y-192055117D01*
X84612192Y-191792327D01*
X84754838Y-191448799D01*
X84755162Y-191076833D01*
X84622184Y-190755000D01*
X122510582Y-190755000D01*
X122711159Y-191763371D01*
X123282356Y-192618226D01*
X124137211Y-193189423D01*
X125145582Y-193390000D01*
X126268418Y-193390000D01*
X127276789Y-193189423D01*
X128131644Y-192618226D01*
X128702841Y-191763371D01*
X128796570Y-191292162D01*
X135627333Y-191292162D01*
X135723976Y-191646038D01*
X136253971Y-192528424D01*
X137081296Y-193140822D01*
X138080000Y-193390000D01*
X138580000Y-193390000D01*
X138580000Y-190882000D01*
X138834000Y-190882000D01*
X138834000Y-193390000D01*
X139334000Y-193390000D01*
X140332704Y-193140822D01*
X141160029Y-192528424D01*
X141690024Y-191646038D01*
X141786667Y-191292162D01*
X141679991Y-190882000D01*
X138834000Y-190882000D01*
X138580000Y-190882000D01*
X135734009Y-190882000D01*
X135627333Y-191292162D01*
X128796570Y-191292162D01*
X128903418Y-190755000D01*
X128702841Y-189746629D01*
X128131644Y-188891774D01*
X127276789Y-188320577D01*
X126724165Y-188210653D01*
X127332704Y-188058822D01*
X128160029Y-187446424D01*
X128690024Y-186564038D01*
X128786667Y-186210162D01*
X128679991Y-185800000D01*
X125834000Y-185800000D01*
X125834000Y-185820000D01*
X125580000Y-185820000D01*
X125580000Y-185800000D01*
X122734009Y-185800000D01*
X122627333Y-186210162D01*
X122723976Y-186564038D01*
X123253971Y-187446424D01*
X124081296Y-188058822D01*
X124689835Y-188210653D01*
X124137211Y-188320577D01*
X123282356Y-188891774D01*
X122711159Y-189746629D01*
X122510582Y-190755000D01*
X84622184Y-190755000D01*
X84613117Y-190733057D01*
X84350327Y-190469808D01*
X84006799Y-190327162D01*
X83634833Y-190326838D01*
X83291057Y-190468883D01*
X83027808Y-190731673D01*
X82885162Y-191075201D01*
X82885121Y-191122077D01*
X81521320Y-192485878D01*
X81475833Y-192485838D01*
X81132057Y-192627883D01*
X80868808Y-192890673D01*
X80726162Y-193234201D01*
X80725838Y-193606167D01*
X58495000Y-193606167D01*
X58495000Y-190755000D01*
X58652582Y-190755000D01*
X58853159Y-191763371D01*
X59424356Y-192618226D01*
X60279211Y-193189423D01*
X61287582Y-193390000D01*
X62410418Y-193390000D01*
X63418789Y-193189423D01*
X64273644Y-192618226D01*
X64844841Y-191763371D01*
X65045418Y-190755000D01*
X71629582Y-190755000D01*
X71830159Y-191763371D01*
X72401356Y-192618226D01*
X73256211Y-193189423D01*
X74264582Y-193390000D01*
X75387418Y-193390000D01*
X76395789Y-193189423D01*
X77250644Y-192618226D01*
X77821841Y-191763371D01*
X78022418Y-190755000D01*
X77821841Y-189746629D01*
X77250644Y-188891774D01*
X76395789Y-188320577D01*
X75387418Y-188120000D01*
X74264582Y-188120000D01*
X73256211Y-188320577D01*
X72401356Y-188891774D01*
X71830159Y-189746629D01*
X71629582Y-190755000D01*
X65045418Y-190755000D01*
X64844841Y-189746629D01*
X64273644Y-188891774D01*
X63418789Y-188320577D01*
X62410418Y-188120000D01*
X61287582Y-188120000D01*
X60279211Y-188320577D01*
X59424356Y-188891774D01*
X58853159Y-189746629D01*
X58652582Y-190755000D01*
X58495000Y-190755000D01*
X58495000Y-185986167D01*
X106633838Y-185986167D01*
X106684000Y-186107569D01*
X106684000Y-187145178D01*
X106634162Y-187265201D01*
X106633838Y-187637167D01*
X106775883Y-187980943D01*
X107038673Y-188244192D01*
X107382201Y-188386838D01*
X107754167Y-188387162D01*
X108097943Y-188245117D01*
X108361192Y-187982327D01*
X108503838Y-187638799D01*
X108504162Y-187266833D01*
X108454000Y-187145431D01*
X108454000Y-186107822D01*
X108503838Y-185987799D01*
X108504112Y-185673000D01*
X135487582Y-185673000D01*
X135688159Y-186681371D01*
X136259356Y-187536226D01*
X137114211Y-188107423D01*
X137679633Y-188219892D01*
X137081296Y-188369178D01*
X136253971Y-188981576D01*
X135723976Y-189863962D01*
X135627333Y-190217838D01*
X135734009Y-190628000D01*
X138580000Y-190628000D01*
X138580000Y-190608000D01*
X138834000Y-190608000D01*
X138834000Y-190628000D01*
X141679991Y-190628000D01*
X141786667Y-190217838D01*
X141690024Y-189863962D01*
X141160029Y-188981576D01*
X140332704Y-188369178D01*
X139713962Y-188214801D01*
X140253789Y-188107423D01*
X141108644Y-187536226D01*
X141679841Y-186681371D01*
X141880418Y-185673000D01*
X141679841Y-184664629D01*
X141108644Y-183809774D01*
X140253789Y-183238577D01*
X139245418Y-183038000D01*
X138122582Y-183038000D01*
X137114211Y-183238577D01*
X136259356Y-183809774D01*
X135688159Y-184664629D01*
X135487582Y-185673000D01*
X108504112Y-185673000D01*
X108504162Y-185615833D01*
X108362117Y-185272057D01*
X108226136Y-185135838D01*
X122627333Y-185135838D01*
X122734009Y-185546000D01*
X125580000Y-185546000D01*
X125580000Y-183038000D01*
X125834000Y-183038000D01*
X125834000Y-185546000D01*
X128679991Y-185546000D01*
X128786667Y-185135838D01*
X128690024Y-184781962D01*
X128160029Y-183899576D01*
X127332704Y-183287178D01*
X126334000Y-183038000D01*
X125834000Y-183038000D01*
X125580000Y-183038000D01*
X125080000Y-183038000D01*
X124081296Y-183287178D01*
X123253971Y-183899576D01*
X122723976Y-184781962D01*
X122627333Y-185135838D01*
X108226136Y-185135838D01*
X108099327Y-185008808D01*
X107755799Y-184866162D01*
X107383833Y-184865838D01*
X107040057Y-185007883D01*
X106776808Y-185270673D01*
X106634162Y-185614201D01*
X106633838Y-185986167D01*
X58495000Y-185986167D01*
X58495000Y-180525167D01*
X120857838Y-180525167D01*
X120908000Y-180646569D01*
X120908000Y-183335178D01*
X120858162Y-183455201D01*
X120857838Y-183827167D01*
X120999883Y-184170943D01*
X121262673Y-184434192D01*
X121606201Y-184576838D01*
X121978167Y-184577162D01*
X122321943Y-184435117D01*
X122585192Y-184172327D01*
X122727838Y-183828799D01*
X122728162Y-183456833D01*
X122678000Y-183335431D01*
X122678000Y-180646822D01*
X122727838Y-180526799D01*
X122728162Y-180154833D01*
X122586117Y-179811057D01*
X122323327Y-179547808D01*
X121979799Y-179405162D01*
X121607833Y-179404838D01*
X121264057Y-179546883D01*
X121000808Y-179809673D01*
X120858162Y-180153201D01*
X120857838Y-180525167D01*
X58495000Y-180525167D01*
X58495000Y-169065000D01*
X59801560Y-169065000D01*
X59801560Y-172565000D01*
X59845838Y-172800317D01*
X59984910Y-173016441D01*
X60197110Y-173161431D01*
X60449000Y-173212440D01*
X63135045Y-173212440D01*
X62997559Y-173300910D01*
X62852569Y-173513110D01*
X62801560Y-173765000D01*
X62801560Y-177265000D01*
X62845838Y-177500317D01*
X62984910Y-177716441D01*
X63197110Y-177861431D01*
X63449000Y-177912440D01*
X66949000Y-177912440D01*
X67184317Y-177868162D01*
X67400441Y-177729090D01*
X67545431Y-177516890D01*
X67596440Y-177265000D01*
X67596440Y-173765000D01*
X67552162Y-173529683D01*
X67413090Y-173313559D01*
X67246891Y-173200000D01*
X67913250Y-173200000D01*
X68072000Y-173041250D01*
X68072000Y-170942000D01*
X68326000Y-170942000D01*
X68326000Y-173041250D01*
X68484750Y-173200000D01*
X70075309Y-173200000D01*
X70308698Y-173103327D01*
X70487327Y-172924699D01*
X70584000Y-172691310D01*
X70584000Y-171100750D01*
X70425250Y-170942000D01*
X68326000Y-170942000D01*
X68072000Y-170942000D01*
X65972750Y-170942000D01*
X65814000Y-171100750D01*
X65814000Y-172691310D01*
X65910673Y-172924699D01*
X66089302Y-173103327D01*
X66123663Y-173117560D01*
X64262955Y-173117560D01*
X64400441Y-173029090D01*
X64545431Y-172816890D01*
X64596440Y-172565000D01*
X64596440Y-169065000D01*
X64572674Y-168938690D01*
X65814000Y-168938690D01*
X65814000Y-170529250D01*
X65972750Y-170688000D01*
X68072000Y-170688000D01*
X68072000Y-168588750D01*
X68326000Y-168588750D01*
X68326000Y-170688000D01*
X70425250Y-170688000D01*
X70584000Y-170529250D01*
X70584000Y-169673000D01*
X122510582Y-169673000D01*
X122711159Y-170681371D01*
X123282356Y-171536226D01*
X124137211Y-172107423D01*
X125145582Y-172308000D01*
X126268418Y-172308000D01*
X127276789Y-172107423D01*
X128131644Y-171536226D01*
X128702841Y-170681371D01*
X128796570Y-170210162D01*
X135627333Y-170210162D01*
X135723976Y-170564038D01*
X136253971Y-171446424D01*
X137081296Y-172058822D01*
X138080000Y-172308000D01*
X138580000Y-172308000D01*
X138580000Y-169800000D01*
X138834000Y-169800000D01*
X138834000Y-172308000D01*
X139334000Y-172308000D01*
X140332704Y-172058822D01*
X141160029Y-171446424D01*
X141690024Y-170564038D01*
X141786667Y-170210162D01*
X141679991Y-169800000D01*
X138834000Y-169800000D01*
X138580000Y-169800000D01*
X135734009Y-169800000D01*
X135627333Y-170210162D01*
X128796570Y-170210162D01*
X128903418Y-169673000D01*
X128796571Y-169135838D01*
X135627333Y-169135838D01*
X135734009Y-169546000D01*
X138580000Y-169546000D01*
X138580000Y-167038000D01*
X138834000Y-167038000D01*
X138834000Y-169546000D01*
X141679991Y-169546000D01*
X141786667Y-169135838D01*
X141690024Y-168781962D01*
X141160029Y-167899576D01*
X140332704Y-167287178D01*
X139334000Y-167038000D01*
X138834000Y-167038000D01*
X138580000Y-167038000D01*
X138080000Y-167038000D01*
X137081296Y-167287178D01*
X136253971Y-167899576D01*
X135723976Y-168781962D01*
X135627333Y-169135838D01*
X128796571Y-169135838D01*
X128702841Y-168664629D01*
X128131644Y-167809774D01*
X127276789Y-167238577D01*
X126268418Y-167038000D01*
X125145582Y-167038000D01*
X124137211Y-167238577D01*
X123282356Y-167809774D01*
X122711159Y-168664629D01*
X122510582Y-169673000D01*
X70584000Y-169673000D01*
X70584000Y-168938690D01*
X70487327Y-168705301D01*
X70308698Y-168526673D01*
X70075309Y-168430000D01*
X68484750Y-168430000D01*
X68326000Y-168588750D01*
X68072000Y-168588750D01*
X67913250Y-168430000D01*
X66322691Y-168430000D01*
X66089302Y-168526673D01*
X65910673Y-168705301D01*
X65814000Y-168938690D01*
X64572674Y-168938690D01*
X64552162Y-168829683D01*
X64413090Y-168613559D01*
X64200890Y-168468569D01*
X63949000Y-168417560D01*
X60449000Y-168417560D01*
X60213683Y-168461838D01*
X59997559Y-168600910D01*
X59852569Y-168813110D01*
X59801560Y-169065000D01*
X58495000Y-169065000D01*
X58495000Y-162599000D01*
X58827560Y-162599000D01*
X58827560Y-164299000D01*
X58871838Y-164534317D01*
X59010910Y-164750441D01*
X59223110Y-164895431D01*
X59475000Y-164946440D01*
X61175000Y-164946440D01*
X61410317Y-164902162D01*
X61626441Y-164763090D01*
X61771431Y-164550890D01*
X61822440Y-164299000D01*
X61822440Y-162599000D01*
X61778162Y-162363683D01*
X61639090Y-162147559D01*
X61426890Y-162002569D01*
X61318893Y-161980699D01*
X61596645Y-161675924D01*
X61766476Y-161265890D01*
X61645155Y-161036000D01*
X60452000Y-161036000D01*
X60452000Y-161056000D01*
X60198000Y-161056000D01*
X60198000Y-161036000D01*
X59004845Y-161036000D01*
X58883524Y-161265890D01*
X59053355Y-161675924D01*
X59329501Y-161978937D01*
X59239683Y-161995838D01*
X59023559Y-162134910D01*
X58878569Y-162347110D01*
X58827560Y-162599000D01*
X58495000Y-162599000D01*
X58495000Y-155829000D01*
X58810907Y-155829000D01*
X58923946Y-156397285D01*
X59245853Y-156879054D01*
X59575026Y-157099000D01*
X59245853Y-157318946D01*
X58923946Y-157800715D01*
X58810907Y-158369000D01*
X58923946Y-158937285D01*
X59245853Y-159419054D01*
X59586553Y-159646702D01*
X59443642Y-159713817D01*
X59053355Y-160142076D01*
X58883524Y-160552110D01*
X59004845Y-160782000D01*
X60198000Y-160782000D01*
X60198000Y-160762000D01*
X60452000Y-160762000D01*
X60452000Y-160782000D01*
X61645155Y-160782000D01*
X61766476Y-160552110D01*
X61675379Y-160332167D01*
X79836838Y-160332167D01*
X79978883Y-160675943D01*
X80241673Y-160939192D01*
X80585201Y-161081838D01*
X80957167Y-161082162D01*
X81300943Y-160940117D01*
X81564192Y-160677327D01*
X81614566Y-160556014D01*
X84101834Y-158068745D01*
X84221943Y-158019117D01*
X84485192Y-157756327D01*
X84627838Y-157412799D01*
X84628162Y-157040833D01*
X84486117Y-156697057D01*
X84223327Y-156433808D01*
X83879799Y-156291162D01*
X83507833Y-156290838D01*
X83164057Y-156432883D01*
X82900808Y-156695673D01*
X82850434Y-156816987D01*
X80363164Y-159304256D01*
X80243057Y-159353883D01*
X79979808Y-159616673D01*
X79837162Y-159960201D01*
X79836838Y-160332167D01*
X61675379Y-160332167D01*
X61596645Y-160142076D01*
X61206358Y-159713817D01*
X61063447Y-159646702D01*
X61404147Y-159419054D01*
X61726054Y-158937285D01*
X61839093Y-158369000D01*
X61726054Y-157800715D01*
X61404147Y-157318946D01*
X61074974Y-157099000D01*
X61404147Y-156879054D01*
X61726054Y-156397285D01*
X61839093Y-155829000D01*
X61726054Y-155260715D01*
X61426902Y-154813000D01*
X138566907Y-154813000D01*
X138679946Y-155381285D01*
X139001853Y-155863054D01*
X139331026Y-156083000D01*
X139001853Y-156302946D01*
X138679946Y-156784715D01*
X138566907Y-157353000D01*
X138679946Y-157921285D01*
X139001853Y-158403054D01*
X139331026Y-158623000D01*
X139001853Y-158842946D01*
X138679946Y-159324715D01*
X138566907Y-159893000D01*
X138679946Y-160461285D01*
X139001853Y-160943054D01*
X139331026Y-161163000D01*
X139001853Y-161382946D01*
X138679946Y-161864715D01*
X138566907Y-162433000D01*
X138679946Y-163001285D01*
X139001853Y-163483054D01*
X139331026Y-163703000D01*
X139001853Y-163922946D01*
X138679946Y-164404715D01*
X138566907Y-164973000D01*
X138679946Y-165541285D01*
X139001853Y-166023054D01*
X139483622Y-166344961D01*
X140051907Y-166458000D01*
X140110093Y-166458000D01*
X140678378Y-166344961D01*
X141160147Y-166023054D01*
X141482054Y-165541285D01*
X141595093Y-164973000D01*
X141482054Y-164404715D01*
X141160147Y-163922946D01*
X140830974Y-163703000D01*
X141160147Y-163483054D01*
X141482054Y-163001285D01*
X141595093Y-162433000D01*
X141482054Y-161864715D01*
X141160147Y-161382946D01*
X140830974Y-161163000D01*
X141160147Y-160943054D01*
X141482054Y-160461285D01*
X141595093Y-159893000D01*
X141482054Y-159324715D01*
X141160147Y-158842946D01*
X140830974Y-158623000D01*
X141160147Y-158403054D01*
X141482054Y-157921285D01*
X141595093Y-157353000D01*
X141482054Y-156784715D01*
X141160147Y-156302946D01*
X140830974Y-156083000D01*
X141160147Y-155863054D01*
X141482054Y-155381285D01*
X141595093Y-154813000D01*
X141482054Y-154244715D01*
X141160147Y-153762946D01*
X141118548Y-153735150D01*
X141166317Y-153726162D01*
X141382441Y-153587090D01*
X141527431Y-153374890D01*
X141578440Y-153123000D01*
X141578440Y-151423000D01*
X141534162Y-151187683D01*
X141395090Y-150971559D01*
X141182890Y-150826569D01*
X140931000Y-150775560D01*
X139231000Y-150775560D01*
X138995683Y-150819838D01*
X138779559Y-150958910D01*
X138634569Y-151171110D01*
X138583560Y-151423000D01*
X138583560Y-153123000D01*
X138627838Y-153358317D01*
X138766910Y-153574441D01*
X138979110Y-153719431D01*
X139046541Y-153733086D01*
X139001853Y-153762946D01*
X138679946Y-154244715D01*
X138566907Y-154813000D01*
X61426902Y-154813000D01*
X61404147Y-154778946D01*
X60922378Y-154457039D01*
X60354093Y-154344000D01*
X60295907Y-154344000D01*
X59727622Y-154457039D01*
X59245853Y-154778946D01*
X58923946Y-155260715D01*
X58810907Y-155829000D01*
X58495000Y-155829000D01*
X58495000Y-141097000D01*
X58810907Y-141097000D01*
X58923946Y-141665285D01*
X59245853Y-142147054D01*
X59575026Y-142367000D01*
X59245853Y-142586946D01*
X58923946Y-143068715D01*
X58810907Y-143637000D01*
X58923946Y-144205285D01*
X59245853Y-144687054D01*
X59575026Y-144907000D01*
X59245853Y-145126946D01*
X58923946Y-145608715D01*
X58810907Y-146177000D01*
X58923946Y-146745285D01*
X59245853Y-147227054D01*
X59727622Y-147548961D01*
X60295907Y-147662000D01*
X60354093Y-147662000D01*
X60922378Y-147548961D01*
X60987920Y-147505167D01*
X124540838Y-147505167D01*
X124682883Y-147848943D01*
X124945673Y-148112192D01*
X125289201Y-148254838D01*
X125661167Y-148255162D01*
X125782569Y-148205000D01*
X127836178Y-148205000D01*
X127956201Y-148254838D01*
X128328167Y-148255162D01*
X128671943Y-148113117D01*
X128935192Y-147850327D01*
X129077838Y-147506799D01*
X129078111Y-147193000D01*
X138566907Y-147193000D01*
X138679946Y-147761285D01*
X139001853Y-148243054D01*
X139483622Y-148564961D01*
X140051907Y-148678000D01*
X140110093Y-148678000D01*
X140678378Y-148564961D01*
X141160147Y-148243054D01*
X141482054Y-147761285D01*
X141595093Y-147193000D01*
X141482054Y-146624715D01*
X141160147Y-146142946D01*
X140819447Y-145915298D01*
X140962358Y-145848183D01*
X141352645Y-145419924D01*
X141522476Y-145009890D01*
X141401155Y-144780000D01*
X140208000Y-144780000D01*
X140208000Y-144800000D01*
X139954000Y-144800000D01*
X139954000Y-144780000D01*
X138760845Y-144780000D01*
X138639524Y-145009890D01*
X138809355Y-145419924D01*
X139199642Y-145848183D01*
X139342553Y-145915298D01*
X139001853Y-146142946D01*
X138679946Y-146624715D01*
X138566907Y-147193000D01*
X129078111Y-147193000D01*
X129078162Y-147134833D01*
X128936117Y-146791057D01*
X128673327Y-146527808D01*
X128329799Y-146385162D01*
X127957833Y-146384838D01*
X127836431Y-146435000D01*
X125782822Y-146435000D01*
X125662799Y-146385162D01*
X125290833Y-146384838D01*
X124947057Y-146526883D01*
X124683808Y-146789673D01*
X124541162Y-147133201D01*
X124540838Y-147505167D01*
X60987920Y-147505167D01*
X61404147Y-147227054D01*
X61726054Y-146745285D01*
X61839093Y-146177000D01*
X61726054Y-145608715D01*
X61404147Y-145126946D01*
X61074974Y-144907000D01*
X61404147Y-144687054D01*
X61726054Y-144205285D01*
X61839093Y-143637000D01*
X61726054Y-143068715D01*
X61404147Y-142586946D01*
X61074974Y-142367000D01*
X61404147Y-142147054D01*
X61726054Y-141665285D01*
X61839093Y-141097000D01*
X61726054Y-140528715D01*
X61404147Y-140046946D01*
X61362548Y-140019150D01*
X61410317Y-140010162D01*
X61626441Y-139871090D01*
X61771431Y-139658890D01*
X61822440Y-139407000D01*
X61822440Y-137707000D01*
X61778162Y-137471683D01*
X61639090Y-137255559D01*
X61426890Y-137110569D01*
X61175000Y-137059560D01*
X59475000Y-137059560D01*
X59239683Y-137103838D01*
X59023559Y-137242910D01*
X58878569Y-137455110D01*
X58827560Y-137707000D01*
X58827560Y-139407000D01*
X58871838Y-139642317D01*
X59010910Y-139858441D01*
X59223110Y-140003431D01*
X59290541Y-140017086D01*
X59245853Y-140046946D01*
X58923946Y-140528715D01*
X58810907Y-141097000D01*
X58495000Y-141097000D01*
X58495000Y-136282750D01*
X66685000Y-136282750D01*
X66685000Y-136873309D01*
X66781673Y-137106698D01*
X66960301Y-137285327D01*
X67193690Y-137382000D01*
X67659250Y-137382000D01*
X67818000Y-137223250D01*
X67818000Y-136124000D01*
X68072000Y-136124000D01*
X68072000Y-137223250D01*
X68230750Y-137382000D01*
X68696310Y-137382000D01*
X68929699Y-137285327D01*
X68996858Y-137218167D01*
X133049838Y-137218167D01*
X133191883Y-137561943D01*
X133454673Y-137825192D01*
X133798201Y-137967838D01*
X134170167Y-137968162D01*
X134513943Y-137826117D01*
X134547118Y-137793000D01*
X138808046Y-137793000D01*
X139001853Y-138083054D01*
X139331026Y-138303000D01*
X139001853Y-138522946D01*
X138679946Y-139004715D01*
X138566907Y-139573000D01*
X138679946Y-140141285D01*
X139001853Y-140623054D01*
X139331026Y-140843000D01*
X139001853Y-141062946D01*
X138679946Y-141544715D01*
X138566907Y-142113000D01*
X138679946Y-142681285D01*
X139001853Y-143163054D01*
X139342553Y-143390702D01*
X139199642Y-143457817D01*
X138809355Y-143886076D01*
X138639524Y-144296110D01*
X138760845Y-144526000D01*
X139954000Y-144526000D01*
X139954000Y-144506000D01*
X140208000Y-144506000D01*
X140208000Y-144526000D01*
X141401155Y-144526000D01*
X141522476Y-144296110D01*
X141352645Y-143886076D01*
X140962358Y-143457817D01*
X140819447Y-143390702D01*
X141160147Y-143163054D01*
X141482054Y-142681285D01*
X141595093Y-142113000D01*
X141482054Y-141544715D01*
X141160147Y-141062946D01*
X140830974Y-140843000D01*
X141160147Y-140623054D01*
X141482054Y-140141285D01*
X141595093Y-139573000D01*
X141482054Y-139004715D01*
X141160147Y-138522946D01*
X140830974Y-138303000D01*
X141160147Y-138083054D01*
X141482054Y-137601285D01*
X141595093Y-137033000D01*
X141482054Y-136464715D01*
X141160147Y-135982946D01*
X141118548Y-135955150D01*
X141166317Y-135946162D01*
X141382441Y-135807090D01*
X141527431Y-135594890D01*
X141578440Y-135343000D01*
X141578440Y-133643000D01*
X141534162Y-133407683D01*
X141395090Y-133191559D01*
X141182890Y-133046569D01*
X140931000Y-132995560D01*
X139231000Y-132995560D01*
X138995683Y-133039838D01*
X138779559Y-133178910D01*
X138634569Y-133391110D01*
X138583560Y-133643000D01*
X138583560Y-135343000D01*
X138627838Y-135578317D01*
X138766910Y-135794441D01*
X138979110Y-135939431D01*
X139046541Y-135953086D01*
X139001853Y-135982946D01*
X138808046Y-136273000D01*
X134547463Y-136273000D01*
X134515327Y-136240808D01*
X134171799Y-136098162D01*
X133799833Y-136097838D01*
X133456057Y-136239883D01*
X133192808Y-136502673D01*
X133050162Y-136846201D01*
X133049838Y-137218167D01*
X68996858Y-137218167D01*
X69108327Y-137106698D01*
X69205000Y-136873309D01*
X69205000Y-136282750D01*
X69046250Y-136124000D01*
X68072000Y-136124000D01*
X67818000Y-136124000D01*
X66843750Y-136124000D01*
X66685000Y-136282750D01*
X58495000Y-136282750D01*
X58495000Y-134932167D01*
X63326838Y-134932167D01*
X63468883Y-135275943D01*
X63731673Y-135539192D01*
X64075201Y-135681838D01*
X64447167Y-135682162D01*
X64790943Y-135540117D01*
X64824118Y-135507000D01*
X65350537Y-135507000D01*
X65382673Y-135539192D01*
X65726201Y-135681838D01*
X66098167Y-135682162D01*
X66441943Y-135540117D01*
X66685000Y-135297484D01*
X66685000Y-135711250D01*
X66843750Y-135870000D01*
X67818000Y-135870000D01*
X67818000Y-135850000D01*
X68072000Y-135850000D01*
X68072000Y-135870000D01*
X69046250Y-135870000D01*
X69205000Y-135711250D01*
X69205000Y-135120691D01*
X69108327Y-134887302D01*
X68967090Y-134746064D01*
X69021441Y-134711090D01*
X69166431Y-134498890D01*
X69217440Y-134247000D01*
X69217440Y-134031003D01*
X69400167Y-134031162D01*
X69743943Y-133889117D01*
X70007192Y-133626327D01*
X70149838Y-133282799D01*
X70150162Y-132910833D01*
X70008117Y-132567057D01*
X69745327Y-132303808D01*
X69401799Y-132161162D01*
X69029833Y-132160838D01*
X68909617Y-132210510D01*
X68821890Y-132150569D01*
X68570000Y-132099560D01*
X67320000Y-132099560D01*
X67084683Y-132143838D01*
X66868559Y-132282910D01*
X66723569Y-132495110D01*
X66672560Y-132747000D01*
X66672560Y-134184441D01*
X66443327Y-133954808D01*
X66099799Y-133812162D01*
X65727833Y-133811838D01*
X65384057Y-133953883D01*
X65350882Y-133987000D01*
X64824463Y-133987000D01*
X64792327Y-133954808D01*
X64448799Y-133812162D01*
X64076833Y-133811838D01*
X63733057Y-133953883D01*
X63469808Y-134216673D01*
X63327162Y-134560201D01*
X63326838Y-134932167D01*
X58495000Y-134932167D01*
X58495000Y-128397000D01*
X58810907Y-128397000D01*
X58923946Y-128965285D01*
X59245853Y-129447054D01*
X59727622Y-129768961D01*
X60295907Y-129882000D01*
X60354093Y-129882000D01*
X60922378Y-129768961D01*
X61404147Y-129447054D01*
X61726054Y-128965285D01*
X61839093Y-128397000D01*
X61825402Y-128328167D01*
X85932838Y-128328167D01*
X86074883Y-128671943D01*
X86337673Y-128935192D01*
X86676168Y-129075748D01*
X91232255Y-133631834D01*
X91281883Y-133751943D01*
X91544673Y-134015192D01*
X91888201Y-134157838D01*
X92260167Y-134158162D01*
X92603943Y-134016117D01*
X92867192Y-133753327D01*
X93009838Y-133409799D01*
X93010162Y-133037833D01*
X92868117Y-132694057D01*
X92605327Y-132430808D01*
X92484013Y-132380434D01*
X87620790Y-127517210D01*
X87451562Y-127404136D01*
X87398327Y-127350808D01*
X87054799Y-127208162D01*
X86682833Y-127207838D01*
X86339057Y-127349883D01*
X86075808Y-127612673D01*
X85933162Y-127956201D01*
X85932838Y-128328167D01*
X61825402Y-128328167D01*
X61726054Y-127828715D01*
X61404147Y-127346946D01*
X61162028Y-127185167D01*
X87710838Y-127185167D01*
X87852883Y-127528943D01*
X88115673Y-127792192D01*
X88236986Y-127842566D01*
X91613255Y-131218834D01*
X91662883Y-131338943D01*
X91925673Y-131602192D01*
X92269201Y-131744838D01*
X92641167Y-131745162D01*
X92984943Y-131603117D01*
X93248192Y-131340327D01*
X93390838Y-130996799D01*
X93391060Y-130741167D01*
X110062838Y-130741167D01*
X110204883Y-131084943D01*
X110238000Y-131118118D01*
X110238000Y-131644537D01*
X110205808Y-131676673D01*
X110063162Y-132020201D01*
X110062838Y-132392167D01*
X110204883Y-132735943D01*
X110467673Y-132999192D01*
X110811201Y-133141838D01*
X111183167Y-133142162D01*
X111526943Y-133000117D01*
X111790192Y-132737327D01*
X111932838Y-132393799D01*
X111933162Y-132021833D01*
X111791117Y-131678057D01*
X111758000Y-131644882D01*
X111758000Y-131118463D01*
X111790192Y-131086327D01*
X111932838Y-130742799D01*
X111933162Y-130370833D01*
X111791117Y-130027057D01*
X111528327Y-129763808D01*
X111184799Y-129621162D01*
X110812833Y-129620838D01*
X110469057Y-129762883D01*
X110205808Y-130025673D01*
X110063162Y-130369201D01*
X110062838Y-130741167D01*
X93391060Y-130741167D01*
X93391162Y-130624833D01*
X93249117Y-130281057D01*
X92986327Y-130017808D01*
X92865013Y-129967434D01*
X91225747Y-128328167D01*
X133049838Y-128328167D01*
X133191883Y-128671943D01*
X133424709Y-128905176D01*
X133192808Y-129136673D01*
X133050162Y-129480201D01*
X133049838Y-129852167D01*
X133191883Y-130195943D01*
X133297710Y-130301954D01*
X133192808Y-130406673D01*
X133050162Y-130750201D01*
X133049838Y-131122167D01*
X133191883Y-131465943D01*
X133454673Y-131729192D01*
X133798201Y-131871838D01*
X134170167Y-131872162D01*
X134513943Y-131730117D01*
X134547118Y-131697000D01*
X135708537Y-131697000D01*
X135740673Y-131729192D01*
X136084201Y-131871838D01*
X136456167Y-131872162D01*
X136799943Y-131730117D01*
X137063192Y-131467327D01*
X137205838Y-131123799D01*
X137206162Y-130751833D01*
X137064117Y-130408057D01*
X136958290Y-130302046D01*
X137063192Y-130197327D01*
X137205838Y-129853799D01*
X137206162Y-129481833D01*
X137064117Y-129138057D01*
X136831291Y-128904824D01*
X137063192Y-128673327D01*
X137205838Y-128329799D01*
X137206162Y-127957833D01*
X137064117Y-127614057D01*
X136801327Y-127350808D01*
X136457799Y-127208162D01*
X136085833Y-127207838D01*
X135742057Y-127349883D01*
X135708882Y-127383000D01*
X134547463Y-127383000D01*
X134515327Y-127350808D01*
X134171799Y-127208162D01*
X133799833Y-127207838D01*
X133456057Y-127349883D01*
X133192808Y-127612673D01*
X133050162Y-127956201D01*
X133049838Y-128328167D01*
X91225747Y-128328167D01*
X89488744Y-126591164D01*
X89439117Y-126471057D01*
X89176327Y-126207808D01*
X88832799Y-126065162D01*
X88460833Y-126064838D01*
X88117057Y-126206883D01*
X87853808Y-126469673D01*
X87711162Y-126813201D01*
X87710838Y-127185167D01*
X61162028Y-127185167D01*
X61063447Y-127119298D01*
X61206358Y-127052183D01*
X61596645Y-126623924D01*
X61766476Y-126213890D01*
X61645155Y-125984000D01*
X60452000Y-125984000D01*
X60452000Y-126004000D01*
X60198000Y-126004000D01*
X60198000Y-125984000D01*
X59004845Y-125984000D01*
X58883524Y-126213890D01*
X59053355Y-126623924D01*
X59443642Y-127052183D01*
X59586553Y-127119298D01*
X59245853Y-127346946D01*
X58923946Y-127828715D01*
X58810907Y-128397000D01*
X58495000Y-128397000D01*
X58495000Y-123317000D01*
X58810907Y-123317000D01*
X58923946Y-123885285D01*
X59245853Y-124367054D01*
X59586553Y-124594702D01*
X59443642Y-124661817D01*
X59053355Y-125090076D01*
X58883524Y-125500110D01*
X59004845Y-125730000D01*
X60198000Y-125730000D01*
X60198000Y-125710000D01*
X60452000Y-125710000D01*
X60452000Y-125730000D01*
X61645155Y-125730000D01*
X61766476Y-125500110D01*
X61596645Y-125090076D01*
X61206358Y-124661817D01*
X61063447Y-124594702D01*
X61404147Y-124367054D01*
X61726054Y-123885285D01*
X61839093Y-123317000D01*
X61726054Y-122748715D01*
X61404147Y-122266946D01*
X61362548Y-122239150D01*
X61410317Y-122230162D01*
X61626441Y-122091090D01*
X61771431Y-121878890D01*
X61822440Y-121627000D01*
X61822440Y-120777000D01*
X138566907Y-120777000D01*
X138679946Y-121345285D01*
X139001853Y-121827054D01*
X139331026Y-122047000D01*
X139001853Y-122266946D01*
X138679946Y-122748715D01*
X138566907Y-123317000D01*
X138679946Y-123885285D01*
X139001853Y-124367054D01*
X139331026Y-124587000D01*
X139001853Y-124806946D01*
X138679946Y-125288715D01*
X138566907Y-125857000D01*
X138679946Y-126425285D01*
X139001853Y-126907054D01*
X139043452Y-126934850D01*
X138995683Y-126943838D01*
X138779559Y-127082910D01*
X138634569Y-127295110D01*
X138583560Y-127547000D01*
X138583560Y-129247000D01*
X138627838Y-129482317D01*
X138766910Y-129698441D01*
X138979110Y-129843431D01*
X139231000Y-129894440D01*
X140931000Y-129894440D01*
X141166317Y-129850162D01*
X141382441Y-129711090D01*
X141527431Y-129498890D01*
X141578440Y-129247000D01*
X141578440Y-127547000D01*
X141534162Y-127311683D01*
X141395090Y-127095559D01*
X141182890Y-126950569D01*
X141115459Y-126936914D01*
X141160147Y-126907054D01*
X141482054Y-126425285D01*
X141595093Y-125857000D01*
X141482054Y-125288715D01*
X141160147Y-124806946D01*
X140830974Y-124587000D01*
X141160147Y-124367054D01*
X141482054Y-123885285D01*
X141595093Y-123317000D01*
X141482054Y-122748715D01*
X141160147Y-122266946D01*
X140830974Y-122047000D01*
X141160147Y-121827054D01*
X141482054Y-121345285D01*
X141595093Y-120777000D01*
X141482054Y-120208715D01*
X141160147Y-119726946D01*
X140678378Y-119405039D01*
X140110093Y-119292000D01*
X140051907Y-119292000D01*
X139483622Y-119405039D01*
X139001853Y-119726946D01*
X138679946Y-120208715D01*
X138566907Y-120777000D01*
X61822440Y-120777000D01*
X61822440Y-119927000D01*
X61778162Y-119691683D01*
X61639090Y-119475559D01*
X61426890Y-119330569D01*
X61175000Y-119279560D01*
X59475000Y-119279560D01*
X59239683Y-119323838D01*
X59023559Y-119462910D01*
X58878569Y-119675110D01*
X58827560Y-119927000D01*
X58827560Y-121627000D01*
X58871838Y-121862317D01*
X59010910Y-122078441D01*
X59223110Y-122223431D01*
X59290541Y-122237086D01*
X59245853Y-122266946D01*
X58923946Y-122748715D01*
X58810907Y-123317000D01*
X58495000Y-123317000D01*
X58495000Y-116407000D01*
X65913000Y-116407000D01*
X66184705Y-116352954D01*
X66415046Y-116199046D01*
X66568954Y-115968705D01*
X66623000Y-115697000D01*
X66623000Y-108279000D01*
X133783000Y-108279000D01*
X133783000Y-115697000D01*
X133783000Y-115697000D01*
G37*
X133783000Y-115697000D02*
X133837046Y-115968705D01*
X133990954Y-116199046D01*
X134221295Y-116352954D01*
X134493000Y-116407000D01*
X141911000Y-116407000D01*
X141911000Y-208713000D01*
X140966805Y-208713000D01*
X141108644Y-208618226D01*
X141679841Y-207763371D01*
X141880418Y-206755000D01*
X141679841Y-205746629D01*
X141108644Y-204891774D01*
X140253789Y-204320577D01*
X139245418Y-204120000D01*
X138122582Y-204120000D01*
X137114211Y-204320577D01*
X136259356Y-204891774D01*
X135688159Y-205746629D01*
X135487582Y-206755000D01*
X135688159Y-207763371D01*
X136259356Y-208618226D01*
X136401195Y-208713000D01*
X134493000Y-208713000D01*
X134221295Y-208767046D01*
X133990954Y-208920954D01*
X133837046Y-209151295D01*
X133783000Y-209423000D01*
X133783000Y-216841000D01*
X66623000Y-216841000D01*
X66623000Y-213388000D01*
X91509275Y-213388000D01*
X91671792Y-214205029D01*
X92134602Y-214897673D01*
X92827246Y-215360483D01*
X93644275Y-215523000D01*
X94237725Y-215523000D01*
X95054754Y-215360483D01*
X95747398Y-214897673D01*
X96210208Y-214205029D01*
X96372725Y-213388000D01*
X97009275Y-213388000D01*
X97171792Y-214205029D01*
X97634602Y-214897673D01*
X98327246Y-215360483D01*
X99144275Y-215523000D01*
X99737725Y-215523000D01*
X100554754Y-215360483D01*
X101247398Y-214897673D01*
X101710208Y-214205029D01*
X101872725Y-213388000D01*
X102509275Y-213388000D01*
X102671792Y-214205029D01*
X103134602Y-214897673D01*
X103827246Y-215360483D01*
X104644275Y-215523000D01*
X105237725Y-215523000D01*
X106054754Y-215360483D01*
X106747398Y-214897673D01*
X107210208Y-214205029D01*
X107372725Y-213388000D01*
X107210208Y-212570971D01*
X106747398Y-211878327D01*
X106054754Y-211415517D01*
X105237725Y-211253000D01*
X104644275Y-211253000D01*
X103827246Y-211415517D01*
X103134602Y-211878327D01*
X102671792Y-212570971D01*
X102509275Y-213388000D01*
X101872725Y-213388000D01*
X101710208Y-212570971D01*
X101247398Y-211878327D01*
X100554754Y-211415517D01*
X99737725Y-211253000D01*
X99144275Y-211253000D01*
X98327246Y-211415517D01*
X97634602Y-211878327D01*
X97171792Y-212570971D01*
X97009275Y-213388000D01*
X96372725Y-213388000D01*
X96210208Y-212570971D01*
X95747398Y-211878327D01*
X95054754Y-211415517D01*
X94237725Y-211253000D01*
X93644275Y-211253000D01*
X92827246Y-211415517D01*
X92134602Y-211878327D01*
X91671792Y-212570971D01*
X91509275Y-213388000D01*
X66623000Y-213388000D01*
X66623000Y-209423000D01*
X66568954Y-209151295D01*
X66415046Y-208920954D01*
X66184705Y-208767046D01*
X65913000Y-208713000D01*
X64029674Y-208713000D01*
X64279029Y-208528424D01*
X64809024Y-207646038D01*
X64905667Y-207292162D01*
X64798991Y-206882000D01*
X61953000Y-206882000D01*
X61953000Y-206902000D01*
X61699000Y-206902000D01*
X61699000Y-206882000D01*
X58853009Y-206882000D01*
X58746333Y-207292162D01*
X58842976Y-207646038D01*
X59372971Y-208528424D01*
X59622326Y-208713000D01*
X58495000Y-208713000D01*
X58495000Y-206755000D01*
X71629582Y-206755000D01*
X71830159Y-207763371D01*
X72401356Y-208618226D01*
X73256211Y-209189423D01*
X74264582Y-209390000D01*
X75387418Y-209390000D01*
X76395789Y-209189423D01*
X76996559Y-208788000D01*
X91509275Y-208788000D01*
X91671792Y-209605029D01*
X92134602Y-210297673D01*
X92827246Y-210760483D01*
X93644275Y-210923000D01*
X94237725Y-210923000D01*
X95054754Y-210760483D01*
X95747398Y-210297673D01*
X96210208Y-209605029D01*
X96372725Y-208788000D01*
X97009275Y-208788000D01*
X97171792Y-209605029D01*
X97634602Y-210297673D01*
X98327246Y-210760483D01*
X99144275Y-210923000D01*
X99737725Y-210923000D01*
X100554754Y-210760483D01*
X101247398Y-210297673D01*
X101710208Y-209605029D01*
X101872725Y-208788000D01*
X102509275Y-208788000D01*
X102671792Y-209605029D01*
X103134602Y-210297673D01*
X103827246Y-210760483D01*
X104644275Y-210923000D01*
X105237725Y-210923000D01*
X106054754Y-210760483D01*
X106747398Y-210297673D01*
X107210208Y-209605029D01*
X107372725Y-208788000D01*
X107210208Y-207970971D01*
X106756643Y-207292162D01*
X122627333Y-207292162D01*
X122723976Y-207646038D01*
X123253971Y-208528424D01*
X124081296Y-209140822D01*
X125080000Y-209390000D01*
X125580000Y-209390000D01*
X125580000Y-206882000D01*
X125834000Y-206882000D01*
X125834000Y-209390000D01*
X126334000Y-209390000D01*
X127332704Y-209140822D01*
X128160029Y-208528424D01*
X128690024Y-207646038D01*
X128786667Y-207292162D01*
X128679991Y-206882000D01*
X125834000Y-206882000D01*
X125580000Y-206882000D01*
X122734009Y-206882000D01*
X122627333Y-207292162D01*
X106756643Y-207292162D01*
X106747398Y-207278327D01*
X106054754Y-206815517D01*
X105237725Y-206653000D01*
X104644275Y-206653000D01*
X103827246Y-206815517D01*
X103134602Y-207278327D01*
X102671792Y-207970971D01*
X102509275Y-208788000D01*
X101872725Y-208788000D01*
X101710208Y-207970971D01*
X101247398Y-207278327D01*
X100554754Y-206815517D01*
X99737725Y-206653000D01*
X99144275Y-206653000D01*
X98327246Y-206815517D01*
X97634602Y-207278327D01*
X97171792Y-207970971D01*
X97009275Y-208788000D01*
X96372725Y-208788000D01*
X96210208Y-207970971D01*
X95747398Y-207278327D01*
X95054754Y-206815517D01*
X94237725Y-206653000D01*
X93644275Y-206653000D01*
X92827246Y-206815517D01*
X92134602Y-207278327D01*
X91671792Y-207970971D01*
X91509275Y-208788000D01*
X76996559Y-208788000D01*
X77250644Y-208618226D01*
X77821841Y-207763371D01*
X78022418Y-206755000D01*
X77821841Y-205746629D01*
X77250644Y-204891774D01*
X76395789Y-204320577D01*
X75729278Y-204188000D01*
X91509275Y-204188000D01*
X91671792Y-205005029D01*
X92134602Y-205697673D01*
X92827246Y-206160483D01*
X93644275Y-206323000D01*
X94237725Y-206323000D01*
X95054754Y-206160483D01*
X95747398Y-205697673D01*
X96210208Y-205005029D01*
X96372725Y-204188000D01*
X97009275Y-204188000D01*
X97171792Y-205005029D01*
X97634602Y-205697673D01*
X98327246Y-206160483D01*
X99144275Y-206323000D01*
X99737725Y-206323000D01*
X100554754Y-206160483D01*
X101247398Y-205697673D01*
X101710208Y-205005029D01*
X101872725Y-204188000D01*
X102509275Y-204188000D01*
X102671792Y-205005029D01*
X103134602Y-205697673D01*
X103827246Y-206160483D01*
X104644275Y-206323000D01*
X105237725Y-206323000D01*
X105766410Y-206217838D01*
X122627333Y-206217838D01*
X122734009Y-206628000D01*
X125580000Y-206628000D01*
X125580000Y-204120000D01*
X125834000Y-204120000D01*
X125834000Y-206628000D01*
X128679991Y-206628000D01*
X128786667Y-206217838D01*
X128690024Y-205863962D01*
X128160029Y-204981576D01*
X127332704Y-204369178D01*
X126334000Y-204120000D01*
X125834000Y-204120000D01*
X125580000Y-204120000D01*
X125080000Y-204120000D01*
X124081296Y-204369178D01*
X123253971Y-204981576D01*
X122723976Y-205863962D01*
X122627333Y-206217838D01*
X105766410Y-206217838D01*
X106054754Y-206160483D01*
X106747398Y-205697673D01*
X107210208Y-205005029D01*
X107372725Y-204188000D01*
X107210208Y-203370971D01*
X106747398Y-202678327D01*
X106054754Y-202215517D01*
X105237725Y-202053000D01*
X104644275Y-202053000D01*
X103827246Y-202215517D01*
X103134602Y-202678327D01*
X102671792Y-203370971D01*
X102509275Y-204188000D01*
X101872725Y-204188000D01*
X101710208Y-203370971D01*
X101247398Y-202678327D01*
X100554754Y-202215517D01*
X99737725Y-202053000D01*
X99144275Y-202053000D01*
X98327246Y-202215517D01*
X97634602Y-202678327D01*
X97171792Y-203370971D01*
X97009275Y-204188000D01*
X96372725Y-204188000D01*
X96210208Y-203370971D01*
X95747398Y-202678327D01*
X95054754Y-202215517D01*
X94237725Y-202053000D01*
X93644275Y-202053000D01*
X92827246Y-202215517D01*
X92134602Y-202678327D01*
X91671792Y-203370971D01*
X91509275Y-204188000D01*
X75729278Y-204188000D01*
X75387418Y-204120000D01*
X74264582Y-204120000D01*
X73256211Y-204320577D01*
X72401356Y-204891774D01*
X71830159Y-205746629D01*
X71629582Y-206755000D01*
X58495000Y-206755000D01*
X58495000Y-206217838D01*
X58746333Y-206217838D01*
X58853009Y-206628000D01*
X61699000Y-206628000D01*
X61699000Y-204120000D01*
X61953000Y-204120000D01*
X61953000Y-206628000D01*
X64798991Y-206628000D01*
X64905667Y-206217838D01*
X64809024Y-205863962D01*
X64279029Y-204981576D01*
X63451704Y-204369178D01*
X62453000Y-204120000D01*
X61953000Y-204120000D01*
X61699000Y-204120000D01*
X61199000Y-204120000D01*
X60200296Y-204369178D01*
X59372971Y-204981576D01*
X58842976Y-205863962D01*
X58746333Y-206217838D01*
X58495000Y-206217838D01*
X58495000Y-200210167D01*
X94695838Y-200210167D01*
X94837883Y-200553943D01*
X95100673Y-200817192D01*
X95444201Y-200959838D01*
X95816167Y-200960162D01*
X96159943Y-200818117D01*
X96193118Y-200785000D01*
X97227537Y-200785000D01*
X97259673Y-200817192D01*
X97603201Y-200959838D01*
X97975167Y-200960162D01*
X98318943Y-200818117D01*
X98582192Y-200555327D01*
X98724838Y-200211799D01*
X98725162Y-199839833D01*
X98583117Y-199496057D01*
X98320327Y-199232808D01*
X97976799Y-199090162D01*
X97604833Y-199089838D01*
X97261057Y-199231883D01*
X97227882Y-199265000D01*
X96193463Y-199265000D01*
X96161327Y-199232808D01*
X95817799Y-199090162D01*
X95445833Y-199089838D01*
X95102057Y-199231883D01*
X94838808Y-199494673D01*
X94696162Y-199838201D01*
X94695838Y-200210167D01*
X58495000Y-200210167D01*
X58495000Y-196654167D01*
X113745838Y-196654167D01*
X113887883Y-196997943D01*
X114150673Y-197261192D01*
X114494201Y-197403838D01*
X114866167Y-197404162D01*
X114987569Y-197354000D01*
X116025178Y-197354000D01*
X116145201Y-197403838D01*
X116517167Y-197404162D01*
X116860943Y-197262117D01*
X117124192Y-196999327D01*
X117266838Y-196655799D01*
X117267162Y-196283833D01*
X117125117Y-195940057D01*
X116862327Y-195676808D01*
X116518799Y-195534162D01*
X116146833Y-195533838D01*
X116025431Y-195584000D01*
X114987822Y-195584000D01*
X114867799Y-195534162D01*
X114495833Y-195533838D01*
X114152057Y-195675883D01*
X113888808Y-195938673D01*
X113746162Y-196282201D01*
X113745838Y-196654167D01*
X58495000Y-196654167D01*
X58495000Y-193606167D01*
X80725838Y-193606167D01*
X80867883Y-193949943D01*
X81130673Y-194213192D01*
X81474201Y-194355838D01*
X81846167Y-194356162D01*
X82189943Y-194214117D01*
X82453192Y-193951327D01*
X82595838Y-193607799D01*
X82595879Y-193560923D01*
X83959680Y-192197122D01*
X84005167Y-192197162D01*
X84348943Y-192055117D01*
X84612192Y-191792327D01*
X84754838Y-191448799D01*
X84755162Y-191076833D01*
X84622184Y-190755000D01*
X122510582Y-190755000D01*
X122711159Y-191763371D01*
X123282356Y-192618226D01*
X124137211Y-193189423D01*
X125145582Y-193390000D01*
X126268418Y-193390000D01*
X127276789Y-193189423D01*
X128131644Y-192618226D01*
X128702841Y-191763371D01*
X128796570Y-191292162D01*
X135627333Y-191292162D01*
X135723976Y-191646038D01*
X136253971Y-192528424D01*
X137081296Y-193140822D01*
X138080000Y-193390000D01*
X138580000Y-193390000D01*
X138580000Y-190882000D01*
X138834000Y-190882000D01*
X138834000Y-193390000D01*
X139334000Y-193390000D01*
X140332704Y-193140822D01*
X141160029Y-192528424D01*
X141690024Y-191646038D01*
X141786667Y-191292162D01*
X141679991Y-190882000D01*
X138834000Y-190882000D01*
X138580000Y-190882000D01*
X135734009Y-190882000D01*
X135627333Y-191292162D01*
X128796570Y-191292162D01*
X128903418Y-190755000D01*
X128702841Y-189746629D01*
X128131644Y-188891774D01*
X127276789Y-188320577D01*
X126724165Y-188210653D01*
X127332704Y-188058822D01*
X128160029Y-187446424D01*
X128690024Y-186564038D01*
X128786667Y-186210162D01*
X128679991Y-185800000D01*
X125834000Y-185800000D01*
X125834000Y-185820000D01*
X125580000Y-185820000D01*
X125580000Y-185800000D01*
X122734009Y-185800000D01*
X122627333Y-186210162D01*
X122723976Y-186564038D01*
X123253971Y-187446424D01*
X124081296Y-188058822D01*
X124689835Y-188210653D01*
X124137211Y-188320577D01*
X123282356Y-188891774D01*
X122711159Y-189746629D01*
X122510582Y-190755000D01*
X84622184Y-190755000D01*
X84613117Y-190733057D01*
X84350327Y-190469808D01*
X84006799Y-190327162D01*
X83634833Y-190326838D01*
X83291057Y-190468883D01*
X83027808Y-190731673D01*
X82885162Y-191075201D01*
X82885121Y-191122077D01*
X81521320Y-192485878D01*
X81475833Y-192485838D01*
X81132057Y-192627883D01*
X80868808Y-192890673D01*
X80726162Y-193234201D01*
X80725838Y-193606167D01*
X58495000Y-193606167D01*
X58495000Y-190755000D01*
X58652582Y-190755000D01*
X58853159Y-191763371D01*
X59424356Y-192618226D01*
X60279211Y-193189423D01*
X61287582Y-193390000D01*
X62410418Y-193390000D01*
X63418789Y-193189423D01*
X64273644Y-192618226D01*
X64844841Y-191763371D01*
X65045418Y-190755000D01*
X71629582Y-190755000D01*
X71830159Y-191763371D01*
X72401356Y-192618226D01*
X73256211Y-193189423D01*
X74264582Y-193390000D01*
X75387418Y-193390000D01*
X76395789Y-193189423D01*
X77250644Y-192618226D01*
X77821841Y-191763371D01*
X78022418Y-190755000D01*
X77821841Y-189746629D01*
X77250644Y-188891774D01*
X76395789Y-188320577D01*
X75387418Y-188120000D01*
X74264582Y-188120000D01*
X73256211Y-188320577D01*
X72401356Y-188891774D01*
X71830159Y-189746629D01*
X71629582Y-190755000D01*
X65045418Y-190755000D01*
X64844841Y-189746629D01*
X64273644Y-188891774D01*
X63418789Y-188320577D01*
X62410418Y-188120000D01*
X61287582Y-188120000D01*
X60279211Y-188320577D01*
X59424356Y-188891774D01*
X58853159Y-189746629D01*
X58652582Y-190755000D01*
X58495000Y-190755000D01*
X58495000Y-185986167D01*
X106633838Y-185986167D01*
X106684000Y-186107569D01*
X106684000Y-187145178D01*
X106634162Y-187265201D01*
X106633838Y-187637167D01*
X106775883Y-187980943D01*
X107038673Y-188244192D01*
X107382201Y-188386838D01*
X107754167Y-188387162D01*
X108097943Y-188245117D01*
X108361192Y-187982327D01*
X108503838Y-187638799D01*
X108504162Y-187266833D01*
X108454000Y-187145431D01*
X108454000Y-186107822D01*
X108503838Y-185987799D01*
X108504112Y-185673000D01*
X135487582Y-185673000D01*
X135688159Y-186681371D01*
X136259356Y-187536226D01*
X137114211Y-188107423D01*
X137679633Y-188219892D01*
X137081296Y-188369178D01*
X136253971Y-188981576D01*
X135723976Y-189863962D01*
X135627333Y-190217838D01*
X135734009Y-190628000D01*
X138580000Y-190628000D01*
X138580000Y-190608000D01*
X138834000Y-190608000D01*
X138834000Y-190628000D01*
X141679991Y-190628000D01*
X141786667Y-190217838D01*
X141690024Y-189863962D01*
X141160029Y-188981576D01*
X140332704Y-188369178D01*
X139713962Y-188214801D01*
X140253789Y-188107423D01*
X141108644Y-187536226D01*
X141679841Y-186681371D01*
X141880418Y-185673000D01*
X141679841Y-184664629D01*
X141108644Y-183809774D01*
X140253789Y-183238577D01*
X139245418Y-183038000D01*
X138122582Y-183038000D01*
X137114211Y-183238577D01*
X136259356Y-183809774D01*
X135688159Y-184664629D01*
X135487582Y-185673000D01*
X108504112Y-185673000D01*
X108504162Y-185615833D01*
X108362117Y-185272057D01*
X108226136Y-185135838D01*
X122627333Y-185135838D01*
X122734009Y-185546000D01*
X125580000Y-185546000D01*
X125580000Y-183038000D01*
X125834000Y-183038000D01*
X125834000Y-185546000D01*
X128679991Y-185546000D01*
X128786667Y-185135838D01*
X128690024Y-184781962D01*
X128160029Y-183899576D01*
X127332704Y-183287178D01*
X126334000Y-183038000D01*
X125834000Y-183038000D01*
X125580000Y-183038000D01*
X125080000Y-183038000D01*
X124081296Y-183287178D01*
X123253971Y-183899576D01*
X122723976Y-184781962D01*
X122627333Y-185135838D01*
X108226136Y-185135838D01*
X108099327Y-185008808D01*
X107755799Y-184866162D01*
X107383833Y-184865838D01*
X107040057Y-185007883D01*
X106776808Y-185270673D01*
X106634162Y-185614201D01*
X106633838Y-185986167D01*
X58495000Y-185986167D01*
X58495000Y-180525167D01*
X120857838Y-180525167D01*
X120908000Y-180646569D01*
X120908000Y-183335178D01*
X120858162Y-183455201D01*
X120857838Y-183827167D01*
X120999883Y-184170943D01*
X121262673Y-184434192D01*
X121606201Y-184576838D01*
X121978167Y-184577162D01*
X122321943Y-184435117D01*
X122585192Y-184172327D01*
X122727838Y-183828799D01*
X122728162Y-183456833D01*
X122678000Y-183335431D01*
X122678000Y-180646822D01*
X122727838Y-180526799D01*
X122728162Y-180154833D01*
X122586117Y-179811057D01*
X122323327Y-179547808D01*
X121979799Y-179405162D01*
X121607833Y-179404838D01*
X121264057Y-179546883D01*
X121000808Y-179809673D01*
X120858162Y-180153201D01*
X120857838Y-180525167D01*
X58495000Y-180525167D01*
X58495000Y-169065000D01*
X59801560Y-169065000D01*
X59801560Y-172565000D01*
X59845838Y-172800317D01*
X59984910Y-173016441D01*
X60197110Y-173161431D01*
X60449000Y-173212440D01*
X63135045Y-173212440D01*
X62997559Y-173300910D01*
X62852569Y-173513110D01*
X62801560Y-173765000D01*
X62801560Y-177265000D01*
X62845838Y-177500317D01*
X62984910Y-177716441D01*
X63197110Y-177861431D01*
X63449000Y-177912440D01*
X66949000Y-177912440D01*
X67184317Y-177868162D01*
X67400441Y-177729090D01*
X67545431Y-177516890D01*
X67596440Y-177265000D01*
X67596440Y-173765000D01*
X67552162Y-173529683D01*
X67413090Y-173313559D01*
X67246891Y-173200000D01*
X67913250Y-173200000D01*
X68072000Y-173041250D01*
X68072000Y-170942000D01*
X68326000Y-170942000D01*
X68326000Y-173041250D01*
X68484750Y-173200000D01*
X70075309Y-173200000D01*
X70308698Y-173103327D01*
X70487327Y-172924699D01*
X70584000Y-172691310D01*
X70584000Y-171100750D01*
X70425250Y-170942000D01*
X68326000Y-170942000D01*
X68072000Y-170942000D01*
X65972750Y-170942000D01*
X65814000Y-171100750D01*
X65814000Y-172691310D01*
X65910673Y-172924699D01*
X66089302Y-173103327D01*
X66123663Y-173117560D01*
X64262955Y-173117560D01*
X64400441Y-173029090D01*
X64545431Y-172816890D01*
X64596440Y-172565000D01*
X64596440Y-169065000D01*
X64572674Y-168938690D01*
X65814000Y-168938690D01*
X65814000Y-170529250D01*
X65972750Y-170688000D01*
X68072000Y-170688000D01*
X68072000Y-168588750D01*
X68326000Y-168588750D01*
X68326000Y-170688000D01*
X70425250Y-170688000D01*
X70584000Y-170529250D01*
X70584000Y-169673000D01*
X122510582Y-169673000D01*
X122711159Y-170681371D01*
X123282356Y-171536226D01*
X124137211Y-172107423D01*
X125145582Y-172308000D01*
X126268418Y-172308000D01*
X127276789Y-172107423D01*
X128131644Y-171536226D01*
X128702841Y-170681371D01*
X128796570Y-170210162D01*
X135627333Y-170210162D01*
X135723976Y-170564038D01*
X136253971Y-171446424D01*
X137081296Y-172058822D01*
X138080000Y-172308000D01*
X138580000Y-172308000D01*
X138580000Y-169800000D01*
X138834000Y-169800000D01*
X138834000Y-172308000D01*
X139334000Y-172308000D01*
X140332704Y-172058822D01*
X141160029Y-171446424D01*
X141690024Y-170564038D01*
X141786667Y-170210162D01*
X141679991Y-169800000D01*
X138834000Y-169800000D01*
X138580000Y-169800000D01*
X135734009Y-169800000D01*
X135627333Y-170210162D01*
X128796570Y-170210162D01*
X128903418Y-169673000D01*
X128796571Y-169135838D01*
X135627333Y-169135838D01*
X135734009Y-169546000D01*
X138580000Y-169546000D01*
X138580000Y-167038000D01*
X138834000Y-167038000D01*
X138834000Y-169546000D01*
X141679991Y-169546000D01*
X141786667Y-169135838D01*
X141690024Y-168781962D01*
X141160029Y-167899576D01*
X140332704Y-167287178D01*
X139334000Y-167038000D01*
X138834000Y-167038000D01*
X138580000Y-167038000D01*
X138080000Y-167038000D01*
X137081296Y-167287178D01*
X136253971Y-167899576D01*
X135723976Y-168781962D01*
X135627333Y-169135838D01*
X128796571Y-169135838D01*
X128702841Y-168664629D01*
X128131644Y-167809774D01*
X127276789Y-167238577D01*
X126268418Y-167038000D01*
X125145582Y-167038000D01*
X124137211Y-167238577D01*
X123282356Y-167809774D01*
X122711159Y-168664629D01*
X122510582Y-169673000D01*
X70584000Y-169673000D01*
X70584000Y-168938690D01*
X70487327Y-168705301D01*
X70308698Y-168526673D01*
X70075309Y-168430000D01*
X68484750Y-168430000D01*
X68326000Y-168588750D01*
X68072000Y-168588750D01*
X67913250Y-168430000D01*
X66322691Y-168430000D01*
X66089302Y-168526673D01*
X65910673Y-168705301D01*
X65814000Y-168938690D01*
X64572674Y-168938690D01*
X64552162Y-168829683D01*
X64413090Y-168613559D01*
X64200890Y-168468569D01*
X63949000Y-168417560D01*
X60449000Y-168417560D01*
X60213683Y-168461838D01*
X59997559Y-168600910D01*
X59852569Y-168813110D01*
X59801560Y-169065000D01*
X58495000Y-169065000D01*
X58495000Y-162599000D01*
X58827560Y-162599000D01*
X58827560Y-164299000D01*
X58871838Y-164534317D01*
X59010910Y-164750441D01*
X59223110Y-164895431D01*
X59475000Y-164946440D01*
X61175000Y-164946440D01*
X61410317Y-164902162D01*
X61626441Y-164763090D01*
X61771431Y-164550890D01*
X61822440Y-164299000D01*
X61822440Y-162599000D01*
X61778162Y-162363683D01*
X61639090Y-162147559D01*
X61426890Y-162002569D01*
X61318893Y-161980699D01*
X61596645Y-161675924D01*
X61766476Y-161265890D01*
X61645155Y-161036000D01*
X60452000Y-161036000D01*
X60452000Y-161056000D01*
X60198000Y-161056000D01*
X60198000Y-161036000D01*
X59004845Y-161036000D01*
X58883524Y-161265890D01*
X59053355Y-161675924D01*
X59329501Y-161978937D01*
X59239683Y-161995838D01*
X59023559Y-162134910D01*
X58878569Y-162347110D01*
X58827560Y-162599000D01*
X58495000Y-162599000D01*
X58495000Y-155829000D01*
X58810907Y-155829000D01*
X58923946Y-156397285D01*
X59245853Y-156879054D01*
X59575026Y-157099000D01*
X59245853Y-157318946D01*
X58923946Y-157800715D01*
X58810907Y-158369000D01*
X58923946Y-158937285D01*
X59245853Y-159419054D01*
X59586553Y-159646702D01*
X59443642Y-159713817D01*
X59053355Y-160142076D01*
X58883524Y-160552110D01*
X59004845Y-160782000D01*
X60198000Y-160782000D01*
X60198000Y-160762000D01*
X60452000Y-160762000D01*
X60452000Y-160782000D01*
X61645155Y-160782000D01*
X61766476Y-160552110D01*
X61675379Y-160332167D01*
X79836838Y-160332167D01*
X79978883Y-160675943D01*
X80241673Y-160939192D01*
X80585201Y-161081838D01*
X80957167Y-161082162D01*
X81300943Y-160940117D01*
X81564192Y-160677327D01*
X81614566Y-160556014D01*
X84101834Y-158068745D01*
X84221943Y-158019117D01*
X84485192Y-157756327D01*
X84627838Y-157412799D01*
X84628162Y-157040833D01*
X84486117Y-156697057D01*
X84223327Y-156433808D01*
X83879799Y-156291162D01*
X83507833Y-156290838D01*
X83164057Y-156432883D01*
X82900808Y-156695673D01*
X82850434Y-156816987D01*
X80363164Y-159304256D01*
X80243057Y-159353883D01*
X79979808Y-159616673D01*
X79837162Y-159960201D01*
X79836838Y-160332167D01*
X61675379Y-160332167D01*
X61596645Y-160142076D01*
X61206358Y-159713817D01*
X61063447Y-159646702D01*
X61404147Y-159419054D01*
X61726054Y-158937285D01*
X61839093Y-158369000D01*
X61726054Y-157800715D01*
X61404147Y-157318946D01*
X61074974Y-157099000D01*
X61404147Y-156879054D01*
X61726054Y-156397285D01*
X61839093Y-155829000D01*
X61726054Y-155260715D01*
X61426902Y-154813000D01*
X138566907Y-154813000D01*
X138679946Y-155381285D01*
X139001853Y-155863054D01*
X139331026Y-156083000D01*
X139001853Y-156302946D01*
X138679946Y-156784715D01*
X138566907Y-157353000D01*
X138679946Y-157921285D01*
X139001853Y-158403054D01*
X139331026Y-158623000D01*
X139001853Y-158842946D01*
X138679946Y-159324715D01*
X138566907Y-159893000D01*
X138679946Y-160461285D01*
X139001853Y-160943054D01*
X139331026Y-161163000D01*
X139001853Y-161382946D01*
X138679946Y-161864715D01*
X138566907Y-162433000D01*
X138679946Y-163001285D01*
X139001853Y-163483054D01*
X139331026Y-163703000D01*
X139001853Y-163922946D01*
X138679946Y-164404715D01*
X138566907Y-164973000D01*
X138679946Y-165541285D01*
X139001853Y-166023054D01*
X139483622Y-166344961D01*
X140051907Y-166458000D01*
X140110093Y-166458000D01*
X140678378Y-166344961D01*
X141160147Y-166023054D01*
X141482054Y-165541285D01*
X141595093Y-164973000D01*
X141482054Y-164404715D01*
X141160147Y-163922946D01*
X140830974Y-163703000D01*
X141160147Y-163483054D01*
X141482054Y-163001285D01*
X141595093Y-162433000D01*
X141482054Y-161864715D01*
X141160147Y-161382946D01*
X140830974Y-161163000D01*
X141160147Y-160943054D01*
X141482054Y-160461285D01*
X141595093Y-159893000D01*
X141482054Y-159324715D01*
X141160147Y-158842946D01*
X140830974Y-158623000D01*
X141160147Y-158403054D01*
X141482054Y-157921285D01*
X141595093Y-157353000D01*
X141482054Y-156784715D01*
X141160147Y-156302946D01*
X140830974Y-156083000D01*
X141160147Y-155863054D01*
X141482054Y-155381285D01*
X141595093Y-154813000D01*
X141482054Y-154244715D01*
X141160147Y-153762946D01*
X141118548Y-153735150D01*
X141166317Y-153726162D01*
X141382441Y-153587090D01*
X141527431Y-153374890D01*
X141578440Y-153123000D01*
X141578440Y-151423000D01*
X141534162Y-151187683D01*
X141395090Y-150971559D01*
X141182890Y-150826569D01*
X140931000Y-150775560D01*
X139231000Y-150775560D01*
X138995683Y-150819838D01*
X138779559Y-150958910D01*
X138634569Y-151171110D01*
X138583560Y-151423000D01*
X138583560Y-153123000D01*
X138627838Y-153358317D01*
X138766910Y-153574441D01*
X138979110Y-153719431D01*
X139046541Y-153733086D01*
X139001853Y-153762946D01*
X138679946Y-154244715D01*
X138566907Y-154813000D01*
X61426902Y-154813000D01*
X61404147Y-154778946D01*
X60922378Y-154457039D01*
X60354093Y-154344000D01*
X60295907Y-154344000D01*
X59727622Y-154457039D01*
X59245853Y-154778946D01*
X58923946Y-155260715D01*
X58810907Y-155829000D01*
X58495000Y-155829000D01*
X58495000Y-141097000D01*
X58810907Y-141097000D01*
X58923946Y-141665285D01*
X59245853Y-142147054D01*
X59575026Y-142367000D01*
X59245853Y-142586946D01*
X58923946Y-143068715D01*
X58810907Y-143637000D01*
X58923946Y-144205285D01*
X59245853Y-144687054D01*
X59575026Y-144907000D01*
X59245853Y-145126946D01*
X58923946Y-145608715D01*
X58810907Y-146177000D01*
X58923946Y-146745285D01*
X59245853Y-147227054D01*
X59727622Y-147548961D01*
X60295907Y-147662000D01*
X60354093Y-147662000D01*
X60922378Y-147548961D01*
X60987920Y-147505167D01*
X124540838Y-147505167D01*
X124682883Y-147848943D01*
X124945673Y-148112192D01*
X125289201Y-148254838D01*
X125661167Y-148255162D01*
X125782569Y-148205000D01*
X127836178Y-148205000D01*
X127956201Y-148254838D01*
X128328167Y-148255162D01*
X128671943Y-148113117D01*
X128935192Y-147850327D01*
X129077838Y-147506799D01*
X129078111Y-147193000D01*
X138566907Y-147193000D01*
X138679946Y-147761285D01*
X139001853Y-148243054D01*
X139483622Y-148564961D01*
X140051907Y-148678000D01*
X140110093Y-148678000D01*
X140678378Y-148564961D01*
X141160147Y-148243054D01*
X141482054Y-147761285D01*
X141595093Y-147193000D01*
X141482054Y-146624715D01*
X141160147Y-146142946D01*
X140819447Y-145915298D01*
X140962358Y-145848183D01*
X141352645Y-145419924D01*
X141522476Y-145009890D01*
X141401155Y-144780000D01*
X140208000Y-144780000D01*
X140208000Y-144800000D01*
X139954000Y-144800000D01*
X139954000Y-144780000D01*
X138760845Y-144780000D01*
X138639524Y-145009890D01*
X138809355Y-145419924D01*
X139199642Y-145848183D01*
X139342553Y-145915298D01*
X139001853Y-146142946D01*
X138679946Y-146624715D01*
X138566907Y-147193000D01*
X129078111Y-147193000D01*
X129078162Y-147134833D01*
X128936117Y-146791057D01*
X128673327Y-146527808D01*
X128329799Y-146385162D01*
X127957833Y-146384838D01*
X127836431Y-146435000D01*
X125782822Y-146435000D01*
X125662799Y-146385162D01*
X125290833Y-146384838D01*
X124947057Y-146526883D01*
X124683808Y-146789673D01*
X124541162Y-147133201D01*
X124540838Y-147505167D01*
X60987920Y-147505167D01*
X61404147Y-147227054D01*
X61726054Y-146745285D01*
X61839093Y-146177000D01*
X61726054Y-145608715D01*
X61404147Y-145126946D01*
X61074974Y-144907000D01*
X61404147Y-144687054D01*
X61726054Y-144205285D01*
X61839093Y-143637000D01*
X61726054Y-143068715D01*
X61404147Y-142586946D01*
X61074974Y-142367000D01*
X61404147Y-142147054D01*
X61726054Y-141665285D01*
X61839093Y-141097000D01*
X61726054Y-140528715D01*
X61404147Y-140046946D01*
X61362548Y-140019150D01*
X61410317Y-140010162D01*
X61626441Y-139871090D01*
X61771431Y-139658890D01*
X61822440Y-139407000D01*
X61822440Y-137707000D01*
X61778162Y-137471683D01*
X61639090Y-137255559D01*
X61426890Y-137110569D01*
X61175000Y-137059560D01*
X59475000Y-137059560D01*
X59239683Y-137103838D01*
X59023559Y-137242910D01*
X58878569Y-137455110D01*
X58827560Y-137707000D01*
X58827560Y-139407000D01*
X58871838Y-139642317D01*
X59010910Y-139858441D01*
X59223110Y-140003431D01*
X59290541Y-140017086D01*
X59245853Y-140046946D01*
X58923946Y-140528715D01*
X58810907Y-141097000D01*
X58495000Y-141097000D01*
X58495000Y-136282750D01*
X66685000Y-136282750D01*
X66685000Y-136873309D01*
X66781673Y-137106698D01*
X66960301Y-137285327D01*
X67193690Y-137382000D01*
X67659250Y-137382000D01*
X67818000Y-137223250D01*
X67818000Y-136124000D01*
X68072000Y-136124000D01*
X68072000Y-137223250D01*
X68230750Y-137382000D01*
X68696310Y-137382000D01*
X68929699Y-137285327D01*
X68996858Y-137218167D01*
X133049838Y-137218167D01*
X133191883Y-137561943D01*
X133454673Y-137825192D01*
X133798201Y-137967838D01*
X134170167Y-137968162D01*
X134513943Y-137826117D01*
X134547118Y-137793000D01*
X138808046Y-137793000D01*
X139001853Y-138083054D01*
X139331026Y-138303000D01*
X139001853Y-138522946D01*
X138679946Y-139004715D01*
X138566907Y-139573000D01*
X138679946Y-140141285D01*
X139001853Y-140623054D01*
X139331026Y-140843000D01*
X139001853Y-141062946D01*
X138679946Y-141544715D01*
X138566907Y-142113000D01*
X138679946Y-142681285D01*
X139001853Y-143163054D01*
X139342553Y-143390702D01*
X139199642Y-143457817D01*
X138809355Y-143886076D01*
X138639524Y-144296110D01*
X138760845Y-144526000D01*
X139954000Y-144526000D01*
X139954000Y-144506000D01*
X140208000Y-144506000D01*
X140208000Y-144526000D01*
X141401155Y-144526000D01*
X141522476Y-144296110D01*
X141352645Y-143886076D01*
X140962358Y-143457817D01*
X140819447Y-143390702D01*
X141160147Y-143163054D01*
X141482054Y-142681285D01*
X141595093Y-142113000D01*
X141482054Y-141544715D01*
X141160147Y-141062946D01*
X140830974Y-140843000D01*
X141160147Y-140623054D01*
X141482054Y-140141285D01*
X141595093Y-139573000D01*
X141482054Y-139004715D01*
X141160147Y-138522946D01*
X140830974Y-138303000D01*
X141160147Y-138083054D01*
X141482054Y-137601285D01*
X141595093Y-137033000D01*
X141482054Y-136464715D01*
X141160147Y-135982946D01*
X141118548Y-135955150D01*
X141166317Y-135946162D01*
X141382441Y-135807090D01*
X141527431Y-135594890D01*
X141578440Y-135343000D01*
X141578440Y-133643000D01*
X141534162Y-133407683D01*
X141395090Y-133191559D01*
X141182890Y-133046569D01*
X140931000Y-132995560D01*
X139231000Y-132995560D01*
X138995683Y-133039838D01*
X138779559Y-133178910D01*
X138634569Y-133391110D01*
X138583560Y-133643000D01*
X138583560Y-135343000D01*
X138627838Y-135578317D01*
X138766910Y-135794441D01*
X138979110Y-135939431D01*
X139046541Y-135953086D01*
X139001853Y-135982946D01*
X138808046Y-136273000D01*
X134547463Y-136273000D01*
X134515327Y-136240808D01*
X134171799Y-136098162D01*
X133799833Y-136097838D01*
X133456057Y-136239883D01*
X133192808Y-136502673D01*
X133050162Y-136846201D01*
X133049838Y-137218167D01*
X68996858Y-137218167D01*
X69108327Y-137106698D01*
X69205000Y-136873309D01*
X69205000Y-136282750D01*
X69046250Y-136124000D01*
X68072000Y-136124000D01*
X67818000Y-136124000D01*
X66843750Y-136124000D01*
X66685000Y-136282750D01*
X58495000Y-136282750D01*
X58495000Y-134932167D01*
X63326838Y-134932167D01*
X63468883Y-135275943D01*
X63731673Y-135539192D01*
X64075201Y-135681838D01*
X64447167Y-135682162D01*
X64790943Y-135540117D01*
X64824118Y-135507000D01*
X65350537Y-135507000D01*
X65382673Y-135539192D01*
X65726201Y-135681838D01*
X66098167Y-135682162D01*
X66441943Y-135540117D01*
X66685000Y-135297484D01*
X66685000Y-135711250D01*
X66843750Y-135870000D01*
X67818000Y-135870000D01*
X67818000Y-135850000D01*
X68072000Y-135850000D01*
X68072000Y-135870000D01*
X69046250Y-135870000D01*
X69205000Y-135711250D01*
X69205000Y-135120691D01*
X69108327Y-134887302D01*
X68967090Y-134746064D01*
X69021441Y-134711090D01*
X69166431Y-134498890D01*
X69217440Y-134247000D01*
X69217440Y-134031003D01*
X69400167Y-134031162D01*
X69743943Y-133889117D01*
X70007192Y-133626327D01*
X70149838Y-133282799D01*
X70150162Y-132910833D01*
X70008117Y-132567057D01*
X69745327Y-132303808D01*
X69401799Y-132161162D01*
X69029833Y-132160838D01*
X68909617Y-132210510D01*
X68821890Y-132150569D01*
X68570000Y-132099560D01*
X67320000Y-132099560D01*
X67084683Y-132143838D01*
X66868559Y-132282910D01*
X66723569Y-132495110D01*
X66672560Y-132747000D01*
X66672560Y-134184441D01*
X66443327Y-133954808D01*
X66099799Y-133812162D01*
X65727833Y-133811838D01*
X65384057Y-133953883D01*
X65350882Y-133987000D01*
X64824463Y-133987000D01*
X64792327Y-133954808D01*
X64448799Y-133812162D01*
X64076833Y-133811838D01*
X63733057Y-133953883D01*
X63469808Y-134216673D01*
X63327162Y-134560201D01*
X63326838Y-134932167D01*
X58495000Y-134932167D01*
X58495000Y-128397000D01*
X58810907Y-128397000D01*
X58923946Y-128965285D01*
X59245853Y-129447054D01*
X59727622Y-129768961D01*
X60295907Y-129882000D01*
X60354093Y-129882000D01*
X60922378Y-129768961D01*
X61404147Y-129447054D01*
X61726054Y-128965285D01*
X61839093Y-128397000D01*
X61825402Y-128328167D01*
X85932838Y-128328167D01*
X86074883Y-128671943D01*
X86337673Y-128935192D01*
X86676168Y-129075748D01*
X91232255Y-133631834D01*
X91281883Y-133751943D01*
X91544673Y-134015192D01*
X91888201Y-134157838D01*
X92260167Y-134158162D01*
X92603943Y-134016117D01*
X92867192Y-133753327D01*
X93009838Y-133409799D01*
X93010162Y-133037833D01*
X92868117Y-132694057D01*
X92605327Y-132430808D01*
X92484013Y-132380434D01*
X87620790Y-127517210D01*
X87451562Y-127404136D01*
X87398327Y-127350808D01*
X87054799Y-127208162D01*
X86682833Y-127207838D01*
X86339057Y-127349883D01*
X86075808Y-127612673D01*
X85933162Y-127956201D01*
X85932838Y-128328167D01*
X61825402Y-128328167D01*
X61726054Y-127828715D01*
X61404147Y-127346946D01*
X61162028Y-127185167D01*
X87710838Y-127185167D01*
X87852883Y-127528943D01*
X88115673Y-127792192D01*
X88236986Y-127842566D01*
X91613255Y-131218834D01*
X91662883Y-131338943D01*
X91925673Y-131602192D01*
X92269201Y-131744838D01*
X92641167Y-131745162D01*
X92984943Y-131603117D01*
X93248192Y-131340327D01*
X93390838Y-130996799D01*
X93391060Y-130741167D01*
X110062838Y-130741167D01*
X110204883Y-131084943D01*
X110238000Y-131118118D01*
X110238000Y-131644537D01*
X110205808Y-131676673D01*
X110063162Y-132020201D01*
X110062838Y-132392167D01*
X110204883Y-132735943D01*
X110467673Y-132999192D01*
X110811201Y-133141838D01*
X111183167Y-133142162D01*
X111526943Y-133000117D01*
X111790192Y-132737327D01*
X111932838Y-132393799D01*
X111933162Y-132021833D01*
X111791117Y-131678057D01*
X111758000Y-131644882D01*
X111758000Y-131118463D01*
X111790192Y-131086327D01*
X111932838Y-130742799D01*
X111933162Y-130370833D01*
X111791117Y-130027057D01*
X111528327Y-129763808D01*
X111184799Y-129621162D01*
X110812833Y-129620838D01*
X110469057Y-129762883D01*
X110205808Y-130025673D01*
X110063162Y-130369201D01*
X110062838Y-130741167D01*
X93391060Y-130741167D01*
X93391162Y-130624833D01*
X93249117Y-130281057D01*
X92986327Y-130017808D01*
X92865013Y-129967434D01*
X91225747Y-128328167D01*
X133049838Y-128328167D01*
X133191883Y-128671943D01*
X133424709Y-128905176D01*
X133192808Y-129136673D01*
X133050162Y-129480201D01*
X133049838Y-129852167D01*
X133191883Y-130195943D01*
X133297710Y-130301954D01*
X133192808Y-130406673D01*
X133050162Y-130750201D01*
X133049838Y-131122167D01*
X133191883Y-131465943D01*
X133454673Y-131729192D01*
X133798201Y-131871838D01*
X134170167Y-131872162D01*
X134513943Y-131730117D01*
X134547118Y-131697000D01*
X135708537Y-131697000D01*
X135740673Y-131729192D01*
X136084201Y-131871838D01*
X136456167Y-131872162D01*
X136799943Y-131730117D01*
X137063192Y-131467327D01*
X137205838Y-131123799D01*
X137206162Y-130751833D01*
X137064117Y-130408057D01*
X136958290Y-130302046D01*
X137063192Y-130197327D01*
X137205838Y-129853799D01*
X137206162Y-129481833D01*
X137064117Y-129138057D01*
X136831291Y-128904824D01*
X137063192Y-128673327D01*
X137205838Y-128329799D01*
X137206162Y-127957833D01*
X137064117Y-127614057D01*
X136801327Y-127350808D01*
X136457799Y-127208162D01*
X136085833Y-127207838D01*
X135742057Y-127349883D01*
X135708882Y-127383000D01*
X134547463Y-127383000D01*
X134515327Y-127350808D01*
X134171799Y-127208162D01*
X133799833Y-127207838D01*
X133456057Y-127349883D01*
X133192808Y-127612673D01*
X133050162Y-127956201D01*
X133049838Y-128328167D01*
X91225747Y-128328167D01*
X89488744Y-126591164D01*
X89439117Y-126471057D01*
X89176327Y-126207808D01*
X88832799Y-126065162D01*
X88460833Y-126064838D01*
X88117057Y-126206883D01*
X87853808Y-126469673D01*
X87711162Y-126813201D01*
X87710838Y-127185167D01*
X61162028Y-127185167D01*
X61063447Y-127119298D01*
X61206358Y-127052183D01*
X61596645Y-126623924D01*
X61766476Y-126213890D01*
X61645155Y-125984000D01*
X60452000Y-125984000D01*
X60452000Y-126004000D01*
X60198000Y-126004000D01*
X60198000Y-125984000D01*
X59004845Y-125984000D01*
X58883524Y-126213890D01*
X59053355Y-126623924D01*
X59443642Y-127052183D01*
X59586553Y-127119298D01*
X59245853Y-127346946D01*
X58923946Y-127828715D01*
X58810907Y-128397000D01*
X58495000Y-128397000D01*
X58495000Y-123317000D01*
X58810907Y-123317000D01*
X58923946Y-123885285D01*
X59245853Y-124367054D01*
X59586553Y-124594702D01*
X59443642Y-124661817D01*
X59053355Y-125090076D01*
X58883524Y-125500110D01*
X59004845Y-125730000D01*
X60198000Y-125730000D01*
X60198000Y-125710000D01*
X60452000Y-125710000D01*
X60452000Y-125730000D01*
X61645155Y-125730000D01*
X61766476Y-125500110D01*
X61596645Y-125090076D01*
X61206358Y-124661817D01*
X61063447Y-124594702D01*
X61404147Y-124367054D01*
X61726054Y-123885285D01*
X61839093Y-123317000D01*
X61726054Y-122748715D01*
X61404147Y-122266946D01*
X61362548Y-122239150D01*
X61410317Y-122230162D01*
X61626441Y-122091090D01*
X61771431Y-121878890D01*
X61822440Y-121627000D01*
X61822440Y-120777000D01*
X138566907Y-120777000D01*
X138679946Y-121345285D01*
X139001853Y-121827054D01*
X139331026Y-122047000D01*
X139001853Y-122266946D01*
X138679946Y-122748715D01*
X138566907Y-123317000D01*
X138679946Y-123885285D01*
X139001853Y-124367054D01*
X139331026Y-124587000D01*
X139001853Y-124806946D01*
X138679946Y-125288715D01*
X138566907Y-125857000D01*
X138679946Y-126425285D01*
X139001853Y-126907054D01*
X139043452Y-126934850D01*
X138995683Y-126943838D01*
X138779559Y-127082910D01*
X138634569Y-127295110D01*
X138583560Y-127547000D01*
X138583560Y-129247000D01*
X138627838Y-129482317D01*
X138766910Y-129698441D01*
X138979110Y-129843431D01*
X139231000Y-129894440D01*
X140931000Y-129894440D01*
X141166317Y-129850162D01*
X141382441Y-129711090D01*
X141527431Y-129498890D01*
X141578440Y-129247000D01*
X141578440Y-127547000D01*
X141534162Y-127311683D01*
X141395090Y-127095559D01*
X141182890Y-126950569D01*
X141115459Y-126936914D01*
X141160147Y-126907054D01*
X141482054Y-126425285D01*
X141595093Y-125857000D01*
X141482054Y-125288715D01*
X141160147Y-124806946D01*
X140830974Y-124587000D01*
X141160147Y-124367054D01*
X141482054Y-123885285D01*
X141595093Y-123317000D01*
X141482054Y-122748715D01*
X141160147Y-122266946D01*
X140830974Y-122047000D01*
X141160147Y-121827054D01*
X141482054Y-121345285D01*
X141595093Y-120777000D01*
X141482054Y-120208715D01*
X141160147Y-119726946D01*
X140678378Y-119405039D01*
X140110093Y-119292000D01*
X140051907Y-119292000D01*
X139483622Y-119405039D01*
X139001853Y-119726946D01*
X138679946Y-120208715D01*
X138566907Y-120777000D01*
X61822440Y-120777000D01*
X61822440Y-119927000D01*
X61778162Y-119691683D01*
X61639090Y-119475559D01*
X61426890Y-119330569D01*
X61175000Y-119279560D01*
X59475000Y-119279560D01*
X59239683Y-119323838D01*
X59023559Y-119462910D01*
X58878569Y-119675110D01*
X58827560Y-119927000D01*
X58827560Y-121627000D01*
X58871838Y-121862317D01*
X59010910Y-122078441D01*
X59223110Y-122223431D01*
X59290541Y-122237086D01*
X59245853Y-122266946D01*
X58923946Y-122748715D01*
X58810907Y-123317000D01*
X58495000Y-123317000D01*
X58495000Y-116407000D01*
X65913000Y-116407000D01*
X66184705Y-116352954D01*
X66415046Y-116199046D01*
X66568954Y-115968705D01*
X66623000Y-115697000D01*
X66623000Y-108279000D01*
X133783000Y-108279000D01*
X133783000Y-115697000D01*
M02*
