G04 #@! TF.FileFunction,Legend,Top*
%FSLAX46Y46*%
G04 Gerber Fmt 4.6, Leading zero omitted, Abs format (unit mm)*
G04 Created by KiCad (PCBNEW 4.0.7) date Sunday, 08 April 2018 'PMt' 12:22:29*
%MOMM*%
%LPD*%
G01*
G04 APERTURE LIST*
%ADD10C,0.100000*%
%ADD11C,0.200000*%
%ADD12C,0.120000*%
%ADD13C,0.150000*%
%ADD14C,0.015000*%
G04 APERTURE END LIST*
D10*
D11*
X105134531Y-189103000D02*
G75*
G03X105134531Y-189103000I-740531J0D01*
G01*
X93555420Y-145669000D02*
G75*
G03X93555420Y-145669000I-718420J0D01*
G01*
X79331420Y-121539000D02*
G75*
G03X79331420Y-121539000I-718420J0D01*
G01*
X93745920Y-124142500D02*
G75*
G03X93745920Y-124142500I-718420J0D01*
G01*
X71247000Y-180594000D02*
G75*
G03X71247000Y-180594000I-635000J0D01*
G01*
D12*
X84205000Y-175129000D02*
X84205000Y-174729000D01*
X79625000Y-175899000D02*
X79625000Y-174729000D01*
X79625000Y-171319000D02*
X79625000Y-172489000D01*
X84205000Y-172089000D02*
X84205000Y-172489000D01*
X83435000Y-171319000D02*
X79625000Y-171319000D01*
X83435000Y-171319000D02*
X84205000Y-172089000D01*
X83435000Y-175899000D02*
X79625000Y-175899000D01*
X83435000Y-175899000D02*
X84205000Y-175129000D01*
X80268000Y-112962500D02*
X80268000Y-112562500D01*
X75688000Y-113732500D02*
X75688000Y-112562500D01*
X75688000Y-109152500D02*
X75688000Y-110322500D01*
X80268000Y-109922500D02*
X80268000Y-110322500D01*
X79498000Y-109152500D02*
X75688000Y-109152500D01*
X79498000Y-109152500D02*
X80268000Y-109922500D01*
X79498000Y-113732500D02*
X75688000Y-113732500D01*
X79498000Y-113732500D02*
X80268000Y-112962500D01*
X79625000Y-178439000D02*
X79625000Y-178839000D01*
X84205000Y-177669000D02*
X84205000Y-178839000D01*
X84205000Y-182249000D02*
X84205000Y-181079000D01*
X79625000Y-181479000D02*
X79625000Y-181079000D01*
X80395000Y-182249000D02*
X84205000Y-182249000D01*
X80395000Y-182249000D02*
X79625000Y-181479000D01*
X80395000Y-177669000D02*
X84205000Y-177669000D01*
X80395000Y-177669000D02*
X79625000Y-178439000D01*
X88396000Y-112962500D02*
X88396000Y-112562500D01*
X83816000Y-113732500D02*
X83816000Y-112562500D01*
X83816000Y-109152500D02*
X83816000Y-110322500D01*
X88396000Y-109922500D02*
X88396000Y-110322500D01*
X87626000Y-109152500D02*
X83816000Y-109152500D01*
X87626000Y-109152500D02*
X88396000Y-109922500D01*
X87626000Y-113732500D02*
X83816000Y-113732500D01*
X87626000Y-113732500D02*
X88396000Y-112962500D01*
D13*
X106795000Y-147027000D02*
X107795000Y-147027000D01*
X107795000Y-145327000D02*
X106795000Y-145327000D01*
X100115000Y-195969000D02*
X100115000Y-196969000D01*
X101815000Y-196969000D02*
X101815000Y-195969000D01*
X127977000Y-124960000D02*
X127977000Y-123960000D01*
X126277000Y-123960000D02*
X126277000Y-124960000D01*
X131787000Y-124960000D02*
X131787000Y-123960000D01*
X130087000Y-123960000D02*
X130087000Y-124960000D01*
X106815000Y-125310000D02*
X107815000Y-125310000D01*
X107815000Y-123610000D02*
X106815000Y-123610000D01*
X97370000Y-113530000D02*
X97370000Y-112530000D01*
X95670000Y-112530000D02*
X95670000Y-113530000D01*
X107815000Y-130595000D02*
X106815000Y-130595000D01*
X106815000Y-132295000D02*
X107815000Y-132295000D01*
D12*
X102417432Y-65186982D02*
G75*
G02X96893000Y-65188000I-2762432J1171982D01*
G01*
X97357247Y-62086705D02*
G75*
G02X101953000Y-62087000I2297753J-1928295D01*
G01*
X104565000Y-57455000D02*
X104565000Y-61321000D01*
X104565000Y-65710000D02*
X104565000Y-69575000D01*
X94745000Y-57455000D02*
X94745000Y-61321000D01*
X94745000Y-65710000D02*
X94745000Y-69575000D01*
X104565000Y-57455000D02*
X102980000Y-57455000D01*
X101330000Y-57455000D02*
X100480000Y-57455000D01*
X98830000Y-57455000D02*
X97980000Y-57455000D01*
X96330000Y-57455000D02*
X94745000Y-57455000D01*
X104565000Y-69575000D02*
X94745000Y-69575000D01*
X65192000Y-186293000D02*
X65192000Y-184293000D01*
X65192000Y-184293000D02*
X61342000Y-184293000D01*
X65192000Y-186293000D02*
X61342000Y-186293000D01*
X84640000Y-102234538D02*
G75*
G03X90190000Y-103779830I2990000J-462D01*
G01*
X84640000Y-102235462D02*
G75*
G02X90190000Y-100690170I2990000J462D01*
G01*
X90130000Y-102235000D02*
G75*
G03X90130000Y-102235000I-2500000J0D01*
G01*
X90190000Y-103780000D02*
X90190000Y-100690000D01*
X130357432Y-65186982D02*
G75*
G02X124833000Y-65188000I-2762432J1171982D01*
G01*
X125297247Y-62086705D02*
G75*
G02X129893000Y-62087000I2297753J-1928295D01*
G01*
X132505000Y-57455000D02*
X132505000Y-61321000D01*
X132505000Y-65710000D02*
X132505000Y-69575000D01*
X122685000Y-57455000D02*
X122685000Y-61321000D01*
X122685000Y-65710000D02*
X122685000Y-69575000D01*
X132505000Y-57455000D02*
X130920000Y-57455000D01*
X129270000Y-57455000D02*
X128420000Y-57455000D01*
X126770000Y-57455000D02*
X125920000Y-57455000D01*
X124270000Y-57455000D02*
X122685000Y-57455000D01*
X132505000Y-69575000D02*
X122685000Y-69575000D01*
X102412432Y-85491982D02*
G75*
G02X96888000Y-85493000I-2762432J1171982D01*
G01*
X97352247Y-82391705D02*
G75*
G02X101948000Y-82392000I2297753J-1928295D01*
G01*
X104560000Y-77760000D02*
X104560000Y-81626000D01*
X104560000Y-86015000D02*
X104560000Y-89880000D01*
X94740000Y-77760000D02*
X94740000Y-81626000D01*
X94740000Y-86015000D02*
X94740000Y-89880000D01*
X104560000Y-77760000D02*
X102975000Y-77760000D01*
X101325000Y-77760000D02*
X100475000Y-77760000D01*
X98825000Y-77760000D02*
X97975000Y-77760000D01*
X96325000Y-77760000D02*
X94740000Y-77760000D01*
X104560000Y-89880000D02*
X94740000Y-89880000D01*
X59630000Y-66227000D02*
X62290000Y-66227000D01*
X59630000Y-58547000D02*
X59630000Y-66227000D01*
X62290000Y-58547000D02*
X62290000Y-66227000D01*
X59630000Y-58547000D02*
X62290000Y-58547000D01*
X59630000Y-57277000D02*
X59630000Y-55947000D01*
X59630000Y-55947000D02*
X60960000Y-55947000D01*
X135830000Y-102803000D02*
X138490000Y-102803000D01*
X135830000Y-90043000D02*
X135830000Y-102803000D01*
X138490000Y-90043000D02*
X138490000Y-102803000D01*
X135830000Y-90043000D02*
X138490000Y-90043000D01*
X135830000Y-88773000D02*
X135830000Y-87443000D01*
X135830000Y-87443000D02*
X137160000Y-87443000D01*
X59630000Y-84007000D02*
X62290000Y-84007000D01*
X59630000Y-76327000D02*
X59630000Y-84007000D01*
X62290000Y-76327000D02*
X62290000Y-84007000D01*
X59630000Y-76327000D02*
X62290000Y-76327000D01*
X59630000Y-75057000D02*
X59630000Y-73727000D01*
X59630000Y-73727000D02*
X60960000Y-73727000D01*
X138490000Y-55947000D02*
X135830000Y-55947000D01*
X138490000Y-63627000D02*
X138490000Y-55947000D01*
X135830000Y-63627000D02*
X135830000Y-55947000D01*
X138490000Y-63627000D02*
X135830000Y-63627000D01*
X138490000Y-64897000D02*
X138490000Y-66227000D01*
X138490000Y-66227000D02*
X137160000Y-66227000D01*
X135830000Y-85150000D02*
X138490000Y-85150000D01*
X135830000Y-72390000D02*
X135830000Y-85150000D01*
X138490000Y-72390000D02*
X138490000Y-85150000D01*
X135830000Y-72390000D02*
X138490000Y-72390000D01*
X135830000Y-71120000D02*
X135830000Y-69790000D01*
X135830000Y-69790000D02*
X137160000Y-69790000D01*
D13*
X151193500Y-182753000D02*
X151193500Y-172720000D01*
X151193500Y-172720000D02*
X140779500Y-172720000D01*
X151193500Y-182753000D02*
X140779500Y-182753000D01*
X117411500Y-177736500D02*
X117411500Y-181165500D01*
X117411500Y-181165500D02*
X119951500Y-181165500D01*
X117411500Y-177736500D02*
X117411500Y-174307500D01*
X117411500Y-174307500D02*
X119951500Y-174307500D01*
X140779500Y-187896500D02*
X140779500Y-167576500D01*
X119951500Y-187896500D02*
X119951500Y-167576500D01*
X118300500Y-168719500D02*
X142176500Y-168719500D01*
X118554500Y-186753500D02*
X142430500Y-186753500D01*
X151193500Y-203771500D02*
X151193500Y-193738500D01*
X151193500Y-193738500D02*
X140779500Y-193738500D01*
X151193500Y-203771500D02*
X140779500Y-203771500D01*
X117411500Y-198755000D02*
X117411500Y-202184000D01*
X117411500Y-202184000D02*
X119951500Y-202184000D01*
X117411500Y-198755000D02*
X117411500Y-195326000D01*
X117411500Y-195326000D02*
X119951500Y-195326000D01*
X140779500Y-208915000D02*
X140779500Y-188595000D01*
X119951500Y-208915000D02*
X119951500Y-188595000D01*
X118300500Y-189738000D02*
X142176500Y-189738000D01*
X118554500Y-207772000D02*
X142430500Y-207772000D01*
D12*
X59630000Y-129727000D02*
X62290000Y-129727000D01*
X59630000Y-122047000D02*
X59630000Y-129727000D01*
X62290000Y-122047000D02*
X62290000Y-129727000D01*
X59630000Y-122047000D02*
X62290000Y-122047000D01*
X59630000Y-120777000D02*
X59630000Y-119447000D01*
X59630000Y-119447000D02*
X60960000Y-119447000D01*
X135830000Y-148586500D02*
X138490000Y-148586500D01*
X135830000Y-135826500D02*
X135830000Y-148586500D01*
X138490000Y-135826500D02*
X138490000Y-148586500D01*
X135830000Y-135826500D02*
X138490000Y-135826500D01*
X135830000Y-134556500D02*
X135830000Y-133226500D01*
X135830000Y-133226500D02*
X137160000Y-133226500D01*
X59630000Y-147507000D02*
X62290000Y-147507000D01*
X59630000Y-139827000D02*
X59630000Y-147507000D01*
X62290000Y-139827000D02*
X62290000Y-147507000D01*
X59630000Y-139827000D02*
X62290000Y-139827000D01*
X59630000Y-138557000D02*
X59630000Y-137227000D01*
X59630000Y-137227000D02*
X60960000Y-137227000D01*
X138490000Y-119383500D02*
X135830000Y-119383500D01*
X138490000Y-127063500D02*
X138490000Y-119383500D01*
X135830000Y-127063500D02*
X135830000Y-119383500D01*
X138490000Y-127063500D02*
X135830000Y-127063500D01*
X138490000Y-128333500D02*
X138490000Y-129663500D01*
X138490000Y-129663500D02*
X137160000Y-129663500D01*
X135830000Y-166239500D02*
X138490000Y-166239500D01*
X135830000Y-153479500D02*
X135830000Y-166239500D01*
X138490000Y-153479500D02*
X138490000Y-166239500D01*
X135830000Y-153479500D02*
X138490000Y-153479500D01*
X135830000Y-152209500D02*
X135830000Y-150879500D01*
X135830000Y-150879500D02*
X137160000Y-150879500D01*
D13*
X47498000Y-193738500D02*
X47498000Y-203771500D01*
X47498000Y-203771500D02*
X57912000Y-203771500D01*
X47498000Y-193738500D02*
X57912000Y-193738500D01*
X81280000Y-198755000D02*
X81280000Y-195326000D01*
X81280000Y-195326000D02*
X78740000Y-195326000D01*
X81280000Y-198755000D02*
X81280000Y-202184000D01*
X81280000Y-202184000D02*
X78740000Y-202184000D01*
X57912000Y-188595000D02*
X57912000Y-208915000D01*
X78740000Y-188595000D02*
X78740000Y-208915000D01*
X80391000Y-207772000D02*
X56515000Y-207772000D01*
X80137000Y-189738000D02*
X56261000Y-189738000D01*
D12*
X62945000Y-177574000D02*
X54145000Y-177574000D01*
X54145000Y-177574000D02*
X54145000Y-168374000D01*
X68845000Y-174874000D02*
X68845000Y-177574000D01*
X68845000Y-177574000D02*
X66945000Y-177574000D01*
X54145000Y-168374000D02*
X68845000Y-168374000D01*
X68845000Y-168374000D02*
X68845000Y-170974000D01*
X130352432Y-85491982D02*
G75*
G02X124828000Y-85493000I-2762432J1171982D01*
G01*
X125292247Y-82391705D02*
G75*
G02X129888000Y-82392000I2297753J-1928295D01*
G01*
X132500000Y-77760000D02*
X132500000Y-81626000D01*
X132500000Y-86015000D02*
X132500000Y-89880000D01*
X122680000Y-77760000D02*
X122680000Y-81626000D01*
X122680000Y-86015000D02*
X122680000Y-89880000D01*
X132500000Y-77760000D02*
X130915000Y-77760000D01*
X129265000Y-77760000D02*
X128415000Y-77760000D01*
X126765000Y-77760000D02*
X125915000Y-77760000D01*
X124265000Y-77760000D02*
X122680000Y-77760000D01*
X132500000Y-89880000D02*
X122680000Y-89880000D01*
D13*
X92237000Y-179719000D02*
X93437000Y-179719000D01*
X93437000Y-181469000D02*
X92237000Y-181469000D01*
X83326000Y-201895000D02*
X83326000Y-200695000D01*
X85076000Y-200695000D02*
X85076000Y-201895000D01*
X86628000Y-201895000D02*
X86628000Y-200695000D01*
X88378000Y-200695000D02*
X88378000Y-201895000D01*
X96428000Y-137555000D02*
X97628000Y-137555000D01*
X97628000Y-139305000D02*
X96428000Y-139305000D01*
X107915000Y-160895000D02*
X106715000Y-160895000D01*
X106715000Y-159145000D02*
X107915000Y-159145000D01*
X106715000Y-162955000D02*
X107915000Y-162955000D01*
X107915000Y-164705000D02*
X106715000Y-164705000D01*
X107915000Y-157085000D02*
X106715000Y-157085000D01*
X106715000Y-155335000D02*
X107915000Y-155335000D01*
D12*
X74477432Y-65186982D02*
G75*
G02X68953000Y-65188000I-2762432J1171982D01*
G01*
X69417247Y-62086705D02*
G75*
G02X74013000Y-62087000I2297753J-1928295D01*
G01*
X76625000Y-57455000D02*
X76625000Y-61321000D01*
X76625000Y-65710000D02*
X76625000Y-69575000D01*
X66805000Y-57455000D02*
X66805000Y-61321000D01*
X66805000Y-65710000D02*
X66805000Y-69575000D01*
X76625000Y-57455000D02*
X75040000Y-57455000D01*
X73390000Y-57455000D02*
X72540000Y-57455000D01*
X70890000Y-57455000D02*
X70040000Y-57455000D01*
X68390000Y-57455000D02*
X66805000Y-57455000D01*
X76625000Y-69575000D02*
X66805000Y-69575000D01*
D13*
X108458000Y-216852500D02*
X91948000Y-216852500D01*
X91948000Y-216852500D02*
X90678000Y-216852500D01*
X90551000Y-217233500D02*
X90551000Y-199453500D01*
X90678000Y-199834500D02*
X108458000Y-199834500D01*
X108585000Y-199453500D02*
X108585000Y-217233500D01*
X121285000Y-96647000D02*
X121285000Y-102743000D01*
X133731000Y-96647000D02*
X133731000Y-102743000D01*
X120523000Y-96393000D02*
X134747000Y-96393000D01*
X134747000Y-102997000D02*
X120523000Y-102997000D01*
X65405000Y-96647000D02*
X65405000Y-102743000D01*
X77851000Y-96647000D02*
X77851000Y-102743000D01*
X64643000Y-96393000D02*
X78867000Y-96393000D01*
X78867000Y-102997000D02*
X64643000Y-102997000D01*
X93345000Y-96647000D02*
X93345000Y-102743000D01*
X105791000Y-96647000D02*
X105791000Y-102743000D01*
X92583000Y-96393000D02*
X106807000Y-96393000D01*
X106807000Y-102997000D02*
X92583000Y-102997000D01*
D12*
X74472432Y-85760982D02*
G75*
G02X68948000Y-85762000I-2762432J1171982D01*
G01*
X69412247Y-82660705D02*
G75*
G02X74008000Y-82661000I2297753J-1928295D01*
G01*
X76620000Y-78029000D02*
X76620000Y-81895000D01*
X76620000Y-86284000D02*
X76620000Y-90149000D01*
X66800000Y-78029000D02*
X66800000Y-81895000D01*
X66800000Y-86284000D02*
X66800000Y-90149000D01*
X76620000Y-78029000D02*
X75035000Y-78029000D01*
X73385000Y-78029000D02*
X72535000Y-78029000D01*
X70885000Y-78029000D02*
X70035000Y-78029000D01*
X68385000Y-78029000D02*
X66800000Y-78029000D01*
X76620000Y-90149000D02*
X66800000Y-90149000D01*
D13*
X72771000Y-179959000D02*
X72771000Y-185039000D01*
X72771000Y-185039000D02*
X68199000Y-185039000D01*
X68199000Y-185039000D02*
X68199000Y-179959000D01*
X68199000Y-179959000D02*
X72771000Y-179959000D01*
X71247000Y-179959000D02*
X71247000Y-180467000D01*
X71247000Y-180467000D02*
X69977000Y-180467000D01*
X69977000Y-180467000D02*
X69977000Y-179959000D01*
X76454000Y-121793000D02*
X76454000Y-116713000D01*
X76454000Y-116713000D02*
X81026000Y-116713000D01*
X81026000Y-116713000D02*
X81026000Y-121793000D01*
X81026000Y-121793000D02*
X76454000Y-121793000D01*
X77978000Y-121793000D02*
X77978000Y-121285000D01*
X77978000Y-121285000D02*
X79248000Y-121285000D01*
X79248000Y-121285000D02*
X79248000Y-121793000D01*
X92646500Y-123380500D02*
X93408500Y-123380500D01*
X93408500Y-123380500D02*
X93408500Y-124904500D01*
X93408500Y-124904500D02*
X92646500Y-124904500D01*
X103822500Y-121856500D02*
X103822500Y-126428500D01*
X103822500Y-126428500D02*
X92646500Y-126428500D01*
X92646500Y-126428500D02*
X92646500Y-121856500D01*
X92646500Y-121856500D02*
X103822500Y-121856500D01*
D12*
X72890000Y-177966000D02*
X71890000Y-177966000D01*
X71890000Y-179666000D02*
X72890000Y-179666000D01*
X62290000Y-90999000D02*
X59630000Y-90999000D01*
X62290000Y-98679000D02*
X62290000Y-90999000D01*
X59630000Y-98679000D02*
X59630000Y-90999000D01*
X62290000Y-98679000D02*
X59630000Y-98679000D01*
X62290000Y-99949000D02*
X62290000Y-101279000D01*
X62290000Y-101279000D02*
X60960000Y-101279000D01*
X62290000Y-154499000D02*
X59630000Y-154499000D01*
X62290000Y-162179000D02*
X62290000Y-154499000D01*
X59630000Y-162179000D02*
X59630000Y-154499000D01*
X62290000Y-162179000D02*
X59630000Y-162179000D01*
X62290000Y-163449000D02*
X62290000Y-164779000D01*
X62290000Y-164779000D02*
X60960000Y-164779000D01*
X81315000Y-100085000D02*
X82515000Y-100085000D01*
X82515000Y-101845000D02*
X81315000Y-101845000D01*
X94357000Y-172208000D02*
X93957000Y-172208000D01*
X95127000Y-176788000D02*
X93957000Y-176788000D01*
X90547000Y-176788000D02*
X91717000Y-176788000D01*
X91317000Y-172208000D02*
X91717000Y-172208000D01*
X90547000Y-172978000D02*
X90547000Y-176788000D01*
X90547000Y-172978000D02*
X91317000Y-172208000D01*
X95127000Y-172978000D02*
X95127000Y-176788000D01*
X95127000Y-172978000D02*
X94357000Y-172208000D01*
X106795000Y-139153000D02*
X107795000Y-139153000D01*
X107795000Y-137453000D02*
X106795000Y-137453000D01*
X106715000Y-150885000D02*
X107915000Y-150885000D01*
X107915000Y-152645000D02*
X106715000Y-152645000D01*
X107915000Y-143120000D02*
X106715000Y-143120000D01*
X106715000Y-141360000D02*
X107915000Y-141360000D01*
X107070000Y-113630000D02*
X107070000Y-112430000D01*
X108830000Y-112430000D02*
X108830000Y-113630000D01*
D13*
X94615000Y-191516000D02*
X94615000Y-186690000D01*
X94615000Y-186690000D02*
X104775000Y-186690000D01*
X104775000Y-186690000D02*
X104775000Y-191516000D01*
X104775000Y-191516000D02*
X94615000Y-191516000D01*
X104775000Y-189738000D02*
X104140000Y-189738000D01*
X104140000Y-189738000D02*
X104140000Y-188468000D01*
X104140000Y-188468000D02*
X104775000Y-188468000D01*
X102743000Y-143256000D02*
X102743000Y-148082000D01*
X102743000Y-148082000D02*
X92583000Y-148082000D01*
X92583000Y-148082000D02*
X92583000Y-143256000D01*
X92583000Y-143256000D02*
X102743000Y-143256000D01*
X92583000Y-145034000D02*
X93218000Y-145034000D01*
X93218000Y-145034000D02*
X93218000Y-146304000D01*
X93218000Y-146304000D02*
X92583000Y-146304000D01*
D14*
X80665001Y-170866571D02*
X80641191Y-170890381D01*
X80569763Y-170914190D01*
X80522144Y-170914190D01*
X80450715Y-170890381D01*
X80403096Y-170842762D01*
X80379287Y-170795143D01*
X80355477Y-170699905D01*
X80355477Y-170628476D01*
X80379287Y-170533238D01*
X80403096Y-170485619D01*
X80450715Y-170438000D01*
X80522144Y-170414190D01*
X80569763Y-170414190D01*
X80641191Y-170438000D01*
X80665001Y-170461810D01*
X81141191Y-170914190D02*
X80855477Y-170914190D01*
X80998334Y-170914190D02*
X80998334Y-170414190D01*
X80950715Y-170485619D01*
X80903096Y-170533238D01*
X80855477Y-170557048D01*
X81236429Y-170961810D02*
X81617381Y-170961810D01*
X81736429Y-170914190D02*
X81736429Y-170414190D01*
X82022143Y-170914190D01*
X82022143Y-170414190D01*
X82260239Y-170652286D02*
X82426905Y-170652286D01*
X82498334Y-170914190D02*
X82260239Y-170914190D01*
X82260239Y-170414190D01*
X82498334Y-170414190D01*
X82974524Y-170438000D02*
X82926905Y-170414190D01*
X82855477Y-170414190D01*
X82784048Y-170438000D01*
X82736429Y-170485619D01*
X82712620Y-170533238D01*
X82688810Y-170628476D01*
X82688810Y-170699905D01*
X82712620Y-170795143D01*
X82736429Y-170842762D01*
X82784048Y-170890381D01*
X82855477Y-170914190D01*
X82903096Y-170914190D01*
X82974524Y-170890381D01*
X82998334Y-170866571D01*
X82998334Y-170699905D01*
X82903096Y-170699905D01*
X83474524Y-170914190D02*
X83188810Y-170914190D01*
X83331667Y-170914190D02*
X83331667Y-170414190D01*
X83284048Y-170485619D01*
X83236429Y-170533238D01*
X83188810Y-170557048D01*
D13*
X84304048Y-171670429D02*
X85065953Y-171670429D01*
X84685001Y-172051381D02*
X84685001Y-171289476D01*
D14*
X76728001Y-114732571D02*
X76704191Y-114756381D01*
X76632763Y-114780190D01*
X76585144Y-114780190D01*
X76513715Y-114756381D01*
X76466096Y-114708762D01*
X76442287Y-114661143D01*
X76418477Y-114565905D01*
X76418477Y-114494476D01*
X76442287Y-114399238D01*
X76466096Y-114351619D01*
X76513715Y-114304000D01*
X76585144Y-114280190D01*
X76632763Y-114280190D01*
X76704191Y-114304000D01*
X76728001Y-114327810D01*
X77204191Y-114780190D02*
X76918477Y-114780190D01*
X77061334Y-114780190D02*
X77061334Y-114280190D01*
X77013715Y-114351619D01*
X76966096Y-114399238D01*
X76918477Y-114423048D01*
X77299429Y-114827810D02*
X77680381Y-114827810D01*
X77799429Y-114780190D02*
X77799429Y-114280190D01*
X78085143Y-114780190D01*
X78085143Y-114280190D01*
X78323239Y-114518286D02*
X78489905Y-114518286D01*
X78561334Y-114780190D02*
X78323239Y-114780190D01*
X78323239Y-114280190D01*
X78561334Y-114280190D01*
X79037524Y-114304000D02*
X78989905Y-114280190D01*
X78918477Y-114280190D01*
X78847048Y-114304000D01*
X78799429Y-114351619D01*
X78775620Y-114399238D01*
X78751810Y-114494476D01*
X78751810Y-114565905D01*
X78775620Y-114661143D01*
X78799429Y-114708762D01*
X78847048Y-114756381D01*
X78918477Y-114780190D01*
X78966096Y-114780190D01*
X79037524Y-114756381D01*
X79061334Y-114732571D01*
X79061334Y-114565905D01*
X78966096Y-114565905D01*
X79251810Y-114327810D02*
X79275620Y-114304000D01*
X79323239Y-114280190D01*
X79442286Y-114280190D01*
X79489905Y-114304000D01*
X79513715Y-114327810D01*
X79537524Y-114375429D01*
X79537524Y-114423048D01*
X79513715Y-114494476D01*
X79228001Y-114780190D01*
X79537524Y-114780190D01*
D13*
X80367048Y-109503929D02*
X81128953Y-109503929D01*
X80748001Y-109884881D02*
X80748001Y-109122976D01*
D14*
X80665001Y-183058571D02*
X80641191Y-183082381D01*
X80569763Y-183106190D01*
X80522144Y-183106190D01*
X80450715Y-183082381D01*
X80403096Y-183034762D01*
X80379287Y-182987143D01*
X80355477Y-182891905D01*
X80355477Y-182820476D01*
X80379287Y-182725238D01*
X80403096Y-182677619D01*
X80450715Y-182630000D01*
X80522144Y-182606190D01*
X80569763Y-182606190D01*
X80641191Y-182630000D01*
X80665001Y-182653810D01*
X80855477Y-182653810D02*
X80879287Y-182630000D01*
X80926906Y-182606190D01*
X81045953Y-182606190D01*
X81093572Y-182630000D01*
X81117382Y-182653810D01*
X81141191Y-182701429D01*
X81141191Y-182749048D01*
X81117382Y-182820476D01*
X80831668Y-183106190D01*
X81141191Y-183106190D01*
X81236429Y-183153810D02*
X81617381Y-183153810D01*
X81736429Y-183106190D02*
X81736429Y-182606190D01*
X82022143Y-183106190D01*
X82022143Y-182606190D01*
X82260239Y-182844286D02*
X82426905Y-182844286D01*
X82498334Y-183106190D02*
X82260239Y-183106190D01*
X82260239Y-182606190D01*
X82498334Y-182606190D01*
X82974524Y-182630000D02*
X82926905Y-182606190D01*
X82855477Y-182606190D01*
X82784048Y-182630000D01*
X82736429Y-182677619D01*
X82712620Y-182725238D01*
X82688810Y-182820476D01*
X82688810Y-182891905D01*
X82712620Y-182987143D01*
X82736429Y-183034762D01*
X82784048Y-183082381D01*
X82855477Y-183106190D01*
X82903096Y-183106190D01*
X82974524Y-183082381D01*
X82998334Y-183058571D01*
X82998334Y-182891905D01*
X82903096Y-182891905D01*
X83474524Y-183106190D02*
X83188810Y-183106190D01*
X83331667Y-183106190D02*
X83331667Y-182606190D01*
X83284048Y-182677619D01*
X83236429Y-182725238D01*
X83188810Y-182749048D01*
D13*
X78764048Y-182040429D02*
X79525953Y-182040429D01*
X79145001Y-182421381D02*
X79145001Y-181659476D01*
D14*
X84856001Y-114732571D02*
X84832191Y-114756381D01*
X84760763Y-114780190D01*
X84713144Y-114780190D01*
X84641715Y-114756381D01*
X84594096Y-114708762D01*
X84570287Y-114661143D01*
X84546477Y-114565905D01*
X84546477Y-114494476D01*
X84570287Y-114399238D01*
X84594096Y-114351619D01*
X84641715Y-114304000D01*
X84713144Y-114280190D01*
X84760763Y-114280190D01*
X84832191Y-114304000D01*
X84856001Y-114327810D01*
X85046477Y-114327810D02*
X85070287Y-114304000D01*
X85117906Y-114280190D01*
X85236953Y-114280190D01*
X85284572Y-114304000D01*
X85308382Y-114327810D01*
X85332191Y-114375429D01*
X85332191Y-114423048D01*
X85308382Y-114494476D01*
X85022668Y-114780190D01*
X85332191Y-114780190D01*
X85427429Y-114827810D02*
X85808381Y-114827810D01*
X85927429Y-114780190D02*
X85927429Y-114280190D01*
X86213143Y-114780190D01*
X86213143Y-114280190D01*
X86451239Y-114518286D02*
X86617905Y-114518286D01*
X86689334Y-114780190D02*
X86451239Y-114780190D01*
X86451239Y-114280190D01*
X86689334Y-114280190D01*
X87165524Y-114304000D02*
X87117905Y-114280190D01*
X87046477Y-114280190D01*
X86975048Y-114304000D01*
X86927429Y-114351619D01*
X86903620Y-114399238D01*
X86879810Y-114494476D01*
X86879810Y-114565905D01*
X86903620Y-114661143D01*
X86927429Y-114708762D01*
X86975048Y-114756381D01*
X87046477Y-114780190D01*
X87094096Y-114780190D01*
X87165524Y-114756381D01*
X87189334Y-114732571D01*
X87189334Y-114565905D01*
X87094096Y-114565905D01*
X87379810Y-114327810D02*
X87403620Y-114304000D01*
X87451239Y-114280190D01*
X87570286Y-114280190D01*
X87617905Y-114304000D01*
X87641715Y-114327810D01*
X87665524Y-114375429D01*
X87665524Y-114423048D01*
X87641715Y-114494476D01*
X87356001Y-114780190D01*
X87665524Y-114780190D01*
D13*
X88495048Y-109503929D02*
X89256953Y-109503929D01*
X88876001Y-109884881D02*
X88876001Y-109122976D01*
D14*
X105358501Y-144958571D02*
X105334691Y-144982381D01*
X105263263Y-145006190D01*
X105215644Y-145006190D01*
X105144215Y-144982381D01*
X105096596Y-144934762D01*
X105072787Y-144887143D01*
X105048977Y-144791905D01*
X105048977Y-144720476D01*
X105072787Y-144625238D01*
X105096596Y-144577619D01*
X105144215Y-144530000D01*
X105215644Y-144506190D01*
X105263263Y-144506190D01*
X105334691Y-144530000D01*
X105358501Y-144553810D01*
X105453739Y-145053810D02*
X105834691Y-145053810D01*
X106239453Y-144958571D02*
X106215643Y-144982381D01*
X106144215Y-145006190D01*
X106096596Y-145006190D01*
X106025167Y-144982381D01*
X105977548Y-144934762D01*
X105953739Y-144887143D01*
X105929929Y-144791905D01*
X105929929Y-144720476D01*
X105953739Y-144625238D01*
X105977548Y-144577619D01*
X106025167Y-144530000D01*
X106096596Y-144506190D01*
X106144215Y-144506190D01*
X106215643Y-144530000D01*
X106239453Y-144553810D01*
X106691834Y-145006190D02*
X106453739Y-145006190D01*
X106453739Y-144506190D01*
X106858501Y-144744286D02*
X107025167Y-144744286D01*
X107096596Y-145006190D02*
X106858501Y-145006190D01*
X106858501Y-144506190D01*
X107096596Y-144506190D01*
X107287072Y-144863333D02*
X107525167Y-144863333D01*
X107239453Y-145006190D02*
X107406120Y-144506190D01*
X107572786Y-145006190D01*
X107739453Y-145006190D02*
X107739453Y-144506190D01*
X108025167Y-145006190D01*
X108025167Y-144506190D01*
X108144215Y-145053810D02*
X108525167Y-145053810D01*
X108644215Y-145006190D02*
X108644215Y-144506190D01*
X108882310Y-145006190D02*
X108882310Y-144506190D01*
X109168024Y-145006190D01*
X109168024Y-144506190D01*
X109668024Y-145006190D02*
X109382310Y-145006190D01*
X109525167Y-145006190D02*
X109525167Y-144506190D01*
X109477548Y-144577619D01*
X109429929Y-144625238D01*
X109382310Y-144649048D01*
X102667571Y-198338046D02*
X102691381Y-198361856D01*
X102715190Y-198433284D01*
X102715190Y-198480903D01*
X102691381Y-198552332D01*
X102643762Y-198599951D01*
X102596143Y-198623760D01*
X102500905Y-198647570D01*
X102429476Y-198647570D01*
X102334238Y-198623760D01*
X102286619Y-198599951D01*
X102239000Y-198552332D01*
X102215190Y-198480903D01*
X102215190Y-198433284D01*
X102239000Y-198361856D01*
X102262810Y-198338046D01*
X102762810Y-198242808D02*
X102762810Y-197861856D01*
X102715190Y-197742808D02*
X102215190Y-197742808D01*
X102215190Y-197623761D01*
X102239000Y-197552332D01*
X102286619Y-197504713D01*
X102334238Y-197480904D01*
X102429476Y-197457094D01*
X102500905Y-197457094D01*
X102596143Y-197480904D01*
X102643762Y-197504713D01*
X102691381Y-197552332D01*
X102715190Y-197623761D01*
X102715190Y-197742808D01*
X102715190Y-197242808D02*
X102215190Y-197242808D01*
X102715190Y-196718999D02*
X102477095Y-196885666D01*
X102715190Y-197004713D02*
X102215190Y-197004713D01*
X102215190Y-196814237D01*
X102239000Y-196766618D01*
X102262810Y-196742809D01*
X102310429Y-196718999D01*
X102381857Y-196718999D01*
X102429476Y-196742809D01*
X102453286Y-196766618D01*
X102477095Y-196814237D01*
X102477095Y-197004713D01*
X102215190Y-196576142D02*
X102215190Y-196290428D01*
X102715190Y-196433285D02*
X102215190Y-196433285D01*
X102477095Y-196028523D02*
X102715190Y-196028523D01*
X102215190Y-196195190D02*
X102477095Y-196028523D01*
X102215190Y-195861857D01*
X102762810Y-195814238D02*
X102762810Y-195433286D01*
X102715190Y-195314238D02*
X102215190Y-195314238D01*
X102715190Y-195076143D02*
X102215190Y-195076143D01*
X102715190Y-194790429D01*
X102215190Y-194790429D01*
X102715190Y-194290429D02*
X102715190Y-194576143D01*
X102715190Y-194433286D02*
X102215190Y-194433286D01*
X102286619Y-194480905D01*
X102334238Y-194528524D01*
X102358048Y-194576143D01*
X127305571Y-121392000D02*
X127329381Y-121415810D01*
X127353190Y-121487238D01*
X127353190Y-121534857D01*
X127329381Y-121606286D01*
X127281762Y-121653905D01*
X127234143Y-121677714D01*
X127138905Y-121701524D01*
X127067476Y-121701524D01*
X126972238Y-121677714D01*
X126924619Y-121653905D01*
X126877000Y-121606286D01*
X126853190Y-121534857D01*
X126853190Y-121487238D01*
X126877000Y-121415810D01*
X126900810Y-121392000D01*
X127400810Y-121296762D02*
X127400810Y-120915810D01*
X127353190Y-120796762D02*
X126853190Y-120796762D01*
X127091286Y-120796762D02*
X127091286Y-120511048D01*
X127353190Y-120511048D02*
X126853190Y-120511048D01*
X126853190Y-120177714D02*
X126853190Y-120082476D01*
X126877000Y-120034857D01*
X126924619Y-119987238D01*
X127019857Y-119963429D01*
X127186524Y-119963429D01*
X127281762Y-119987238D01*
X127329381Y-120034857D01*
X127353190Y-120082476D01*
X127353190Y-120177714D01*
X127329381Y-120225333D01*
X127281762Y-120272952D01*
X127186524Y-120296762D01*
X127019857Y-120296762D01*
X126924619Y-120272952D01*
X126877000Y-120225333D01*
X126853190Y-120177714D01*
X127353190Y-119511047D02*
X127353190Y-119749142D01*
X126853190Y-119749142D01*
X127353190Y-119344380D02*
X126853190Y-119344380D01*
X126853190Y-119225333D01*
X126877000Y-119153904D01*
X126924619Y-119106285D01*
X126972238Y-119082476D01*
X127067476Y-119058666D01*
X127138905Y-119058666D01*
X127234143Y-119082476D01*
X127281762Y-119106285D01*
X127329381Y-119153904D01*
X127353190Y-119225333D01*
X127353190Y-119344380D01*
X127353190Y-118582476D02*
X127353190Y-118868190D01*
X127353190Y-118725333D02*
X126853190Y-118725333D01*
X126924619Y-118772952D01*
X126972238Y-118820571D01*
X126996048Y-118868190D01*
X131115571Y-121392000D02*
X131139381Y-121415810D01*
X131163190Y-121487238D01*
X131163190Y-121534857D01*
X131139381Y-121606286D01*
X131091762Y-121653905D01*
X131044143Y-121677714D01*
X130948905Y-121701524D01*
X130877476Y-121701524D01*
X130782238Y-121677714D01*
X130734619Y-121653905D01*
X130687000Y-121606286D01*
X130663190Y-121534857D01*
X130663190Y-121487238D01*
X130687000Y-121415810D01*
X130710810Y-121392000D01*
X131210810Y-121296762D02*
X131210810Y-120915810D01*
X131163190Y-120796762D02*
X130663190Y-120796762D01*
X130901286Y-120796762D02*
X130901286Y-120511048D01*
X131163190Y-120511048D02*
X130663190Y-120511048D01*
X130663190Y-120177714D02*
X130663190Y-120082476D01*
X130687000Y-120034857D01*
X130734619Y-119987238D01*
X130829857Y-119963429D01*
X130996524Y-119963429D01*
X131091762Y-119987238D01*
X131139381Y-120034857D01*
X131163190Y-120082476D01*
X131163190Y-120177714D01*
X131139381Y-120225333D01*
X131091762Y-120272952D01*
X130996524Y-120296762D01*
X130829857Y-120296762D01*
X130734619Y-120272952D01*
X130687000Y-120225333D01*
X130663190Y-120177714D01*
X131163190Y-119511047D02*
X131163190Y-119749142D01*
X130663190Y-119749142D01*
X131163190Y-119344380D02*
X130663190Y-119344380D01*
X130663190Y-119225333D01*
X130687000Y-119153904D01*
X130734619Y-119106285D01*
X130782238Y-119082476D01*
X130877476Y-119058666D01*
X130948905Y-119058666D01*
X131044143Y-119082476D01*
X131091762Y-119106285D01*
X131139381Y-119153904D01*
X131163190Y-119225333D01*
X131163190Y-119344380D01*
X130710810Y-118868190D02*
X130687000Y-118844380D01*
X130663190Y-118796761D01*
X130663190Y-118677714D01*
X130687000Y-118630095D01*
X130710810Y-118606285D01*
X130758429Y-118582476D01*
X130806048Y-118582476D01*
X130877476Y-118606285D01*
X131163190Y-118891999D01*
X131163190Y-118582476D01*
X106374525Y-123114571D02*
X106350715Y-123138381D01*
X106279287Y-123162190D01*
X106231668Y-123162190D01*
X106160239Y-123138381D01*
X106112620Y-123090762D01*
X106088811Y-123043143D01*
X106065001Y-122947905D01*
X106065001Y-122876476D01*
X106088811Y-122781238D01*
X106112620Y-122733619D01*
X106160239Y-122686000D01*
X106231668Y-122662190D01*
X106279287Y-122662190D01*
X106350715Y-122686000D01*
X106374525Y-122709810D01*
X106469763Y-123209810D02*
X106850715Y-123209810D01*
X107207858Y-123162190D02*
X106969763Y-123162190D01*
X106969763Y-122662190D01*
X107374525Y-123162190D02*
X107374525Y-122662190D01*
X107565001Y-122662190D01*
X107612620Y-122686000D01*
X107636429Y-122709810D01*
X107660239Y-122757429D01*
X107660239Y-122828857D01*
X107636429Y-122876476D01*
X107612620Y-122900286D01*
X107565001Y-122924095D01*
X107374525Y-122924095D01*
X108041191Y-122900286D02*
X107874525Y-122900286D01*
X107874525Y-123162190D02*
X107874525Y-122662190D01*
X108112620Y-122662190D01*
X108565000Y-123162190D02*
X108279286Y-123162190D01*
X108422143Y-123162190D02*
X108422143Y-122662190D01*
X108374524Y-122733619D01*
X108326905Y-122781238D01*
X108279286Y-122805048D01*
X98222571Y-114954618D02*
X98246381Y-114978428D01*
X98270190Y-115049856D01*
X98270190Y-115097475D01*
X98246381Y-115168904D01*
X98198762Y-115216523D01*
X98151143Y-115240332D01*
X98055905Y-115264142D01*
X97984476Y-115264142D01*
X97889238Y-115240332D01*
X97841619Y-115216523D01*
X97794000Y-115168904D01*
X97770190Y-115097475D01*
X97770190Y-115049856D01*
X97794000Y-114978428D01*
X97817810Y-114954618D01*
X98317810Y-114859380D02*
X98317810Y-114478428D01*
X98246381Y-114383190D02*
X98270190Y-114311761D01*
X98270190Y-114192714D01*
X98246381Y-114145095D01*
X98222571Y-114121285D01*
X98174952Y-114097476D01*
X98127333Y-114097476D01*
X98079714Y-114121285D01*
X98055905Y-114145095D01*
X98032095Y-114192714D01*
X98008286Y-114287952D01*
X97984476Y-114335571D01*
X97960667Y-114359380D01*
X97913048Y-114383190D01*
X97865429Y-114383190D01*
X97817810Y-114359380D01*
X97794000Y-114335571D01*
X97770190Y-114287952D01*
X97770190Y-114168904D01*
X97794000Y-114097476D01*
X97770190Y-113883190D02*
X98174952Y-113883190D01*
X98222571Y-113859381D01*
X98246381Y-113835571D01*
X98270190Y-113787952D01*
X98270190Y-113692714D01*
X98246381Y-113645095D01*
X98222571Y-113621286D01*
X98174952Y-113597476D01*
X97770190Y-113597476D01*
X98246381Y-113383190D02*
X98270190Y-113311761D01*
X98270190Y-113192714D01*
X98246381Y-113145095D01*
X98222571Y-113121285D01*
X98174952Y-113097476D01*
X98127333Y-113097476D01*
X98079714Y-113121285D01*
X98055905Y-113145095D01*
X98032095Y-113192714D01*
X98008286Y-113287952D01*
X97984476Y-113335571D01*
X97960667Y-113359380D01*
X97913048Y-113383190D01*
X97865429Y-113383190D01*
X97817810Y-113359380D01*
X97794000Y-113335571D01*
X97770190Y-113287952D01*
X97770190Y-113168904D01*
X97794000Y-113097476D01*
X97770190Y-112954619D02*
X97770190Y-112668905D01*
X98270190Y-112811762D02*
X97770190Y-112811762D01*
X98127333Y-112526048D02*
X98127333Y-112287953D01*
X98270190Y-112573667D02*
X97770190Y-112407000D01*
X98270190Y-112240334D01*
X98270190Y-112073667D02*
X97770190Y-112073667D01*
X98270190Y-111835572D02*
X97770190Y-111835572D01*
X98270190Y-111549858D01*
X97770190Y-111549858D01*
X98270190Y-111049858D02*
X98270190Y-111335572D01*
X98270190Y-111192715D02*
X97770190Y-111192715D01*
X97841619Y-111240334D01*
X97889238Y-111287953D01*
X97913048Y-111335572D01*
X106188001Y-129972571D02*
X106164191Y-129996381D01*
X106092763Y-130020190D01*
X106045144Y-130020190D01*
X105973715Y-129996381D01*
X105926096Y-129948762D01*
X105902287Y-129901143D01*
X105878477Y-129805905D01*
X105878477Y-129734476D01*
X105902287Y-129639238D01*
X105926096Y-129591619D01*
X105973715Y-129544000D01*
X106045144Y-129520190D01*
X106092763Y-129520190D01*
X106164191Y-129544000D01*
X106188001Y-129567810D01*
X106283239Y-130067810D02*
X106664191Y-130067810D01*
X106711810Y-129520190D02*
X106878477Y-130020190D01*
X107045143Y-129520190D01*
X107497524Y-129972571D02*
X107473714Y-129996381D01*
X107402286Y-130020190D01*
X107354667Y-130020190D01*
X107283238Y-129996381D01*
X107235619Y-129948762D01*
X107211810Y-129901143D01*
X107188000Y-129805905D01*
X107188000Y-129734476D01*
X107211810Y-129639238D01*
X107235619Y-129591619D01*
X107283238Y-129544000D01*
X107354667Y-129520190D01*
X107402286Y-129520190D01*
X107473714Y-129544000D01*
X107497524Y-129567810D01*
X107807048Y-129520190D02*
X107902286Y-129520190D01*
X107949905Y-129544000D01*
X107997524Y-129591619D01*
X108021333Y-129686857D01*
X108021333Y-129853524D01*
X107997524Y-129948762D01*
X107949905Y-129996381D01*
X107902286Y-130020190D01*
X107807048Y-130020190D01*
X107759429Y-129996381D01*
X107711810Y-129948762D01*
X107688000Y-129853524D01*
X107688000Y-129686857D01*
X107711810Y-129591619D01*
X107759429Y-129544000D01*
X107807048Y-129520190D01*
X108497524Y-130020190D02*
X108211810Y-130020190D01*
X108354667Y-130020190D02*
X108354667Y-129520190D01*
X108307048Y-129591619D01*
X108259429Y-129639238D01*
X108211810Y-129663048D01*
X92301190Y-64472142D02*
X91801190Y-64472142D01*
X91801190Y-64353095D01*
X91825000Y-64281666D01*
X91872619Y-64234047D01*
X91920238Y-64210238D01*
X92015476Y-64186428D01*
X92086905Y-64186428D01*
X92182143Y-64210238D01*
X92229762Y-64234047D01*
X92277381Y-64281666D01*
X92301190Y-64353095D01*
X92301190Y-64472142D01*
X92158333Y-63995952D02*
X92158333Y-63757857D01*
X92301190Y-64043571D02*
X91801190Y-63876904D01*
X92301190Y-63710238D01*
X92301190Y-63543571D02*
X91801190Y-63543571D01*
X92158333Y-63376905D01*
X91801190Y-63210238D01*
X92301190Y-63210238D01*
X92301190Y-62972142D02*
X91801190Y-62972142D01*
X91801190Y-62781666D01*
X91825000Y-62734047D01*
X91848810Y-62710238D01*
X91896429Y-62686428D01*
X91967857Y-62686428D01*
X92015476Y-62710238D01*
X92039286Y-62734047D01*
X92063095Y-62781666D01*
X92063095Y-62972142D01*
X92039286Y-62472142D02*
X92039286Y-62305476D01*
X92301190Y-62234047D02*
X92301190Y-62472142D01*
X91801190Y-62472142D01*
X91801190Y-62234047D01*
X92301190Y-62019761D02*
X91801190Y-62019761D01*
X92301190Y-61734047D01*
X91801190Y-61734047D01*
X92301190Y-61234047D02*
X92301190Y-61519761D01*
X92301190Y-61376904D02*
X91801190Y-61376904D01*
X91872619Y-61424523D01*
X91920238Y-61472142D01*
X91944048Y-61519761D01*
X62051525Y-183741190D02*
X62051525Y-183241190D01*
X62170572Y-183241190D01*
X62242001Y-183265000D01*
X62289620Y-183312619D01*
X62313429Y-183360238D01*
X62337239Y-183455476D01*
X62337239Y-183526905D01*
X62313429Y-183622143D01*
X62289620Y-183669762D01*
X62242001Y-183717381D01*
X62170572Y-183741190D01*
X62051525Y-183741190D01*
X62432477Y-183788810D02*
X62813429Y-183788810D01*
X62932477Y-183741190D02*
X62932477Y-183241190D01*
X63170572Y-183741190D02*
X63170572Y-183241190D01*
X63456286Y-183741190D01*
X63456286Y-183241190D01*
X63956286Y-183741190D02*
X63670572Y-183741190D01*
X63813429Y-183741190D02*
X63813429Y-183241190D01*
X63765810Y-183312619D01*
X63718191Y-183360238D01*
X63670572Y-183384048D01*
X91666190Y-102873833D02*
X91166190Y-102873833D01*
X91166190Y-102754786D01*
X91190000Y-102683357D01*
X91237619Y-102635738D01*
X91285238Y-102611929D01*
X91380476Y-102588119D01*
X91451905Y-102588119D01*
X91547143Y-102611929D01*
X91594762Y-102635738D01*
X91642381Y-102683357D01*
X91666190Y-102754786D01*
X91666190Y-102873833D01*
X91713810Y-102492881D02*
X91713810Y-102111929D01*
X91166190Y-101897643D02*
X91166190Y-101802405D01*
X91190000Y-101754786D01*
X91237619Y-101707167D01*
X91332857Y-101683358D01*
X91499524Y-101683358D01*
X91594762Y-101707167D01*
X91642381Y-101754786D01*
X91666190Y-101802405D01*
X91666190Y-101897643D01*
X91642381Y-101945262D01*
X91594762Y-101992881D01*
X91499524Y-102016691D01*
X91332857Y-102016691D01*
X91237619Y-101992881D01*
X91190000Y-101945262D01*
X91166190Y-101897643D01*
X91666190Y-101469071D02*
X91166190Y-101469071D01*
X91666190Y-101183357D01*
X91166190Y-101183357D01*
X91666190Y-100683357D02*
X91666190Y-100969071D01*
X91666190Y-100826214D02*
X91166190Y-100826214D01*
X91237619Y-100873833D01*
X91285238Y-100921452D01*
X91309048Y-100969071D01*
X135209286Y-63529286D02*
X135209286Y-63695952D01*
X135471190Y-63695952D02*
X134971190Y-63695952D01*
X134971190Y-63457857D01*
X135471190Y-63267381D02*
X134971190Y-63267381D01*
X135328333Y-63100715D01*
X134971190Y-62934048D01*
X135471190Y-62934048D01*
X134971190Y-62600714D02*
X134971190Y-62505476D01*
X134995000Y-62457857D01*
X135042619Y-62410238D01*
X135137857Y-62386429D01*
X135304524Y-62386429D01*
X135399762Y-62410238D01*
X135447381Y-62457857D01*
X135471190Y-62505476D01*
X135471190Y-62600714D01*
X135447381Y-62648333D01*
X135399762Y-62695952D01*
X135304524Y-62719762D01*
X135137857Y-62719762D01*
X135042619Y-62695952D01*
X134995000Y-62648333D01*
X134971190Y-62600714D01*
X135471190Y-62172142D02*
X134971190Y-62172142D01*
X134971190Y-62053095D01*
X134995000Y-61981666D01*
X135042619Y-61934047D01*
X135090238Y-61910238D01*
X135185476Y-61886428D01*
X135256905Y-61886428D01*
X135352143Y-61910238D01*
X135399762Y-61934047D01*
X135447381Y-61981666D01*
X135471190Y-62053095D01*
X135471190Y-62172142D01*
X135471190Y-61410238D02*
X135471190Y-61695952D01*
X135471190Y-61553095D02*
X134971190Y-61553095D01*
X135042619Y-61600714D01*
X135090238Y-61648333D01*
X135114048Y-61695952D01*
X107264286Y-83953333D02*
X107264286Y-84119999D01*
X107526190Y-84119999D02*
X107026190Y-84119999D01*
X107026190Y-83881904D01*
X107026190Y-83739047D02*
X107526190Y-83405714D01*
X107026190Y-83405714D02*
X107526190Y-83739047D01*
X107026190Y-83286667D02*
X107526190Y-83120000D01*
X107026190Y-82953334D01*
X107026190Y-82691429D02*
X107026190Y-82596191D01*
X107050000Y-82548572D01*
X107097619Y-82500953D01*
X107192857Y-82477144D01*
X107359524Y-82477144D01*
X107454762Y-82500953D01*
X107502381Y-82548572D01*
X107526190Y-82596191D01*
X107526190Y-82691429D01*
X107502381Y-82739048D01*
X107454762Y-82786667D01*
X107359524Y-82810477D01*
X107192857Y-82810477D01*
X107097619Y-82786667D01*
X107050000Y-82739048D01*
X107026190Y-82691429D01*
X107526190Y-82024762D02*
X107526190Y-82262857D01*
X107026190Y-82262857D01*
X107526190Y-81596191D02*
X107526190Y-81881905D01*
X107526190Y-81739048D02*
X107026190Y-81739048D01*
X107097619Y-81786667D01*
X107145238Y-81834286D01*
X107169048Y-81881905D01*
X58781190Y-63920331D02*
X59138333Y-63920331D01*
X59209762Y-63944141D01*
X59257381Y-63991760D01*
X59281190Y-64063188D01*
X59281190Y-64110807D01*
X59328810Y-63801284D02*
X59328810Y-63420332D01*
X59138333Y-63325094D02*
X59138333Y-63086999D01*
X59281190Y-63372713D02*
X58781190Y-63206046D01*
X59281190Y-63039380D01*
X58781190Y-62872713D02*
X59185952Y-62872713D01*
X59233571Y-62848904D01*
X59257381Y-62825094D01*
X59281190Y-62777475D01*
X59281190Y-62682237D01*
X59257381Y-62634618D01*
X59233571Y-62610809D01*
X59185952Y-62586999D01*
X58781190Y-62586999D01*
X58781190Y-62396522D02*
X59281190Y-62063189D01*
X58781190Y-62063189D02*
X59281190Y-62396522D01*
X58828810Y-61896523D02*
X58805000Y-61872713D01*
X58781190Y-61825094D01*
X58781190Y-61706047D01*
X58805000Y-61658428D01*
X58828810Y-61634618D01*
X58876429Y-61610809D01*
X58924048Y-61610809D01*
X58995476Y-61634618D01*
X59281190Y-61920332D01*
X59281190Y-61610809D01*
X59281190Y-61396523D02*
X58781190Y-61396523D01*
X59138333Y-61229857D01*
X58781190Y-61063190D01*
X59281190Y-61063190D01*
X59138333Y-60848904D02*
X59138333Y-60610809D01*
X59281190Y-60896523D02*
X58781190Y-60729856D01*
X59281190Y-60563190D01*
X59281190Y-60396523D02*
X58781190Y-60396523D01*
X59281190Y-60158428D02*
X58781190Y-60158428D01*
X59281190Y-59872714D01*
X58781190Y-59872714D01*
X59328810Y-59753666D02*
X59328810Y-59372714D01*
X59019286Y-59087000D02*
X59019286Y-59253666D01*
X59281190Y-59253666D02*
X58781190Y-59253666D01*
X58781190Y-59015571D01*
X58781190Y-58872714D02*
X59281190Y-58539381D01*
X58781190Y-58539381D02*
X59281190Y-58872714D01*
X59281190Y-58087001D02*
X59281190Y-58372715D01*
X59281190Y-58229858D02*
X58781190Y-58229858D01*
X58852619Y-58277477D01*
X58900238Y-58325096D01*
X58924048Y-58372715D01*
X138791190Y-98734141D02*
X139148333Y-98734141D01*
X139219762Y-98757951D01*
X139267381Y-98805570D01*
X139291190Y-98876998D01*
X139291190Y-98924617D01*
X139338810Y-98615094D02*
X139338810Y-98234142D01*
X139148333Y-98138904D02*
X139148333Y-97900809D01*
X139291190Y-98186523D02*
X138791190Y-98019856D01*
X139291190Y-97853190D01*
X138791190Y-97686523D02*
X139195952Y-97686523D01*
X139243571Y-97662714D01*
X139267381Y-97638904D01*
X139291190Y-97591285D01*
X139291190Y-97496047D01*
X139267381Y-97448428D01*
X139243571Y-97424619D01*
X139195952Y-97400809D01*
X138791190Y-97400809D01*
X138791190Y-97210332D02*
X139291190Y-96876999D01*
X138791190Y-96876999D02*
X139291190Y-97210332D01*
X138838810Y-96710333D02*
X138815000Y-96686523D01*
X138791190Y-96638904D01*
X138791190Y-96519857D01*
X138815000Y-96472238D01*
X138838810Y-96448428D01*
X138886429Y-96424619D01*
X138934048Y-96424619D01*
X139005476Y-96448428D01*
X139291190Y-96734142D01*
X139291190Y-96424619D01*
X139291190Y-96210333D02*
X138791190Y-96210333D01*
X139148333Y-96043667D01*
X138791190Y-95877000D01*
X139291190Y-95877000D01*
X139148333Y-95662714D02*
X139148333Y-95424619D01*
X139291190Y-95710333D02*
X138791190Y-95543666D01*
X139291190Y-95377000D01*
X139291190Y-95210333D02*
X138791190Y-95210333D01*
X139291190Y-94972238D02*
X138791190Y-94972238D01*
X139291190Y-94686524D01*
X138791190Y-94686524D01*
X139338810Y-94567476D02*
X139338810Y-94186524D01*
X139029286Y-93900810D02*
X139029286Y-94067476D01*
X139291190Y-94067476D02*
X138791190Y-94067476D01*
X138791190Y-93829381D01*
X138791190Y-93686524D02*
X139291190Y-93353191D01*
X138791190Y-93353191D02*
X139291190Y-93686524D01*
X139267381Y-93186525D02*
X139291190Y-93115096D01*
X139291190Y-92996049D01*
X139267381Y-92948430D01*
X139243571Y-92924620D01*
X139195952Y-92900811D01*
X139148333Y-92900811D01*
X139100714Y-92924620D01*
X139076905Y-92948430D01*
X139053095Y-92996049D01*
X139029286Y-93091287D01*
X139005476Y-93138906D01*
X138981667Y-93162715D01*
X138934048Y-93186525D01*
X138886429Y-93186525D01*
X138838810Y-93162715D01*
X138815000Y-93138906D01*
X138791190Y-93091287D01*
X138791190Y-92972239D01*
X138815000Y-92900811D01*
X138791190Y-92734144D02*
X139291190Y-92615097D01*
X138934048Y-92519859D01*
X139291190Y-92424621D01*
X138791190Y-92305573D01*
X139291190Y-91853192D02*
X139291190Y-92138906D01*
X139291190Y-91996049D02*
X138791190Y-91996049D01*
X138862619Y-92043668D01*
X138910238Y-92091287D01*
X138934048Y-92138906D01*
X58781190Y-82152713D02*
X59138333Y-82152713D01*
X59209762Y-82176523D01*
X59257381Y-82224142D01*
X59281190Y-82295570D01*
X59281190Y-82343189D01*
X59328810Y-82033666D02*
X59328810Y-81652714D01*
X59138333Y-81557476D02*
X59138333Y-81319381D01*
X59281190Y-81605095D02*
X58781190Y-81438428D01*
X59281190Y-81271762D01*
X58781190Y-81105095D02*
X59185952Y-81105095D01*
X59233571Y-81081286D01*
X59257381Y-81057476D01*
X59281190Y-81009857D01*
X59281190Y-80914619D01*
X59257381Y-80867000D01*
X59233571Y-80843191D01*
X59185952Y-80819381D01*
X58781190Y-80819381D01*
X58781190Y-80628904D02*
X59281190Y-80295571D01*
X58781190Y-80295571D02*
X59281190Y-80628904D01*
X58828810Y-80128905D02*
X58805000Y-80105095D01*
X58781190Y-80057476D01*
X58781190Y-79938429D01*
X58805000Y-79890810D01*
X58828810Y-79867000D01*
X58876429Y-79843191D01*
X58924048Y-79843191D01*
X58995476Y-79867000D01*
X59281190Y-80152714D01*
X59281190Y-79843191D01*
X59281190Y-79628905D02*
X58781190Y-79628905D01*
X59138333Y-79462239D01*
X58781190Y-79295572D01*
X59281190Y-79295572D01*
X59138333Y-79081286D02*
X59138333Y-78843191D01*
X59281190Y-79128905D02*
X58781190Y-78962238D01*
X59281190Y-78795572D01*
X59281190Y-78628905D02*
X58781190Y-78628905D01*
X59281190Y-78390810D02*
X58781190Y-78390810D01*
X59281190Y-78105096D01*
X58781190Y-78105096D01*
X59328810Y-77986048D02*
X59328810Y-77605096D01*
X59281190Y-77486048D02*
X58781190Y-77486048D01*
X59281190Y-77247953D02*
X58781190Y-77247953D01*
X59281190Y-76962239D01*
X58781190Y-76962239D01*
X59257381Y-76747953D02*
X59281190Y-76676524D01*
X59281190Y-76557477D01*
X59257381Y-76509858D01*
X59233571Y-76486048D01*
X59185952Y-76462239D01*
X59138333Y-76462239D01*
X59090714Y-76486048D01*
X59066905Y-76509858D01*
X59043095Y-76557477D01*
X59019286Y-76652715D01*
X58995476Y-76700334D01*
X58971667Y-76724143D01*
X58924048Y-76747953D01*
X58876429Y-76747953D01*
X58828810Y-76724143D01*
X58805000Y-76700334D01*
X58781190Y-76652715D01*
X58781190Y-76533667D01*
X58805000Y-76462239D01*
X58781190Y-76295572D02*
X59281190Y-76176525D01*
X58924048Y-76081287D01*
X59281190Y-75986049D01*
X58781190Y-75867001D01*
X59281190Y-75414620D02*
X59281190Y-75700334D01*
X59281190Y-75557477D02*
X58781190Y-75557477D01*
X58852619Y-75605096D01*
X58900238Y-75652715D01*
X58924048Y-75700334D01*
X138791190Y-64503713D02*
X139148333Y-64503713D01*
X139219762Y-64527523D01*
X139267381Y-64575142D01*
X139291190Y-64646570D01*
X139291190Y-64694189D01*
X139338810Y-64384666D02*
X139338810Y-64003714D01*
X139148333Y-63908476D02*
X139148333Y-63670381D01*
X139291190Y-63956095D02*
X138791190Y-63789428D01*
X139291190Y-63622762D01*
X138791190Y-63456095D02*
X139195952Y-63456095D01*
X139243571Y-63432286D01*
X139267381Y-63408476D01*
X139291190Y-63360857D01*
X139291190Y-63265619D01*
X139267381Y-63218000D01*
X139243571Y-63194191D01*
X139195952Y-63170381D01*
X138791190Y-63170381D01*
X138791190Y-62979904D02*
X139291190Y-62646571D01*
X138791190Y-62646571D02*
X139291190Y-62979904D01*
X138838810Y-62479905D02*
X138815000Y-62456095D01*
X138791190Y-62408476D01*
X138791190Y-62289429D01*
X138815000Y-62241810D01*
X138838810Y-62218000D01*
X138886429Y-62194191D01*
X138934048Y-62194191D01*
X139005476Y-62218000D01*
X139291190Y-62503714D01*
X139291190Y-62194191D01*
X139291190Y-61979905D02*
X138791190Y-61979905D01*
X139148333Y-61813239D01*
X138791190Y-61646572D01*
X139291190Y-61646572D01*
X139148333Y-61432286D02*
X139148333Y-61194191D01*
X139291190Y-61479905D02*
X138791190Y-61313238D01*
X139291190Y-61146572D01*
X139291190Y-60979905D02*
X138791190Y-60979905D01*
X139291190Y-60741810D02*
X138791190Y-60741810D01*
X139291190Y-60456096D01*
X138791190Y-60456096D01*
X139338810Y-60337048D02*
X139338810Y-59956096D01*
X139291190Y-59837048D02*
X138791190Y-59837048D01*
X138791190Y-59646572D01*
X138815000Y-59598953D01*
X138838810Y-59575144D01*
X138886429Y-59551334D01*
X138957857Y-59551334D01*
X139005476Y-59575144D01*
X139029286Y-59598953D01*
X139053095Y-59646572D01*
X139053095Y-59837048D01*
X139291190Y-59098953D02*
X139291190Y-59337048D01*
X138791190Y-59337048D01*
X139291190Y-58694191D02*
X139291190Y-58932286D01*
X138791190Y-58932286D01*
X139291190Y-58265620D02*
X139291190Y-58551334D01*
X139291190Y-58408477D02*
X138791190Y-58408477D01*
X138862619Y-58456096D01*
X138910238Y-58503715D01*
X138934048Y-58551334D01*
X138791190Y-81545522D02*
X139148333Y-81545522D01*
X139219762Y-81569332D01*
X139267381Y-81616951D01*
X139291190Y-81688379D01*
X139291190Y-81735998D01*
X139338810Y-81426475D02*
X139338810Y-81045523D01*
X139148333Y-80950285D02*
X139148333Y-80712190D01*
X139291190Y-80997904D02*
X138791190Y-80831237D01*
X139291190Y-80664571D01*
X138791190Y-80497904D02*
X139195952Y-80497904D01*
X139243571Y-80474095D01*
X139267381Y-80450285D01*
X139291190Y-80402666D01*
X139291190Y-80307428D01*
X139267381Y-80259809D01*
X139243571Y-80236000D01*
X139195952Y-80212190D01*
X138791190Y-80212190D01*
X138791190Y-80021713D02*
X139291190Y-79688380D01*
X138791190Y-79688380D02*
X139291190Y-80021713D01*
X138838810Y-79521714D02*
X138815000Y-79497904D01*
X138791190Y-79450285D01*
X138791190Y-79331238D01*
X138815000Y-79283619D01*
X138838810Y-79259809D01*
X138886429Y-79236000D01*
X138934048Y-79236000D01*
X139005476Y-79259809D01*
X139291190Y-79545523D01*
X139291190Y-79236000D01*
X139291190Y-79021714D02*
X138791190Y-79021714D01*
X139148333Y-78855048D01*
X138791190Y-78688381D01*
X139291190Y-78688381D01*
X139148333Y-78474095D02*
X139148333Y-78236000D01*
X139291190Y-78521714D02*
X138791190Y-78355047D01*
X139291190Y-78188381D01*
X139291190Y-78021714D02*
X138791190Y-78021714D01*
X139291190Y-77783619D02*
X138791190Y-77783619D01*
X139291190Y-77497905D01*
X138791190Y-77497905D01*
X139338810Y-77378857D02*
X139338810Y-76997905D01*
X138791190Y-76950286D02*
X139291190Y-76783619D01*
X138791190Y-76616953D01*
X138791190Y-76355048D02*
X138791190Y-76259810D01*
X138815000Y-76212191D01*
X138862619Y-76164572D01*
X138957857Y-76140763D01*
X139124524Y-76140763D01*
X139219762Y-76164572D01*
X139267381Y-76212191D01*
X139291190Y-76259810D01*
X139291190Y-76355048D01*
X139267381Y-76402667D01*
X139219762Y-76450286D01*
X139124524Y-76474096D01*
X138957857Y-76474096D01*
X138862619Y-76450286D01*
X138815000Y-76402667D01*
X138791190Y-76355048D01*
X139291190Y-75688381D02*
X139291190Y-75926476D01*
X138791190Y-75926476D01*
X139291190Y-75259810D02*
X139291190Y-75545524D01*
X139291190Y-75402667D02*
X138791190Y-75402667D01*
X138862619Y-75450286D01*
X138910238Y-75497905D01*
X138934048Y-75545524D01*
X118217190Y-173533332D02*
X118574333Y-173533332D01*
X118645762Y-173557142D01*
X118693381Y-173604761D01*
X118717190Y-173676189D01*
X118717190Y-173723808D01*
X118764810Y-173414285D02*
X118764810Y-173033333D01*
X118669571Y-172628571D02*
X118693381Y-172652381D01*
X118717190Y-172723809D01*
X118717190Y-172771428D01*
X118693381Y-172842857D01*
X118645762Y-172890476D01*
X118598143Y-172914285D01*
X118502905Y-172938095D01*
X118431476Y-172938095D01*
X118336238Y-172914285D01*
X118288619Y-172890476D01*
X118241000Y-172842857D01*
X118217190Y-172771428D01*
X118217190Y-172723809D01*
X118241000Y-172652381D01*
X118264810Y-172628571D01*
X118717190Y-172176190D02*
X118717190Y-172414285D01*
X118217190Y-172414285D01*
X118455286Y-172009523D02*
X118455286Y-171842857D01*
X118717190Y-171771428D02*
X118717190Y-172009523D01*
X118217190Y-172009523D01*
X118217190Y-171771428D01*
X118574333Y-171580952D02*
X118574333Y-171342857D01*
X118717190Y-171628571D02*
X118217190Y-171461904D01*
X118717190Y-171295238D01*
X118717190Y-171128571D02*
X118217190Y-171128571D01*
X118717190Y-170842857D01*
X118217190Y-170842857D01*
X118764810Y-170723809D02*
X118764810Y-170342857D01*
X118717190Y-170223809D02*
X118217190Y-170223809D01*
X118717190Y-169985714D02*
X118217190Y-169985714D01*
X118717190Y-169700000D01*
X118217190Y-169700000D01*
X118717190Y-169200000D02*
X118717190Y-169485714D01*
X118717190Y-169342857D02*
X118217190Y-169342857D01*
X118288619Y-169390476D01*
X118336238Y-169438095D01*
X118360048Y-169485714D01*
X118217190Y-207057379D02*
X118574333Y-207057379D01*
X118645762Y-207081189D01*
X118693381Y-207128808D01*
X118717190Y-207200236D01*
X118717190Y-207247855D01*
X118764810Y-206938332D02*
X118764810Y-206557380D01*
X118717190Y-206438332D02*
X118217190Y-206438332D01*
X118217190Y-206319285D01*
X118241000Y-206247856D01*
X118288619Y-206200237D01*
X118336238Y-206176428D01*
X118431476Y-206152618D01*
X118502905Y-206152618D01*
X118598143Y-206176428D01*
X118645762Y-206200237D01*
X118693381Y-206247856D01*
X118717190Y-206319285D01*
X118717190Y-206438332D01*
X118717190Y-205938332D02*
X118217190Y-205938332D01*
X118717190Y-205414523D02*
X118479095Y-205581190D01*
X118717190Y-205700237D02*
X118217190Y-205700237D01*
X118217190Y-205509761D01*
X118241000Y-205462142D01*
X118264810Y-205438333D01*
X118312429Y-205414523D01*
X118383857Y-205414523D01*
X118431476Y-205438333D01*
X118455286Y-205462142D01*
X118479095Y-205509761D01*
X118479095Y-205700237D01*
X118217190Y-205271666D02*
X118217190Y-204985952D01*
X118717190Y-205128809D02*
X118217190Y-205128809D01*
X118479095Y-204724047D02*
X118717190Y-204724047D01*
X118217190Y-204890714D02*
X118479095Y-204724047D01*
X118217190Y-204557381D01*
X118764810Y-204509762D02*
X118764810Y-204128810D01*
X118717190Y-204009762D02*
X118217190Y-204009762D01*
X118717190Y-203771667D02*
X118217190Y-203771667D01*
X118717190Y-203485953D01*
X118217190Y-203485953D01*
X118717190Y-202985953D02*
X118717190Y-203271667D01*
X118717190Y-203128810D02*
X118217190Y-203128810D01*
X118288619Y-203176429D01*
X118336238Y-203224048D01*
X118360048Y-203271667D01*
X63099190Y-127928331D02*
X63456333Y-127928331D01*
X63527762Y-127952141D01*
X63575381Y-127999760D01*
X63599190Y-128071188D01*
X63599190Y-128118807D01*
X63646810Y-127809284D02*
X63646810Y-127428332D01*
X63599190Y-127309284D02*
X63099190Y-127309284D01*
X63456333Y-127142618D01*
X63099190Y-126975951D01*
X63599190Y-126975951D01*
X63456333Y-126761665D02*
X63456333Y-126523570D01*
X63599190Y-126809284D02*
X63099190Y-126642617D01*
X63599190Y-126475951D01*
X63599190Y-126309284D02*
X63099190Y-126309284D01*
X63599190Y-126071189D02*
X63099190Y-126071189D01*
X63599190Y-125785475D01*
X63099190Y-125785475D01*
X63146810Y-125571189D02*
X63123000Y-125547379D01*
X63099190Y-125499760D01*
X63099190Y-125380713D01*
X63123000Y-125333094D01*
X63146810Y-125309284D01*
X63194429Y-125285475D01*
X63242048Y-125285475D01*
X63313476Y-125309284D01*
X63599190Y-125594998D01*
X63599190Y-125285475D01*
X63456333Y-125094999D02*
X63456333Y-124856904D01*
X63599190Y-125142618D02*
X63099190Y-124975951D01*
X63599190Y-124809285D01*
X63099190Y-124642618D02*
X63503952Y-124642618D01*
X63551571Y-124618809D01*
X63575381Y-124594999D01*
X63599190Y-124547380D01*
X63599190Y-124452142D01*
X63575381Y-124404523D01*
X63551571Y-124380714D01*
X63503952Y-124356904D01*
X63099190Y-124356904D01*
X63099190Y-124166427D02*
X63599190Y-123833094D01*
X63099190Y-123833094D02*
X63599190Y-124166427D01*
X63646810Y-123761666D02*
X63646810Y-123380714D01*
X63337286Y-123095000D02*
X63337286Y-123261666D01*
X63599190Y-123261666D02*
X63099190Y-123261666D01*
X63099190Y-123023571D01*
X63099190Y-122880714D02*
X63599190Y-122547381D01*
X63099190Y-122547381D02*
X63599190Y-122880714D01*
X63599190Y-122095001D02*
X63599190Y-122380715D01*
X63599190Y-122237858D02*
X63099190Y-122237858D01*
X63170619Y-122285477D01*
X63218238Y-122333096D01*
X63242048Y-122380715D01*
X134727190Y-145025641D02*
X135084333Y-145025641D01*
X135155762Y-145049451D01*
X135203381Y-145097070D01*
X135227190Y-145168498D01*
X135227190Y-145216117D01*
X135274810Y-144906594D02*
X135274810Y-144525642D01*
X135227190Y-144406594D02*
X134727190Y-144406594D01*
X135084333Y-144239928D01*
X134727190Y-144073261D01*
X135227190Y-144073261D01*
X135084333Y-143858975D02*
X135084333Y-143620880D01*
X135227190Y-143906594D02*
X134727190Y-143739927D01*
X135227190Y-143573261D01*
X135227190Y-143406594D02*
X134727190Y-143406594D01*
X135227190Y-143168499D02*
X134727190Y-143168499D01*
X135227190Y-142882785D01*
X134727190Y-142882785D01*
X134774810Y-142668499D02*
X134751000Y-142644689D01*
X134727190Y-142597070D01*
X134727190Y-142478023D01*
X134751000Y-142430404D01*
X134774810Y-142406594D01*
X134822429Y-142382785D01*
X134870048Y-142382785D01*
X134941476Y-142406594D01*
X135227190Y-142692308D01*
X135227190Y-142382785D01*
X135084333Y-142192309D02*
X135084333Y-141954214D01*
X135227190Y-142239928D02*
X134727190Y-142073261D01*
X135227190Y-141906595D01*
X134727190Y-141739928D02*
X135131952Y-141739928D01*
X135179571Y-141716119D01*
X135203381Y-141692309D01*
X135227190Y-141644690D01*
X135227190Y-141549452D01*
X135203381Y-141501833D01*
X135179571Y-141478024D01*
X135131952Y-141454214D01*
X134727190Y-141454214D01*
X134727190Y-141263737D02*
X135227190Y-140930404D01*
X134727190Y-140930404D02*
X135227190Y-141263737D01*
X135274810Y-140858976D02*
X135274810Y-140478024D01*
X134965286Y-140192310D02*
X134965286Y-140358976D01*
X135227190Y-140358976D02*
X134727190Y-140358976D01*
X134727190Y-140120881D01*
X134727190Y-139978024D02*
X135227190Y-139644691D01*
X134727190Y-139644691D02*
X135227190Y-139978024D01*
X135203381Y-139478025D02*
X135227190Y-139406596D01*
X135227190Y-139287549D01*
X135203381Y-139239930D01*
X135179571Y-139216120D01*
X135131952Y-139192311D01*
X135084333Y-139192311D01*
X135036714Y-139216120D01*
X135012905Y-139239930D01*
X134989095Y-139287549D01*
X134965286Y-139382787D01*
X134941476Y-139430406D01*
X134917667Y-139454215D01*
X134870048Y-139478025D01*
X134822429Y-139478025D01*
X134774810Y-139454215D01*
X134751000Y-139430406D01*
X134727190Y-139382787D01*
X134727190Y-139263739D01*
X134751000Y-139192311D01*
X134727190Y-139025644D02*
X135227190Y-138906597D01*
X134870048Y-138811359D01*
X135227190Y-138716121D01*
X134727190Y-138597073D01*
X135227190Y-138144692D02*
X135227190Y-138430406D01*
X135227190Y-138287549D02*
X134727190Y-138287549D01*
X134798619Y-138335168D01*
X134846238Y-138382787D01*
X134870048Y-138430406D01*
X63353190Y-145779713D02*
X63710333Y-145779713D01*
X63781762Y-145803523D01*
X63829381Y-145851142D01*
X63853190Y-145922570D01*
X63853190Y-145970189D01*
X63900810Y-145660666D02*
X63900810Y-145279714D01*
X63853190Y-145160666D02*
X63353190Y-145160666D01*
X63710333Y-144994000D01*
X63353190Y-144827333D01*
X63853190Y-144827333D01*
X63710333Y-144613047D02*
X63710333Y-144374952D01*
X63853190Y-144660666D02*
X63353190Y-144493999D01*
X63853190Y-144327333D01*
X63853190Y-144160666D02*
X63353190Y-144160666D01*
X63853190Y-143922571D02*
X63353190Y-143922571D01*
X63853190Y-143636857D01*
X63353190Y-143636857D01*
X63400810Y-143422571D02*
X63377000Y-143398761D01*
X63353190Y-143351142D01*
X63353190Y-143232095D01*
X63377000Y-143184476D01*
X63400810Y-143160666D01*
X63448429Y-143136857D01*
X63496048Y-143136857D01*
X63567476Y-143160666D01*
X63853190Y-143446380D01*
X63853190Y-143136857D01*
X63710333Y-142946381D02*
X63710333Y-142708286D01*
X63853190Y-142994000D02*
X63353190Y-142827333D01*
X63853190Y-142660667D01*
X63353190Y-142494000D02*
X63757952Y-142494000D01*
X63805571Y-142470191D01*
X63829381Y-142446381D01*
X63853190Y-142398762D01*
X63853190Y-142303524D01*
X63829381Y-142255905D01*
X63805571Y-142232096D01*
X63757952Y-142208286D01*
X63353190Y-142208286D01*
X63353190Y-142017809D02*
X63853190Y-141684476D01*
X63353190Y-141684476D02*
X63853190Y-142017809D01*
X63900810Y-141613048D02*
X63900810Y-141232096D01*
X63853190Y-141113048D02*
X63353190Y-141113048D01*
X63853190Y-140874953D02*
X63353190Y-140874953D01*
X63853190Y-140589239D01*
X63353190Y-140589239D01*
X63829381Y-140374953D02*
X63853190Y-140303524D01*
X63853190Y-140184477D01*
X63829381Y-140136858D01*
X63805571Y-140113048D01*
X63757952Y-140089239D01*
X63710333Y-140089239D01*
X63662714Y-140113048D01*
X63638905Y-140136858D01*
X63615095Y-140184477D01*
X63591286Y-140279715D01*
X63567476Y-140327334D01*
X63543667Y-140351143D01*
X63496048Y-140374953D01*
X63448429Y-140374953D01*
X63400810Y-140351143D01*
X63377000Y-140327334D01*
X63353190Y-140279715D01*
X63353190Y-140160667D01*
X63377000Y-140089239D01*
X63353190Y-139922572D02*
X63853190Y-139803525D01*
X63496048Y-139708287D01*
X63853190Y-139613049D01*
X63353190Y-139494001D01*
X63853190Y-139041620D02*
X63853190Y-139327334D01*
X63853190Y-139184477D02*
X63353190Y-139184477D01*
X63424619Y-139232096D01*
X63472238Y-139279715D01*
X63496048Y-139327334D01*
X134600190Y-127178213D02*
X134957333Y-127178213D01*
X135028762Y-127202023D01*
X135076381Y-127249642D01*
X135100190Y-127321070D01*
X135100190Y-127368689D01*
X135147810Y-127059166D02*
X135147810Y-126678214D01*
X135100190Y-126559166D02*
X134600190Y-126559166D01*
X134957333Y-126392500D01*
X134600190Y-126225833D01*
X135100190Y-126225833D01*
X134957333Y-126011547D02*
X134957333Y-125773452D01*
X135100190Y-126059166D02*
X134600190Y-125892499D01*
X135100190Y-125725833D01*
X135100190Y-125559166D02*
X134600190Y-125559166D01*
X135100190Y-125321071D02*
X134600190Y-125321071D01*
X135100190Y-125035357D01*
X134600190Y-125035357D01*
X134647810Y-124821071D02*
X134624000Y-124797261D01*
X134600190Y-124749642D01*
X134600190Y-124630595D01*
X134624000Y-124582976D01*
X134647810Y-124559166D01*
X134695429Y-124535357D01*
X134743048Y-124535357D01*
X134814476Y-124559166D01*
X135100190Y-124844880D01*
X135100190Y-124535357D01*
X134957333Y-124344881D02*
X134957333Y-124106786D01*
X135100190Y-124392500D02*
X134600190Y-124225833D01*
X135100190Y-124059167D01*
X134600190Y-123892500D02*
X135004952Y-123892500D01*
X135052571Y-123868691D01*
X135076381Y-123844881D01*
X135100190Y-123797262D01*
X135100190Y-123702024D01*
X135076381Y-123654405D01*
X135052571Y-123630596D01*
X135004952Y-123606786D01*
X134600190Y-123606786D01*
X134600190Y-123416309D02*
X135100190Y-123082976D01*
X134600190Y-123082976D02*
X135100190Y-123416309D01*
X135147810Y-123011548D02*
X135147810Y-122630596D01*
X135100190Y-122511548D02*
X134600190Y-122511548D01*
X134600190Y-122321072D01*
X134624000Y-122273453D01*
X134647810Y-122249644D01*
X134695429Y-122225834D01*
X134766857Y-122225834D01*
X134814476Y-122249644D01*
X134838286Y-122273453D01*
X134862095Y-122321072D01*
X134862095Y-122511548D01*
X135100190Y-121773453D02*
X135100190Y-122011548D01*
X134600190Y-122011548D01*
X135100190Y-121368691D02*
X135100190Y-121606786D01*
X134600190Y-121606786D01*
X135100190Y-120940120D02*
X135100190Y-121225834D01*
X135100190Y-121082977D02*
X134600190Y-121082977D01*
X134671619Y-121130596D01*
X134719238Y-121178215D01*
X134743048Y-121225834D01*
X134600190Y-163079522D02*
X134957333Y-163079522D01*
X135028762Y-163103332D01*
X135076381Y-163150951D01*
X135100190Y-163222379D01*
X135100190Y-163269998D01*
X135147810Y-162960475D02*
X135147810Y-162579523D01*
X135100190Y-162460475D02*
X134600190Y-162460475D01*
X134957333Y-162293809D01*
X134600190Y-162127142D01*
X135100190Y-162127142D01*
X134957333Y-161912856D02*
X134957333Y-161674761D01*
X135100190Y-161960475D02*
X134600190Y-161793808D01*
X135100190Y-161627142D01*
X135100190Y-161460475D02*
X134600190Y-161460475D01*
X135100190Y-161222380D02*
X134600190Y-161222380D01*
X135100190Y-160936666D01*
X134600190Y-160936666D01*
X134647810Y-160722380D02*
X134624000Y-160698570D01*
X134600190Y-160650951D01*
X134600190Y-160531904D01*
X134624000Y-160484285D01*
X134647810Y-160460475D01*
X134695429Y-160436666D01*
X134743048Y-160436666D01*
X134814476Y-160460475D01*
X135100190Y-160746189D01*
X135100190Y-160436666D01*
X134957333Y-160246190D02*
X134957333Y-160008095D01*
X135100190Y-160293809D02*
X134600190Y-160127142D01*
X135100190Y-159960476D01*
X134600190Y-159793809D02*
X135004952Y-159793809D01*
X135052571Y-159770000D01*
X135076381Y-159746190D01*
X135100190Y-159698571D01*
X135100190Y-159603333D01*
X135076381Y-159555714D01*
X135052571Y-159531905D01*
X135004952Y-159508095D01*
X134600190Y-159508095D01*
X134600190Y-159317618D02*
X135100190Y-158984285D01*
X134600190Y-158984285D02*
X135100190Y-159317618D01*
X135147810Y-158912857D02*
X135147810Y-158531905D01*
X134600190Y-158484286D02*
X135100190Y-158317619D01*
X134600190Y-158150953D01*
X134600190Y-157889048D02*
X134600190Y-157793810D01*
X134624000Y-157746191D01*
X134671619Y-157698572D01*
X134766857Y-157674763D01*
X134933524Y-157674763D01*
X135028762Y-157698572D01*
X135076381Y-157746191D01*
X135100190Y-157793810D01*
X135100190Y-157889048D01*
X135076381Y-157936667D01*
X135028762Y-157984286D01*
X134933524Y-158008096D01*
X134766857Y-158008096D01*
X134671619Y-157984286D01*
X134624000Y-157936667D01*
X134600190Y-157889048D01*
X135100190Y-157222381D02*
X135100190Y-157460476D01*
X134600190Y-157460476D01*
X135100190Y-156793810D02*
X135100190Y-157079524D01*
X135100190Y-156936667D02*
X134600190Y-156936667D01*
X134671619Y-156984286D01*
X134719238Y-157031905D01*
X134743048Y-157079524D01*
X67572048Y-198100190D02*
X67572048Y-198457333D01*
X67548238Y-198528762D01*
X67500619Y-198576381D01*
X67429191Y-198600190D01*
X67381572Y-198600190D01*
X67691095Y-198647810D02*
X68072047Y-198647810D01*
X68286333Y-198100190D02*
X68381571Y-198100190D01*
X68429190Y-198124000D01*
X68476809Y-198171619D01*
X68500618Y-198266857D01*
X68500618Y-198433524D01*
X68476809Y-198528762D01*
X68429190Y-198576381D01*
X68381571Y-198600190D01*
X68286333Y-198600190D01*
X68238714Y-198576381D01*
X68191095Y-198528762D01*
X68167285Y-198433524D01*
X68167285Y-198266857D01*
X68191095Y-198171619D01*
X68238714Y-198124000D01*
X68286333Y-198100190D01*
X68714905Y-198100190D02*
X68714905Y-198504952D01*
X68738714Y-198552571D01*
X68762524Y-198576381D01*
X68810143Y-198600190D01*
X68905381Y-198600190D01*
X68953000Y-198576381D01*
X68976809Y-198552571D01*
X69000619Y-198504952D01*
X69000619Y-198100190D01*
X69500619Y-198600190D02*
X69214905Y-198600190D01*
X69357762Y-198600190D02*
X69357762Y-198100190D01*
X69310143Y-198171619D01*
X69262524Y-198219238D01*
X69214905Y-198243048D01*
X65425048Y-167620190D02*
X65425048Y-167977333D01*
X65401238Y-168048762D01*
X65353619Y-168096381D01*
X65282191Y-168120190D01*
X65234572Y-168120190D01*
X65544095Y-168167810D02*
X65925047Y-168167810D01*
X66044095Y-168120190D02*
X66044095Y-167620190D01*
X66234571Y-167620190D01*
X66282190Y-167644000D01*
X66305999Y-167667810D01*
X66329809Y-167715429D01*
X66329809Y-167786857D01*
X66305999Y-167834476D01*
X66282190Y-167858286D01*
X66234571Y-167882095D01*
X66044095Y-167882095D01*
X66639333Y-167620190D02*
X66734571Y-167620190D01*
X66782190Y-167644000D01*
X66829809Y-167691619D01*
X66853618Y-167786857D01*
X66853618Y-167953524D01*
X66829809Y-168048762D01*
X66782190Y-168096381D01*
X66734571Y-168120190D01*
X66639333Y-168120190D01*
X66591714Y-168096381D01*
X66544095Y-168048762D01*
X66520285Y-167953524D01*
X66520285Y-167786857D01*
X66544095Y-167691619D01*
X66591714Y-167644000D01*
X66639333Y-167620190D01*
X67020286Y-167620190D02*
X67139333Y-168120190D01*
X67234571Y-167763048D01*
X67329809Y-168120190D01*
X67448857Y-167620190D01*
X67639334Y-167858286D02*
X67806000Y-167858286D01*
X67877429Y-168120190D02*
X67639334Y-168120190D01*
X67639334Y-167620190D01*
X67877429Y-167620190D01*
X68377429Y-168120190D02*
X68210762Y-167882095D01*
X68091715Y-168120190D02*
X68091715Y-167620190D01*
X68282191Y-167620190D01*
X68329810Y-167644000D01*
X68353619Y-167667810D01*
X68377429Y-167715429D01*
X68377429Y-167786857D01*
X68353619Y-167834476D01*
X68329810Y-167858286D01*
X68282191Y-167882095D01*
X68091715Y-167882095D01*
X68853619Y-168120190D02*
X68567905Y-168120190D01*
X68710762Y-168120190D02*
X68710762Y-167620190D01*
X68663143Y-167691619D01*
X68615524Y-167739238D01*
X68567905Y-167763048D01*
X119982190Y-83550904D02*
X119482190Y-83550904D01*
X119839333Y-83384238D01*
X119482190Y-83217571D01*
X119982190Y-83217571D01*
X119982190Y-82979475D02*
X119482190Y-82979475D01*
X119482190Y-82788999D02*
X119982190Y-82455666D01*
X119482190Y-82455666D02*
X119982190Y-82788999D01*
X119982190Y-82003286D02*
X119982190Y-82289000D01*
X119982190Y-82146143D02*
X119482190Y-82146143D01*
X119553619Y-82193762D01*
X119601238Y-82241381D01*
X119625048Y-82289000D01*
X91432239Y-182344190D02*
X91265572Y-182106095D01*
X91146525Y-182344190D02*
X91146525Y-181844190D01*
X91337001Y-181844190D01*
X91384620Y-181868000D01*
X91408429Y-181891810D01*
X91432239Y-181939429D01*
X91432239Y-182010857D01*
X91408429Y-182058476D01*
X91384620Y-182082286D01*
X91337001Y-182106095D01*
X91146525Y-182106095D01*
X91527477Y-182391810D02*
X91908429Y-182391810D01*
X92194143Y-182082286D02*
X92027477Y-182082286D01*
X92027477Y-182344190D02*
X92027477Y-181844190D01*
X92265572Y-181844190D01*
X92408429Y-181844190D02*
X92741762Y-182344190D01*
X92741762Y-181844190D02*
X92408429Y-182344190D01*
X92860809Y-181844190D02*
X93027476Y-182344190D01*
X93194142Y-181844190D01*
X93456047Y-181844190D02*
X93551285Y-181844190D01*
X93598904Y-181868000D01*
X93646523Y-181915619D01*
X93670332Y-182010857D01*
X93670332Y-182177524D01*
X93646523Y-182272762D01*
X93598904Y-182320381D01*
X93551285Y-182344190D01*
X93456047Y-182344190D01*
X93408428Y-182320381D01*
X93360809Y-182272762D01*
X93336999Y-182177524D01*
X93336999Y-182010857D01*
X93360809Y-181915619D01*
X93408428Y-181868000D01*
X93456047Y-181844190D01*
X94122714Y-182344190D02*
X93884619Y-182344190D01*
X93884619Y-181844190D01*
X94551285Y-182344190D02*
X94265571Y-182344190D01*
X94408428Y-182344190D02*
X94408428Y-181844190D01*
X94360809Y-181915619D01*
X94313190Y-181963238D01*
X94265571Y-181987048D01*
X82903190Y-202489427D02*
X82665095Y-202656094D01*
X82903190Y-202775141D02*
X82403190Y-202775141D01*
X82403190Y-202584665D01*
X82427000Y-202537046D01*
X82450810Y-202513237D01*
X82498429Y-202489427D01*
X82569857Y-202489427D01*
X82617476Y-202513237D01*
X82641286Y-202537046D01*
X82665095Y-202584665D01*
X82665095Y-202775141D01*
X82950810Y-202394189D02*
X82950810Y-202013237D01*
X82903190Y-201894189D02*
X82403190Y-201894189D01*
X82760333Y-201727523D01*
X82403190Y-201560856D01*
X82903190Y-201560856D01*
X82903190Y-201322760D02*
X82403190Y-201322760D01*
X82403190Y-201132284D02*
X82903190Y-200798951D01*
X82403190Y-200798951D02*
X82903190Y-201132284D01*
X82950810Y-200727523D02*
X82950810Y-200346571D01*
X82641286Y-200060857D02*
X82641286Y-200227523D01*
X82903190Y-200227523D02*
X82403190Y-200227523D01*
X82403190Y-199989428D01*
X82903190Y-199537048D02*
X82903190Y-199822762D01*
X82903190Y-199679905D02*
X82403190Y-199679905D01*
X82474619Y-199727524D01*
X82522238Y-199775143D01*
X82546048Y-199822762D01*
X89253190Y-202525142D02*
X89015095Y-202691809D01*
X89253190Y-202810856D02*
X88753190Y-202810856D01*
X88753190Y-202620380D01*
X88777000Y-202572761D01*
X88800810Y-202548952D01*
X88848429Y-202525142D01*
X88919857Y-202525142D01*
X88967476Y-202548952D01*
X88991286Y-202572761D01*
X89015095Y-202620380D01*
X89015095Y-202810856D01*
X89300810Y-202429904D02*
X89300810Y-202048952D01*
X89253190Y-201929904D02*
X88753190Y-201929904D01*
X89110333Y-201763238D01*
X88753190Y-201596571D01*
X89253190Y-201596571D01*
X89253190Y-201358475D02*
X88753190Y-201358475D01*
X88753190Y-201167999D02*
X89253190Y-200834666D01*
X88753190Y-200834666D02*
X89253190Y-201167999D01*
X89300810Y-200763238D02*
X89300810Y-200382286D01*
X88777000Y-200001334D02*
X88753190Y-200048953D01*
X88753190Y-200120381D01*
X88777000Y-200191810D01*
X88824619Y-200239429D01*
X88872238Y-200263238D01*
X88967476Y-200287048D01*
X89038905Y-200287048D01*
X89134143Y-200263238D01*
X89181762Y-200239429D01*
X89229381Y-200191810D01*
X89253190Y-200120381D01*
X89253190Y-200072762D01*
X89229381Y-200001334D01*
X89205571Y-199977524D01*
X89038905Y-199977524D01*
X89038905Y-200072762D01*
X89253190Y-199501334D02*
X89253190Y-199787048D01*
X89253190Y-199644191D02*
X88753190Y-199644191D01*
X88824619Y-199691810D01*
X88872238Y-199739429D01*
X88896048Y-199787048D01*
X95706572Y-137132190D02*
X95539905Y-136894095D01*
X95420858Y-137132190D02*
X95420858Y-136632190D01*
X95611334Y-136632190D01*
X95658953Y-136656000D01*
X95682762Y-136679810D01*
X95706572Y-136727429D01*
X95706572Y-136798857D01*
X95682762Y-136846476D01*
X95658953Y-136870286D01*
X95611334Y-136894095D01*
X95420858Y-136894095D01*
X95801810Y-137179810D02*
X96182762Y-137179810D01*
X96397048Y-136632190D02*
X96492286Y-136632190D01*
X96539905Y-136656000D01*
X96587524Y-136703619D01*
X96611333Y-136798857D01*
X96611333Y-136965524D01*
X96587524Y-137060762D01*
X96539905Y-137108381D01*
X96492286Y-137132190D01*
X96397048Y-137132190D01*
X96349429Y-137108381D01*
X96301810Y-137060762D01*
X96278000Y-136965524D01*
X96278000Y-136798857D01*
X96301810Y-136703619D01*
X96349429Y-136656000D01*
X96397048Y-136632190D01*
X96801810Y-136989333D02*
X97039905Y-136989333D01*
X96754191Y-137132190D02*
X96920858Y-136632190D01*
X97087524Y-137132190D01*
X97135143Y-137179810D02*
X97516095Y-137179810D01*
X97635143Y-137132190D02*
X97635143Y-136632190D01*
X97873238Y-137132190D02*
X97873238Y-136632190D01*
X98158952Y-137132190D01*
X98158952Y-136632190D01*
X98658952Y-137132190D02*
X98373238Y-137132190D01*
X98516095Y-137132190D02*
X98516095Y-136632190D01*
X98468476Y-136703619D01*
X98420857Y-136751238D01*
X98373238Y-136775048D01*
X105660239Y-158849190D02*
X105493572Y-158611095D01*
X105374525Y-158849190D02*
X105374525Y-158349190D01*
X105565001Y-158349190D01*
X105612620Y-158373000D01*
X105636429Y-158396810D01*
X105660239Y-158444429D01*
X105660239Y-158515857D01*
X105636429Y-158563476D01*
X105612620Y-158587286D01*
X105565001Y-158611095D01*
X105374525Y-158611095D01*
X105755477Y-158896810D02*
X106136429Y-158896810D01*
X106350715Y-158349190D02*
X106445953Y-158349190D01*
X106493572Y-158373000D01*
X106541191Y-158420619D01*
X106565000Y-158515857D01*
X106565000Y-158682524D01*
X106541191Y-158777762D01*
X106493572Y-158825381D01*
X106445953Y-158849190D01*
X106350715Y-158849190D01*
X106303096Y-158825381D01*
X106255477Y-158777762D01*
X106231667Y-158682524D01*
X106231667Y-158515857D01*
X106255477Y-158420619D01*
X106303096Y-158373000D01*
X106350715Y-158349190D01*
X106755477Y-158706333D02*
X106993572Y-158706333D01*
X106707858Y-158849190D02*
X106874525Y-158349190D01*
X107041191Y-158849190D01*
X107088810Y-158896810D02*
X107469762Y-158896810D01*
X107684048Y-158349190D02*
X107779286Y-158349190D01*
X107826905Y-158373000D01*
X107874524Y-158420619D01*
X107898333Y-158515857D01*
X107898333Y-158682524D01*
X107874524Y-158777762D01*
X107826905Y-158825381D01*
X107779286Y-158849190D01*
X107684048Y-158849190D01*
X107636429Y-158825381D01*
X107588810Y-158777762D01*
X107565000Y-158682524D01*
X107565000Y-158515857D01*
X107588810Y-158420619D01*
X107636429Y-158373000D01*
X107684048Y-158349190D01*
X108112620Y-158349190D02*
X108112620Y-158753952D01*
X108136429Y-158801571D01*
X108160239Y-158825381D01*
X108207858Y-158849190D01*
X108303096Y-158849190D01*
X108350715Y-158825381D01*
X108374524Y-158801571D01*
X108398334Y-158753952D01*
X108398334Y-158349190D01*
X108565001Y-158349190D02*
X108850715Y-158349190D01*
X108707858Y-158849190D02*
X108707858Y-158349190D01*
X109279286Y-158849190D02*
X108993572Y-158849190D01*
X109136429Y-158849190D02*
X109136429Y-158349190D01*
X109088810Y-158420619D01*
X109041191Y-158468238D01*
X108993572Y-158492048D01*
X105255477Y-162659190D02*
X105088810Y-162421095D01*
X104969763Y-162659190D02*
X104969763Y-162159190D01*
X105160239Y-162159190D01*
X105207858Y-162183000D01*
X105231667Y-162206810D01*
X105255477Y-162254429D01*
X105255477Y-162325857D01*
X105231667Y-162373476D01*
X105207858Y-162397286D01*
X105160239Y-162421095D01*
X104969763Y-162421095D01*
X105350715Y-162706810D02*
X105731667Y-162706810D01*
X105945953Y-162159190D02*
X106041191Y-162159190D01*
X106088810Y-162183000D01*
X106136429Y-162230619D01*
X106160238Y-162325857D01*
X106160238Y-162492524D01*
X106136429Y-162587762D01*
X106088810Y-162635381D01*
X106041191Y-162659190D01*
X105945953Y-162659190D01*
X105898334Y-162635381D01*
X105850715Y-162587762D01*
X105826905Y-162492524D01*
X105826905Y-162325857D01*
X105850715Y-162230619D01*
X105898334Y-162183000D01*
X105945953Y-162159190D01*
X106350715Y-162516333D02*
X106588810Y-162516333D01*
X106303096Y-162659190D02*
X106469763Y-162159190D01*
X106636429Y-162659190D01*
X106684048Y-162706810D02*
X107065000Y-162706810D01*
X107279286Y-162159190D02*
X107374524Y-162159190D01*
X107422143Y-162183000D01*
X107469762Y-162230619D01*
X107493571Y-162325857D01*
X107493571Y-162492524D01*
X107469762Y-162587762D01*
X107422143Y-162635381D01*
X107374524Y-162659190D01*
X107279286Y-162659190D01*
X107231667Y-162635381D01*
X107184048Y-162587762D01*
X107160238Y-162492524D01*
X107160238Y-162325857D01*
X107184048Y-162230619D01*
X107231667Y-162183000D01*
X107279286Y-162159190D01*
X107707858Y-162159190D02*
X107707858Y-162563952D01*
X107731667Y-162611571D01*
X107755477Y-162635381D01*
X107803096Y-162659190D01*
X107898334Y-162659190D01*
X107945953Y-162635381D01*
X107969762Y-162611571D01*
X107993572Y-162563952D01*
X107993572Y-162159190D01*
X108160239Y-162159190D02*
X108445953Y-162159190D01*
X108303096Y-162659190D02*
X108303096Y-162159190D01*
X108493572Y-162706810D02*
X108874524Y-162706810D01*
X109160238Y-162397286D02*
X108993572Y-162397286D01*
X108993572Y-162659190D02*
X108993572Y-162159190D01*
X109231667Y-162159190D01*
X109684047Y-162659190D02*
X109398333Y-162659190D01*
X109541190Y-162659190D02*
X109541190Y-162159190D01*
X109493571Y-162230619D01*
X109445952Y-162278238D01*
X109398333Y-162302048D01*
X106303096Y-154975690D02*
X106136429Y-154737595D01*
X106017382Y-154975690D02*
X106017382Y-154475690D01*
X106207858Y-154475690D01*
X106255477Y-154499500D01*
X106279286Y-154523310D01*
X106303096Y-154570929D01*
X106303096Y-154642357D01*
X106279286Y-154689976D01*
X106255477Y-154713786D01*
X106207858Y-154737595D01*
X106017382Y-154737595D01*
X106398334Y-155023310D02*
X106779286Y-155023310D01*
X106874524Y-154951881D02*
X106945953Y-154975690D01*
X107065000Y-154975690D01*
X107112619Y-154951881D01*
X107136429Y-154928071D01*
X107160238Y-154880452D01*
X107160238Y-154832833D01*
X107136429Y-154785214D01*
X107112619Y-154761405D01*
X107065000Y-154737595D01*
X106969762Y-154713786D01*
X106922143Y-154689976D01*
X106898334Y-154666167D01*
X106874524Y-154618548D01*
X106874524Y-154570929D01*
X106898334Y-154523310D01*
X106922143Y-154499500D01*
X106969762Y-154475690D01*
X107088810Y-154475690D01*
X107160238Y-154499500D01*
X107350714Y-154832833D02*
X107588809Y-154832833D01*
X107303095Y-154975690D02*
X107469762Y-154475690D01*
X107636428Y-154975690D01*
X107755476Y-154475690D02*
X107874523Y-154975690D01*
X107969761Y-154618548D01*
X108064999Y-154975690D01*
X108184047Y-154475690D01*
X108636428Y-154975690D02*
X108350714Y-154975690D01*
X108493571Y-154975690D02*
X108493571Y-154475690D01*
X108445952Y-154547119D01*
X108398333Y-154594738D01*
X108350714Y-154618548D01*
X79567381Y-63862619D02*
X79591190Y-63791190D01*
X79591190Y-63672143D01*
X79567381Y-63624524D01*
X79543571Y-63600714D01*
X79495952Y-63576905D01*
X79448333Y-63576905D01*
X79400714Y-63600714D01*
X79376905Y-63624524D01*
X79353095Y-63672143D01*
X79329286Y-63767381D01*
X79305476Y-63815000D01*
X79281667Y-63838809D01*
X79234048Y-63862619D01*
X79186429Y-63862619D01*
X79138810Y-63838809D01*
X79115000Y-63815000D01*
X79091190Y-63767381D01*
X79091190Y-63648333D01*
X79115000Y-63576905D01*
X79091190Y-63410238D02*
X79591190Y-63291191D01*
X79234048Y-63195953D01*
X79591190Y-63100715D01*
X79091190Y-62981667D01*
X79591190Y-62791190D02*
X79091190Y-62791190D01*
X79591190Y-62553095D02*
X79091190Y-62553095D01*
X79591190Y-62267381D01*
X79091190Y-62267381D01*
X79115000Y-61767381D02*
X79091190Y-61815000D01*
X79091190Y-61886428D01*
X79115000Y-61957857D01*
X79162619Y-62005476D01*
X79210238Y-62029285D01*
X79305476Y-62053095D01*
X79376905Y-62053095D01*
X79472143Y-62029285D01*
X79519762Y-62005476D01*
X79567381Y-61957857D01*
X79591190Y-61886428D01*
X79591190Y-61838809D01*
X79567381Y-61767381D01*
X79543571Y-61743571D01*
X79376905Y-61743571D01*
X79376905Y-61838809D01*
X79591190Y-61267381D02*
X79591190Y-61553095D01*
X79591190Y-61410238D02*
X79091190Y-61410238D01*
X79162619Y-61457857D01*
X79210238Y-61505476D01*
X79234048Y-61553095D01*
X120345381Y-101528333D02*
X120369190Y-101456904D01*
X120369190Y-101337857D01*
X120345381Y-101290238D01*
X120321571Y-101266428D01*
X120273952Y-101242619D01*
X120226333Y-101242619D01*
X120178714Y-101266428D01*
X120154905Y-101290238D01*
X120131095Y-101337857D01*
X120107286Y-101433095D01*
X120083476Y-101480714D01*
X120059667Y-101504523D01*
X120012048Y-101528333D01*
X119964429Y-101528333D01*
X119916810Y-101504523D01*
X119893000Y-101480714D01*
X119869190Y-101433095D01*
X119869190Y-101314047D01*
X119893000Y-101242619D01*
X119869190Y-101075952D02*
X120369190Y-100956905D01*
X120012048Y-100861667D01*
X120369190Y-100766429D01*
X119869190Y-100647381D01*
X120416810Y-100575952D02*
X120416810Y-100195000D01*
X120369190Y-100075952D02*
X119869190Y-100075952D01*
X120107286Y-100075952D02*
X120107286Y-99790238D01*
X120369190Y-99790238D02*
X119869190Y-99790238D01*
X119869190Y-99456904D02*
X119869190Y-99361666D01*
X119893000Y-99314047D01*
X119940619Y-99266428D01*
X120035857Y-99242619D01*
X120202524Y-99242619D01*
X120297762Y-99266428D01*
X120345381Y-99314047D01*
X120369190Y-99361666D01*
X120369190Y-99456904D01*
X120345381Y-99504523D01*
X120297762Y-99552142D01*
X120202524Y-99575952D01*
X120035857Y-99575952D01*
X119940619Y-99552142D01*
X119893000Y-99504523D01*
X119869190Y-99456904D01*
X120369190Y-98790237D02*
X120369190Y-99028332D01*
X119869190Y-99028332D01*
X120369190Y-98623570D02*
X119869190Y-98623570D01*
X119869190Y-98504523D01*
X119893000Y-98433094D01*
X119940619Y-98385475D01*
X119988238Y-98361666D01*
X120083476Y-98337856D01*
X120154905Y-98337856D01*
X120250143Y-98361666D01*
X120297762Y-98385475D01*
X120345381Y-98433094D01*
X120369190Y-98504523D01*
X120369190Y-98623570D01*
X120369190Y-97861666D02*
X120369190Y-98147380D01*
X120369190Y-98004523D02*
X119869190Y-98004523D01*
X119940619Y-98052142D01*
X119988238Y-98099761D01*
X120012048Y-98147380D01*
X79450381Y-101456904D02*
X79474190Y-101385475D01*
X79474190Y-101266428D01*
X79450381Y-101218809D01*
X79426571Y-101194999D01*
X79378952Y-101171190D01*
X79331333Y-101171190D01*
X79283714Y-101194999D01*
X79259905Y-101218809D01*
X79236095Y-101266428D01*
X79212286Y-101361666D01*
X79188476Y-101409285D01*
X79164667Y-101433094D01*
X79117048Y-101456904D01*
X79069429Y-101456904D01*
X79021810Y-101433094D01*
X78998000Y-101409285D01*
X78974190Y-101361666D01*
X78974190Y-101242618D01*
X78998000Y-101171190D01*
X78974190Y-101004523D02*
X79474190Y-100885476D01*
X79117048Y-100790238D01*
X79474190Y-100695000D01*
X78974190Y-100575952D01*
X79521810Y-100504523D02*
X79521810Y-100123571D01*
X79474190Y-100004523D02*
X78974190Y-100004523D01*
X79474190Y-99766428D02*
X78974190Y-99766428D01*
X79474190Y-99480714D01*
X78974190Y-99480714D01*
X79450381Y-99266428D02*
X79474190Y-99194999D01*
X79474190Y-99075952D01*
X79450381Y-99028333D01*
X79426571Y-99004523D01*
X79378952Y-98980714D01*
X79331333Y-98980714D01*
X79283714Y-99004523D01*
X79259905Y-99028333D01*
X79236095Y-99075952D01*
X79212286Y-99171190D01*
X79188476Y-99218809D01*
X79164667Y-99242618D01*
X79117048Y-99266428D01*
X79069429Y-99266428D01*
X79021810Y-99242618D01*
X78998000Y-99218809D01*
X78974190Y-99171190D01*
X78974190Y-99052142D01*
X78998000Y-98980714D01*
X78974190Y-98814047D02*
X79474190Y-98695000D01*
X79117048Y-98599762D01*
X79474190Y-98504524D01*
X78974190Y-98385476D01*
X79474190Y-97933095D02*
X79474190Y-98218809D01*
X79474190Y-98075952D02*
X78974190Y-98075952D01*
X79045619Y-98123571D01*
X79093238Y-98171190D01*
X79117048Y-98218809D01*
X92277381Y-101365618D02*
X92301190Y-101294189D01*
X92301190Y-101175142D01*
X92277381Y-101127523D01*
X92253571Y-101103713D01*
X92205952Y-101079904D01*
X92158333Y-101079904D01*
X92110714Y-101103713D01*
X92086905Y-101127523D01*
X92063095Y-101175142D01*
X92039286Y-101270380D01*
X92015476Y-101317999D01*
X91991667Y-101341808D01*
X91944048Y-101365618D01*
X91896429Y-101365618D01*
X91848810Y-101341808D01*
X91825000Y-101317999D01*
X91801190Y-101270380D01*
X91801190Y-101151332D01*
X91825000Y-101079904D01*
X91801190Y-100913237D02*
X92301190Y-100794190D01*
X91944048Y-100698952D01*
X92301190Y-100603714D01*
X91801190Y-100484666D01*
X92348810Y-100413237D02*
X92348810Y-100032285D01*
X91801190Y-99960856D02*
X92301190Y-99841809D01*
X91944048Y-99746571D01*
X92301190Y-99651333D01*
X91801190Y-99532285D01*
X92158333Y-99365618D02*
X92158333Y-99127523D01*
X92301190Y-99413237D02*
X91801190Y-99246570D01*
X92301190Y-99079904D01*
X91801190Y-98984666D02*
X92301190Y-98817999D01*
X91801190Y-98651333D01*
X92039286Y-98484666D02*
X92039286Y-98318000D01*
X92301190Y-98246571D02*
X92301190Y-98484666D01*
X91801190Y-98484666D01*
X91801190Y-98246571D01*
X92301190Y-97770381D02*
X92301190Y-98056095D01*
X92301190Y-97913238D02*
X91801190Y-97913238D01*
X91872619Y-97960857D01*
X91920238Y-98008476D01*
X91944048Y-98056095D01*
X79086190Y-84138999D02*
X79086190Y-83853285D01*
X79586190Y-83996142D02*
X79086190Y-83996142D01*
X79586190Y-83400904D02*
X79348095Y-83567571D01*
X79586190Y-83686618D02*
X79086190Y-83686618D01*
X79086190Y-83496142D01*
X79110000Y-83448523D01*
X79133810Y-83424714D01*
X79181429Y-83400904D01*
X79252857Y-83400904D01*
X79300476Y-83424714D01*
X79324286Y-83448523D01*
X79348095Y-83496142D01*
X79348095Y-83686618D01*
X79586190Y-83186618D02*
X79086190Y-83186618D01*
X79110000Y-82686619D02*
X79086190Y-82734238D01*
X79086190Y-82805666D01*
X79110000Y-82877095D01*
X79157619Y-82924714D01*
X79205238Y-82948523D01*
X79300476Y-82972333D01*
X79371905Y-82972333D01*
X79467143Y-82948523D01*
X79514762Y-82924714D01*
X79562381Y-82877095D01*
X79586190Y-82805666D01*
X79586190Y-82758047D01*
X79562381Y-82686619D01*
X79538571Y-82662809D01*
X79371905Y-82662809D01*
X79371905Y-82758047D01*
X79586190Y-82186619D02*
X79586190Y-82472333D01*
X79586190Y-82329476D02*
X79086190Y-82329476D01*
X79157619Y-82377095D01*
X79205238Y-82424714D01*
X79229048Y-82472333D01*
X69302477Y-185273190D02*
X69302477Y-185677952D01*
X69326286Y-185725571D01*
X69350096Y-185749381D01*
X69397715Y-185773190D01*
X69492953Y-185773190D01*
X69540572Y-185749381D01*
X69564381Y-185725571D01*
X69588191Y-185677952D01*
X69588191Y-185273190D01*
X69707239Y-185820810D02*
X70088191Y-185820810D01*
X70207239Y-185773190D02*
X70207239Y-185273190D01*
X70492953Y-185773190D01*
X70492953Y-185273190D01*
X70731049Y-185511286D02*
X70897715Y-185511286D01*
X70969144Y-185773190D02*
X70731049Y-185773190D01*
X70731049Y-185273190D01*
X70969144Y-185273190D01*
X71445334Y-185297000D02*
X71397715Y-185273190D01*
X71326287Y-185273190D01*
X71254858Y-185297000D01*
X71207239Y-185344619D01*
X71183430Y-185392238D01*
X71159620Y-185487476D01*
X71159620Y-185558905D01*
X71183430Y-185654143D01*
X71207239Y-185701762D01*
X71254858Y-185749381D01*
X71326287Y-185773190D01*
X71373906Y-185773190D01*
X71445334Y-185749381D01*
X71469144Y-185725571D01*
X71469144Y-185558905D01*
X71373906Y-185558905D01*
X71945334Y-185773190D02*
X71659620Y-185773190D01*
X71802477Y-185773190D02*
X71802477Y-185273190D01*
X71754858Y-185344619D01*
X71707239Y-185392238D01*
X71659620Y-185416048D01*
X77303477Y-122916190D02*
X77303477Y-123320952D01*
X77327286Y-123368571D01*
X77351096Y-123392381D01*
X77398715Y-123416190D01*
X77493953Y-123416190D01*
X77541572Y-123392381D01*
X77565381Y-123368571D01*
X77589191Y-123320952D01*
X77589191Y-122916190D01*
X77708239Y-123463810D02*
X78089191Y-123463810D01*
X78208239Y-123416190D02*
X78208239Y-122916190D01*
X78493953Y-123416190D01*
X78493953Y-122916190D01*
X78732049Y-123154286D02*
X78898715Y-123154286D01*
X78970144Y-123416190D02*
X78732049Y-123416190D01*
X78732049Y-122916190D01*
X78970144Y-122916190D01*
X79446334Y-122940000D02*
X79398715Y-122916190D01*
X79327287Y-122916190D01*
X79255858Y-122940000D01*
X79208239Y-122987619D01*
X79184430Y-123035238D01*
X79160620Y-123130476D01*
X79160620Y-123201905D01*
X79184430Y-123297143D01*
X79208239Y-123344762D01*
X79255858Y-123392381D01*
X79327287Y-123416190D01*
X79374906Y-123416190D01*
X79446334Y-123392381D01*
X79470144Y-123368571D01*
X79470144Y-123201905D01*
X79374906Y-123201905D01*
X79660620Y-122963810D02*
X79684430Y-122940000D01*
X79732049Y-122916190D01*
X79851096Y-122916190D01*
X79898715Y-122940000D01*
X79922525Y-122963810D01*
X79946334Y-123011429D01*
X79946334Y-123059048D01*
X79922525Y-123130476D01*
X79636811Y-123416190D01*
X79946334Y-123416190D01*
X93642810Y-128504190D02*
X93642810Y-128908952D01*
X93666619Y-128956571D01*
X93690429Y-128980381D01*
X93738048Y-129004190D01*
X93833286Y-129004190D01*
X93880905Y-128980381D01*
X93904714Y-128956571D01*
X93928524Y-128908952D01*
X93928524Y-128504190D01*
X94047572Y-129051810D02*
X94428524Y-129051810D01*
X94547572Y-129004190D02*
X94547572Y-128504190D01*
X94738048Y-128504190D01*
X94785667Y-128528000D01*
X94809476Y-128551810D01*
X94833286Y-128599429D01*
X94833286Y-128670857D01*
X94809476Y-128718476D01*
X94785667Y-128742286D01*
X94738048Y-128766095D01*
X94547572Y-128766095D01*
X95285667Y-129004190D02*
X95047572Y-129004190D01*
X95047572Y-128504190D01*
X95690429Y-129004190D02*
X95452334Y-129004190D01*
X95452334Y-128504190D01*
X96119000Y-129004190D02*
X95833286Y-129004190D01*
X95976143Y-129004190D02*
X95976143Y-128504190D01*
X95928524Y-128575619D01*
X95880905Y-128623238D01*
X95833286Y-128647048D01*
X70739191Y-177724571D02*
X70715381Y-177748381D01*
X70643953Y-177772190D01*
X70596334Y-177772190D01*
X70524905Y-177748381D01*
X70477286Y-177700762D01*
X70453477Y-177653143D01*
X70429667Y-177557905D01*
X70429667Y-177486476D01*
X70453477Y-177391238D01*
X70477286Y-177343619D01*
X70524905Y-177296000D01*
X70596334Y-177272190D01*
X70643953Y-177272190D01*
X70715381Y-177296000D01*
X70739191Y-177319810D01*
X70834429Y-177819810D02*
X71215381Y-177819810D01*
X71334429Y-177772190D02*
X71334429Y-177272190D01*
X71524905Y-177272190D01*
X71572524Y-177296000D01*
X71596333Y-177319810D01*
X71620143Y-177367429D01*
X71620143Y-177438857D01*
X71596333Y-177486476D01*
X71572524Y-177510286D01*
X71524905Y-177534095D01*
X71334429Y-177534095D01*
X71786810Y-177272190D02*
X71905857Y-177772190D01*
X72001095Y-177415048D01*
X72096333Y-177772190D01*
X72215381Y-177272190D01*
X72691572Y-177772190D02*
X72524905Y-177534095D01*
X72405858Y-177772190D02*
X72405858Y-177272190D01*
X72596334Y-177272190D01*
X72643953Y-177296000D01*
X72667762Y-177319810D01*
X72691572Y-177367429D01*
X72691572Y-177438857D01*
X72667762Y-177486476D01*
X72643953Y-177510286D01*
X72596334Y-177534095D01*
X72405858Y-177534095D01*
X73072524Y-177510286D02*
X73143953Y-177534095D01*
X73167762Y-177557905D01*
X73191572Y-177605524D01*
X73191572Y-177676952D01*
X73167762Y-177724571D01*
X73143953Y-177748381D01*
X73096334Y-177772190D01*
X72905858Y-177772190D01*
X72905858Y-177272190D01*
X73072524Y-177272190D01*
X73120143Y-177296000D01*
X73143953Y-177319810D01*
X73167762Y-177367429D01*
X73167762Y-177415048D01*
X73143953Y-177462667D01*
X73120143Y-177486476D01*
X73072524Y-177510286D01*
X72905858Y-177510286D01*
X73501096Y-177534095D02*
X73501096Y-177772190D01*
X73334429Y-177272190D02*
X73501096Y-177534095D01*
X73667762Y-177272190D01*
X73810619Y-177319810D02*
X73834429Y-177296000D01*
X73882048Y-177272190D01*
X74001095Y-177272190D01*
X74048714Y-177296000D01*
X74072524Y-177319810D01*
X74096333Y-177367429D01*
X74096333Y-177415048D01*
X74072524Y-177486476D01*
X73786810Y-177772190D01*
X74096333Y-177772190D01*
X58781190Y-98690522D02*
X59138333Y-98690522D01*
X59209762Y-98714332D01*
X59257381Y-98761951D01*
X59281190Y-98833379D01*
X59281190Y-98880998D01*
X59328810Y-98571475D02*
X59328810Y-98190523D01*
X59138333Y-98095285D02*
X59138333Y-97857190D01*
X59281190Y-98142904D02*
X58781190Y-97976237D01*
X59281190Y-97809571D01*
X58781190Y-97642904D02*
X59185952Y-97642904D01*
X59233571Y-97619095D01*
X59257381Y-97595285D01*
X59281190Y-97547666D01*
X59281190Y-97452428D01*
X59257381Y-97404809D01*
X59233571Y-97381000D01*
X59185952Y-97357190D01*
X58781190Y-97357190D01*
X58781190Y-97166713D02*
X59281190Y-96833380D01*
X58781190Y-96833380D02*
X59281190Y-97166713D01*
X58828810Y-96666714D02*
X58805000Y-96642904D01*
X58781190Y-96595285D01*
X58781190Y-96476238D01*
X58805000Y-96428619D01*
X58828810Y-96404809D01*
X58876429Y-96381000D01*
X58924048Y-96381000D01*
X58995476Y-96404809D01*
X59281190Y-96690523D01*
X59281190Y-96381000D01*
X59281190Y-96166714D02*
X58781190Y-96166714D01*
X59138333Y-96000048D01*
X58781190Y-95833381D01*
X59281190Y-95833381D01*
X59138333Y-95619095D02*
X59138333Y-95381000D01*
X59281190Y-95666714D02*
X58781190Y-95500047D01*
X59281190Y-95333381D01*
X59281190Y-95166714D02*
X58781190Y-95166714D01*
X59281190Y-94928619D02*
X58781190Y-94928619D01*
X59281190Y-94642905D01*
X58781190Y-94642905D01*
X59328810Y-94523857D02*
X59328810Y-94142905D01*
X59281190Y-93785762D02*
X59281190Y-94023857D01*
X58781190Y-94023857D01*
X59019286Y-93619095D02*
X59019286Y-93452429D01*
X59281190Y-93381000D02*
X59281190Y-93619095D01*
X58781190Y-93619095D01*
X58781190Y-93381000D01*
X59281190Y-93166714D02*
X58781190Y-93166714D01*
X58781190Y-93047667D01*
X58805000Y-92976238D01*
X58852619Y-92928619D01*
X58900238Y-92904810D01*
X58995476Y-92881000D01*
X59066905Y-92881000D01*
X59162143Y-92904810D01*
X59209762Y-92928619D01*
X59257381Y-92976238D01*
X59281190Y-93047667D01*
X59281190Y-93166714D01*
X59281190Y-92404810D02*
X59281190Y-92690524D01*
X59281190Y-92547667D02*
X58781190Y-92547667D01*
X58852619Y-92595286D01*
X58900238Y-92642905D01*
X58924048Y-92690524D01*
X63353190Y-162444522D02*
X63710333Y-162444522D01*
X63781762Y-162468332D01*
X63829381Y-162515951D01*
X63853190Y-162587379D01*
X63853190Y-162634998D01*
X63900810Y-162325475D02*
X63900810Y-161944523D01*
X63853190Y-161825475D02*
X63353190Y-161825475D01*
X63710333Y-161658809D01*
X63353190Y-161492142D01*
X63853190Y-161492142D01*
X63710333Y-161277856D02*
X63710333Y-161039761D01*
X63853190Y-161325475D02*
X63353190Y-161158808D01*
X63853190Y-160992142D01*
X63853190Y-160825475D02*
X63353190Y-160825475D01*
X63853190Y-160587380D02*
X63353190Y-160587380D01*
X63853190Y-160301666D01*
X63353190Y-160301666D01*
X63400810Y-160087380D02*
X63377000Y-160063570D01*
X63353190Y-160015951D01*
X63353190Y-159896904D01*
X63377000Y-159849285D01*
X63400810Y-159825475D01*
X63448429Y-159801666D01*
X63496048Y-159801666D01*
X63567476Y-159825475D01*
X63853190Y-160111189D01*
X63853190Y-159801666D01*
X63710333Y-159611190D02*
X63710333Y-159373095D01*
X63853190Y-159658809D02*
X63353190Y-159492142D01*
X63853190Y-159325476D01*
X63353190Y-159158809D02*
X63757952Y-159158809D01*
X63805571Y-159135000D01*
X63829381Y-159111190D01*
X63853190Y-159063571D01*
X63853190Y-158968333D01*
X63829381Y-158920714D01*
X63805571Y-158896905D01*
X63757952Y-158873095D01*
X63353190Y-158873095D01*
X63353190Y-158682618D02*
X63853190Y-158349285D01*
X63353190Y-158349285D02*
X63853190Y-158682618D01*
X63900810Y-158277857D02*
X63900810Y-157896905D01*
X63853190Y-157539762D02*
X63853190Y-157777857D01*
X63353190Y-157777857D01*
X63591286Y-157373095D02*
X63591286Y-157206429D01*
X63853190Y-157135000D02*
X63853190Y-157373095D01*
X63353190Y-157373095D01*
X63353190Y-157135000D01*
X63853190Y-156920714D02*
X63353190Y-156920714D01*
X63353190Y-156801667D01*
X63377000Y-156730238D01*
X63424619Y-156682619D01*
X63472238Y-156658810D01*
X63567476Y-156635000D01*
X63638905Y-156635000D01*
X63734143Y-156658810D01*
X63781762Y-156682619D01*
X63829381Y-156730238D01*
X63853190Y-156801667D01*
X63853190Y-156920714D01*
X63853190Y-156158810D02*
X63853190Y-156444524D01*
X63853190Y-156301667D02*
X63353190Y-156301667D01*
X63424619Y-156349286D01*
X63472238Y-156396905D01*
X63496048Y-156444524D01*
X80962620Y-102891190D02*
X80795953Y-102653095D01*
X80676906Y-102891190D02*
X80676906Y-102391190D01*
X80867382Y-102391190D01*
X80915001Y-102415000D01*
X80938810Y-102438810D01*
X80962620Y-102486429D01*
X80962620Y-102557857D01*
X80938810Y-102605476D01*
X80915001Y-102629286D01*
X80867382Y-102653095D01*
X80676906Y-102653095D01*
X81057858Y-102938810D02*
X81438810Y-102938810D01*
X81795953Y-102891190D02*
X81557858Y-102891190D01*
X81557858Y-102391190D01*
X81962620Y-102629286D02*
X82129286Y-102629286D01*
X82200715Y-102891190D02*
X81962620Y-102891190D01*
X81962620Y-102391190D01*
X82200715Y-102391190D01*
X82415001Y-102891190D02*
X82415001Y-102391190D01*
X82534048Y-102391190D01*
X82605477Y-102415000D01*
X82653096Y-102462619D01*
X82676905Y-102510238D01*
X82700715Y-102605476D01*
X82700715Y-102676905D01*
X82676905Y-102772143D01*
X82653096Y-102819762D01*
X82605477Y-102867381D01*
X82534048Y-102891190D01*
X82415001Y-102891190D01*
X83176905Y-102891190D02*
X82891191Y-102891190D01*
X83034048Y-102891190D02*
X83034048Y-102391190D01*
X82986429Y-102462619D01*
X82938810Y-102510238D01*
X82891191Y-102534048D01*
X91313191Y-170739571D02*
X91289381Y-170763381D01*
X91217953Y-170787190D01*
X91170334Y-170787190D01*
X91098905Y-170763381D01*
X91051286Y-170715762D01*
X91027477Y-170668143D01*
X91003667Y-170572905D01*
X91003667Y-170501476D01*
X91027477Y-170406238D01*
X91051286Y-170358619D01*
X91098905Y-170311000D01*
X91170334Y-170287190D01*
X91217953Y-170287190D01*
X91289381Y-170311000D01*
X91313191Y-170334810D01*
X91408429Y-170834810D02*
X91789381Y-170834810D01*
X91908429Y-170787190D02*
X91908429Y-170287190D01*
X92098905Y-170287190D01*
X92146524Y-170311000D01*
X92170333Y-170334810D01*
X92194143Y-170382429D01*
X92194143Y-170453857D01*
X92170333Y-170501476D01*
X92146524Y-170525286D01*
X92098905Y-170549095D01*
X91908429Y-170549095D01*
X92360810Y-170287190D02*
X92479857Y-170787190D01*
X92575095Y-170430048D01*
X92670333Y-170787190D01*
X92789381Y-170287190D01*
X93265572Y-170787190D02*
X93098905Y-170549095D01*
X92979858Y-170787190D02*
X92979858Y-170287190D01*
X93170334Y-170287190D01*
X93217953Y-170311000D01*
X93241762Y-170334810D01*
X93265572Y-170382429D01*
X93265572Y-170453857D01*
X93241762Y-170501476D01*
X93217953Y-170525286D01*
X93170334Y-170549095D01*
X92979858Y-170549095D01*
X93646524Y-170525286D02*
X93717953Y-170549095D01*
X93741762Y-170572905D01*
X93765572Y-170620524D01*
X93765572Y-170691952D01*
X93741762Y-170739571D01*
X93717953Y-170763381D01*
X93670334Y-170787190D01*
X93479858Y-170787190D01*
X93479858Y-170287190D01*
X93646524Y-170287190D01*
X93694143Y-170311000D01*
X93717953Y-170334810D01*
X93741762Y-170382429D01*
X93741762Y-170430048D01*
X93717953Y-170477667D01*
X93694143Y-170501476D01*
X93646524Y-170525286D01*
X93479858Y-170525286D01*
X94075096Y-170549095D02*
X94075096Y-170787190D01*
X93908429Y-170287190D02*
X94075096Y-170549095D01*
X94241762Y-170287190D01*
X94670333Y-170787190D02*
X94384619Y-170787190D01*
X94527476Y-170787190D02*
X94527476Y-170287190D01*
X94479857Y-170358619D01*
X94432238Y-170406238D01*
X94384619Y-170430048D01*
D13*
X90898429Y-172108952D02*
X90898429Y-171347047D01*
X91279381Y-171727999D02*
X90517476Y-171727999D01*
D14*
X105648168Y-137148071D02*
X105624358Y-137171881D01*
X105552930Y-137195690D01*
X105505311Y-137195690D01*
X105433882Y-137171881D01*
X105386263Y-137124262D01*
X105362454Y-137076643D01*
X105338644Y-136981405D01*
X105338644Y-136909976D01*
X105362454Y-136814738D01*
X105386263Y-136767119D01*
X105433882Y-136719500D01*
X105505311Y-136695690D01*
X105552930Y-136695690D01*
X105624358Y-136719500D01*
X105648168Y-136743310D01*
X105743406Y-137243310D02*
X106124358Y-137243310D01*
X106219596Y-137171881D02*
X106291025Y-137195690D01*
X106410072Y-137195690D01*
X106457691Y-137171881D01*
X106481501Y-137148071D01*
X106505310Y-137100452D01*
X106505310Y-137052833D01*
X106481501Y-137005214D01*
X106457691Y-136981405D01*
X106410072Y-136957595D01*
X106314834Y-136933786D01*
X106267215Y-136909976D01*
X106243406Y-136886167D01*
X106219596Y-136838548D01*
X106219596Y-136790929D01*
X106243406Y-136743310D01*
X106267215Y-136719500D01*
X106314834Y-136695690D01*
X106433882Y-136695690D01*
X106505310Y-136719500D01*
X106695786Y-137052833D02*
X106933881Y-137052833D01*
X106648167Y-137195690D02*
X106814834Y-136695690D01*
X106981500Y-137195690D01*
X107100548Y-136695690D02*
X107219595Y-137195690D01*
X107314833Y-136838548D01*
X107410071Y-137195690D01*
X107529119Y-136695690D01*
X107719596Y-137195690D02*
X107719596Y-136695690D01*
X107957691Y-137195690D02*
X107957691Y-136695690D01*
X108243405Y-137195690D01*
X108243405Y-136695690D01*
X108410072Y-136695690D02*
X108695786Y-136695690D01*
X108552929Y-137195690D02*
X108552929Y-136695690D01*
X109124357Y-137195690D02*
X108838643Y-137195690D01*
X108981500Y-137195690D02*
X108981500Y-136695690D01*
X108933881Y-136767119D01*
X108886262Y-136814738D01*
X108838643Y-136838548D01*
X105965811Y-150657690D02*
X105799144Y-150419595D01*
X105680097Y-150657690D02*
X105680097Y-150157690D01*
X105870573Y-150157690D01*
X105918192Y-150181500D01*
X105942001Y-150205310D01*
X105965811Y-150252929D01*
X105965811Y-150324357D01*
X105942001Y-150371976D01*
X105918192Y-150395786D01*
X105870573Y-150419595D01*
X105680097Y-150419595D01*
X106061049Y-150705310D02*
X106442001Y-150705310D01*
X106537239Y-150633881D02*
X106608668Y-150657690D01*
X106727715Y-150657690D01*
X106775334Y-150633881D01*
X106799144Y-150610071D01*
X106822953Y-150562452D01*
X106822953Y-150514833D01*
X106799144Y-150467214D01*
X106775334Y-150443405D01*
X106727715Y-150419595D01*
X106632477Y-150395786D01*
X106584858Y-150371976D01*
X106561049Y-150348167D01*
X106537239Y-150300548D01*
X106537239Y-150252929D01*
X106561049Y-150205310D01*
X106584858Y-150181500D01*
X106632477Y-150157690D01*
X106751525Y-150157690D01*
X106822953Y-150181500D01*
X107013429Y-150514833D02*
X107251524Y-150514833D01*
X106965810Y-150657690D02*
X107132477Y-150157690D01*
X107299143Y-150657690D01*
X107418191Y-150157690D02*
X107537238Y-150657690D01*
X107632476Y-150300548D01*
X107727714Y-150657690D01*
X107846762Y-150157690D01*
X108203905Y-150395786D02*
X108037239Y-150395786D01*
X108037239Y-150657690D02*
X108037239Y-150157690D01*
X108275334Y-150157690D01*
X108632476Y-150395786D02*
X108703905Y-150419595D01*
X108727714Y-150443405D01*
X108751524Y-150491024D01*
X108751524Y-150562452D01*
X108727714Y-150610071D01*
X108703905Y-150633881D01*
X108656286Y-150657690D01*
X108465810Y-150657690D01*
X108465810Y-150157690D01*
X108632476Y-150157690D01*
X108680095Y-150181500D01*
X108703905Y-150205310D01*
X108727714Y-150252929D01*
X108727714Y-150300548D01*
X108703905Y-150348167D01*
X108680095Y-150371976D01*
X108632476Y-150395786D01*
X108465810Y-150395786D01*
X109227714Y-150657690D02*
X108942000Y-150657690D01*
X109084857Y-150657690D02*
X109084857Y-150157690D01*
X109037238Y-150229119D01*
X108989619Y-150276738D01*
X108942000Y-150300548D01*
X105469763Y-141069190D02*
X105303096Y-140831095D01*
X105184049Y-141069190D02*
X105184049Y-140569190D01*
X105374525Y-140569190D01*
X105422144Y-140593000D01*
X105445953Y-140616810D01*
X105469763Y-140664429D01*
X105469763Y-140735857D01*
X105445953Y-140783476D01*
X105422144Y-140807286D01*
X105374525Y-140831095D01*
X105184049Y-140831095D01*
X105565001Y-141116810D02*
X105945953Y-141116810D01*
X106041191Y-141045381D02*
X106112620Y-141069190D01*
X106231667Y-141069190D01*
X106279286Y-141045381D01*
X106303096Y-141021571D01*
X106326905Y-140973952D01*
X106326905Y-140926333D01*
X106303096Y-140878714D01*
X106279286Y-140854905D01*
X106231667Y-140831095D01*
X106136429Y-140807286D01*
X106088810Y-140783476D01*
X106065001Y-140759667D01*
X106041191Y-140712048D01*
X106041191Y-140664429D01*
X106065001Y-140616810D01*
X106088810Y-140593000D01*
X106136429Y-140569190D01*
X106255477Y-140569190D01*
X106326905Y-140593000D01*
X106517381Y-140926333D02*
X106755476Y-140926333D01*
X106469762Y-141069190D02*
X106636429Y-140569190D01*
X106803095Y-141069190D01*
X106922143Y-140569190D02*
X107041190Y-141069190D01*
X107136428Y-140712048D01*
X107231666Y-141069190D01*
X107350714Y-140569190D01*
X107684048Y-140569190D02*
X107684048Y-140926333D01*
X107660238Y-140997762D01*
X107612619Y-141045381D01*
X107541191Y-141069190D01*
X107493572Y-141069190D01*
X108017381Y-140569190D02*
X108112619Y-140569190D01*
X108160238Y-140593000D01*
X108207857Y-140640619D01*
X108231666Y-140735857D01*
X108231666Y-140902524D01*
X108207857Y-140997762D01*
X108160238Y-141045381D01*
X108112619Y-141069190D01*
X108017381Y-141069190D01*
X107969762Y-141045381D01*
X107922143Y-140997762D01*
X107898333Y-140902524D01*
X107898333Y-140735857D01*
X107922143Y-140640619D01*
X107969762Y-140593000D01*
X108017381Y-140569190D01*
X108445953Y-141069190D02*
X108445953Y-140569190D01*
X108684048Y-141069190D02*
X108684048Y-140569190D01*
X108969762Y-141069190D01*
X108969762Y-140569190D01*
X109469762Y-141069190D02*
X109184048Y-141069190D01*
X109326905Y-141069190D02*
X109326905Y-140569190D01*
X109279286Y-140640619D01*
X109231667Y-140688238D01*
X109184048Y-140712048D01*
X109876190Y-114458571D02*
X109638095Y-114625238D01*
X109876190Y-114744285D02*
X109376190Y-114744285D01*
X109376190Y-114553809D01*
X109400000Y-114506190D01*
X109423810Y-114482381D01*
X109471429Y-114458571D01*
X109542857Y-114458571D01*
X109590476Y-114482381D01*
X109614286Y-114506190D01*
X109638095Y-114553809D01*
X109638095Y-114744285D01*
X109923810Y-114363333D02*
X109923810Y-113982381D01*
X109852381Y-113887143D02*
X109876190Y-113815714D01*
X109876190Y-113696667D01*
X109852381Y-113649048D01*
X109828571Y-113625238D01*
X109780952Y-113601429D01*
X109733333Y-113601429D01*
X109685714Y-113625238D01*
X109661905Y-113649048D01*
X109638095Y-113696667D01*
X109614286Y-113791905D01*
X109590476Y-113839524D01*
X109566667Y-113863333D01*
X109519048Y-113887143D01*
X109471429Y-113887143D01*
X109423810Y-113863333D01*
X109400000Y-113839524D01*
X109376190Y-113791905D01*
X109376190Y-113672857D01*
X109400000Y-113601429D01*
X109376190Y-113434762D02*
X109876190Y-113315715D01*
X109519048Y-113220477D01*
X109876190Y-113125239D01*
X109376190Y-113006191D01*
X109876190Y-112815714D02*
X109376190Y-112815714D01*
X109876190Y-112577619D02*
X109376190Y-112577619D01*
X109876190Y-112291905D01*
X109376190Y-112291905D01*
X109400000Y-111791905D02*
X109376190Y-111839524D01*
X109376190Y-111910952D01*
X109400000Y-111982381D01*
X109447619Y-112030000D01*
X109495238Y-112053809D01*
X109590476Y-112077619D01*
X109661905Y-112077619D01*
X109757143Y-112053809D01*
X109804762Y-112030000D01*
X109852381Y-111982381D01*
X109876190Y-111910952D01*
X109876190Y-111863333D01*
X109852381Y-111791905D01*
X109828571Y-111768095D01*
X109661905Y-111768095D01*
X109661905Y-111863333D01*
X109876190Y-111291905D02*
X109876190Y-111577619D01*
X109876190Y-111434762D02*
X109376190Y-111434762D01*
X109447619Y-111482381D01*
X109495238Y-111530000D01*
X109519048Y-111577619D01*
X93706190Y-191158571D02*
X94110952Y-191158571D01*
X94158571Y-191134762D01*
X94182381Y-191110952D01*
X94206190Y-191063333D01*
X94206190Y-190968095D01*
X94182381Y-190920476D01*
X94158571Y-190896667D01*
X94110952Y-190872857D01*
X93706190Y-190872857D01*
X94253810Y-190753809D02*
X94253810Y-190372857D01*
X94206190Y-190253809D02*
X93706190Y-190253809D01*
X94063333Y-190087143D01*
X93706190Y-189920476D01*
X94206190Y-189920476D01*
X94063333Y-189706190D02*
X94063333Y-189468095D01*
X94206190Y-189753809D02*
X93706190Y-189587142D01*
X94206190Y-189420476D01*
X94206190Y-189253809D02*
X93706190Y-189253809D01*
X94206190Y-189015714D02*
X93706190Y-189015714D01*
X94206190Y-188730000D01*
X93706190Y-188730000D01*
X93706190Y-188396666D02*
X93706190Y-188301428D01*
X93730000Y-188253809D01*
X93777619Y-188206190D01*
X93872857Y-188182381D01*
X94039524Y-188182381D01*
X94134762Y-188206190D01*
X94182381Y-188253809D01*
X94206190Y-188301428D01*
X94206190Y-188396666D01*
X94182381Y-188444285D01*
X94134762Y-188491904D01*
X94039524Y-188515714D01*
X93872857Y-188515714D01*
X93777619Y-188491904D01*
X93730000Y-188444285D01*
X93706190Y-188396666D01*
X94063333Y-187991904D02*
X94063333Y-187753809D01*
X94206190Y-188039523D02*
X93706190Y-187872856D01*
X94206190Y-187706190D01*
X94206190Y-187277619D02*
X94206190Y-187563333D01*
X94206190Y-187420476D02*
X93706190Y-187420476D01*
X93777619Y-187468095D01*
X93825238Y-187515714D01*
X93849048Y-187563333D01*
X91166190Y-147168999D02*
X91570952Y-147168999D01*
X91618571Y-147145190D01*
X91642381Y-147121380D01*
X91666190Y-147073761D01*
X91666190Y-146978523D01*
X91642381Y-146930904D01*
X91618571Y-146907095D01*
X91570952Y-146883285D01*
X91166190Y-146883285D01*
X91713810Y-146764237D02*
X91713810Y-146383285D01*
X91166190Y-146168999D02*
X91166190Y-146073761D01*
X91190000Y-146026142D01*
X91237619Y-145978523D01*
X91332857Y-145954714D01*
X91499524Y-145954714D01*
X91594762Y-145978523D01*
X91642381Y-146026142D01*
X91666190Y-146073761D01*
X91666190Y-146168999D01*
X91642381Y-146216618D01*
X91594762Y-146264237D01*
X91499524Y-146288047D01*
X91332857Y-146288047D01*
X91237619Y-146264237D01*
X91190000Y-146216618D01*
X91166190Y-146168999D01*
X91523333Y-145764237D02*
X91523333Y-145526142D01*
X91666190Y-145811856D02*
X91166190Y-145645189D01*
X91666190Y-145478523D01*
X91404286Y-145145190D02*
X91404286Y-145311856D01*
X91666190Y-145311856D02*
X91166190Y-145311856D01*
X91166190Y-145073761D01*
X91166190Y-144930904D02*
X91666190Y-144597571D01*
X91166190Y-144597571D02*
X91666190Y-144930904D01*
X91666190Y-144145191D02*
X91666190Y-144430905D01*
X91666190Y-144288048D02*
X91166190Y-144288048D01*
X91237619Y-144335667D01*
X91285238Y-144383286D01*
X91309048Y-144430905D01*
M02*
