M48
;DRILL file {KiCad 4.0.7} date Sunday, 08 April 2018 'PMt' 12:22:32
;FORMAT={-:-/ absolute / metric / decimal}
FMAT,2
METRIC,TZ
T1C0.400
T2C0.900
T3C1.000
T4C1.500
T5C2.000
%
G90
G05
M71
T1
X65.913Y-183.134
X69.469Y-178.816
X75.565Y-122.301
X81.978Y-111.442
X83.248Y-118.618
X83.376Y-121.158
X86.042Y-173.609
X87.503Y-197.866
X87.757Y-143.891
X87.757Y-146.939
X89.916Y-180.594
X92.71Y-120.968
X92.837Y-178.435
X92.964Y-140.589
X92.964Y-151.511
X96.012Y-151.511
X96.393Y-150.114
X96.774Y-140.589
X97.663Y-143.637
X97.663Y-147.701
X98.87Y-128.588
X98.933Y-141.224
X99.568Y-191.135
X99.695Y-187.071
X100.33Y-138.43
X102.679Y-128.588
X102.87Y-143.764
X102.87Y-147.066
X104.14Y-124.46
X109.347Y-204.978
X109.347Y-209.232
X110.49Y-156.21
T2
X86.36Y-102.235
X88.9Y-102.235
T3
X60.96Y-57.277
X60.96Y-59.817
X60.96Y-62.357
X60.96Y-64.897
X60.96Y-75.057
X60.96Y-77.597
X60.96Y-80.137
X60.96Y-82.677
X60.96Y-92.329
X60.96Y-94.869
X60.96Y-97.409
X60.96Y-99.949
X60.96Y-120.777
X60.96Y-123.317
X60.96Y-125.857
X60.96Y-128.397
X60.96Y-138.557
X60.96Y-141.097
X60.96Y-143.637
X60.96Y-146.177
X60.96Y-155.829
X60.96Y-158.369
X60.96Y-160.909
X60.96Y-163.449
X69.21Y-77.089
X69.215Y-56.515
X71.71Y-77.089
X71.715Y-56.515
X74.21Y-77.089
X74.215Y-56.515
X97.15Y-76.82
X97.155Y-56.515
X99.65Y-76.82
X99.655Y-56.515
X102.15Y-76.82
X102.155Y-56.515
X125.09Y-76.82
X125.095Y-56.515
X127.59Y-76.82
X127.595Y-56.515
X130.09Y-76.82
X130.095Y-56.515
X137.16Y-57.277
X137.16Y-59.817
X137.16Y-62.357
X137.16Y-64.897
X137.16Y-71.12
X137.16Y-73.66
X137.16Y-76.2
X137.16Y-78.74
X137.16Y-81.28
X137.16Y-83.82
X137.16Y-88.773
X137.16Y-91.313
X137.16Y-93.853
X137.16Y-96.393
X137.16Y-98.933
X137.16Y-101.473
X137.16Y-120.713
X137.16Y-123.253
X137.16Y-125.793
X137.16Y-128.333
X137.16Y-134.556
X137.16Y-137.096
X137.16Y-139.636
X137.16Y-142.177
X137.16Y-144.716
X137.16Y-147.256
X137.16Y-152.209
X137.16Y-154.749
X137.16Y-157.29
X137.16Y-159.829
X137.16Y-162.369
X137.16Y-164.909
T4
X94.068Y-203.743
X94.068Y-208.343
X94.068Y-212.944
X99.568Y-203.743
X99.568Y-208.343
X99.568Y-212.944
X105.068Y-203.743
X105.068Y-208.343
X105.068Y-212.944
T5
X61.826Y-206.755
X61.849Y-190.755
X74.826Y-190.755
X74.826Y-206.755
X123.865Y-169.736
X123.865Y-185.736
X123.865Y-190.755
X123.865Y-206.755
X136.843Y-185.736
X136.843Y-206.755
X136.865Y-169.736
X136.865Y-190.755
T3
X61.945Y-171.974G85X61.945Y-173.974
G05
X63.945Y-177.674G85X65.945Y-177.674
G05
X67.055Y-99.195G85X67.055Y-100.195
G05
X67.945Y-171.974G85X67.945Y-173.974
G05
X71.755Y-99.195G85X71.755Y-100.195
G05
X76.455Y-99.195G85X76.455Y-100.195
G05
X94.995Y-99.195G85X94.995Y-100.195
G05
X99.695Y-99.195G85X99.695Y-100.195
G05
X104.395Y-99.195G85X104.395Y-100.195
G05
X122.935Y-99.195G85X122.935Y-100.195
G05
X127.635Y-99.195G85X127.635Y-100.195
G05
X132.335Y-99.195G85X132.335Y-100.195
G05
T0
M30
