G04 #@! TF.FileFunction,Soldermask,Bot*
%FSLAX46Y46*%
G04 Gerber Fmt 4.6, Leading zero omitted, Abs format (unit mm)*
G04 Created by KiCad (PCBNEW 4.0.7) date 04/07/18 17:46:35*
%MOMM*%
%LPD*%
G01*
G04 APERTURE LIST*
%ADD10C,0.100000*%
%ADD11C,2.200000*%
%ADD12C,4.400000*%
%ADD13R,2.200000X2.200000*%
%ADD14R,2.100000X2.100000*%
%ADD15O,2.100000X2.100000*%
%ADD16O,5.400000X4.400000*%
%ADD17R,3.900000X3.900000*%
%ADD18O,3.900000X3.400000*%
%ADD19O,3.400000X4.400000*%
G04 APERTURE END LIST*
D10*
D11*
X130090000Y-55753000D03*
X127590000Y-55753000D03*
X125090000Y-55753000D03*
D12*
X131990000Y-62753000D03*
X123190000Y-62753000D03*
D13*
X101727000Y-102489000D03*
D11*
X99187000Y-102489000D03*
X74210000Y-55753000D03*
X71710000Y-55753000D03*
X69210000Y-55753000D03*
D12*
X76110000Y-62753000D03*
X67310000Y-62753000D03*
D11*
X102150000Y-76820000D03*
X99650000Y-76820000D03*
X97150000Y-76820000D03*
D12*
X104050000Y-83820000D03*
X95250000Y-83820000D03*
D14*
X60960000Y-57277000D03*
D15*
X60960000Y-59817000D03*
X60960000Y-62357000D03*
X60960000Y-64897000D03*
D14*
X137160000Y-88773000D03*
D15*
X137160000Y-91313000D03*
X137160000Y-93853000D03*
X137160000Y-96393000D03*
X137160000Y-98933000D03*
X137160000Y-101473000D03*
D14*
X60960000Y-75057000D03*
D15*
X60960000Y-77597000D03*
X60960000Y-80137000D03*
X60960000Y-82677000D03*
D14*
X137160000Y-64897000D03*
D15*
X137160000Y-62357000D03*
X137160000Y-59817000D03*
X137160000Y-57277000D03*
D14*
X137160000Y-71120000D03*
D15*
X137160000Y-73660000D03*
X137160000Y-76200000D03*
X137160000Y-78740000D03*
X137160000Y-81280000D03*
X137160000Y-83820000D03*
D16*
X123865500Y-185736500D03*
X123865500Y-169736500D03*
X136865500Y-169736500D03*
X136842500Y-185736500D03*
X123865500Y-206755000D03*
X123865500Y-190755000D03*
X136865500Y-190755000D03*
X136842500Y-206755000D03*
D14*
X60960000Y-120777000D03*
D15*
X60960000Y-123317000D03*
X60960000Y-125857000D03*
X60960000Y-128397000D03*
D14*
X137160000Y-134556500D03*
D15*
X137160000Y-137096500D03*
X137160000Y-139636500D03*
X137160000Y-142176500D03*
X137160000Y-144716500D03*
X137160000Y-147256500D03*
D14*
X60960000Y-138557000D03*
D15*
X60960000Y-141097000D03*
X60960000Y-143637000D03*
X60960000Y-146177000D03*
D14*
X137160000Y-128333500D03*
D15*
X137160000Y-125793500D03*
X137160000Y-123253500D03*
X137160000Y-120713500D03*
D14*
X137160000Y-152209500D03*
D15*
X137160000Y-154749500D03*
X137160000Y-157289500D03*
X137160000Y-159829500D03*
X137160000Y-162369500D03*
X137160000Y-164909500D03*
D16*
X74826000Y-190755000D03*
X74826000Y-206755000D03*
X61826000Y-206755000D03*
X61849000Y-190755000D03*
D17*
X67945000Y-172974000D03*
X61945000Y-172974000D03*
X64945000Y-177674000D03*
D11*
X130090000Y-76820000D03*
X127590000Y-76820000D03*
X125090000Y-76820000D03*
D12*
X131990000Y-83820000D03*
X123190000Y-83820000D03*
D11*
X102150000Y-55753000D03*
X99650000Y-55753000D03*
X97150000Y-55753000D03*
D12*
X104050000Y-62753000D03*
X95250000Y-62753000D03*
D18*
X105068000Y-212943500D03*
X99568000Y-212943500D03*
X94068000Y-212943500D03*
X105068000Y-208343500D03*
X99568000Y-208343500D03*
X94068000Y-208343500D03*
X105068000Y-203743500D03*
X99568000Y-203743500D03*
X94068000Y-203743500D03*
D19*
X127380000Y-95885000D03*
X132080000Y-95885000D03*
X122680000Y-95885000D03*
X71120000Y-95885000D03*
X75820000Y-95885000D03*
X66420000Y-95885000D03*
X100203000Y-95885000D03*
X104903000Y-95885000D03*
X95503000Y-95885000D03*
D11*
X74210000Y-77089000D03*
X71710000Y-77089000D03*
X69210000Y-77089000D03*
D12*
X76110000Y-84089000D03*
X67310000Y-84089000D03*
D14*
X60960000Y-99949000D03*
D15*
X60960000Y-97409000D03*
X60960000Y-94869000D03*
X60960000Y-92329000D03*
D14*
X60960000Y-163449000D03*
D15*
X60960000Y-160909000D03*
X60960000Y-158369000D03*
X60960000Y-155829000D03*
M02*
