G04 #@! TF.FileFunction,Copper,L1,Top,Signal*
%FSLAX46Y46*%
G04 Gerber Fmt 4.6, Leading zero omitted, Abs format (unit mm)*
G04 Created by KiCad (PCBNEW 4.0.7) date Saturday, 07 April 2018 'PMt' 21:18:55*
%MOMM*%
%LPD*%
G01*
G04 APERTURE LIST*
%ADD10C,0.100000*%
%ADD11R,2.600000X1.600000*%
%ADD12R,1.600000X2.600000*%
%ADD13R,1.500000X1.250000*%
%ADD14R,1.250000X1.500000*%
%ADD15C,1.800000*%
%ADD16C,4.000000*%
%ADD17R,1.100000X1.100000*%
%ADD18R,1.800000X1.800000*%
%ADD19R,1.700000X1.700000*%
%ADD20O,1.700000X1.700000*%
%ADD21O,5.000000X4.000000*%
%ADD22R,3.500000X3.500000*%
%ADD23R,1.500000X1.300000*%
%ADD24R,1.300000X1.500000*%
%ADD25O,3.500000X3.000000*%
%ADD26O,3.000000X4.000000*%
%ADD27R,1.143000X0.508000*%
%ADD28R,0.508000X1.143000*%
%ADD29C,0.600000*%
%ADD30C,0.500000*%
%ADD31C,0.250000*%
%ADD32C,0.750000*%
G04 APERTURE END LIST*
D10*
D11*
X83715000Y-173609000D03*
X80115000Y-173609000D03*
X79905000Y-113538000D03*
X76305000Y-113538000D03*
X80115000Y-179959000D03*
X83715000Y-179959000D03*
D12*
X85725000Y-122069000D03*
X85725000Y-118469000D03*
D13*
X107295000Y-160464500D03*
X104795000Y-160464500D03*
D14*
X114363500Y-194163000D03*
X114363500Y-191663000D03*
D13*
X110700500Y-116967000D03*
X113200500Y-116967000D03*
X108033500Y-120523000D03*
X110533500Y-120523000D03*
X107866500Y-116967000D03*
X105366500Y-116967000D03*
D14*
X79248000Y-132608000D03*
X79248000Y-135108000D03*
X97155000Y-141712000D03*
X97155000Y-139212000D03*
D15*
X130090000Y-55753000D03*
X127590000Y-55753000D03*
X125090000Y-55753000D03*
D16*
X131990000Y-62753000D03*
X123190000Y-62753000D03*
D17*
X64392000Y-185293000D03*
X61592000Y-185293000D03*
D18*
X101727000Y-102489000D03*
D15*
X99187000Y-102489000D03*
X74210000Y-55753000D03*
X71710000Y-55753000D03*
X69210000Y-55753000D03*
D16*
X76110000Y-62753000D03*
X67310000Y-62753000D03*
D15*
X102150000Y-76820000D03*
X99650000Y-76820000D03*
X97150000Y-76820000D03*
D16*
X104050000Y-83820000D03*
X95250000Y-83820000D03*
D19*
X60960000Y-57277000D03*
D20*
X60960000Y-59817000D03*
X60960000Y-62357000D03*
X60960000Y-64897000D03*
D19*
X137160000Y-88773000D03*
D20*
X137160000Y-91313000D03*
X137160000Y-93853000D03*
X137160000Y-96393000D03*
X137160000Y-98933000D03*
X137160000Y-101473000D03*
D19*
X60960000Y-75057000D03*
D20*
X60960000Y-77597000D03*
X60960000Y-80137000D03*
X60960000Y-82677000D03*
D19*
X137160000Y-64897000D03*
D20*
X137160000Y-62357000D03*
X137160000Y-59817000D03*
X137160000Y-57277000D03*
D19*
X137160000Y-71120000D03*
D20*
X137160000Y-73660000D03*
X137160000Y-76200000D03*
X137160000Y-78740000D03*
X137160000Y-81280000D03*
X137160000Y-83820000D03*
D21*
X123865500Y-185736500D03*
X123865500Y-169736500D03*
X136865500Y-169736500D03*
X136842500Y-185736500D03*
X123865500Y-206755000D03*
X123865500Y-190755000D03*
X136865500Y-190755000D03*
X136842500Y-206755000D03*
D19*
X60960000Y-120777000D03*
D20*
X60960000Y-123317000D03*
X60960000Y-125857000D03*
X60960000Y-128397000D03*
D19*
X137160000Y-134556500D03*
D20*
X137160000Y-137096500D03*
X137160000Y-139636500D03*
X137160000Y-142176500D03*
X137160000Y-144716500D03*
X137160000Y-147256500D03*
D19*
X60960000Y-138557000D03*
D20*
X60960000Y-141097000D03*
X60960000Y-143637000D03*
X60960000Y-146177000D03*
D19*
X137160000Y-128333500D03*
D20*
X137160000Y-125793500D03*
X137160000Y-123253500D03*
X137160000Y-120713500D03*
D19*
X137160000Y-152209500D03*
D20*
X137160000Y-154749500D03*
X137160000Y-157289500D03*
X137160000Y-159829500D03*
X137160000Y-162369500D03*
X137160000Y-164909500D03*
D21*
X74826000Y-190755000D03*
X74826000Y-206755000D03*
X61826000Y-206755000D03*
X61849000Y-190755000D03*
D22*
X67945000Y-172974000D03*
X61945000Y-172974000D03*
X64945000Y-177674000D03*
D15*
X130090000Y-76820000D03*
X127590000Y-76820000D03*
X125090000Y-76820000D03*
D16*
X131990000Y-83820000D03*
X123190000Y-83820000D03*
D23*
X107870000Y-169418000D03*
X110570000Y-169418000D03*
D24*
X94615000Y-187499000D03*
X94615000Y-190199000D03*
D23*
X86026000Y-194183000D03*
X88726000Y-194183000D03*
D24*
X67945000Y-127555000D03*
X67945000Y-130255000D03*
X124079000Y-149051000D03*
X124079000Y-146351000D03*
D23*
X101680000Y-170180000D03*
X98980000Y-170180000D03*
X108665000Y-131318000D03*
X105965000Y-131318000D03*
D15*
X102150000Y-55753000D03*
X99650000Y-55753000D03*
X97150000Y-55753000D03*
D16*
X104050000Y-62753000D03*
X95250000Y-62753000D03*
D25*
X105068000Y-212943500D03*
X99568000Y-212943500D03*
X94068000Y-212943500D03*
X105068000Y-208343500D03*
X99568000Y-208343500D03*
X94068000Y-208343500D03*
X105068000Y-203743500D03*
X99568000Y-203743500D03*
X94068000Y-203743500D03*
D26*
X127380000Y-95885000D03*
X132080000Y-95885000D03*
X122680000Y-95885000D03*
X71120000Y-95885000D03*
X75820000Y-95885000D03*
X66420000Y-95885000D03*
X100203000Y-95885000D03*
X104903000Y-95885000D03*
X95503000Y-95885000D03*
D15*
X74210000Y-77089000D03*
X71710000Y-77089000D03*
X69210000Y-77089000D03*
D16*
X76110000Y-84089000D03*
X67310000Y-84089000D03*
D27*
X73660000Y-180594000D03*
X73660000Y-181864000D03*
X73660000Y-183134000D03*
X73660000Y-184404000D03*
X67310000Y-184404000D03*
X67310000Y-183134000D03*
X67310000Y-181864000D03*
X67310000Y-180594000D03*
X75565000Y-121158000D03*
X75565000Y-119888000D03*
X75565000Y-118618000D03*
X75565000Y-117348000D03*
X81915000Y-117348000D03*
X81915000Y-118618000D03*
X81915000Y-119888000D03*
X81915000Y-121158000D03*
X105473500Y-194183000D03*
X105473500Y-192913000D03*
X105473500Y-191643000D03*
X105473500Y-190373000D03*
X111823500Y-190373000D03*
X111823500Y-191643000D03*
X111823500Y-192913000D03*
X111823500Y-194183000D03*
X76708000Y-129286000D03*
X76708000Y-130556000D03*
X76708000Y-131826000D03*
X76708000Y-133096000D03*
X70358000Y-133096000D03*
X70358000Y-131826000D03*
X70358000Y-130556000D03*
X70358000Y-129286000D03*
D28*
X125430381Y-159166500D03*
X124160381Y-159166500D03*
X122890381Y-159166500D03*
X121620381Y-159166500D03*
X121620381Y-152816500D03*
X122890381Y-152816500D03*
X124160381Y-152816500D03*
X125430381Y-152816500D03*
D27*
X109855000Y-173355000D03*
X109855000Y-174625000D03*
X109855000Y-175895000D03*
X109855000Y-177165000D03*
X103505000Y-177165000D03*
X103505000Y-175895000D03*
X103505000Y-174625000D03*
X103505000Y-173355000D03*
D28*
X87489000Y-185740500D03*
X88759000Y-185740500D03*
X90029000Y-185740500D03*
X91299000Y-185740500D03*
X91299000Y-192090500D03*
X90029000Y-192090500D03*
X88759000Y-192090500D03*
X87489000Y-192090500D03*
D27*
X88011000Y-148336000D03*
X88011000Y-145796000D03*
X88011000Y-144526000D03*
X88011000Y-143256000D03*
X88011000Y-141986000D03*
X88011000Y-140716000D03*
X88011000Y-139446000D03*
X94361000Y-139446000D03*
X94361000Y-140716000D03*
X94361000Y-141986000D03*
X94361000Y-143256000D03*
X94361000Y-144526000D03*
X94361000Y-145796000D03*
X94361000Y-147066000D03*
X94361000Y-148336000D03*
X88011000Y-147066000D03*
D28*
X114300000Y-139954000D03*
X113030000Y-139954000D03*
X111760000Y-139954000D03*
X110490000Y-139954000D03*
X110490000Y-133604000D03*
X111760000Y-133604000D03*
X113030000Y-133604000D03*
X114300000Y-133604000D03*
D14*
X103441500Y-193314000D03*
X103441500Y-195814000D03*
D13*
X111843500Y-188595000D03*
X114343500Y-188595000D03*
X88793000Y-183769000D03*
X91293000Y-183769000D03*
X91333000Y-194310000D03*
X93833000Y-194310000D03*
D14*
X114300000Y-173970000D03*
X114300000Y-171470000D03*
D13*
X107549000Y-183007000D03*
X105049000Y-183007000D03*
D14*
X79248000Y-130409000D03*
X79248000Y-127909000D03*
X67945000Y-133497000D03*
X67945000Y-135997000D03*
D13*
X116225000Y-139954000D03*
X118725000Y-139954000D03*
X108565000Y-133604000D03*
X106065000Y-133604000D03*
X124186000Y-161544000D03*
X121686000Y-161544000D03*
D14*
X120015000Y-152634000D03*
X120015000Y-150134000D03*
X88011000Y-150261000D03*
X88011000Y-152761000D03*
D13*
X71140000Y-178816000D03*
X73640000Y-178816000D03*
D14*
X73787000Y-118638000D03*
X73787000Y-121138000D03*
D19*
X60960000Y-99949000D03*
D20*
X60960000Y-97409000D03*
X60960000Y-94869000D03*
X60960000Y-92329000D03*
D19*
X60960000Y-163449000D03*
D20*
X60960000Y-160909000D03*
X60960000Y-158369000D03*
X60960000Y-155829000D03*
D23*
X94441000Y-100965000D03*
X91741000Y-100965000D03*
D12*
X92837000Y-172698000D03*
X92837000Y-176298000D03*
D13*
X113645000Y-142367000D03*
X111145000Y-142367000D03*
D23*
X115777000Y-131445000D03*
X113077000Y-131445000D03*
D24*
X107569000Y-140669000D03*
X107569000Y-137969000D03*
X89535000Y-134286000D03*
X89535000Y-136986000D03*
D29*
X92837000Y-179197000D03*
X86614000Y-173609000D03*
X112204500Y-171450000D03*
X79121000Y-118618000D03*
X86042500Y-192595500D03*
X69723000Y-136017000D03*
X69977000Y-178816000D03*
X66294000Y-183134000D03*
X112649000Y-169418000D03*
X103505000Y-183007000D03*
X120142000Y-161544000D03*
X122047000Y-150749000D03*
X105410000Y-114363500D03*
X109347000Y-139954000D03*
X104521000Y-133604000D03*
X120269000Y-139954000D03*
X95631000Y-143256000D03*
X94361000Y-138557000D03*
X88011000Y-154178000D03*
X77597000Y-127889000D03*
X69723000Y-127508000D03*
X73787000Y-117094000D03*
X106045000Y-195834000D03*
X114363500Y-189992000D03*
X92837000Y-183769000D03*
X93853000Y-192913000D03*
X107569000Y-187452000D03*
X107569000Y-185801000D03*
X88646000Y-127000000D03*
X92456000Y-130810000D03*
X65786000Y-140462000D03*
X64516000Y-140462000D03*
X74041000Y-139573000D03*
X74041000Y-138303000D03*
X90805000Y-159385000D03*
X90805000Y-162560000D03*
X120015000Y-178308000D03*
X120015000Y-182118000D03*
X115062000Y-196469000D03*
X113665000Y-196469000D03*
X129159000Y-145415000D03*
X129159000Y-148082000D03*
X86868000Y-128143000D03*
X92075000Y-133223000D03*
X79883000Y-138938000D03*
X78613000Y-138938000D03*
X64516000Y-138938000D03*
X65786000Y-138938000D03*
X131572000Y-134493000D03*
X110998000Y-130556000D03*
X110998000Y-132207000D03*
X131572000Y-128143000D03*
X81534000Y-191262000D03*
X84074000Y-191262000D03*
X95821500Y-199453500D03*
X97980500Y-199453500D03*
D30*
X92837000Y-176298000D02*
X92837000Y-179197000D01*
X86614000Y-173609000D02*
X83715000Y-173609000D01*
D31*
X114300000Y-171470000D02*
X112224500Y-171470000D01*
X112224500Y-171470000D02*
X112204500Y-171450000D01*
X81915000Y-118618000D02*
X79121000Y-118618000D01*
D30*
X86026000Y-194183000D02*
X86026000Y-192612000D01*
X86026000Y-192612000D02*
X86042500Y-192595500D01*
X67945000Y-135997000D02*
X69703000Y-135997000D01*
X69703000Y-135997000D02*
X69723000Y-136017000D01*
D31*
X71140000Y-178816000D02*
X69977000Y-178816000D01*
X67310000Y-183134000D02*
X66294000Y-183134000D01*
X83715000Y-173736000D02*
X83715000Y-173504000D01*
X110570000Y-169418000D02*
X112649000Y-169418000D01*
D30*
X105049000Y-183007000D02*
X103505000Y-183007000D01*
D31*
X121686000Y-161544000D02*
X120142000Y-161544000D01*
X120015000Y-150134000D02*
X121432000Y-150134000D01*
X122890381Y-151592381D02*
X122047000Y-150749000D01*
X122890381Y-151592381D02*
X122890381Y-152816500D01*
X121432000Y-150134000D02*
X122047000Y-150749000D01*
X105390000Y-114343500D02*
X105410000Y-114363500D01*
X105390000Y-114343500D02*
X105366500Y-116967000D01*
X110490000Y-139954000D02*
X109347000Y-139954000D01*
X105965000Y-131318000D02*
X105965000Y-133504000D01*
X105965000Y-133504000D02*
X106065000Y-133604000D01*
X106065000Y-133604000D02*
X104521000Y-133604000D01*
X118725000Y-139954000D02*
X120269000Y-139954000D01*
X94361000Y-143256000D02*
X95631000Y-143256000D01*
X94361000Y-139446000D02*
X94361000Y-138557000D01*
X88011000Y-152761000D02*
X88011000Y-154178000D01*
X79248000Y-127909000D02*
X77617000Y-127909000D01*
X77617000Y-127909000D02*
X77597000Y-127889000D01*
X67945000Y-127555000D02*
X69770000Y-127555000D01*
X69770000Y-127555000D02*
X69723000Y-127508000D01*
X73787000Y-118638000D02*
X73787000Y-117094000D01*
X79905000Y-113538000D02*
X79905000Y-117878000D01*
X80645000Y-118618000D02*
X81915000Y-118618000D01*
X79905000Y-117878000D02*
X80645000Y-118618000D01*
D30*
X103441500Y-195814000D02*
X106025000Y-195814000D01*
D31*
X106025000Y-195814000D02*
X106045000Y-195834000D01*
D30*
X114343500Y-188595000D02*
X114343500Y-189972000D01*
D31*
X114343500Y-189972000D02*
X114363500Y-189992000D01*
D30*
X91293000Y-183769000D02*
X92837000Y-183769000D01*
X93833000Y-194310000D02*
X93833000Y-192933000D01*
D31*
X93833000Y-192933000D02*
X93853000Y-192913000D01*
D30*
X80115000Y-173609000D02*
X80115000Y-174984000D01*
X93853000Y-182118000D02*
X98552000Y-186817000D01*
X80115000Y-174984000D02*
X81915000Y-176784000D01*
X88900000Y-182118000D02*
X93853000Y-182118000D01*
X98552000Y-186817000D02*
X98552000Y-192090500D01*
X81915000Y-176784000D02*
X85979000Y-176784000D01*
X85979000Y-176784000D02*
X87630000Y-178435000D01*
X87630000Y-180848000D02*
X88900000Y-182118000D01*
X87630000Y-178435000D02*
X87630000Y-180848000D01*
D31*
X107549000Y-183007000D02*
X107549000Y-181209000D01*
X107549000Y-181209000D02*
X103505000Y-177165000D01*
D30*
X73660000Y-184404000D02*
X74930000Y-184404000D01*
X77978000Y-173609000D02*
X80115000Y-173609000D01*
X76200000Y-175387000D02*
X77978000Y-173609000D01*
X76200000Y-183134000D02*
X76200000Y-175387000D01*
X74930000Y-184404000D02*
X76200000Y-183134000D01*
X80115000Y-173609000D02*
X80115000Y-173123000D01*
X80115000Y-173123000D02*
X79756000Y-173228000D01*
X80115000Y-173609000D02*
X80115000Y-172996000D01*
X107569000Y-187452000D02*
X107569000Y-188595000D01*
X91299000Y-192090500D02*
X98552000Y-192090500D01*
X98552000Y-192090500D02*
X99882500Y-192090500D01*
X103378000Y-188595000D02*
X107569000Y-188595000D01*
X99882500Y-192090500D02*
X103378000Y-188595000D01*
X107569000Y-188595000D02*
X111843500Y-188595000D01*
X107549000Y-185781000D02*
X107549000Y-183007000D01*
X107569000Y-185801000D02*
X107549000Y-185781000D01*
D31*
X107569000Y-182987000D02*
X107549000Y-183007000D01*
D30*
X91333000Y-194310000D02*
X91333000Y-192124500D01*
D31*
X91333000Y-192124500D02*
X91299000Y-192090500D01*
X111823500Y-190373000D02*
X111823500Y-188615000D01*
X111823500Y-188615000D02*
X111843500Y-188595000D01*
D30*
X70358000Y-133096000D02*
X71374000Y-133096000D01*
X71374000Y-133096000D02*
X72263000Y-132207000D01*
X72898000Y-113538000D02*
X76305000Y-113538000D01*
X72263000Y-132207000D02*
X72263000Y-123825000D01*
X72263000Y-123825000D02*
X71628000Y-123190000D01*
X71628000Y-123190000D02*
X71628000Y-114808000D01*
X71628000Y-114808000D02*
X72898000Y-113538000D01*
X70358000Y-133096000D02*
X68346000Y-133096000D01*
X68346000Y-133096000D02*
X67945000Y-133497000D01*
X115550000Y-152634000D02*
X102997000Y-140081000D01*
X102997000Y-140081000D02*
X102997000Y-135763000D01*
X115550000Y-152634000D02*
X120015000Y-152634000D01*
X76305000Y-113538000D02*
X76305000Y-113179000D01*
X76305000Y-113179000D02*
X78232000Y-111252000D01*
X78232000Y-111252000D02*
X84963000Y-111252000D01*
X84963000Y-111252000D02*
X88646000Y-114935000D01*
X88646000Y-114935000D02*
X88646000Y-127000000D01*
X92456000Y-130810000D02*
X97409000Y-135763000D01*
X97409000Y-135763000D02*
X102997000Y-135763000D01*
X108565000Y-134640000D02*
X108565000Y-133604000D01*
X107442000Y-135763000D02*
X108565000Y-134640000D01*
X102997000Y-135763000D02*
X107442000Y-135763000D01*
D31*
X121620381Y-152816500D02*
X120197500Y-152816500D01*
X120197500Y-152816500D02*
X120015000Y-152634000D01*
X110490000Y-133604000D02*
X108565000Y-133604000D01*
X70338000Y-133116000D02*
X70358000Y-133096000D01*
D30*
X76305000Y-113538000D02*
X76305000Y-116608000D01*
X76305000Y-116608000D02*
X75565000Y-117348000D01*
D31*
X80115000Y-179959000D02*
X80115000Y-184807000D01*
X78105000Y-186817000D02*
X70739000Y-186817000D01*
X80115000Y-184807000D02*
X78105000Y-186817000D01*
X67310000Y-181864000D02*
X68326000Y-181864000D01*
X69088000Y-185166000D02*
X70739000Y-186817000D01*
X69088000Y-182626000D02*
X69088000Y-185166000D01*
X68326000Y-181864000D02*
X69088000Y-182626000D01*
X80115000Y-179959000D02*
X80137000Y-179959000D01*
X67818000Y-181864000D02*
X67310000Y-181864000D01*
X83715000Y-179959000D02*
X83715000Y-182858000D01*
X83715000Y-182858000D02*
X78994000Y-187579000D01*
X67310000Y-184404000D02*
X67310000Y-186690000D01*
X68199000Y-187579000D02*
X78994000Y-187579000D01*
X67310000Y-186690000D02*
X68199000Y-187579000D01*
X83715000Y-179959000D02*
X83185000Y-179959000D01*
X67310000Y-184404000D02*
X67437000Y-184277000D01*
X85725000Y-122069000D02*
X85366000Y-122069000D01*
X85366000Y-122069000D02*
X83185000Y-119888000D01*
X83185000Y-119888000D02*
X81915000Y-119888000D01*
X81915000Y-117348000D02*
X84604000Y-117348000D01*
X84604000Y-117348000D02*
X85725000Y-118469000D01*
X123865500Y-169736500D02*
X119317500Y-169736500D01*
X119317500Y-169736500D02*
X110045500Y-160464500D01*
X123865500Y-169736500D02*
X123865500Y-168950500D01*
X110045500Y-160464500D02*
X107295000Y-160464500D01*
X123803000Y-169799000D02*
X123865500Y-169736500D01*
X84645500Y-160464500D02*
X84328000Y-160147000D01*
X84645500Y-160464500D02*
X84328000Y-160147000D01*
X104795000Y-160464500D02*
X84645500Y-160464500D01*
X84328000Y-160147000D02*
X67818000Y-143637000D01*
X67818000Y-143637000D02*
X60325000Y-143637000D01*
X105068000Y-203743500D02*
X111280000Y-203743500D01*
X114363500Y-200660000D02*
X114363500Y-194163000D01*
X111280000Y-203743500D02*
X114363500Y-200660000D01*
X60325000Y-138557000D02*
X59436000Y-138557000D01*
X71755000Y-149479000D02*
X83566000Y-161290000D01*
X59436000Y-138557000D02*
X58801000Y-139192000D01*
X58801000Y-139192000D02*
X58801000Y-147447000D01*
X58801000Y-147447000D02*
X60833000Y-149479000D01*
X60833000Y-149479000D02*
X71755000Y-149479000D01*
X115824000Y-186563000D02*
X116840000Y-187579000D01*
X99695000Y-183751204D02*
X102489000Y-186563000D01*
X102489000Y-186563000D02*
X115824000Y-186563000D01*
X83566000Y-161290000D02*
X92773500Y-161290000D01*
X92773500Y-161290000D02*
X97218500Y-165735000D01*
X97218500Y-165735000D02*
X97218500Y-174942500D01*
X97218500Y-174942500D02*
X99695000Y-177419000D01*
X99695000Y-177419000D02*
X99695000Y-183751204D01*
X116840000Y-187579000D02*
X116840000Y-190690500D01*
X116840000Y-190690500D02*
X115867500Y-191663000D01*
X115867500Y-191663000D02*
X114363500Y-191663000D01*
X114363500Y-191663000D02*
X111843500Y-191663000D01*
X111843500Y-191663000D02*
X111823500Y-191643000D01*
X107866500Y-116967000D02*
X107866500Y-120356000D01*
X107866500Y-120356000D02*
X108033500Y-120523000D01*
X107866500Y-116967000D02*
X107866500Y-115463000D01*
X107866500Y-115463000D02*
X109410500Y-113919000D01*
X107866500Y-116967000D02*
X107866500Y-116479000D01*
X127381000Y-113919000D02*
X136779000Y-123317000D01*
X109410500Y-113919000D02*
X127381000Y-113919000D01*
X107866500Y-116967000D02*
X110700500Y-116967000D01*
X134302500Y-140779500D02*
X134302500Y-124079000D01*
X134302500Y-124079000D02*
X127190500Y-116967000D01*
X113200500Y-116967000D02*
X127190500Y-116967000D01*
X135699500Y-142176500D02*
X137160000Y-142176500D01*
X134302500Y-140779500D02*
X135699500Y-142176500D01*
X110533500Y-120523000D02*
X128143000Y-120523000D01*
X128143000Y-120523000D02*
X132969000Y-125349000D01*
X132969000Y-125349000D02*
X132969000Y-145034000D01*
X132969000Y-145034000D02*
X135191500Y-147256500D01*
X135191500Y-147256500D02*
X137160000Y-147256500D01*
X137731500Y-147256500D02*
X137414000Y-147193000D01*
X137731500Y-147256500D02*
X137223500Y-147256500D01*
X113645000Y-142367000D02*
X114554000Y-142367000D01*
X138366500Y-139636500D02*
X137160000Y-139636500D01*
X139192000Y-140462000D02*
X138366500Y-139636500D01*
X139192000Y-148336000D02*
X139192000Y-140462000D01*
X138557000Y-148971000D02*
X139192000Y-148336000D01*
X135509000Y-148971000D02*
X138557000Y-148971000D01*
X132842000Y-146304000D02*
X135509000Y-148971000D01*
X128143000Y-146304000D02*
X132842000Y-146304000D01*
X125349000Y-143510000D02*
X128143000Y-146304000D01*
X115697000Y-143510000D02*
X125349000Y-143510000D01*
X114554000Y-142367000D02*
X115697000Y-143510000D01*
X113030000Y-139954000D02*
X113030000Y-141625000D01*
X113030000Y-141625000D02*
X113772000Y-142367000D01*
X137160000Y-120650000D02*
X136906000Y-120650000D01*
X136906000Y-120650000D02*
X127444500Y-111188500D01*
X127444500Y-111188500D02*
X103187500Y-111188500D01*
X137160000Y-120650000D02*
X137795000Y-120650000D01*
X137795000Y-120650000D02*
X139065000Y-121920000D01*
X138303000Y-125730000D02*
X137160000Y-125730000D01*
X139065000Y-124968000D02*
X138303000Y-125730000D01*
X139065000Y-121920000D02*
X139065000Y-124968000D01*
X137160000Y-125730000D02*
X137541000Y-125730000D01*
X137922000Y-120650000D02*
X137160000Y-120650000D01*
X103187500Y-111188500D02*
X90551000Y-123825000D01*
X90551000Y-123825000D02*
X90551000Y-126873000D01*
X90551000Y-126873000D02*
X88011000Y-129413000D01*
X88011000Y-129413000D02*
X88011000Y-139446000D01*
X65786000Y-140462000D02*
X73152000Y-140462000D01*
X73152000Y-140462000D02*
X74041000Y-139573000D01*
X62992000Y-137414000D02*
X62992000Y-139954000D01*
X63500000Y-140462000D02*
X64516000Y-140462000D01*
X62992000Y-139954000D02*
X63500000Y-140462000D01*
X58928000Y-124079000D02*
X58928000Y-135382000D01*
X60325000Y-136779000D02*
X62357000Y-136779000D01*
X58928000Y-135382000D02*
X60325000Y-136779000D01*
X74041000Y-132588000D02*
X74041000Y-138303000D01*
X76708000Y-131826000D02*
X74803000Y-131826000D01*
X74803000Y-131826000D02*
X74041000Y-132588000D01*
X62992000Y-137414000D02*
X62357000Y-136779000D01*
X59690000Y-123317000D02*
X60325000Y-123317000D01*
X58928000Y-124079000D02*
X59690000Y-123317000D01*
X78252000Y-132608000D02*
X79248000Y-132608000D01*
X76708000Y-131826000D02*
X77470000Y-131826000D01*
X77470000Y-131826000D02*
X78252000Y-132608000D01*
X79248000Y-135108000D02*
X79248000Y-143002000D01*
X82042000Y-145796000D02*
X88011000Y-145796000D01*
X79248000Y-143002000D02*
X82042000Y-145796000D01*
X94361000Y-141986000D02*
X96881000Y-141986000D01*
X96881000Y-141986000D02*
X97155000Y-141712000D01*
X94361000Y-140716000D02*
X95651000Y-140716000D01*
X95651000Y-140716000D02*
X97155000Y-139212000D01*
X130090000Y-55753000D02*
X135636000Y-55753000D01*
X135636000Y-55753000D02*
X137160000Y-57277000D01*
X127590000Y-55753000D02*
X127590000Y-56470000D01*
X127590000Y-56470000D02*
X130937000Y-59817000D01*
X130937000Y-59817000D02*
X137160000Y-59817000D01*
X125090000Y-55753000D02*
X127590000Y-55753000D01*
D30*
X85852000Y-183769000D02*
X82804000Y-186817000D01*
X82804000Y-196850000D02*
X86931500Y-200977500D01*
X82804000Y-186817000D02*
X82804000Y-196850000D01*
X86931500Y-200977500D02*
X96837500Y-200977500D01*
X96837500Y-198691500D02*
X96837500Y-200977500D01*
X96837500Y-200977500D02*
X96837500Y-205574000D01*
X114300000Y-139954000D02*
X116225000Y-139954000D01*
X92837000Y-172698000D02*
X92837000Y-170898000D01*
X92837000Y-170898000D02*
X91928500Y-169989500D01*
X114300000Y-173970000D02*
X112161000Y-173970000D01*
X111506000Y-174625000D02*
X109855000Y-174625000D01*
X112161000Y-173970000D02*
X111506000Y-174625000D01*
X103441500Y-193314000D02*
X102215000Y-193314000D01*
X102215000Y-193314000D02*
X96837500Y-198691500D01*
X96837500Y-205574000D02*
X94068000Y-208343500D01*
X129159000Y-159131000D02*
X130048000Y-160020000D01*
X130048000Y-160020000D02*
X130048000Y-174244000D01*
X130048000Y-174244000D02*
X127381000Y-176911000D01*
X127381000Y-176911000D02*
X120015000Y-176911000D01*
X73640000Y-178816000D02*
X73640000Y-172867000D01*
X73640000Y-172867000D02*
X77597000Y-168910000D01*
X77597000Y-168910000D02*
X90849000Y-168910000D01*
X90849000Y-168910000D02*
X91928500Y-169989500D01*
X91928500Y-169989500D02*
X90805000Y-168866000D01*
X90805000Y-168866000D02*
X90805000Y-162560000D01*
X75565000Y-121158000D02*
X75565000Y-122682000D01*
X75565000Y-122682000D02*
X77343000Y-124460000D01*
X77343000Y-124460000D02*
X79502000Y-124460000D01*
X79502000Y-124460000D02*
X81153000Y-126111000D01*
X81153000Y-126111000D02*
X81153000Y-126619000D01*
X116225000Y-139954000D02*
X116225000Y-141500587D01*
X129159000Y-144399000D02*
X129159000Y-145415000D01*
X116225000Y-141500587D02*
X116967000Y-142242587D01*
X116967000Y-142242587D02*
X127002587Y-142242587D01*
X127002587Y-142242587D02*
X129159000Y-144399000D01*
X85217000Y-178054000D02*
X85852000Y-178689000D01*
X85852000Y-178689000D02*
X85852000Y-183769000D01*
X78359000Y-178054000D02*
X85217000Y-178054000D01*
X90805000Y-159385000D02*
X90805000Y-150261000D01*
X88793000Y-183769000D02*
X85852000Y-183769000D01*
X114300000Y-173970000D02*
X114300000Y-173990000D01*
X114300000Y-173990000D02*
X117221000Y-176911000D01*
X120015000Y-182118000D02*
X120015000Y-193802000D01*
X120015000Y-193802000D02*
X117348000Y-196469000D01*
X120015000Y-178308000D02*
X120015000Y-176911000D01*
X117348000Y-196469000D02*
X115062000Y-196469000D01*
X107442000Y-192913000D02*
X105473500Y-192913000D01*
X113665000Y-196469000D02*
X110998000Y-196469000D01*
X110998000Y-196469000D02*
X107442000Y-192913000D01*
X117221000Y-176911000D02*
X120015000Y-176911000D01*
X64392000Y-185293000D02*
X64392000Y-181480000D01*
X64392000Y-181480000D02*
X65278000Y-180594000D01*
X126746000Y-161544000D02*
X129159000Y-159131000D01*
X129159000Y-159131000D02*
X129159000Y-148082000D01*
X70485000Y-180594000D02*
X70485000Y-184658000D01*
X77470000Y-178943000D02*
X78359000Y-178054000D01*
X77470000Y-183896000D02*
X77470000Y-178943000D01*
X75692000Y-185674000D02*
X77470000Y-183896000D01*
X71501000Y-185674000D02*
X75692000Y-185674000D01*
X70485000Y-184658000D02*
X71501000Y-185674000D01*
X73660000Y-180594000D02*
X73660000Y-178836000D01*
X73660000Y-178836000D02*
X73640000Y-178816000D01*
X65278000Y-180594000D02*
X67310000Y-180594000D01*
X88793000Y-183769000D02*
X88793000Y-185706500D01*
X88793000Y-185706500D02*
X88759000Y-185740500D01*
X67310000Y-180594000D02*
X70485000Y-180594000D01*
X70485000Y-180594000D02*
X73660000Y-180594000D01*
X126746000Y-161544000D02*
X124186000Y-161544000D01*
X81153000Y-126619000D02*
X85344000Y-126619000D01*
X90805000Y-150261000D02*
X97643000Y-150261000D01*
X86868000Y-128143000D02*
X85344000Y-126619000D01*
X96012000Y-137160000D02*
X92075000Y-133223000D01*
X98806000Y-137160000D02*
X96012000Y-137160000D01*
X100711000Y-139065000D02*
X98806000Y-137160000D01*
X100711000Y-147193000D02*
X100711000Y-139065000D01*
X97643000Y-150261000D02*
X100711000Y-147193000D01*
X88011000Y-150261000D02*
X90805000Y-150261000D01*
X80411000Y-130409000D02*
X79248000Y-130409000D01*
X81153000Y-129667000D02*
X80411000Y-130409000D01*
X81153000Y-126619000D02*
X81153000Y-129667000D01*
D31*
X114383500Y-173990000D02*
X114510500Y-173863000D01*
X124160381Y-159166500D02*
X124160381Y-161518381D01*
X124160381Y-161518381D02*
X124186000Y-161544000D01*
D30*
X88011000Y-150261000D02*
X88011000Y-148336000D01*
D31*
X79101000Y-130556000D02*
X79248000Y-130409000D01*
D30*
X75565000Y-121158000D02*
X73807000Y-121158000D01*
D31*
X73807000Y-121158000D02*
X73787000Y-121138000D01*
D30*
X75565000Y-121158000D02*
X81915000Y-121158000D01*
D31*
X88666000Y-185647500D02*
X88759000Y-185740500D01*
D30*
X105473500Y-192913000D02*
X103842500Y-192913000D01*
D31*
X103842500Y-192913000D02*
X103441500Y-193314000D01*
D30*
X76708000Y-130556000D02*
X79101000Y-130556000D01*
D31*
X99187000Y-102489000D02*
X61722000Y-102489000D01*
X61722000Y-102489000D02*
X60579000Y-101346000D01*
X60579000Y-101346000D02*
X60579000Y-99949000D01*
X71710000Y-55753000D02*
X71710000Y-54692000D01*
X70993000Y-53975000D02*
X59563000Y-53975000D01*
X71710000Y-54692000D02*
X70993000Y-53975000D01*
X71710000Y-55753000D02*
X74210000Y-55753000D01*
X60579000Y-64897000D02*
X60071000Y-64897000D01*
X60071000Y-64897000D02*
X58293000Y-63119000D01*
X58293000Y-63119000D02*
X58293000Y-55245000D01*
X58293000Y-55245000D02*
X59563000Y-53975000D01*
X59055000Y-55880000D02*
X59055000Y-60960000D01*
X60452000Y-62357000D02*
X59055000Y-60960000D01*
X68326000Y-54991000D02*
X59944000Y-54991000D01*
X59944000Y-54991000D02*
X59055000Y-55880000D01*
X68326000Y-54991000D02*
X69088000Y-55753000D01*
X69210000Y-55753000D02*
X69088000Y-55753000D01*
X60960000Y-62357000D02*
X60452000Y-62357000D01*
X60579000Y-62357000D02*
X60579000Y-62230000D01*
X102150000Y-76820000D02*
X119619000Y-76820000D01*
X135636000Y-79756000D02*
X137160000Y-81280000D01*
X122555000Y-79756000D02*
X135636000Y-79756000D01*
X119619000Y-76820000D02*
X122555000Y-79756000D01*
X97150000Y-76820000D02*
X99650000Y-76820000D01*
X137160000Y-83820000D02*
X137033000Y-83820000D01*
X137033000Y-83820000D02*
X133985000Y-80772000D01*
X133985000Y-80772000D02*
X101854000Y-80772000D01*
X101854000Y-80772000D02*
X99650000Y-78568000D01*
X99650000Y-78568000D02*
X99650000Y-76820000D01*
X70358000Y-130556000D02*
X68246000Y-130556000D01*
X68246000Y-130556000D02*
X67945000Y-130255000D01*
X60325000Y-120777000D02*
X63373000Y-120777000D01*
X65532000Y-122936000D02*
X65532000Y-128524000D01*
X63373000Y-120777000D02*
X65532000Y-122936000D01*
X67945000Y-130255000D02*
X67263000Y-130255000D01*
X67263000Y-130255000D02*
X65532000Y-128524000D01*
X70311000Y-130509000D02*
X70358000Y-130556000D01*
X65786000Y-138938000D02*
X78613000Y-138938000D01*
X79883000Y-138938000D02*
X83820000Y-138938000D01*
X64516000Y-138938000D02*
X64516000Y-137033000D01*
X60325000Y-134493000D02*
X60325000Y-128397000D01*
X61468000Y-135636000D02*
X60325000Y-134493000D01*
X63119000Y-135636000D02*
X61468000Y-135636000D01*
X64516000Y-137033000D02*
X63119000Y-135636000D01*
X88011000Y-141986000D02*
X86868000Y-141986000D01*
X86868000Y-141986000D02*
X83820000Y-138938000D01*
X131572000Y-134493000D02*
X126746000Y-129667000D01*
X110998000Y-129667000D02*
X126746000Y-129667000D01*
X111760000Y-133604000D02*
X111760000Y-132969000D01*
X110998000Y-130556000D02*
X110998000Y-129667000D01*
X111760000Y-132969000D02*
X110998000Y-132207000D01*
X110998000Y-129667000D02*
X92075000Y-129667000D01*
X92075000Y-129667000D02*
X90932000Y-130810000D01*
X90932000Y-130810000D02*
X90932000Y-143256000D01*
X90932000Y-143256000D02*
X92202000Y-144526000D01*
X92202000Y-144526000D02*
X94361000Y-144526000D01*
X94361000Y-144526000D02*
X94361000Y-145796000D01*
X139827000Y-148717000D02*
X139827000Y-138049000D01*
X138874500Y-137096500D02*
X137160000Y-137096500D01*
X139827000Y-138049000D02*
X138874500Y-137096500D01*
X124079000Y-146351000D02*
X125777000Y-146351000D01*
X138811000Y-149733000D02*
X139827000Y-148717000D01*
X134747000Y-149733000D02*
X138811000Y-149733000D01*
X132207000Y-147193000D02*
X134747000Y-149733000D01*
X126619000Y-147193000D02*
X132207000Y-147193000D01*
X125777000Y-146351000D02*
X126619000Y-147193000D01*
X75820000Y-95885000D02*
X75820000Y-89409000D01*
X73025000Y-83693000D02*
X64389000Y-75057000D01*
X73025000Y-86614000D02*
X73025000Y-83693000D01*
X75820000Y-89409000D02*
X73025000Y-86614000D01*
X60579000Y-75057000D02*
X64389000Y-75057000D01*
X71120000Y-95885000D02*
X71120000Y-91948000D01*
X64770000Y-77597000D02*
X60960000Y-77597000D01*
X70104000Y-82931000D02*
X64770000Y-77597000D01*
X70104000Y-90932000D02*
X70104000Y-82931000D01*
X71120000Y-91948000D02*
X70104000Y-90932000D01*
X66420000Y-95885000D02*
X66420000Y-93217000D01*
X66420000Y-93217000D02*
X58928000Y-85725000D01*
X58928000Y-85725000D02*
X58928000Y-81788000D01*
X58928000Y-81788000D02*
X60579000Y-80137000D01*
X89535000Y-130302000D02*
X91694000Y-128143000D01*
X91694000Y-128143000D02*
X131572000Y-128143000D01*
X89535000Y-130302000D02*
X89535000Y-134286000D01*
X137033000Y-128143000D02*
X137160000Y-128270000D01*
X125090000Y-76820000D02*
X125090000Y-73792000D01*
X127762000Y-71120000D02*
X137160000Y-71120000D01*
X125090000Y-73792000D02*
X127762000Y-71120000D01*
X127590000Y-76820000D02*
X127590000Y-75737000D01*
X129667000Y-73660000D02*
X137160000Y-73660000D01*
X127590000Y-75737000D02*
X129667000Y-73660000D01*
X130090000Y-76820000D02*
X136540000Y-76820000D01*
X136540000Y-76820000D02*
X137160000Y-76200000D01*
X130710000Y-76200000D02*
X130090000Y-76820000D01*
X123865500Y-190755000D02*
X123865500Y-199603500D01*
X105068000Y-208343500D02*
X115125500Y-208343500D01*
X115125500Y-208343500D02*
X115443000Y-208026000D01*
X115443000Y-208026000D02*
X115125500Y-208343500D01*
X123865500Y-199603500D02*
X115443000Y-208026000D01*
X105068000Y-208343500D02*
X105537000Y-208343500D01*
X70358000Y-131826000D02*
X67056000Y-131826000D01*
X62103000Y-142113000D02*
X64135000Y-142113000D01*
X64135000Y-142113000D02*
X65151000Y-141097000D01*
X65151000Y-141097000D02*
X65151000Y-133731000D01*
X65151000Y-133731000D02*
X67056000Y-131826000D01*
X62103000Y-142113000D02*
X61087000Y-141097000D01*
X60325000Y-141097000D02*
X61087000Y-141097000D01*
X137160000Y-152209500D02*
X134810500Y-152209500D01*
X112395000Y-176530000D02*
X111760000Y-175895000D01*
X134810500Y-152209500D02*
X131064000Y-155956000D01*
X131064000Y-155956000D02*
X131064000Y-175895000D01*
X131064000Y-175895000D02*
X127762000Y-179197000D01*
X127762000Y-179197000D02*
X113157000Y-179197000D01*
X113157000Y-179197000D02*
X112395000Y-178435000D01*
X112395000Y-178435000D02*
X112395000Y-176530000D01*
X111760000Y-175895000D02*
X109855000Y-175895000D01*
X137160000Y-154749500D02*
X139065000Y-154749500D01*
X98044000Y-215900000D02*
X96774000Y-214630000D01*
X96774000Y-214630000D02*
X96774000Y-206883000D01*
X139065000Y-154749500D02*
X140081000Y-155765500D01*
X140081000Y-155765500D02*
X140081000Y-176339500D01*
X131254500Y-185166000D02*
X131254500Y-207835500D01*
X140081000Y-176339500D02*
X131254500Y-185166000D01*
X131254500Y-207835500D02*
X127889000Y-211201000D01*
X127889000Y-211201000D02*
X111252000Y-211201000D01*
X111252000Y-211201000D02*
X106553000Y-215900000D01*
X106553000Y-215900000D02*
X98044000Y-215900000D01*
X96774000Y-206883000D02*
X99568000Y-204089000D01*
X99568000Y-204089000D02*
X99568000Y-203743500D01*
X100683000Y-203743500D02*
X99568000Y-203743500D01*
X137160000Y-157289500D02*
X138493500Y-157289500D01*
X138493500Y-157289500D02*
X139065000Y-157861000D01*
X132969000Y-168275000D02*
X132969000Y-177800000D01*
X132969000Y-177800000D02*
X129540000Y-181229000D01*
X139065000Y-157861000D02*
X139065000Y-166116000D01*
X139065000Y-166116000D02*
X138430000Y-166751000D01*
X138430000Y-166751000D02*
X134493000Y-166751000D01*
X134493000Y-166751000D02*
X132969000Y-168275000D01*
X129540000Y-181229000D02*
X119253000Y-181229000D01*
X119253000Y-181229000D02*
X118364000Y-182118000D01*
X118364000Y-182118000D02*
X118364000Y-190754000D01*
X118364000Y-190754000D02*
X116205000Y-192913000D01*
X116205000Y-192913000D02*
X111823500Y-192913000D01*
X111823500Y-192913000D02*
X110871000Y-192913000D01*
X109601000Y-191643000D02*
X105473500Y-191643000D01*
X110871000Y-192913000D02*
X109601000Y-191643000D01*
X105410000Y-174625000D02*
X107315000Y-176530000D01*
X107315000Y-176530000D02*
X107315000Y-178435000D01*
X107315000Y-178435000D02*
X109093000Y-180213000D01*
X132080000Y-176784000D02*
X132080000Y-167386000D01*
X109093000Y-180213000D02*
X128651000Y-180213000D01*
X128651000Y-180213000D02*
X132080000Y-176784000D01*
X132080000Y-167386000D02*
X134556500Y-164909500D01*
X134556500Y-164909500D02*
X137160000Y-164909500D01*
X103505000Y-174625000D02*
X105410000Y-174625000D01*
X107870000Y-172165000D02*
X107870000Y-169418000D01*
X105410000Y-174625000D02*
X107870000Y-172165000D01*
X81534000Y-191262000D02*
X80518000Y-191262000D01*
X79375000Y-202206000D02*
X74826000Y-206755000D01*
X79375000Y-192405000D02*
X79375000Y-202206000D01*
X80518000Y-191262000D02*
X79375000Y-192405000D01*
X84074000Y-191262000D02*
X85725000Y-191262000D01*
X85725000Y-191262000D02*
X89789000Y-187198000D01*
X90551000Y-187198000D02*
X94314000Y-187198000D01*
X94314000Y-187198000D02*
X94615000Y-187499000D01*
X90678000Y-187198000D02*
X90551000Y-187198000D01*
X90551000Y-187198000D02*
X89789000Y-187198000D01*
X90029000Y-185740500D02*
X90029000Y-186549000D01*
X90029000Y-186549000D02*
X90678000Y-187198000D01*
X88726000Y-194183000D02*
X88726000Y-192123500D01*
X88726000Y-192123500D02*
X88759000Y-192090500D01*
X94615000Y-190199000D02*
X89455000Y-190199000D01*
X88759000Y-190895000D02*
X88759000Y-192090500D01*
X89455000Y-190199000D02*
X88759000Y-190895000D01*
X88853000Y-192184500D02*
X88759000Y-192090500D01*
X98980000Y-170180000D02*
X98980000Y-166831000D01*
X124160381Y-154096619D02*
X124160381Y-152816500D01*
X123317000Y-154940000D02*
X124160381Y-154096619D01*
X118110000Y-154940000D02*
X123317000Y-154940000D01*
X113982500Y-159067500D02*
X118110000Y-154940000D01*
X113982500Y-161353500D02*
X113982500Y-159067500D01*
X119062500Y-166433500D02*
X113982500Y-161353500D01*
X126174500Y-166433500D02*
X119062500Y-166433500D01*
X127825500Y-168084500D02*
X126174500Y-166433500D01*
X127825500Y-171196000D02*
X127825500Y-168084500D01*
X126047500Y-172974000D02*
X127825500Y-171196000D01*
X120777000Y-172974000D02*
X126047500Y-172974000D01*
X111315500Y-163512500D02*
X120777000Y-172974000D01*
X102298500Y-163512500D02*
X111315500Y-163512500D01*
X98980000Y-166831000D02*
X102298500Y-163512500D01*
X124079000Y-149051000D02*
X124126000Y-152782119D01*
X124126000Y-152782119D02*
X124160381Y-152816500D01*
X122890381Y-159166500D02*
X122890381Y-158005881D01*
X117538500Y-161480500D02*
X120586500Y-164528500D01*
X126936500Y-174879000D02*
X120332500Y-174879000D01*
X122890381Y-158005881D02*
X121983500Y-157099000D01*
X121983500Y-157099000D02*
X120332500Y-157099000D01*
X120586500Y-164528500D02*
X127254000Y-164528500D01*
X120332500Y-157099000D02*
X117538500Y-159893000D01*
X117538500Y-159893000D02*
X117538500Y-161480500D01*
X127254000Y-164528500D02*
X128905000Y-166179500D01*
X128905000Y-166179500D02*
X128905000Y-172910500D01*
X103822500Y-165989000D02*
X101680000Y-168131500D01*
X101680000Y-168131500D02*
X101680000Y-170180000D01*
X128905000Y-172910500D02*
X126936500Y-174879000D01*
X120332500Y-174879000D02*
X111442500Y-165989000D01*
X111442500Y-165989000D02*
X103822500Y-165989000D01*
X103505000Y-175895000D02*
X102235000Y-175895000D01*
X102235000Y-175895000D02*
X101680000Y-175340000D01*
X101680000Y-175340000D02*
X101680000Y-170180000D01*
X101680000Y-170180000D02*
X102235000Y-170180000D01*
X113077000Y-131445000D02*
X108792000Y-131445000D01*
X108792000Y-131445000D02*
X108665000Y-131318000D01*
X113030000Y-133604000D02*
X113030000Y-131492000D01*
X113030000Y-131492000D02*
X113077000Y-131445000D01*
X112950000Y-133524000D02*
X113030000Y-133604000D01*
X99568000Y-212943500D02*
X105068000Y-212943500D01*
X99568000Y-208343500D02*
X102298500Y-205613000D01*
X102298500Y-205613000D02*
X102298500Y-201866500D01*
X102298500Y-201866500D02*
X99885500Y-199453500D01*
X99885500Y-199453500D02*
X97980500Y-199453500D01*
X95821500Y-199453500D02*
X93091000Y-199453500D01*
X93091000Y-199453500D02*
X90029000Y-196391500D01*
X90029000Y-192090500D02*
X90029000Y-196391500D01*
X99568000Y-208343500D02*
X99568000Y-208216500D01*
X99568000Y-208343500D02*
X99441000Y-208343500D01*
X60960000Y-57277000D02*
X68199000Y-57277000D01*
X74210000Y-72432000D02*
X74210000Y-77089000D01*
X71755000Y-69977000D02*
X74210000Y-72432000D01*
X71755000Y-60833000D02*
X71755000Y-69977000D01*
X68199000Y-57277000D02*
X71755000Y-60833000D01*
X69210000Y-77089000D02*
X71710000Y-77089000D01*
X60960000Y-59817000D02*
X61722000Y-59817000D01*
X61722000Y-59817000D02*
X64135000Y-62230000D01*
X64135000Y-62230000D02*
X64135000Y-72014000D01*
X64135000Y-72014000D02*
X69210000Y-77089000D01*
X137160000Y-88773000D02*
X108585000Y-88773000D01*
X104903000Y-92455000D02*
X104903000Y-95885000D01*
X108585000Y-88773000D02*
X104903000Y-92455000D01*
X137160000Y-91313000D02*
X115570000Y-91313000D01*
X115570000Y-91313000D02*
X107950000Y-98933000D01*
X102751000Y-98933000D02*
X100203000Y-96385000D01*
X107950000Y-98933000D02*
X102751000Y-98933000D01*
X100203000Y-96385000D02*
X100203000Y-95885000D01*
X116332000Y-99949000D02*
X116332000Y-96012000D01*
X95503000Y-98135000D02*
X97317000Y-99949000D01*
X95503000Y-95885000D02*
X95503000Y-98135000D01*
X97317000Y-99949000D02*
X116332000Y-99949000D01*
X135890000Y-92583000D02*
X137160000Y-93853000D01*
X119761000Y-92583000D02*
X135890000Y-92583000D01*
X116332000Y-96012000D02*
X119761000Y-92583000D01*
X132080000Y-95885000D02*
X133096000Y-95885000D01*
X133096000Y-95885000D02*
X133604000Y-96393000D01*
X133604000Y-96393000D02*
X137160000Y-96393000D01*
X136652000Y-95885000D02*
X137160000Y-96393000D01*
X127380000Y-95885000D02*
X127380000Y-96265000D01*
X127380000Y-96265000D02*
X130048000Y-98933000D01*
X130048000Y-98933000D02*
X137160000Y-98933000D01*
X122680000Y-95885000D02*
X122680000Y-97026000D01*
X122680000Y-97026000D02*
X127127000Y-101473000D01*
X127127000Y-101473000D02*
X137160000Y-101473000D01*
X137160000Y-64897000D02*
X137160000Y-65151000D01*
X137160000Y-65151000D02*
X134112000Y-68199000D01*
X134112000Y-68199000D02*
X117221000Y-68199000D01*
X117221000Y-68199000D02*
X104775000Y-55753000D01*
X104775000Y-55753000D02*
X102150000Y-55753000D01*
X137160000Y-62357000D02*
X138430000Y-62357000D01*
X101809000Y-53594000D02*
X99650000Y-55753000D01*
X137033000Y-53594000D02*
X101809000Y-53594000D01*
X140208000Y-56769000D02*
X137033000Y-53594000D01*
X140208000Y-60579000D02*
X140208000Y-56769000D01*
X138430000Y-62357000D02*
X140208000Y-60579000D01*
X97531000Y-55753000D02*
X100031000Y-55753000D01*
X94441000Y-100965000D02*
X101353000Y-100965000D01*
X101353000Y-100965000D02*
X101727000Y-101339000D01*
X101727000Y-101339000D02*
X101727000Y-102489000D01*
X60960000Y-97409000D02*
X63119000Y-97409000D01*
X63119000Y-97409000D02*
X66675000Y-100965000D01*
X66675000Y-100965000D02*
X91741000Y-100965000D01*
X94068000Y-203743500D02*
X90007500Y-203743500D01*
X90007500Y-203743500D02*
X82931000Y-210820000D01*
X60960000Y-163449000D02*
X60960000Y-166370000D01*
X60960000Y-166370000D02*
X58991500Y-168338500D01*
X69977000Y-210820000D02*
X82931000Y-210820000D01*
X68961000Y-209804000D02*
X69977000Y-210820000D01*
X68961000Y-192913000D02*
X68961000Y-209804000D01*
X63500000Y-187452000D02*
X68961000Y-192913000D01*
X60071000Y-187452000D02*
X63500000Y-187452000D01*
X58991500Y-186372500D02*
X60071000Y-187452000D01*
X58991500Y-168338500D02*
X58991500Y-186372500D01*
X107569000Y-140669000D02*
X107569000Y-141351000D01*
X107569000Y-141351000D02*
X108585000Y-142367000D01*
X108585000Y-142367000D02*
X111145000Y-142367000D01*
X111760000Y-139954000D02*
X111760000Y-141879000D01*
X111760000Y-141879000D02*
X111272000Y-142367000D01*
X114300000Y-133604000D02*
X115062000Y-133604000D01*
X115777000Y-132889000D02*
X115777000Y-131445000D01*
X115062000Y-133604000D02*
X115777000Y-132889000D01*
X107569000Y-137969000D02*
X111078000Y-137969000D01*
X114300000Y-134747000D02*
X114300000Y-133604000D01*
X111078000Y-137969000D02*
X114300000Y-134747000D01*
X114300000Y-133604000D02*
X114427000Y-133604000D01*
X89535000Y-136986000D02*
X89535000Y-143891000D01*
X88900000Y-144526000D02*
X88011000Y-144526000D01*
X89535000Y-143891000D02*
X88900000Y-144526000D01*
D32*
X61592000Y-185293000D02*
X61592000Y-173327000D01*
X61592000Y-173327000D02*
X61945000Y-172974000D01*
M02*
