G04 #@! TF.FileFunction,Soldermask,Top*
%FSLAX46Y46*%
G04 Gerber Fmt 4.6, Leading zero omitted, Abs format (unit mm)*
G04 Created by KiCad (PCBNEW 4.0.7) date 04/04/18 08:51:17*
%MOMM*%
%LPD*%
G01*
G04 APERTURE LIST*
%ADD10C,0.100000*%
%ADD11R,3.000000X2.000000*%
%ADD12R,2.000000X3.000000*%
%ADD13R,1.650000X1.900000*%
%ADD14R,1.900000X1.650000*%
%ADD15C,2.200000*%
%ADD16C,4.400000*%
%ADD17R,1.500000X1.500000*%
%ADD18R,2.200000X2.200000*%
%ADD19R,2.100000X2.100000*%
%ADD20O,2.100000X2.100000*%
%ADD21O,5.400000X4.400000*%
%ADD22R,3.900000X3.900000*%
%ADD23R,1.900000X1.700000*%
%ADD24R,1.700000X1.900000*%
%ADD25O,3.900000X3.400000*%
%ADD26O,3.400000X4.400000*%
%ADD27R,1.543000X0.908000*%
%ADD28R,0.908000X1.543000*%
G04 APERTURE END LIST*
D10*
D11*
X83715000Y-173609000D03*
X80115000Y-173609000D03*
X79905000Y-113538000D03*
X76305000Y-113538000D03*
X80115000Y-179959000D03*
X83715000Y-179959000D03*
D12*
X85725000Y-122069000D03*
X85725000Y-118469000D03*
D13*
X120269000Y-172319000D03*
X120269000Y-169819000D03*
X115570000Y-194163000D03*
X115570000Y-191663000D03*
D14*
X110637000Y-112395000D03*
X113137000Y-112395000D03*
X108097000Y-115697000D03*
X110597000Y-115697000D03*
X108057000Y-112395000D03*
X105557000Y-112395000D03*
X103017000Y-115697000D03*
X105517000Y-115697000D03*
D13*
X79248000Y-132608000D03*
X79248000Y-135108000D03*
X97155000Y-141712000D03*
X97155000Y-139212000D03*
D15*
X133651000Y-57023000D03*
X131151000Y-57023000D03*
X128651000Y-57023000D03*
D16*
X135551000Y-64023000D03*
X126751000Y-64023000D03*
D17*
X61595000Y-182629000D03*
X61595000Y-179829000D03*
D18*
X101727000Y-103759000D03*
D15*
X99187000Y-103759000D03*
X72183000Y-57023000D03*
X69683000Y-57023000D03*
X67183000Y-57023000D03*
D16*
X74083000Y-64023000D03*
X65283000Y-64023000D03*
D15*
X102663000Y-78359000D03*
X100163000Y-78359000D03*
X97663000Y-78359000D03*
D16*
X104563000Y-85359000D03*
X95763000Y-85359000D03*
D19*
X60579000Y-58547000D03*
D20*
X60579000Y-61087000D03*
X60579000Y-63627000D03*
X60579000Y-66167000D03*
D19*
X140335000Y-90043000D03*
D20*
X140335000Y-92583000D03*
X140335000Y-95123000D03*
X140335000Y-97663000D03*
X140335000Y-100203000D03*
X140335000Y-102743000D03*
D19*
X60579000Y-76327000D03*
D20*
X60579000Y-78867000D03*
X60579000Y-81407000D03*
X60579000Y-83947000D03*
D19*
X140335000Y-66167000D03*
D20*
X140335000Y-63627000D03*
X140335000Y-61087000D03*
X140335000Y-58547000D03*
D19*
X140335000Y-72263000D03*
D20*
X140335000Y-74803000D03*
X140335000Y-77343000D03*
X140335000Y-79883000D03*
X140335000Y-82423000D03*
X140335000Y-84963000D03*
D21*
X125707000Y-185673000D03*
X125707000Y-169673000D03*
X138707000Y-169673000D03*
X138684000Y-185673000D03*
X125707000Y-206755000D03*
X125707000Y-190755000D03*
X138707000Y-190755000D03*
X138684000Y-206755000D03*
D19*
X60325000Y-120777000D03*
D20*
X60325000Y-123317000D03*
X60325000Y-125857000D03*
X60325000Y-128397000D03*
D19*
X140081000Y-134493000D03*
D20*
X140081000Y-137033000D03*
X140081000Y-139573000D03*
X140081000Y-142113000D03*
X140081000Y-144653000D03*
X140081000Y-147193000D03*
D19*
X60325000Y-138557000D03*
D20*
X60325000Y-141097000D03*
X60325000Y-143637000D03*
X60325000Y-146177000D03*
D19*
X140081000Y-128397000D03*
D20*
X140081000Y-125857000D03*
X140081000Y-123317000D03*
X140081000Y-120777000D03*
D19*
X140081000Y-152273000D03*
D20*
X140081000Y-154813000D03*
X140081000Y-157353000D03*
X140081000Y-159893000D03*
X140081000Y-162433000D03*
X140081000Y-164973000D03*
D21*
X74826000Y-190755000D03*
X74826000Y-206755000D03*
X61826000Y-206755000D03*
X61849000Y-190755000D03*
D22*
X68199000Y-170815000D03*
X62199000Y-170815000D03*
X65199000Y-175515000D03*
D15*
X133651000Y-78359000D03*
X131151000Y-78359000D03*
X128651000Y-78359000D03*
D16*
X135551000Y-85359000D03*
X126751000Y-85359000D03*
D23*
X111045000Y-174625000D03*
X113745000Y-174625000D03*
D24*
X94615000Y-187499000D03*
X94615000Y-190199000D03*
D23*
X86026000Y-194183000D03*
X88726000Y-194183000D03*
D24*
X67945000Y-127555000D03*
X67945000Y-130255000D03*
D23*
X124126000Y-150114000D03*
X126826000Y-150114000D03*
X105236000Y-180975000D03*
X102536000Y-180975000D03*
X108665000Y-131318000D03*
X105965000Y-131318000D03*
D15*
X102531000Y-57023000D03*
X100031000Y-57023000D03*
X97531000Y-57023000D03*
D16*
X104431000Y-64023000D03*
X95631000Y-64023000D03*
D25*
X104941000Y-213388000D03*
X99441000Y-213388000D03*
X93941000Y-213388000D03*
X104941000Y-208788000D03*
X99441000Y-208788000D03*
X93941000Y-208788000D03*
X104941000Y-204188000D03*
X99441000Y-204188000D03*
X93941000Y-204188000D03*
D26*
X131191000Y-97155000D03*
X135891000Y-97155000D03*
X126491000Y-97155000D03*
X69723000Y-97155000D03*
X74423000Y-97155000D03*
X65023000Y-97155000D03*
X100203000Y-97155000D03*
X104903000Y-97155000D03*
X95503000Y-97155000D03*
D15*
X72183000Y-78359000D03*
X69683000Y-78359000D03*
X67183000Y-78359000D03*
D16*
X74083000Y-85359000D03*
X65283000Y-85359000D03*
D27*
X73660000Y-180594000D03*
X73660000Y-181864000D03*
X73660000Y-183134000D03*
X73660000Y-184404000D03*
X67310000Y-184404000D03*
X67310000Y-183134000D03*
X67310000Y-181864000D03*
X67310000Y-180594000D03*
X75565000Y-121158000D03*
X75565000Y-119888000D03*
X75565000Y-118618000D03*
X75565000Y-117348000D03*
X81915000Y-117348000D03*
X81915000Y-118618000D03*
X81915000Y-119888000D03*
X81915000Y-121158000D03*
X106807000Y-194183000D03*
X106807000Y-192913000D03*
X106807000Y-191643000D03*
X106807000Y-190373000D03*
X113157000Y-190373000D03*
X113157000Y-191643000D03*
X113157000Y-192913000D03*
X113157000Y-194183000D03*
X76708000Y-129286000D03*
X76708000Y-130556000D03*
X76708000Y-131826000D03*
X76708000Y-133096000D03*
X70358000Y-133096000D03*
X70358000Y-131826000D03*
X70358000Y-130556000D03*
X70358000Y-129286000D03*
D28*
X125430381Y-159166500D03*
X124160381Y-159166500D03*
X122890381Y-159166500D03*
X121620381Y-159166500D03*
X121620381Y-152816500D03*
X122890381Y-152816500D03*
X124160381Y-152816500D03*
X125430381Y-152816500D03*
D27*
X113919000Y-177546000D03*
X113919000Y-178816000D03*
X113919000Y-180086000D03*
X113919000Y-181356000D03*
X107569000Y-181356000D03*
X107569000Y-180086000D03*
X107569000Y-178816000D03*
X107569000Y-177546000D03*
D28*
X87489000Y-185740500D03*
X88759000Y-185740500D03*
X90029000Y-185740500D03*
X91299000Y-185740500D03*
X91299000Y-192090500D03*
X90029000Y-192090500D03*
X88759000Y-192090500D03*
X87489000Y-192090500D03*
D27*
X88011000Y-148336000D03*
X88011000Y-145796000D03*
X88011000Y-144526000D03*
X88011000Y-143256000D03*
X88011000Y-141986000D03*
X88011000Y-140716000D03*
X88011000Y-139446000D03*
X94361000Y-139446000D03*
X94361000Y-140716000D03*
X94361000Y-141986000D03*
X94361000Y-143256000D03*
X94361000Y-144526000D03*
X94361000Y-145796000D03*
X94361000Y-147066000D03*
X94361000Y-148336000D03*
X88011000Y-147066000D03*
D28*
X114300000Y-139954000D03*
X113030000Y-139954000D03*
X111760000Y-139954000D03*
X110490000Y-139954000D03*
X110490000Y-133604000D03*
X111760000Y-133604000D03*
X113030000Y-133604000D03*
X114300000Y-133604000D03*
D13*
X104902000Y-193314000D03*
X104902000Y-195814000D03*
D14*
X113177000Y-188595000D03*
X115677000Y-188595000D03*
X88793000Y-183769000D03*
X91293000Y-183769000D03*
X91333000Y-194310000D03*
X93833000Y-194310000D03*
X115971000Y-178689000D03*
X118471000Y-178689000D03*
X107549000Y-183007000D03*
X105049000Y-183007000D03*
D13*
X79248000Y-130409000D03*
X79248000Y-127909000D03*
D14*
X116225000Y-139954000D03*
X118725000Y-139954000D03*
X108565000Y-133604000D03*
X106065000Y-133604000D03*
X124186000Y-161544000D03*
X121686000Y-161544000D03*
D13*
X120015000Y-152634000D03*
X120015000Y-150134000D03*
X88011000Y-150261000D03*
X88011000Y-152761000D03*
D14*
X71140000Y-178816000D03*
X73640000Y-178816000D03*
D13*
X73787000Y-118638000D03*
X73787000Y-121138000D03*
D19*
X60579000Y-101219000D03*
D20*
X60579000Y-98679000D03*
X60579000Y-96139000D03*
X60579000Y-93599000D03*
D19*
X60325000Y-163449000D03*
D20*
X60325000Y-160909000D03*
X60325000Y-158369000D03*
X60325000Y-155829000D03*
D23*
X94441000Y-102235000D03*
X91741000Y-102235000D03*
D11*
X80115000Y-167259000D03*
X83715000Y-167259000D03*
D14*
X113645000Y-142367000D03*
X111145000Y-142367000D03*
D23*
X115777000Y-131445000D03*
X113077000Y-131445000D03*
D24*
X107569000Y-140669000D03*
X107569000Y-137969000D03*
X89535000Y-134286000D03*
X89535000Y-136986000D03*
M02*
