G04 #@! TF.FileFunction,Copper,L2,Bot,Signal*
%FSLAX46Y46*%
G04 Gerber Fmt 4.6, Leading zero omitted, Abs format (unit mm)*
G04 Created by KiCad (PCBNEW 4.0.7) date Saturday, 07 April 2018 'PMt' 21:18:55*
%MOMM*%
%LPD*%
G01*
G04 APERTURE LIST*
%ADD10C,0.100000*%
%ADD11C,1.800000*%
%ADD12C,4.000000*%
%ADD13R,1.800000X1.800000*%
%ADD14R,1.700000X1.700000*%
%ADD15O,1.700000X1.700000*%
%ADD16O,5.000000X4.000000*%
%ADD17R,3.500000X3.500000*%
%ADD18O,3.500000X3.000000*%
%ADD19O,3.000000X4.000000*%
%ADD20C,0.600000*%
%ADD21C,0.500000*%
%ADD22C,0.250000*%
%ADD23C,0.254000*%
G04 APERTURE END LIST*
D10*
D11*
X130090000Y-55753000D03*
X127590000Y-55753000D03*
X125090000Y-55753000D03*
D12*
X131990000Y-62753000D03*
X123190000Y-62753000D03*
D13*
X101727000Y-102489000D03*
D11*
X99187000Y-102489000D03*
X74210000Y-55753000D03*
X71710000Y-55753000D03*
X69210000Y-55753000D03*
D12*
X76110000Y-62753000D03*
X67310000Y-62753000D03*
D11*
X102150000Y-76820000D03*
X99650000Y-76820000D03*
X97150000Y-76820000D03*
D12*
X104050000Y-83820000D03*
X95250000Y-83820000D03*
D14*
X60960000Y-57277000D03*
D15*
X60960000Y-59817000D03*
X60960000Y-62357000D03*
X60960000Y-64897000D03*
D14*
X137160000Y-88773000D03*
D15*
X137160000Y-91313000D03*
X137160000Y-93853000D03*
X137160000Y-96393000D03*
X137160000Y-98933000D03*
X137160000Y-101473000D03*
D14*
X60960000Y-75057000D03*
D15*
X60960000Y-77597000D03*
X60960000Y-80137000D03*
X60960000Y-82677000D03*
D14*
X137160000Y-64897000D03*
D15*
X137160000Y-62357000D03*
X137160000Y-59817000D03*
X137160000Y-57277000D03*
D14*
X137160000Y-71120000D03*
D15*
X137160000Y-73660000D03*
X137160000Y-76200000D03*
X137160000Y-78740000D03*
X137160000Y-81280000D03*
X137160000Y-83820000D03*
D16*
X123865500Y-185736500D03*
X123865500Y-169736500D03*
X136865500Y-169736500D03*
X136842500Y-185736500D03*
X123865500Y-206755000D03*
X123865500Y-190755000D03*
X136865500Y-190755000D03*
X136842500Y-206755000D03*
D14*
X60960000Y-120777000D03*
D15*
X60960000Y-123317000D03*
X60960000Y-125857000D03*
X60960000Y-128397000D03*
D14*
X137160000Y-134556500D03*
D15*
X137160000Y-137096500D03*
X137160000Y-139636500D03*
X137160000Y-142176500D03*
X137160000Y-144716500D03*
X137160000Y-147256500D03*
D14*
X60960000Y-138557000D03*
D15*
X60960000Y-141097000D03*
X60960000Y-143637000D03*
X60960000Y-146177000D03*
D14*
X137160000Y-128333500D03*
D15*
X137160000Y-125793500D03*
X137160000Y-123253500D03*
X137160000Y-120713500D03*
D14*
X137160000Y-152209500D03*
D15*
X137160000Y-154749500D03*
X137160000Y-157289500D03*
X137160000Y-159829500D03*
X137160000Y-162369500D03*
X137160000Y-164909500D03*
D16*
X74826000Y-190755000D03*
X74826000Y-206755000D03*
X61826000Y-206755000D03*
X61849000Y-190755000D03*
D17*
X67945000Y-172974000D03*
X61945000Y-172974000D03*
X64945000Y-177674000D03*
D11*
X130090000Y-76820000D03*
X127590000Y-76820000D03*
X125090000Y-76820000D03*
D12*
X131990000Y-83820000D03*
X123190000Y-83820000D03*
D11*
X102150000Y-55753000D03*
X99650000Y-55753000D03*
X97150000Y-55753000D03*
D12*
X104050000Y-62753000D03*
X95250000Y-62753000D03*
D18*
X105068000Y-212943500D03*
X99568000Y-212943500D03*
X94068000Y-212943500D03*
X105068000Y-208343500D03*
X99568000Y-208343500D03*
X94068000Y-208343500D03*
X105068000Y-203743500D03*
X99568000Y-203743500D03*
X94068000Y-203743500D03*
D19*
X127380000Y-95885000D03*
X132080000Y-95885000D03*
X122680000Y-95885000D03*
X71120000Y-95885000D03*
X75820000Y-95885000D03*
X66420000Y-95885000D03*
X100203000Y-95885000D03*
X104903000Y-95885000D03*
X95503000Y-95885000D03*
D11*
X74210000Y-77089000D03*
X71710000Y-77089000D03*
X69210000Y-77089000D03*
D12*
X76110000Y-84089000D03*
X67310000Y-84089000D03*
D14*
X60960000Y-99949000D03*
D15*
X60960000Y-97409000D03*
X60960000Y-94869000D03*
X60960000Y-92329000D03*
D14*
X60960000Y-163449000D03*
D15*
X60960000Y-160909000D03*
X60960000Y-158369000D03*
X60960000Y-155829000D03*
D20*
X92837000Y-179197000D03*
X86614000Y-173609000D03*
X112204500Y-171450000D03*
X79121000Y-118618000D03*
X86042500Y-192595500D03*
X69723000Y-136017000D03*
X69977000Y-178816000D03*
X66294000Y-183134000D03*
X112649000Y-169418000D03*
X103505000Y-183007000D03*
X120142000Y-161544000D03*
X122047000Y-150749000D03*
X105410000Y-114363500D03*
X109347000Y-139954000D03*
X104521000Y-133604000D03*
X120269000Y-139954000D03*
X95631000Y-143256000D03*
X94361000Y-138557000D03*
X88011000Y-154178000D03*
X77597000Y-127889000D03*
X69723000Y-127508000D03*
X73787000Y-117094000D03*
X106045000Y-195834000D03*
X114363500Y-189992000D03*
X92837000Y-183769000D03*
X93853000Y-192913000D03*
X107569000Y-187452000D03*
X107569000Y-185801000D03*
X88646000Y-127000000D03*
X92456000Y-130810000D03*
X65786000Y-140462000D03*
X64516000Y-140462000D03*
X74041000Y-139573000D03*
X74041000Y-138303000D03*
X90805000Y-159385000D03*
X90805000Y-162560000D03*
X120015000Y-178308000D03*
X120015000Y-182118000D03*
X115062000Y-196469000D03*
X113665000Y-196469000D03*
X129159000Y-145415000D03*
X129159000Y-148082000D03*
X86868000Y-128143000D03*
X92075000Y-133223000D03*
X79883000Y-138938000D03*
X78613000Y-138938000D03*
X64516000Y-138938000D03*
X65786000Y-138938000D03*
X131572000Y-134493000D03*
X110998000Y-130556000D03*
X110998000Y-132207000D03*
X131572000Y-128143000D03*
X81534000Y-191262000D03*
X84074000Y-191262000D03*
X95821500Y-199453500D03*
X97980500Y-199453500D03*
D21*
X107569000Y-187452000D02*
X107569000Y-185801000D01*
X88646000Y-127000000D02*
X92456000Y-130810000D01*
D22*
X65786000Y-140462000D02*
X64516000Y-140462000D01*
X74041000Y-138303000D02*
X74041000Y-139573000D01*
D21*
X90805000Y-162560000D02*
X90805000Y-159385000D01*
X120015000Y-178308000D02*
X120015000Y-182118000D01*
X115062000Y-196469000D02*
X113665000Y-196469000D01*
X129159000Y-145415000D02*
X129159000Y-148082000D01*
X86995000Y-128143000D02*
X86868000Y-128143000D01*
X92075000Y-133223000D02*
X86995000Y-128143000D01*
D22*
X78613000Y-138938000D02*
X79883000Y-138938000D01*
X65786000Y-138938000D02*
X64516000Y-138938000D01*
X131572000Y-134493000D02*
X137096500Y-134493000D01*
X137096500Y-134493000D02*
X137160000Y-134556500D01*
X110998000Y-132207000D02*
X110998000Y-130556000D01*
X137033000Y-128143000D02*
X131572000Y-128143000D01*
X137033000Y-128143000D02*
X137160000Y-128270000D01*
X137160000Y-152209500D02*
X136842500Y-152209500D01*
X136842500Y-152209500D02*
X135128000Y-153924000D01*
X135128000Y-160337500D02*
X137160000Y-162369500D01*
X135128000Y-153924000D02*
X135128000Y-160337500D01*
X84074000Y-191262000D02*
X81534000Y-191262000D01*
X97980500Y-199453500D02*
X95821500Y-199453500D01*
D23*
G36*
X134100500Y-114300000D02*
X134154546Y-114571705D01*
X134308454Y-114802046D01*
X134538795Y-114955954D01*
X134810500Y-115010000D01*
X140133000Y-115010000D01*
X140133000Y-209983000D01*
X134810500Y-209983000D01*
X134538795Y-210037046D01*
X134308454Y-210190954D01*
X134154546Y-210421295D01*
X134100500Y-210693000D01*
X134100500Y-216587000D01*
X64464000Y-216587000D01*
X64464000Y-212943500D01*
X91636275Y-212943500D01*
X91798792Y-213760529D01*
X92261602Y-214453173D01*
X92954246Y-214915983D01*
X93771275Y-215078500D01*
X94364725Y-215078500D01*
X95181754Y-214915983D01*
X95874398Y-214453173D01*
X96337208Y-213760529D01*
X96499725Y-212943500D01*
X97136275Y-212943500D01*
X97298792Y-213760529D01*
X97761602Y-214453173D01*
X98454246Y-214915983D01*
X99271275Y-215078500D01*
X99864725Y-215078500D01*
X100681754Y-214915983D01*
X101374398Y-214453173D01*
X101837208Y-213760529D01*
X101999725Y-212943500D01*
X102636275Y-212943500D01*
X102798792Y-213760529D01*
X103261602Y-214453173D01*
X103954246Y-214915983D01*
X104771275Y-215078500D01*
X105364725Y-215078500D01*
X106181754Y-214915983D01*
X106874398Y-214453173D01*
X107337208Y-213760529D01*
X107499725Y-212943500D01*
X107337208Y-212126471D01*
X106874398Y-211433827D01*
X106181754Y-210971017D01*
X105364725Y-210808500D01*
X104771275Y-210808500D01*
X103954246Y-210971017D01*
X103261602Y-211433827D01*
X102798792Y-212126471D01*
X102636275Y-212943500D01*
X101999725Y-212943500D01*
X101837208Y-212126471D01*
X101374398Y-211433827D01*
X100681754Y-210971017D01*
X99864725Y-210808500D01*
X99271275Y-210808500D01*
X98454246Y-210971017D01*
X97761602Y-211433827D01*
X97298792Y-212126471D01*
X97136275Y-212943500D01*
X96499725Y-212943500D01*
X96337208Y-212126471D01*
X95874398Y-211433827D01*
X95181754Y-210971017D01*
X94364725Y-210808500D01*
X93771275Y-210808500D01*
X92954246Y-210971017D01*
X92261602Y-211433827D01*
X91798792Y-212126471D01*
X91636275Y-212943500D01*
X64464000Y-212943500D01*
X64464000Y-211264500D01*
X64409954Y-210992795D01*
X64256046Y-210762454D01*
X64025705Y-210608546D01*
X63754000Y-210554500D01*
X58431965Y-210554500D01*
X58434101Y-207292162D01*
X58746333Y-207292162D01*
X58842976Y-207646038D01*
X59372971Y-208528424D01*
X60200296Y-209140822D01*
X61199000Y-209390000D01*
X61699000Y-209390000D01*
X61699000Y-206882000D01*
X61953000Y-206882000D01*
X61953000Y-209390000D01*
X62453000Y-209390000D01*
X63451704Y-209140822D01*
X64279029Y-208528424D01*
X64809024Y-207646038D01*
X64905667Y-207292162D01*
X64798991Y-206882000D01*
X61953000Y-206882000D01*
X61699000Y-206882000D01*
X58853009Y-206882000D01*
X58746333Y-207292162D01*
X58434101Y-207292162D01*
X58434452Y-206755000D01*
X71629582Y-206755000D01*
X71830159Y-207763371D01*
X72401356Y-208618226D01*
X73256211Y-209189423D01*
X74264582Y-209390000D01*
X75387418Y-209390000D01*
X76395789Y-209189423D01*
X77250644Y-208618226D01*
X77434210Y-208343500D01*
X91636275Y-208343500D01*
X91798792Y-209160529D01*
X92261602Y-209853173D01*
X92954246Y-210315983D01*
X93771275Y-210478500D01*
X94364725Y-210478500D01*
X95181754Y-210315983D01*
X95874398Y-209853173D01*
X96337208Y-209160529D01*
X96499725Y-208343500D01*
X97136275Y-208343500D01*
X97298792Y-209160529D01*
X97761602Y-209853173D01*
X98454246Y-210315983D01*
X99271275Y-210478500D01*
X99864725Y-210478500D01*
X100681754Y-210315983D01*
X101374398Y-209853173D01*
X101837208Y-209160529D01*
X101999725Y-208343500D01*
X102636275Y-208343500D01*
X102798792Y-209160529D01*
X103261602Y-209853173D01*
X103954246Y-210315983D01*
X104771275Y-210478500D01*
X105364725Y-210478500D01*
X106181754Y-210315983D01*
X106874398Y-209853173D01*
X107337208Y-209160529D01*
X107499725Y-208343500D01*
X107337208Y-207526471D01*
X107180648Y-207292162D01*
X120785833Y-207292162D01*
X120882476Y-207646038D01*
X121412471Y-208528424D01*
X122239796Y-209140822D01*
X123238500Y-209390000D01*
X123738500Y-209390000D01*
X123738500Y-206882000D01*
X123992500Y-206882000D01*
X123992500Y-209390000D01*
X124492500Y-209390000D01*
X125491204Y-209140822D01*
X126318529Y-208528424D01*
X126848524Y-207646038D01*
X126945167Y-207292162D01*
X126838491Y-206882000D01*
X123992500Y-206882000D01*
X123738500Y-206882000D01*
X120892509Y-206882000D01*
X120785833Y-207292162D01*
X107180648Y-207292162D01*
X106874398Y-206833827D01*
X106756426Y-206755000D01*
X133646082Y-206755000D01*
X133846659Y-207763371D01*
X134417856Y-208618226D01*
X135272711Y-209189423D01*
X136281082Y-209390000D01*
X137403918Y-209390000D01*
X138412289Y-209189423D01*
X139267144Y-208618226D01*
X139838341Y-207763371D01*
X140038918Y-206755000D01*
X139838341Y-205746629D01*
X139267144Y-204891774D01*
X138412289Y-204320577D01*
X137403918Y-204120000D01*
X136281082Y-204120000D01*
X135272711Y-204320577D01*
X134417856Y-204891774D01*
X133846659Y-205746629D01*
X133646082Y-206755000D01*
X106756426Y-206755000D01*
X106181754Y-206371017D01*
X105411671Y-206217838D01*
X120785833Y-206217838D01*
X120892509Y-206628000D01*
X123738500Y-206628000D01*
X123738500Y-204120000D01*
X123992500Y-204120000D01*
X123992500Y-206628000D01*
X126838491Y-206628000D01*
X126945167Y-206217838D01*
X126848524Y-205863962D01*
X126318529Y-204981576D01*
X125491204Y-204369178D01*
X124492500Y-204120000D01*
X123992500Y-204120000D01*
X123738500Y-204120000D01*
X123238500Y-204120000D01*
X122239796Y-204369178D01*
X121412471Y-204981576D01*
X120882476Y-205863962D01*
X120785833Y-206217838D01*
X105411671Y-206217838D01*
X105364725Y-206208500D01*
X104771275Y-206208500D01*
X103954246Y-206371017D01*
X103261602Y-206833827D01*
X102798792Y-207526471D01*
X102636275Y-208343500D01*
X101999725Y-208343500D01*
X101837208Y-207526471D01*
X101374398Y-206833827D01*
X100681754Y-206371017D01*
X99864725Y-206208500D01*
X99271275Y-206208500D01*
X98454246Y-206371017D01*
X97761602Y-206833827D01*
X97298792Y-207526471D01*
X97136275Y-208343500D01*
X96499725Y-208343500D01*
X96337208Y-207526471D01*
X95874398Y-206833827D01*
X95181754Y-206371017D01*
X94364725Y-206208500D01*
X93771275Y-206208500D01*
X92954246Y-206371017D01*
X92261602Y-206833827D01*
X91798792Y-207526471D01*
X91636275Y-208343500D01*
X77434210Y-208343500D01*
X77821841Y-207763371D01*
X78022418Y-206755000D01*
X77821841Y-205746629D01*
X77250644Y-204891774D01*
X76395789Y-204320577D01*
X75387418Y-204120000D01*
X74264582Y-204120000D01*
X73256211Y-204320577D01*
X72401356Y-204891774D01*
X71830159Y-205746629D01*
X71629582Y-206755000D01*
X58434452Y-206755000D01*
X58434804Y-206217838D01*
X58746333Y-206217838D01*
X58853009Y-206628000D01*
X61699000Y-206628000D01*
X61699000Y-204120000D01*
X61953000Y-204120000D01*
X61953000Y-206628000D01*
X64798991Y-206628000D01*
X64905667Y-206217838D01*
X64809024Y-205863962D01*
X64279029Y-204981576D01*
X63451704Y-204369178D01*
X62453000Y-204120000D01*
X61953000Y-204120000D01*
X61699000Y-204120000D01*
X61199000Y-204120000D01*
X60200296Y-204369178D01*
X59372971Y-204981576D01*
X58842976Y-205863962D01*
X58746333Y-206217838D01*
X58434804Y-206217838D01*
X58436424Y-203743500D01*
X91636275Y-203743500D01*
X91798792Y-204560529D01*
X92261602Y-205253173D01*
X92954246Y-205715983D01*
X93771275Y-205878500D01*
X94364725Y-205878500D01*
X95181754Y-205715983D01*
X95874398Y-205253173D01*
X96337208Y-204560529D01*
X96499725Y-203743500D01*
X97136275Y-203743500D01*
X97298792Y-204560529D01*
X97761602Y-205253173D01*
X98454246Y-205715983D01*
X99271275Y-205878500D01*
X99864725Y-205878500D01*
X100681754Y-205715983D01*
X101374398Y-205253173D01*
X101837208Y-204560529D01*
X101999725Y-203743500D01*
X102636275Y-203743500D01*
X102798792Y-204560529D01*
X103261602Y-205253173D01*
X103954246Y-205715983D01*
X104771275Y-205878500D01*
X105364725Y-205878500D01*
X106181754Y-205715983D01*
X106874398Y-205253173D01*
X107337208Y-204560529D01*
X107499725Y-203743500D01*
X107337208Y-202926471D01*
X106874398Y-202233827D01*
X106181754Y-201771017D01*
X105364725Y-201608500D01*
X104771275Y-201608500D01*
X103954246Y-201771017D01*
X103261602Y-202233827D01*
X102798792Y-202926471D01*
X102636275Y-203743500D01*
X101999725Y-203743500D01*
X101837208Y-202926471D01*
X101374398Y-202233827D01*
X100681754Y-201771017D01*
X99864725Y-201608500D01*
X99271275Y-201608500D01*
X98454246Y-201771017D01*
X97761602Y-202233827D01*
X97298792Y-202926471D01*
X97136275Y-203743500D01*
X96499725Y-203743500D01*
X96337208Y-202926471D01*
X95874398Y-202233827D01*
X95181754Y-201771017D01*
X94364725Y-201608500D01*
X93771275Y-201608500D01*
X92954246Y-201771017D01*
X92261602Y-202233827D01*
X91798792Y-202926471D01*
X91636275Y-203743500D01*
X58436424Y-203743500D01*
X58439112Y-199638667D01*
X94886338Y-199638667D01*
X95028383Y-199982443D01*
X95291173Y-200245692D01*
X95634701Y-200388338D01*
X96006667Y-200388662D01*
X96350443Y-200246617D01*
X96383618Y-200213500D01*
X97418037Y-200213500D01*
X97450173Y-200245692D01*
X97793701Y-200388338D01*
X98165667Y-200388662D01*
X98509443Y-200246617D01*
X98772692Y-199983827D01*
X98915338Y-199640299D01*
X98915662Y-199268333D01*
X98773617Y-198924557D01*
X98510827Y-198661308D01*
X98167299Y-198518662D01*
X97795333Y-198518338D01*
X97451557Y-198660383D01*
X97418382Y-198693500D01*
X96383963Y-198693500D01*
X96351827Y-198661308D01*
X96008299Y-198518662D01*
X95636333Y-198518338D01*
X95292557Y-198660383D01*
X95029308Y-198923173D01*
X94886662Y-199266701D01*
X94886338Y-199638667D01*
X58439112Y-199638667D01*
X58441066Y-196654167D01*
X112729838Y-196654167D01*
X112871883Y-196997943D01*
X113134673Y-197261192D01*
X113478201Y-197403838D01*
X113850167Y-197404162D01*
X113971569Y-197354000D01*
X114755178Y-197354000D01*
X114875201Y-197403838D01*
X115247167Y-197404162D01*
X115590943Y-197262117D01*
X115854192Y-196999327D01*
X115996838Y-196655799D01*
X115997162Y-196283833D01*
X115855117Y-195940057D01*
X115592327Y-195676808D01*
X115248799Y-195534162D01*
X114876833Y-195533838D01*
X114755431Y-195584000D01*
X113971822Y-195584000D01*
X113851799Y-195534162D01*
X113479833Y-195533838D01*
X113136057Y-195675883D01*
X112872808Y-195938673D01*
X112730162Y-196282201D01*
X112729838Y-196654167D01*
X58441066Y-196654167D01*
X58444931Y-190755000D01*
X58652582Y-190755000D01*
X58853159Y-191763371D01*
X59424356Y-192618226D01*
X60279211Y-193189423D01*
X61287582Y-193390000D01*
X62410418Y-193390000D01*
X63418789Y-193189423D01*
X64273644Y-192618226D01*
X64844841Y-191763371D01*
X65045418Y-190755000D01*
X71629582Y-190755000D01*
X71830159Y-191763371D01*
X72401356Y-192618226D01*
X73256211Y-193189423D01*
X74264582Y-193390000D01*
X75387418Y-193390000D01*
X76395789Y-193189423D01*
X77250644Y-192618226D01*
X77821841Y-191763371D01*
X77884737Y-191447167D01*
X80598838Y-191447167D01*
X80740883Y-191790943D01*
X81003673Y-192054192D01*
X81347201Y-192196838D01*
X81719167Y-192197162D01*
X82062943Y-192055117D01*
X82096118Y-192022000D01*
X83511537Y-192022000D01*
X83543673Y-192054192D01*
X83887201Y-192196838D01*
X84259167Y-192197162D01*
X84602943Y-192055117D01*
X84866192Y-191792327D01*
X85008838Y-191448799D01*
X85009162Y-191076833D01*
X84876184Y-190755000D01*
X120669082Y-190755000D01*
X120869659Y-191763371D01*
X121440856Y-192618226D01*
X122295711Y-193189423D01*
X123304082Y-193390000D01*
X124426918Y-193390000D01*
X125435289Y-193189423D01*
X126290144Y-192618226D01*
X126861341Y-191763371D01*
X126955070Y-191292162D01*
X133785833Y-191292162D01*
X133882476Y-191646038D01*
X134412471Y-192528424D01*
X135239796Y-193140822D01*
X136238500Y-193390000D01*
X136738500Y-193390000D01*
X136738500Y-190882000D01*
X136992500Y-190882000D01*
X136992500Y-193390000D01*
X137492500Y-193390000D01*
X138491204Y-193140822D01*
X139318529Y-192528424D01*
X139848524Y-191646038D01*
X139945167Y-191292162D01*
X139838491Y-190882000D01*
X136992500Y-190882000D01*
X136738500Y-190882000D01*
X133892509Y-190882000D01*
X133785833Y-191292162D01*
X126955070Y-191292162D01*
X127061918Y-190755000D01*
X126861341Y-189746629D01*
X126290144Y-188891774D01*
X125435289Y-188320577D01*
X125024275Y-188238821D01*
X125491204Y-188122322D01*
X126318529Y-187509924D01*
X126848524Y-186627538D01*
X126945167Y-186273662D01*
X126838491Y-185863500D01*
X123992500Y-185863500D01*
X123992500Y-185883500D01*
X123738500Y-185883500D01*
X123738500Y-185863500D01*
X120892509Y-185863500D01*
X120785833Y-186273662D01*
X120882476Y-186627538D01*
X121412471Y-187509924D01*
X122239796Y-188122322D01*
X122706725Y-188238821D01*
X122295711Y-188320577D01*
X121440856Y-188891774D01*
X120869659Y-189746629D01*
X120669082Y-190755000D01*
X84876184Y-190755000D01*
X84867117Y-190733057D01*
X84604327Y-190469808D01*
X84260799Y-190327162D01*
X83888833Y-190326838D01*
X83545057Y-190468883D01*
X83511882Y-190502000D01*
X82096463Y-190502000D01*
X82064327Y-190469808D01*
X81720799Y-190327162D01*
X81348833Y-190326838D01*
X81005057Y-190468883D01*
X80741808Y-190731673D01*
X80599162Y-191075201D01*
X80598838Y-191447167D01*
X77884737Y-191447167D01*
X78022418Y-190755000D01*
X77821841Y-189746629D01*
X77250644Y-188891774D01*
X76395789Y-188320577D01*
X75387418Y-188120000D01*
X74264582Y-188120000D01*
X73256211Y-188320577D01*
X72401356Y-188891774D01*
X71830159Y-189746629D01*
X71629582Y-190755000D01*
X65045418Y-190755000D01*
X64844841Y-189746629D01*
X64273644Y-188891774D01*
X63418789Y-188320577D01*
X62410418Y-188120000D01*
X61287582Y-188120000D01*
X60279211Y-188320577D01*
X59424356Y-188891774D01*
X58853159Y-189746629D01*
X58652582Y-190755000D01*
X58444931Y-190755000D01*
X58448053Y-185986167D01*
X106633838Y-185986167D01*
X106684000Y-186107569D01*
X106684000Y-187145178D01*
X106634162Y-187265201D01*
X106633838Y-187637167D01*
X106775883Y-187980943D01*
X107038673Y-188244192D01*
X107382201Y-188386838D01*
X107754167Y-188387162D01*
X108097943Y-188245117D01*
X108361192Y-187982327D01*
X108503838Y-187638799D01*
X108504162Y-187266833D01*
X108454000Y-187145431D01*
X108454000Y-186107822D01*
X108503838Y-185987799D01*
X108504056Y-185736500D01*
X133646082Y-185736500D01*
X133846659Y-186744871D01*
X134417856Y-187599726D01*
X135272711Y-188170923D01*
X135696522Y-188255224D01*
X135239796Y-188369178D01*
X134412471Y-188981576D01*
X133882476Y-189863962D01*
X133785833Y-190217838D01*
X133892509Y-190628000D01*
X136738500Y-190628000D01*
X136738500Y-190608000D01*
X136992500Y-190608000D01*
X136992500Y-190628000D01*
X139838491Y-190628000D01*
X139945167Y-190217838D01*
X139848524Y-189863962D01*
X139318529Y-188981576D01*
X138491204Y-188369178D01*
X138014072Y-188250133D01*
X138412289Y-188170923D01*
X139267144Y-187599726D01*
X139838341Y-186744871D01*
X140038918Y-185736500D01*
X139838341Y-184728129D01*
X139267144Y-183873274D01*
X138412289Y-183302077D01*
X137403918Y-183101500D01*
X136281082Y-183101500D01*
X135272711Y-183302077D01*
X134417856Y-183873274D01*
X133846659Y-184728129D01*
X133646082Y-185736500D01*
X108504056Y-185736500D01*
X108504162Y-185615833D01*
X108362117Y-185272057D01*
X108289525Y-185199338D01*
X120785833Y-185199338D01*
X120892509Y-185609500D01*
X123738500Y-185609500D01*
X123738500Y-183101500D01*
X123992500Y-183101500D01*
X123992500Y-185609500D01*
X126838491Y-185609500D01*
X126945167Y-185199338D01*
X126848524Y-184845462D01*
X126318529Y-183963076D01*
X125491204Y-183350678D01*
X124492500Y-183101500D01*
X123992500Y-183101500D01*
X123738500Y-183101500D01*
X123238500Y-183101500D01*
X122239796Y-183350678D01*
X121412471Y-183963076D01*
X120882476Y-184845462D01*
X120785833Y-185199338D01*
X108289525Y-185199338D01*
X108099327Y-185008808D01*
X107755799Y-184866162D01*
X107383833Y-184865838D01*
X107040057Y-185007883D01*
X106776808Y-185270673D01*
X106634162Y-185614201D01*
X106633838Y-185986167D01*
X58448053Y-185986167D01*
X58457720Y-171224000D01*
X59547560Y-171224000D01*
X59547560Y-174724000D01*
X59591838Y-174959317D01*
X59730910Y-175175441D01*
X59943110Y-175320431D01*
X60195000Y-175371440D01*
X62881045Y-175371440D01*
X62743559Y-175459910D01*
X62598569Y-175672110D01*
X62547560Y-175924000D01*
X62547560Y-179424000D01*
X62591838Y-179659317D01*
X62730910Y-179875441D01*
X62943110Y-180020431D01*
X63195000Y-180071440D01*
X66695000Y-180071440D01*
X66930317Y-180027162D01*
X67146441Y-179888090D01*
X67291431Y-179675890D01*
X67342440Y-179424000D01*
X67342440Y-178493167D01*
X119079838Y-178493167D01*
X119130000Y-178614569D01*
X119130000Y-181811178D01*
X119080162Y-181931201D01*
X119079838Y-182303167D01*
X119221883Y-182646943D01*
X119484673Y-182910192D01*
X119828201Y-183052838D01*
X120200167Y-183053162D01*
X120543943Y-182911117D01*
X120807192Y-182648327D01*
X120949838Y-182304799D01*
X120950162Y-181932833D01*
X120900000Y-181811431D01*
X120900000Y-178614822D01*
X120949838Y-178494799D01*
X120950162Y-178122833D01*
X120808117Y-177779057D01*
X120545327Y-177515808D01*
X120201799Y-177373162D01*
X119829833Y-177372838D01*
X119486057Y-177514883D01*
X119222808Y-177777673D01*
X119080162Y-178121201D01*
X119079838Y-178493167D01*
X67342440Y-178493167D01*
X67342440Y-175924000D01*
X67298162Y-175688683D01*
X67159090Y-175472559D01*
X66992891Y-175359000D01*
X67659250Y-175359000D01*
X67818000Y-175200250D01*
X67818000Y-173101000D01*
X68072000Y-173101000D01*
X68072000Y-175200250D01*
X68230750Y-175359000D01*
X69821309Y-175359000D01*
X70054698Y-175262327D01*
X70233327Y-175083699D01*
X70330000Y-174850310D01*
X70330000Y-173259750D01*
X70171250Y-173101000D01*
X68072000Y-173101000D01*
X67818000Y-173101000D01*
X65718750Y-173101000D01*
X65560000Y-173259750D01*
X65560000Y-174850310D01*
X65656673Y-175083699D01*
X65835302Y-175262327D01*
X65869663Y-175276560D01*
X64008955Y-175276560D01*
X64146441Y-175188090D01*
X64291431Y-174975890D01*
X64342440Y-174724000D01*
X64342440Y-171224000D01*
X64318674Y-171097690D01*
X65560000Y-171097690D01*
X65560000Y-172688250D01*
X65718750Y-172847000D01*
X67818000Y-172847000D01*
X67818000Y-170747750D01*
X68072000Y-170747750D01*
X68072000Y-172847000D01*
X70171250Y-172847000D01*
X70330000Y-172688250D01*
X70330000Y-171097690D01*
X70233327Y-170864301D01*
X70054698Y-170685673D01*
X69821309Y-170589000D01*
X68230750Y-170589000D01*
X68072000Y-170747750D01*
X67818000Y-170747750D01*
X67659250Y-170589000D01*
X66068691Y-170589000D01*
X65835302Y-170685673D01*
X65656673Y-170864301D01*
X65560000Y-171097690D01*
X64318674Y-171097690D01*
X64298162Y-170988683D01*
X64159090Y-170772559D01*
X63946890Y-170627569D01*
X63695000Y-170576560D01*
X60195000Y-170576560D01*
X59959683Y-170620838D01*
X59743559Y-170759910D01*
X59598569Y-170972110D01*
X59547560Y-171224000D01*
X58457720Y-171224000D01*
X58458694Y-169736500D01*
X120669082Y-169736500D01*
X120869659Y-170744871D01*
X121440856Y-171599726D01*
X122295711Y-172170923D01*
X123304082Y-172371500D01*
X124426918Y-172371500D01*
X125435289Y-172170923D01*
X126290144Y-171599726D01*
X126861341Y-170744871D01*
X126955070Y-170273662D01*
X133785833Y-170273662D01*
X133882476Y-170627538D01*
X134412471Y-171509924D01*
X135239796Y-172122322D01*
X136238500Y-172371500D01*
X136738500Y-172371500D01*
X136738500Y-169863500D01*
X136992500Y-169863500D01*
X136992500Y-172371500D01*
X137492500Y-172371500D01*
X138491204Y-172122322D01*
X139318529Y-171509924D01*
X139848524Y-170627538D01*
X139945167Y-170273662D01*
X139838491Y-169863500D01*
X136992500Y-169863500D01*
X136738500Y-169863500D01*
X133892509Y-169863500D01*
X133785833Y-170273662D01*
X126955070Y-170273662D01*
X127061918Y-169736500D01*
X126955071Y-169199338D01*
X133785833Y-169199338D01*
X133892509Y-169609500D01*
X136738500Y-169609500D01*
X136738500Y-167101500D01*
X136992500Y-167101500D01*
X136992500Y-169609500D01*
X139838491Y-169609500D01*
X139945167Y-169199338D01*
X139848524Y-168845462D01*
X139318529Y-167963076D01*
X138491204Y-167350678D01*
X137492500Y-167101500D01*
X136992500Y-167101500D01*
X136738500Y-167101500D01*
X136238500Y-167101500D01*
X135239796Y-167350678D01*
X134412471Y-167963076D01*
X133882476Y-168845462D01*
X133785833Y-169199338D01*
X126955071Y-169199338D01*
X126861341Y-168728129D01*
X126290144Y-167873274D01*
X125435289Y-167302077D01*
X124426918Y-167101500D01*
X123304082Y-167101500D01*
X122295711Y-167302077D01*
X121440856Y-167873274D01*
X120869659Y-168728129D01*
X120669082Y-169736500D01*
X58458694Y-169736500D01*
X58463369Y-162599000D01*
X59462560Y-162599000D01*
X59462560Y-164299000D01*
X59506838Y-164534317D01*
X59645910Y-164750441D01*
X59858110Y-164895431D01*
X60110000Y-164946440D01*
X61810000Y-164946440D01*
X62045317Y-164902162D01*
X62261441Y-164763090D01*
X62406431Y-164550890D01*
X62457440Y-164299000D01*
X62457440Y-162599000D01*
X62413162Y-162363683D01*
X62274090Y-162147559D01*
X62061890Y-162002569D01*
X61953893Y-161980699D01*
X62231645Y-161675924D01*
X62401476Y-161265890D01*
X62280155Y-161036000D01*
X61087000Y-161036000D01*
X61087000Y-161056000D01*
X60833000Y-161056000D01*
X60833000Y-161036000D01*
X59639845Y-161036000D01*
X59518524Y-161265890D01*
X59688355Y-161675924D01*
X59964501Y-161978937D01*
X59874683Y-161995838D01*
X59658559Y-162134910D01*
X59513569Y-162347110D01*
X59462560Y-162599000D01*
X58463369Y-162599000D01*
X58467803Y-155829000D01*
X59445907Y-155829000D01*
X59558946Y-156397285D01*
X59880853Y-156879054D01*
X60210026Y-157099000D01*
X59880853Y-157318946D01*
X59558946Y-157800715D01*
X59445907Y-158369000D01*
X59558946Y-158937285D01*
X59880853Y-159419054D01*
X60221553Y-159646702D01*
X60078642Y-159713817D01*
X59688355Y-160142076D01*
X59518524Y-160552110D01*
X59639845Y-160782000D01*
X60833000Y-160782000D01*
X60833000Y-160762000D01*
X61087000Y-160762000D01*
X61087000Y-160782000D01*
X62280155Y-160782000D01*
X62401476Y-160552110D01*
X62231645Y-160142076D01*
X61841358Y-159713817D01*
X61698447Y-159646702D01*
X61812989Y-159570167D01*
X89869838Y-159570167D01*
X89920000Y-159691569D01*
X89920000Y-162253178D01*
X89870162Y-162373201D01*
X89869838Y-162745167D01*
X90011883Y-163088943D01*
X90274673Y-163352192D01*
X90618201Y-163494838D01*
X90990167Y-163495162D01*
X91333943Y-163353117D01*
X91597192Y-163090327D01*
X91739838Y-162746799D01*
X91740162Y-162374833D01*
X91690000Y-162253431D01*
X91690000Y-159691822D01*
X91739838Y-159571799D01*
X91740162Y-159199833D01*
X91598117Y-158856057D01*
X91335327Y-158592808D01*
X90991799Y-158450162D01*
X90619833Y-158449838D01*
X90276057Y-158591883D01*
X90012808Y-158854673D01*
X89870162Y-159198201D01*
X89869838Y-159570167D01*
X61812989Y-159570167D01*
X62039147Y-159419054D01*
X62361054Y-158937285D01*
X62474093Y-158369000D01*
X62361054Y-157800715D01*
X62039147Y-157318946D01*
X61709974Y-157099000D01*
X62039147Y-156879054D01*
X62361054Y-156397285D01*
X62474093Y-155829000D01*
X62361054Y-155260715D01*
X62039147Y-154778946D01*
X61557378Y-154457039D01*
X60989093Y-154344000D01*
X60930907Y-154344000D01*
X60362622Y-154457039D01*
X59880853Y-154778946D01*
X59558946Y-155260715D01*
X59445907Y-155829000D01*
X58467803Y-155829000D01*
X58469050Y-153924000D01*
X134368000Y-153924000D01*
X134368000Y-160337500D01*
X134425852Y-160628339D01*
X134590599Y-160874901D01*
X135718790Y-162003092D01*
X135645907Y-162369500D01*
X135758946Y-162937785D01*
X136080853Y-163419554D01*
X136410026Y-163639500D01*
X136080853Y-163859446D01*
X135758946Y-164341215D01*
X135645907Y-164909500D01*
X135758946Y-165477785D01*
X136080853Y-165959554D01*
X136562622Y-166281461D01*
X137130907Y-166394500D01*
X137189093Y-166394500D01*
X137757378Y-166281461D01*
X138239147Y-165959554D01*
X138561054Y-165477785D01*
X138674093Y-164909500D01*
X138561054Y-164341215D01*
X138239147Y-163859446D01*
X137909974Y-163639500D01*
X138239147Y-163419554D01*
X138561054Y-162937785D01*
X138674093Y-162369500D01*
X138561054Y-161801215D01*
X138239147Y-161319446D01*
X137909974Y-161099500D01*
X138239147Y-160879554D01*
X138561054Y-160397785D01*
X138674093Y-159829500D01*
X138561054Y-159261215D01*
X138239147Y-158779446D01*
X137909974Y-158559500D01*
X138239147Y-158339554D01*
X138561054Y-157857785D01*
X138674093Y-157289500D01*
X138561054Y-156721215D01*
X138239147Y-156239446D01*
X137909974Y-156019500D01*
X138239147Y-155799554D01*
X138561054Y-155317785D01*
X138674093Y-154749500D01*
X138561054Y-154181215D01*
X138239147Y-153699446D01*
X138197548Y-153671650D01*
X138245317Y-153662662D01*
X138461441Y-153523590D01*
X138606431Y-153311390D01*
X138657440Y-153059500D01*
X138657440Y-151359500D01*
X138613162Y-151124183D01*
X138474090Y-150908059D01*
X138261890Y-150763069D01*
X138010000Y-150712060D01*
X136310000Y-150712060D01*
X136074683Y-150756338D01*
X135858559Y-150895410D01*
X135713569Y-151107610D01*
X135662560Y-151359500D01*
X135662560Y-152314638D01*
X134590599Y-153386599D01*
X134425852Y-153633161D01*
X134368000Y-153924000D01*
X58469050Y-153924000D01*
X58477450Y-141097000D01*
X59445907Y-141097000D01*
X59558946Y-141665285D01*
X59880853Y-142147054D01*
X60210026Y-142367000D01*
X59880853Y-142586946D01*
X59558946Y-143068715D01*
X59445907Y-143637000D01*
X59558946Y-144205285D01*
X59880853Y-144687054D01*
X60210026Y-144907000D01*
X59880853Y-145126946D01*
X59558946Y-145608715D01*
X59445907Y-146177000D01*
X59558946Y-146745285D01*
X59880853Y-147227054D01*
X60362622Y-147548961D01*
X60930907Y-147662000D01*
X60989093Y-147662000D01*
X61557378Y-147548961D01*
X62039147Y-147227054D01*
X62361054Y-146745285D01*
X62474093Y-146177000D01*
X62361054Y-145608715D01*
X62355343Y-145600167D01*
X128223838Y-145600167D01*
X128274000Y-145721569D01*
X128274000Y-147775178D01*
X128224162Y-147895201D01*
X128223838Y-148267167D01*
X128365883Y-148610943D01*
X128628673Y-148874192D01*
X128972201Y-149016838D01*
X129344167Y-149017162D01*
X129687943Y-148875117D01*
X129951192Y-148612327D01*
X130093838Y-148268799D01*
X130094162Y-147896833D01*
X130044000Y-147775431D01*
X130044000Y-147256500D01*
X135645907Y-147256500D01*
X135758946Y-147824785D01*
X136080853Y-148306554D01*
X136562622Y-148628461D01*
X137130907Y-148741500D01*
X137189093Y-148741500D01*
X137757378Y-148628461D01*
X138239147Y-148306554D01*
X138561054Y-147824785D01*
X138674093Y-147256500D01*
X138561054Y-146688215D01*
X138239147Y-146206446D01*
X137898447Y-145978798D01*
X138041358Y-145911683D01*
X138431645Y-145483424D01*
X138601476Y-145073390D01*
X138480155Y-144843500D01*
X137287000Y-144843500D01*
X137287000Y-144863500D01*
X137033000Y-144863500D01*
X137033000Y-144843500D01*
X135839845Y-144843500D01*
X135718524Y-145073390D01*
X135888355Y-145483424D01*
X136278642Y-145911683D01*
X136421553Y-145978798D01*
X136080853Y-146206446D01*
X135758946Y-146688215D01*
X135645907Y-147256500D01*
X130044000Y-147256500D01*
X130044000Y-145721822D01*
X130093838Y-145601799D01*
X130094162Y-145229833D01*
X129952117Y-144886057D01*
X129689327Y-144622808D01*
X129345799Y-144480162D01*
X128973833Y-144479838D01*
X128630057Y-144621883D01*
X128366808Y-144884673D01*
X128224162Y-145228201D01*
X128223838Y-145600167D01*
X62355343Y-145600167D01*
X62039147Y-145126946D01*
X61709974Y-144907000D01*
X62039147Y-144687054D01*
X62361054Y-144205285D01*
X62474093Y-143637000D01*
X62361054Y-143068715D01*
X62039147Y-142586946D01*
X61709974Y-142367000D01*
X62039147Y-142147054D01*
X62361054Y-141665285D01*
X62474093Y-141097000D01*
X62361054Y-140528715D01*
X62039147Y-140046946D01*
X61997548Y-140019150D01*
X62045317Y-140010162D01*
X62261441Y-139871090D01*
X62406431Y-139658890D01*
X62457440Y-139407000D01*
X62457440Y-139123167D01*
X63580838Y-139123167D01*
X63722883Y-139466943D01*
X63955709Y-139700176D01*
X63723808Y-139931673D01*
X63581162Y-140275201D01*
X63580838Y-140647167D01*
X63722883Y-140990943D01*
X63985673Y-141254192D01*
X64329201Y-141396838D01*
X64701167Y-141397162D01*
X65044943Y-141255117D01*
X65078118Y-141222000D01*
X65223537Y-141222000D01*
X65255673Y-141254192D01*
X65599201Y-141396838D01*
X65971167Y-141397162D01*
X66314943Y-141255117D01*
X66578192Y-140992327D01*
X66720838Y-140648799D01*
X66721162Y-140276833D01*
X66579117Y-139933057D01*
X66346291Y-139699824D01*
X66578192Y-139468327D01*
X66720838Y-139124799D01*
X66721162Y-138752833D01*
X66611805Y-138488167D01*
X73105838Y-138488167D01*
X73247883Y-138831943D01*
X73281000Y-138865118D01*
X73281000Y-139010537D01*
X73248808Y-139042673D01*
X73106162Y-139386201D01*
X73105838Y-139758167D01*
X73247883Y-140101943D01*
X73510673Y-140365192D01*
X73854201Y-140507838D01*
X74226167Y-140508162D01*
X74569943Y-140366117D01*
X74833192Y-140103327D01*
X74975838Y-139759799D01*
X74976162Y-139387833D01*
X74866805Y-139123167D01*
X77677838Y-139123167D01*
X77819883Y-139466943D01*
X78082673Y-139730192D01*
X78426201Y-139872838D01*
X78798167Y-139873162D01*
X79141943Y-139731117D01*
X79175118Y-139698000D01*
X79320537Y-139698000D01*
X79352673Y-139730192D01*
X79696201Y-139872838D01*
X80068167Y-139873162D01*
X80411943Y-139731117D01*
X80675192Y-139468327D01*
X80817838Y-139124799D01*
X80818162Y-138752833D01*
X80676117Y-138409057D01*
X80413327Y-138145808D01*
X80069799Y-138003162D01*
X79697833Y-138002838D01*
X79354057Y-138144883D01*
X79320882Y-138178000D01*
X79175463Y-138178000D01*
X79143327Y-138145808D01*
X78799799Y-138003162D01*
X78427833Y-138002838D01*
X78084057Y-138144883D01*
X77820808Y-138407673D01*
X77678162Y-138751201D01*
X77677838Y-139123167D01*
X74866805Y-139123167D01*
X74834117Y-139044057D01*
X74801000Y-139010882D01*
X74801000Y-138865463D01*
X74833192Y-138833327D01*
X74975838Y-138489799D01*
X74976162Y-138117833D01*
X74834117Y-137774057D01*
X74571327Y-137510808D01*
X74227799Y-137368162D01*
X73855833Y-137367838D01*
X73512057Y-137509883D01*
X73248808Y-137772673D01*
X73106162Y-138116201D01*
X73105838Y-138488167D01*
X66611805Y-138488167D01*
X66579117Y-138409057D01*
X66316327Y-138145808D01*
X65972799Y-138003162D01*
X65600833Y-138002838D01*
X65257057Y-138144883D01*
X65223882Y-138178000D01*
X65078463Y-138178000D01*
X65046327Y-138145808D01*
X64702799Y-138003162D01*
X64330833Y-138002838D01*
X63987057Y-138144883D01*
X63723808Y-138407673D01*
X63581162Y-138751201D01*
X63580838Y-139123167D01*
X62457440Y-139123167D01*
X62457440Y-137707000D01*
X62413162Y-137471683D01*
X62274090Y-137255559D01*
X62061890Y-137110569D01*
X61810000Y-137059560D01*
X60110000Y-137059560D01*
X59874683Y-137103838D01*
X59658559Y-137242910D01*
X59513569Y-137455110D01*
X59462560Y-137707000D01*
X59462560Y-139407000D01*
X59506838Y-139642317D01*
X59645910Y-139858441D01*
X59858110Y-140003431D01*
X59925541Y-140017086D01*
X59880853Y-140046946D01*
X59558946Y-140528715D01*
X59445907Y-141097000D01*
X58477450Y-141097000D01*
X58481653Y-134678167D01*
X130636838Y-134678167D01*
X130778883Y-135021943D01*
X131041673Y-135285192D01*
X131385201Y-135427838D01*
X131757167Y-135428162D01*
X132100943Y-135286117D01*
X132134118Y-135253000D01*
X135662560Y-135253000D01*
X135662560Y-135406500D01*
X135706838Y-135641817D01*
X135845910Y-135857941D01*
X136058110Y-136002931D01*
X136125541Y-136016586D01*
X136080853Y-136046446D01*
X135758946Y-136528215D01*
X135645907Y-137096500D01*
X135758946Y-137664785D01*
X136080853Y-138146554D01*
X136410026Y-138366500D01*
X136080853Y-138586446D01*
X135758946Y-139068215D01*
X135645907Y-139636500D01*
X135758946Y-140204785D01*
X136080853Y-140686554D01*
X136410026Y-140906500D01*
X136080853Y-141126446D01*
X135758946Y-141608215D01*
X135645907Y-142176500D01*
X135758946Y-142744785D01*
X136080853Y-143226554D01*
X136421553Y-143454202D01*
X136278642Y-143521317D01*
X135888355Y-143949576D01*
X135718524Y-144359610D01*
X135839845Y-144589500D01*
X137033000Y-144589500D01*
X137033000Y-144569500D01*
X137287000Y-144569500D01*
X137287000Y-144589500D01*
X138480155Y-144589500D01*
X138601476Y-144359610D01*
X138431645Y-143949576D01*
X138041358Y-143521317D01*
X137898447Y-143454202D01*
X138239147Y-143226554D01*
X138561054Y-142744785D01*
X138674093Y-142176500D01*
X138561054Y-141608215D01*
X138239147Y-141126446D01*
X137909974Y-140906500D01*
X138239147Y-140686554D01*
X138561054Y-140204785D01*
X138674093Y-139636500D01*
X138561054Y-139068215D01*
X138239147Y-138586446D01*
X137909974Y-138366500D01*
X138239147Y-138146554D01*
X138561054Y-137664785D01*
X138674093Y-137096500D01*
X138561054Y-136528215D01*
X138239147Y-136046446D01*
X138197548Y-136018650D01*
X138245317Y-136009662D01*
X138461441Y-135870590D01*
X138606431Y-135658390D01*
X138657440Y-135406500D01*
X138657440Y-133706500D01*
X138613162Y-133471183D01*
X138474090Y-133255059D01*
X138261890Y-133110069D01*
X138010000Y-133059060D01*
X136310000Y-133059060D01*
X136074683Y-133103338D01*
X135858559Y-133242410D01*
X135713569Y-133454610D01*
X135662560Y-133706500D01*
X135662560Y-133733000D01*
X132134463Y-133733000D01*
X132102327Y-133700808D01*
X131758799Y-133558162D01*
X131386833Y-133557838D01*
X131043057Y-133699883D01*
X130779808Y-133962673D01*
X130637162Y-134306201D01*
X130636838Y-134678167D01*
X58481653Y-134678167D01*
X58485767Y-128397000D01*
X59445907Y-128397000D01*
X59558946Y-128965285D01*
X59880853Y-129447054D01*
X60362622Y-129768961D01*
X60930907Y-129882000D01*
X60989093Y-129882000D01*
X61557378Y-129768961D01*
X62039147Y-129447054D01*
X62361054Y-128965285D01*
X62474093Y-128397000D01*
X62460402Y-128328167D01*
X85932838Y-128328167D01*
X86074883Y-128671943D01*
X86337673Y-128935192D01*
X86676168Y-129075748D01*
X91232255Y-133631834D01*
X91281883Y-133751943D01*
X91544673Y-134015192D01*
X91888201Y-134157838D01*
X92260167Y-134158162D01*
X92603943Y-134016117D01*
X92867192Y-133753327D01*
X93009838Y-133409799D01*
X93010162Y-133037833D01*
X92868117Y-132694057D01*
X92605327Y-132430808D01*
X92484013Y-132380434D01*
X87620790Y-127517210D01*
X87570339Y-127483500D01*
X87451562Y-127404136D01*
X87398327Y-127350808D01*
X87054799Y-127208162D01*
X86682833Y-127207838D01*
X86339057Y-127349883D01*
X86075808Y-127612673D01*
X85933162Y-127956201D01*
X85932838Y-128328167D01*
X62460402Y-128328167D01*
X62361054Y-127828715D01*
X62039147Y-127346946D01*
X61797028Y-127185167D01*
X87710838Y-127185167D01*
X87852883Y-127528943D01*
X88115673Y-127792192D01*
X88236986Y-127842566D01*
X91613255Y-131218834D01*
X91662883Y-131338943D01*
X91925673Y-131602192D01*
X92269201Y-131744838D01*
X92641167Y-131745162D01*
X92984943Y-131603117D01*
X93248192Y-131340327D01*
X93390838Y-130996799D01*
X93391060Y-130741167D01*
X110062838Y-130741167D01*
X110204883Y-131084943D01*
X110238000Y-131118118D01*
X110238000Y-131644537D01*
X110205808Y-131676673D01*
X110063162Y-132020201D01*
X110062838Y-132392167D01*
X110204883Y-132735943D01*
X110467673Y-132999192D01*
X110811201Y-133141838D01*
X111183167Y-133142162D01*
X111526943Y-133000117D01*
X111790192Y-132737327D01*
X111932838Y-132393799D01*
X111933162Y-132021833D01*
X111791117Y-131678057D01*
X111758000Y-131644882D01*
X111758000Y-131118463D01*
X111790192Y-131086327D01*
X111932838Y-130742799D01*
X111933162Y-130370833D01*
X111791117Y-130027057D01*
X111528327Y-129763808D01*
X111184799Y-129621162D01*
X110812833Y-129620838D01*
X110469057Y-129762883D01*
X110205808Y-130025673D01*
X110063162Y-130369201D01*
X110062838Y-130741167D01*
X93391060Y-130741167D01*
X93391162Y-130624833D01*
X93249117Y-130281057D01*
X92986327Y-130017808D01*
X92865013Y-129967434D01*
X91225747Y-128328167D01*
X130636838Y-128328167D01*
X130778883Y-128671943D01*
X131041673Y-128935192D01*
X131385201Y-129077838D01*
X131757167Y-129078162D01*
X132100943Y-128936117D01*
X132134118Y-128903000D01*
X135662560Y-128903000D01*
X135662560Y-129183500D01*
X135706838Y-129418817D01*
X135845910Y-129634941D01*
X136058110Y-129779931D01*
X136310000Y-129830940D01*
X138010000Y-129830940D01*
X138245317Y-129786662D01*
X138461441Y-129647590D01*
X138606431Y-129435390D01*
X138657440Y-129183500D01*
X138657440Y-127483500D01*
X138613162Y-127248183D01*
X138474090Y-127032059D01*
X138261890Y-126887069D01*
X138194459Y-126873414D01*
X138239147Y-126843554D01*
X138561054Y-126361785D01*
X138674093Y-125793500D01*
X138561054Y-125225215D01*
X138239147Y-124743446D01*
X137909974Y-124523500D01*
X138239147Y-124303554D01*
X138561054Y-123821785D01*
X138674093Y-123253500D01*
X138561054Y-122685215D01*
X138239147Y-122203446D01*
X137909974Y-121983500D01*
X138239147Y-121763554D01*
X138561054Y-121281785D01*
X138674093Y-120713500D01*
X138561054Y-120145215D01*
X138239147Y-119663446D01*
X137757378Y-119341539D01*
X137189093Y-119228500D01*
X137130907Y-119228500D01*
X136562622Y-119341539D01*
X136080853Y-119663446D01*
X135758946Y-120145215D01*
X135645907Y-120713500D01*
X135758946Y-121281785D01*
X136080853Y-121763554D01*
X136410026Y-121983500D01*
X136080853Y-122203446D01*
X135758946Y-122685215D01*
X135645907Y-123253500D01*
X135758946Y-123821785D01*
X136080853Y-124303554D01*
X136410026Y-124523500D01*
X136080853Y-124743446D01*
X135758946Y-125225215D01*
X135645907Y-125793500D01*
X135758946Y-126361785D01*
X136080853Y-126843554D01*
X136122452Y-126871350D01*
X136074683Y-126880338D01*
X135858559Y-127019410D01*
X135713569Y-127231610D01*
X135682912Y-127383000D01*
X132134463Y-127383000D01*
X132102327Y-127350808D01*
X131758799Y-127208162D01*
X131386833Y-127207838D01*
X131043057Y-127349883D01*
X130779808Y-127612673D01*
X130637162Y-127956201D01*
X130636838Y-128328167D01*
X91225747Y-128328167D01*
X89488744Y-126591164D01*
X89439117Y-126471057D01*
X89176327Y-126207808D01*
X88832799Y-126065162D01*
X88460833Y-126064838D01*
X88117057Y-126206883D01*
X87853808Y-126469673D01*
X87711162Y-126813201D01*
X87710838Y-127185167D01*
X61797028Y-127185167D01*
X61698447Y-127119298D01*
X61841358Y-127052183D01*
X62231645Y-126623924D01*
X62401476Y-126213890D01*
X62280155Y-125984000D01*
X61087000Y-125984000D01*
X61087000Y-126004000D01*
X60833000Y-126004000D01*
X60833000Y-125984000D01*
X59639845Y-125984000D01*
X59518524Y-126213890D01*
X59688355Y-126623924D01*
X60078642Y-127052183D01*
X60221553Y-127119298D01*
X59880853Y-127346946D01*
X59558946Y-127828715D01*
X59445907Y-128397000D01*
X58485767Y-128397000D01*
X58489094Y-123317000D01*
X59445907Y-123317000D01*
X59558946Y-123885285D01*
X59880853Y-124367054D01*
X60221553Y-124594702D01*
X60078642Y-124661817D01*
X59688355Y-125090076D01*
X59518524Y-125500110D01*
X59639845Y-125730000D01*
X60833000Y-125730000D01*
X60833000Y-125710000D01*
X61087000Y-125710000D01*
X61087000Y-125730000D01*
X62280155Y-125730000D01*
X62401476Y-125500110D01*
X62231645Y-125090076D01*
X61841358Y-124661817D01*
X61698447Y-124594702D01*
X62039147Y-124367054D01*
X62361054Y-123885285D01*
X62474093Y-123317000D01*
X62361054Y-122748715D01*
X62039147Y-122266946D01*
X61997548Y-122239150D01*
X62045317Y-122230162D01*
X62261441Y-122091090D01*
X62406431Y-121878890D01*
X62457440Y-121627000D01*
X62457440Y-119927000D01*
X62413162Y-119691683D01*
X62274090Y-119475559D01*
X62061890Y-119330569D01*
X61810000Y-119279560D01*
X60110000Y-119279560D01*
X59874683Y-119323838D01*
X59658559Y-119462910D01*
X59513569Y-119675110D01*
X59462560Y-119927000D01*
X59462560Y-121627000D01*
X59506838Y-121862317D01*
X59645910Y-122078441D01*
X59858110Y-122223431D01*
X59925541Y-122237086D01*
X59880853Y-122266946D01*
X59558946Y-122748715D01*
X59445907Y-123317000D01*
X58489094Y-123317000D01*
X58494535Y-115010000D01*
X63817500Y-115010000D01*
X64089205Y-114955954D01*
X64319546Y-114802046D01*
X64473454Y-114571705D01*
X64527500Y-114300000D01*
X64527500Y-108977500D01*
X134100500Y-108977500D01*
X134100500Y-114300000D01*
X134100500Y-114300000D01*
G37*
X134100500Y-114300000D02*
X134154546Y-114571705D01*
X134308454Y-114802046D01*
X134538795Y-114955954D01*
X134810500Y-115010000D01*
X140133000Y-115010000D01*
X140133000Y-209983000D01*
X134810500Y-209983000D01*
X134538795Y-210037046D01*
X134308454Y-210190954D01*
X134154546Y-210421295D01*
X134100500Y-210693000D01*
X134100500Y-216587000D01*
X64464000Y-216587000D01*
X64464000Y-212943500D01*
X91636275Y-212943500D01*
X91798792Y-213760529D01*
X92261602Y-214453173D01*
X92954246Y-214915983D01*
X93771275Y-215078500D01*
X94364725Y-215078500D01*
X95181754Y-214915983D01*
X95874398Y-214453173D01*
X96337208Y-213760529D01*
X96499725Y-212943500D01*
X97136275Y-212943500D01*
X97298792Y-213760529D01*
X97761602Y-214453173D01*
X98454246Y-214915983D01*
X99271275Y-215078500D01*
X99864725Y-215078500D01*
X100681754Y-214915983D01*
X101374398Y-214453173D01*
X101837208Y-213760529D01*
X101999725Y-212943500D01*
X102636275Y-212943500D01*
X102798792Y-213760529D01*
X103261602Y-214453173D01*
X103954246Y-214915983D01*
X104771275Y-215078500D01*
X105364725Y-215078500D01*
X106181754Y-214915983D01*
X106874398Y-214453173D01*
X107337208Y-213760529D01*
X107499725Y-212943500D01*
X107337208Y-212126471D01*
X106874398Y-211433827D01*
X106181754Y-210971017D01*
X105364725Y-210808500D01*
X104771275Y-210808500D01*
X103954246Y-210971017D01*
X103261602Y-211433827D01*
X102798792Y-212126471D01*
X102636275Y-212943500D01*
X101999725Y-212943500D01*
X101837208Y-212126471D01*
X101374398Y-211433827D01*
X100681754Y-210971017D01*
X99864725Y-210808500D01*
X99271275Y-210808500D01*
X98454246Y-210971017D01*
X97761602Y-211433827D01*
X97298792Y-212126471D01*
X97136275Y-212943500D01*
X96499725Y-212943500D01*
X96337208Y-212126471D01*
X95874398Y-211433827D01*
X95181754Y-210971017D01*
X94364725Y-210808500D01*
X93771275Y-210808500D01*
X92954246Y-210971017D01*
X92261602Y-211433827D01*
X91798792Y-212126471D01*
X91636275Y-212943500D01*
X64464000Y-212943500D01*
X64464000Y-211264500D01*
X64409954Y-210992795D01*
X64256046Y-210762454D01*
X64025705Y-210608546D01*
X63754000Y-210554500D01*
X58431965Y-210554500D01*
X58434101Y-207292162D01*
X58746333Y-207292162D01*
X58842976Y-207646038D01*
X59372971Y-208528424D01*
X60200296Y-209140822D01*
X61199000Y-209390000D01*
X61699000Y-209390000D01*
X61699000Y-206882000D01*
X61953000Y-206882000D01*
X61953000Y-209390000D01*
X62453000Y-209390000D01*
X63451704Y-209140822D01*
X64279029Y-208528424D01*
X64809024Y-207646038D01*
X64905667Y-207292162D01*
X64798991Y-206882000D01*
X61953000Y-206882000D01*
X61699000Y-206882000D01*
X58853009Y-206882000D01*
X58746333Y-207292162D01*
X58434101Y-207292162D01*
X58434452Y-206755000D01*
X71629582Y-206755000D01*
X71830159Y-207763371D01*
X72401356Y-208618226D01*
X73256211Y-209189423D01*
X74264582Y-209390000D01*
X75387418Y-209390000D01*
X76395789Y-209189423D01*
X77250644Y-208618226D01*
X77434210Y-208343500D01*
X91636275Y-208343500D01*
X91798792Y-209160529D01*
X92261602Y-209853173D01*
X92954246Y-210315983D01*
X93771275Y-210478500D01*
X94364725Y-210478500D01*
X95181754Y-210315983D01*
X95874398Y-209853173D01*
X96337208Y-209160529D01*
X96499725Y-208343500D01*
X97136275Y-208343500D01*
X97298792Y-209160529D01*
X97761602Y-209853173D01*
X98454246Y-210315983D01*
X99271275Y-210478500D01*
X99864725Y-210478500D01*
X100681754Y-210315983D01*
X101374398Y-209853173D01*
X101837208Y-209160529D01*
X101999725Y-208343500D01*
X102636275Y-208343500D01*
X102798792Y-209160529D01*
X103261602Y-209853173D01*
X103954246Y-210315983D01*
X104771275Y-210478500D01*
X105364725Y-210478500D01*
X106181754Y-210315983D01*
X106874398Y-209853173D01*
X107337208Y-209160529D01*
X107499725Y-208343500D01*
X107337208Y-207526471D01*
X107180648Y-207292162D01*
X120785833Y-207292162D01*
X120882476Y-207646038D01*
X121412471Y-208528424D01*
X122239796Y-209140822D01*
X123238500Y-209390000D01*
X123738500Y-209390000D01*
X123738500Y-206882000D01*
X123992500Y-206882000D01*
X123992500Y-209390000D01*
X124492500Y-209390000D01*
X125491204Y-209140822D01*
X126318529Y-208528424D01*
X126848524Y-207646038D01*
X126945167Y-207292162D01*
X126838491Y-206882000D01*
X123992500Y-206882000D01*
X123738500Y-206882000D01*
X120892509Y-206882000D01*
X120785833Y-207292162D01*
X107180648Y-207292162D01*
X106874398Y-206833827D01*
X106756426Y-206755000D01*
X133646082Y-206755000D01*
X133846659Y-207763371D01*
X134417856Y-208618226D01*
X135272711Y-209189423D01*
X136281082Y-209390000D01*
X137403918Y-209390000D01*
X138412289Y-209189423D01*
X139267144Y-208618226D01*
X139838341Y-207763371D01*
X140038918Y-206755000D01*
X139838341Y-205746629D01*
X139267144Y-204891774D01*
X138412289Y-204320577D01*
X137403918Y-204120000D01*
X136281082Y-204120000D01*
X135272711Y-204320577D01*
X134417856Y-204891774D01*
X133846659Y-205746629D01*
X133646082Y-206755000D01*
X106756426Y-206755000D01*
X106181754Y-206371017D01*
X105411671Y-206217838D01*
X120785833Y-206217838D01*
X120892509Y-206628000D01*
X123738500Y-206628000D01*
X123738500Y-204120000D01*
X123992500Y-204120000D01*
X123992500Y-206628000D01*
X126838491Y-206628000D01*
X126945167Y-206217838D01*
X126848524Y-205863962D01*
X126318529Y-204981576D01*
X125491204Y-204369178D01*
X124492500Y-204120000D01*
X123992500Y-204120000D01*
X123738500Y-204120000D01*
X123238500Y-204120000D01*
X122239796Y-204369178D01*
X121412471Y-204981576D01*
X120882476Y-205863962D01*
X120785833Y-206217838D01*
X105411671Y-206217838D01*
X105364725Y-206208500D01*
X104771275Y-206208500D01*
X103954246Y-206371017D01*
X103261602Y-206833827D01*
X102798792Y-207526471D01*
X102636275Y-208343500D01*
X101999725Y-208343500D01*
X101837208Y-207526471D01*
X101374398Y-206833827D01*
X100681754Y-206371017D01*
X99864725Y-206208500D01*
X99271275Y-206208500D01*
X98454246Y-206371017D01*
X97761602Y-206833827D01*
X97298792Y-207526471D01*
X97136275Y-208343500D01*
X96499725Y-208343500D01*
X96337208Y-207526471D01*
X95874398Y-206833827D01*
X95181754Y-206371017D01*
X94364725Y-206208500D01*
X93771275Y-206208500D01*
X92954246Y-206371017D01*
X92261602Y-206833827D01*
X91798792Y-207526471D01*
X91636275Y-208343500D01*
X77434210Y-208343500D01*
X77821841Y-207763371D01*
X78022418Y-206755000D01*
X77821841Y-205746629D01*
X77250644Y-204891774D01*
X76395789Y-204320577D01*
X75387418Y-204120000D01*
X74264582Y-204120000D01*
X73256211Y-204320577D01*
X72401356Y-204891774D01*
X71830159Y-205746629D01*
X71629582Y-206755000D01*
X58434452Y-206755000D01*
X58434804Y-206217838D01*
X58746333Y-206217838D01*
X58853009Y-206628000D01*
X61699000Y-206628000D01*
X61699000Y-204120000D01*
X61953000Y-204120000D01*
X61953000Y-206628000D01*
X64798991Y-206628000D01*
X64905667Y-206217838D01*
X64809024Y-205863962D01*
X64279029Y-204981576D01*
X63451704Y-204369178D01*
X62453000Y-204120000D01*
X61953000Y-204120000D01*
X61699000Y-204120000D01*
X61199000Y-204120000D01*
X60200296Y-204369178D01*
X59372971Y-204981576D01*
X58842976Y-205863962D01*
X58746333Y-206217838D01*
X58434804Y-206217838D01*
X58436424Y-203743500D01*
X91636275Y-203743500D01*
X91798792Y-204560529D01*
X92261602Y-205253173D01*
X92954246Y-205715983D01*
X93771275Y-205878500D01*
X94364725Y-205878500D01*
X95181754Y-205715983D01*
X95874398Y-205253173D01*
X96337208Y-204560529D01*
X96499725Y-203743500D01*
X97136275Y-203743500D01*
X97298792Y-204560529D01*
X97761602Y-205253173D01*
X98454246Y-205715983D01*
X99271275Y-205878500D01*
X99864725Y-205878500D01*
X100681754Y-205715983D01*
X101374398Y-205253173D01*
X101837208Y-204560529D01*
X101999725Y-203743500D01*
X102636275Y-203743500D01*
X102798792Y-204560529D01*
X103261602Y-205253173D01*
X103954246Y-205715983D01*
X104771275Y-205878500D01*
X105364725Y-205878500D01*
X106181754Y-205715983D01*
X106874398Y-205253173D01*
X107337208Y-204560529D01*
X107499725Y-203743500D01*
X107337208Y-202926471D01*
X106874398Y-202233827D01*
X106181754Y-201771017D01*
X105364725Y-201608500D01*
X104771275Y-201608500D01*
X103954246Y-201771017D01*
X103261602Y-202233827D01*
X102798792Y-202926471D01*
X102636275Y-203743500D01*
X101999725Y-203743500D01*
X101837208Y-202926471D01*
X101374398Y-202233827D01*
X100681754Y-201771017D01*
X99864725Y-201608500D01*
X99271275Y-201608500D01*
X98454246Y-201771017D01*
X97761602Y-202233827D01*
X97298792Y-202926471D01*
X97136275Y-203743500D01*
X96499725Y-203743500D01*
X96337208Y-202926471D01*
X95874398Y-202233827D01*
X95181754Y-201771017D01*
X94364725Y-201608500D01*
X93771275Y-201608500D01*
X92954246Y-201771017D01*
X92261602Y-202233827D01*
X91798792Y-202926471D01*
X91636275Y-203743500D01*
X58436424Y-203743500D01*
X58439112Y-199638667D01*
X94886338Y-199638667D01*
X95028383Y-199982443D01*
X95291173Y-200245692D01*
X95634701Y-200388338D01*
X96006667Y-200388662D01*
X96350443Y-200246617D01*
X96383618Y-200213500D01*
X97418037Y-200213500D01*
X97450173Y-200245692D01*
X97793701Y-200388338D01*
X98165667Y-200388662D01*
X98509443Y-200246617D01*
X98772692Y-199983827D01*
X98915338Y-199640299D01*
X98915662Y-199268333D01*
X98773617Y-198924557D01*
X98510827Y-198661308D01*
X98167299Y-198518662D01*
X97795333Y-198518338D01*
X97451557Y-198660383D01*
X97418382Y-198693500D01*
X96383963Y-198693500D01*
X96351827Y-198661308D01*
X96008299Y-198518662D01*
X95636333Y-198518338D01*
X95292557Y-198660383D01*
X95029308Y-198923173D01*
X94886662Y-199266701D01*
X94886338Y-199638667D01*
X58439112Y-199638667D01*
X58441066Y-196654167D01*
X112729838Y-196654167D01*
X112871883Y-196997943D01*
X113134673Y-197261192D01*
X113478201Y-197403838D01*
X113850167Y-197404162D01*
X113971569Y-197354000D01*
X114755178Y-197354000D01*
X114875201Y-197403838D01*
X115247167Y-197404162D01*
X115590943Y-197262117D01*
X115854192Y-196999327D01*
X115996838Y-196655799D01*
X115997162Y-196283833D01*
X115855117Y-195940057D01*
X115592327Y-195676808D01*
X115248799Y-195534162D01*
X114876833Y-195533838D01*
X114755431Y-195584000D01*
X113971822Y-195584000D01*
X113851799Y-195534162D01*
X113479833Y-195533838D01*
X113136057Y-195675883D01*
X112872808Y-195938673D01*
X112730162Y-196282201D01*
X112729838Y-196654167D01*
X58441066Y-196654167D01*
X58444931Y-190755000D01*
X58652582Y-190755000D01*
X58853159Y-191763371D01*
X59424356Y-192618226D01*
X60279211Y-193189423D01*
X61287582Y-193390000D01*
X62410418Y-193390000D01*
X63418789Y-193189423D01*
X64273644Y-192618226D01*
X64844841Y-191763371D01*
X65045418Y-190755000D01*
X71629582Y-190755000D01*
X71830159Y-191763371D01*
X72401356Y-192618226D01*
X73256211Y-193189423D01*
X74264582Y-193390000D01*
X75387418Y-193390000D01*
X76395789Y-193189423D01*
X77250644Y-192618226D01*
X77821841Y-191763371D01*
X77884737Y-191447167D01*
X80598838Y-191447167D01*
X80740883Y-191790943D01*
X81003673Y-192054192D01*
X81347201Y-192196838D01*
X81719167Y-192197162D01*
X82062943Y-192055117D01*
X82096118Y-192022000D01*
X83511537Y-192022000D01*
X83543673Y-192054192D01*
X83887201Y-192196838D01*
X84259167Y-192197162D01*
X84602943Y-192055117D01*
X84866192Y-191792327D01*
X85008838Y-191448799D01*
X85009162Y-191076833D01*
X84876184Y-190755000D01*
X120669082Y-190755000D01*
X120869659Y-191763371D01*
X121440856Y-192618226D01*
X122295711Y-193189423D01*
X123304082Y-193390000D01*
X124426918Y-193390000D01*
X125435289Y-193189423D01*
X126290144Y-192618226D01*
X126861341Y-191763371D01*
X126955070Y-191292162D01*
X133785833Y-191292162D01*
X133882476Y-191646038D01*
X134412471Y-192528424D01*
X135239796Y-193140822D01*
X136238500Y-193390000D01*
X136738500Y-193390000D01*
X136738500Y-190882000D01*
X136992500Y-190882000D01*
X136992500Y-193390000D01*
X137492500Y-193390000D01*
X138491204Y-193140822D01*
X139318529Y-192528424D01*
X139848524Y-191646038D01*
X139945167Y-191292162D01*
X139838491Y-190882000D01*
X136992500Y-190882000D01*
X136738500Y-190882000D01*
X133892509Y-190882000D01*
X133785833Y-191292162D01*
X126955070Y-191292162D01*
X127061918Y-190755000D01*
X126861341Y-189746629D01*
X126290144Y-188891774D01*
X125435289Y-188320577D01*
X125024275Y-188238821D01*
X125491204Y-188122322D01*
X126318529Y-187509924D01*
X126848524Y-186627538D01*
X126945167Y-186273662D01*
X126838491Y-185863500D01*
X123992500Y-185863500D01*
X123992500Y-185883500D01*
X123738500Y-185883500D01*
X123738500Y-185863500D01*
X120892509Y-185863500D01*
X120785833Y-186273662D01*
X120882476Y-186627538D01*
X121412471Y-187509924D01*
X122239796Y-188122322D01*
X122706725Y-188238821D01*
X122295711Y-188320577D01*
X121440856Y-188891774D01*
X120869659Y-189746629D01*
X120669082Y-190755000D01*
X84876184Y-190755000D01*
X84867117Y-190733057D01*
X84604327Y-190469808D01*
X84260799Y-190327162D01*
X83888833Y-190326838D01*
X83545057Y-190468883D01*
X83511882Y-190502000D01*
X82096463Y-190502000D01*
X82064327Y-190469808D01*
X81720799Y-190327162D01*
X81348833Y-190326838D01*
X81005057Y-190468883D01*
X80741808Y-190731673D01*
X80599162Y-191075201D01*
X80598838Y-191447167D01*
X77884737Y-191447167D01*
X78022418Y-190755000D01*
X77821841Y-189746629D01*
X77250644Y-188891774D01*
X76395789Y-188320577D01*
X75387418Y-188120000D01*
X74264582Y-188120000D01*
X73256211Y-188320577D01*
X72401356Y-188891774D01*
X71830159Y-189746629D01*
X71629582Y-190755000D01*
X65045418Y-190755000D01*
X64844841Y-189746629D01*
X64273644Y-188891774D01*
X63418789Y-188320577D01*
X62410418Y-188120000D01*
X61287582Y-188120000D01*
X60279211Y-188320577D01*
X59424356Y-188891774D01*
X58853159Y-189746629D01*
X58652582Y-190755000D01*
X58444931Y-190755000D01*
X58448053Y-185986167D01*
X106633838Y-185986167D01*
X106684000Y-186107569D01*
X106684000Y-187145178D01*
X106634162Y-187265201D01*
X106633838Y-187637167D01*
X106775883Y-187980943D01*
X107038673Y-188244192D01*
X107382201Y-188386838D01*
X107754167Y-188387162D01*
X108097943Y-188245117D01*
X108361192Y-187982327D01*
X108503838Y-187638799D01*
X108504162Y-187266833D01*
X108454000Y-187145431D01*
X108454000Y-186107822D01*
X108503838Y-185987799D01*
X108504056Y-185736500D01*
X133646082Y-185736500D01*
X133846659Y-186744871D01*
X134417856Y-187599726D01*
X135272711Y-188170923D01*
X135696522Y-188255224D01*
X135239796Y-188369178D01*
X134412471Y-188981576D01*
X133882476Y-189863962D01*
X133785833Y-190217838D01*
X133892509Y-190628000D01*
X136738500Y-190628000D01*
X136738500Y-190608000D01*
X136992500Y-190608000D01*
X136992500Y-190628000D01*
X139838491Y-190628000D01*
X139945167Y-190217838D01*
X139848524Y-189863962D01*
X139318529Y-188981576D01*
X138491204Y-188369178D01*
X138014072Y-188250133D01*
X138412289Y-188170923D01*
X139267144Y-187599726D01*
X139838341Y-186744871D01*
X140038918Y-185736500D01*
X139838341Y-184728129D01*
X139267144Y-183873274D01*
X138412289Y-183302077D01*
X137403918Y-183101500D01*
X136281082Y-183101500D01*
X135272711Y-183302077D01*
X134417856Y-183873274D01*
X133846659Y-184728129D01*
X133646082Y-185736500D01*
X108504056Y-185736500D01*
X108504162Y-185615833D01*
X108362117Y-185272057D01*
X108289525Y-185199338D01*
X120785833Y-185199338D01*
X120892509Y-185609500D01*
X123738500Y-185609500D01*
X123738500Y-183101500D01*
X123992500Y-183101500D01*
X123992500Y-185609500D01*
X126838491Y-185609500D01*
X126945167Y-185199338D01*
X126848524Y-184845462D01*
X126318529Y-183963076D01*
X125491204Y-183350678D01*
X124492500Y-183101500D01*
X123992500Y-183101500D01*
X123738500Y-183101500D01*
X123238500Y-183101500D01*
X122239796Y-183350678D01*
X121412471Y-183963076D01*
X120882476Y-184845462D01*
X120785833Y-185199338D01*
X108289525Y-185199338D01*
X108099327Y-185008808D01*
X107755799Y-184866162D01*
X107383833Y-184865838D01*
X107040057Y-185007883D01*
X106776808Y-185270673D01*
X106634162Y-185614201D01*
X106633838Y-185986167D01*
X58448053Y-185986167D01*
X58457720Y-171224000D01*
X59547560Y-171224000D01*
X59547560Y-174724000D01*
X59591838Y-174959317D01*
X59730910Y-175175441D01*
X59943110Y-175320431D01*
X60195000Y-175371440D01*
X62881045Y-175371440D01*
X62743559Y-175459910D01*
X62598569Y-175672110D01*
X62547560Y-175924000D01*
X62547560Y-179424000D01*
X62591838Y-179659317D01*
X62730910Y-179875441D01*
X62943110Y-180020431D01*
X63195000Y-180071440D01*
X66695000Y-180071440D01*
X66930317Y-180027162D01*
X67146441Y-179888090D01*
X67291431Y-179675890D01*
X67342440Y-179424000D01*
X67342440Y-178493167D01*
X119079838Y-178493167D01*
X119130000Y-178614569D01*
X119130000Y-181811178D01*
X119080162Y-181931201D01*
X119079838Y-182303167D01*
X119221883Y-182646943D01*
X119484673Y-182910192D01*
X119828201Y-183052838D01*
X120200167Y-183053162D01*
X120543943Y-182911117D01*
X120807192Y-182648327D01*
X120949838Y-182304799D01*
X120950162Y-181932833D01*
X120900000Y-181811431D01*
X120900000Y-178614822D01*
X120949838Y-178494799D01*
X120950162Y-178122833D01*
X120808117Y-177779057D01*
X120545327Y-177515808D01*
X120201799Y-177373162D01*
X119829833Y-177372838D01*
X119486057Y-177514883D01*
X119222808Y-177777673D01*
X119080162Y-178121201D01*
X119079838Y-178493167D01*
X67342440Y-178493167D01*
X67342440Y-175924000D01*
X67298162Y-175688683D01*
X67159090Y-175472559D01*
X66992891Y-175359000D01*
X67659250Y-175359000D01*
X67818000Y-175200250D01*
X67818000Y-173101000D01*
X68072000Y-173101000D01*
X68072000Y-175200250D01*
X68230750Y-175359000D01*
X69821309Y-175359000D01*
X70054698Y-175262327D01*
X70233327Y-175083699D01*
X70330000Y-174850310D01*
X70330000Y-173259750D01*
X70171250Y-173101000D01*
X68072000Y-173101000D01*
X67818000Y-173101000D01*
X65718750Y-173101000D01*
X65560000Y-173259750D01*
X65560000Y-174850310D01*
X65656673Y-175083699D01*
X65835302Y-175262327D01*
X65869663Y-175276560D01*
X64008955Y-175276560D01*
X64146441Y-175188090D01*
X64291431Y-174975890D01*
X64342440Y-174724000D01*
X64342440Y-171224000D01*
X64318674Y-171097690D01*
X65560000Y-171097690D01*
X65560000Y-172688250D01*
X65718750Y-172847000D01*
X67818000Y-172847000D01*
X67818000Y-170747750D01*
X68072000Y-170747750D01*
X68072000Y-172847000D01*
X70171250Y-172847000D01*
X70330000Y-172688250D01*
X70330000Y-171097690D01*
X70233327Y-170864301D01*
X70054698Y-170685673D01*
X69821309Y-170589000D01*
X68230750Y-170589000D01*
X68072000Y-170747750D01*
X67818000Y-170747750D01*
X67659250Y-170589000D01*
X66068691Y-170589000D01*
X65835302Y-170685673D01*
X65656673Y-170864301D01*
X65560000Y-171097690D01*
X64318674Y-171097690D01*
X64298162Y-170988683D01*
X64159090Y-170772559D01*
X63946890Y-170627569D01*
X63695000Y-170576560D01*
X60195000Y-170576560D01*
X59959683Y-170620838D01*
X59743559Y-170759910D01*
X59598569Y-170972110D01*
X59547560Y-171224000D01*
X58457720Y-171224000D01*
X58458694Y-169736500D01*
X120669082Y-169736500D01*
X120869659Y-170744871D01*
X121440856Y-171599726D01*
X122295711Y-172170923D01*
X123304082Y-172371500D01*
X124426918Y-172371500D01*
X125435289Y-172170923D01*
X126290144Y-171599726D01*
X126861341Y-170744871D01*
X126955070Y-170273662D01*
X133785833Y-170273662D01*
X133882476Y-170627538D01*
X134412471Y-171509924D01*
X135239796Y-172122322D01*
X136238500Y-172371500D01*
X136738500Y-172371500D01*
X136738500Y-169863500D01*
X136992500Y-169863500D01*
X136992500Y-172371500D01*
X137492500Y-172371500D01*
X138491204Y-172122322D01*
X139318529Y-171509924D01*
X139848524Y-170627538D01*
X139945167Y-170273662D01*
X139838491Y-169863500D01*
X136992500Y-169863500D01*
X136738500Y-169863500D01*
X133892509Y-169863500D01*
X133785833Y-170273662D01*
X126955070Y-170273662D01*
X127061918Y-169736500D01*
X126955071Y-169199338D01*
X133785833Y-169199338D01*
X133892509Y-169609500D01*
X136738500Y-169609500D01*
X136738500Y-167101500D01*
X136992500Y-167101500D01*
X136992500Y-169609500D01*
X139838491Y-169609500D01*
X139945167Y-169199338D01*
X139848524Y-168845462D01*
X139318529Y-167963076D01*
X138491204Y-167350678D01*
X137492500Y-167101500D01*
X136992500Y-167101500D01*
X136738500Y-167101500D01*
X136238500Y-167101500D01*
X135239796Y-167350678D01*
X134412471Y-167963076D01*
X133882476Y-168845462D01*
X133785833Y-169199338D01*
X126955071Y-169199338D01*
X126861341Y-168728129D01*
X126290144Y-167873274D01*
X125435289Y-167302077D01*
X124426918Y-167101500D01*
X123304082Y-167101500D01*
X122295711Y-167302077D01*
X121440856Y-167873274D01*
X120869659Y-168728129D01*
X120669082Y-169736500D01*
X58458694Y-169736500D01*
X58463369Y-162599000D01*
X59462560Y-162599000D01*
X59462560Y-164299000D01*
X59506838Y-164534317D01*
X59645910Y-164750441D01*
X59858110Y-164895431D01*
X60110000Y-164946440D01*
X61810000Y-164946440D01*
X62045317Y-164902162D01*
X62261441Y-164763090D01*
X62406431Y-164550890D01*
X62457440Y-164299000D01*
X62457440Y-162599000D01*
X62413162Y-162363683D01*
X62274090Y-162147559D01*
X62061890Y-162002569D01*
X61953893Y-161980699D01*
X62231645Y-161675924D01*
X62401476Y-161265890D01*
X62280155Y-161036000D01*
X61087000Y-161036000D01*
X61087000Y-161056000D01*
X60833000Y-161056000D01*
X60833000Y-161036000D01*
X59639845Y-161036000D01*
X59518524Y-161265890D01*
X59688355Y-161675924D01*
X59964501Y-161978937D01*
X59874683Y-161995838D01*
X59658559Y-162134910D01*
X59513569Y-162347110D01*
X59462560Y-162599000D01*
X58463369Y-162599000D01*
X58467803Y-155829000D01*
X59445907Y-155829000D01*
X59558946Y-156397285D01*
X59880853Y-156879054D01*
X60210026Y-157099000D01*
X59880853Y-157318946D01*
X59558946Y-157800715D01*
X59445907Y-158369000D01*
X59558946Y-158937285D01*
X59880853Y-159419054D01*
X60221553Y-159646702D01*
X60078642Y-159713817D01*
X59688355Y-160142076D01*
X59518524Y-160552110D01*
X59639845Y-160782000D01*
X60833000Y-160782000D01*
X60833000Y-160762000D01*
X61087000Y-160762000D01*
X61087000Y-160782000D01*
X62280155Y-160782000D01*
X62401476Y-160552110D01*
X62231645Y-160142076D01*
X61841358Y-159713817D01*
X61698447Y-159646702D01*
X61812989Y-159570167D01*
X89869838Y-159570167D01*
X89920000Y-159691569D01*
X89920000Y-162253178D01*
X89870162Y-162373201D01*
X89869838Y-162745167D01*
X90011883Y-163088943D01*
X90274673Y-163352192D01*
X90618201Y-163494838D01*
X90990167Y-163495162D01*
X91333943Y-163353117D01*
X91597192Y-163090327D01*
X91739838Y-162746799D01*
X91740162Y-162374833D01*
X91690000Y-162253431D01*
X91690000Y-159691822D01*
X91739838Y-159571799D01*
X91740162Y-159199833D01*
X91598117Y-158856057D01*
X91335327Y-158592808D01*
X90991799Y-158450162D01*
X90619833Y-158449838D01*
X90276057Y-158591883D01*
X90012808Y-158854673D01*
X89870162Y-159198201D01*
X89869838Y-159570167D01*
X61812989Y-159570167D01*
X62039147Y-159419054D01*
X62361054Y-158937285D01*
X62474093Y-158369000D01*
X62361054Y-157800715D01*
X62039147Y-157318946D01*
X61709974Y-157099000D01*
X62039147Y-156879054D01*
X62361054Y-156397285D01*
X62474093Y-155829000D01*
X62361054Y-155260715D01*
X62039147Y-154778946D01*
X61557378Y-154457039D01*
X60989093Y-154344000D01*
X60930907Y-154344000D01*
X60362622Y-154457039D01*
X59880853Y-154778946D01*
X59558946Y-155260715D01*
X59445907Y-155829000D01*
X58467803Y-155829000D01*
X58469050Y-153924000D01*
X134368000Y-153924000D01*
X134368000Y-160337500D01*
X134425852Y-160628339D01*
X134590599Y-160874901D01*
X135718790Y-162003092D01*
X135645907Y-162369500D01*
X135758946Y-162937785D01*
X136080853Y-163419554D01*
X136410026Y-163639500D01*
X136080853Y-163859446D01*
X135758946Y-164341215D01*
X135645907Y-164909500D01*
X135758946Y-165477785D01*
X136080853Y-165959554D01*
X136562622Y-166281461D01*
X137130907Y-166394500D01*
X137189093Y-166394500D01*
X137757378Y-166281461D01*
X138239147Y-165959554D01*
X138561054Y-165477785D01*
X138674093Y-164909500D01*
X138561054Y-164341215D01*
X138239147Y-163859446D01*
X137909974Y-163639500D01*
X138239147Y-163419554D01*
X138561054Y-162937785D01*
X138674093Y-162369500D01*
X138561054Y-161801215D01*
X138239147Y-161319446D01*
X137909974Y-161099500D01*
X138239147Y-160879554D01*
X138561054Y-160397785D01*
X138674093Y-159829500D01*
X138561054Y-159261215D01*
X138239147Y-158779446D01*
X137909974Y-158559500D01*
X138239147Y-158339554D01*
X138561054Y-157857785D01*
X138674093Y-157289500D01*
X138561054Y-156721215D01*
X138239147Y-156239446D01*
X137909974Y-156019500D01*
X138239147Y-155799554D01*
X138561054Y-155317785D01*
X138674093Y-154749500D01*
X138561054Y-154181215D01*
X138239147Y-153699446D01*
X138197548Y-153671650D01*
X138245317Y-153662662D01*
X138461441Y-153523590D01*
X138606431Y-153311390D01*
X138657440Y-153059500D01*
X138657440Y-151359500D01*
X138613162Y-151124183D01*
X138474090Y-150908059D01*
X138261890Y-150763069D01*
X138010000Y-150712060D01*
X136310000Y-150712060D01*
X136074683Y-150756338D01*
X135858559Y-150895410D01*
X135713569Y-151107610D01*
X135662560Y-151359500D01*
X135662560Y-152314638D01*
X134590599Y-153386599D01*
X134425852Y-153633161D01*
X134368000Y-153924000D01*
X58469050Y-153924000D01*
X58477450Y-141097000D01*
X59445907Y-141097000D01*
X59558946Y-141665285D01*
X59880853Y-142147054D01*
X60210026Y-142367000D01*
X59880853Y-142586946D01*
X59558946Y-143068715D01*
X59445907Y-143637000D01*
X59558946Y-144205285D01*
X59880853Y-144687054D01*
X60210026Y-144907000D01*
X59880853Y-145126946D01*
X59558946Y-145608715D01*
X59445907Y-146177000D01*
X59558946Y-146745285D01*
X59880853Y-147227054D01*
X60362622Y-147548961D01*
X60930907Y-147662000D01*
X60989093Y-147662000D01*
X61557378Y-147548961D01*
X62039147Y-147227054D01*
X62361054Y-146745285D01*
X62474093Y-146177000D01*
X62361054Y-145608715D01*
X62355343Y-145600167D01*
X128223838Y-145600167D01*
X128274000Y-145721569D01*
X128274000Y-147775178D01*
X128224162Y-147895201D01*
X128223838Y-148267167D01*
X128365883Y-148610943D01*
X128628673Y-148874192D01*
X128972201Y-149016838D01*
X129344167Y-149017162D01*
X129687943Y-148875117D01*
X129951192Y-148612327D01*
X130093838Y-148268799D01*
X130094162Y-147896833D01*
X130044000Y-147775431D01*
X130044000Y-147256500D01*
X135645907Y-147256500D01*
X135758946Y-147824785D01*
X136080853Y-148306554D01*
X136562622Y-148628461D01*
X137130907Y-148741500D01*
X137189093Y-148741500D01*
X137757378Y-148628461D01*
X138239147Y-148306554D01*
X138561054Y-147824785D01*
X138674093Y-147256500D01*
X138561054Y-146688215D01*
X138239147Y-146206446D01*
X137898447Y-145978798D01*
X138041358Y-145911683D01*
X138431645Y-145483424D01*
X138601476Y-145073390D01*
X138480155Y-144843500D01*
X137287000Y-144843500D01*
X137287000Y-144863500D01*
X137033000Y-144863500D01*
X137033000Y-144843500D01*
X135839845Y-144843500D01*
X135718524Y-145073390D01*
X135888355Y-145483424D01*
X136278642Y-145911683D01*
X136421553Y-145978798D01*
X136080853Y-146206446D01*
X135758946Y-146688215D01*
X135645907Y-147256500D01*
X130044000Y-147256500D01*
X130044000Y-145721822D01*
X130093838Y-145601799D01*
X130094162Y-145229833D01*
X129952117Y-144886057D01*
X129689327Y-144622808D01*
X129345799Y-144480162D01*
X128973833Y-144479838D01*
X128630057Y-144621883D01*
X128366808Y-144884673D01*
X128224162Y-145228201D01*
X128223838Y-145600167D01*
X62355343Y-145600167D01*
X62039147Y-145126946D01*
X61709974Y-144907000D01*
X62039147Y-144687054D01*
X62361054Y-144205285D01*
X62474093Y-143637000D01*
X62361054Y-143068715D01*
X62039147Y-142586946D01*
X61709974Y-142367000D01*
X62039147Y-142147054D01*
X62361054Y-141665285D01*
X62474093Y-141097000D01*
X62361054Y-140528715D01*
X62039147Y-140046946D01*
X61997548Y-140019150D01*
X62045317Y-140010162D01*
X62261441Y-139871090D01*
X62406431Y-139658890D01*
X62457440Y-139407000D01*
X62457440Y-139123167D01*
X63580838Y-139123167D01*
X63722883Y-139466943D01*
X63955709Y-139700176D01*
X63723808Y-139931673D01*
X63581162Y-140275201D01*
X63580838Y-140647167D01*
X63722883Y-140990943D01*
X63985673Y-141254192D01*
X64329201Y-141396838D01*
X64701167Y-141397162D01*
X65044943Y-141255117D01*
X65078118Y-141222000D01*
X65223537Y-141222000D01*
X65255673Y-141254192D01*
X65599201Y-141396838D01*
X65971167Y-141397162D01*
X66314943Y-141255117D01*
X66578192Y-140992327D01*
X66720838Y-140648799D01*
X66721162Y-140276833D01*
X66579117Y-139933057D01*
X66346291Y-139699824D01*
X66578192Y-139468327D01*
X66720838Y-139124799D01*
X66721162Y-138752833D01*
X66611805Y-138488167D01*
X73105838Y-138488167D01*
X73247883Y-138831943D01*
X73281000Y-138865118D01*
X73281000Y-139010537D01*
X73248808Y-139042673D01*
X73106162Y-139386201D01*
X73105838Y-139758167D01*
X73247883Y-140101943D01*
X73510673Y-140365192D01*
X73854201Y-140507838D01*
X74226167Y-140508162D01*
X74569943Y-140366117D01*
X74833192Y-140103327D01*
X74975838Y-139759799D01*
X74976162Y-139387833D01*
X74866805Y-139123167D01*
X77677838Y-139123167D01*
X77819883Y-139466943D01*
X78082673Y-139730192D01*
X78426201Y-139872838D01*
X78798167Y-139873162D01*
X79141943Y-139731117D01*
X79175118Y-139698000D01*
X79320537Y-139698000D01*
X79352673Y-139730192D01*
X79696201Y-139872838D01*
X80068167Y-139873162D01*
X80411943Y-139731117D01*
X80675192Y-139468327D01*
X80817838Y-139124799D01*
X80818162Y-138752833D01*
X80676117Y-138409057D01*
X80413327Y-138145808D01*
X80069799Y-138003162D01*
X79697833Y-138002838D01*
X79354057Y-138144883D01*
X79320882Y-138178000D01*
X79175463Y-138178000D01*
X79143327Y-138145808D01*
X78799799Y-138003162D01*
X78427833Y-138002838D01*
X78084057Y-138144883D01*
X77820808Y-138407673D01*
X77678162Y-138751201D01*
X77677838Y-139123167D01*
X74866805Y-139123167D01*
X74834117Y-139044057D01*
X74801000Y-139010882D01*
X74801000Y-138865463D01*
X74833192Y-138833327D01*
X74975838Y-138489799D01*
X74976162Y-138117833D01*
X74834117Y-137774057D01*
X74571327Y-137510808D01*
X74227799Y-137368162D01*
X73855833Y-137367838D01*
X73512057Y-137509883D01*
X73248808Y-137772673D01*
X73106162Y-138116201D01*
X73105838Y-138488167D01*
X66611805Y-138488167D01*
X66579117Y-138409057D01*
X66316327Y-138145808D01*
X65972799Y-138003162D01*
X65600833Y-138002838D01*
X65257057Y-138144883D01*
X65223882Y-138178000D01*
X65078463Y-138178000D01*
X65046327Y-138145808D01*
X64702799Y-138003162D01*
X64330833Y-138002838D01*
X63987057Y-138144883D01*
X63723808Y-138407673D01*
X63581162Y-138751201D01*
X63580838Y-139123167D01*
X62457440Y-139123167D01*
X62457440Y-137707000D01*
X62413162Y-137471683D01*
X62274090Y-137255559D01*
X62061890Y-137110569D01*
X61810000Y-137059560D01*
X60110000Y-137059560D01*
X59874683Y-137103838D01*
X59658559Y-137242910D01*
X59513569Y-137455110D01*
X59462560Y-137707000D01*
X59462560Y-139407000D01*
X59506838Y-139642317D01*
X59645910Y-139858441D01*
X59858110Y-140003431D01*
X59925541Y-140017086D01*
X59880853Y-140046946D01*
X59558946Y-140528715D01*
X59445907Y-141097000D01*
X58477450Y-141097000D01*
X58481653Y-134678167D01*
X130636838Y-134678167D01*
X130778883Y-135021943D01*
X131041673Y-135285192D01*
X131385201Y-135427838D01*
X131757167Y-135428162D01*
X132100943Y-135286117D01*
X132134118Y-135253000D01*
X135662560Y-135253000D01*
X135662560Y-135406500D01*
X135706838Y-135641817D01*
X135845910Y-135857941D01*
X136058110Y-136002931D01*
X136125541Y-136016586D01*
X136080853Y-136046446D01*
X135758946Y-136528215D01*
X135645907Y-137096500D01*
X135758946Y-137664785D01*
X136080853Y-138146554D01*
X136410026Y-138366500D01*
X136080853Y-138586446D01*
X135758946Y-139068215D01*
X135645907Y-139636500D01*
X135758946Y-140204785D01*
X136080853Y-140686554D01*
X136410026Y-140906500D01*
X136080853Y-141126446D01*
X135758946Y-141608215D01*
X135645907Y-142176500D01*
X135758946Y-142744785D01*
X136080853Y-143226554D01*
X136421553Y-143454202D01*
X136278642Y-143521317D01*
X135888355Y-143949576D01*
X135718524Y-144359610D01*
X135839845Y-144589500D01*
X137033000Y-144589500D01*
X137033000Y-144569500D01*
X137287000Y-144569500D01*
X137287000Y-144589500D01*
X138480155Y-144589500D01*
X138601476Y-144359610D01*
X138431645Y-143949576D01*
X138041358Y-143521317D01*
X137898447Y-143454202D01*
X138239147Y-143226554D01*
X138561054Y-142744785D01*
X138674093Y-142176500D01*
X138561054Y-141608215D01*
X138239147Y-141126446D01*
X137909974Y-140906500D01*
X138239147Y-140686554D01*
X138561054Y-140204785D01*
X138674093Y-139636500D01*
X138561054Y-139068215D01*
X138239147Y-138586446D01*
X137909974Y-138366500D01*
X138239147Y-138146554D01*
X138561054Y-137664785D01*
X138674093Y-137096500D01*
X138561054Y-136528215D01*
X138239147Y-136046446D01*
X138197548Y-136018650D01*
X138245317Y-136009662D01*
X138461441Y-135870590D01*
X138606431Y-135658390D01*
X138657440Y-135406500D01*
X138657440Y-133706500D01*
X138613162Y-133471183D01*
X138474090Y-133255059D01*
X138261890Y-133110069D01*
X138010000Y-133059060D01*
X136310000Y-133059060D01*
X136074683Y-133103338D01*
X135858559Y-133242410D01*
X135713569Y-133454610D01*
X135662560Y-133706500D01*
X135662560Y-133733000D01*
X132134463Y-133733000D01*
X132102327Y-133700808D01*
X131758799Y-133558162D01*
X131386833Y-133557838D01*
X131043057Y-133699883D01*
X130779808Y-133962673D01*
X130637162Y-134306201D01*
X130636838Y-134678167D01*
X58481653Y-134678167D01*
X58485767Y-128397000D01*
X59445907Y-128397000D01*
X59558946Y-128965285D01*
X59880853Y-129447054D01*
X60362622Y-129768961D01*
X60930907Y-129882000D01*
X60989093Y-129882000D01*
X61557378Y-129768961D01*
X62039147Y-129447054D01*
X62361054Y-128965285D01*
X62474093Y-128397000D01*
X62460402Y-128328167D01*
X85932838Y-128328167D01*
X86074883Y-128671943D01*
X86337673Y-128935192D01*
X86676168Y-129075748D01*
X91232255Y-133631834D01*
X91281883Y-133751943D01*
X91544673Y-134015192D01*
X91888201Y-134157838D01*
X92260167Y-134158162D01*
X92603943Y-134016117D01*
X92867192Y-133753327D01*
X93009838Y-133409799D01*
X93010162Y-133037833D01*
X92868117Y-132694057D01*
X92605327Y-132430808D01*
X92484013Y-132380434D01*
X87620790Y-127517210D01*
X87570339Y-127483500D01*
X87451562Y-127404136D01*
X87398327Y-127350808D01*
X87054799Y-127208162D01*
X86682833Y-127207838D01*
X86339057Y-127349883D01*
X86075808Y-127612673D01*
X85933162Y-127956201D01*
X85932838Y-128328167D01*
X62460402Y-128328167D01*
X62361054Y-127828715D01*
X62039147Y-127346946D01*
X61797028Y-127185167D01*
X87710838Y-127185167D01*
X87852883Y-127528943D01*
X88115673Y-127792192D01*
X88236986Y-127842566D01*
X91613255Y-131218834D01*
X91662883Y-131338943D01*
X91925673Y-131602192D01*
X92269201Y-131744838D01*
X92641167Y-131745162D01*
X92984943Y-131603117D01*
X93248192Y-131340327D01*
X93390838Y-130996799D01*
X93391060Y-130741167D01*
X110062838Y-130741167D01*
X110204883Y-131084943D01*
X110238000Y-131118118D01*
X110238000Y-131644537D01*
X110205808Y-131676673D01*
X110063162Y-132020201D01*
X110062838Y-132392167D01*
X110204883Y-132735943D01*
X110467673Y-132999192D01*
X110811201Y-133141838D01*
X111183167Y-133142162D01*
X111526943Y-133000117D01*
X111790192Y-132737327D01*
X111932838Y-132393799D01*
X111933162Y-132021833D01*
X111791117Y-131678057D01*
X111758000Y-131644882D01*
X111758000Y-131118463D01*
X111790192Y-131086327D01*
X111932838Y-130742799D01*
X111933162Y-130370833D01*
X111791117Y-130027057D01*
X111528327Y-129763808D01*
X111184799Y-129621162D01*
X110812833Y-129620838D01*
X110469057Y-129762883D01*
X110205808Y-130025673D01*
X110063162Y-130369201D01*
X110062838Y-130741167D01*
X93391060Y-130741167D01*
X93391162Y-130624833D01*
X93249117Y-130281057D01*
X92986327Y-130017808D01*
X92865013Y-129967434D01*
X91225747Y-128328167D01*
X130636838Y-128328167D01*
X130778883Y-128671943D01*
X131041673Y-128935192D01*
X131385201Y-129077838D01*
X131757167Y-129078162D01*
X132100943Y-128936117D01*
X132134118Y-128903000D01*
X135662560Y-128903000D01*
X135662560Y-129183500D01*
X135706838Y-129418817D01*
X135845910Y-129634941D01*
X136058110Y-129779931D01*
X136310000Y-129830940D01*
X138010000Y-129830940D01*
X138245317Y-129786662D01*
X138461441Y-129647590D01*
X138606431Y-129435390D01*
X138657440Y-129183500D01*
X138657440Y-127483500D01*
X138613162Y-127248183D01*
X138474090Y-127032059D01*
X138261890Y-126887069D01*
X138194459Y-126873414D01*
X138239147Y-126843554D01*
X138561054Y-126361785D01*
X138674093Y-125793500D01*
X138561054Y-125225215D01*
X138239147Y-124743446D01*
X137909974Y-124523500D01*
X138239147Y-124303554D01*
X138561054Y-123821785D01*
X138674093Y-123253500D01*
X138561054Y-122685215D01*
X138239147Y-122203446D01*
X137909974Y-121983500D01*
X138239147Y-121763554D01*
X138561054Y-121281785D01*
X138674093Y-120713500D01*
X138561054Y-120145215D01*
X138239147Y-119663446D01*
X137757378Y-119341539D01*
X137189093Y-119228500D01*
X137130907Y-119228500D01*
X136562622Y-119341539D01*
X136080853Y-119663446D01*
X135758946Y-120145215D01*
X135645907Y-120713500D01*
X135758946Y-121281785D01*
X136080853Y-121763554D01*
X136410026Y-121983500D01*
X136080853Y-122203446D01*
X135758946Y-122685215D01*
X135645907Y-123253500D01*
X135758946Y-123821785D01*
X136080853Y-124303554D01*
X136410026Y-124523500D01*
X136080853Y-124743446D01*
X135758946Y-125225215D01*
X135645907Y-125793500D01*
X135758946Y-126361785D01*
X136080853Y-126843554D01*
X136122452Y-126871350D01*
X136074683Y-126880338D01*
X135858559Y-127019410D01*
X135713569Y-127231610D01*
X135682912Y-127383000D01*
X132134463Y-127383000D01*
X132102327Y-127350808D01*
X131758799Y-127208162D01*
X131386833Y-127207838D01*
X131043057Y-127349883D01*
X130779808Y-127612673D01*
X130637162Y-127956201D01*
X130636838Y-128328167D01*
X91225747Y-128328167D01*
X89488744Y-126591164D01*
X89439117Y-126471057D01*
X89176327Y-126207808D01*
X88832799Y-126065162D01*
X88460833Y-126064838D01*
X88117057Y-126206883D01*
X87853808Y-126469673D01*
X87711162Y-126813201D01*
X87710838Y-127185167D01*
X61797028Y-127185167D01*
X61698447Y-127119298D01*
X61841358Y-127052183D01*
X62231645Y-126623924D01*
X62401476Y-126213890D01*
X62280155Y-125984000D01*
X61087000Y-125984000D01*
X61087000Y-126004000D01*
X60833000Y-126004000D01*
X60833000Y-125984000D01*
X59639845Y-125984000D01*
X59518524Y-126213890D01*
X59688355Y-126623924D01*
X60078642Y-127052183D01*
X60221553Y-127119298D01*
X59880853Y-127346946D01*
X59558946Y-127828715D01*
X59445907Y-128397000D01*
X58485767Y-128397000D01*
X58489094Y-123317000D01*
X59445907Y-123317000D01*
X59558946Y-123885285D01*
X59880853Y-124367054D01*
X60221553Y-124594702D01*
X60078642Y-124661817D01*
X59688355Y-125090076D01*
X59518524Y-125500110D01*
X59639845Y-125730000D01*
X60833000Y-125730000D01*
X60833000Y-125710000D01*
X61087000Y-125710000D01*
X61087000Y-125730000D01*
X62280155Y-125730000D01*
X62401476Y-125500110D01*
X62231645Y-125090076D01*
X61841358Y-124661817D01*
X61698447Y-124594702D01*
X62039147Y-124367054D01*
X62361054Y-123885285D01*
X62474093Y-123317000D01*
X62361054Y-122748715D01*
X62039147Y-122266946D01*
X61997548Y-122239150D01*
X62045317Y-122230162D01*
X62261441Y-122091090D01*
X62406431Y-121878890D01*
X62457440Y-121627000D01*
X62457440Y-119927000D01*
X62413162Y-119691683D01*
X62274090Y-119475559D01*
X62061890Y-119330569D01*
X61810000Y-119279560D01*
X60110000Y-119279560D01*
X59874683Y-119323838D01*
X59658559Y-119462910D01*
X59513569Y-119675110D01*
X59462560Y-119927000D01*
X59462560Y-121627000D01*
X59506838Y-121862317D01*
X59645910Y-122078441D01*
X59858110Y-122223431D01*
X59925541Y-122237086D01*
X59880853Y-122266946D01*
X59558946Y-122748715D01*
X59445907Y-123317000D01*
X58489094Y-123317000D01*
X58494535Y-115010000D01*
X63817500Y-115010000D01*
X64089205Y-114955954D01*
X64319546Y-114802046D01*
X64473454Y-114571705D01*
X64527500Y-114300000D01*
X64527500Y-108977500D01*
X134100500Y-108977500D01*
X134100500Y-114300000D01*
M02*
