G04 #@! TF.FileFunction,Soldermask,Bot*
%FSLAX46Y46*%
G04 Gerber Fmt 4.6, Leading zero omitted, Abs format (unit mm)*
G04 Created by KiCad (PCBNEW 4.0.7) date 04/04/18 08:51:17*
%MOMM*%
%LPD*%
G01*
G04 APERTURE LIST*
%ADD10C,0.100000*%
%ADD11C,2.200000*%
%ADD12C,4.400000*%
%ADD13R,2.200000X2.200000*%
%ADD14R,2.100000X2.100000*%
%ADD15O,2.100000X2.100000*%
%ADD16O,5.400000X4.400000*%
%ADD17R,3.900000X3.900000*%
%ADD18O,3.900000X3.400000*%
%ADD19O,3.400000X4.400000*%
%ADD20R,1.650000X1.900000*%
G04 APERTURE END LIST*
D10*
D11*
X133651000Y-57023000D03*
X131151000Y-57023000D03*
X128651000Y-57023000D03*
D12*
X135551000Y-64023000D03*
X126751000Y-64023000D03*
D13*
X101727000Y-103759000D03*
D11*
X99187000Y-103759000D03*
X72183000Y-57023000D03*
X69683000Y-57023000D03*
X67183000Y-57023000D03*
D12*
X74083000Y-64023000D03*
X65283000Y-64023000D03*
D11*
X102663000Y-78359000D03*
X100163000Y-78359000D03*
X97663000Y-78359000D03*
D12*
X104563000Y-85359000D03*
X95763000Y-85359000D03*
D14*
X60579000Y-58547000D03*
D15*
X60579000Y-61087000D03*
X60579000Y-63627000D03*
X60579000Y-66167000D03*
D14*
X140335000Y-90043000D03*
D15*
X140335000Y-92583000D03*
X140335000Y-95123000D03*
X140335000Y-97663000D03*
X140335000Y-100203000D03*
X140335000Y-102743000D03*
D14*
X60579000Y-76327000D03*
D15*
X60579000Y-78867000D03*
X60579000Y-81407000D03*
X60579000Y-83947000D03*
D14*
X140335000Y-66167000D03*
D15*
X140335000Y-63627000D03*
X140335000Y-61087000D03*
X140335000Y-58547000D03*
D14*
X140335000Y-72263000D03*
D15*
X140335000Y-74803000D03*
X140335000Y-77343000D03*
X140335000Y-79883000D03*
X140335000Y-82423000D03*
X140335000Y-84963000D03*
D16*
X125707000Y-185673000D03*
X125707000Y-169673000D03*
X138707000Y-169673000D03*
X138684000Y-185673000D03*
X125707000Y-206755000D03*
X125707000Y-190755000D03*
X138707000Y-190755000D03*
X138684000Y-206755000D03*
D14*
X60325000Y-120777000D03*
D15*
X60325000Y-123317000D03*
X60325000Y-125857000D03*
X60325000Y-128397000D03*
D14*
X140081000Y-134493000D03*
D15*
X140081000Y-137033000D03*
X140081000Y-139573000D03*
X140081000Y-142113000D03*
X140081000Y-144653000D03*
X140081000Y-147193000D03*
D14*
X60325000Y-138557000D03*
D15*
X60325000Y-141097000D03*
X60325000Y-143637000D03*
X60325000Y-146177000D03*
D14*
X140081000Y-128397000D03*
D15*
X140081000Y-125857000D03*
X140081000Y-123317000D03*
X140081000Y-120777000D03*
D14*
X140081000Y-152273000D03*
D15*
X140081000Y-154813000D03*
X140081000Y-157353000D03*
X140081000Y-159893000D03*
X140081000Y-162433000D03*
X140081000Y-164973000D03*
D16*
X74826000Y-190755000D03*
X74826000Y-206755000D03*
X61826000Y-206755000D03*
X61849000Y-190755000D03*
D17*
X68199000Y-170815000D03*
X62199000Y-170815000D03*
X65199000Y-175515000D03*
D11*
X133651000Y-78359000D03*
X131151000Y-78359000D03*
X128651000Y-78359000D03*
D12*
X135551000Y-85359000D03*
X126751000Y-85359000D03*
D11*
X102531000Y-57023000D03*
X100031000Y-57023000D03*
X97531000Y-57023000D03*
D12*
X104431000Y-64023000D03*
X95631000Y-64023000D03*
D18*
X104941000Y-213388000D03*
X99441000Y-213388000D03*
X93941000Y-213388000D03*
X104941000Y-208788000D03*
X99441000Y-208788000D03*
X93941000Y-208788000D03*
X104941000Y-204188000D03*
X99441000Y-204188000D03*
X93941000Y-204188000D03*
D19*
X131191000Y-97155000D03*
X135891000Y-97155000D03*
X126491000Y-97155000D03*
X69723000Y-97155000D03*
X74423000Y-97155000D03*
X65023000Y-97155000D03*
X100203000Y-97155000D03*
X104903000Y-97155000D03*
X95503000Y-97155000D03*
D11*
X72183000Y-78359000D03*
X69683000Y-78359000D03*
X67183000Y-78359000D03*
D12*
X74083000Y-85359000D03*
X65283000Y-85359000D03*
D20*
X67945000Y-133497000D03*
X67945000Y-135997000D03*
D14*
X60579000Y-101219000D03*
D15*
X60579000Y-98679000D03*
X60579000Y-96139000D03*
X60579000Y-93599000D03*
D14*
X60325000Y-163449000D03*
D15*
X60325000Y-160909000D03*
X60325000Y-158369000D03*
X60325000Y-155829000D03*
M02*
