G04 #@! TF.FileFunction,Soldermask,Top*
%FSLAX46Y46*%
G04 Gerber Fmt 4.6, Leading zero omitted, Abs format (unit mm)*
G04 Created by KiCad (PCBNEW 4.0.7) date Sunday, 08 April 2018 'PMt' 12:22:29*
%MOMM*%
%LPD*%
G01*
G04 APERTURE LIST*
%ADD10C,0.100000*%
%ADD11R,3.000000X2.000000*%
%ADD12R,1.900000X1.650000*%
%ADD13R,1.650000X1.900000*%
%ADD14C,2.200000*%
%ADD15C,4.400000*%
%ADD16R,1.500000X1.500000*%
%ADD17R,2.200000X2.200000*%
%ADD18R,2.100000X2.100000*%
%ADD19O,2.100000X2.100000*%
%ADD20O,5.400000X4.400000*%
%ADD21R,3.900000X3.900000*%
%ADD22R,1.900000X1.700000*%
%ADD23R,1.700000X1.900000*%
%ADD24O,3.900000X3.400000*%
%ADD25O,3.400000X4.400000*%
%ADD26R,1.543000X0.908000*%
%ADD27R,0.908000X1.543000*%
%ADD28R,2.000000X3.000000*%
G04 APERTURE END LIST*
D10*
D11*
X83715000Y-173609000D03*
X80115000Y-173609000D03*
X79778000Y-111442500D03*
X76178000Y-111442500D03*
X80115000Y-179959000D03*
X83715000Y-179959000D03*
X87906000Y-111442500D03*
X84306000Y-111442500D03*
D12*
X108545000Y-146177000D03*
X106045000Y-146177000D03*
D13*
X100965000Y-197719000D03*
X100965000Y-195219000D03*
X127127000Y-123210000D03*
X127127000Y-125710000D03*
X130937000Y-123210000D03*
X130937000Y-125710000D03*
D12*
X108565000Y-124460000D03*
X106065000Y-124460000D03*
D13*
X96520000Y-111780000D03*
X96520000Y-114280000D03*
D12*
X106065000Y-131445000D03*
X108565000Y-131445000D03*
D14*
X102155000Y-56515000D03*
X99655000Y-56515000D03*
X97155000Y-56515000D03*
D15*
X104055000Y-63515000D03*
X95255000Y-63515000D03*
D16*
X64392000Y-185293000D03*
X61592000Y-185293000D03*
D17*
X88900000Y-102235000D03*
D14*
X86360000Y-102235000D03*
X130095000Y-56515000D03*
X127595000Y-56515000D03*
X125095000Y-56515000D03*
D15*
X131995000Y-63515000D03*
X123195000Y-63515000D03*
D14*
X102150000Y-76820000D03*
X99650000Y-76820000D03*
X97150000Y-76820000D03*
D15*
X104050000Y-83820000D03*
X95250000Y-83820000D03*
D18*
X60960000Y-57277000D03*
D19*
X60960000Y-59817000D03*
X60960000Y-62357000D03*
X60960000Y-64897000D03*
D18*
X137160000Y-88773000D03*
D19*
X137160000Y-91313000D03*
X137160000Y-93853000D03*
X137160000Y-96393000D03*
X137160000Y-98933000D03*
X137160000Y-101473000D03*
D18*
X60960000Y-75057000D03*
D19*
X60960000Y-77597000D03*
X60960000Y-80137000D03*
X60960000Y-82677000D03*
D18*
X137160000Y-64897000D03*
D19*
X137160000Y-62357000D03*
X137160000Y-59817000D03*
X137160000Y-57277000D03*
D18*
X137160000Y-71120000D03*
D19*
X137160000Y-73660000D03*
X137160000Y-76200000D03*
X137160000Y-78740000D03*
X137160000Y-81280000D03*
X137160000Y-83820000D03*
D20*
X123865500Y-185736500D03*
X123865500Y-169736500D03*
X136865500Y-169736500D03*
X136842500Y-185736500D03*
X123865500Y-206755000D03*
X123865500Y-190755000D03*
X136865500Y-190755000D03*
X136842500Y-206755000D03*
D18*
X60960000Y-120777000D03*
D19*
X60960000Y-123317000D03*
X60960000Y-125857000D03*
X60960000Y-128397000D03*
D18*
X137160000Y-134556500D03*
D19*
X137160000Y-137096500D03*
X137160000Y-139636500D03*
X137160000Y-142176500D03*
X137160000Y-144716500D03*
X137160000Y-147256500D03*
D18*
X60960000Y-138557000D03*
D19*
X60960000Y-141097000D03*
X60960000Y-143637000D03*
X60960000Y-146177000D03*
D18*
X137160000Y-128333500D03*
D19*
X137160000Y-125793500D03*
X137160000Y-123253500D03*
X137160000Y-120713500D03*
D18*
X137160000Y-152209500D03*
D19*
X137160000Y-154749500D03*
X137160000Y-157289500D03*
X137160000Y-159829500D03*
X137160000Y-162369500D03*
X137160000Y-164909500D03*
D20*
X74826000Y-190755000D03*
X74826000Y-206755000D03*
X61826000Y-206755000D03*
X61849000Y-190755000D03*
D21*
X67945000Y-172974000D03*
X61945000Y-172974000D03*
X64945000Y-177674000D03*
D14*
X130090000Y-76820000D03*
X127590000Y-76820000D03*
X125090000Y-76820000D03*
D15*
X131990000Y-83820000D03*
X123190000Y-83820000D03*
D22*
X94187000Y-180594000D03*
X91487000Y-180594000D03*
D23*
X84201000Y-199945000D03*
X84201000Y-202645000D03*
X87503000Y-199945000D03*
X87503000Y-202645000D03*
D22*
X98378000Y-138430000D03*
X95678000Y-138430000D03*
X105965000Y-160020000D03*
X108665000Y-160020000D03*
X108665000Y-163830000D03*
X105965000Y-163830000D03*
X105965000Y-156210000D03*
X108665000Y-156210000D03*
D14*
X74215000Y-56515000D03*
X71715000Y-56515000D03*
X69215000Y-56515000D03*
D15*
X76115000Y-63515000D03*
X67315000Y-63515000D03*
D24*
X105068000Y-212943500D03*
X99568000Y-212943500D03*
X94068000Y-212943500D03*
X105068000Y-208343500D03*
X99568000Y-208343500D03*
X94068000Y-208343500D03*
X105068000Y-203743500D03*
X99568000Y-203743500D03*
X94068000Y-203743500D03*
D25*
X127635000Y-99695000D03*
X132335000Y-99695000D03*
X122935000Y-99695000D03*
X71755000Y-99695000D03*
X76455000Y-99695000D03*
X67055000Y-99695000D03*
X99695000Y-99695000D03*
X104395000Y-99695000D03*
X94995000Y-99695000D03*
D14*
X74210000Y-77089000D03*
X71710000Y-77089000D03*
X69210000Y-77089000D03*
D15*
X76110000Y-84089000D03*
X67310000Y-84089000D03*
D26*
X73660000Y-180594000D03*
X73660000Y-181864000D03*
X73660000Y-183134000D03*
X73660000Y-184404000D03*
X67310000Y-184404000D03*
X67310000Y-183134000D03*
X67310000Y-181864000D03*
X67310000Y-180594000D03*
X75565000Y-121158000D03*
X75565000Y-119888000D03*
X75565000Y-118618000D03*
X75565000Y-117348000D03*
X81915000Y-117348000D03*
X81915000Y-118618000D03*
X81915000Y-119888000D03*
X81915000Y-121158000D03*
D27*
X93789500Y-120967500D03*
X96329500Y-120967500D03*
X97599500Y-120967500D03*
X98869500Y-120967500D03*
X100139500Y-120967500D03*
X101409500Y-120967500D03*
X102679500Y-120967500D03*
X102679500Y-127317500D03*
X101409500Y-127317500D03*
X100139500Y-127317500D03*
X98869500Y-127317500D03*
X97599500Y-127317500D03*
X96329500Y-127317500D03*
X95059500Y-127317500D03*
X93789500Y-127317500D03*
X95059500Y-120967500D03*
D12*
X71140000Y-178816000D03*
X73640000Y-178816000D03*
D18*
X60960000Y-99949000D03*
D19*
X60960000Y-97409000D03*
X60960000Y-94869000D03*
X60960000Y-92329000D03*
D18*
X60960000Y-163449000D03*
D19*
X60960000Y-160909000D03*
X60960000Y-158369000D03*
X60960000Y-155829000D03*
D22*
X83265000Y-100965000D03*
X80565000Y-100965000D03*
D28*
X92837000Y-172698000D03*
X92837000Y-176298000D03*
D12*
X108545000Y-138303000D03*
X106045000Y-138303000D03*
D22*
X108665000Y-151765000D03*
X105965000Y-151765000D03*
X105965000Y-142240000D03*
X108665000Y-142240000D03*
D23*
X107950000Y-111680000D03*
X107950000Y-114380000D03*
D27*
X103505000Y-185928000D03*
X102235000Y-185928000D03*
X100965000Y-185928000D03*
X99695000Y-185928000D03*
X98425000Y-185928000D03*
X97155000Y-185928000D03*
X95885000Y-185928000D03*
X95885000Y-192278000D03*
X97155000Y-192278000D03*
X99695000Y-192278000D03*
X100965000Y-192278000D03*
X102235000Y-192278000D03*
X103505000Y-192278000D03*
X98425000Y-192278000D03*
X93853000Y-148844000D03*
X95123000Y-148844000D03*
X96393000Y-148844000D03*
X97663000Y-148844000D03*
X98933000Y-148844000D03*
X100203000Y-148844000D03*
X101473000Y-148844000D03*
X101473000Y-142494000D03*
X100203000Y-142494000D03*
X97663000Y-142494000D03*
X96393000Y-142494000D03*
X95123000Y-142494000D03*
X93853000Y-142494000D03*
X98933000Y-142494000D03*
M02*
