G04 #@! TF.FileFunction,Legend,Bot*
%FSLAX46Y46*%
G04 Gerber Fmt 4.6, Leading zero omitted, Abs format (unit mm)*
G04 Created by KiCad (PCBNEW 4.0.7) date Sunday, 08 April 2018 'PMt' 12:22:29*
%MOMM*%
%LPD*%
G01*
G04 APERTURE LIST*
%ADD10C,0.100000*%
%ADD11C,0.120000*%
%ADD12C,0.015000*%
G04 APERTURE END LIST*
D10*
D11*
X97798000Y-187364000D02*
X98798000Y-187364000D01*
X98798000Y-189064000D02*
X97798000Y-189064000D01*
X97798000Y-189142000D02*
X98798000Y-189142000D01*
X98798000Y-190842000D02*
X97798000Y-190842000D01*
X95893000Y-145708000D02*
X96893000Y-145708000D01*
X96893000Y-147408000D02*
X95893000Y-147408000D01*
X95893000Y-143930000D02*
X96893000Y-143930000D01*
X96893000Y-145630000D02*
X95893000Y-145630000D01*
X89955000Y-122737500D02*
X89955000Y-121737500D01*
X91655000Y-121737500D02*
X91655000Y-122737500D01*
X76271500Y-123102000D02*
X77271500Y-123102000D01*
X77271500Y-124802000D02*
X76271500Y-124802000D01*
D12*
X98115285Y-191821571D02*
X98139095Y-191845381D01*
X98210523Y-191869190D01*
X98258142Y-191869190D01*
X98329571Y-191845381D01*
X98377190Y-191797762D01*
X98400999Y-191750143D01*
X98424809Y-191654905D01*
X98424809Y-191583476D01*
X98400999Y-191488238D01*
X98377190Y-191440619D01*
X98329571Y-191393000D01*
X98258142Y-191369190D01*
X98210523Y-191369190D01*
X98139095Y-191393000D01*
X98115285Y-191416810D01*
X98020047Y-191916810D02*
X97639095Y-191916810D01*
X97424809Y-191369190D02*
X97329571Y-191369190D01*
X97281952Y-191393000D01*
X97234333Y-191440619D01*
X97210524Y-191535857D01*
X97210524Y-191702524D01*
X97234333Y-191797762D01*
X97281952Y-191845381D01*
X97329571Y-191869190D01*
X97424809Y-191869190D01*
X97472428Y-191845381D01*
X97520047Y-191797762D01*
X97543857Y-191702524D01*
X97543857Y-191535857D01*
X97520047Y-191440619D01*
X97472428Y-191393000D01*
X97424809Y-191369190D01*
X97020047Y-191726333D02*
X96781952Y-191726333D01*
X97067666Y-191869190D02*
X96900999Y-191369190D01*
X96734333Y-191869190D01*
X96401000Y-191607286D02*
X96329571Y-191631095D01*
X96305762Y-191654905D01*
X96281952Y-191702524D01*
X96281952Y-191773952D01*
X96305762Y-191821571D01*
X96329571Y-191845381D01*
X96377190Y-191869190D01*
X96567666Y-191869190D01*
X96567666Y-191369190D01*
X96401000Y-191369190D01*
X96353381Y-191393000D01*
X96329571Y-191416810D01*
X96305762Y-191464429D01*
X96305762Y-191512048D01*
X96329571Y-191559667D01*
X96353381Y-191583476D01*
X96401000Y-191607286D01*
X96567666Y-191607286D01*
X95972428Y-191631095D02*
X95972428Y-191869190D01*
X96139095Y-191369190D02*
X95972428Y-191631095D01*
X95805762Y-191369190D01*
X95377191Y-191869190D02*
X95662905Y-191869190D01*
X95520048Y-191869190D02*
X95520048Y-191369190D01*
X95567667Y-191440619D01*
X95615286Y-191488238D01*
X95662905Y-191512048D01*
X98242285Y-186741571D02*
X98266095Y-186765381D01*
X98337523Y-186789190D01*
X98385142Y-186789190D01*
X98456571Y-186765381D01*
X98504190Y-186717762D01*
X98527999Y-186670143D01*
X98551809Y-186574905D01*
X98551809Y-186503476D01*
X98527999Y-186408238D01*
X98504190Y-186360619D01*
X98456571Y-186313000D01*
X98385142Y-186289190D01*
X98337523Y-186289190D01*
X98266095Y-186313000D01*
X98242285Y-186336810D01*
X98147047Y-186836810D02*
X97766095Y-186836810D01*
X97551809Y-186289190D02*
X97456571Y-186289190D01*
X97408952Y-186313000D01*
X97361333Y-186360619D01*
X97337524Y-186455857D01*
X97337524Y-186622524D01*
X97361333Y-186717762D01*
X97408952Y-186765381D01*
X97456571Y-186789190D01*
X97551809Y-186789190D01*
X97599428Y-186765381D01*
X97647047Y-186717762D01*
X97670857Y-186622524D01*
X97670857Y-186455857D01*
X97647047Y-186360619D01*
X97599428Y-186313000D01*
X97551809Y-186289190D01*
X97147047Y-186646333D02*
X96908952Y-186646333D01*
X97194666Y-186789190D02*
X97027999Y-186289190D01*
X96861333Y-186789190D01*
X96528000Y-186527286D02*
X96456571Y-186551095D01*
X96432762Y-186574905D01*
X96408952Y-186622524D01*
X96408952Y-186693952D01*
X96432762Y-186741571D01*
X96456571Y-186765381D01*
X96504190Y-186789190D01*
X96694666Y-186789190D01*
X96694666Y-186289190D01*
X96528000Y-186289190D01*
X96480381Y-186313000D01*
X96456571Y-186336810D01*
X96432762Y-186384429D01*
X96432762Y-186432048D01*
X96456571Y-186479667D01*
X96480381Y-186503476D01*
X96528000Y-186527286D01*
X96694666Y-186527286D01*
X96099428Y-186551095D02*
X96099428Y-186789190D01*
X96266095Y-186289190D02*
X96099428Y-186551095D01*
X95932762Y-186289190D01*
X95789905Y-186336810D02*
X95766095Y-186313000D01*
X95718476Y-186289190D01*
X95599429Y-186289190D01*
X95551810Y-186313000D01*
X95528000Y-186336810D01*
X95504191Y-186384429D01*
X95504191Y-186432048D01*
X95528000Y-186503476D01*
X95813714Y-186789190D01*
X95504191Y-186789190D01*
X96210285Y-143307571D02*
X96234095Y-143331381D01*
X96305523Y-143355190D01*
X96353142Y-143355190D01*
X96424571Y-143331381D01*
X96472190Y-143283762D01*
X96495999Y-143236143D01*
X96519809Y-143140905D01*
X96519809Y-143069476D01*
X96495999Y-142974238D01*
X96472190Y-142926619D01*
X96424571Y-142879000D01*
X96353142Y-142855190D01*
X96305523Y-142855190D01*
X96234095Y-142879000D01*
X96210285Y-142902810D01*
X96115047Y-143402810D02*
X95734095Y-143402810D01*
X95519809Y-142855190D02*
X95424571Y-142855190D01*
X95376952Y-142879000D01*
X95329333Y-142926619D01*
X95305524Y-143021857D01*
X95305524Y-143188524D01*
X95329333Y-143283762D01*
X95376952Y-143331381D01*
X95424571Y-143355190D01*
X95519809Y-143355190D01*
X95567428Y-143331381D01*
X95615047Y-143283762D01*
X95638857Y-143188524D01*
X95638857Y-143021857D01*
X95615047Y-142926619D01*
X95567428Y-142879000D01*
X95519809Y-142855190D01*
X95115047Y-143212333D02*
X94876952Y-143212333D01*
X95162666Y-143355190D02*
X94995999Y-142855190D01*
X94829333Y-143355190D01*
X94496000Y-143093286D02*
X94424571Y-143117095D01*
X94400762Y-143140905D01*
X94376952Y-143188524D01*
X94376952Y-143259952D01*
X94400762Y-143307571D01*
X94424571Y-143331381D01*
X94472190Y-143355190D01*
X94662666Y-143355190D01*
X94662666Y-142855190D01*
X94496000Y-142855190D01*
X94448381Y-142879000D01*
X94424571Y-142902810D01*
X94400762Y-142950429D01*
X94400762Y-142998048D01*
X94424571Y-143045667D01*
X94448381Y-143069476D01*
X94496000Y-143093286D01*
X94662666Y-143093286D01*
X94067428Y-143117095D02*
X94067428Y-143355190D01*
X94234095Y-142855190D02*
X94067428Y-143117095D01*
X93900762Y-142855190D01*
X93781714Y-142855190D02*
X93472191Y-142855190D01*
X93638857Y-143045667D01*
X93567429Y-143045667D01*
X93519810Y-143069476D01*
X93496000Y-143093286D01*
X93472191Y-143140905D01*
X93472191Y-143259952D01*
X93496000Y-143307571D01*
X93519810Y-143331381D01*
X93567429Y-143355190D01*
X93710286Y-143355190D01*
X93757905Y-143331381D01*
X93781714Y-143307571D01*
X96210285Y-148387571D02*
X96234095Y-148411381D01*
X96305523Y-148435190D01*
X96353142Y-148435190D01*
X96424571Y-148411381D01*
X96472190Y-148363762D01*
X96495999Y-148316143D01*
X96519809Y-148220905D01*
X96519809Y-148149476D01*
X96495999Y-148054238D01*
X96472190Y-148006619D01*
X96424571Y-147959000D01*
X96353142Y-147935190D01*
X96305523Y-147935190D01*
X96234095Y-147959000D01*
X96210285Y-147982810D01*
X96115047Y-148482810D02*
X95734095Y-148482810D01*
X95519809Y-147935190D02*
X95424571Y-147935190D01*
X95376952Y-147959000D01*
X95329333Y-148006619D01*
X95305524Y-148101857D01*
X95305524Y-148268524D01*
X95329333Y-148363762D01*
X95376952Y-148411381D01*
X95424571Y-148435190D01*
X95519809Y-148435190D01*
X95567428Y-148411381D01*
X95615047Y-148363762D01*
X95638857Y-148268524D01*
X95638857Y-148101857D01*
X95615047Y-148006619D01*
X95567428Y-147959000D01*
X95519809Y-147935190D01*
X95115047Y-148292333D02*
X94876952Y-148292333D01*
X95162666Y-148435190D02*
X94995999Y-147935190D01*
X94829333Y-148435190D01*
X94496000Y-148173286D02*
X94424571Y-148197095D01*
X94400762Y-148220905D01*
X94376952Y-148268524D01*
X94376952Y-148339952D01*
X94400762Y-148387571D01*
X94424571Y-148411381D01*
X94472190Y-148435190D01*
X94662666Y-148435190D01*
X94662666Y-147935190D01*
X94496000Y-147935190D01*
X94448381Y-147959000D01*
X94424571Y-147982810D01*
X94400762Y-148030429D01*
X94400762Y-148078048D01*
X94424571Y-148125667D01*
X94448381Y-148149476D01*
X94496000Y-148173286D01*
X94662666Y-148173286D01*
X94067428Y-148197095D02*
X94067428Y-148435190D01*
X94234095Y-147935190D02*
X94067428Y-148197095D01*
X93900762Y-147935190D01*
X93519810Y-148101857D02*
X93519810Y-148435190D01*
X93638857Y-147911381D02*
X93757905Y-148268524D01*
X93448381Y-148268524D01*
X89233571Y-122372620D02*
X89257381Y-122348810D01*
X89281190Y-122277382D01*
X89281190Y-122229763D01*
X89257381Y-122158334D01*
X89209762Y-122110715D01*
X89162143Y-122086906D01*
X89066905Y-122063096D01*
X88995476Y-122063096D01*
X88900238Y-122086906D01*
X88852619Y-122110715D01*
X88805000Y-122158334D01*
X88781190Y-122229763D01*
X88781190Y-122277382D01*
X88805000Y-122348810D01*
X88828810Y-122372620D01*
X89328810Y-122467858D02*
X89328810Y-122848810D01*
X88781190Y-123063096D02*
X88781190Y-123158334D01*
X88805000Y-123205953D01*
X88852619Y-123253572D01*
X88947857Y-123277381D01*
X89114524Y-123277381D01*
X89209762Y-123253572D01*
X89257381Y-123205953D01*
X89281190Y-123158334D01*
X89281190Y-123063096D01*
X89257381Y-123015477D01*
X89209762Y-122967858D01*
X89114524Y-122944048D01*
X88947857Y-122944048D01*
X88852619Y-122967858D01*
X88805000Y-123015477D01*
X88781190Y-123063096D01*
X89138333Y-123467858D02*
X89138333Y-123705953D01*
X89281190Y-123420239D02*
X88781190Y-123586906D01*
X89281190Y-123753572D01*
X89019286Y-124086905D02*
X89043095Y-124158334D01*
X89066905Y-124182143D01*
X89114524Y-124205953D01*
X89185952Y-124205953D01*
X89233571Y-124182143D01*
X89257381Y-124158334D01*
X89281190Y-124110715D01*
X89281190Y-123920239D01*
X88781190Y-123920239D01*
X88781190Y-124086905D01*
X88805000Y-124134524D01*
X88828810Y-124158334D01*
X88876429Y-124182143D01*
X88924048Y-124182143D01*
X88971667Y-124158334D01*
X88995476Y-124134524D01*
X89019286Y-124086905D01*
X89019286Y-123920239D01*
X89043095Y-124515477D02*
X89281190Y-124515477D01*
X88781190Y-124348810D02*
X89043095Y-124515477D01*
X88781190Y-124682143D01*
X89281190Y-125110714D02*
X89281190Y-124825000D01*
X89281190Y-124967857D02*
X88781190Y-124967857D01*
X88852619Y-124920238D01*
X88900238Y-124872619D01*
X88924048Y-124825000D01*
X88781190Y-125277381D02*
X88781190Y-125586904D01*
X88971667Y-125420238D01*
X88971667Y-125491666D01*
X88995476Y-125539285D01*
X89019286Y-125563095D01*
X89066905Y-125586904D01*
X89185952Y-125586904D01*
X89233571Y-125563095D01*
X89257381Y-125539285D01*
X89281190Y-125491666D01*
X89281190Y-125348809D01*
X89257381Y-125301190D01*
X89233571Y-125277381D01*
X78295309Y-125908571D02*
X78319119Y-125932381D01*
X78390547Y-125956190D01*
X78438166Y-125956190D01*
X78509595Y-125932381D01*
X78557214Y-125884762D01*
X78581023Y-125837143D01*
X78604833Y-125741905D01*
X78604833Y-125670476D01*
X78581023Y-125575238D01*
X78557214Y-125527619D01*
X78509595Y-125480000D01*
X78438166Y-125456190D01*
X78390547Y-125456190D01*
X78319119Y-125480000D01*
X78295309Y-125503810D01*
X78200071Y-126003810D02*
X77819119Y-126003810D01*
X77700071Y-125956190D02*
X77700071Y-125456190D01*
X77509595Y-125456190D01*
X77461976Y-125480000D01*
X77438167Y-125503810D01*
X77414357Y-125551429D01*
X77414357Y-125622857D01*
X77438167Y-125670476D01*
X77461976Y-125694286D01*
X77509595Y-125718095D01*
X77700071Y-125718095D01*
X77247690Y-125456190D02*
X77128643Y-125956190D01*
X77033405Y-125599048D01*
X76938167Y-125956190D01*
X76819119Y-125456190D01*
X76342928Y-125956190D02*
X76509595Y-125718095D01*
X76628642Y-125956190D02*
X76628642Y-125456190D01*
X76438166Y-125456190D01*
X76390547Y-125480000D01*
X76366738Y-125503810D01*
X76342928Y-125551429D01*
X76342928Y-125622857D01*
X76366738Y-125670476D01*
X76390547Y-125694286D01*
X76438166Y-125718095D01*
X76628642Y-125718095D01*
X75961976Y-125694286D02*
X75890547Y-125718095D01*
X75866738Y-125741905D01*
X75842928Y-125789524D01*
X75842928Y-125860952D01*
X75866738Y-125908571D01*
X75890547Y-125932381D01*
X75938166Y-125956190D01*
X76128642Y-125956190D01*
X76128642Y-125456190D01*
X75961976Y-125456190D01*
X75914357Y-125480000D01*
X75890547Y-125503810D01*
X75866738Y-125551429D01*
X75866738Y-125599048D01*
X75890547Y-125646667D01*
X75914357Y-125670476D01*
X75961976Y-125694286D01*
X76128642Y-125694286D01*
X75533404Y-125718095D02*
X75533404Y-125956190D01*
X75700071Y-125456190D02*
X75533404Y-125718095D01*
X75366738Y-125456190D01*
X75247690Y-125456190D02*
X74938167Y-125456190D01*
X75104833Y-125646667D01*
X75033405Y-125646667D01*
X74985786Y-125670476D01*
X74961976Y-125694286D01*
X74938167Y-125741905D01*
X74938167Y-125860952D01*
X74961976Y-125908571D01*
X74985786Y-125932381D01*
X75033405Y-125956190D01*
X75176262Y-125956190D01*
X75223881Y-125932381D01*
X75247690Y-125908571D01*
M02*
