M48
;DRILL file {KiCad 4.0.7} date 04/07/18 17:46:40
;FORMAT={-:-/ absolute / metric / decimal}
FMAT,2
METRIC,TZ
T1C0.400
T2C0.900
T3C1.000
T4C1.500
T5C2.000
T6C2.000
%
G90
G05
M71
T1
X64.516Y-138.938
X64.516Y-140.462
X65.786Y-138.938
X65.786Y-140.462
X66.294Y-183.134
X69.723Y-127.508
X69.723Y-136.017
X69.977Y-178.816
X73.787Y-117.094
X74.041Y-138.303
X74.041Y-139.573
X77.597Y-127.889
X78.613Y-138.938
X79.121Y-118.618
X79.883Y-138.938
X80.772Y-160.147
X81.661Y-193.421
X83.693Y-157.226
X83.82Y-191.262
X86.042Y-192.595
X86.106Y-173.609
X86.233Y-167.259
X86.868Y-128.143
X88.011Y-154.178
X88.646Y-127.
X92.075Y-133.223
X92.456Y-130.81
X92.837Y-183.769
X93.853Y-192.913
X94.361Y-138.557
X95.631Y-143.256
X95.822Y-199.453
X97.98Y-199.453
X103.505Y-183.007
X104.521Y-133.604
X105.41Y-114.363
X106.045Y-195.834
X107.569Y-185.801
X107.569Y-187.452
X109.347Y-139.954
X110.998Y-130.556
X110.998Y-132.207
X112.204Y-171.45
X112.649Y-169.418
X113.665Y-196.469
X114.363Y-189.992
X115.062Y-196.469
X120.015Y-180.594
X120.015Y-183.896
X120.142Y-161.544
X120.269Y-139.954
X122.047Y-150.749
X129.159Y-145.415
X129.159Y-148.082
X131.572Y-128.143
X131.572Y-134.493
T2
X99.187Y-102.489
X101.727Y-102.489
T3
X60.96Y-57.277
X60.96Y-59.817
X60.96Y-62.357
X60.96Y-64.897
X60.96Y-75.057
X60.96Y-77.597
X60.96Y-80.137
X60.96Y-82.677
X60.96Y-92.329
X60.96Y-94.869
X60.96Y-97.409
X60.96Y-99.949
X60.96Y-120.777
X60.96Y-123.317
X60.96Y-125.857
X60.96Y-128.397
X60.96Y-138.557
X60.96Y-141.097
X60.96Y-143.637
X60.96Y-146.177
X60.96Y-155.829
X60.96Y-158.369
X60.96Y-160.909
X60.96Y-163.449
X69.21Y-55.753
X69.21Y-77.089
X71.71Y-55.753
X71.71Y-77.089
X74.21Y-55.753
X74.21Y-77.089
X97.15Y-55.753
X97.15Y-76.82
X99.65Y-55.753
X99.65Y-76.82
X102.15Y-55.753
X102.15Y-76.82
X125.09Y-55.753
X125.09Y-76.82
X127.59Y-55.753
X127.59Y-76.82
X130.09Y-55.753
X130.09Y-76.82
X137.16Y-57.277
X137.16Y-59.817
X137.16Y-62.357
X137.16Y-64.897
X137.16Y-71.12
X137.16Y-73.66
X137.16Y-76.2
X137.16Y-78.74
X137.16Y-81.28
X137.16Y-83.82
X137.16Y-88.773
X137.16Y-91.313
X137.16Y-93.853
X137.16Y-96.393
X137.16Y-98.933
X137.16Y-101.473
X137.16Y-120.713
X137.16Y-123.253
X137.16Y-125.793
X137.16Y-128.333
X137.16Y-134.556
X137.16Y-137.096
X137.16Y-139.636
X137.16Y-142.177
X137.16Y-144.716
X137.16Y-147.256
X137.16Y-152.209
X137.16Y-154.749
X137.16Y-157.29
X137.16Y-159.829
X137.16Y-162.369
X137.16Y-164.909
T4
X94.068Y-203.743
X94.068Y-208.343
X94.068Y-212.944
X99.568Y-203.743
X99.568Y-208.343
X99.568Y-212.944
X105.068Y-203.743
X105.068Y-208.343
X105.068Y-212.944
T5
X61.826Y-206.755
X61.849Y-190.755
X74.826Y-190.755
X74.826Y-206.755
X123.865Y-169.736
X123.865Y-185.736
X123.865Y-190.755
X123.865Y-206.755
X136.843Y-185.736
X136.843Y-206.755
X136.865Y-169.736
X136.865Y-190.755
T6
X67.31Y-62.753
X67.31Y-84.089
X76.11Y-62.753
X76.11Y-84.089
X95.25Y-62.753
X95.25Y-83.82
X104.05Y-62.753
X104.05Y-83.82
X123.19Y-62.753
X123.19Y-83.82
X131.99Y-62.753
X131.99Y-83.82
T3
X61.945Y-171.974G85X61.945Y-173.974
G05
X63.945Y-177.674G85X65.945Y-177.674
G05
X66.42Y-95.385G85X66.42Y-96.385
G05
X67.945Y-171.974G85X67.945Y-173.974
G05
X71.12Y-95.385G85X71.12Y-96.385
G05
X75.82Y-95.385G85X75.82Y-96.385
G05
X95.503Y-95.385G85X95.503Y-96.385
G05
X100.203Y-95.385G85X100.203Y-96.385
G05
X104.903Y-95.385G85X104.903Y-96.385
G05
X122.68Y-95.385G85X122.68Y-96.385
G05
X127.38Y-95.385G85X127.38Y-96.385
G05
X132.08Y-95.385G85X132.08Y-96.385
G05
T0
M30
