G04 #@! TF.FileFunction,Copper,L1,Top,Signal*
%FSLAX46Y46*%
G04 Gerber Fmt 4.6, Leading zero omitted, Abs format (unit mm)*
G04 Created by KiCad (PCBNEW 4.0.7) date 04/04/18 08:51:17*
%MOMM*%
%LPD*%
G01*
G04 APERTURE LIST*
%ADD10C,0.100000*%
%ADD11R,2.600000X1.600000*%
%ADD12R,1.600000X2.600000*%
%ADD13R,1.250000X1.500000*%
%ADD14R,1.500000X1.250000*%
%ADD15C,1.800000*%
%ADD16C,4.000000*%
%ADD17R,1.100000X1.100000*%
%ADD18R,1.800000X1.800000*%
%ADD19R,1.700000X1.700000*%
%ADD20O,1.700000X1.700000*%
%ADD21O,5.000000X4.000000*%
%ADD22R,3.500000X3.500000*%
%ADD23R,1.500000X1.300000*%
%ADD24R,1.300000X1.500000*%
%ADD25O,3.500000X3.000000*%
%ADD26O,3.000000X4.000000*%
%ADD27R,1.143000X0.508000*%
%ADD28R,0.508000X1.143000*%
%ADD29C,0.600000*%
%ADD30C,0.250000*%
%ADD31C,0.500000*%
%ADD32C,0.750000*%
G04 APERTURE END LIST*
D10*
D11*
X83715000Y-173609000D03*
X80115000Y-173609000D03*
X79905000Y-113538000D03*
X76305000Y-113538000D03*
X80115000Y-179959000D03*
X83715000Y-179959000D03*
D12*
X85725000Y-122069000D03*
X85725000Y-118469000D03*
D13*
X120269000Y-172319000D03*
X120269000Y-169819000D03*
X115570000Y-194163000D03*
X115570000Y-191663000D03*
D14*
X110637000Y-112395000D03*
X113137000Y-112395000D03*
X108097000Y-115697000D03*
X110597000Y-115697000D03*
X108057000Y-112395000D03*
X105557000Y-112395000D03*
X103017000Y-115697000D03*
X105517000Y-115697000D03*
D13*
X79248000Y-132608000D03*
X79248000Y-135108000D03*
X97155000Y-141712000D03*
X97155000Y-139212000D03*
D15*
X133651000Y-57023000D03*
X131151000Y-57023000D03*
X128651000Y-57023000D03*
D16*
X135551000Y-64023000D03*
X126751000Y-64023000D03*
D17*
X61595000Y-182629000D03*
X61595000Y-179829000D03*
D18*
X101727000Y-103759000D03*
D15*
X99187000Y-103759000D03*
X72183000Y-57023000D03*
X69683000Y-57023000D03*
X67183000Y-57023000D03*
D16*
X74083000Y-64023000D03*
X65283000Y-64023000D03*
D15*
X102663000Y-78359000D03*
X100163000Y-78359000D03*
X97663000Y-78359000D03*
D16*
X104563000Y-85359000D03*
X95763000Y-85359000D03*
D19*
X60579000Y-58547000D03*
D20*
X60579000Y-61087000D03*
X60579000Y-63627000D03*
X60579000Y-66167000D03*
D19*
X140335000Y-90043000D03*
D20*
X140335000Y-92583000D03*
X140335000Y-95123000D03*
X140335000Y-97663000D03*
X140335000Y-100203000D03*
X140335000Y-102743000D03*
D19*
X60579000Y-76327000D03*
D20*
X60579000Y-78867000D03*
X60579000Y-81407000D03*
X60579000Y-83947000D03*
D19*
X140335000Y-66167000D03*
D20*
X140335000Y-63627000D03*
X140335000Y-61087000D03*
X140335000Y-58547000D03*
D19*
X140335000Y-72263000D03*
D20*
X140335000Y-74803000D03*
X140335000Y-77343000D03*
X140335000Y-79883000D03*
X140335000Y-82423000D03*
X140335000Y-84963000D03*
D21*
X125707000Y-185673000D03*
X125707000Y-169673000D03*
X138707000Y-169673000D03*
X138684000Y-185673000D03*
X125707000Y-206755000D03*
X125707000Y-190755000D03*
X138707000Y-190755000D03*
X138684000Y-206755000D03*
D19*
X60325000Y-120777000D03*
D20*
X60325000Y-123317000D03*
X60325000Y-125857000D03*
X60325000Y-128397000D03*
D19*
X140081000Y-134493000D03*
D20*
X140081000Y-137033000D03*
X140081000Y-139573000D03*
X140081000Y-142113000D03*
X140081000Y-144653000D03*
X140081000Y-147193000D03*
D19*
X60325000Y-138557000D03*
D20*
X60325000Y-141097000D03*
X60325000Y-143637000D03*
X60325000Y-146177000D03*
D19*
X140081000Y-128397000D03*
D20*
X140081000Y-125857000D03*
X140081000Y-123317000D03*
X140081000Y-120777000D03*
D19*
X140081000Y-152273000D03*
D20*
X140081000Y-154813000D03*
X140081000Y-157353000D03*
X140081000Y-159893000D03*
X140081000Y-162433000D03*
X140081000Y-164973000D03*
D21*
X74826000Y-190755000D03*
X74826000Y-206755000D03*
X61826000Y-206755000D03*
X61849000Y-190755000D03*
D22*
X68199000Y-170815000D03*
X62199000Y-170815000D03*
X65199000Y-175515000D03*
D15*
X133651000Y-78359000D03*
X131151000Y-78359000D03*
X128651000Y-78359000D03*
D16*
X135551000Y-85359000D03*
X126751000Y-85359000D03*
D23*
X111045000Y-174625000D03*
X113745000Y-174625000D03*
D24*
X94615000Y-187499000D03*
X94615000Y-190199000D03*
D23*
X86026000Y-194183000D03*
X88726000Y-194183000D03*
D24*
X67945000Y-127555000D03*
X67945000Y-130255000D03*
D23*
X124126000Y-150114000D03*
X126826000Y-150114000D03*
X105236000Y-180975000D03*
X102536000Y-180975000D03*
X108665000Y-131318000D03*
X105965000Y-131318000D03*
D15*
X102531000Y-57023000D03*
X100031000Y-57023000D03*
X97531000Y-57023000D03*
D16*
X104431000Y-64023000D03*
X95631000Y-64023000D03*
D25*
X104941000Y-213388000D03*
X99441000Y-213388000D03*
X93941000Y-213388000D03*
X104941000Y-208788000D03*
X99441000Y-208788000D03*
X93941000Y-208788000D03*
X104941000Y-204188000D03*
X99441000Y-204188000D03*
X93941000Y-204188000D03*
D26*
X131191000Y-97155000D03*
X135891000Y-97155000D03*
X126491000Y-97155000D03*
X69723000Y-97155000D03*
X74423000Y-97155000D03*
X65023000Y-97155000D03*
X100203000Y-97155000D03*
X104903000Y-97155000D03*
X95503000Y-97155000D03*
D15*
X72183000Y-78359000D03*
X69683000Y-78359000D03*
X67183000Y-78359000D03*
D16*
X74083000Y-85359000D03*
X65283000Y-85359000D03*
D27*
X73660000Y-180594000D03*
X73660000Y-181864000D03*
X73660000Y-183134000D03*
X73660000Y-184404000D03*
X67310000Y-184404000D03*
X67310000Y-183134000D03*
X67310000Y-181864000D03*
X67310000Y-180594000D03*
X75565000Y-121158000D03*
X75565000Y-119888000D03*
X75565000Y-118618000D03*
X75565000Y-117348000D03*
X81915000Y-117348000D03*
X81915000Y-118618000D03*
X81915000Y-119888000D03*
X81915000Y-121158000D03*
X106807000Y-194183000D03*
X106807000Y-192913000D03*
X106807000Y-191643000D03*
X106807000Y-190373000D03*
X113157000Y-190373000D03*
X113157000Y-191643000D03*
X113157000Y-192913000D03*
X113157000Y-194183000D03*
X76708000Y-129286000D03*
X76708000Y-130556000D03*
X76708000Y-131826000D03*
X76708000Y-133096000D03*
X70358000Y-133096000D03*
X70358000Y-131826000D03*
X70358000Y-130556000D03*
X70358000Y-129286000D03*
D28*
X125430381Y-159166500D03*
X124160381Y-159166500D03*
X122890381Y-159166500D03*
X121620381Y-159166500D03*
X121620381Y-152816500D03*
X122890381Y-152816500D03*
X124160381Y-152816500D03*
X125430381Y-152816500D03*
D27*
X113919000Y-177546000D03*
X113919000Y-178816000D03*
X113919000Y-180086000D03*
X113919000Y-181356000D03*
X107569000Y-181356000D03*
X107569000Y-180086000D03*
X107569000Y-178816000D03*
X107569000Y-177546000D03*
D28*
X87489000Y-185740500D03*
X88759000Y-185740500D03*
X90029000Y-185740500D03*
X91299000Y-185740500D03*
X91299000Y-192090500D03*
X90029000Y-192090500D03*
X88759000Y-192090500D03*
X87489000Y-192090500D03*
D27*
X88011000Y-148336000D03*
X88011000Y-145796000D03*
X88011000Y-144526000D03*
X88011000Y-143256000D03*
X88011000Y-141986000D03*
X88011000Y-140716000D03*
X88011000Y-139446000D03*
X94361000Y-139446000D03*
X94361000Y-140716000D03*
X94361000Y-141986000D03*
X94361000Y-143256000D03*
X94361000Y-144526000D03*
X94361000Y-145796000D03*
X94361000Y-147066000D03*
X94361000Y-148336000D03*
X88011000Y-147066000D03*
D28*
X114300000Y-139954000D03*
X113030000Y-139954000D03*
X111760000Y-139954000D03*
X110490000Y-139954000D03*
X110490000Y-133604000D03*
X111760000Y-133604000D03*
X113030000Y-133604000D03*
X114300000Y-133604000D03*
D13*
X104902000Y-193314000D03*
X104902000Y-195814000D03*
D14*
X113177000Y-188595000D03*
X115677000Y-188595000D03*
X88793000Y-183769000D03*
X91293000Y-183769000D03*
X91333000Y-194310000D03*
X93833000Y-194310000D03*
X115971000Y-178689000D03*
X118471000Y-178689000D03*
X107549000Y-183007000D03*
X105049000Y-183007000D03*
D13*
X79248000Y-130409000D03*
X79248000Y-127909000D03*
D14*
X116225000Y-139954000D03*
X118725000Y-139954000D03*
X108565000Y-133604000D03*
X106065000Y-133604000D03*
X124186000Y-161544000D03*
X121686000Y-161544000D03*
D13*
X120015000Y-152634000D03*
X120015000Y-150134000D03*
X88011000Y-150261000D03*
X88011000Y-152761000D03*
D14*
X71140000Y-178816000D03*
X73640000Y-178816000D03*
D13*
X73787000Y-118638000D03*
X73787000Y-121138000D03*
D19*
X60579000Y-101219000D03*
D20*
X60579000Y-98679000D03*
X60579000Y-96139000D03*
X60579000Y-93599000D03*
D19*
X60325000Y-163449000D03*
D20*
X60325000Y-160909000D03*
X60325000Y-158369000D03*
X60325000Y-155829000D03*
D23*
X94441000Y-102235000D03*
X91741000Y-102235000D03*
D11*
X80115000Y-167259000D03*
X83715000Y-167259000D03*
D14*
X113645000Y-142367000D03*
X111145000Y-142367000D03*
D23*
X115777000Y-131445000D03*
X113077000Y-131445000D03*
D24*
X107569000Y-140669000D03*
X107569000Y-137969000D03*
X89535000Y-134286000D03*
X89535000Y-136986000D03*
D29*
X69977000Y-178816000D03*
X66294000Y-183134000D03*
X86106000Y-173609000D03*
X86233000Y-167259000D03*
X115189000Y-174625000D03*
X120015000Y-178689000D03*
X103505000Y-183007000D03*
X120396000Y-161544000D03*
X122047000Y-150749000D03*
X105537000Y-114046000D03*
X109728000Y-139954000D03*
X104648000Y-133604000D03*
X120015000Y-139954000D03*
X95631000Y-143256000D03*
X94361000Y-138557000D03*
X88011000Y-154178000D03*
X78105000Y-127889000D03*
X69723000Y-127508000D03*
X73787000Y-117094000D03*
X83058000Y-118618000D03*
X106045000Y-195834000D03*
X115697000Y-189865000D03*
X92583000Y-183769000D03*
X85979000Y-192786000D03*
X93853000Y-192913000D03*
X107569000Y-187452000D03*
X107569000Y-185801000D03*
X88646000Y-127000000D03*
X92456000Y-130810000D03*
X69215000Y-133096000D03*
X136271000Y-130937000D03*
X133985000Y-130937000D03*
X80772000Y-160147000D03*
X83693000Y-157226000D03*
X114681000Y-196469000D03*
X116332000Y-196469000D03*
X121793000Y-183642000D03*
X121793000Y-180340000D03*
X128143000Y-147320000D03*
X125476000Y-147320000D03*
X92075000Y-133223000D03*
X86868000Y-128143000D03*
X64262000Y-134747000D03*
X65913000Y-134747000D03*
X110998000Y-130556000D03*
X110998000Y-132207000D03*
X136271000Y-129667000D03*
X133985000Y-129667000D03*
X133985000Y-137033000D03*
X136271000Y-128143000D03*
X133985000Y-128143000D03*
X81661000Y-193421000D03*
X83820000Y-191262000D03*
X95631000Y-200025000D03*
X97790000Y-200025000D03*
D30*
X71140000Y-178816000D02*
X69977000Y-178816000D01*
X67310000Y-183134000D02*
X66294000Y-183134000D01*
X83715000Y-173609000D02*
X86106000Y-173609000D01*
X83715000Y-167259000D02*
X86233000Y-167259000D01*
X83715000Y-173736000D02*
X83715000Y-173504000D01*
X113745000Y-174625000D02*
X115189000Y-174625000D01*
X118471000Y-178689000D02*
X120015000Y-178689000D01*
X105049000Y-183007000D02*
X103505000Y-183007000D01*
X121686000Y-161544000D02*
X120396000Y-161544000D01*
X120015000Y-150134000D02*
X121432000Y-150134000D01*
X122890381Y-151592381D02*
X122047000Y-150749000D01*
X122890381Y-151592381D02*
X122890381Y-152816500D01*
X121432000Y-150134000D02*
X122047000Y-150749000D01*
X105517000Y-115697000D02*
X105517000Y-114066000D01*
X105517000Y-114026000D02*
X105537000Y-114046000D01*
X105517000Y-114026000D02*
X105557000Y-112395000D01*
X105517000Y-114066000D02*
X105537000Y-114046000D01*
X105390000Y-115570000D02*
X105517000Y-115697000D01*
X110490000Y-139954000D02*
X109728000Y-139954000D01*
X105965000Y-131318000D02*
X105965000Y-133504000D01*
X105965000Y-133504000D02*
X106065000Y-133604000D01*
X106065000Y-133604000D02*
X104648000Y-133604000D01*
X118725000Y-139954000D02*
X120015000Y-139954000D01*
X94361000Y-143256000D02*
X95631000Y-143256000D01*
X94361000Y-139446000D02*
X94361000Y-138557000D01*
X88011000Y-152761000D02*
X88011000Y-154178000D01*
X79248000Y-127909000D02*
X78125000Y-127909000D01*
X78125000Y-127909000D02*
X78105000Y-127889000D01*
X67945000Y-127555000D02*
X69770000Y-127555000D01*
X69770000Y-127555000D02*
X69723000Y-127508000D01*
X73787000Y-118638000D02*
X73787000Y-117094000D01*
X81915000Y-118618000D02*
X83058000Y-118618000D01*
X79905000Y-113538000D02*
X79905000Y-117878000D01*
X80645000Y-118618000D02*
X81915000Y-118618000D01*
X79905000Y-117878000D02*
X80645000Y-118618000D01*
X104902000Y-195814000D02*
X106025000Y-195814000D01*
X106025000Y-195814000D02*
X106045000Y-195834000D01*
X115677000Y-188595000D02*
X115677000Y-189845000D01*
X115677000Y-189845000D02*
X115697000Y-189865000D01*
X91293000Y-183769000D02*
X92583000Y-183769000D01*
X86026000Y-194183000D02*
X86026000Y-192833000D01*
X86026000Y-192833000D02*
X85979000Y-192786000D01*
X93833000Y-194310000D02*
X93833000Y-192933000D01*
X93833000Y-192933000D02*
X93853000Y-192913000D01*
D31*
X80115000Y-173609000D02*
X80115000Y-174984000D01*
X98552000Y-184658000D02*
X98552000Y-192090500D01*
X90678000Y-176784000D02*
X98552000Y-184658000D01*
X81915000Y-176784000D02*
X90678000Y-176784000D01*
X80115000Y-174984000D02*
X81915000Y-176784000D01*
X73660000Y-184404000D02*
X74930000Y-184404000D01*
X77978000Y-173609000D02*
X80115000Y-173609000D01*
X76200000Y-175387000D02*
X77978000Y-173609000D01*
X76200000Y-183134000D02*
X76200000Y-175387000D01*
X74930000Y-184404000D02*
X76200000Y-183134000D01*
X80115000Y-173609000D02*
X80115000Y-173123000D01*
X80115000Y-173123000D02*
X79756000Y-173228000D01*
X80115000Y-173609000D02*
X80115000Y-172996000D01*
X107569000Y-187452000D02*
X107569000Y-188595000D01*
X91299000Y-192090500D02*
X98552000Y-192090500D01*
X98552000Y-192090500D02*
X99882500Y-192090500D01*
X103378000Y-188595000D02*
X107569000Y-188595000D01*
X99882500Y-192090500D02*
X103378000Y-188595000D01*
X107569000Y-188595000D02*
X113177000Y-188595000D01*
X107549000Y-185781000D02*
X107549000Y-183007000D01*
X107569000Y-185801000D02*
X107549000Y-185781000D01*
D30*
X107569000Y-181356000D02*
X107569000Y-182987000D01*
X107569000Y-182987000D02*
X107549000Y-183007000D01*
D31*
X91333000Y-194310000D02*
X91333000Y-192124500D01*
D30*
X91333000Y-192124500D02*
X91299000Y-192090500D01*
X113157000Y-190373000D02*
X113157000Y-188615000D01*
X113157000Y-188615000D02*
X113177000Y-188595000D01*
D31*
X115550000Y-152634000D02*
X102997000Y-140081000D01*
X102997000Y-140081000D02*
X102997000Y-135763000D01*
X115550000Y-152634000D02*
X120015000Y-152634000D01*
X76305000Y-113538000D02*
X76305000Y-113179000D01*
X76305000Y-113179000D02*
X78232000Y-111252000D01*
X78232000Y-111252000D02*
X84963000Y-111252000D01*
X84963000Y-111252000D02*
X88646000Y-114935000D01*
X88646000Y-114935000D02*
X88646000Y-127000000D01*
X92456000Y-130810000D02*
X97409000Y-135763000D01*
X97409000Y-135763000D02*
X102997000Y-135763000D01*
X108565000Y-134640000D02*
X108565000Y-133604000D01*
X107442000Y-135763000D02*
X108565000Y-134640000D01*
X102997000Y-135763000D02*
X107442000Y-135763000D01*
X70358000Y-133096000D02*
X69215000Y-133096000D01*
X70358000Y-133096000D02*
X71628000Y-133096000D01*
X74168000Y-113538000D02*
X76305000Y-113538000D01*
X72009000Y-115697000D02*
X74168000Y-113538000D01*
D30*
X121620381Y-152816500D02*
X120197500Y-152816500D01*
X120197500Y-152816500D02*
X120015000Y-152634000D01*
X110490000Y-133604000D02*
X108565000Y-133604000D01*
X70338000Y-133116000D02*
X70358000Y-133096000D01*
D31*
X76305000Y-113538000D02*
X76305000Y-116608000D01*
X76305000Y-116608000D02*
X75565000Y-117348000D01*
X71628000Y-133096000D02*
X74803000Y-129921000D01*
X74803000Y-124841000D02*
X72009000Y-122047000D01*
X74803000Y-129921000D02*
X74803000Y-124841000D01*
X72009000Y-122047000D02*
X72009000Y-115697000D01*
D30*
X80115000Y-179959000D02*
X80115000Y-184807000D01*
X78105000Y-186817000D02*
X76454000Y-186817000D01*
X80115000Y-184807000D02*
X78105000Y-186817000D01*
X67310000Y-181864000D02*
X68326000Y-181864000D01*
X70739000Y-186817000D02*
X72390000Y-186817000D01*
X69596000Y-185674000D02*
X70739000Y-186817000D01*
X69596000Y-183134000D02*
X69596000Y-185674000D01*
X68326000Y-181864000D02*
X69596000Y-183134000D01*
X80115000Y-179959000D02*
X80137000Y-179959000D01*
X76454000Y-186817000D02*
X75184000Y-186817000D01*
X72390000Y-186817000D02*
X75184000Y-186817000D01*
X67818000Y-181864000D02*
X67310000Y-181864000D01*
X83715000Y-179959000D02*
X83715000Y-182858000D01*
X83715000Y-182858000D02*
X78994000Y-187579000D01*
X67310000Y-184404000D02*
X67310000Y-184912000D01*
X69977000Y-187579000D02*
X72898000Y-187579000D01*
X67310000Y-184912000D02*
X69977000Y-187579000D01*
X72898000Y-187579000D02*
X78994000Y-187579000D01*
X83715000Y-179959000D02*
X83185000Y-179959000D01*
X67310000Y-184404000D02*
X67437000Y-184277000D01*
X85725000Y-122069000D02*
X85366000Y-122069000D01*
X85366000Y-122069000D02*
X83185000Y-119888000D01*
X83185000Y-119888000D02*
X81915000Y-119888000D01*
X81915000Y-117348000D02*
X84604000Y-117348000D01*
X84604000Y-117348000D02*
X85725000Y-118469000D01*
D31*
X125707000Y-169673000D02*
X125707000Y-169695000D01*
D30*
X125707000Y-169695000D02*
X123083000Y-172319000D01*
X123083000Y-172319000D02*
X120269000Y-172319000D01*
X97663000Y-169819000D02*
X94000000Y-169819000D01*
X67818000Y-143637000D02*
X60325000Y-143637000D01*
X94000000Y-169819000D02*
X67818000Y-143637000D01*
X120269000Y-169819000D02*
X97663000Y-169819000D01*
X104941000Y-204188000D02*
X109502000Y-204188000D01*
X115570000Y-198120000D02*
X115570000Y-194163000D01*
X109502000Y-204188000D02*
X115570000Y-198120000D01*
X65532000Y-149479000D02*
X71755000Y-149479000D01*
X99695000Y-177419000D02*
X99695000Y-183751204D01*
X71755000Y-149479000D02*
X99695000Y-177419000D01*
X60325000Y-138557000D02*
X59436000Y-138557000D01*
X59182000Y-149479000D02*
X65532000Y-149479000D01*
X58420000Y-148717000D02*
X59182000Y-149479000D01*
X58420000Y-139573000D02*
X58420000Y-148717000D01*
X59436000Y-138557000D02*
X58420000Y-139573000D01*
X99695000Y-183751204D02*
X102489000Y-186563000D01*
X116947000Y-191663000D02*
X118745000Y-189865000D01*
X118745000Y-189865000D02*
X118745000Y-188595000D01*
X118745000Y-188595000D02*
X116713000Y-186563000D01*
X115570000Y-191663000D02*
X116947000Y-191663000D01*
X116713000Y-186563000D02*
X102489000Y-186563000D01*
X115570000Y-191663000D02*
X113177000Y-191663000D01*
X113177000Y-191663000D02*
X113157000Y-191643000D01*
X108057000Y-112395000D02*
X108057000Y-111907000D01*
X108057000Y-111907000D02*
X109093000Y-110871000D01*
X136779000Y-123317000D02*
X140081000Y-123317000D01*
X124333000Y-110871000D02*
X136779000Y-123317000D01*
X109093000Y-110871000D02*
X124333000Y-110871000D01*
X108057000Y-112395000D02*
X110637000Y-112395000D01*
X108097000Y-115697000D02*
X108057000Y-112395000D01*
X142113000Y-127889000D02*
X142113000Y-140081000D01*
X138811000Y-127127000D02*
X141351000Y-127127000D01*
X141351000Y-127127000D02*
X142113000Y-127889000D01*
X124079000Y-112395000D02*
X138811000Y-127127000D01*
X142113000Y-140081000D02*
X140081000Y-142113000D01*
X113137000Y-112395000D02*
X124079000Y-112395000D01*
X140081000Y-147193000D02*
X138811000Y-147193000D01*
X123317000Y-115697000D02*
X110597000Y-115697000D01*
X135255000Y-127635000D02*
X123317000Y-115697000D01*
X135255000Y-143637000D02*
X135255000Y-127635000D01*
X138811000Y-147193000D02*
X135255000Y-143637000D01*
X140081000Y-147193000D02*
X139573000Y-147193000D01*
X136271000Y-130937000D02*
X137033000Y-130937000D01*
X138303000Y-132207000D02*
X138303000Y-135255000D01*
X137033000Y-130937000D02*
X138303000Y-132207000D01*
X138811000Y-135763000D02*
X138557000Y-135509000D01*
X140081000Y-139573000D02*
X141605000Y-138049000D01*
X141605000Y-136271000D02*
X141605000Y-138049000D01*
X141097000Y-135763000D02*
X141605000Y-136271000D01*
X138811000Y-135763000D02*
X141097000Y-135763000D01*
X138303000Y-135255000D02*
X138557000Y-135509000D01*
X138557000Y-135509000D02*
X138303000Y-135255000D01*
X120015000Y-130937000D02*
X133985000Y-130937000D01*
X113030000Y-137922000D02*
X120015000Y-130937000D01*
X113030000Y-139954000D02*
X113030000Y-137922000D01*
X113030000Y-139954000D02*
X113030000Y-141625000D01*
X113030000Y-141625000D02*
X113772000Y-142367000D01*
X140081000Y-125857000D02*
X141097000Y-125857000D01*
X141097000Y-120777000D02*
X140081000Y-120777000D01*
X141859000Y-121539000D02*
X141097000Y-120777000D01*
X141859000Y-125095000D02*
X141859000Y-121539000D01*
X141097000Y-125857000D02*
X141859000Y-125095000D01*
X103017000Y-115697000D02*
X103017000Y-111359000D01*
X136525000Y-120777000D02*
X140081000Y-120777000D01*
X124841000Y-109093000D02*
X136525000Y-120777000D01*
X105283000Y-109093000D02*
X124841000Y-109093000D01*
X103017000Y-111359000D02*
X105283000Y-109093000D01*
X88011000Y-139446000D02*
X88011000Y-129413000D01*
X101727000Y-115697000D02*
X103017000Y-115697000D01*
X88011000Y-129413000D02*
X101727000Y-115697000D01*
X58928000Y-123317000D02*
X60325000Y-123317000D01*
X58420000Y-122809000D02*
X58928000Y-123317000D01*
X58420000Y-119634000D02*
X58420000Y-122809000D01*
X58801000Y-119253000D02*
X58420000Y-119634000D01*
X63627000Y-119253000D02*
X58801000Y-119253000D01*
X71755000Y-127381000D02*
X63627000Y-119253000D01*
X71755000Y-131953000D02*
X71755000Y-127381000D01*
X71247000Y-132461000D02*
X71755000Y-131953000D01*
X68580000Y-132461000D02*
X71247000Y-132461000D01*
X68199000Y-132842000D02*
X68580000Y-132461000D01*
X68199000Y-133731000D02*
X68199000Y-132842000D01*
X68580000Y-134112000D02*
X68199000Y-133731000D01*
X72517000Y-134112000D02*
X68580000Y-134112000D01*
X78252000Y-132608000D02*
X79248000Y-132608000D01*
X76708000Y-131826000D02*
X74803000Y-131826000D01*
X74803000Y-131826000D02*
X72517000Y-134112000D01*
X76708000Y-131826000D02*
X77470000Y-131826000D01*
X77470000Y-131826000D02*
X78252000Y-132608000D01*
X79248000Y-135108000D02*
X79248000Y-138176000D01*
X86868000Y-145796000D02*
X88011000Y-145796000D01*
X79248000Y-138176000D02*
X86868000Y-145796000D01*
X94361000Y-141986000D02*
X96881000Y-141986000D01*
X96881000Y-141986000D02*
X97155000Y-141712000D01*
X94361000Y-140716000D02*
X95651000Y-140716000D01*
X95651000Y-140716000D02*
X97155000Y-139212000D01*
X133651000Y-57023000D02*
X138811000Y-57023000D01*
X138811000Y-57023000D02*
X140335000Y-58547000D01*
X138614991Y-59366991D02*
X140335000Y-61087000D01*
X133494991Y-59366991D02*
X138614991Y-59366991D01*
X131151000Y-57023000D02*
X133494991Y-59366991D01*
X131151000Y-57023000D02*
X128651000Y-57023000D01*
D31*
X80115000Y-167259000D02*
X80115000Y-160804000D01*
X80115000Y-160804000D02*
X80772000Y-160147000D01*
X73640000Y-178816000D02*
X73640000Y-170708000D01*
X77089000Y-167259000D02*
X80115000Y-167259000D01*
X73640000Y-170708000D02*
X77089000Y-167259000D01*
X70485000Y-180594000D02*
X70485000Y-184658000D01*
X88793000Y-179852000D02*
X88793000Y-183769000D01*
X86995000Y-178054000D02*
X88793000Y-179852000D01*
X78359000Y-178054000D02*
X86995000Y-178054000D01*
X77470000Y-178943000D02*
X78359000Y-178054000D01*
X77470000Y-183896000D02*
X77470000Y-178943000D01*
X75692000Y-185674000D02*
X77470000Y-183896000D01*
X71501000Y-185674000D02*
X75692000Y-185674000D01*
X70485000Y-184658000D02*
X71501000Y-185674000D01*
X73660000Y-180594000D02*
X73660000Y-178836000D01*
X73660000Y-178836000D02*
X73640000Y-178816000D01*
X61595000Y-182629000D02*
X63243000Y-182629000D01*
X65278000Y-180594000D02*
X67310000Y-180594000D01*
X63243000Y-182629000D02*
X65278000Y-180594000D01*
X83693000Y-157226000D02*
X84328000Y-156591000D01*
X80115000Y-167259000D02*
X80115000Y-167281000D01*
X80115000Y-167259000D02*
X80137000Y-167259000D01*
X88793000Y-183769000D02*
X88793000Y-185706500D01*
X88793000Y-185706500D02*
X88759000Y-185740500D01*
X88793000Y-183769000D02*
X85852000Y-183769000D01*
X85852000Y-183769000D02*
X82804000Y-186817000D01*
X82804000Y-186817000D02*
X82804000Y-195961000D01*
X82804000Y-195961000D02*
X88265000Y-201422000D01*
X88265000Y-201422000D02*
X96647000Y-201422000D01*
X84328000Y-156591000D02*
X84328000Y-155321000D01*
X85578000Y-150261000D02*
X88011000Y-150261000D01*
X84328000Y-151511000D02*
X85578000Y-150261000D01*
D30*
X84328000Y-156591000D02*
X84328000Y-155321000D01*
D31*
X84328000Y-155321000D02*
X84328000Y-151511000D01*
X67310000Y-180594000D02*
X70485000Y-180594000D01*
X70485000Y-180594000D02*
X73660000Y-180594000D01*
X121793000Y-176911000D02*
X121793000Y-180340000D01*
X107442000Y-192913000D02*
X106807000Y-192913000D01*
X110998000Y-196469000D02*
X107442000Y-192913000D01*
X114681000Y-196469000D02*
X110998000Y-196469000D01*
X116840000Y-196469000D02*
X116332000Y-196469000D01*
X121793000Y-191516000D02*
X116840000Y-196469000D01*
X121793000Y-183642000D02*
X121793000Y-191516000D01*
X116225000Y-139954000D02*
X116225000Y-143657000D01*
X129286000Y-159004000D02*
X126746000Y-161544000D01*
X129286000Y-148463000D02*
X129286000Y-159004000D01*
X128143000Y-147320000D02*
X129286000Y-148463000D01*
X119888000Y-147320000D02*
X125476000Y-147320000D01*
X116225000Y-143657000D02*
X119888000Y-147320000D01*
X115971000Y-178689000D02*
X115971000Y-178161000D01*
X115971000Y-178161000D02*
X117221000Y-176911000D01*
X117221000Y-176911000D02*
X121793000Y-176911000D01*
X121793000Y-176911000D02*
X127889000Y-176911000D01*
X127889000Y-176911000D02*
X132207000Y-172593000D01*
X132207000Y-172593000D02*
X132207000Y-167005000D01*
X132207000Y-167005000D02*
X126746000Y-161544000D01*
X126746000Y-161544000D02*
X124186000Y-161544000D01*
X81153000Y-126619000D02*
X85344000Y-126619000D01*
X97643000Y-150261000D02*
X100711000Y-147193000D01*
X100711000Y-147193000D02*
X100711000Y-139065000D01*
X100711000Y-139065000D02*
X98806000Y-137160000D01*
X98806000Y-137160000D02*
X96012000Y-137160000D01*
X96012000Y-137160000D02*
X92075000Y-133223000D01*
X86868000Y-128143000D02*
X85344000Y-126619000D01*
X88011000Y-150261000D02*
X97643000Y-150261000D01*
X93941000Y-208788000D02*
X94615000Y-208788000D01*
X94615000Y-208788000D02*
X96647000Y-206756000D01*
X96647000Y-206756000D02*
X96647000Y-201422000D01*
X102215000Y-193314000D02*
X104902000Y-193314000D01*
X96647000Y-198882000D02*
X102215000Y-193314000D01*
X96647000Y-201422000D02*
X96647000Y-198882000D01*
X75565000Y-121158000D02*
X75692000Y-121158000D01*
X75692000Y-121158000D02*
X81153000Y-126619000D01*
X80411000Y-130409000D02*
X79248000Y-130409000D01*
X81153000Y-129667000D02*
X80411000Y-130409000D01*
X81153000Y-126619000D02*
X81153000Y-129667000D01*
D30*
X113919000Y-178816000D02*
X115844000Y-178816000D01*
X115844000Y-178816000D02*
X115971000Y-178689000D01*
X124160381Y-159166500D02*
X124160381Y-161518381D01*
X124160381Y-161518381D02*
X124186000Y-161544000D01*
X116225000Y-139954000D02*
X114300000Y-139954000D01*
D31*
X88011000Y-150261000D02*
X88011000Y-148336000D01*
D30*
X79101000Y-130556000D02*
X79248000Y-130409000D01*
D31*
X75565000Y-121158000D02*
X73807000Y-121158000D01*
D30*
X73807000Y-121158000D02*
X73787000Y-121138000D01*
D31*
X75565000Y-121158000D02*
X81915000Y-121158000D01*
D30*
X88666000Y-185647500D02*
X88759000Y-185740500D01*
D31*
X106807000Y-192913000D02*
X105303000Y-192913000D01*
D30*
X105303000Y-192913000D02*
X104902000Y-193314000D01*
D31*
X76708000Y-130556000D02*
X79101000Y-130556000D01*
D30*
X99187000Y-103759000D02*
X61722000Y-103759000D01*
X61722000Y-103759000D02*
X60579000Y-102616000D01*
X60579000Y-102616000D02*
X60579000Y-101219000D01*
X69683000Y-57023000D02*
X72183000Y-57023000D01*
X60579000Y-66167000D02*
X60071000Y-66167000D01*
X60071000Y-66167000D02*
X58547000Y-64643000D01*
X58547000Y-64643000D02*
X58547000Y-56896000D01*
X58547000Y-56896000D02*
X60198000Y-55245000D01*
X60198000Y-55245000D02*
X67905000Y-55245000D01*
X67905000Y-55245000D02*
X69683000Y-57023000D01*
X60579000Y-63627000D02*
X60579000Y-63500000D01*
X60579000Y-63500000D02*
X59182000Y-62103000D01*
X59182000Y-62103000D02*
X59182000Y-57150000D01*
X59182000Y-57150000D02*
X59309000Y-57023000D01*
X59309000Y-57023000D02*
X67183000Y-57023000D01*
X113411000Y-80264000D02*
X111506000Y-78359000D01*
X111506000Y-78359000D02*
X102663000Y-78359000D01*
X138176000Y-80264000D02*
X113411000Y-80264000D01*
X140335000Y-82423000D02*
X138176000Y-80264000D01*
X103719000Y-81915000D02*
X137287000Y-81915000D01*
X137287000Y-81915000D02*
X140335000Y-84963000D01*
X100163000Y-78359000D02*
X103719000Y-81915000D01*
X97663000Y-78359000D02*
X100163000Y-78359000D01*
X70358000Y-130556000D02*
X68246000Y-130556000D01*
X68246000Y-130556000D02*
X67945000Y-130255000D01*
X60325000Y-120777000D02*
X63373000Y-120777000D01*
X65532000Y-122936000D02*
X65532000Y-128524000D01*
X63373000Y-120777000D02*
X65532000Y-122936000D01*
X67945000Y-130255000D02*
X67263000Y-130255000D01*
X67263000Y-130255000D02*
X65532000Y-128524000D01*
X70311000Y-130509000D02*
X70358000Y-130556000D01*
X65913000Y-134747000D02*
X77343000Y-134747000D01*
X77343000Y-134747000D02*
X78232000Y-133858000D01*
X88011000Y-141986000D02*
X86868000Y-141986000D01*
X81280000Y-133858000D02*
X78232000Y-133858000D01*
X83693000Y-136271000D02*
X81280000Y-133858000D01*
X83693000Y-138811000D02*
X83693000Y-136271000D01*
X86868000Y-141986000D02*
X83693000Y-138811000D01*
X60325000Y-130810000D02*
X60325000Y-128397000D01*
X64262000Y-134747000D02*
X60325000Y-130810000D01*
X111760000Y-133604000D02*
X111760000Y-132969000D01*
X110998000Y-130556000D02*
X110998000Y-129667000D01*
X111760000Y-132969000D02*
X110998000Y-132207000D01*
X133985000Y-129667000D02*
X110998000Y-129667000D01*
X110998000Y-129667000D02*
X92075000Y-129667000D01*
X92075000Y-129667000D02*
X90932000Y-130810000D01*
X90932000Y-130810000D02*
X90932000Y-143256000D01*
X90932000Y-143256000D02*
X92202000Y-144526000D01*
X92202000Y-144526000D02*
X94361000Y-144526000D01*
X136271000Y-129667000D02*
X138557000Y-129667000D01*
X140081000Y-131191000D02*
X140081000Y-134493000D01*
X138557000Y-129667000D02*
X140081000Y-131191000D01*
X94361000Y-144526000D02*
X94361000Y-145796000D01*
X126826000Y-144192000D02*
X126826000Y-150114000D01*
X133985000Y-137033000D02*
X126826000Y-144192000D01*
X74423000Y-97155000D02*
X74423000Y-94905000D01*
X74423000Y-94905000D02*
X70993000Y-91475000D01*
X62611000Y-76327000D02*
X60579000Y-76327000D01*
X70993000Y-91475000D02*
X70993000Y-84709000D01*
X70993000Y-84709000D02*
X62611000Y-76327000D01*
X64476999Y-79716999D02*
X69723000Y-84963000D01*
X69723000Y-84963000D02*
X69723000Y-97155000D01*
X60579000Y-78867000D02*
X61428999Y-79716999D01*
X61428999Y-79716999D02*
X64476999Y-79716999D01*
X58928000Y-88810000D02*
X58928000Y-83058000D01*
X58928000Y-83058000D02*
X60579000Y-81407000D01*
X65023000Y-97155000D02*
X65023000Y-94905000D01*
X65023000Y-94905000D02*
X58928000Y-88810000D01*
X89535000Y-134286000D02*
X89535000Y-130302000D01*
X138684000Y-128397000D02*
X140081000Y-128397000D01*
X138430000Y-128143000D02*
X138684000Y-128397000D01*
X136271000Y-128143000D02*
X138430000Y-128143000D01*
X91694000Y-128143000D02*
X133985000Y-128143000D01*
X89535000Y-130302000D02*
X91694000Y-128143000D01*
X128651000Y-78359000D02*
X128651000Y-74419208D01*
X128651000Y-74419208D02*
X130807208Y-72263000D01*
X130807208Y-72263000D02*
X140335000Y-72263000D01*
X131151000Y-78359000D02*
X131151000Y-76113000D01*
X131151000Y-76113000D02*
X132461000Y-74803000D01*
X140335000Y-74803000D02*
X132461000Y-74803000D01*
X133651000Y-78359000D02*
X134667000Y-77343000D01*
X134667000Y-77343000D02*
X140335000Y-77343000D01*
X104941000Y-208788000D02*
X105410000Y-208788000D01*
X105410000Y-208788000D02*
X106807000Y-210185000D01*
X106807000Y-210185000D02*
X127381000Y-210185000D01*
X128906000Y-190755000D02*
X125707000Y-190755000D01*
X129413000Y-191262000D02*
X128906000Y-190755000D01*
X129413000Y-208153000D02*
X129413000Y-191262000D01*
X127381000Y-210185000D02*
X129413000Y-208153000D01*
X70358000Y-131826000D02*
X67056000Y-131826000D01*
X62103000Y-142113000D02*
X64135000Y-142113000D01*
X64135000Y-142113000D02*
X65151000Y-141097000D01*
X65151000Y-141097000D02*
X65151000Y-133731000D01*
X65151000Y-133731000D02*
X67056000Y-131826000D01*
X62103000Y-142113000D02*
X61087000Y-141097000D01*
X60325000Y-141097000D02*
X61087000Y-141097000D01*
X133223000Y-168275000D02*
X133223000Y-175006000D01*
X116332000Y-181102000D02*
X115316000Y-180086000D01*
X127127000Y-181102000D02*
X116332000Y-181102000D01*
X133223000Y-175006000D02*
X127127000Y-181102000D01*
X113919000Y-180086000D02*
X115316000Y-180086000D01*
X139065000Y-162433000D02*
X138811000Y-162433000D01*
X133223000Y-168275000D02*
X139065000Y-162433000D01*
X140081000Y-152273000D02*
X139065000Y-152273000D01*
X138811000Y-162433000D02*
X140081000Y-162433000D01*
X137795000Y-161417000D02*
X138811000Y-162433000D01*
X137795000Y-153543000D02*
X137795000Y-161417000D01*
X139065000Y-152273000D02*
X137795000Y-153543000D01*
X99441000Y-204188000D02*
X99441000Y-205105000D01*
X99441000Y-205105000D02*
X96647000Y-207899000D01*
X106172000Y-216281000D02*
X111252000Y-211201000D01*
X97917000Y-216281000D02*
X106172000Y-216281000D01*
X96647000Y-215011000D02*
X97917000Y-216281000D01*
X96647000Y-207899000D02*
X96647000Y-215011000D01*
X140081000Y-154813000D02*
X140589000Y-154813000D01*
X140589000Y-154813000D02*
X142113000Y-156337000D01*
X142113000Y-156337000D02*
X142113000Y-196977000D01*
X142113000Y-196977000D02*
X127889000Y-211201000D01*
X127889000Y-211201000D02*
X111252000Y-211201000D01*
X100556000Y-204188000D02*
X99441000Y-204188000D01*
X135064500Y-168719500D02*
X135064500Y-177736500D01*
X130048000Y-182753000D02*
X121031000Y-182753000D01*
X135064500Y-177736500D02*
X130048000Y-182753000D01*
X140589000Y-166751000D02*
X137033000Y-166751000D01*
X120269000Y-183515000D02*
X120269000Y-190881000D01*
X137033000Y-166751000D02*
X135064500Y-168719500D01*
X121031000Y-182753000D02*
X120269000Y-183515000D01*
X140081000Y-157353000D02*
X140589000Y-157353000D01*
X140589000Y-157353000D02*
X141605000Y-158369000D01*
X141605000Y-165735000D02*
X140589000Y-166751000D01*
X141605000Y-158369000D02*
X141605000Y-165735000D01*
X113157000Y-192913000D02*
X118237000Y-192913000D01*
X118237000Y-192913000D02*
X120269000Y-190881000D01*
X113157000Y-192913000D02*
X110871000Y-192913000D01*
X109601000Y-191643000D02*
X106807000Y-191643000D01*
X110871000Y-192913000D02*
X109601000Y-191643000D01*
X134112000Y-168656000D02*
X134112000Y-176403000D01*
X128270000Y-182245000D02*
X112395000Y-182245000D01*
X134112000Y-176403000D02*
X128270000Y-182245000D01*
X111045000Y-174625000D02*
X111045000Y-180895000D01*
X111045000Y-180895000D02*
X110871000Y-180721000D01*
X140081000Y-164973000D02*
X137795000Y-164973000D01*
X108966000Y-178816000D02*
X107569000Y-178816000D01*
X112395000Y-182245000D02*
X110871000Y-180721000D01*
X110871000Y-180721000D02*
X108966000Y-178816000D01*
X137795000Y-164973000D02*
X134112000Y-168656000D01*
X90551000Y-187198000D02*
X94314000Y-187198000D01*
X94314000Y-187198000D02*
X94615000Y-187499000D01*
X90678000Y-187198000D02*
X90551000Y-187198000D01*
X90551000Y-187198000D02*
X87884000Y-187198000D01*
X74699000Y-200383000D02*
X74699000Y-206755000D01*
X81661000Y-193421000D02*
X74699000Y-200383000D01*
X87884000Y-187198000D02*
X83820000Y-191262000D01*
X90029000Y-185740500D02*
X90029000Y-186549000D01*
X90029000Y-186549000D02*
X90678000Y-187198000D01*
X88726000Y-194183000D02*
X88726000Y-192123500D01*
X88726000Y-192123500D02*
X88759000Y-192090500D01*
X94615000Y-190199000D02*
X89455000Y-190199000D01*
X88759000Y-190895000D02*
X88759000Y-192090500D01*
X89455000Y-190199000D02*
X88759000Y-190895000D01*
X88853000Y-192184500D02*
X88759000Y-192090500D01*
X102536000Y-180975000D02*
X102536000Y-177626000D01*
X124160381Y-153842619D02*
X118872000Y-159131000D01*
X118872000Y-159131000D02*
X118872000Y-162941000D01*
X118872000Y-162941000D02*
X121158000Y-165227000D01*
X121158000Y-165227000D02*
X127508000Y-165227000D01*
X127508000Y-165227000D02*
X130175000Y-167894000D01*
X124160381Y-153842619D02*
X124160381Y-152816500D01*
X130175000Y-170561000D02*
X130175000Y-167894000D01*
X126238000Y-174498000D02*
X130175000Y-170561000D01*
X118745000Y-174498000D02*
X126238000Y-174498000D01*
X115443000Y-171196000D02*
X118745000Y-174498000D01*
X108966000Y-171196000D02*
X115443000Y-171196000D01*
X102536000Y-177626000D02*
X108966000Y-171196000D01*
X124126000Y-150114000D02*
X124126000Y-152782119D01*
X124126000Y-152782119D02*
X124160381Y-152816500D01*
X122890381Y-159166500D02*
X122890381Y-158196381D01*
X127889000Y-164211000D02*
X131191000Y-167513000D01*
X121285000Y-164211000D02*
X127889000Y-164211000D01*
X119634000Y-162560000D02*
X121285000Y-164211000D01*
X119634000Y-159385000D02*
X119634000Y-162560000D01*
X121285000Y-157734000D02*
X119634000Y-159385000D01*
X122428000Y-157734000D02*
X121285000Y-157734000D01*
X122890381Y-158196381D02*
X122428000Y-157734000D01*
X105236000Y-176958000D02*
X105236000Y-180975000D01*
X109601000Y-172593000D02*
X105236000Y-176958000D01*
X114935000Y-172593000D02*
X109601000Y-172593000D01*
X117856000Y-175514000D02*
X114935000Y-172593000D01*
X126746000Y-175514000D02*
X117856000Y-175514000D01*
X131191000Y-171069000D02*
X126746000Y-175514000D01*
X131191000Y-167513000D02*
X131191000Y-171069000D01*
X105236000Y-180975000D02*
X105791000Y-180975000D01*
X105791000Y-180975000D02*
X106680000Y-180086000D01*
X106680000Y-180086000D02*
X107569000Y-180086000D01*
X113077000Y-131445000D02*
X108792000Y-131445000D01*
X108792000Y-131445000D02*
X108665000Y-131318000D01*
X113030000Y-133604000D02*
X113030000Y-131492000D01*
X113030000Y-131492000D02*
X113077000Y-131445000D01*
X112950000Y-133524000D02*
X113030000Y-133604000D01*
X99441000Y-213388000D02*
X104941000Y-213388000D01*
X90029000Y-194310000D02*
X90029000Y-196582000D01*
X93472000Y-200025000D02*
X95631000Y-200025000D01*
X90029000Y-196582000D02*
X93472000Y-200025000D01*
X99441000Y-208788000D02*
X99441000Y-208661000D01*
X99441000Y-208661000D02*
X102108000Y-205994000D01*
X90029000Y-194310000D02*
X90029000Y-192090500D01*
X100457000Y-200025000D02*
X97790000Y-200025000D01*
X102108000Y-201676000D02*
X100457000Y-200025000D01*
X102108000Y-205994000D02*
X102108000Y-201676000D01*
X99441000Y-208788000D02*
X99314000Y-208788000D01*
X72183000Y-78359000D02*
X72183000Y-67230000D01*
X66040000Y-58547000D02*
X60579000Y-58547000D01*
X70739000Y-63246000D02*
X66040000Y-58547000D01*
X70739000Y-65786000D02*
X70739000Y-63246000D01*
X72183000Y-67230000D02*
X70739000Y-65786000D01*
X67183000Y-78359000D02*
X69683000Y-78359000D01*
X69683000Y-78359000D02*
X69683000Y-64981998D01*
X69683000Y-64981998D02*
X65788002Y-61087000D01*
X65788002Y-61087000D02*
X60579000Y-61087000D01*
X108585000Y-90043000D02*
X104903000Y-93725000D01*
X104903000Y-93725000D02*
X104903000Y-97155000D01*
X140335000Y-90043000D02*
X108585000Y-90043000D01*
X107950000Y-100203000D02*
X102751000Y-100203000D01*
X102751000Y-100203000D02*
X100203000Y-97655000D01*
X100203000Y-97655000D02*
X100203000Y-97155000D01*
X115570000Y-92583000D02*
X107950000Y-100203000D01*
X140335000Y-92583000D02*
X115570000Y-92583000D01*
X123317000Y-94234000D02*
X139446000Y-94234000D01*
X139446000Y-94234000D02*
X140335000Y-95123000D01*
X116332000Y-101219000D02*
X123317000Y-94234000D01*
X97317000Y-101219000D02*
X116332000Y-101219000D01*
X95503000Y-97155000D02*
X95503000Y-99405000D01*
X95503000Y-99405000D02*
X97317000Y-101219000D01*
X135891000Y-97155000D02*
X139827000Y-97155000D01*
X139827000Y-97155000D02*
X140335000Y-97663000D01*
X131191000Y-97155000D02*
X131191000Y-99405000D01*
X131191000Y-99405000D02*
X131989000Y-100203000D01*
X131989000Y-100203000D02*
X140335000Y-100203000D01*
X128778000Y-102743000D02*
X126491000Y-100456000D01*
X126491000Y-100456000D02*
X126491000Y-97155000D01*
X140335000Y-102743000D02*
X128778000Y-102743000D01*
X138133000Y-69469000D02*
X114977000Y-69469000D01*
X114977000Y-69469000D02*
X102531000Y-57023000D01*
X140335000Y-66167000D02*
X140335000Y-67267000D01*
X140335000Y-67267000D02*
X138133000Y-69469000D01*
X97531000Y-57023000D02*
X100031000Y-57023000D01*
X140335000Y-63627000D02*
X136525000Y-59817000D01*
X136525000Y-59817000D02*
X123190000Y-59817000D01*
X101936000Y-55118000D02*
X100031000Y-57023000D01*
X123190000Y-59817000D02*
X118491000Y-55118000D01*
X118491000Y-55118000D02*
X101936000Y-55118000D01*
X94441000Y-102235000D02*
X101353000Y-102235000D01*
X101353000Y-102235000D02*
X101727000Y-102609000D01*
X101727000Y-102609000D02*
X101727000Y-103759000D01*
X60579000Y-98679000D02*
X64135000Y-102235000D01*
X64135000Y-102235000D02*
X91741000Y-102235000D01*
X60325000Y-163449000D02*
X60325000Y-165862000D01*
X89563000Y-204188000D02*
X93941000Y-204188000D01*
X82931000Y-210820000D02*
X89563000Y-204188000D01*
X69977000Y-210820000D02*
X82931000Y-210820000D01*
X68961000Y-209804000D02*
X69977000Y-210820000D01*
X68961000Y-192913000D02*
X68961000Y-209804000D01*
X63500000Y-187452000D02*
X68961000Y-192913000D01*
X60071000Y-187452000D02*
X63500000Y-187452000D01*
X58674000Y-186055000D02*
X60071000Y-187452000D01*
X58674000Y-167513000D02*
X58674000Y-186055000D01*
X60325000Y-165862000D02*
X58674000Y-167513000D01*
X107569000Y-140669000D02*
X107569000Y-141351000D01*
X107569000Y-141351000D02*
X108585000Y-142367000D01*
X108585000Y-142367000D02*
X111145000Y-142367000D01*
X111760000Y-139954000D02*
X111760000Y-141879000D01*
X111760000Y-141879000D02*
X111272000Y-142367000D01*
X114300000Y-133604000D02*
X115062000Y-133604000D01*
X115777000Y-132889000D02*
X115777000Y-131445000D01*
X115062000Y-133604000D02*
X115777000Y-132889000D01*
X107569000Y-137969000D02*
X111078000Y-137969000D01*
X114300000Y-134747000D02*
X114300000Y-133604000D01*
X111078000Y-137969000D02*
X114300000Y-134747000D01*
X114300000Y-133604000D02*
X114427000Y-133604000D01*
X89535000Y-136986000D02*
X89535000Y-143891000D01*
X88900000Y-144526000D02*
X88011000Y-144526000D01*
X89535000Y-143891000D02*
X88900000Y-144526000D01*
D32*
X61595000Y-179829000D02*
X61595000Y-171419000D01*
X61595000Y-171419000D02*
X62199000Y-170815000D01*
D31*
X61595000Y-171419000D02*
X62199000Y-170815000D01*
D30*
X60960000Y-172054000D02*
X62199000Y-170815000D01*
M02*
