G04 #@! TF.FileFunction,Legend,Top*
%FSLAX46Y46*%
G04 Gerber Fmt 4.6, Leading zero omitted, Abs format (unit mm)*
G04 Created by KiCad (PCBNEW 4.0.7) date 04/04/18 08:51:17*
%MOMM*%
%LPD*%
G01*
G04 APERTURE LIST*
%ADD10C,0.100000*%
%ADD11C,0.200000*%
%ADD12C,0.120000*%
%ADD13C,0.150000*%
%ADD14C,0.015000*%
G04 APERTURE END LIST*
D10*
D11*
X79151815Y-121158000D02*
G75*
G03X79151815Y-121158000I-538815J0D01*
G01*
X126454942Y-155956000D02*
G75*
G03X126454942Y-155956000I-851942J0D01*
G01*
X71247000Y-180594000D02*
G75*
G03X71247000Y-180594000I-635000J0D01*
G01*
X74473197Y-128905000D02*
G75*
G03X74473197Y-128905000I-813197J0D01*
G01*
X88037810Y-188722000D02*
G75*
G03X88037810Y-188722000I-915810J0D01*
G01*
X110846902Y-194564000D02*
G75*
G03X110846902Y-194564000I-991902J0D01*
G01*
D12*
X84205000Y-175129000D02*
X84205000Y-174729000D01*
X79625000Y-175899000D02*
X79625000Y-174729000D01*
X79625000Y-171319000D02*
X79625000Y-172489000D01*
X84205000Y-172089000D02*
X84205000Y-172489000D01*
X83435000Y-171319000D02*
X79625000Y-171319000D01*
X83435000Y-171319000D02*
X84205000Y-172089000D01*
X83435000Y-175899000D02*
X79625000Y-175899000D01*
X83435000Y-175899000D02*
X84205000Y-175129000D01*
X80395000Y-115058000D02*
X80395000Y-114658000D01*
X75815000Y-115828000D02*
X75815000Y-114658000D01*
X75815000Y-111248000D02*
X75815000Y-112418000D01*
X80395000Y-112018000D02*
X80395000Y-112418000D01*
X79625000Y-111248000D02*
X75815000Y-111248000D01*
X79625000Y-111248000D02*
X80395000Y-112018000D01*
X79625000Y-115828000D02*
X75815000Y-115828000D01*
X79625000Y-115828000D02*
X80395000Y-115058000D01*
X79625000Y-178439000D02*
X79625000Y-178839000D01*
X84205000Y-177669000D02*
X84205000Y-178839000D01*
X84205000Y-182249000D02*
X84205000Y-181079000D01*
X79625000Y-181479000D02*
X79625000Y-181079000D01*
X80395000Y-182249000D02*
X84205000Y-182249000D01*
X80395000Y-182249000D02*
X79625000Y-181479000D01*
X80395000Y-177669000D02*
X84205000Y-177669000D01*
X80395000Y-177669000D02*
X79625000Y-178439000D01*
X84205000Y-122559000D02*
X84605000Y-122559000D01*
X83435000Y-117979000D02*
X84605000Y-117979000D01*
X88015000Y-117979000D02*
X86845000Y-117979000D01*
X87245000Y-122559000D02*
X86845000Y-122559000D01*
X88015000Y-121789000D02*
X88015000Y-117979000D01*
X88015000Y-121789000D02*
X87245000Y-122559000D01*
X83435000Y-121789000D02*
X83435000Y-117979000D01*
X83435000Y-121789000D02*
X84205000Y-122559000D01*
D13*
X119419000Y-170569000D02*
X119419000Y-171569000D01*
X121119000Y-171569000D02*
X121119000Y-170569000D01*
X114720000Y-192413000D02*
X114720000Y-193413000D01*
X116420000Y-193413000D02*
X116420000Y-192413000D01*
X112387000Y-111545000D02*
X111387000Y-111545000D01*
X111387000Y-113245000D02*
X112387000Y-113245000D01*
X109847000Y-114847000D02*
X108847000Y-114847000D01*
X108847000Y-116547000D02*
X109847000Y-116547000D01*
X106307000Y-113245000D02*
X107307000Y-113245000D01*
X107307000Y-111545000D02*
X106307000Y-111545000D01*
X104767000Y-114847000D02*
X103767000Y-114847000D01*
X103767000Y-116547000D02*
X104767000Y-116547000D01*
X80098000Y-134358000D02*
X80098000Y-133358000D01*
X78398000Y-133358000D02*
X78398000Y-134358000D01*
X96305000Y-139962000D02*
X96305000Y-140962000D01*
X98005000Y-140962000D02*
X98005000Y-139962000D01*
D12*
X133913432Y-65694982D02*
G75*
G02X128389000Y-65696000I-2762432J1171982D01*
G01*
X128853247Y-62594705D02*
G75*
G02X133449000Y-62595000I2297753J-1928295D01*
G01*
X136061000Y-57963000D02*
X136061000Y-61829000D01*
X136061000Y-66218000D02*
X136061000Y-70083000D01*
X126241000Y-57963000D02*
X126241000Y-61829000D01*
X126241000Y-66218000D02*
X126241000Y-70083000D01*
X136061000Y-57963000D02*
X134476000Y-57963000D01*
X132826000Y-57963000D02*
X131976000Y-57963000D01*
X130326000Y-57963000D02*
X129476000Y-57963000D01*
X127826000Y-57963000D02*
X126241000Y-57963000D01*
X136061000Y-70083000D02*
X126241000Y-70083000D01*
X60595000Y-183429000D02*
X62595000Y-183429000D01*
X62595000Y-183429000D02*
X62595000Y-179579000D01*
X60595000Y-183429000D02*
X60595000Y-179579000D01*
X97467000Y-103758538D02*
G75*
G03X103017000Y-105303830I2990000J-462D01*
G01*
X97467000Y-103759462D02*
G75*
G02X103017000Y-102214170I2990000J462D01*
G01*
X102957000Y-103759000D02*
G75*
G03X102957000Y-103759000I-2500000J0D01*
G01*
X103017000Y-105304000D02*
X103017000Y-102214000D01*
X72445432Y-65694982D02*
G75*
G02X66921000Y-65696000I-2762432J1171982D01*
G01*
X67385247Y-62594705D02*
G75*
G02X71981000Y-62595000I2297753J-1928295D01*
G01*
X74593000Y-57963000D02*
X74593000Y-61829000D01*
X74593000Y-66218000D02*
X74593000Y-70083000D01*
X64773000Y-57963000D02*
X64773000Y-61829000D01*
X64773000Y-66218000D02*
X64773000Y-70083000D01*
X74593000Y-57963000D02*
X73008000Y-57963000D01*
X71358000Y-57963000D02*
X70508000Y-57963000D01*
X68858000Y-57963000D02*
X68008000Y-57963000D01*
X66358000Y-57963000D02*
X64773000Y-57963000D01*
X74593000Y-70083000D02*
X64773000Y-70083000D01*
X102925432Y-87030982D02*
G75*
G02X97401000Y-87032000I-2762432J1171982D01*
G01*
X97865247Y-83930705D02*
G75*
G02X102461000Y-83931000I2297753J-1928295D01*
G01*
X105073000Y-79299000D02*
X105073000Y-83165000D01*
X105073000Y-87554000D02*
X105073000Y-91419000D01*
X95253000Y-79299000D02*
X95253000Y-83165000D01*
X95253000Y-87554000D02*
X95253000Y-91419000D01*
X105073000Y-79299000D02*
X103488000Y-79299000D01*
X101838000Y-79299000D02*
X100988000Y-79299000D01*
X99338000Y-79299000D02*
X98488000Y-79299000D01*
X96838000Y-79299000D02*
X95253000Y-79299000D01*
X105073000Y-91419000D02*
X95253000Y-91419000D01*
X59249000Y-67497000D02*
X61909000Y-67497000D01*
X59249000Y-59817000D02*
X59249000Y-67497000D01*
X61909000Y-59817000D02*
X61909000Y-67497000D01*
X59249000Y-59817000D02*
X61909000Y-59817000D01*
X59249000Y-58547000D02*
X59249000Y-57217000D01*
X59249000Y-57217000D02*
X60579000Y-57217000D01*
X139005000Y-104073000D02*
X141665000Y-104073000D01*
X139005000Y-91313000D02*
X139005000Y-104073000D01*
X141665000Y-91313000D02*
X141665000Y-104073000D01*
X139005000Y-91313000D02*
X141665000Y-91313000D01*
X139005000Y-90043000D02*
X139005000Y-88713000D01*
X139005000Y-88713000D02*
X140335000Y-88713000D01*
X59249000Y-85277000D02*
X61909000Y-85277000D01*
X59249000Y-77597000D02*
X59249000Y-85277000D01*
X61909000Y-77597000D02*
X61909000Y-85277000D01*
X59249000Y-77597000D02*
X61909000Y-77597000D01*
X59249000Y-76327000D02*
X59249000Y-74997000D01*
X59249000Y-74997000D02*
X60579000Y-74997000D01*
X141665000Y-57217000D02*
X139005000Y-57217000D01*
X141665000Y-64897000D02*
X141665000Y-57217000D01*
X139005000Y-64897000D02*
X139005000Y-57217000D01*
X141665000Y-64897000D02*
X139005000Y-64897000D01*
X141665000Y-66167000D02*
X141665000Y-67497000D01*
X141665000Y-67497000D02*
X140335000Y-67497000D01*
X139005000Y-86293000D02*
X141665000Y-86293000D01*
X139005000Y-73533000D02*
X139005000Y-86293000D01*
X141665000Y-73533000D02*
X141665000Y-86293000D01*
X139005000Y-73533000D02*
X141665000Y-73533000D01*
X139005000Y-72263000D02*
X139005000Y-70933000D01*
X139005000Y-70933000D02*
X140335000Y-70933000D01*
D13*
X153035000Y-182689500D02*
X153035000Y-172656500D01*
X153035000Y-172656500D02*
X142621000Y-172656500D01*
X153035000Y-182689500D02*
X142621000Y-182689500D01*
X119253000Y-177673000D02*
X119253000Y-181102000D01*
X119253000Y-181102000D02*
X121793000Y-181102000D01*
X119253000Y-177673000D02*
X119253000Y-174244000D01*
X119253000Y-174244000D02*
X121793000Y-174244000D01*
X142621000Y-187833000D02*
X142621000Y-167513000D01*
X121793000Y-187833000D02*
X121793000Y-167513000D01*
X120142000Y-168656000D02*
X144018000Y-168656000D01*
X120396000Y-186690000D02*
X144272000Y-186690000D01*
X153035000Y-203771500D02*
X153035000Y-193738500D01*
X153035000Y-193738500D02*
X142621000Y-193738500D01*
X153035000Y-203771500D02*
X142621000Y-203771500D01*
X119253000Y-198755000D02*
X119253000Y-202184000D01*
X119253000Y-202184000D02*
X121793000Y-202184000D01*
X119253000Y-198755000D02*
X119253000Y-195326000D01*
X119253000Y-195326000D02*
X121793000Y-195326000D01*
X142621000Y-208915000D02*
X142621000Y-188595000D01*
X121793000Y-208915000D02*
X121793000Y-188595000D01*
X120142000Y-189738000D02*
X144018000Y-189738000D01*
X120396000Y-207772000D02*
X144272000Y-207772000D01*
D12*
X58995000Y-129727000D02*
X61655000Y-129727000D01*
X58995000Y-122047000D02*
X58995000Y-129727000D01*
X61655000Y-122047000D02*
X61655000Y-129727000D01*
X58995000Y-122047000D02*
X61655000Y-122047000D01*
X58995000Y-120777000D02*
X58995000Y-119447000D01*
X58995000Y-119447000D02*
X60325000Y-119447000D01*
X138751000Y-148523000D02*
X141411000Y-148523000D01*
X138751000Y-135763000D02*
X138751000Y-148523000D01*
X141411000Y-135763000D02*
X141411000Y-148523000D01*
X138751000Y-135763000D02*
X141411000Y-135763000D01*
X138751000Y-134493000D02*
X138751000Y-133163000D01*
X138751000Y-133163000D02*
X140081000Y-133163000D01*
X58995000Y-147507000D02*
X61655000Y-147507000D01*
X58995000Y-139827000D02*
X58995000Y-147507000D01*
X61655000Y-139827000D02*
X61655000Y-147507000D01*
X58995000Y-139827000D02*
X61655000Y-139827000D01*
X58995000Y-138557000D02*
X58995000Y-137227000D01*
X58995000Y-137227000D02*
X60325000Y-137227000D01*
X141411000Y-119447000D02*
X138751000Y-119447000D01*
X141411000Y-127127000D02*
X141411000Y-119447000D01*
X138751000Y-127127000D02*
X138751000Y-119447000D01*
X141411000Y-127127000D02*
X138751000Y-127127000D01*
X141411000Y-128397000D02*
X141411000Y-129727000D01*
X141411000Y-129727000D02*
X140081000Y-129727000D01*
X138751000Y-166303000D02*
X141411000Y-166303000D01*
X138751000Y-153543000D02*
X138751000Y-166303000D01*
X141411000Y-153543000D02*
X141411000Y-166303000D01*
X138751000Y-153543000D02*
X141411000Y-153543000D01*
X138751000Y-152273000D02*
X138751000Y-150943000D01*
X138751000Y-150943000D02*
X140081000Y-150943000D01*
D13*
X47498000Y-193738500D02*
X47498000Y-203771500D01*
X47498000Y-203771500D02*
X57912000Y-203771500D01*
X47498000Y-193738500D02*
X57912000Y-193738500D01*
X81280000Y-198755000D02*
X81280000Y-195326000D01*
X81280000Y-195326000D02*
X78740000Y-195326000D01*
X81280000Y-198755000D02*
X81280000Y-202184000D01*
X81280000Y-202184000D02*
X78740000Y-202184000D01*
X57912000Y-188595000D02*
X57912000Y-208915000D01*
X78740000Y-188595000D02*
X78740000Y-208915000D01*
X80391000Y-207772000D02*
X56515000Y-207772000D01*
X80137000Y-189738000D02*
X56261000Y-189738000D01*
D12*
X63199000Y-175415000D02*
X54399000Y-175415000D01*
X54399000Y-175415000D02*
X54399000Y-166215000D01*
X69099000Y-172715000D02*
X69099000Y-175415000D01*
X69099000Y-175415000D02*
X67199000Y-175415000D01*
X54399000Y-166215000D02*
X69099000Y-166215000D01*
X69099000Y-166215000D02*
X69099000Y-168815000D01*
X133913432Y-87030982D02*
G75*
G02X128389000Y-87032000I-2762432J1171982D01*
G01*
X128853247Y-83930705D02*
G75*
G02X133449000Y-83931000I2297753J-1928295D01*
G01*
X136061000Y-79299000D02*
X136061000Y-83165000D01*
X136061000Y-87554000D02*
X136061000Y-91419000D01*
X126241000Y-79299000D02*
X126241000Y-83165000D01*
X126241000Y-87554000D02*
X126241000Y-91419000D01*
X136061000Y-79299000D02*
X134476000Y-79299000D01*
X132826000Y-79299000D02*
X131976000Y-79299000D01*
X130326000Y-79299000D02*
X129476000Y-79299000D01*
X127826000Y-79299000D02*
X126241000Y-79299000D01*
X136061000Y-91419000D02*
X126241000Y-91419000D01*
D13*
X112995000Y-175500000D02*
X111795000Y-175500000D01*
X111795000Y-173750000D02*
X112995000Y-173750000D01*
X93740000Y-189449000D02*
X93740000Y-188249000D01*
X95490000Y-188249000D02*
X95490000Y-189449000D01*
X87976000Y-195058000D02*
X86776000Y-195058000D01*
X86776000Y-193308000D02*
X87976000Y-193308000D01*
X67070000Y-129505000D02*
X67070000Y-128305000D01*
X68820000Y-128305000D02*
X68820000Y-129505000D01*
X126076000Y-150989000D02*
X124876000Y-150989000D01*
X124876000Y-149239000D02*
X126076000Y-149239000D01*
X103286000Y-180100000D02*
X104486000Y-180100000D01*
X104486000Y-181850000D02*
X103286000Y-181850000D01*
X106715000Y-130443000D02*
X107915000Y-130443000D01*
X107915000Y-132193000D02*
X106715000Y-132193000D01*
D12*
X102793432Y-65694982D02*
G75*
G02X97269000Y-65696000I-2762432J1171982D01*
G01*
X97733247Y-62594705D02*
G75*
G02X102329000Y-62595000I2297753J-1928295D01*
G01*
X104941000Y-57963000D02*
X104941000Y-61829000D01*
X104941000Y-66218000D02*
X104941000Y-70083000D01*
X95121000Y-57963000D02*
X95121000Y-61829000D01*
X95121000Y-66218000D02*
X95121000Y-70083000D01*
X104941000Y-57963000D02*
X103356000Y-57963000D01*
X101706000Y-57963000D02*
X100856000Y-57963000D01*
X99206000Y-57963000D02*
X98356000Y-57963000D01*
X96706000Y-57963000D02*
X95121000Y-57963000D01*
X104941000Y-70083000D02*
X95121000Y-70083000D01*
D13*
X108331000Y-217297000D02*
X91821000Y-217297000D01*
X91821000Y-217297000D02*
X90551000Y-217297000D01*
X90424000Y-217678000D02*
X90424000Y-199898000D01*
X90551000Y-200279000D02*
X108331000Y-200279000D01*
X108458000Y-199898000D02*
X108458000Y-217678000D01*
X124841000Y-94107000D02*
X124841000Y-100203000D01*
X137287000Y-94107000D02*
X137287000Y-100203000D01*
X124079000Y-93853000D02*
X138303000Y-93853000D01*
X138303000Y-100457000D02*
X124079000Y-100457000D01*
X63373000Y-94107000D02*
X63373000Y-100203000D01*
X75819000Y-94107000D02*
X75819000Y-100203000D01*
X62611000Y-93853000D02*
X76835000Y-93853000D01*
X76835000Y-100457000D02*
X62611000Y-100457000D01*
X93853000Y-94107000D02*
X93853000Y-100203000D01*
X106299000Y-94107000D02*
X106299000Y-100203000D01*
X93091000Y-93853000D02*
X107315000Y-93853000D01*
X107315000Y-100457000D02*
X93091000Y-100457000D01*
D12*
X72445432Y-87030982D02*
G75*
G02X66921000Y-87032000I-2762432J1171982D01*
G01*
X67385247Y-83930705D02*
G75*
G02X71981000Y-83931000I2297753J-1928295D01*
G01*
X74593000Y-79299000D02*
X74593000Y-83165000D01*
X74593000Y-87554000D02*
X74593000Y-91419000D01*
X64773000Y-79299000D02*
X64773000Y-83165000D01*
X64773000Y-87554000D02*
X64773000Y-91419000D01*
X74593000Y-79299000D02*
X73008000Y-79299000D01*
X71358000Y-79299000D02*
X70508000Y-79299000D01*
X68858000Y-79299000D02*
X68008000Y-79299000D01*
X66358000Y-79299000D02*
X64773000Y-79299000D01*
X74593000Y-91419000D02*
X64773000Y-91419000D01*
D13*
X72771000Y-179959000D02*
X72771000Y-185039000D01*
X72771000Y-185039000D02*
X68199000Y-185039000D01*
X68199000Y-185039000D02*
X68199000Y-179959000D01*
X68199000Y-179959000D02*
X72771000Y-179959000D01*
X71247000Y-179959000D02*
X71247000Y-180467000D01*
X71247000Y-180467000D02*
X69977000Y-180467000D01*
X69977000Y-180467000D02*
X69977000Y-179959000D01*
X76454000Y-121793000D02*
X76454000Y-116713000D01*
X76454000Y-116713000D02*
X81026000Y-116713000D01*
X81026000Y-116713000D02*
X81026000Y-121793000D01*
X81026000Y-121793000D02*
X76454000Y-121793000D01*
X77978000Y-121793000D02*
X77978000Y-121285000D01*
X77978000Y-121285000D02*
X79248000Y-121285000D01*
X79248000Y-121285000D02*
X79248000Y-121793000D01*
X107696000Y-194818000D02*
X107696000Y-189738000D01*
X107696000Y-189738000D02*
X112268000Y-189738000D01*
X112268000Y-189738000D02*
X112268000Y-194818000D01*
X112268000Y-194818000D02*
X107696000Y-194818000D01*
X109220000Y-194818000D02*
X109220000Y-194310000D01*
X109220000Y-194310000D02*
X110490000Y-194310000D01*
X110490000Y-194310000D02*
X110490000Y-194818000D01*
X75819000Y-128651000D02*
X75819000Y-133731000D01*
X75819000Y-133731000D02*
X71247000Y-133731000D01*
X71247000Y-133731000D02*
X71247000Y-128651000D01*
X71247000Y-128651000D02*
X75819000Y-128651000D01*
X74295000Y-128651000D02*
X74295000Y-129159000D01*
X74295000Y-129159000D02*
X73025000Y-129159000D01*
X73025000Y-129159000D02*
X73025000Y-128651000D01*
X126065381Y-158277500D02*
X120985381Y-158277500D01*
X120985381Y-158277500D02*
X120985381Y-153705500D01*
X120985381Y-153705500D02*
X126065381Y-153705500D01*
X126065381Y-153705500D02*
X126065381Y-158277500D01*
X126065381Y-156753500D02*
X125557381Y-156753500D01*
X125557381Y-156753500D02*
X125557381Y-155483500D01*
X125557381Y-155483500D02*
X126065381Y-155483500D01*
X113030000Y-176911000D02*
X113030000Y-181991000D01*
X113030000Y-181991000D02*
X108458000Y-181991000D01*
X108458000Y-181991000D02*
X108458000Y-176911000D01*
X108458000Y-176911000D02*
X113030000Y-176911000D01*
X111506000Y-176911000D02*
X111506000Y-177419000D01*
X111506000Y-177419000D02*
X110236000Y-177419000D01*
X110236000Y-177419000D02*
X110236000Y-176911000D01*
X86854000Y-186629500D02*
X91934000Y-186629500D01*
X91934000Y-186629500D02*
X91934000Y-191201500D01*
X91934000Y-191201500D02*
X86854000Y-191201500D01*
X86854000Y-191201500D02*
X86854000Y-186629500D01*
X86854000Y-188153500D02*
X87362000Y-188153500D01*
X87362000Y-188153500D02*
X87362000Y-189423500D01*
X87362000Y-189423500D02*
X86854000Y-189423500D01*
X90424000Y-149479000D02*
X90424000Y-148717000D01*
X90424000Y-148717000D02*
X91948000Y-148717000D01*
X91948000Y-148717000D02*
X91948000Y-149479000D01*
X88900000Y-138303000D02*
X93472000Y-138303000D01*
X93472000Y-138303000D02*
X93472000Y-149479000D01*
X93472000Y-149479000D02*
X88900000Y-149479000D01*
X88900000Y-149479000D02*
X88900000Y-138303000D01*
X114935000Y-139065000D02*
X109855000Y-139065000D01*
X109855000Y-139065000D02*
X109855000Y-134493000D01*
X109855000Y-134493000D02*
X114935000Y-134493000D01*
X114935000Y-134493000D02*
X114935000Y-139065000D01*
X114935000Y-137541000D02*
X114427000Y-137541000D01*
X114427000Y-137541000D02*
X114427000Y-136271000D01*
X114427000Y-136271000D02*
X114935000Y-136271000D01*
D12*
X105752000Y-195064000D02*
X105752000Y-194064000D01*
X104052000Y-194064000D02*
X104052000Y-195064000D01*
X114927000Y-187745000D02*
X113927000Y-187745000D01*
X113927000Y-189445000D02*
X114927000Y-189445000D01*
X90543000Y-182919000D02*
X89543000Y-182919000D01*
X89543000Y-184619000D02*
X90543000Y-184619000D01*
X93083000Y-193460000D02*
X92083000Y-193460000D01*
X92083000Y-195160000D02*
X93083000Y-195160000D01*
X117721000Y-177839000D02*
X116721000Y-177839000D01*
X116721000Y-179539000D02*
X117721000Y-179539000D01*
X105799000Y-183857000D02*
X106799000Y-183857000D01*
X106799000Y-182157000D02*
X105799000Y-182157000D01*
X78398000Y-128659000D02*
X78398000Y-129659000D01*
X80098000Y-129659000D02*
X80098000Y-128659000D01*
X117975000Y-139104000D02*
X116975000Y-139104000D01*
X116975000Y-140804000D02*
X117975000Y-140804000D01*
X106815000Y-134454000D02*
X107815000Y-134454000D01*
X107815000Y-132754000D02*
X106815000Y-132754000D01*
X122436000Y-162394000D02*
X123436000Y-162394000D01*
X123436000Y-160694000D02*
X122436000Y-160694000D01*
X119165000Y-150884000D02*
X119165000Y-151884000D01*
X120865000Y-151884000D02*
X120865000Y-150884000D01*
X88861000Y-152011000D02*
X88861000Y-151011000D01*
X87161000Y-151011000D02*
X87161000Y-152011000D01*
X72890000Y-177966000D02*
X71890000Y-177966000D01*
X71890000Y-179666000D02*
X72890000Y-179666000D01*
X74637000Y-120388000D02*
X74637000Y-119388000D01*
X72937000Y-119388000D02*
X72937000Y-120388000D01*
X61909000Y-92269000D02*
X59249000Y-92269000D01*
X61909000Y-99949000D02*
X61909000Y-92269000D01*
X59249000Y-99949000D02*
X59249000Y-92269000D01*
X61909000Y-99949000D02*
X59249000Y-99949000D01*
X61909000Y-101219000D02*
X61909000Y-102549000D01*
X61909000Y-102549000D02*
X60579000Y-102549000D01*
X61655000Y-154499000D02*
X58995000Y-154499000D01*
X61655000Y-162179000D02*
X61655000Y-154499000D01*
X58995000Y-162179000D02*
X58995000Y-154499000D01*
X61655000Y-162179000D02*
X58995000Y-162179000D01*
X61655000Y-163449000D02*
X61655000Y-164779000D01*
X61655000Y-164779000D02*
X60325000Y-164779000D01*
X92491000Y-101355000D02*
X93691000Y-101355000D01*
X93691000Y-103115000D02*
X92491000Y-103115000D01*
X79625000Y-165739000D02*
X79625000Y-166139000D01*
X84205000Y-164969000D02*
X84205000Y-166139000D01*
X84205000Y-169549000D02*
X84205000Y-168379000D01*
X79625000Y-168779000D02*
X79625000Y-168379000D01*
X80395000Y-169549000D02*
X84205000Y-169549000D01*
X80395000Y-169549000D02*
X79625000Y-168779000D01*
X80395000Y-164969000D02*
X84205000Y-164969000D01*
X80395000Y-164969000D02*
X79625000Y-165739000D01*
X111895000Y-143217000D02*
X112895000Y-143217000D01*
X112895000Y-141517000D02*
X111895000Y-141517000D01*
X113827000Y-130565000D02*
X115027000Y-130565000D01*
X115027000Y-132325000D02*
X113827000Y-132325000D01*
X108449000Y-138719000D02*
X108449000Y-139919000D01*
X106689000Y-139919000D02*
X106689000Y-138719000D01*
X88655000Y-136236000D02*
X88655000Y-135036000D01*
X90415000Y-135036000D02*
X90415000Y-136236000D01*
D14*
X78283571Y-174604999D02*
X78307381Y-174628809D01*
X78331190Y-174700237D01*
X78331190Y-174747856D01*
X78307381Y-174819285D01*
X78259762Y-174866904D01*
X78212143Y-174890713D01*
X78116905Y-174914523D01*
X78045476Y-174914523D01*
X77950238Y-174890713D01*
X77902619Y-174866904D01*
X77855000Y-174819285D01*
X77831190Y-174747856D01*
X77831190Y-174700237D01*
X77855000Y-174628809D01*
X77878810Y-174604999D01*
X78331190Y-174128809D02*
X78331190Y-174414523D01*
X78331190Y-174271666D02*
X77831190Y-174271666D01*
X77902619Y-174319285D01*
X77950238Y-174366904D01*
X77974048Y-174414523D01*
X78378810Y-174033571D02*
X78378810Y-173652619D01*
X78331190Y-173533571D02*
X77831190Y-173533571D01*
X78331190Y-173247857D01*
X77831190Y-173247857D01*
X78069286Y-173009761D02*
X78069286Y-172843095D01*
X78331190Y-172771666D02*
X78331190Y-173009761D01*
X77831190Y-173009761D01*
X77831190Y-172771666D01*
X77855000Y-172295476D02*
X77831190Y-172343095D01*
X77831190Y-172414523D01*
X77855000Y-172485952D01*
X77902619Y-172533571D01*
X77950238Y-172557380D01*
X78045476Y-172581190D01*
X78116905Y-172581190D01*
X78212143Y-172557380D01*
X78259762Y-172533571D01*
X78307381Y-172485952D01*
X78331190Y-172414523D01*
X78331190Y-172366904D01*
X78307381Y-172295476D01*
X78283571Y-172271666D01*
X78116905Y-172271666D01*
X78116905Y-172366904D01*
X78331190Y-171795476D02*
X78331190Y-172081190D01*
X78331190Y-171938333D02*
X77831190Y-171938333D01*
X77902619Y-171985952D01*
X77950238Y-172033571D01*
X77974048Y-172081190D01*
D13*
X84304048Y-171670429D02*
X85065953Y-171670429D01*
X84685001Y-172051381D02*
X84685001Y-171289476D01*
D14*
X77109001Y-110795571D02*
X77085191Y-110819381D01*
X77013763Y-110843190D01*
X76966144Y-110843190D01*
X76894715Y-110819381D01*
X76847096Y-110771762D01*
X76823287Y-110724143D01*
X76799477Y-110628905D01*
X76799477Y-110557476D01*
X76823287Y-110462238D01*
X76847096Y-110414619D01*
X76894715Y-110367000D01*
X76966144Y-110343190D01*
X77013763Y-110343190D01*
X77085191Y-110367000D01*
X77109001Y-110390810D01*
X77585191Y-110843190D02*
X77299477Y-110843190D01*
X77442334Y-110843190D02*
X77442334Y-110343190D01*
X77394715Y-110414619D01*
X77347096Y-110462238D01*
X77299477Y-110486048D01*
X77680429Y-110890810D02*
X78061381Y-110890810D01*
X78180429Y-110843190D02*
X78180429Y-110343190D01*
X78466143Y-110843190D01*
X78466143Y-110343190D01*
X78704239Y-110581286D02*
X78870905Y-110581286D01*
X78942334Y-110843190D02*
X78704239Y-110843190D01*
X78704239Y-110343190D01*
X78942334Y-110343190D01*
X79418524Y-110367000D02*
X79370905Y-110343190D01*
X79299477Y-110343190D01*
X79228048Y-110367000D01*
X79180429Y-110414619D01*
X79156620Y-110462238D01*
X79132810Y-110557476D01*
X79132810Y-110628905D01*
X79156620Y-110724143D01*
X79180429Y-110771762D01*
X79228048Y-110819381D01*
X79299477Y-110843190D01*
X79347096Y-110843190D01*
X79418524Y-110819381D01*
X79442334Y-110795571D01*
X79442334Y-110628905D01*
X79347096Y-110628905D01*
X79632810Y-110390810D02*
X79656620Y-110367000D01*
X79704239Y-110343190D01*
X79823286Y-110343190D01*
X79870905Y-110367000D01*
X79894715Y-110390810D01*
X79918524Y-110438429D01*
X79918524Y-110486048D01*
X79894715Y-110557476D01*
X79609001Y-110843190D01*
X79918524Y-110843190D01*
D13*
X80494048Y-111599429D02*
X81255953Y-111599429D01*
X80875001Y-111980381D02*
X80875001Y-111218476D01*
D14*
X78283571Y-181208999D02*
X78307381Y-181232809D01*
X78331190Y-181304237D01*
X78331190Y-181351856D01*
X78307381Y-181423285D01*
X78259762Y-181470904D01*
X78212143Y-181494713D01*
X78116905Y-181518523D01*
X78045476Y-181518523D01*
X77950238Y-181494713D01*
X77902619Y-181470904D01*
X77855000Y-181423285D01*
X77831190Y-181351856D01*
X77831190Y-181304237D01*
X77855000Y-181232809D01*
X77878810Y-181208999D01*
X77878810Y-181018523D02*
X77855000Y-180994713D01*
X77831190Y-180947094D01*
X77831190Y-180828047D01*
X77855000Y-180780428D01*
X77878810Y-180756618D01*
X77926429Y-180732809D01*
X77974048Y-180732809D01*
X78045476Y-180756618D01*
X78331190Y-181042332D01*
X78331190Y-180732809D01*
X78378810Y-180637571D02*
X78378810Y-180256619D01*
X78331190Y-180137571D02*
X77831190Y-180137571D01*
X78331190Y-179851857D01*
X77831190Y-179851857D01*
X78069286Y-179613761D02*
X78069286Y-179447095D01*
X78331190Y-179375666D02*
X78331190Y-179613761D01*
X77831190Y-179613761D01*
X77831190Y-179375666D01*
X77855000Y-178899476D02*
X77831190Y-178947095D01*
X77831190Y-179018523D01*
X77855000Y-179089952D01*
X77902619Y-179137571D01*
X77950238Y-179161380D01*
X78045476Y-179185190D01*
X78116905Y-179185190D01*
X78212143Y-179161380D01*
X78259762Y-179137571D01*
X78307381Y-179089952D01*
X78331190Y-179018523D01*
X78331190Y-178970904D01*
X78307381Y-178899476D01*
X78283571Y-178875666D01*
X78116905Y-178875666D01*
X78116905Y-178970904D01*
X78331190Y-178399476D02*
X78331190Y-178685190D01*
X78331190Y-178542333D02*
X77831190Y-178542333D01*
X77902619Y-178589952D01*
X77950238Y-178637571D01*
X77974048Y-178685190D01*
D13*
X78764048Y-182040429D02*
X79525953Y-182040429D01*
X79145001Y-182421381D02*
X79145001Y-181659476D01*
D14*
X84348001Y-116637571D02*
X84324191Y-116661381D01*
X84252763Y-116685190D01*
X84205144Y-116685190D01*
X84133715Y-116661381D01*
X84086096Y-116613762D01*
X84062287Y-116566143D01*
X84038477Y-116470905D01*
X84038477Y-116399476D01*
X84062287Y-116304238D01*
X84086096Y-116256619D01*
X84133715Y-116209000D01*
X84205144Y-116185190D01*
X84252763Y-116185190D01*
X84324191Y-116209000D01*
X84348001Y-116232810D01*
X84538477Y-116232810D02*
X84562287Y-116209000D01*
X84609906Y-116185190D01*
X84728953Y-116185190D01*
X84776572Y-116209000D01*
X84800382Y-116232810D01*
X84824191Y-116280429D01*
X84824191Y-116328048D01*
X84800382Y-116399476D01*
X84514668Y-116685190D01*
X84824191Y-116685190D01*
X84919429Y-116732810D02*
X85300381Y-116732810D01*
X85419429Y-116685190D02*
X85419429Y-116185190D01*
X85705143Y-116685190D01*
X85705143Y-116185190D01*
X85943239Y-116423286D02*
X86109905Y-116423286D01*
X86181334Y-116685190D02*
X85943239Y-116685190D01*
X85943239Y-116185190D01*
X86181334Y-116185190D01*
X86657524Y-116209000D02*
X86609905Y-116185190D01*
X86538477Y-116185190D01*
X86467048Y-116209000D01*
X86419429Y-116256619D01*
X86395620Y-116304238D01*
X86371810Y-116399476D01*
X86371810Y-116470905D01*
X86395620Y-116566143D01*
X86419429Y-116613762D01*
X86467048Y-116661381D01*
X86538477Y-116685190D01*
X86586096Y-116685190D01*
X86657524Y-116661381D01*
X86681334Y-116637571D01*
X86681334Y-116470905D01*
X86586096Y-116470905D01*
X86871810Y-116232810D02*
X86895620Y-116209000D01*
X86943239Y-116185190D01*
X87062286Y-116185190D01*
X87109905Y-116209000D01*
X87133715Y-116232810D01*
X87157524Y-116280429D01*
X87157524Y-116328048D01*
X87133715Y-116399476D01*
X86848001Y-116685190D01*
X87157524Y-116685190D01*
D13*
X87806429Y-123419952D02*
X87806429Y-122658047D01*
X88187381Y-123038999D02*
X87425476Y-123038999D01*
D14*
X118923571Y-173068999D02*
X118947381Y-173092809D01*
X118971190Y-173164237D01*
X118971190Y-173211856D01*
X118947381Y-173283285D01*
X118899762Y-173330904D01*
X118852143Y-173354713D01*
X118756905Y-173378523D01*
X118685476Y-173378523D01*
X118590238Y-173354713D01*
X118542619Y-173330904D01*
X118495000Y-173283285D01*
X118471190Y-173211856D01*
X118471190Y-173164237D01*
X118495000Y-173092809D01*
X118518810Y-173068999D01*
X119018810Y-172973761D02*
X119018810Y-172592809D01*
X118923571Y-172188047D02*
X118947381Y-172211857D01*
X118971190Y-172283285D01*
X118971190Y-172330904D01*
X118947381Y-172402333D01*
X118899762Y-172449952D01*
X118852143Y-172473761D01*
X118756905Y-172497571D01*
X118685476Y-172497571D01*
X118590238Y-172473761D01*
X118542619Y-172449952D01*
X118495000Y-172402333D01*
X118471190Y-172330904D01*
X118471190Y-172283285D01*
X118495000Y-172211857D01*
X118518810Y-172188047D01*
X118971190Y-171735666D02*
X118971190Y-171973761D01*
X118471190Y-171973761D01*
X118709286Y-171568999D02*
X118709286Y-171402333D01*
X118971190Y-171330904D02*
X118971190Y-171568999D01*
X118471190Y-171568999D01*
X118471190Y-171330904D01*
X118828333Y-171140428D02*
X118828333Y-170902333D01*
X118971190Y-171188047D02*
X118471190Y-171021380D01*
X118971190Y-170854714D01*
X118971190Y-170688047D02*
X118471190Y-170688047D01*
X118971190Y-170402333D01*
X118471190Y-170402333D01*
X119018810Y-170283285D02*
X119018810Y-169902333D01*
X118971190Y-169783285D02*
X118471190Y-169783285D01*
X118971190Y-169545190D02*
X118471190Y-169545190D01*
X118971190Y-169259476D01*
X118471190Y-169259476D01*
X118971190Y-168759476D02*
X118971190Y-169045190D01*
X118971190Y-168902333D02*
X118471190Y-168902333D01*
X118542619Y-168949952D01*
X118590238Y-168997571D01*
X118614048Y-169045190D01*
X117272571Y-194782046D02*
X117296381Y-194805856D01*
X117320190Y-194877284D01*
X117320190Y-194924903D01*
X117296381Y-194996332D01*
X117248762Y-195043951D01*
X117201143Y-195067760D01*
X117105905Y-195091570D01*
X117034476Y-195091570D01*
X116939238Y-195067760D01*
X116891619Y-195043951D01*
X116844000Y-194996332D01*
X116820190Y-194924903D01*
X116820190Y-194877284D01*
X116844000Y-194805856D01*
X116867810Y-194782046D01*
X117367810Y-194686808D02*
X117367810Y-194305856D01*
X117320190Y-194186808D02*
X116820190Y-194186808D01*
X116820190Y-194067761D01*
X116844000Y-193996332D01*
X116891619Y-193948713D01*
X116939238Y-193924904D01*
X117034476Y-193901094D01*
X117105905Y-193901094D01*
X117201143Y-193924904D01*
X117248762Y-193948713D01*
X117296381Y-193996332D01*
X117320190Y-194067761D01*
X117320190Y-194186808D01*
X117320190Y-193686808D02*
X116820190Y-193686808D01*
X117320190Y-193162999D02*
X117082095Y-193329666D01*
X117320190Y-193448713D02*
X116820190Y-193448713D01*
X116820190Y-193258237D01*
X116844000Y-193210618D01*
X116867810Y-193186809D01*
X116915429Y-193162999D01*
X116986857Y-193162999D01*
X117034476Y-193186809D01*
X117058286Y-193210618D01*
X117082095Y-193258237D01*
X117082095Y-193448713D01*
X116820190Y-193020142D02*
X116820190Y-192734428D01*
X117320190Y-192877285D02*
X116820190Y-192877285D01*
X117082095Y-192472523D02*
X117320190Y-192472523D01*
X116820190Y-192639190D02*
X117082095Y-192472523D01*
X116820190Y-192305857D01*
X117367810Y-192258238D02*
X117367810Y-191877286D01*
X117320190Y-191758238D02*
X116820190Y-191758238D01*
X117320190Y-191520143D02*
X116820190Y-191520143D01*
X117320190Y-191234429D01*
X116820190Y-191234429D01*
X117320190Y-190734429D02*
X117320190Y-191020143D01*
X117320190Y-190877286D02*
X116820190Y-190877286D01*
X116891619Y-190924905D01*
X116939238Y-190972524D01*
X116963048Y-191020143D01*
X110510000Y-111176571D02*
X110486190Y-111200381D01*
X110414762Y-111224190D01*
X110367143Y-111224190D01*
X110295714Y-111200381D01*
X110248095Y-111152762D01*
X110224286Y-111105143D01*
X110200476Y-111009905D01*
X110200476Y-110938476D01*
X110224286Y-110843238D01*
X110248095Y-110795619D01*
X110295714Y-110748000D01*
X110367143Y-110724190D01*
X110414762Y-110724190D01*
X110486190Y-110748000D01*
X110510000Y-110771810D01*
X110605238Y-111271810D02*
X110986190Y-111271810D01*
X111105238Y-111224190D02*
X111105238Y-110724190D01*
X111105238Y-110962286D02*
X111390952Y-110962286D01*
X111390952Y-111224190D02*
X111390952Y-110724190D01*
X111724286Y-110724190D02*
X111819524Y-110724190D01*
X111867143Y-110748000D01*
X111914762Y-110795619D01*
X111938571Y-110890857D01*
X111938571Y-111057524D01*
X111914762Y-111152762D01*
X111867143Y-111200381D01*
X111819524Y-111224190D01*
X111724286Y-111224190D01*
X111676667Y-111200381D01*
X111629048Y-111152762D01*
X111605238Y-111057524D01*
X111605238Y-110890857D01*
X111629048Y-110795619D01*
X111676667Y-110748000D01*
X111724286Y-110724190D01*
X112390953Y-111224190D02*
X112152858Y-111224190D01*
X112152858Y-110724190D01*
X112557620Y-111224190D02*
X112557620Y-110724190D01*
X112676667Y-110724190D01*
X112748096Y-110748000D01*
X112795715Y-110795619D01*
X112819524Y-110843238D01*
X112843334Y-110938476D01*
X112843334Y-111009905D01*
X112819524Y-111105143D01*
X112795715Y-111152762D01*
X112748096Y-111200381D01*
X112676667Y-111224190D01*
X112557620Y-111224190D01*
X113319524Y-111224190D02*
X113033810Y-111224190D01*
X113176667Y-111224190D02*
X113176667Y-110724190D01*
X113129048Y-110795619D01*
X113081429Y-110843238D01*
X113033810Y-110867048D01*
X108097000Y-117272571D02*
X108073190Y-117296381D01*
X108001762Y-117320190D01*
X107954143Y-117320190D01*
X107882714Y-117296381D01*
X107835095Y-117248762D01*
X107811286Y-117201143D01*
X107787476Y-117105905D01*
X107787476Y-117034476D01*
X107811286Y-116939238D01*
X107835095Y-116891619D01*
X107882714Y-116844000D01*
X107954143Y-116820190D01*
X108001762Y-116820190D01*
X108073190Y-116844000D01*
X108097000Y-116867810D01*
X108192238Y-117367810D02*
X108573190Y-117367810D01*
X108692238Y-117320190D02*
X108692238Y-116820190D01*
X108692238Y-117058286D02*
X108977952Y-117058286D01*
X108977952Y-117320190D02*
X108977952Y-116820190D01*
X109311286Y-116820190D02*
X109406524Y-116820190D01*
X109454143Y-116844000D01*
X109501762Y-116891619D01*
X109525571Y-116986857D01*
X109525571Y-117153524D01*
X109501762Y-117248762D01*
X109454143Y-117296381D01*
X109406524Y-117320190D01*
X109311286Y-117320190D01*
X109263667Y-117296381D01*
X109216048Y-117248762D01*
X109192238Y-117153524D01*
X109192238Y-116986857D01*
X109216048Y-116891619D01*
X109263667Y-116844000D01*
X109311286Y-116820190D01*
X109977953Y-117320190D02*
X109739858Y-117320190D01*
X109739858Y-116820190D01*
X110144620Y-117320190D02*
X110144620Y-116820190D01*
X110263667Y-116820190D01*
X110335096Y-116844000D01*
X110382715Y-116891619D01*
X110406524Y-116939238D01*
X110430334Y-117034476D01*
X110430334Y-117105905D01*
X110406524Y-117201143D01*
X110382715Y-117248762D01*
X110335096Y-117296381D01*
X110263667Y-117320190D01*
X110144620Y-117320190D01*
X110620810Y-116867810D02*
X110644620Y-116844000D01*
X110692239Y-116820190D01*
X110811286Y-116820190D01*
X110858905Y-116844000D01*
X110882715Y-116867810D01*
X110906524Y-116915429D01*
X110906524Y-116963048D01*
X110882715Y-117034476D01*
X110597001Y-117320190D01*
X110906524Y-117320190D01*
X105739525Y-111176571D02*
X105715715Y-111200381D01*
X105644287Y-111224190D01*
X105596668Y-111224190D01*
X105525239Y-111200381D01*
X105477620Y-111152762D01*
X105453811Y-111105143D01*
X105430001Y-111009905D01*
X105430001Y-110938476D01*
X105453811Y-110843238D01*
X105477620Y-110795619D01*
X105525239Y-110748000D01*
X105596668Y-110724190D01*
X105644287Y-110724190D01*
X105715715Y-110748000D01*
X105739525Y-110771810D01*
X105834763Y-111271810D02*
X106215715Y-111271810D01*
X106572858Y-111224190D02*
X106334763Y-111224190D01*
X106334763Y-110724190D01*
X106739525Y-111224190D02*
X106739525Y-110724190D01*
X106930001Y-110724190D01*
X106977620Y-110748000D01*
X107001429Y-110771810D01*
X107025239Y-110819429D01*
X107025239Y-110890857D01*
X107001429Y-110938476D01*
X106977620Y-110962286D01*
X106930001Y-110986095D01*
X106739525Y-110986095D01*
X107406191Y-110962286D02*
X107239525Y-110962286D01*
X107239525Y-111224190D02*
X107239525Y-110724190D01*
X107477620Y-110724190D01*
X107930000Y-111224190D02*
X107644286Y-111224190D01*
X107787143Y-111224190D02*
X107787143Y-110724190D01*
X107739524Y-110795619D01*
X107691905Y-110843238D01*
X107644286Y-110867048D01*
X103366191Y-117272571D02*
X103342381Y-117296381D01*
X103270953Y-117320190D01*
X103223334Y-117320190D01*
X103151905Y-117296381D01*
X103104286Y-117248762D01*
X103080477Y-117201143D01*
X103056667Y-117105905D01*
X103056667Y-117034476D01*
X103080477Y-116939238D01*
X103104286Y-116891619D01*
X103151905Y-116844000D01*
X103223334Y-116820190D01*
X103270953Y-116820190D01*
X103342381Y-116844000D01*
X103366191Y-116867810D01*
X103461429Y-117367810D02*
X103842381Y-117367810D01*
X103937619Y-117296381D02*
X104009048Y-117320190D01*
X104128095Y-117320190D01*
X104175714Y-117296381D01*
X104199524Y-117272571D01*
X104223333Y-117224952D01*
X104223333Y-117177333D01*
X104199524Y-117129714D01*
X104175714Y-117105905D01*
X104128095Y-117082095D01*
X104032857Y-117058286D01*
X103985238Y-117034476D01*
X103961429Y-117010667D01*
X103937619Y-116963048D01*
X103937619Y-116915429D01*
X103961429Y-116867810D01*
X103985238Y-116844000D01*
X104032857Y-116820190D01*
X104151905Y-116820190D01*
X104223333Y-116844000D01*
X104437619Y-117320190D02*
X104437619Y-116820190D01*
X104437619Y-117058286D02*
X104723333Y-117058286D01*
X104723333Y-117320190D02*
X104723333Y-116820190D01*
X105223333Y-117320190D02*
X104937619Y-117320190D01*
X105080476Y-117320190D02*
X105080476Y-116820190D01*
X105032857Y-116891619D01*
X104985238Y-116939238D01*
X104937619Y-116963048D01*
X80950571Y-135782618D02*
X80974381Y-135806428D01*
X80998190Y-135877856D01*
X80998190Y-135925475D01*
X80974381Y-135996904D01*
X80926762Y-136044523D01*
X80879143Y-136068332D01*
X80783905Y-136092142D01*
X80712476Y-136092142D01*
X80617238Y-136068332D01*
X80569619Y-136044523D01*
X80522000Y-135996904D01*
X80498190Y-135925475D01*
X80498190Y-135877856D01*
X80522000Y-135806428D01*
X80545810Y-135782618D01*
X81045810Y-135687380D02*
X81045810Y-135306428D01*
X80974381Y-135211190D02*
X80998190Y-135139761D01*
X80998190Y-135020714D01*
X80974381Y-134973095D01*
X80950571Y-134949285D01*
X80902952Y-134925476D01*
X80855333Y-134925476D01*
X80807714Y-134949285D01*
X80783905Y-134973095D01*
X80760095Y-135020714D01*
X80736286Y-135115952D01*
X80712476Y-135163571D01*
X80688667Y-135187380D01*
X80641048Y-135211190D01*
X80593429Y-135211190D01*
X80545810Y-135187380D01*
X80522000Y-135163571D01*
X80498190Y-135115952D01*
X80498190Y-134996904D01*
X80522000Y-134925476D01*
X80498190Y-134711190D02*
X80902952Y-134711190D01*
X80950571Y-134687381D01*
X80974381Y-134663571D01*
X80998190Y-134615952D01*
X80998190Y-134520714D01*
X80974381Y-134473095D01*
X80950571Y-134449286D01*
X80902952Y-134425476D01*
X80498190Y-134425476D01*
X80974381Y-134211190D02*
X80998190Y-134139761D01*
X80998190Y-134020714D01*
X80974381Y-133973095D01*
X80950571Y-133949285D01*
X80902952Y-133925476D01*
X80855333Y-133925476D01*
X80807714Y-133949285D01*
X80783905Y-133973095D01*
X80760095Y-134020714D01*
X80736286Y-134115952D01*
X80712476Y-134163571D01*
X80688667Y-134187380D01*
X80641048Y-134211190D01*
X80593429Y-134211190D01*
X80545810Y-134187380D01*
X80522000Y-134163571D01*
X80498190Y-134115952D01*
X80498190Y-133996904D01*
X80522000Y-133925476D01*
X80498190Y-133782619D02*
X80498190Y-133496905D01*
X80998190Y-133639762D02*
X80498190Y-133639762D01*
X80855333Y-133354048D02*
X80855333Y-133115953D01*
X80998190Y-133401667D02*
X80498190Y-133235000D01*
X80998190Y-133068334D01*
X80998190Y-132901667D02*
X80498190Y-132901667D01*
X80998190Y-132663572D02*
X80498190Y-132663572D01*
X80998190Y-132377858D01*
X80498190Y-132377858D01*
X80998190Y-131877858D02*
X80998190Y-132163572D01*
X80998190Y-132020715D02*
X80498190Y-132020715D01*
X80569619Y-132068334D01*
X80617238Y-132115953D01*
X80641048Y-132163572D01*
X95233571Y-141461999D02*
X95257381Y-141485809D01*
X95281190Y-141557237D01*
X95281190Y-141604856D01*
X95257381Y-141676285D01*
X95209762Y-141723904D01*
X95162143Y-141747713D01*
X95066905Y-141771523D01*
X94995476Y-141771523D01*
X94900238Y-141747713D01*
X94852619Y-141723904D01*
X94805000Y-141676285D01*
X94781190Y-141604856D01*
X94781190Y-141557237D01*
X94805000Y-141485809D01*
X94828810Y-141461999D01*
X95328810Y-141366761D02*
X95328810Y-140985809D01*
X94781190Y-140938190D02*
X95281190Y-140771523D01*
X94781190Y-140604857D01*
X95233571Y-140152476D02*
X95257381Y-140176286D01*
X95281190Y-140247714D01*
X95281190Y-140295333D01*
X95257381Y-140366762D01*
X95209762Y-140414381D01*
X95162143Y-140438190D01*
X95066905Y-140462000D01*
X94995476Y-140462000D01*
X94900238Y-140438190D01*
X94852619Y-140414381D01*
X94805000Y-140366762D01*
X94781190Y-140295333D01*
X94781190Y-140247714D01*
X94805000Y-140176286D01*
X94828810Y-140152476D01*
X94781190Y-139842952D02*
X94781190Y-139747714D01*
X94805000Y-139700095D01*
X94852619Y-139652476D01*
X94947857Y-139628667D01*
X95114524Y-139628667D01*
X95209762Y-139652476D01*
X95257381Y-139700095D01*
X95281190Y-139747714D01*
X95281190Y-139842952D01*
X95257381Y-139890571D01*
X95209762Y-139938190D01*
X95114524Y-139962000D01*
X94947857Y-139962000D01*
X94852619Y-139938190D01*
X94805000Y-139890571D01*
X94781190Y-139842952D01*
X95281190Y-139152476D02*
X95281190Y-139438190D01*
X95281190Y-139295333D02*
X94781190Y-139295333D01*
X94852619Y-139342952D01*
X94900238Y-139390571D01*
X94924048Y-139438190D01*
X123797190Y-64980142D02*
X123297190Y-64980142D01*
X123297190Y-64861095D01*
X123321000Y-64789666D01*
X123368619Y-64742047D01*
X123416238Y-64718238D01*
X123511476Y-64694428D01*
X123582905Y-64694428D01*
X123678143Y-64718238D01*
X123725762Y-64742047D01*
X123773381Y-64789666D01*
X123797190Y-64861095D01*
X123797190Y-64980142D01*
X123654333Y-64503952D02*
X123654333Y-64265857D01*
X123797190Y-64551571D02*
X123297190Y-64384904D01*
X123797190Y-64218238D01*
X123797190Y-64051571D02*
X123297190Y-64051571D01*
X123654333Y-63884905D01*
X123297190Y-63718238D01*
X123797190Y-63718238D01*
X123797190Y-63480142D02*
X123297190Y-63480142D01*
X123297190Y-63289666D01*
X123321000Y-63242047D01*
X123344810Y-63218238D01*
X123392429Y-63194428D01*
X123463857Y-63194428D01*
X123511476Y-63218238D01*
X123535286Y-63242047D01*
X123559095Y-63289666D01*
X123559095Y-63480142D01*
X123535286Y-62980142D02*
X123535286Y-62813476D01*
X123797190Y-62742047D02*
X123797190Y-62980142D01*
X123297190Y-62980142D01*
X123297190Y-62742047D01*
X123797190Y-62527761D02*
X123297190Y-62527761D01*
X123797190Y-62242047D01*
X123297190Y-62242047D01*
X123797190Y-61742047D02*
X123797190Y-62027761D01*
X123797190Y-61884904D02*
X123297190Y-61884904D01*
X123368619Y-61932523D01*
X123416238Y-61980142D01*
X123440048Y-62027761D01*
X63218190Y-182423475D02*
X62718190Y-182423475D01*
X62718190Y-182304428D01*
X62742000Y-182232999D01*
X62789619Y-182185380D01*
X62837238Y-182161571D01*
X62932476Y-182137761D01*
X63003905Y-182137761D01*
X63099143Y-182161571D01*
X63146762Y-182185380D01*
X63194381Y-182232999D01*
X63218190Y-182304428D01*
X63218190Y-182423475D01*
X63265810Y-182042523D02*
X63265810Y-181661571D01*
X63218190Y-181542523D02*
X62718190Y-181542523D01*
X63218190Y-181304428D02*
X62718190Y-181304428D01*
X63218190Y-181018714D01*
X62718190Y-181018714D01*
X63218190Y-180518714D02*
X63218190Y-180804428D01*
X63218190Y-180661571D02*
X62718190Y-180661571D01*
X62789619Y-180709190D01*
X62837238Y-180756809D01*
X62861048Y-180804428D01*
X99373667Y-107945190D02*
X99373667Y-107445190D01*
X99492714Y-107445190D01*
X99564143Y-107469000D01*
X99611762Y-107516619D01*
X99635571Y-107564238D01*
X99659381Y-107659476D01*
X99659381Y-107730905D01*
X99635571Y-107826143D01*
X99611762Y-107873762D01*
X99564143Y-107921381D01*
X99492714Y-107945190D01*
X99373667Y-107945190D01*
X99754619Y-107992810D02*
X100135571Y-107992810D01*
X100349857Y-107445190D02*
X100445095Y-107445190D01*
X100492714Y-107469000D01*
X100540333Y-107516619D01*
X100564142Y-107611857D01*
X100564142Y-107778524D01*
X100540333Y-107873762D01*
X100492714Y-107921381D01*
X100445095Y-107945190D01*
X100349857Y-107945190D01*
X100302238Y-107921381D01*
X100254619Y-107873762D01*
X100230809Y-107778524D01*
X100230809Y-107611857D01*
X100254619Y-107516619D01*
X100302238Y-107469000D01*
X100349857Y-107445190D01*
X100778429Y-107945190D02*
X100778429Y-107445190D01*
X101064143Y-107945190D01*
X101064143Y-107445190D01*
X101564143Y-107945190D02*
X101278429Y-107945190D01*
X101421286Y-107945190D02*
X101421286Y-107445190D01*
X101373667Y-107516619D01*
X101326048Y-107564238D01*
X101278429Y-107588048D01*
X77297286Y-64037286D02*
X77297286Y-64203952D01*
X77559190Y-64203952D02*
X77059190Y-64203952D01*
X77059190Y-63965857D01*
X77559190Y-63775381D02*
X77059190Y-63775381D01*
X77416333Y-63608715D01*
X77059190Y-63442048D01*
X77559190Y-63442048D01*
X77059190Y-63108714D02*
X77059190Y-63013476D01*
X77083000Y-62965857D01*
X77130619Y-62918238D01*
X77225857Y-62894429D01*
X77392524Y-62894429D01*
X77487762Y-62918238D01*
X77535381Y-62965857D01*
X77559190Y-63013476D01*
X77559190Y-63108714D01*
X77535381Y-63156333D01*
X77487762Y-63203952D01*
X77392524Y-63227762D01*
X77225857Y-63227762D01*
X77130619Y-63203952D01*
X77083000Y-63156333D01*
X77059190Y-63108714D01*
X77559190Y-62680142D02*
X77059190Y-62680142D01*
X77059190Y-62561095D01*
X77083000Y-62489666D01*
X77130619Y-62442047D01*
X77178238Y-62418238D01*
X77273476Y-62394428D01*
X77344905Y-62394428D01*
X77440143Y-62418238D01*
X77487762Y-62442047D01*
X77535381Y-62489666D01*
X77559190Y-62561095D01*
X77559190Y-62680142D01*
X77559190Y-61918238D02*
X77559190Y-62203952D01*
X77559190Y-62061095D02*
X77059190Y-62061095D01*
X77130619Y-62108714D01*
X77178238Y-62156333D01*
X77202048Y-62203952D01*
X107777286Y-85492333D02*
X107777286Y-85658999D01*
X108039190Y-85658999D02*
X107539190Y-85658999D01*
X107539190Y-85420904D01*
X107539190Y-85278047D02*
X108039190Y-84944714D01*
X107539190Y-84944714D02*
X108039190Y-85278047D01*
X107539190Y-84825667D02*
X108039190Y-84659000D01*
X107539190Y-84492334D01*
X107539190Y-84230429D02*
X107539190Y-84135191D01*
X107563000Y-84087572D01*
X107610619Y-84039953D01*
X107705857Y-84016144D01*
X107872524Y-84016144D01*
X107967762Y-84039953D01*
X108015381Y-84087572D01*
X108039190Y-84135191D01*
X108039190Y-84230429D01*
X108015381Y-84278048D01*
X107967762Y-84325667D01*
X107872524Y-84349477D01*
X107705857Y-84349477D01*
X107610619Y-84325667D01*
X107563000Y-84278048D01*
X107539190Y-84230429D01*
X108039190Y-83563762D02*
X108039190Y-83801857D01*
X107539190Y-83801857D01*
X108039190Y-83135191D02*
X108039190Y-83420905D01*
X108039190Y-83278048D02*
X107539190Y-83278048D01*
X107610619Y-83325667D01*
X107658238Y-83373286D01*
X107682048Y-83420905D01*
X58400190Y-65190331D02*
X58757333Y-65190331D01*
X58828762Y-65214141D01*
X58876381Y-65261760D01*
X58900190Y-65333188D01*
X58900190Y-65380807D01*
X58947810Y-65071284D02*
X58947810Y-64690332D01*
X58757333Y-64595094D02*
X58757333Y-64356999D01*
X58900190Y-64642713D02*
X58400190Y-64476046D01*
X58900190Y-64309380D01*
X58400190Y-64142713D02*
X58804952Y-64142713D01*
X58852571Y-64118904D01*
X58876381Y-64095094D01*
X58900190Y-64047475D01*
X58900190Y-63952237D01*
X58876381Y-63904618D01*
X58852571Y-63880809D01*
X58804952Y-63856999D01*
X58400190Y-63856999D01*
X58400190Y-63666522D02*
X58900190Y-63333189D01*
X58400190Y-63333189D02*
X58900190Y-63666522D01*
X58447810Y-63166523D02*
X58424000Y-63142713D01*
X58400190Y-63095094D01*
X58400190Y-62976047D01*
X58424000Y-62928428D01*
X58447810Y-62904618D01*
X58495429Y-62880809D01*
X58543048Y-62880809D01*
X58614476Y-62904618D01*
X58900190Y-63190332D01*
X58900190Y-62880809D01*
X58900190Y-62666523D02*
X58400190Y-62666523D01*
X58757333Y-62499857D01*
X58400190Y-62333190D01*
X58900190Y-62333190D01*
X58757333Y-62118904D02*
X58757333Y-61880809D01*
X58900190Y-62166523D02*
X58400190Y-61999856D01*
X58900190Y-61833190D01*
X58900190Y-61666523D02*
X58400190Y-61666523D01*
X58900190Y-61428428D02*
X58400190Y-61428428D01*
X58900190Y-61142714D01*
X58400190Y-61142714D01*
X58947810Y-61023666D02*
X58947810Y-60642714D01*
X58638286Y-60357000D02*
X58638286Y-60523666D01*
X58900190Y-60523666D02*
X58400190Y-60523666D01*
X58400190Y-60285571D01*
X58400190Y-60142714D02*
X58900190Y-59809381D01*
X58400190Y-59809381D02*
X58900190Y-60142714D01*
X58900190Y-59357001D02*
X58900190Y-59642715D01*
X58900190Y-59499858D02*
X58400190Y-59499858D01*
X58471619Y-59547477D01*
X58519238Y-59595096D01*
X58543048Y-59642715D01*
X141966190Y-100004141D02*
X142323333Y-100004141D01*
X142394762Y-100027951D01*
X142442381Y-100075570D01*
X142466190Y-100146998D01*
X142466190Y-100194617D01*
X142513810Y-99885094D02*
X142513810Y-99504142D01*
X142323333Y-99408904D02*
X142323333Y-99170809D01*
X142466190Y-99456523D02*
X141966190Y-99289856D01*
X142466190Y-99123190D01*
X141966190Y-98956523D02*
X142370952Y-98956523D01*
X142418571Y-98932714D01*
X142442381Y-98908904D01*
X142466190Y-98861285D01*
X142466190Y-98766047D01*
X142442381Y-98718428D01*
X142418571Y-98694619D01*
X142370952Y-98670809D01*
X141966190Y-98670809D01*
X141966190Y-98480332D02*
X142466190Y-98146999D01*
X141966190Y-98146999D02*
X142466190Y-98480332D01*
X142013810Y-97980333D02*
X141990000Y-97956523D01*
X141966190Y-97908904D01*
X141966190Y-97789857D01*
X141990000Y-97742238D01*
X142013810Y-97718428D01*
X142061429Y-97694619D01*
X142109048Y-97694619D01*
X142180476Y-97718428D01*
X142466190Y-98004142D01*
X142466190Y-97694619D01*
X142466190Y-97480333D02*
X141966190Y-97480333D01*
X142323333Y-97313667D01*
X141966190Y-97147000D01*
X142466190Y-97147000D01*
X142323333Y-96932714D02*
X142323333Y-96694619D01*
X142466190Y-96980333D02*
X141966190Y-96813666D01*
X142466190Y-96647000D01*
X142466190Y-96480333D02*
X141966190Y-96480333D01*
X142466190Y-96242238D02*
X141966190Y-96242238D01*
X142466190Y-95956524D01*
X141966190Y-95956524D01*
X142513810Y-95837476D02*
X142513810Y-95456524D01*
X142204286Y-95170810D02*
X142204286Y-95337476D01*
X142466190Y-95337476D02*
X141966190Y-95337476D01*
X141966190Y-95099381D01*
X141966190Y-94956524D02*
X142466190Y-94623191D01*
X141966190Y-94623191D02*
X142466190Y-94956524D01*
X142442381Y-94456525D02*
X142466190Y-94385096D01*
X142466190Y-94266049D01*
X142442381Y-94218430D01*
X142418571Y-94194620D01*
X142370952Y-94170811D01*
X142323333Y-94170811D01*
X142275714Y-94194620D01*
X142251905Y-94218430D01*
X142228095Y-94266049D01*
X142204286Y-94361287D01*
X142180476Y-94408906D01*
X142156667Y-94432715D01*
X142109048Y-94456525D01*
X142061429Y-94456525D01*
X142013810Y-94432715D01*
X141990000Y-94408906D01*
X141966190Y-94361287D01*
X141966190Y-94242239D01*
X141990000Y-94170811D01*
X141966190Y-94004144D02*
X142466190Y-93885097D01*
X142109048Y-93789859D01*
X142466190Y-93694621D01*
X141966190Y-93575573D01*
X142466190Y-93123192D02*
X142466190Y-93408906D01*
X142466190Y-93266049D02*
X141966190Y-93266049D01*
X142037619Y-93313668D01*
X142085238Y-93361287D01*
X142109048Y-93408906D01*
X58400190Y-83422713D02*
X58757333Y-83422713D01*
X58828762Y-83446523D01*
X58876381Y-83494142D01*
X58900190Y-83565570D01*
X58900190Y-83613189D01*
X58947810Y-83303666D02*
X58947810Y-82922714D01*
X58757333Y-82827476D02*
X58757333Y-82589381D01*
X58900190Y-82875095D02*
X58400190Y-82708428D01*
X58900190Y-82541762D01*
X58400190Y-82375095D02*
X58804952Y-82375095D01*
X58852571Y-82351286D01*
X58876381Y-82327476D01*
X58900190Y-82279857D01*
X58900190Y-82184619D01*
X58876381Y-82137000D01*
X58852571Y-82113191D01*
X58804952Y-82089381D01*
X58400190Y-82089381D01*
X58400190Y-81898904D02*
X58900190Y-81565571D01*
X58400190Y-81565571D02*
X58900190Y-81898904D01*
X58447810Y-81398905D02*
X58424000Y-81375095D01*
X58400190Y-81327476D01*
X58400190Y-81208429D01*
X58424000Y-81160810D01*
X58447810Y-81137000D01*
X58495429Y-81113191D01*
X58543048Y-81113191D01*
X58614476Y-81137000D01*
X58900190Y-81422714D01*
X58900190Y-81113191D01*
X58900190Y-80898905D02*
X58400190Y-80898905D01*
X58757333Y-80732239D01*
X58400190Y-80565572D01*
X58900190Y-80565572D01*
X58757333Y-80351286D02*
X58757333Y-80113191D01*
X58900190Y-80398905D02*
X58400190Y-80232238D01*
X58900190Y-80065572D01*
X58900190Y-79898905D02*
X58400190Y-79898905D01*
X58900190Y-79660810D02*
X58400190Y-79660810D01*
X58900190Y-79375096D01*
X58400190Y-79375096D01*
X58947810Y-79256048D02*
X58947810Y-78875096D01*
X58900190Y-78756048D02*
X58400190Y-78756048D01*
X58900190Y-78517953D02*
X58400190Y-78517953D01*
X58900190Y-78232239D01*
X58400190Y-78232239D01*
X58876381Y-78017953D02*
X58900190Y-77946524D01*
X58900190Y-77827477D01*
X58876381Y-77779858D01*
X58852571Y-77756048D01*
X58804952Y-77732239D01*
X58757333Y-77732239D01*
X58709714Y-77756048D01*
X58685905Y-77779858D01*
X58662095Y-77827477D01*
X58638286Y-77922715D01*
X58614476Y-77970334D01*
X58590667Y-77994143D01*
X58543048Y-78017953D01*
X58495429Y-78017953D01*
X58447810Y-77994143D01*
X58424000Y-77970334D01*
X58400190Y-77922715D01*
X58400190Y-77803667D01*
X58424000Y-77732239D01*
X58400190Y-77565572D02*
X58900190Y-77446525D01*
X58543048Y-77351287D01*
X58900190Y-77256049D01*
X58400190Y-77137001D01*
X58900190Y-76684620D02*
X58900190Y-76970334D01*
X58900190Y-76827477D02*
X58400190Y-76827477D01*
X58471619Y-76875096D01*
X58519238Y-76922715D01*
X58543048Y-76970334D01*
X141966190Y-65773713D02*
X142323333Y-65773713D01*
X142394762Y-65797523D01*
X142442381Y-65845142D01*
X142466190Y-65916570D01*
X142466190Y-65964189D01*
X142513810Y-65654666D02*
X142513810Y-65273714D01*
X142323333Y-65178476D02*
X142323333Y-64940381D01*
X142466190Y-65226095D02*
X141966190Y-65059428D01*
X142466190Y-64892762D01*
X141966190Y-64726095D02*
X142370952Y-64726095D01*
X142418571Y-64702286D01*
X142442381Y-64678476D01*
X142466190Y-64630857D01*
X142466190Y-64535619D01*
X142442381Y-64488000D01*
X142418571Y-64464191D01*
X142370952Y-64440381D01*
X141966190Y-64440381D01*
X141966190Y-64249904D02*
X142466190Y-63916571D01*
X141966190Y-63916571D02*
X142466190Y-64249904D01*
X142013810Y-63749905D02*
X141990000Y-63726095D01*
X141966190Y-63678476D01*
X141966190Y-63559429D01*
X141990000Y-63511810D01*
X142013810Y-63488000D01*
X142061429Y-63464191D01*
X142109048Y-63464191D01*
X142180476Y-63488000D01*
X142466190Y-63773714D01*
X142466190Y-63464191D01*
X142466190Y-63249905D02*
X141966190Y-63249905D01*
X142323333Y-63083239D01*
X141966190Y-62916572D01*
X142466190Y-62916572D01*
X142323333Y-62702286D02*
X142323333Y-62464191D01*
X142466190Y-62749905D02*
X141966190Y-62583238D01*
X142466190Y-62416572D01*
X142466190Y-62249905D02*
X141966190Y-62249905D01*
X142466190Y-62011810D02*
X141966190Y-62011810D01*
X142466190Y-61726096D01*
X141966190Y-61726096D01*
X142513810Y-61607048D02*
X142513810Y-61226096D01*
X142466190Y-61107048D02*
X141966190Y-61107048D01*
X141966190Y-60916572D01*
X141990000Y-60868953D01*
X142013810Y-60845144D01*
X142061429Y-60821334D01*
X142132857Y-60821334D01*
X142180476Y-60845144D01*
X142204286Y-60868953D01*
X142228095Y-60916572D01*
X142228095Y-61107048D01*
X142466190Y-60368953D02*
X142466190Y-60607048D01*
X141966190Y-60607048D01*
X142466190Y-59964191D02*
X142466190Y-60202286D01*
X141966190Y-60202286D01*
X142466190Y-59535620D02*
X142466190Y-59821334D01*
X142466190Y-59678477D02*
X141966190Y-59678477D01*
X142037619Y-59726096D01*
X142085238Y-59773715D01*
X142109048Y-59821334D01*
X141966190Y-82688522D02*
X142323333Y-82688522D01*
X142394762Y-82712332D01*
X142442381Y-82759951D01*
X142466190Y-82831379D01*
X142466190Y-82878998D01*
X142513810Y-82569475D02*
X142513810Y-82188523D01*
X142323333Y-82093285D02*
X142323333Y-81855190D01*
X142466190Y-82140904D02*
X141966190Y-81974237D01*
X142466190Y-81807571D01*
X141966190Y-81640904D02*
X142370952Y-81640904D01*
X142418571Y-81617095D01*
X142442381Y-81593285D01*
X142466190Y-81545666D01*
X142466190Y-81450428D01*
X142442381Y-81402809D01*
X142418571Y-81379000D01*
X142370952Y-81355190D01*
X141966190Y-81355190D01*
X141966190Y-81164713D02*
X142466190Y-80831380D01*
X141966190Y-80831380D02*
X142466190Y-81164713D01*
X142013810Y-80664714D02*
X141990000Y-80640904D01*
X141966190Y-80593285D01*
X141966190Y-80474238D01*
X141990000Y-80426619D01*
X142013810Y-80402809D01*
X142061429Y-80379000D01*
X142109048Y-80379000D01*
X142180476Y-80402809D01*
X142466190Y-80688523D01*
X142466190Y-80379000D01*
X142466190Y-80164714D02*
X141966190Y-80164714D01*
X142323333Y-79998048D01*
X141966190Y-79831381D01*
X142466190Y-79831381D01*
X142323333Y-79617095D02*
X142323333Y-79379000D01*
X142466190Y-79664714D02*
X141966190Y-79498047D01*
X142466190Y-79331381D01*
X142466190Y-79164714D02*
X141966190Y-79164714D01*
X142466190Y-78926619D02*
X141966190Y-78926619D01*
X142466190Y-78640905D01*
X141966190Y-78640905D01*
X142513810Y-78521857D02*
X142513810Y-78140905D01*
X141966190Y-78093286D02*
X142466190Y-77926619D01*
X141966190Y-77759953D01*
X141966190Y-77498048D02*
X141966190Y-77402810D01*
X141990000Y-77355191D01*
X142037619Y-77307572D01*
X142132857Y-77283763D01*
X142299524Y-77283763D01*
X142394762Y-77307572D01*
X142442381Y-77355191D01*
X142466190Y-77402810D01*
X142466190Y-77498048D01*
X142442381Y-77545667D01*
X142394762Y-77593286D01*
X142299524Y-77617096D01*
X142132857Y-77617096D01*
X142037619Y-77593286D01*
X141990000Y-77545667D01*
X141966190Y-77498048D01*
X142466190Y-76831381D02*
X142466190Y-77069476D01*
X141966190Y-77069476D01*
X142466190Y-76402810D02*
X142466190Y-76688524D01*
X142466190Y-76545667D02*
X141966190Y-76545667D01*
X142037619Y-76593286D01*
X142085238Y-76640905D01*
X142109048Y-76688524D01*
X119995190Y-185725332D02*
X120352333Y-185725332D01*
X120423762Y-185749142D01*
X120471381Y-185796761D01*
X120495190Y-185868189D01*
X120495190Y-185915808D01*
X120542810Y-185606285D02*
X120542810Y-185225333D01*
X120447571Y-184820571D02*
X120471381Y-184844381D01*
X120495190Y-184915809D01*
X120495190Y-184963428D01*
X120471381Y-185034857D01*
X120423762Y-185082476D01*
X120376143Y-185106285D01*
X120280905Y-185130095D01*
X120209476Y-185130095D01*
X120114238Y-185106285D01*
X120066619Y-185082476D01*
X120019000Y-185034857D01*
X119995190Y-184963428D01*
X119995190Y-184915809D01*
X120019000Y-184844381D01*
X120042810Y-184820571D01*
X120495190Y-184368190D02*
X120495190Y-184606285D01*
X119995190Y-184606285D01*
X120233286Y-184201523D02*
X120233286Y-184034857D01*
X120495190Y-183963428D02*
X120495190Y-184201523D01*
X119995190Y-184201523D01*
X119995190Y-183963428D01*
X120352333Y-183772952D02*
X120352333Y-183534857D01*
X120495190Y-183820571D02*
X119995190Y-183653904D01*
X120495190Y-183487238D01*
X120495190Y-183320571D02*
X119995190Y-183320571D01*
X120495190Y-183034857D01*
X119995190Y-183034857D01*
X120542810Y-182915809D02*
X120542810Y-182534857D01*
X120495190Y-182415809D02*
X119995190Y-182415809D01*
X120495190Y-182177714D02*
X119995190Y-182177714D01*
X120495190Y-181892000D01*
X119995190Y-181892000D01*
X120495190Y-181392000D02*
X120495190Y-181677714D01*
X120495190Y-181534857D02*
X119995190Y-181534857D01*
X120066619Y-181582476D01*
X120114238Y-181630095D01*
X120138048Y-181677714D01*
X120757190Y-207057379D02*
X121114333Y-207057379D01*
X121185762Y-207081189D01*
X121233381Y-207128808D01*
X121257190Y-207200236D01*
X121257190Y-207247855D01*
X121304810Y-206938332D02*
X121304810Y-206557380D01*
X121257190Y-206438332D02*
X120757190Y-206438332D01*
X120757190Y-206319285D01*
X120781000Y-206247856D01*
X120828619Y-206200237D01*
X120876238Y-206176428D01*
X120971476Y-206152618D01*
X121042905Y-206152618D01*
X121138143Y-206176428D01*
X121185762Y-206200237D01*
X121233381Y-206247856D01*
X121257190Y-206319285D01*
X121257190Y-206438332D01*
X121257190Y-205938332D02*
X120757190Y-205938332D01*
X121257190Y-205414523D02*
X121019095Y-205581190D01*
X121257190Y-205700237D02*
X120757190Y-205700237D01*
X120757190Y-205509761D01*
X120781000Y-205462142D01*
X120804810Y-205438333D01*
X120852429Y-205414523D01*
X120923857Y-205414523D01*
X120971476Y-205438333D01*
X120995286Y-205462142D01*
X121019095Y-205509761D01*
X121019095Y-205700237D01*
X120757190Y-205271666D02*
X120757190Y-204985952D01*
X121257190Y-205128809D02*
X120757190Y-205128809D01*
X121019095Y-204724047D02*
X121257190Y-204724047D01*
X120757190Y-204890714D02*
X121019095Y-204724047D01*
X120757190Y-204557381D01*
X121304810Y-204509762D02*
X121304810Y-204128810D01*
X121257190Y-204009762D02*
X120757190Y-204009762D01*
X121257190Y-203771667D02*
X120757190Y-203771667D01*
X121257190Y-203485953D01*
X120757190Y-203485953D01*
X121257190Y-202985953D02*
X121257190Y-203271667D01*
X121257190Y-203128810D02*
X120757190Y-203128810D01*
X120828619Y-203176429D01*
X120876238Y-203224048D01*
X120900048Y-203271667D01*
X62464190Y-127928331D02*
X62821333Y-127928331D01*
X62892762Y-127952141D01*
X62940381Y-127999760D01*
X62964190Y-128071188D01*
X62964190Y-128118807D01*
X63011810Y-127809284D02*
X63011810Y-127428332D01*
X62964190Y-127309284D02*
X62464190Y-127309284D01*
X62821333Y-127142618D01*
X62464190Y-126975951D01*
X62964190Y-126975951D01*
X62821333Y-126761665D02*
X62821333Y-126523570D01*
X62964190Y-126809284D02*
X62464190Y-126642617D01*
X62964190Y-126475951D01*
X62964190Y-126309284D02*
X62464190Y-126309284D01*
X62964190Y-126071189D02*
X62464190Y-126071189D01*
X62964190Y-125785475D01*
X62464190Y-125785475D01*
X62511810Y-125571189D02*
X62488000Y-125547379D01*
X62464190Y-125499760D01*
X62464190Y-125380713D01*
X62488000Y-125333094D01*
X62511810Y-125309284D01*
X62559429Y-125285475D01*
X62607048Y-125285475D01*
X62678476Y-125309284D01*
X62964190Y-125594998D01*
X62964190Y-125285475D01*
X62821333Y-125094999D02*
X62821333Y-124856904D01*
X62964190Y-125142618D02*
X62464190Y-124975951D01*
X62964190Y-124809285D01*
X62464190Y-124642618D02*
X62868952Y-124642618D01*
X62916571Y-124618809D01*
X62940381Y-124594999D01*
X62964190Y-124547380D01*
X62964190Y-124452142D01*
X62940381Y-124404523D01*
X62916571Y-124380714D01*
X62868952Y-124356904D01*
X62464190Y-124356904D01*
X62464190Y-124166427D02*
X62964190Y-123833094D01*
X62464190Y-123833094D02*
X62964190Y-124166427D01*
X63011810Y-123761666D02*
X63011810Y-123380714D01*
X62702286Y-123095000D02*
X62702286Y-123261666D01*
X62964190Y-123261666D02*
X62464190Y-123261666D01*
X62464190Y-123023571D01*
X62464190Y-122880714D02*
X62964190Y-122547381D01*
X62464190Y-122547381D02*
X62964190Y-122880714D01*
X62964190Y-122095001D02*
X62964190Y-122380715D01*
X62964190Y-122237858D02*
X62464190Y-122237858D01*
X62535619Y-122285477D01*
X62583238Y-122333096D01*
X62607048Y-122380715D01*
X137648190Y-144962141D02*
X138005333Y-144962141D01*
X138076762Y-144985951D01*
X138124381Y-145033570D01*
X138148190Y-145104998D01*
X138148190Y-145152617D01*
X138195810Y-144843094D02*
X138195810Y-144462142D01*
X138148190Y-144343094D02*
X137648190Y-144343094D01*
X138005333Y-144176428D01*
X137648190Y-144009761D01*
X138148190Y-144009761D01*
X138005333Y-143795475D02*
X138005333Y-143557380D01*
X138148190Y-143843094D02*
X137648190Y-143676427D01*
X138148190Y-143509761D01*
X138148190Y-143343094D02*
X137648190Y-143343094D01*
X138148190Y-143104999D02*
X137648190Y-143104999D01*
X138148190Y-142819285D01*
X137648190Y-142819285D01*
X137695810Y-142604999D02*
X137672000Y-142581189D01*
X137648190Y-142533570D01*
X137648190Y-142414523D01*
X137672000Y-142366904D01*
X137695810Y-142343094D01*
X137743429Y-142319285D01*
X137791048Y-142319285D01*
X137862476Y-142343094D01*
X138148190Y-142628808D01*
X138148190Y-142319285D01*
X138005333Y-142128809D02*
X138005333Y-141890714D01*
X138148190Y-142176428D02*
X137648190Y-142009761D01*
X138148190Y-141843095D01*
X137648190Y-141676428D02*
X138052952Y-141676428D01*
X138100571Y-141652619D01*
X138124381Y-141628809D01*
X138148190Y-141581190D01*
X138148190Y-141485952D01*
X138124381Y-141438333D01*
X138100571Y-141414524D01*
X138052952Y-141390714D01*
X137648190Y-141390714D01*
X137648190Y-141200237D02*
X138148190Y-140866904D01*
X137648190Y-140866904D02*
X138148190Y-141200237D01*
X138195810Y-140795476D02*
X138195810Y-140414524D01*
X137886286Y-140128810D02*
X137886286Y-140295476D01*
X138148190Y-140295476D02*
X137648190Y-140295476D01*
X137648190Y-140057381D01*
X137648190Y-139914524D02*
X138148190Y-139581191D01*
X137648190Y-139581191D02*
X138148190Y-139914524D01*
X138124381Y-139414525D02*
X138148190Y-139343096D01*
X138148190Y-139224049D01*
X138124381Y-139176430D01*
X138100571Y-139152620D01*
X138052952Y-139128811D01*
X138005333Y-139128811D01*
X137957714Y-139152620D01*
X137933905Y-139176430D01*
X137910095Y-139224049D01*
X137886286Y-139319287D01*
X137862476Y-139366906D01*
X137838667Y-139390715D01*
X137791048Y-139414525D01*
X137743429Y-139414525D01*
X137695810Y-139390715D01*
X137672000Y-139366906D01*
X137648190Y-139319287D01*
X137648190Y-139200239D01*
X137672000Y-139128811D01*
X137648190Y-138962144D02*
X138148190Y-138843097D01*
X137791048Y-138747859D01*
X138148190Y-138652621D01*
X137648190Y-138533573D01*
X138148190Y-138081192D02*
X138148190Y-138366906D01*
X138148190Y-138224049D02*
X137648190Y-138224049D01*
X137719619Y-138271668D01*
X137767238Y-138319287D01*
X137791048Y-138366906D01*
X62083190Y-145779713D02*
X62440333Y-145779713D01*
X62511762Y-145803523D01*
X62559381Y-145851142D01*
X62583190Y-145922570D01*
X62583190Y-145970189D01*
X62630810Y-145660666D02*
X62630810Y-145279714D01*
X62583190Y-145160666D02*
X62083190Y-145160666D01*
X62440333Y-144994000D01*
X62083190Y-144827333D01*
X62583190Y-144827333D01*
X62440333Y-144613047D02*
X62440333Y-144374952D01*
X62583190Y-144660666D02*
X62083190Y-144493999D01*
X62583190Y-144327333D01*
X62583190Y-144160666D02*
X62083190Y-144160666D01*
X62583190Y-143922571D02*
X62083190Y-143922571D01*
X62583190Y-143636857D01*
X62083190Y-143636857D01*
X62130810Y-143422571D02*
X62107000Y-143398761D01*
X62083190Y-143351142D01*
X62083190Y-143232095D01*
X62107000Y-143184476D01*
X62130810Y-143160666D01*
X62178429Y-143136857D01*
X62226048Y-143136857D01*
X62297476Y-143160666D01*
X62583190Y-143446380D01*
X62583190Y-143136857D01*
X62440333Y-142946381D02*
X62440333Y-142708286D01*
X62583190Y-142994000D02*
X62083190Y-142827333D01*
X62583190Y-142660667D01*
X62083190Y-142494000D02*
X62487952Y-142494000D01*
X62535571Y-142470191D01*
X62559381Y-142446381D01*
X62583190Y-142398762D01*
X62583190Y-142303524D01*
X62559381Y-142255905D01*
X62535571Y-142232096D01*
X62487952Y-142208286D01*
X62083190Y-142208286D01*
X62083190Y-142017809D02*
X62583190Y-141684476D01*
X62083190Y-141684476D02*
X62583190Y-142017809D01*
X62630810Y-141613048D02*
X62630810Y-141232096D01*
X62583190Y-141113048D02*
X62083190Y-141113048D01*
X62583190Y-140874953D02*
X62083190Y-140874953D01*
X62583190Y-140589239D01*
X62083190Y-140589239D01*
X62559381Y-140374953D02*
X62583190Y-140303524D01*
X62583190Y-140184477D01*
X62559381Y-140136858D01*
X62535571Y-140113048D01*
X62487952Y-140089239D01*
X62440333Y-140089239D01*
X62392714Y-140113048D01*
X62368905Y-140136858D01*
X62345095Y-140184477D01*
X62321286Y-140279715D01*
X62297476Y-140327334D01*
X62273667Y-140351143D01*
X62226048Y-140374953D01*
X62178429Y-140374953D01*
X62130810Y-140351143D01*
X62107000Y-140327334D01*
X62083190Y-140279715D01*
X62083190Y-140160667D01*
X62107000Y-140089239D01*
X62083190Y-139922572D02*
X62583190Y-139803525D01*
X62226048Y-139708287D01*
X62583190Y-139613049D01*
X62083190Y-139494001D01*
X62583190Y-139041620D02*
X62583190Y-139327334D01*
X62583190Y-139184477D02*
X62083190Y-139184477D01*
X62154619Y-139232096D01*
X62202238Y-139279715D01*
X62226048Y-139327334D01*
X137521190Y-127241713D02*
X137878333Y-127241713D01*
X137949762Y-127265523D01*
X137997381Y-127313142D01*
X138021190Y-127384570D01*
X138021190Y-127432189D01*
X138068810Y-127122666D02*
X138068810Y-126741714D01*
X138021190Y-126622666D02*
X137521190Y-126622666D01*
X137878333Y-126456000D01*
X137521190Y-126289333D01*
X138021190Y-126289333D01*
X137878333Y-126075047D02*
X137878333Y-125836952D01*
X138021190Y-126122666D02*
X137521190Y-125955999D01*
X138021190Y-125789333D01*
X138021190Y-125622666D02*
X137521190Y-125622666D01*
X138021190Y-125384571D02*
X137521190Y-125384571D01*
X138021190Y-125098857D01*
X137521190Y-125098857D01*
X137568810Y-124884571D02*
X137545000Y-124860761D01*
X137521190Y-124813142D01*
X137521190Y-124694095D01*
X137545000Y-124646476D01*
X137568810Y-124622666D01*
X137616429Y-124598857D01*
X137664048Y-124598857D01*
X137735476Y-124622666D01*
X138021190Y-124908380D01*
X138021190Y-124598857D01*
X137878333Y-124408381D02*
X137878333Y-124170286D01*
X138021190Y-124456000D02*
X137521190Y-124289333D01*
X138021190Y-124122667D01*
X137521190Y-123956000D02*
X137925952Y-123956000D01*
X137973571Y-123932191D01*
X137997381Y-123908381D01*
X138021190Y-123860762D01*
X138021190Y-123765524D01*
X137997381Y-123717905D01*
X137973571Y-123694096D01*
X137925952Y-123670286D01*
X137521190Y-123670286D01*
X137521190Y-123479809D02*
X138021190Y-123146476D01*
X137521190Y-123146476D02*
X138021190Y-123479809D01*
X138068810Y-123075048D02*
X138068810Y-122694096D01*
X138021190Y-122575048D02*
X137521190Y-122575048D01*
X137521190Y-122384572D01*
X137545000Y-122336953D01*
X137568810Y-122313144D01*
X137616429Y-122289334D01*
X137687857Y-122289334D01*
X137735476Y-122313144D01*
X137759286Y-122336953D01*
X137783095Y-122384572D01*
X137783095Y-122575048D01*
X138021190Y-121836953D02*
X138021190Y-122075048D01*
X137521190Y-122075048D01*
X138021190Y-121432191D02*
X138021190Y-121670286D01*
X137521190Y-121670286D01*
X138021190Y-121003620D02*
X138021190Y-121289334D01*
X138021190Y-121146477D02*
X137521190Y-121146477D01*
X137592619Y-121194096D01*
X137640238Y-121241715D01*
X137664048Y-121289334D01*
X137021478Y-149669190D02*
X137021478Y-150026333D01*
X136997668Y-150097762D01*
X136950049Y-150145381D01*
X136878621Y-150169190D01*
X136831002Y-150169190D01*
X137140525Y-150216810D02*
X137521477Y-150216810D01*
X137640525Y-150169190D02*
X137640525Y-149669190D01*
X137807191Y-150026333D01*
X137973858Y-149669190D01*
X137973858Y-150169190D01*
X138188144Y-150026333D02*
X138426239Y-150026333D01*
X138140525Y-150169190D02*
X138307192Y-149669190D01*
X138473858Y-150169190D01*
X138640525Y-150169190D02*
X138640525Y-149669190D01*
X138878620Y-150169190D02*
X138878620Y-149669190D01*
X139164334Y-150169190D01*
X139164334Y-149669190D01*
X139378620Y-149716810D02*
X139402430Y-149693000D01*
X139450049Y-149669190D01*
X139569096Y-149669190D01*
X139616715Y-149693000D01*
X139640525Y-149716810D01*
X139664334Y-149764429D01*
X139664334Y-149812048D01*
X139640525Y-149883476D01*
X139354811Y-150169190D01*
X139664334Y-150169190D01*
X139854810Y-150026333D02*
X140092905Y-150026333D01*
X139807191Y-150169190D02*
X139973858Y-149669190D01*
X140140524Y-150169190D01*
X140307191Y-149669190D02*
X140307191Y-150073952D01*
X140331000Y-150121571D01*
X140354810Y-150145381D01*
X140402429Y-150169190D01*
X140497667Y-150169190D01*
X140545286Y-150145381D01*
X140569095Y-150121571D01*
X140592905Y-150073952D01*
X140592905Y-149669190D01*
X140783382Y-149669190D02*
X141116715Y-150169190D01*
X141116715Y-149669190D02*
X140783382Y-150169190D01*
X141188143Y-150216810D02*
X141569095Y-150216810D01*
X141616714Y-149669190D02*
X141783381Y-150169190D01*
X141950047Y-149669190D01*
X142211952Y-149669190D02*
X142307190Y-149669190D01*
X142354809Y-149693000D01*
X142402428Y-149740619D01*
X142426237Y-149835857D01*
X142426237Y-150002524D01*
X142402428Y-150097762D01*
X142354809Y-150145381D01*
X142307190Y-150169190D01*
X142211952Y-150169190D01*
X142164333Y-150145381D01*
X142116714Y-150097762D01*
X142092904Y-150002524D01*
X142092904Y-149835857D01*
X142116714Y-149740619D01*
X142164333Y-149693000D01*
X142211952Y-149669190D01*
X142878619Y-150169190D02*
X142640524Y-150169190D01*
X142640524Y-149669190D01*
X143307190Y-150169190D02*
X143021476Y-150169190D01*
X143164333Y-150169190D02*
X143164333Y-149669190D01*
X143116714Y-149740619D01*
X143069095Y-149788238D01*
X143021476Y-149812048D01*
X67572048Y-198100190D02*
X67572048Y-198457333D01*
X67548238Y-198528762D01*
X67500619Y-198576381D01*
X67429191Y-198600190D01*
X67381572Y-198600190D01*
X67691095Y-198647810D02*
X68072047Y-198647810D01*
X68286333Y-198100190D02*
X68381571Y-198100190D01*
X68429190Y-198124000D01*
X68476809Y-198171619D01*
X68500618Y-198266857D01*
X68500618Y-198433524D01*
X68476809Y-198528762D01*
X68429190Y-198576381D01*
X68381571Y-198600190D01*
X68286333Y-198600190D01*
X68238714Y-198576381D01*
X68191095Y-198528762D01*
X68167285Y-198433524D01*
X68167285Y-198266857D01*
X68191095Y-198171619D01*
X68238714Y-198124000D01*
X68286333Y-198100190D01*
X68714905Y-198100190D02*
X68714905Y-198504952D01*
X68738714Y-198552571D01*
X68762524Y-198576381D01*
X68810143Y-198600190D01*
X68905381Y-198600190D01*
X68953000Y-198576381D01*
X68976809Y-198552571D01*
X69000619Y-198504952D01*
X69000619Y-198100190D01*
X69500619Y-198600190D02*
X69214905Y-198600190D01*
X69357762Y-198600190D02*
X69357762Y-198100190D01*
X69310143Y-198171619D01*
X69262524Y-198219238D01*
X69214905Y-198243048D01*
X65679048Y-165461190D02*
X65679048Y-165818333D01*
X65655238Y-165889762D01*
X65607619Y-165937381D01*
X65536191Y-165961190D01*
X65488572Y-165961190D01*
X65798095Y-166008810D02*
X66179047Y-166008810D01*
X66298095Y-165961190D02*
X66298095Y-165461190D01*
X66488571Y-165461190D01*
X66536190Y-165485000D01*
X66559999Y-165508810D01*
X66583809Y-165556429D01*
X66583809Y-165627857D01*
X66559999Y-165675476D01*
X66536190Y-165699286D01*
X66488571Y-165723095D01*
X66298095Y-165723095D01*
X66893333Y-165461190D02*
X66988571Y-165461190D01*
X67036190Y-165485000D01*
X67083809Y-165532619D01*
X67107618Y-165627857D01*
X67107618Y-165794524D01*
X67083809Y-165889762D01*
X67036190Y-165937381D01*
X66988571Y-165961190D01*
X66893333Y-165961190D01*
X66845714Y-165937381D01*
X66798095Y-165889762D01*
X66774285Y-165794524D01*
X66774285Y-165627857D01*
X66798095Y-165532619D01*
X66845714Y-165485000D01*
X66893333Y-165461190D01*
X67274286Y-165461190D02*
X67393333Y-165961190D01*
X67488571Y-165604048D01*
X67583809Y-165961190D01*
X67702857Y-165461190D01*
X67893334Y-165699286D02*
X68060000Y-165699286D01*
X68131429Y-165961190D02*
X67893334Y-165961190D01*
X67893334Y-165461190D01*
X68131429Y-165461190D01*
X68631429Y-165961190D02*
X68464762Y-165723095D01*
X68345715Y-165961190D02*
X68345715Y-165461190D01*
X68536191Y-165461190D01*
X68583810Y-165485000D01*
X68607619Y-165508810D01*
X68631429Y-165556429D01*
X68631429Y-165627857D01*
X68607619Y-165675476D01*
X68583810Y-165699286D01*
X68536191Y-165723095D01*
X68345715Y-165723095D01*
X69107619Y-165961190D02*
X68821905Y-165961190D01*
X68964762Y-165961190D02*
X68964762Y-165461190D01*
X68917143Y-165532619D01*
X68869524Y-165580238D01*
X68821905Y-165604048D01*
X123543190Y-85089904D02*
X123043190Y-85089904D01*
X123400333Y-84923238D01*
X123043190Y-84756571D01*
X123543190Y-84756571D01*
X123543190Y-84518475D02*
X123043190Y-84518475D01*
X123043190Y-84327999D02*
X123543190Y-83994666D01*
X123043190Y-83994666D02*
X123543190Y-84327999D01*
X123543190Y-83542286D02*
X123543190Y-83828000D01*
X123543190Y-83685143D02*
X123043190Y-83685143D01*
X123114619Y-83732762D01*
X123162238Y-83780381D01*
X123186048Y-83828000D01*
X110990239Y-173327190D02*
X110823572Y-173089095D01*
X110704525Y-173327190D02*
X110704525Y-172827190D01*
X110895001Y-172827190D01*
X110942620Y-172851000D01*
X110966429Y-172874810D01*
X110990239Y-172922429D01*
X110990239Y-172993857D01*
X110966429Y-173041476D01*
X110942620Y-173065286D01*
X110895001Y-173089095D01*
X110704525Y-173089095D01*
X111085477Y-173374810D02*
X111466429Y-173374810D01*
X111752143Y-173065286D02*
X111585477Y-173065286D01*
X111585477Y-173327190D02*
X111585477Y-172827190D01*
X111823572Y-172827190D01*
X111966429Y-172827190D02*
X112299762Y-173327190D01*
X112299762Y-172827190D02*
X111966429Y-173327190D01*
X112418809Y-172827190D02*
X112585476Y-173327190D01*
X112752142Y-172827190D01*
X113014047Y-172827190D02*
X113109285Y-172827190D01*
X113156904Y-172851000D01*
X113204523Y-172898619D01*
X113228332Y-172993857D01*
X113228332Y-173160524D01*
X113204523Y-173255762D01*
X113156904Y-173303381D01*
X113109285Y-173327190D01*
X113014047Y-173327190D01*
X112966428Y-173303381D01*
X112918809Y-173255762D01*
X112894999Y-173160524D01*
X112894999Y-172993857D01*
X112918809Y-172898619D01*
X112966428Y-172851000D01*
X113014047Y-172827190D01*
X113680714Y-173327190D02*
X113442619Y-173327190D01*
X113442619Y-172827190D01*
X114109285Y-173327190D02*
X113823571Y-173327190D01*
X113966428Y-173327190D02*
X113966428Y-172827190D01*
X113918809Y-172898619D01*
X113871190Y-172946238D01*
X113823571Y-172970048D01*
X96238190Y-190170427D02*
X96000095Y-190337094D01*
X96238190Y-190456141D02*
X95738190Y-190456141D01*
X95738190Y-190265665D01*
X95762000Y-190218046D01*
X95785810Y-190194237D01*
X95833429Y-190170427D01*
X95904857Y-190170427D01*
X95952476Y-190194237D01*
X95976286Y-190218046D01*
X96000095Y-190265665D01*
X96000095Y-190456141D01*
X96285810Y-190075189D02*
X96285810Y-189694237D01*
X96238190Y-189575189D02*
X95738190Y-189575189D01*
X96095333Y-189408523D01*
X95738190Y-189241856D01*
X96238190Y-189241856D01*
X96238190Y-189003760D02*
X95738190Y-189003760D01*
X95738190Y-188813284D02*
X96238190Y-188479951D01*
X95738190Y-188479951D02*
X96238190Y-188813284D01*
X96285810Y-188408523D02*
X96285810Y-188027571D01*
X95976286Y-187741857D02*
X95976286Y-187908523D01*
X96238190Y-187908523D02*
X95738190Y-187908523D01*
X95738190Y-187670428D01*
X96238190Y-187218048D02*
X96238190Y-187503762D01*
X96238190Y-187360905D02*
X95738190Y-187360905D01*
X95809619Y-187408524D01*
X95857238Y-187456143D01*
X95881048Y-187503762D01*
X85891858Y-195933190D02*
X85725191Y-195695095D01*
X85606144Y-195933190D02*
X85606144Y-195433190D01*
X85796620Y-195433190D01*
X85844239Y-195457000D01*
X85868048Y-195480810D01*
X85891858Y-195528429D01*
X85891858Y-195599857D01*
X85868048Y-195647476D01*
X85844239Y-195671286D01*
X85796620Y-195695095D01*
X85606144Y-195695095D01*
X85987096Y-195980810D02*
X86368048Y-195980810D01*
X86487096Y-195933190D02*
X86487096Y-195433190D01*
X86653762Y-195790333D01*
X86820429Y-195433190D01*
X86820429Y-195933190D01*
X87058525Y-195933190D02*
X87058525Y-195433190D01*
X87249001Y-195433190D02*
X87582334Y-195933190D01*
X87582334Y-195433190D02*
X87249001Y-195933190D01*
X87653762Y-195980810D02*
X88034714Y-195980810D01*
X88415666Y-195457000D02*
X88368047Y-195433190D01*
X88296619Y-195433190D01*
X88225190Y-195457000D01*
X88177571Y-195504619D01*
X88153762Y-195552238D01*
X88129952Y-195647476D01*
X88129952Y-195718905D01*
X88153762Y-195814143D01*
X88177571Y-195861762D01*
X88225190Y-195909381D01*
X88296619Y-195933190D01*
X88344238Y-195933190D01*
X88415666Y-195909381D01*
X88439476Y-195885571D01*
X88439476Y-195718905D01*
X88344238Y-195718905D01*
X88915666Y-195933190D02*
X88629952Y-195933190D01*
X88772809Y-195933190D02*
X88772809Y-195433190D01*
X88725190Y-195504619D01*
X88677571Y-195552238D01*
X88629952Y-195576048D01*
X66647190Y-130226428D02*
X66409095Y-130393095D01*
X66647190Y-130512142D02*
X66147190Y-130512142D01*
X66147190Y-130321666D01*
X66171000Y-130274047D01*
X66194810Y-130250238D01*
X66242429Y-130226428D01*
X66313857Y-130226428D01*
X66361476Y-130250238D01*
X66385286Y-130274047D01*
X66409095Y-130321666D01*
X66409095Y-130512142D01*
X66694810Y-130131190D02*
X66694810Y-129750238D01*
X66147190Y-129535952D02*
X66147190Y-129440714D01*
X66171000Y-129393095D01*
X66218619Y-129345476D01*
X66313857Y-129321667D01*
X66480524Y-129321667D01*
X66575762Y-129345476D01*
X66623381Y-129393095D01*
X66647190Y-129440714D01*
X66647190Y-129535952D01*
X66623381Y-129583571D01*
X66575762Y-129631190D01*
X66480524Y-129655000D01*
X66313857Y-129655000D01*
X66218619Y-129631190D01*
X66171000Y-129583571D01*
X66147190Y-129535952D01*
X66504333Y-129131190D02*
X66504333Y-128893095D01*
X66647190Y-129178809D02*
X66147190Y-129012142D01*
X66647190Y-128845476D01*
X66694810Y-128797857D02*
X66694810Y-128416905D01*
X66647190Y-128297857D02*
X66147190Y-128297857D01*
X66647190Y-128059762D02*
X66147190Y-128059762D01*
X66647190Y-127774048D01*
X66147190Y-127774048D01*
X66647190Y-127274048D02*
X66647190Y-127559762D01*
X66647190Y-127416905D02*
X66147190Y-127416905D01*
X66218619Y-127464524D01*
X66266238Y-127512143D01*
X66290048Y-127559762D01*
X123821239Y-148943190D02*
X123654572Y-148705095D01*
X123535525Y-148943190D02*
X123535525Y-148443190D01*
X123726001Y-148443190D01*
X123773620Y-148467000D01*
X123797429Y-148490810D01*
X123821239Y-148538429D01*
X123821239Y-148609857D01*
X123797429Y-148657476D01*
X123773620Y-148681286D01*
X123726001Y-148705095D01*
X123535525Y-148705095D01*
X123916477Y-148990810D02*
X124297429Y-148990810D01*
X124511715Y-148443190D02*
X124606953Y-148443190D01*
X124654572Y-148467000D01*
X124702191Y-148514619D01*
X124726000Y-148609857D01*
X124726000Y-148776524D01*
X124702191Y-148871762D01*
X124654572Y-148919381D01*
X124606953Y-148943190D01*
X124511715Y-148943190D01*
X124464096Y-148919381D01*
X124416477Y-148871762D01*
X124392667Y-148776524D01*
X124392667Y-148609857D01*
X124416477Y-148514619D01*
X124464096Y-148467000D01*
X124511715Y-148443190D01*
X124916477Y-148800333D02*
X125154572Y-148800333D01*
X124868858Y-148943190D02*
X125035525Y-148443190D01*
X125202191Y-148943190D01*
X125249810Y-148990810D02*
X125630762Y-148990810D01*
X125845048Y-148443190D02*
X125940286Y-148443190D01*
X125987905Y-148467000D01*
X126035524Y-148514619D01*
X126059333Y-148609857D01*
X126059333Y-148776524D01*
X126035524Y-148871762D01*
X125987905Y-148919381D01*
X125940286Y-148943190D01*
X125845048Y-148943190D01*
X125797429Y-148919381D01*
X125749810Y-148871762D01*
X125726000Y-148776524D01*
X125726000Y-148609857D01*
X125749810Y-148514619D01*
X125797429Y-148467000D01*
X125845048Y-148443190D01*
X126273620Y-148443190D02*
X126273620Y-148847952D01*
X126297429Y-148895571D01*
X126321239Y-148919381D01*
X126368858Y-148943190D01*
X126464096Y-148943190D01*
X126511715Y-148919381D01*
X126535524Y-148895571D01*
X126559334Y-148847952D01*
X126559334Y-148443190D01*
X126726001Y-148443190D02*
X127011715Y-148443190D01*
X126868858Y-148943190D02*
X126868858Y-148443190D01*
X127440286Y-148943190D02*
X127154572Y-148943190D01*
X127297429Y-148943190D02*
X127297429Y-148443190D01*
X127249810Y-148514619D01*
X127202191Y-148562238D01*
X127154572Y-148586048D01*
X101826477Y-179804190D02*
X101659810Y-179566095D01*
X101540763Y-179804190D02*
X101540763Y-179304190D01*
X101731239Y-179304190D01*
X101778858Y-179328000D01*
X101802667Y-179351810D01*
X101826477Y-179399429D01*
X101826477Y-179470857D01*
X101802667Y-179518476D01*
X101778858Y-179542286D01*
X101731239Y-179566095D01*
X101540763Y-179566095D01*
X101921715Y-179851810D02*
X102302667Y-179851810D01*
X102516953Y-179304190D02*
X102612191Y-179304190D01*
X102659810Y-179328000D01*
X102707429Y-179375619D01*
X102731238Y-179470857D01*
X102731238Y-179637524D01*
X102707429Y-179732762D01*
X102659810Y-179780381D01*
X102612191Y-179804190D01*
X102516953Y-179804190D01*
X102469334Y-179780381D01*
X102421715Y-179732762D01*
X102397905Y-179637524D01*
X102397905Y-179470857D01*
X102421715Y-179375619D01*
X102469334Y-179328000D01*
X102516953Y-179304190D01*
X102921715Y-179661333D02*
X103159810Y-179661333D01*
X102874096Y-179804190D02*
X103040763Y-179304190D01*
X103207429Y-179804190D01*
X103255048Y-179851810D02*
X103636000Y-179851810D01*
X103850286Y-179304190D02*
X103945524Y-179304190D01*
X103993143Y-179328000D01*
X104040762Y-179375619D01*
X104064571Y-179470857D01*
X104064571Y-179637524D01*
X104040762Y-179732762D01*
X103993143Y-179780381D01*
X103945524Y-179804190D01*
X103850286Y-179804190D01*
X103802667Y-179780381D01*
X103755048Y-179732762D01*
X103731238Y-179637524D01*
X103731238Y-179470857D01*
X103755048Y-179375619D01*
X103802667Y-179328000D01*
X103850286Y-179304190D01*
X104278858Y-179304190D02*
X104278858Y-179708952D01*
X104302667Y-179756571D01*
X104326477Y-179780381D01*
X104374096Y-179804190D01*
X104469334Y-179804190D01*
X104516953Y-179780381D01*
X104540762Y-179756571D01*
X104564572Y-179708952D01*
X104564572Y-179304190D01*
X104731239Y-179304190D02*
X105016953Y-179304190D01*
X104874096Y-179804190D02*
X104874096Y-179304190D01*
X105064572Y-179851810D02*
X105445524Y-179851810D01*
X105731238Y-179542286D02*
X105564572Y-179542286D01*
X105564572Y-179804190D02*
X105564572Y-179304190D01*
X105802667Y-179304190D01*
X106255047Y-179804190D02*
X105969333Y-179804190D01*
X106112190Y-179804190D02*
X106112190Y-179304190D01*
X106064571Y-179375619D01*
X106016952Y-179423238D01*
X105969333Y-179447048D01*
X101858096Y-131417190D02*
X101691429Y-131179095D01*
X101572382Y-131417190D02*
X101572382Y-130917190D01*
X101762858Y-130917190D01*
X101810477Y-130941000D01*
X101834286Y-130964810D01*
X101858096Y-131012429D01*
X101858096Y-131083857D01*
X101834286Y-131131476D01*
X101810477Y-131155286D01*
X101762858Y-131179095D01*
X101572382Y-131179095D01*
X101953334Y-131464810D02*
X102334286Y-131464810D01*
X102429524Y-131393381D02*
X102500953Y-131417190D01*
X102620000Y-131417190D01*
X102667619Y-131393381D01*
X102691429Y-131369571D01*
X102715238Y-131321952D01*
X102715238Y-131274333D01*
X102691429Y-131226714D01*
X102667619Y-131202905D01*
X102620000Y-131179095D01*
X102524762Y-131155286D01*
X102477143Y-131131476D01*
X102453334Y-131107667D01*
X102429524Y-131060048D01*
X102429524Y-131012429D01*
X102453334Y-130964810D01*
X102477143Y-130941000D01*
X102524762Y-130917190D01*
X102643810Y-130917190D01*
X102715238Y-130941000D01*
X102905714Y-131274333D02*
X103143809Y-131274333D01*
X102858095Y-131417190D02*
X103024762Y-130917190D01*
X103191428Y-131417190D01*
X103310476Y-130917190D02*
X103429523Y-131417190D01*
X103524761Y-131060048D01*
X103619999Y-131417190D01*
X103739047Y-130917190D01*
X104191428Y-131417190D02*
X103905714Y-131417190D01*
X104048571Y-131417190D02*
X104048571Y-130917190D01*
X104000952Y-130988619D01*
X103953333Y-131036238D01*
X103905714Y-131060048D01*
X107883381Y-64370619D02*
X107907190Y-64299190D01*
X107907190Y-64180143D01*
X107883381Y-64132524D01*
X107859571Y-64108714D01*
X107811952Y-64084905D01*
X107764333Y-64084905D01*
X107716714Y-64108714D01*
X107692905Y-64132524D01*
X107669095Y-64180143D01*
X107645286Y-64275381D01*
X107621476Y-64323000D01*
X107597667Y-64346809D01*
X107550048Y-64370619D01*
X107502429Y-64370619D01*
X107454810Y-64346809D01*
X107431000Y-64323000D01*
X107407190Y-64275381D01*
X107407190Y-64156333D01*
X107431000Y-64084905D01*
X107407190Y-63918238D02*
X107907190Y-63799191D01*
X107550048Y-63703953D01*
X107907190Y-63608715D01*
X107407190Y-63489667D01*
X107907190Y-63299190D02*
X107407190Y-63299190D01*
X107907190Y-63061095D02*
X107407190Y-63061095D01*
X107907190Y-62775381D01*
X107407190Y-62775381D01*
X107431000Y-62275381D02*
X107407190Y-62323000D01*
X107407190Y-62394428D01*
X107431000Y-62465857D01*
X107478619Y-62513476D01*
X107526238Y-62537285D01*
X107621476Y-62561095D01*
X107692905Y-62561095D01*
X107788143Y-62537285D01*
X107835762Y-62513476D01*
X107883381Y-62465857D01*
X107907190Y-62394428D01*
X107907190Y-62346809D01*
X107883381Y-62275381D01*
X107859571Y-62251571D01*
X107692905Y-62251571D01*
X107692905Y-62346809D01*
X107907190Y-61775381D02*
X107907190Y-62061095D01*
X107907190Y-61918238D02*
X107407190Y-61918238D01*
X107478619Y-61965857D01*
X107526238Y-62013476D01*
X107550048Y-62061095D01*
X123901381Y-98988333D02*
X123925190Y-98916904D01*
X123925190Y-98797857D01*
X123901381Y-98750238D01*
X123877571Y-98726428D01*
X123829952Y-98702619D01*
X123782333Y-98702619D01*
X123734714Y-98726428D01*
X123710905Y-98750238D01*
X123687095Y-98797857D01*
X123663286Y-98893095D01*
X123639476Y-98940714D01*
X123615667Y-98964523D01*
X123568048Y-98988333D01*
X123520429Y-98988333D01*
X123472810Y-98964523D01*
X123449000Y-98940714D01*
X123425190Y-98893095D01*
X123425190Y-98774047D01*
X123449000Y-98702619D01*
X123425190Y-98535952D02*
X123925190Y-98416905D01*
X123568048Y-98321667D01*
X123925190Y-98226429D01*
X123425190Y-98107381D01*
X123972810Y-98035952D02*
X123972810Y-97655000D01*
X123925190Y-97535952D02*
X123425190Y-97535952D01*
X123663286Y-97535952D02*
X123663286Y-97250238D01*
X123925190Y-97250238D02*
X123425190Y-97250238D01*
X123425190Y-96916904D02*
X123425190Y-96821666D01*
X123449000Y-96774047D01*
X123496619Y-96726428D01*
X123591857Y-96702619D01*
X123758524Y-96702619D01*
X123853762Y-96726428D01*
X123901381Y-96774047D01*
X123925190Y-96821666D01*
X123925190Y-96916904D01*
X123901381Y-96964523D01*
X123853762Y-97012142D01*
X123758524Y-97035952D01*
X123591857Y-97035952D01*
X123496619Y-97012142D01*
X123449000Y-96964523D01*
X123425190Y-96916904D01*
X123925190Y-96250237D02*
X123925190Y-96488332D01*
X123425190Y-96488332D01*
X123925190Y-96083570D02*
X123425190Y-96083570D01*
X123425190Y-95964523D01*
X123449000Y-95893094D01*
X123496619Y-95845475D01*
X123544238Y-95821666D01*
X123639476Y-95797856D01*
X123710905Y-95797856D01*
X123806143Y-95821666D01*
X123853762Y-95845475D01*
X123901381Y-95893094D01*
X123925190Y-95964523D01*
X123925190Y-96083570D01*
X123925190Y-95321666D02*
X123925190Y-95607380D01*
X123925190Y-95464523D02*
X123425190Y-95464523D01*
X123496619Y-95512142D01*
X123544238Y-95559761D01*
X123568048Y-95607380D01*
X77418381Y-98916904D02*
X77442190Y-98845475D01*
X77442190Y-98726428D01*
X77418381Y-98678809D01*
X77394571Y-98654999D01*
X77346952Y-98631190D01*
X77299333Y-98631190D01*
X77251714Y-98654999D01*
X77227905Y-98678809D01*
X77204095Y-98726428D01*
X77180286Y-98821666D01*
X77156476Y-98869285D01*
X77132667Y-98893094D01*
X77085048Y-98916904D01*
X77037429Y-98916904D01*
X76989810Y-98893094D01*
X76966000Y-98869285D01*
X76942190Y-98821666D01*
X76942190Y-98702618D01*
X76966000Y-98631190D01*
X76942190Y-98464523D02*
X77442190Y-98345476D01*
X77085048Y-98250238D01*
X77442190Y-98155000D01*
X76942190Y-98035952D01*
X77489810Y-97964523D02*
X77489810Y-97583571D01*
X77442190Y-97464523D02*
X76942190Y-97464523D01*
X77442190Y-97226428D02*
X76942190Y-97226428D01*
X77442190Y-96940714D01*
X76942190Y-96940714D01*
X77418381Y-96726428D02*
X77442190Y-96654999D01*
X77442190Y-96535952D01*
X77418381Y-96488333D01*
X77394571Y-96464523D01*
X77346952Y-96440714D01*
X77299333Y-96440714D01*
X77251714Y-96464523D01*
X77227905Y-96488333D01*
X77204095Y-96535952D01*
X77180286Y-96631190D01*
X77156476Y-96678809D01*
X77132667Y-96702618D01*
X77085048Y-96726428D01*
X77037429Y-96726428D01*
X76989810Y-96702618D01*
X76966000Y-96678809D01*
X76942190Y-96631190D01*
X76942190Y-96512142D01*
X76966000Y-96440714D01*
X76942190Y-96274047D02*
X77442190Y-96155000D01*
X77085048Y-96059762D01*
X77442190Y-95964524D01*
X76942190Y-95845476D01*
X77442190Y-95393095D02*
X77442190Y-95678809D01*
X77442190Y-95535952D02*
X76942190Y-95535952D01*
X77013619Y-95583571D01*
X77061238Y-95631190D01*
X77085048Y-95678809D01*
X92785381Y-98825618D02*
X92809190Y-98754189D01*
X92809190Y-98635142D01*
X92785381Y-98587523D01*
X92761571Y-98563713D01*
X92713952Y-98539904D01*
X92666333Y-98539904D01*
X92618714Y-98563713D01*
X92594905Y-98587523D01*
X92571095Y-98635142D01*
X92547286Y-98730380D01*
X92523476Y-98777999D01*
X92499667Y-98801808D01*
X92452048Y-98825618D01*
X92404429Y-98825618D01*
X92356810Y-98801808D01*
X92333000Y-98777999D01*
X92309190Y-98730380D01*
X92309190Y-98611332D01*
X92333000Y-98539904D01*
X92309190Y-98373237D02*
X92809190Y-98254190D01*
X92452048Y-98158952D01*
X92809190Y-98063714D01*
X92309190Y-97944666D01*
X92856810Y-97873237D02*
X92856810Y-97492285D01*
X92309190Y-97420856D02*
X92809190Y-97301809D01*
X92452048Y-97206571D01*
X92809190Y-97111333D01*
X92309190Y-96992285D01*
X92666333Y-96825618D02*
X92666333Y-96587523D01*
X92809190Y-96873237D02*
X92309190Y-96706570D01*
X92809190Y-96539904D01*
X92309190Y-96444666D02*
X92809190Y-96277999D01*
X92309190Y-96111333D01*
X92547286Y-95944666D02*
X92547286Y-95778000D01*
X92809190Y-95706571D02*
X92809190Y-95944666D01*
X92309190Y-95944666D01*
X92309190Y-95706571D01*
X92809190Y-95230381D02*
X92809190Y-95516095D01*
X92809190Y-95373238D02*
X92309190Y-95373238D01*
X92380619Y-95420857D01*
X92428238Y-95468476D01*
X92452048Y-95516095D01*
X77059190Y-85408999D02*
X77059190Y-85123285D01*
X77559190Y-85266142D02*
X77059190Y-85266142D01*
X77559190Y-84670904D02*
X77321095Y-84837571D01*
X77559190Y-84956618D02*
X77059190Y-84956618D01*
X77059190Y-84766142D01*
X77083000Y-84718523D01*
X77106810Y-84694714D01*
X77154429Y-84670904D01*
X77225857Y-84670904D01*
X77273476Y-84694714D01*
X77297286Y-84718523D01*
X77321095Y-84766142D01*
X77321095Y-84956618D01*
X77559190Y-84456618D02*
X77059190Y-84456618D01*
X77083000Y-83956619D02*
X77059190Y-84004238D01*
X77059190Y-84075666D01*
X77083000Y-84147095D01*
X77130619Y-84194714D01*
X77178238Y-84218523D01*
X77273476Y-84242333D01*
X77344905Y-84242333D01*
X77440143Y-84218523D01*
X77487762Y-84194714D01*
X77535381Y-84147095D01*
X77559190Y-84075666D01*
X77559190Y-84028047D01*
X77535381Y-83956619D01*
X77511571Y-83932809D01*
X77344905Y-83932809D01*
X77344905Y-84028047D01*
X77559190Y-83456619D02*
X77559190Y-83742333D01*
X77559190Y-83599476D02*
X77059190Y-83599476D01*
X77130619Y-83647095D01*
X77178238Y-83694714D01*
X77202048Y-83742333D01*
X74529190Y-183681523D02*
X74933952Y-183681523D01*
X74981571Y-183657714D01*
X75005381Y-183633904D01*
X75029190Y-183586285D01*
X75029190Y-183491047D01*
X75005381Y-183443428D01*
X74981571Y-183419619D01*
X74933952Y-183395809D01*
X74529190Y-183395809D01*
X75076810Y-183276761D02*
X75076810Y-182895809D01*
X75029190Y-182776761D02*
X74529190Y-182776761D01*
X75029190Y-182491047D01*
X74529190Y-182491047D01*
X74767286Y-182252951D02*
X74767286Y-182086285D01*
X75029190Y-182014856D02*
X75029190Y-182252951D01*
X74529190Y-182252951D01*
X74529190Y-182014856D01*
X74553000Y-181538666D02*
X74529190Y-181586285D01*
X74529190Y-181657713D01*
X74553000Y-181729142D01*
X74600619Y-181776761D01*
X74648238Y-181800570D01*
X74743476Y-181824380D01*
X74814905Y-181824380D01*
X74910143Y-181800570D01*
X74957762Y-181776761D01*
X75005381Y-181729142D01*
X75029190Y-181657713D01*
X75029190Y-181610094D01*
X75005381Y-181538666D01*
X74981571Y-181514856D01*
X74814905Y-181514856D01*
X74814905Y-181610094D01*
X75029190Y-181038666D02*
X75029190Y-181324380D01*
X75029190Y-181181523D02*
X74529190Y-181181523D01*
X74600619Y-181229142D01*
X74648238Y-181276761D01*
X74672048Y-181324380D01*
X77684477Y-122027190D02*
X77684477Y-122431952D01*
X77708286Y-122479571D01*
X77732096Y-122503381D01*
X77779715Y-122527190D01*
X77874953Y-122527190D01*
X77922572Y-122503381D01*
X77946381Y-122479571D01*
X77970191Y-122431952D01*
X77970191Y-122027190D01*
X78089239Y-122574810D02*
X78470191Y-122574810D01*
X78589239Y-122527190D02*
X78589239Y-122027190D01*
X78874953Y-122527190D01*
X78874953Y-122027190D01*
X79113049Y-122265286D02*
X79279715Y-122265286D01*
X79351144Y-122527190D02*
X79113049Y-122527190D01*
X79113049Y-122027190D01*
X79351144Y-122027190D01*
X79827334Y-122051000D02*
X79779715Y-122027190D01*
X79708287Y-122027190D01*
X79636858Y-122051000D01*
X79589239Y-122098619D01*
X79565430Y-122146238D01*
X79541620Y-122241476D01*
X79541620Y-122312905D01*
X79565430Y-122408143D01*
X79589239Y-122455762D01*
X79636858Y-122503381D01*
X79708287Y-122527190D01*
X79755906Y-122527190D01*
X79827334Y-122503381D01*
X79851144Y-122479571D01*
X79851144Y-122312905D01*
X79755906Y-122312905D01*
X80041620Y-122074810D02*
X80065430Y-122051000D01*
X80113049Y-122027190D01*
X80232096Y-122027190D01*
X80279715Y-122051000D01*
X80303525Y-122074810D01*
X80327334Y-122122429D01*
X80327334Y-122170048D01*
X80303525Y-122241476D01*
X80017811Y-122527190D01*
X80327334Y-122527190D01*
X106446191Y-189083190D02*
X106446191Y-189487952D01*
X106470000Y-189535571D01*
X106493810Y-189559381D01*
X106541429Y-189583190D01*
X106636667Y-189583190D01*
X106684286Y-189559381D01*
X106708095Y-189535571D01*
X106731905Y-189487952D01*
X106731905Y-189083190D01*
X106850953Y-189630810D02*
X107231905Y-189630810D01*
X107446191Y-189083190D02*
X107541429Y-189083190D01*
X107589048Y-189107000D01*
X107636667Y-189154619D01*
X107660476Y-189249857D01*
X107660476Y-189416524D01*
X107636667Y-189511762D01*
X107589048Y-189559381D01*
X107541429Y-189583190D01*
X107446191Y-189583190D01*
X107398572Y-189559381D01*
X107350953Y-189511762D01*
X107327143Y-189416524D01*
X107327143Y-189249857D01*
X107350953Y-189154619D01*
X107398572Y-189107000D01*
X107446191Y-189083190D01*
X107850953Y-189440333D02*
X108089048Y-189440333D01*
X107803334Y-189583190D02*
X107970001Y-189083190D01*
X108136667Y-189583190D01*
X108589048Y-189535571D02*
X108565238Y-189559381D01*
X108493810Y-189583190D01*
X108446191Y-189583190D01*
X108374762Y-189559381D01*
X108327143Y-189511762D01*
X108303334Y-189464143D01*
X108279524Y-189368905D01*
X108279524Y-189297476D01*
X108303334Y-189202238D01*
X108327143Y-189154619D01*
X108374762Y-189107000D01*
X108446191Y-189083190D01*
X108493810Y-189083190D01*
X108565238Y-189107000D01*
X108589048Y-189130810D01*
X109041429Y-189583190D02*
X108803334Y-189583190D01*
X108803334Y-189083190D01*
X109208096Y-189321286D02*
X109374762Y-189321286D01*
X109446191Y-189583190D02*
X109208096Y-189583190D01*
X109208096Y-189083190D01*
X109446191Y-189083190D01*
X109636667Y-189440333D02*
X109874762Y-189440333D01*
X109589048Y-189583190D02*
X109755715Y-189083190D01*
X109922381Y-189583190D01*
X110089048Y-189583190D02*
X110089048Y-189083190D01*
X110374762Y-189583190D01*
X110374762Y-189083190D01*
X110493810Y-189630810D02*
X110874762Y-189630810D01*
X110993810Y-189583190D02*
X110993810Y-189083190D01*
X111231905Y-189583190D02*
X111231905Y-189083190D01*
X111517619Y-189583190D01*
X111517619Y-189083190D01*
X112017619Y-189583190D02*
X111731905Y-189583190D01*
X111874762Y-189583190D02*
X111874762Y-189083190D01*
X111827143Y-189154619D01*
X111779524Y-189202238D01*
X111731905Y-189226048D01*
X71588573Y-133965190D02*
X71588573Y-134369952D01*
X71612382Y-134417571D01*
X71636192Y-134441381D01*
X71683811Y-134465190D01*
X71779049Y-134465190D01*
X71826668Y-134441381D01*
X71850477Y-134417571D01*
X71874287Y-134369952D01*
X71874287Y-133965190D01*
X71993335Y-134512810D02*
X72374287Y-134512810D01*
X72588573Y-133965190D02*
X72683811Y-133965190D01*
X72731430Y-133989000D01*
X72779049Y-134036619D01*
X72802858Y-134131857D01*
X72802858Y-134298524D01*
X72779049Y-134393762D01*
X72731430Y-134441381D01*
X72683811Y-134465190D01*
X72588573Y-134465190D01*
X72540954Y-134441381D01*
X72493335Y-134393762D01*
X72469525Y-134298524D01*
X72469525Y-134131857D01*
X72493335Y-134036619D01*
X72540954Y-133989000D01*
X72588573Y-133965190D01*
X72993335Y-134322333D02*
X73231430Y-134322333D01*
X72945716Y-134465190D02*
X73112383Y-133965190D01*
X73279049Y-134465190D01*
X73612382Y-134203286D02*
X73445716Y-134203286D01*
X73445716Y-134465190D02*
X73445716Y-133965190D01*
X73683811Y-133965190D01*
X73826668Y-133965190D02*
X74160001Y-134465190D01*
X74160001Y-133965190D02*
X73826668Y-134465190D01*
X74231429Y-134512810D02*
X74612381Y-134512810D01*
X74731429Y-134465190D02*
X74731429Y-133965190D01*
X74969524Y-134465190D02*
X74969524Y-133965190D01*
X75255238Y-134465190D01*
X75255238Y-133965190D01*
X75755238Y-134465190D02*
X75469524Y-134465190D01*
X75612381Y-134465190D02*
X75612381Y-133965190D01*
X75564762Y-134036619D01*
X75517143Y-134084238D01*
X75469524Y-134108048D01*
X120249190Y-158360761D02*
X120653952Y-158360761D01*
X120701571Y-158336952D01*
X120725381Y-158313142D01*
X120749190Y-158265523D01*
X120749190Y-158170285D01*
X120725381Y-158122666D01*
X120701571Y-158098857D01*
X120653952Y-158075047D01*
X120249190Y-158075047D01*
X120796810Y-157955999D02*
X120796810Y-157575047D01*
X120249190Y-157360761D02*
X120249190Y-157265523D01*
X120273000Y-157217904D01*
X120320619Y-157170285D01*
X120415857Y-157146476D01*
X120582524Y-157146476D01*
X120677762Y-157170285D01*
X120725381Y-157217904D01*
X120749190Y-157265523D01*
X120749190Y-157360761D01*
X120725381Y-157408380D01*
X120677762Y-157455999D01*
X120582524Y-157479809D01*
X120415857Y-157479809D01*
X120320619Y-157455999D01*
X120273000Y-157408380D01*
X120249190Y-157360761D01*
X120606333Y-156955999D02*
X120606333Y-156717904D01*
X120749190Y-157003618D02*
X120249190Y-156836951D01*
X120749190Y-156670285D01*
X120487286Y-156336952D02*
X120487286Y-156503618D01*
X120749190Y-156503618D02*
X120249190Y-156503618D01*
X120249190Y-156265523D01*
X120249190Y-156122666D02*
X120749190Y-155789333D01*
X120249190Y-155789333D02*
X120749190Y-156122666D01*
X120796810Y-155717905D02*
X120796810Y-155336953D01*
X120249190Y-155122667D02*
X120249190Y-155027429D01*
X120273000Y-154979810D01*
X120320619Y-154932191D01*
X120415857Y-154908382D01*
X120582524Y-154908382D01*
X120677762Y-154932191D01*
X120725381Y-154979810D01*
X120749190Y-155027429D01*
X120749190Y-155122667D01*
X120725381Y-155170286D01*
X120677762Y-155217905D01*
X120582524Y-155241715D01*
X120415857Y-155241715D01*
X120320619Y-155217905D01*
X120273000Y-155170286D01*
X120249190Y-155122667D01*
X120249190Y-154694095D02*
X120653952Y-154694095D01*
X120701571Y-154670286D01*
X120725381Y-154646476D01*
X120749190Y-154598857D01*
X120749190Y-154503619D01*
X120725381Y-154456000D01*
X120701571Y-154432191D01*
X120653952Y-154408381D01*
X120249190Y-154408381D01*
X120249190Y-154241714D02*
X120249190Y-153956000D01*
X120749190Y-154098857D02*
X120249190Y-154098857D01*
X120749190Y-153527429D02*
X120749190Y-153813143D01*
X120749190Y-153670286D02*
X120249190Y-153670286D01*
X120320619Y-153717905D01*
X120368238Y-153765524D01*
X120392048Y-153813143D01*
X109009954Y-182225190D02*
X109009954Y-182629952D01*
X109033763Y-182677571D01*
X109057573Y-182701381D01*
X109105192Y-182725190D01*
X109200430Y-182725190D01*
X109248049Y-182701381D01*
X109271858Y-182677571D01*
X109295668Y-182629952D01*
X109295668Y-182225190D01*
X109414716Y-182772810D02*
X109795668Y-182772810D01*
X110009954Y-182225190D02*
X110105192Y-182225190D01*
X110152811Y-182249000D01*
X110200430Y-182296619D01*
X110224239Y-182391857D01*
X110224239Y-182558524D01*
X110200430Y-182653762D01*
X110152811Y-182701381D01*
X110105192Y-182725190D01*
X110009954Y-182725190D01*
X109962335Y-182701381D01*
X109914716Y-182653762D01*
X109890906Y-182558524D01*
X109890906Y-182391857D01*
X109914716Y-182296619D01*
X109962335Y-182249000D01*
X110009954Y-182225190D01*
X110414716Y-182582333D02*
X110652811Y-182582333D01*
X110367097Y-182725190D02*
X110533764Y-182225190D01*
X110700430Y-182725190D01*
X110748049Y-182772810D02*
X111129001Y-182772810D01*
X111414715Y-182463286D02*
X111248049Y-182463286D01*
X111248049Y-182725190D02*
X111248049Y-182225190D01*
X111486144Y-182225190D01*
X111629001Y-182225190D02*
X111962334Y-182725190D01*
X111962334Y-182225190D02*
X111629001Y-182725190D01*
X112081381Y-182225190D02*
X112248048Y-182725190D01*
X112414714Y-182225190D01*
X112676619Y-182225190D02*
X112771857Y-182225190D01*
X112819476Y-182249000D01*
X112867095Y-182296619D01*
X112890904Y-182391857D01*
X112890904Y-182558524D01*
X112867095Y-182653762D01*
X112819476Y-182701381D01*
X112771857Y-182725190D01*
X112676619Y-182725190D01*
X112629000Y-182701381D01*
X112581381Y-182653762D01*
X112557571Y-182558524D01*
X112557571Y-182391857D01*
X112581381Y-182296619D01*
X112629000Y-182249000D01*
X112676619Y-182225190D01*
X113343286Y-182725190D02*
X113105191Y-182725190D01*
X113105191Y-182225190D01*
X113771857Y-182725190D02*
X113486143Y-182725190D01*
X113629000Y-182725190D02*
X113629000Y-182225190D01*
X113581381Y-182296619D01*
X113533762Y-182344238D01*
X113486143Y-182368048D01*
X92055190Y-190856951D02*
X92459952Y-190856951D01*
X92507571Y-190833142D01*
X92531381Y-190809332D01*
X92555190Y-190761713D01*
X92555190Y-190666475D01*
X92531381Y-190618856D01*
X92507571Y-190595047D01*
X92459952Y-190571237D01*
X92055190Y-190571237D01*
X92602810Y-190452189D02*
X92602810Y-190071237D01*
X92055190Y-189856951D02*
X92055190Y-189761713D01*
X92079000Y-189714094D01*
X92126619Y-189666475D01*
X92221857Y-189642666D01*
X92388524Y-189642666D01*
X92483762Y-189666475D01*
X92531381Y-189714094D01*
X92555190Y-189761713D01*
X92555190Y-189856951D01*
X92531381Y-189904570D01*
X92483762Y-189952189D01*
X92388524Y-189975999D01*
X92221857Y-189975999D01*
X92126619Y-189952189D01*
X92079000Y-189904570D01*
X92055190Y-189856951D01*
X92412333Y-189452189D02*
X92412333Y-189214094D01*
X92555190Y-189499808D02*
X92055190Y-189333141D01*
X92555190Y-189166475D01*
X92602810Y-189118856D02*
X92602810Y-188737904D01*
X92555190Y-188618856D02*
X92055190Y-188618856D01*
X92412333Y-188452190D01*
X92055190Y-188285523D01*
X92555190Y-188285523D01*
X92555190Y-188047427D02*
X92055190Y-188047427D01*
X92055190Y-187856951D02*
X92555190Y-187523618D01*
X92055190Y-187523618D02*
X92555190Y-187856951D01*
X92555190Y-187071238D02*
X92555190Y-187356952D01*
X92555190Y-187214095D02*
X92055190Y-187214095D01*
X92126619Y-187261714D01*
X92174238Y-187309333D01*
X92198048Y-187356952D01*
X89642190Y-144990190D02*
X90046952Y-144990190D01*
X90094571Y-144966381D01*
X90118381Y-144942571D01*
X90142190Y-144894952D01*
X90142190Y-144799714D01*
X90118381Y-144752095D01*
X90094571Y-144728286D01*
X90046952Y-144704476D01*
X89642190Y-144704476D01*
X90189810Y-144585428D02*
X90189810Y-144204476D01*
X90142190Y-144085428D02*
X89642190Y-144085428D01*
X89642190Y-143894952D01*
X89666000Y-143847333D01*
X89689810Y-143823524D01*
X89737429Y-143799714D01*
X89808857Y-143799714D01*
X89856476Y-143823524D01*
X89880286Y-143847333D01*
X89904095Y-143894952D01*
X89904095Y-144085428D01*
X90142190Y-143347333D02*
X90142190Y-143585428D01*
X89642190Y-143585428D01*
X90142190Y-142942571D02*
X90142190Y-143180666D01*
X89642190Y-143180666D01*
X90142190Y-142514000D02*
X90142190Y-142799714D01*
X90142190Y-142656857D02*
X89642190Y-142656857D01*
X89713619Y-142704476D01*
X89761238Y-142752095D01*
X89785048Y-142799714D01*
X109073190Y-138755189D02*
X109477952Y-138755189D01*
X109525571Y-138731380D01*
X109549381Y-138707570D01*
X109573190Y-138659951D01*
X109573190Y-138564713D01*
X109549381Y-138517094D01*
X109525571Y-138493285D01*
X109477952Y-138469475D01*
X109073190Y-138469475D01*
X109620810Y-138350427D02*
X109620810Y-137969475D01*
X109549381Y-137874237D02*
X109573190Y-137802808D01*
X109573190Y-137683761D01*
X109549381Y-137636142D01*
X109525571Y-137612332D01*
X109477952Y-137588523D01*
X109430333Y-137588523D01*
X109382714Y-137612332D01*
X109358905Y-137636142D01*
X109335095Y-137683761D01*
X109311286Y-137778999D01*
X109287476Y-137826618D01*
X109263667Y-137850427D01*
X109216048Y-137874237D01*
X109168429Y-137874237D01*
X109120810Y-137850427D01*
X109097000Y-137826618D01*
X109073190Y-137778999D01*
X109073190Y-137659951D01*
X109097000Y-137588523D01*
X109430333Y-137398047D02*
X109430333Y-137159952D01*
X109573190Y-137445666D02*
X109073190Y-137278999D01*
X109573190Y-137112333D01*
X109073190Y-136993285D02*
X109573190Y-136874238D01*
X109216048Y-136779000D01*
X109573190Y-136683762D01*
X109073190Y-136564714D01*
X109620810Y-136493285D02*
X109620810Y-136112333D01*
X109073190Y-135898047D02*
X109073190Y-135802809D01*
X109097000Y-135755190D01*
X109144619Y-135707571D01*
X109239857Y-135683762D01*
X109406524Y-135683762D01*
X109501762Y-135707571D01*
X109549381Y-135755190D01*
X109573190Y-135802809D01*
X109573190Y-135898047D01*
X109549381Y-135945666D01*
X109501762Y-135993285D01*
X109406524Y-136017095D01*
X109239857Y-136017095D01*
X109144619Y-135993285D01*
X109097000Y-135945666D01*
X109073190Y-135898047D01*
X109430333Y-135493285D02*
X109430333Y-135255190D01*
X109573190Y-135540904D02*
X109073190Y-135374237D01*
X109573190Y-135207571D01*
X109573190Y-134779000D02*
X109573190Y-135064714D01*
X109573190Y-134921857D02*
X109073190Y-134921857D01*
X109144619Y-134969476D01*
X109192238Y-135017095D01*
X109216048Y-135064714D01*
X103683571Y-195651285D02*
X103707381Y-195675095D01*
X103731190Y-195746523D01*
X103731190Y-195794142D01*
X103707381Y-195865571D01*
X103659762Y-195913190D01*
X103612143Y-195936999D01*
X103516905Y-195960809D01*
X103445476Y-195960809D01*
X103350238Y-195936999D01*
X103302619Y-195913190D01*
X103255000Y-195865571D01*
X103231190Y-195794142D01*
X103231190Y-195746523D01*
X103255000Y-195675095D01*
X103278810Y-195651285D01*
X103778810Y-195556047D02*
X103778810Y-195175095D01*
X103231190Y-194960809D02*
X103231190Y-194865571D01*
X103255000Y-194817952D01*
X103302619Y-194770333D01*
X103397857Y-194746524D01*
X103564524Y-194746524D01*
X103659762Y-194770333D01*
X103707381Y-194817952D01*
X103731190Y-194865571D01*
X103731190Y-194960809D01*
X103707381Y-195008428D01*
X103659762Y-195056047D01*
X103564524Y-195079857D01*
X103397857Y-195079857D01*
X103302619Y-195056047D01*
X103255000Y-195008428D01*
X103231190Y-194960809D01*
X103588333Y-194556047D02*
X103588333Y-194317952D01*
X103731190Y-194603666D02*
X103231190Y-194436999D01*
X103731190Y-194270333D01*
X103469286Y-193937000D02*
X103493095Y-193865571D01*
X103516905Y-193841762D01*
X103564524Y-193817952D01*
X103635952Y-193817952D01*
X103683571Y-193841762D01*
X103707381Y-193865571D01*
X103731190Y-193913190D01*
X103731190Y-194103666D01*
X103231190Y-194103666D01*
X103231190Y-193937000D01*
X103255000Y-193889381D01*
X103278810Y-193865571D01*
X103326429Y-193841762D01*
X103374048Y-193841762D01*
X103421667Y-193865571D01*
X103445476Y-193889381D01*
X103469286Y-193937000D01*
X103469286Y-194103666D01*
X103493095Y-193508428D02*
X103731190Y-193508428D01*
X103231190Y-193675095D02*
X103493095Y-193508428D01*
X103231190Y-193341762D01*
X103731190Y-192913191D02*
X103731190Y-193198905D01*
X103731190Y-193056048D02*
X103231190Y-193056048D01*
X103302619Y-193103667D01*
X103350238Y-193151286D01*
X103374048Y-193198905D01*
X113212715Y-187503571D02*
X113188905Y-187527381D01*
X113117477Y-187551190D01*
X113069858Y-187551190D01*
X112998429Y-187527381D01*
X112950810Y-187479762D01*
X112927001Y-187432143D01*
X112903191Y-187336905D01*
X112903191Y-187265476D01*
X112927001Y-187170238D01*
X112950810Y-187122619D01*
X112998429Y-187075000D01*
X113069858Y-187051190D01*
X113117477Y-187051190D01*
X113188905Y-187075000D01*
X113212715Y-187098810D01*
X113307953Y-187598810D02*
X113688905Y-187598810D01*
X113903191Y-187051190D02*
X113998429Y-187051190D01*
X114046048Y-187075000D01*
X114093667Y-187122619D01*
X114117476Y-187217857D01*
X114117476Y-187384524D01*
X114093667Y-187479762D01*
X114046048Y-187527381D01*
X113998429Y-187551190D01*
X113903191Y-187551190D01*
X113855572Y-187527381D01*
X113807953Y-187479762D01*
X113784143Y-187384524D01*
X113784143Y-187217857D01*
X113807953Y-187122619D01*
X113855572Y-187075000D01*
X113903191Y-187051190D01*
X114307953Y-187408333D02*
X114546048Y-187408333D01*
X114260334Y-187551190D02*
X114427001Y-187051190D01*
X114593667Y-187551190D01*
X114927000Y-187289286D02*
X114998429Y-187313095D01*
X115022238Y-187336905D01*
X115046048Y-187384524D01*
X115046048Y-187455952D01*
X115022238Y-187503571D01*
X114998429Y-187527381D01*
X114950810Y-187551190D01*
X114760334Y-187551190D01*
X114760334Y-187051190D01*
X114927000Y-187051190D01*
X114974619Y-187075000D01*
X114998429Y-187098810D01*
X115022238Y-187146429D01*
X115022238Y-187194048D01*
X114998429Y-187241667D01*
X114974619Y-187265476D01*
X114927000Y-187289286D01*
X114760334Y-187289286D01*
X115355572Y-187313095D02*
X115355572Y-187551190D01*
X115188905Y-187051190D02*
X115355572Y-187313095D01*
X115522238Y-187051190D01*
X115665095Y-187098810D02*
X115688905Y-187075000D01*
X115736524Y-187051190D01*
X115855571Y-187051190D01*
X115903190Y-187075000D01*
X115927000Y-187098810D01*
X115950809Y-187146429D01*
X115950809Y-187194048D01*
X115927000Y-187265476D01*
X115641286Y-187551190D01*
X115950809Y-187551190D01*
X88701715Y-182677571D02*
X88677905Y-182701381D01*
X88606477Y-182725190D01*
X88558858Y-182725190D01*
X88487429Y-182701381D01*
X88439810Y-182653762D01*
X88416001Y-182606143D01*
X88392191Y-182510905D01*
X88392191Y-182439476D01*
X88416001Y-182344238D01*
X88439810Y-182296619D01*
X88487429Y-182249000D01*
X88558858Y-182225190D01*
X88606477Y-182225190D01*
X88677905Y-182249000D01*
X88701715Y-182272810D01*
X88796953Y-182772810D02*
X89177905Y-182772810D01*
X89392191Y-182225190D02*
X89487429Y-182225190D01*
X89535048Y-182249000D01*
X89582667Y-182296619D01*
X89606476Y-182391857D01*
X89606476Y-182558524D01*
X89582667Y-182653762D01*
X89535048Y-182701381D01*
X89487429Y-182725190D01*
X89392191Y-182725190D01*
X89344572Y-182701381D01*
X89296953Y-182653762D01*
X89273143Y-182558524D01*
X89273143Y-182391857D01*
X89296953Y-182296619D01*
X89344572Y-182249000D01*
X89392191Y-182225190D01*
X89796953Y-182582333D02*
X90035048Y-182582333D01*
X89749334Y-182725190D02*
X89916001Y-182225190D01*
X90082667Y-182725190D01*
X90416000Y-182463286D02*
X90487429Y-182487095D01*
X90511238Y-182510905D01*
X90535048Y-182558524D01*
X90535048Y-182629952D01*
X90511238Y-182677571D01*
X90487429Y-182701381D01*
X90439810Y-182725190D01*
X90249334Y-182725190D01*
X90249334Y-182225190D01*
X90416000Y-182225190D01*
X90463619Y-182249000D01*
X90487429Y-182272810D01*
X90511238Y-182320429D01*
X90511238Y-182368048D01*
X90487429Y-182415667D01*
X90463619Y-182439476D01*
X90416000Y-182463286D01*
X90249334Y-182463286D01*
X90844572Y-182487095D02*
X90844572Y-182725190D01*
X90677905Y-182225190D02*
X90844572Y-182487095D01*
X91011238Y-182225190D01*
X91130286Y-182225190D02*
X91439809Y-182225190D01*
X91273143Y-182415667D01*
X91344571Y-182415667D01*
X91392190Y-182439476D01*
X91416000Y-182463286D01*
X91439809Y-182510905D01*
X91439809Y-182629952D01*
X91416000Y-182677571D01*
X91392190Y-182701381D01*
X91344571Y-182725190D01*
X91201714Y-182725190D01*
X91154095Y-182701381D01*
X91130286Y-182677571D01*
X91495715Y-195885571D02*
X91471905Y-195909381D01*
X91400477Y-195933190D01*
X91352858Y-195933190D01*
X91281429Y-195909381D01*
X91233810Y-195861762D01*
X91210001Y-195814143D01*
X91186191Y-195718905D01*
X91186191Y-195647476D01*
X91210001Y-195552238D01*
X91233810Y-195504619D01*
X91281429Y-195457000D01*
X91352858Y-195433190D01*
X91400477Y-195433190D01*
X91471905Y-195457000D01*
X91495715Y-195480810D01*
X91590953Y-195980810D02*
X91971905Y-195980810D01*
X92186191Y-195433190D02*
X92281429Y-195433190D01*
X92329048Y-195457000D01*
X92376667Y-195504619D01*
X92400476Y-195599857D01*
X92400476Y-195766524D01*
X92376667Y-195861762D01*
X92329048Y-195909381D01*
X92281429Y-195933190D01*
X92186191Y-195933190D01*
X92138572Y-195909381D01*
X92090953Y-195861762D01*
X92067143Y-195766524D01*
X92067143Y-195599857D01*
X92090953Y-195504619D01*
X92138572Y-195457000D01*
X92186191Y-195433190D01*
X92590953Y-195790333D02*
X92829048Y-195790333D01*
X92543334Y-195933190D02*
X92710001Y-195433190D01*
X92876667Y-195933190D01*
X93210000Y-195671286D02*
X93281429Y-195695095D01*
X93305238Y-195718905D01*
X93329048Y-195766524D01*
X93329048Y-195837952D01*
X93305238Y-195885571D01*
X93281429Y-195909381D01*
X93233810Y-195933190D01*
X93043334Y-195933190D01*
X93043334Y-195433190D01*
X93210000Y-195433190D01*
X93257619Y-195457000D01*
X93281429Y-195480810D01*
X93305238Y-195528429D01*
X93305238Y-195576048D01*
X93281429Y-195623667D01*
X93257619Y-195647476D01*
X93210000Y-195671286D01*
X93043334Y-195671286D01*
X93638572Y-195695095D02*
X93638572Y-195933190D01*
X93471905Y-195433190D02*
X93638572Y-195695095D01*
X93805238Y-195433190D01*
X94186190Y-195599857D02*
X94186190Y-195933190D01*
X94067143Y-195409381D02*
X93948095Y-195766524D01*
X94257619Y-195766524D01*
X115752715Y-177597571D02*
X115728905Y-177621381D01*
X115657477Y-177645190D01*
X115609858Y-177645190D01*
X115538429Y-177621381D01*
X115490810Y-177573762D01*
X115467001Y-177526143D01*
X115443191Y-177430905D01*
X115443191Y-177359476D01*
X115467001Y-177264238D01*
X115490810Y-177216619D01*
X115538429Y-177169000D01*
X115609858Y-177145190D01*
X115657477Y-177145190D01*
X115728905Y-177169000D01*
X115752715Y-177192810D01*
X115847953Y-177692810D02*
X116228905Y-177692810D01*
X116443191Y-177145190D02*
X116538429Y-177145190D01*
X116586048Y-177169000D01*
X116633667Y-177216619D01*
X116657476Y-177311857D01*
X116657476Y-177478524D01*
X116633667Y-177573762D01*
X116586048Y-177621381D01*
X116538429Y-177645190D01*
X116443191Y-177645190D01*
X116395572Y-177621381D01*
X116347953Y-177573762D01*
X116324143Y-177478524D01*
X116324143Y-177311857D01*
X116347953Y-177216619D01*
X116395572Y-177169000D01*
X116443191Y-177145190D01*
X116847953Y-177502333D02*
X117086048Y-177502333D01*
X116800334Y-177645190D02*
X116967001Y-177145190D01*
X117133667Y-177645190D01*
X117467000Y-177383286D02*
X117538429Y-177407095D01*
X117562238Y-177430905D01*
X117586048Y-177478524D01*
X117586048Y-177549952D01*
X117562238Y-177597571D01*
X117538429Y-177621381D01*
X117490810Y-177645190D01*
X117300334Y-177645190D01*
X117300334Y-177145190D01*
X117467000Y-177145190D01*
X117514619Y-177169000D01*
X117538429Y-177192810D01*
X117562238Y-177240429D01*
X117562238Y-177288048D01*
X117538429Y-177335667D01*
X117514619Y-177359476D01*
X117467000Y-177383286D01*
X117300334Y-177383286D01*
X117895572Y-177407095D02*
X117895572Y-177645190D01*
X117728905Y-177145190D02*
X117895572Y-177407095D01*
X118062238Y-177145190D01*
X118467000Y-177145190D02*
X118228905Y-177145190D01*
X118205095Y-177383286D01*
X118228905Y-177359476D01*
X118276524Y-177335667D01*
X118395571Y-177335667D01*
X118443190Y-177359476D01*
X118467000Y-177383286D01*
X118490809Y-177430905D01*
X118490809Y-177549952D01*
X118467000Y-177597571D01*
X118443190Y-177621381D01*
X118395571Y-177645190D01*
X118276524Y-177645190D01*
X118228905Y-177621381D01*
X118205095Y-177597571D01*
X105084715Y-184455571D02*
X105060905Y-184479381D01*
X104989477Y-184503190D01*
X104941858Y-184503190D01*
X104870429Y-184479381D01*
X104822810Y-184431762D01*
X104799001Y-184384143D01*
X104775191Y-184288905D01*
X104775191Y-184217476D01*
X104799001Y-184122238D01*
X104822810Y-184074619D01*
X104870429Y-184027000D01*
X104941858Y-184003190D01*
X104989477Y-184003190D01*
X105060905Y-184027000D01*
X105084715Y-184050810D01*
X105179953Y-184550810D02*
X105560905Y-184550810D01*
X105775191Y-184003190D02*
X105870429Y-184003190D01*
X105918048Y-184027000D01*
X105965667Y-184074619D01*
X105989476Y-184169857D01*
X105989476Y-184336524D01*
X105965667Y-184431762D01*
X105918048Y-184479381D01*
X105870429Y-184503190D01*
X105775191Y-184503190D01*
X105727572Y-184479381D01*
X105679953Y-184431762D01*
X105656143Y-184336524D01*
X105656143Y-184169857D01*
X105679953Y-184074619D01*
X105727572Y-184027000D01*
X105775191Y-184003190D01*
X106179953Y-184360333D02*
X106418048Y-184360333D01*
X106132334Y-184503190D02*
X106299001Y-184003190D01*
X106465667Y-184503190D01*
X106799000Y-184241286D02*
X106870429Y-184265095D01*
X106894238Y-184288905D01*
X106918048Y-184336524D01*
X106918048Y-184407952D01*
X106894238Y-184455571D01*
X106870429Y-184479381D01*
X106822810Y-184503190D01*
X106632334Y-184503190D01*
X106632334Y-184003190D01*
X106799000Y-184003190D01*
X106846619Y-184027000D01*
X106870429Y-184050810D01*
X106894238Y-184098429D01*
X106894238Y-184146048D01*
X106870429Y-184193667D01*
X106846619Y-184217476D01*
X106799000Y-184241286D01*
X106632334Y-184241286D01*
X107227572Y-184265095D02*
X107227572Y-184503190D01*
X107060905Y-184003190D02*
X107227572Y-184265095D01*
X107394238Y-184003190D01*
X107775190Y-184003190D02*
X107679952Y-184003190D01*
X107632333Y-184027000D01*
X107608524Y-184050810D01*
X107560905Y-184122238D01*
X107537095Y-184217476D01*
X107537095Y-184407952D01*
X107560905Y-184455571D01*
X107584714Y-184479381D01*
X107632333Y-184503190D01*
X107727571Y-184503190D01*
X107775190Y-184479381D01*
X107799000Y-184455571D01*
X107822809Y-184407952D01*
X107822809Y-184288905D01*
X107799000Y-184241286D01*
X107775190Y-184217476D01*
X107727571Y-184193667D01*
X107632333Y-184193667D01*
X107584714Y-184217476D01*
X107560905Y-184241286D01*
X107537095Y-184288905D01*
X80950571Y-130373285D02*
X80974381Y-130397095D01*
X80998190Y-130468523D01*
X80998190Y-130516142D01*
X80974381Y-130587571D01*
X80926762Y-130635190D01*
X80879143Y-130658999D01*
X80783905Y-130682809D01*
X80712476Y-130682809D01*
X80617238Y-130658999D01*
X80569619Y-130635190D01*
X80522000Y-130587571D01*
X80498190Y-130516142D01*
X80498190Y-130468523D01*
X80522000Y-130397095D01*
X80545810Y-130373285D01*
X81045810Y-130278047D02*
X81045810Y-129897095D01*
X80498190Y-129682809D02*
X80498190Y-129587571D01*
X80522000Y-129539952D01*
X80569619Y-129492333D01*
X80664857Y-129468524D01*
X80831524Y-129468524D01*
X80926762Y-129492333D01*
X80974381Y-129539952D01*
X80998190Y-129587571D01*
X80998190Y-129682809D01*
X80974381Y-129730428D01*
X80926762Y-129778047D01*
X80831524Y-129801857D01*
X80664857Y-129801857D01*
X80569619Y-129778047D01*
X80522000Y-129730428D01*
X80498190Y-129682809D01*
X80855333Y-129278047D02*
X80855333Y-129039952D01*
X80998190Y-129325666D02*
X80498190Y-129158999D01*
X80998190Y-128992333D01*
X80736286Y-128659000D02*
X80760095Y-128587571D01*
X80783905Y-128563762D01*
X80831524Y-128539952D01*
X80902952Y-128539952D01*
X80950571Y-128563762D01*
X80974381Y-128587571D01*
X80998190Y-128635190D01*
X80998190Y-128825666D01*
X80498190Y-128825666D01*
X80498190Y-128659000D01*
X80522000Y-128611381D01*
X80545810Y-128587571D01*
X80593429Y-128563762D01*
X80641048Y-128563762D01*
X80688667Y-128587571D01*
X80712476Y-128611381D01*
X80736286Y-128659000D01*
X80736286Y-128825666D01*
X80760095Y-128230428D02*
X80998190Y-128230428D01*
X80498190Y-128397095D02*
X80760095Y-128230428D01*
X80498190Y-128063762D01*
X80498190Y-127944714D02*
X80498190Y-127611381D01*
X80998190Y-127825667D01*
X116133715Y-138735571D02*
X116109905Y-138759381D01*
X116038477Y-138783190D01*
X115990858Y-138783190D01*
X115919429Y-138759381D01*
X115871810Y-138711762D01*
X115848001Y-138664143D01*
X115824191Y-138568905D01*
X115824191Y-138497476D01*
X115848001Y-138402238D01*
X115871810Y-138354619D01*
X115919429Y-138307000D01*
X115990858Y-138283190D01*
X116038477Y-138283190D01*
X116109905Y-138307000D01*
X116133715Y-138330810D01*
X116228953Y-138830810D02*
X116609905Y-138830810D01*
X116824191Y-138283190D02*
X116919429Y-138283190D01*
X116967048Y-138307000D01*
X117014667Y-138354619D01*
X117038476Y-138449857D01*
X117038476Y-138616524D01*
X117014667Y-138711762D01*
X116967048Y-138759381D01*
X116919429Y-138783190D01*
X116824191Y-138783190D01*
X116776572Y-138759381D01*
X116728953Y-138711762D01*
X116705143Y-138616524D01*
X116705143Y-138449857D01*
X116728953Y-138354619D01*
X116776572Y-138307000D01*
X116824191Y-138283190D01*
X117228953Y-138640333D02*
X117467048Y-138640333D01*
X117181334Y-138783190D02*
X117348001Y-138283190D01*
X117514667Y-138783190D01*
X117848000Y-138521286D02*
X117919429Y-138545095D01*
X117943238Y-138568905D01*
X117967048Y-138616524D01*
X117967048Y-138687952D01*
X117943238Y-138735571D01*
X117919429Y-138759381D01*
X117871810Y-138783190D01*
X117681334Y-138783190D01*
X117681334Y-138283190D01*
X117848000Y-138283190D01*
X117895619Y-138307000D01*
X117919429Y-138330810D01*
X117943238Y-138378429D01*
X117943238Y-138426048D01*
X117919429Y-138473667D01*
X117895619Y-138497476D01*
X117848000Y-138521286D01*
X117681334Y-138521286D01*
X118276572Y-138545095D02*
X118276572Y-138783190D01*
X118109905Y-138283190D02*
X118276572Y-138545095D01*
X118443238Y-138283190D01*
X118633714Y-138783190D02*
X118728952Y-138783190D01*
X118776571Y-138759381D01*
X118800381Y-138735571D01*
X118848000Y-138664143D01*
X118871809Y-138568905D01*
X118871809Y-138378429D01*
X118848000Y-138330810D01*
X118824190Y-138307000D01*
X118776571Y-138283190D01*
X118681333Y-138283190D01*
X118633714Y-138307000D01*
X118609905Y-138330810D01*
X118586095Y-138378429D01*
X118586095Y-138497476D01*
X118609905Y-138545095D01*
X118633714Y-138568905D01*
X118681333Y-138592714D01*
X118776571Y-138592714D01*
X118824190Y-138568905D01*
X118848000Y-138545095D01*
X118871809Y-138497476D01*
X100528620Y-133782571D02*
X100504810Y-133806381D01*
X100433382Y-133830190D01*
X100385763Y-133830190D01*
X100314334Y-133806381D01*
X100266715Y-133758762D01*
X100242906Y-133711143D01*
X100219096Y-133615905D01*
X100219096Y-133544476D01*
X100242906Y-133449238D01*
X100266715Y-133401619D01*
X100314334Y-133354000D01*
X100385763Y-133330190D01*
X100433382Y-133330190D01*
X100504810Y-133354000D01*
X100528620Y-133377810D01*
X100623858Y-133877810D02*
X101004810Y-133877810D01*
X101219096Y-133330190D02*
X101314334Y-133330190D01*
X101361953Y-133354000D01*
X101409572Y-133401619D01*
X101433381Y-133496857D01*
X101433381Y-133663524D01*
X101409572Y-133758762D01*
X101361953Y-133806381D01*
X101314334Y-133830190D01*
X101219096Y-133830190D01*
X101171477Y-133806381D01*
X101123858Y-133758762D01*
X101100048Y-133663524D01*
X101100048Y-133496857D01*
X101123858Y-133401619D01*
X101171477Y-133354000D01*
X101219096Y-133330190D01*
X101623858Y-133687333D02*
X101861953Y-133687333D01*
X101576239Y-133830190D02*
X101742906Y-133330190D01*
X101909572Y-133830190D01*
X102242905Y-133568286D02*
X102314334Y-133592095D01*
X102338143Y-133615905D01*
X102361953Y-133663524D01*
X102361953Y-133734952D01*
X102338143Y-133782571D01*
X102314334Y-133806381D01*
X102266715Y-133830190D01*
X102076239Y-133830190D01*
X102076239Y-133330190D01*
X102242905Y-133330190D01*
X102290524Y-133354000D01*
X102314334Y-133377810D01*
X102338143Y-133425429D01*
X102338143Y-133473048D01*
X102314334Y-133520667D01*
X102290524Y-133544476D01*
X102242905Y-133568286D01*
X102076239Y-133568286D01*
X102671477Y-133592095D02*
X102671477Y-133830190D01*
X102504810Y-133330190D02*
X102671477Y-133592095D01*
X102838143Y-133330190D01*
X103266714Y-133830190D02*
X102981000Y-133830190D01*
X103123857Y-133830190D02*
X103123857Y-133330190D01*
X103076238Y-133401619D01*
X103028619Y-133449238D01*
X102981000Y-133473048D01*
X103576238Y-133330190D02*
X103623857Y-133330190D01*
X103671476Y-133354000D01*
X103695285Y-133377810D01*
X103719095Y-133425429D01*
X103742904Y-133520667D01*
X103742904Y-133639714D01*
X103719095Y-133734952D01*
X103695285Y-133782571D01*
X103671476Y-133806381D01*
X103623857Y-133830190D01*
X103576238Y-133830190D01*
X103528619Y-133806381D01*
X103504809Y-133782571D01*
X103481000Y-133734952D01*
X103457190Y-133639714D01*
X103457190Y-133520667D01*
X103481000Y-133425429D01*
X103504809Y-133377810D01*
X103528619Y-133354000D01*
X103576238Y-133330190D01*
X121610620Y-162992571D02*
X121586810Y-163016381D01*
X121515382Y-163040190D01*
X121467763Y-163040190D01*
X121396334Y-163016381D01*
X121348715Y-162968762D01*
X121324906Y-162921143D01*
X121301096Y-162825905D01*
X121301096Y-162754476D01*
X121324906Y-162659238D01*
X121348715Y-162611619D01*
X121396334Y-162564000D01*
X121467763Y-162540190D01*
X121515382Y-162540190D01*
X121586810Y-162564000D01*
X121610620Y-162587810D01*
X121705858Y-163087810D02*
X122086810Y-163087810D01*
X122301096Y-162540190D02*
X122396334Y-162540190D01*
X122443953Y-162564000D01*
X122491572Y-162611619D01*
X122515381Y-162706857D01*
X122515381Y-162873524D01*
X122491572Y-162968762D01*
X122443953Y-163016381D01*
X122396334Y-163040190D01*
X122301096Y-163040190D01*
X122253477Y-163016381D01*
X122205858Y-162968762D01*
X122182048Y-162873524D01*
X122182048Y-162706857D01*
X122205858Y-162611619D01*
X122253477Y-162564000D01*
X122301096Y-162540190D01*
X122705858Y-162897333D02*
X122943953Y-162897333D01*
X122658239Y-163040190D02*
X122824906Y-162540190D01*
X122991572Y-163040190D01*
X123324905Y-162778286D02*
X123396334Y-162802095D01*
X123420143Y-162825905D01*
X123443953Y-162873524D01*
X123443953Y-162944952D01*
X123420143Y-162992571D01*
X123396334Y-163016381D01*
X123348715Y-163040190D01*
X123158239Y-163040190D01*
X123158239Y-162540190D01*
X123324905Y-162540190D01*
X123372524Y-162564000D01*
X123396334Y-162587810D01*
X123420143Y-162635429D01*
X123420143Y-162683048D01*
X123396334Y-162730667D01*
X123372524Y-162754476D01*
X123324905Y-162778286D01*
X123158239Y-162778286D01*
X123753477Y-162802095D02*
X123753477Y-163040190D01*
X123586810Y-162540190D02*
X123753477Y-162802095D01*
X123920143Y-162540190D01*
X124348714Y-163040190D02*
X124063000Y-163040190D01*
X124205857Y-163040190D02*
X124205857Y-162540190D01*
X124158238Y-162611619D01*
X124110619Y-162659238D01*
X124063000Y-162683048D01*
X124824904Y-163040190D02*
X124539190Y-163040190D01*
X124682047Y-163040190D02*
X124682047Y-162540190D01*
X124634428Y-162611619D01*
X124586809Y-162659238D01*
X124539190Y-162683048D01*
X118923571Y-152836380D02*
X118947381Y-152860190D01*
X118971190Y-152931618D01*
X118971190Y-152979237D01*
X118947381Y-153050666D01*
X118899762Y-153098285D01*
X118852143Y-153122094D01*
X118756905Y-153145904D01*
X118685476Y-153145904D01*
X118590238Y-153122094D01*
X118542619Y-153098285D01*
X118495000Y-153050666D01*
X118471190Y-152979237D01*
X118471190Y-152931618D01*
X118495000Y-152860190D01*
X118518810Y-152836380D01*
X119018810Y-152741142D02*
X119018810Y-152360190D01*
X118471190Y-152145904D02*
X118471190Y-152050666D01*
X118495000Y-152003047D01*
X118542619Y-151955428D01*
X118637857Y-151931619D01*
X118804524Y-151931619D01*
X118899762Y-151955428D01*
X118947381Y-152003047D01*
X118971190Y-152050666D01*
X118971190Y-152145904D01*
X118947381Y-152193523D01*
X118899762Y-152241142D01*
X118804524Y-152264952D01*
X118637857Y-152264952D01*
X118542619Y-152241142D01*
X118495000Y-152193523D01*
X118471190Y-152145904D01*
X118828333Y-151741142D02*
X118828333Y-151503047D01*
X118971190Y-151788761D02*
X118471190Y-151622094D01*
X118971190Y-151455428D01*
X118709286Y-151122095D02*
X118733095Y-151050666D01*
X118756905Y-151026857D01*
X118804524Y-151003047D01*
X118875952Y-151003047D01*
X118923571Y-151026857D01*
X118947381Y-151050666D01*
X118971190Y-151098285D01*
X118971190Y-151288761D01*
X118471190Y-151288761D01*
X118471190Y-151122095D01*
X118495000Y-151074476D01*
X118518810Y-151050666D01*
X118566429Y-151026857D01*
X118614048Y-151026857D01*
X118661667Y-151050666D01*
X118685476Y-151074476D01*
X118709286Y-151122095D01*
X118709286Y-151288761D01*
X118733095Y-150693523D02*
X118971190Y-150693523D01*
X118471190Y-150860190D02*
X118733095Y-150693523D01*
X118471190Y-150526857D01*
X118971190Y-150098286D02*
X118971190Y-150384000D01*
X118971190Y-150241143D02*
X118471190Y-150241143D01*
X118542619Y-150288762D01*
X118590238Y-150336381D01*
X118614048Y-150384000D01*
X118518810Y-149907810D02*
X118495000Y-149884000D01*
X118471190Y-149836381D01*
X118471190Y-149717334D01*
X118495000Y-149669715D01*
X118518810Y-149645905D01*
X118566429Y-149622096D01*
X118614048Y-149622096D01*
X118685476Y-149645905D01*
X118971190Y-149931619D01*
X118971190Y-149622096D01*
X89939571Y-152963380D02*
X89963381Y-152987190D01*
X89987190Y-153058618D01*
X89987190Y-153106237D01*
X89963381Y-153177666D01*
X89915762Y-153225285D01*
X89868143Y-153249094D01*
X89772905Y-153272904D01*
X89701476Y-153272904D01*
X89606238Y-153249094D01*
X89558619Y-153225285D01*
X89511000Y-153177666D01*
X89487190Y-153106237D01*
X89487190Y-153058618D01*
X89511000Y-152987190D01*
X89534810Y-152963380D01*
X90034810Y-152868142D02*
X90034810Y-152487190D01*
X89487190Y-152272904D02*
X89487190Y-152177666D01*
X89511000Y-152130047D01*
X89558619Y-152082428D01*
X89653857Y-152058619D01*
X89820524Y-152058619D01*
X89915762Y-152082428D01*
X89963381Y-152130047D01*
X89987190Y-152177666D01*
X89987190Y-152272904D01*
X89963381Y-152320523D01*
X89915762Y-152368142D01*
X89820524Y-152391952D01*
X89653857Y-152391952D01*
X89558619Y-152368142D01*
X89511000Y-152320523D01*
X89487190Y-152272904D01*
X89844333Y-151868142D02*
X89844333Y-151630047D01*
X89987190Y-151915761D02*
X89487190Y-151749094D01*
X89987190Y-151582428D01*
X89725286Y-151249095D02*
X89749095Y-151177666D01*
X89772905Y-151153857D01*
X89820524Y-151130047D01*
X89891952Y-151130047D01*
X89939571Y-151153857D01*
X89963381Y-151177666D01*
X89987190Y-151225285D01*
X89987190Y-151415761D01*
X89487190Y-151415761D01*
X89487190Y-151249095D01*
X89511000Y-151201476D01*
X89534810Y-151177666D01*
X89582429Y-151153857D01*
X89630048Y-151153857D01*
X89677667Y-151177666D01*
X89701476Y-151201476D01*
X89725286Y-151249095D01*
X89725286Y-151415761D01*
X89749095Y-150820523D02*
X89987190Y-150820523D01*
X89487190Y-150987190D02*
X89749095Y-150820523D01*
X89487190Y-150653857D01*
X89987190Y-150225286D02*
X89987190Y-150511000D01*
X89987190Y-150368143D02*
X89487190Y-150368143D01*
X89558619Y-150415762D01*
X89606238Y-150463381D01*
X89630048Y-150511000D01*
X89487190Y-150058619D02*
X89487190Y-149749096D01*
X89677667Y-149915762D01*
X89677667Y-149844334D01*
X89701476Y-149796715D01*
X89725286Y-149772905D01*
X89772905Y-149749096D01*
X89891952Y-149749096D01*
X89939571Y-149772905D01*
X89963381Y-149796715D01*
X89987190Y-149844334D01*
X89987190Y-149987191D01*
X89963381Y-150034810D01*
X89939571Y-150058619D01*
X70739191Y-177724571D02*
X70715381Y-177748381D01*
X70643953Y-177772190D01*
X70596334Y-177772190D01*
X70524905Y-177748381D01*
X70477286Y-177700762D01*
X70453477Y-177653143D01*
X70429667Y-177557905D01*
X70429667Y-177486476D01*
X70453477Y-177391238D01*
X70477286Y-177343619D01*
X70524905Y-177296000D01*
X70596334Y-177272190D01*
X70643953Y-177272190D01*
X70715381Y-177296000D01*
X70739191Y-177319810D01*
X70834429Y-177819810D02*
X71215381Y-177819810D01*
X71334429Y-177772190D02*
X71334429Y-177272190D01*
X71524905Y-177272190D01*
X71572524Y-177296000D01*
X71596333Y-177319810D01*
X71620143Y-177367429D01*
X71620143Y-177438857D01*
X71596333Y-177486476D01*
X71572524Y-177510286D01*
X71524905Y-177534095D01*
X71334429Y-177534095D01*
X71786810Y-177272190D02*
X71905857Y-177772190D01*
X72001095Y-177415048D01*
X72096333Y-177772190D01*
X72215381Y-177272190D01*
X72691572Y-177772190D02*
X72524905Y-177534095D01*
X72405858Y-177772190D02*
X72405858Y-177272190D01*
X72596334Y-177272190D01*
X72643953Y-177296000D01*
X72667762Y-177319810D01*
X72691572Y-177367429D01*
X72691572Y-177438857D01*
X72667762Y-177486476D01*
X72643953Y-177510286D01*
X72596334Y-177534095D01*
X72405858Y-177534095D01*
X73072524Y-177510286D02*
X73143953Y-177534095D01*
X73167762Y-177557905D01*
X73191572Y-177605524D01*
X73191572Y-177676952D01*
X73167762Y-177724571D01*
X73143953Y-177748381D01*
X73096334Y-177772190D01*
X72905858Y-177772190D01*
X72905858Y-177272190D01*
X73072524Y-177272190D01*
X73120143Y-177296000D01*
X73143953Y-177319810D01*
X73167762Y-177367429D01*
X73167762Y-177415048D01*
X73143953Y-177462667D01*
X73120143Y-177486476D01*
X73072524Y-177510286D01*
X72905858Y-177510286D01*
X73501096Y-177534095D02*
X73501096Y-177772190D01*
X73334429Y-177272190D02*
X73501096Y-177534095D01*
X73667762Y-177272190D01*
X73810619Y-177319810D02*
X73834429Y-177296000D01*
X73882048Y-177272190D01*
X74001095Y-177272190D01*
X74048714Y-177296000D01*
X74072524Y-177319810D01*
X74096333Y-177367429D01*
X74096333Y-177415048D01*
X74072524Y-177486476D01*
X73786810Y-177772190D01*
X74096333Y-177772190D01*
X72568571Y-121411809D02*
X72592381Y-121435619D01*
X72616190Y-121507047D01*
X72616190Y-121554666D01*
X72592381Y-121626095D01*
X72544762Y-121673714D01*
X72497143Y-121697523D01*
X72401905Y-121721333D01*
X72330476Y-121721333D01*
X72235238Y-121697523D01*
X72187619Y-121673714D01*
X72140000Y-121626095D01*
X72116190Y-121554666D01*
X72116190Y-121507047D01*
X72140000Y-121435619D01*
X72163810Y-121411809D01*
X72663810Y-121316571D02*
X72663810Y-120935619D01*
X72616190Y-120816571D02*
X72116190Y-120816571D01*
X72116190Y-120626095D01*
X72140000Y-120578476D01*
X72163810Y-120554667D01*
X72211429Y-120530857D01*
X72282857Y-120530857D01*
X72330476Y-120554667D01*
X72354286Y-120578476D01*
X72378095Y-120626095D01*
X72378095Y-120816571D01*
X72116190Y-120364190D02*
X72616190Y-120245143D01*
X72259048Y-120149905D01*
X72616190Y-120054667D01*
X72116190Y-119935619D01*
X72616190Y-119459428D02*
X72378095Y-119626095D01*
X72616190Y-119745142D02*
X72116190Y-119745142D01*
X72116190Y-119554666D01*
X72140000Y-119507047D01*
X72163810Y-119483238D01*
X72211429Y-119459428D01*
X72282857Y-119459428D01*
X72330476Y-119483238D01*
X72354286Y-119507047D01*
X72378095Y-119554666D01*
X72378095Y-119745142D01*
X72354286Y-119078476D02*
X72378095Y-119007047D01*
X72401905Y-118983238D01*
X72449524Y-118959428D01*
X72520952Y-118959428D01*
X72568571Y-118983238D01*
X72592381Y-119007047D01*
X72616190Y-119054666D01*
X72616190Y-119245142D01*
X72116190Y-119245142D01*
X72116190Y-119078476D01*
X72140000Y-119030857D01*
X72163810Y-119007047D01*
X72211429Y-118983238D01*
X72259048Y-118983238D01*
X72306667Y-119007047D01*
X72330476Y-119030857D01*
X72354286Y-119078476D01*
X72354286Y-119245142D01*
X72378095Y-118649904D02*
X72616190Y-118649904D01*
X72116190Y-118816571D02*
X72378095Y-118649904D01*
X72116190Y-118483238D01*
X72116190Y-118364190D02*
X72116190Y-118054667D01*
X72306667Y-118221333D01*
X72306667Y-118149905D01*
X72330476Y-118102286D01*
X72354286Y-118078476D01*
X72401905Y-118054667D01*
X72520952Y-118054667D01*
X72568571Y-118078476D01*
X72592381Y-118102286D01*
X72616190Y-118149905D01*
X72616190Y-118292762D01*
X72592381Y-118340381D01*
X72568571Y-118364190D01*
X58400190Y-99960522D02*
X58757333Y-99960522D01*
X58828762Y-99984332D01*
X58876381Y-100031951D01*
X58900190Y-100103379D01*
X58900190Y-100150998D01*
X58947810Y-99841475D02*
X58947810Y-99460523D01*
X58757333Y-99365285D02*
X58757333Y-99127190D01*
X58900190Y-99412904D02*
X58400190Y-99246237D01*
X58900190Y-99079571D01*
X58400190Y-98912904D02*
X58804952Y-98912904D01*
X58852571Y-98889095D01*
X58876381Y-98865285D01*
X58900190Y-98817666D01*
X58900190Y-98722428D01*
X58876381Y-98674809D01*
X58852571Y-98651000D01*
X58804952Y-98627190D01*
X58400190Y-98627190D01*
X58400190Y-98436713D02*
X58900190Y-98103380D01*
X58400190Y-98103380D02*
X58900190Y-98436713D01*
X58447810Y-97936714D02*
X58424000Y-97912904D01*
X58400190Y-97865285D01*
X58400190Y-97746238D01*
X58424000Y-97698619D01*
X58447810Y-97674809D01*
X58495429Y-97651000D01*
X58543048Y-97651000D01*
X58614476Y-97674809D01*
X58900190Y-97960523D01*
X58900190Y-97651000D01*
X58900190Y-97436714D02*
X58400190Y-97436714D01*
X58757333Y-97270048D01*
X58400190Y-97103381D01*
X58900190Y-97103381D01*
X58757333Y-96889095D02*
X58757333Y-96651000D01*
X58900190Y-96936714D02*
X58400190Y-96770047D01*
X58900190Y-96603381D01*
X58900190Y-96436714D02*
X58400190Y-96436714D01*
X58900190Y-96198619D02*
X58400190Y-96198619D01*
X58900190Y-95912905D01*
X58400190Y-95912905D01*
X58947810Y-95793857D02*
X58947810Y-95412905D01*
X58900190Y-95055762D02*
X58900190Y-95293857D01*
X58400190Y-95293857D01*
X58638286Y-94889095D02*
X58638286Y-94722429D01*
X58900190Y-94651000D02*
X58900190Y-94889095D01*
X58400190Y-94889095D01*
X58400190Y-94651000D01*
X58900190Y-94436714D02*
X58400190Y-94436714D01*
X58400190Y-94317667D01*
X58424000Y-94246238D01*
X58471619Y-94198619D01*
X58519238Y-94174810D01*
X58614476Y-94151000D01*
X58685905Y-94151000D01*
X58781143Y-94174810D01*
X58828762Y-94198619D01*
X58876381Y-94246238D01*
X58900190Y-94317667D01*
X58900190Y-94436714D01*
X58900190Y-93674810D02*
X58900190Y-93960524D01*
X58900190Y-93817667D02*
X58400190Y-93817667D01*
X58471619Y-93865286D01*
X58519238Y-93912905D01*
X58543048Y-93960524D01*
X62337190Y-162444522D02*
X62694333Y-162444522D01*
X62765762Y-162468332D01*
X62813381Y-162515951D01*
X62837190Y-162587379D01*
X62837190Y-162634998D01*
X62884810Y-162325475D02*
X62884810Y-161944523D01*
X62837190Y-161825475D02*
X62337190Y-161825475D01*
X62694333Y-161658809D01*
X62337190Y-161492142D01*
X62837190Y-161492142D01*
X62694333Y-161277856D02*
X62694333Y-161039761D01*
X62837190Y-161325475D02*
X62337190Y-161158808D01*
X62837190Y-160992142D01*
X62837190Y-160825475D02*
X62337190Y-160825475D01*
X62837190Y-160587380D02*
X62337190Y-160587380D01*
X62837190Y-160301666D01*
X62337190Y-160301666D01*
X62384810Y-160087380D02*
X62361000Y-160063570D01*
X62337190Y-160015951D01*
X62337190Y-159896904D01*
X62361000Y-159849285D01*
X62384810Y-159825475D01*
X62432429Y-159801666D01*
X62480048Y-159801666D01*
X62551476Y-159825475D01*
X62837190Y-160111189D01*
X62837190Y-159801666D01*
X62694333Y-159611190D02*
X62694333Y-159373095D01*
X62837190Y-159658809D02*
X62337190Y-159492142D01*
X62837190Y-159325476D01*
X62337190Y-159158809D02*
X62741952Y-159158809D01*
X62789571Y-159135000D01*
X62813381Y-159111190D01*
X62837190Y-159063571D01*
X62837190Y-158968333D01*
X62813381Y-158920714D01*
X62789571Y-158896905D01*
X62741952Y-158873095D01*
X62337190Y-158873095D01*
X62337190Y-158682618D02*
X62837190Y-158349285D01*
X62337190Y-158349285D02*
X62837190Y-158682618D01*
X62884810Y-158277857D02*
X62884810Y-157896905D01*
X62837190Y-157539762D02*
X62837190Y-157777857D01*
X62337190Y-157777857D01*
X62575286Y-157373095D02*
X62575286Y-157206429D01*
X62837190Y-157135000D02*
X62837190Y-157373095D01*
X62337190Y-157373095D01*
X62337190Y-157135000D01*
X62837190Y-156920714D02*
X62337190Y-156920714D01*
X62337190Y-156801667D01*
X62361000Y-156730238D01*
X62408619Y-156682619D01*
X62456238Y-156658810D01*
X62551476Y-156635000D01*
X62622905Y-156635000D01*
X62718143Y-156658810D01*
X62765762Y-156682619D01*
X62813381Y-156730238D01*
X62837190Y-156801667D01*
X62837190Y-156920714D01*
X62837190Y-156158810D02*
X62837190Y-156444524D01*
X62837190Y-156301667D02*
X62337190Y-156301667D01*
X62408619Y-156349286D01*
X62456238Y-156396905D01*
X62480048Y-156444524D01*
X92138620Y-104161190D02*
X91971953Y-103923095D01*
X91852906Y-104161190D02*
X91852906Y-103661190D01*
X92043382Y-103661190D01*
X92091001Y-103685000D01*
X92114810Y-103708810D01*
X92138620Y-103756429D01*
X92138620Y-103827857D01*
X92114810Y-103875476D01*
X92091001Y-103899286D01*
X92043382Y-103923095D01*
X91852906Y-103923095D01*
X92233858Y-104208810D02*
X92614810Y-104208810D01*
X92971953Y-104161190D02*
X92733858Y-104161190D01*
X92733858Y-103661190D01*
X93138620Y-103899286D02*
X93305286Y-103899286D01*
X93376715Y-104161190D02*
X93138620Y-104161190D01*
X93138620Y-103661190D01*
X93376715Y-103661190D01*
X93591001Y-104161190D02*
X93591001Y-103661190D01*
X93710048Y-103661190D01*
X93781477Y-103685000D01*
X93829096Y-103732619D01*
X93852905Y-103780238D01*
X93876715Y-103875476D01*
X93876715Y-103946905D01*
X93852905Y-104042143D01*
X93829096Y-104089762D01*
X93781477Y-104137381D01*
X93710048Y-104161190D01*
X93591001Y-104161190D01*
X94352905Y-104161190D02*
X94067191Y-104161190D01*
X94210048Y-104161190D02*
X94210048Y-103661190D01*
X94162429Y-103732619D01*
X94114810Y-103780238D01*
X94067191Y-103804048D01*
X78156571Y-168782809D02*
X78180381Y-168806619D01*
X78204190Y-168878047D01*
X78204190Y-168925666D01*
X78180381Y-168997095D01*
X78132762Y-169044714D01*
X78085143Y-169068523D01*
X77989905Y-169092333D01*
X77918476Y-169092333D01*
X77823238Y-169068523D01*
X77775619Y-169044714D01*
X77728000Y-168997095D01*
X77704190Y-168925666D01*
X77704190Y-168878047D01*
X77728000Y-168806619D01*
X77751810Y-168782809D01*
X78251810Y-168687571D02*
X78251810Y-168306619D01*
X78204190Y-168187571D02*
X77704190Y-168187571D01*
X77704190Y-167997095D01*
X77728000Y-167949476D01*
X77751810Y-167925667D01*
X77799429Y-167901857D01*
X77870857Y-167901857D01*
X77918476Y-167925667D01*
X77942286Y-167949476D01*
X77966095Y-167997095D01*
X77966095Y-168187571D01*
X77704190Y-167735190D02*
X78204190Y-167616143D01*
X77847048Y-167520905D01*
X78204190Y-167425667D01*
X77704190Y-167306619D01*
X78204190Y-166830428D02*
X77966095Y-166997095D01*
X78204190Y-167116142D02*
X77704190Y-167116142D01*
X77704190Y-166925666D01*
X77728000Y-166878047D01*
X77751810Y-166854238D01*
X77799429Y-166830428D01*
X77870857Y-166830428D01*
X77918476Y-166854238D01*
X77942286Y-166878047D01*
X77966095Y-166925666D01*
X77966095Y-167116142D01*
X77942286Y-166449476D02*
X77966095Y-166378047D01*
X77989905Y-166354238D01*
X78037524Y-166330428D01*
X78108952Y-166330428D01*
X78156571Y-166354238D01*
X78180381Y-166378047D01*
X78204190Y-166425666D01*
X78204190Y-166616142D01*
X77704190Y-166616142D01*
X77704190Y-166449476D01*
X77728000Y-166401857D01*
X77751810Y-166378047D01*
X77799429Y-166354238D01*
X77847048Y-166354238D01*
X77894667Y-166378047D01*
X77918476Y-166401857D01*
X77942286Y-166449476D01*
X77942286Y-166616142D01*
X77966095Y-166020904D02*
X78204190Y-166020904D01*
X77704190Y-166187571D02*
X77966095Y-166020904D01*
X77704190Y-165854238D01*
X78204190Y-165425667D02*
X78204190Y-165711381D01*
X78204190Y-165568524D02*
X77704190Y-165568524D01*
X77775619Y-165616143D01*
X77823238Y-165663762D01*
X77847048Y-165711381D01*
D13*
X78764048Y-169340429D02*
X79525953Y-169340429D01*
X79145001Y-169721381D02*
X79145001Y-168959476D01*
D14*
X110684668Y-143942571D02*
X110660858Y-143966381D01*
X110589430Y-143990190D01*
X110541811Y-143990190D01*
X110470382Y-143966381D01*
X110422763Y-143918762D01*
X110398954Y-143871143D01*
X110375144Y-143775905D01*
X110375144Y-143704476D01*
X110398954Y-143609238D01*
X110422763Y-143561619D01*
X110470382Y-143514000D01*
X110541811Y-143490190D01*
X110589430Y-143490190D01*
X110660858Y-143514000D01*
X110684668Y-143537810D01*
X110779906Y-144037810D02*
X111160858Y-144037810D01*
X111256096Y-143966381D02*
X111327525Y-143990190D01*
X111446572Y-143990190D01*
X111494191Y-143966381D01*
X111518001Y-143942571D01*
X111541810Y-143894952D01*
X111541810Y-143847333D01*
X111518001Y-143799714D01*
X111494191Y-143775905D01*
X111446572Y-143752095D01*
X111351334Y-143728286D01*
X111303715Y-143704476D01*
X111279906Y-143680667D01*
X111256096Y-143633048D01*
X111256096Y-143585429D01*
X111279906Y-143537810D01*
X111303715Y-143514000D01*
X111351334Y-143490190D01*
X111470382Y-143490190D01*
X111541810Y-143514000D01*
X111732286Y-143847333D02*
X111970381Y-143847333D01*
X111684667Y-143990190D02*
X111851334Y-143490190D01*
X112018000Y-143990190D01*
X112137048Y-143490190D02*
X112256095Y-143990190D01*
X112351333Y-143633048D01*
X112446571Y-143990190D01*
X112565619Y-143490190D01*
X112756096Y-143990190D02*
X112756096Y-143490190D01*
X112994191Y-143990190D02*
X112994191Y-143490190D01*
X113279905Y-143990190D01*
X113279905Y-143490190D01*
X113446572Y-143490190D02*
X113732286Y-143490190D01*
X113589429Y-143990190D02*
X113589429Y-143490190D01*
X114160857Y-143990190D02*
X113875143Y-143990190D01*
X114018000Y-143990190D02*
X114018000Y-143490190D01*
X113970381Y-143561619D01*
X113922762Y-143609238D01*
X113875143Y-143633048D01*
X117776811Y-131671190D02*
X117610144Y-131433095D01*
X117491097Y-131671190D02*
X117491097Y-131171190D01*
X117681573Y-131171190D01*
X117729192Y-131195000D01*
X117753001Y-131218810D01*
X117776811Y-131266429D01*
X117776811Y-131337857D01*
X117753001Y-131385476D01*
X117729192Y-131409286D01*
X117681573Y-131433095D01*
X117491097Y-131433095D01*
X117872049Y-131718810D02*
X118253001Y-131718810D01*
X118348239Y-131647381D02*
X118419668Y-131671190D01*
X118538715Y-131671190D01*
X118586334Y-131647381D01*
X118610144Y-131623571D01*
X118633953Y-131575952D01*
X118633953Y-131528333D01*
X118610144Y-131480714D01*
X118586334Y-131456905D01*
X118538715Y-131433095D01*
X118443477Y-131409286D01*
X118395858Y-131385476D01*
X118372049Y-131361667D01*
X118348239Y-131314048D01*
X118348239Y-131266429D01*
X118372049Y-131218810D01*
X118395858Y-131195000D01*
X118443477Y-131171190D01*
X118562525Y-131171190D01*
X118633953Y-131195000D01*
X118824429Y-131528333D02*
X119062524Y-131528333D01*
X118776810Y-131671190D02*
X118943477Y-131171190D01*
X119110143Y-131671190D01*
X119229191Y-131171190D02*
X119348238Y-131671190D01*
X119443476Y-131314048D01*
X119538714Y-131671190D01*
X119657762Y-131171190D01*
X120014905Y-131409286D02*
X119848239Y-131409286D01*
X119848239Y-131671190D02*
X119848239Y-131171190D01*
X120086334Y-131171190D01*
X120443476Y-131409286D02*
X120514905Y-131433095D01*
X120538714Y-131456905D01*
X120562524Y-131504524D01*
X120562524Y-131575952D01*
X120538714Y-131623571D01*
X120514905Y-131647381D01*
X120467286Y-131671190D01*
X120276810Y-131671190D01*
X120276810Y-131171190D01*
X120443476Y-131171190D01*
X120491095Y-131195000D01*
X120514905Y-131218810D01*
X120538714Y-131266429D01*
X120538714Y-131314048D01*
X120514905Y-131361667D01*
X120491095Y-131385476D01*
X120443476Y-131409286D01*
X120276810Y-131409286D01*
X121038714Y-131671190D02*
X120753000Y-131671190D01*
X120895857Y-131671190D02*
X120895857Y-131171190D01*
X120848238Y-131242619D01*
X120800619Y-131290238D01*
X120753000Y-131314048D01*
X106398190Y-141164237D02*
X106160095Y-141330904D01*
X106398190Y-141449951D02*
X105898190Y-141449951D01*
X105898190Y-141259475D01*
X105922000Y-141211856D01*
X105945810Y-141188047D01*
X105993429Y-141164237D01*
X106064857Y-141164237D01*
X106112476Y-141188047D01*
X106136286Y-141211856D01*
X106160095Y-141259475D01*
X106160095Y-141449951D01*
X106445810Y-141068999D02*
X106445810Y-140688047D01*
X106374381Y-140592809D02*
X106398190Y-140521380D01*
X106398190Y-140402333D01*
X106374381Y-140354714D01*
X106350571Y-140330904D01*
X106302952Y-140307095D01*
X106255333Y-140307095D01*
X106207714Y-140330904D01*
X106183905Y-140354714D01*
X106160095Y-140402333D01*
X106136286Y-140497571D01*
X106112476Y-140545190D01*
X106088667Y-140568999D01*
X106041048Y-140592809D01*
X105993429Y-140592809D01*
X105945810Y-140568999D01*
X105922000Y-140545190D01*
X105898190Y-140497571D01*
X105898190Y-140378523D01*
X105922000Y-140307095D01*
X106255333Y-140116619D02*
X106255333Y-139878524D01*
X106398190Y-140164238D02*
X105898190Y-139997571D01*
X106398190Y-139830905D01*
X105898190Y-139711857D02*
X106398190Y-139592810D01*
X106041048Y-139497572D01*
X106398190Y-139402334D01*
X105898190Y-139283286D01*
X105898190Y-138949952D02*
X106255333Y-138949952D01*
X106326762Y-138973762D01*
X106374381Y-139021381D01*
X106398190Y-139092809D01*
X106398190Y-139140428D01*
X105898190Y-138616619D02*
X105898190Y-138521381D01*
X105922000Y-138473762D01*
X105969619Y-138426143D01*
X106064857Y-138402334D01*
X106231524Y-138402334D01*
X106326762Y-138426143D01*
X106374381Y-138473762D01*
X106398190Y-138521381D01*
X106398190Y-138616619D01*
X106374381Y-138664238D01*
X106326762Y-138711857D01*
X106231524Y-138735667D01*
X106064857Y-138735667D01*
X105969619Y-138711857D01*
X105922000Y-138664238D01*
X105898190Y-138616619D01*
X106398190Y-138188047D02*
X105898190Y-138188047D01*
X106398190Y-137949952D02*
X105898190Y-137949952D01*
X106398190Y-137664238D01*
X105898190Y-137664238D01*
X106398190Y-137164238D02*
X106398190Y-137449952D01*
X106398190Y-137307095D02*
X105898190Y-137307095D01*
X105969619Y-137354714D01*
X106017238Y-137402333D01*
X106041048Y-137449952D01*
X91461190Y-137064571D02*
X91223095Y-137231238D01*
X91461190Y-137350285D02*
X90961190Y-137350285D01*
X90961190Y-137159809D01*
X90985000Y-137112190D01*
X91008810Y-137088381D01*
X91056429Y-137064571D01*
X91127857Y-137064571D01*
X91175476Y-137088381D01*
X91199286Y-137112190D01*
X91223095Y-137159809D01*
X91223095Y-137350285D01*
X91508810Y-136969333D02*
X91508810Y-136588381D01*
X91437381Y-136493143D02*
X91461190Y-136421714D01*
X91461190Y-136302667D01*
X91437381Y-136255048D01*
X91413571Y-136231238D01*
X91365952Y-136207429D01*
X91318333Y-136207429D01*
X91270714Y-136231238D01*
X91246905Y-136255048D01*
X91223095Y-136302667D01*
X91199286Y-136397905D01*
X91175476Y-136445524D01*
X91151667Y-136469333D01*
X91104048Y-136493143D01*
X91056429Y-136493143D01*
X91008810Y-136469333D01*
X90985000Y-136445524D01*
X90961190Y-136397905D01*
X90961190Y-136278857D01*
X90985000Y-136207429D01*
X90961190Y-136040762D02*
X91461190Y-135921715D01*
X91104048Y-135826477D01*
X91461190Y-135731239D01*
X90961190Y-135612191D01*
X91461190Y-135421714D02*
X90961190Y-135421714D01*
X91461190Y-135183619D02*
X90961190Y-135183619D01*
X91461190Y-134897905D01*
X90961190Y-134897905D01*
X90985000Y-134397905D02*
X90961190Y-134445524D01*
X90961190Y-134516952D01*
X90985000Y-134588381D01*
X91032619Y-134636000D01*
X91080238Y-134659809D01*
X91175476Y-134683619D01*
X91246905Y-134683619D01*
X91342143Y-134659809D01*
X91389762Y-134636000D01*
X91437381Y-134588381D01*
X91461190Y-134516952D01*
X91461190Y-134469333D01*
X91437381Y-134397905D01*
X91413571Y-134374095D01*
X91246905Y-134374095D01*
X91246905Y-134469333D01*
X91461190Y-133897905D02*
X91461190Y-134183619D01*
X91461190Y-134040762D02*
X90961190Y-134040762D01*
X91032619Y-134088381D01*
X91080238Y-134136000D01*
X91104048Y-134183619D01*
M02*
