G04 #@! TF.FileFunction,Legend,Bot*
%FSLAX46Y46*%
G04 Gerber Fmt 4.6, Leading zero omitted, Abs format (unit mm)*
G04 Created by KiCad (PCBNEW 4.0.7) date 04/04/18 08:51:17*
%MOMM*%
%LPD*%
G01*
G04 APERTURE LIST*
%ADD10C,0.100000*%
%ADD11C,0.120000*%
%ADD12C,0.015000*%
G04 APERTURE END LIST*
D10*
D11*
X67095000Y-135247000D02*
X67095000Y-134247000D01*
X68795000Y-134247000D02*
X68795000Y-135247000D01*
D12*
X69774571Y-134421715D02*
X69798381Y-134397905D01*
X69822190Y-134326477D01*
X69822190Y-134278858D01*
X69798381Y-134207429D01*
X69750762Y-134159810D01*
X69703143Y-134136001D01*
X69607905Y-134112191D01*
X69536476Y-134112191D01*
X69441238Y-134136001D01*
X69393619Y-134159810D01*
X69346000Y-134207429D01*
X69322190Y-134278858D01*
X69322190Y-134326477D01*
X69346000Y-134397905D01*
X69369810Y-134421715D01*
X69869810Y-134516953D02*
X69869810Y-134897905D01*
X69322190Y-135112191D02*
X69322190Y-135207429D01*
X69346000Y-135255048D01*
X69393619Y-135302667D01*
X69488857Y-135326476D01*
X69655524Y-135326476D01*
X69750762Y-135302667D01*
X69798381Y-135255048D01*
X69822190Y-135207429D01*
X69822190Y-135112191D01*
X69798381Y-135064572D01*
X69750762Y-135016953D01*
X69655524Y-134993143D01*
X69488857Y-134993143D01*
X69393619Y-135016953D01*
X69346000Y-135064572D01*
X69322190Y-135112191D01*
X69679333Y-135516953D02*
X69679333Y-135755048D01*
X69822190Y-135469334D02*
X69322190Y-135636001D01*
X69822190Y-135802667D01*
X69560286Y-136136000D02*
X69584095Y-136207429D01*
X69607905Y-136231238D01*
X69655524Y-136255048D01*
X69726952Y-136255048D01*
X69774571Y-136231238D01*
X69798381Y-136207429D01*
X69822190Y-136159810D01*
X69822190Y-135969334D01*
X69322190Y-135969334D01*
X69322190Y-136136000D01*
X69346000Y-136183619D01*
X69369810Y-136207429D01*
X69417429Y-136231238D01*
X69465048Y-136231238D01*
X69512667Y-136207429D01*
X69536476Y-136183619D01*
X69560286Y-136136000D01*
X69560286Y-135969334D01*
X69584095Y-136564572D02*
X69822190Y-136564572D01*
X69322190Y-136397905D02*
X69584095Y-136564572D01*
X69322190Y-136731238D01*
X69536476Y-136969333D02*
X69512667Y-136921714D01*
X69488857Y-136897905D01*
X69441238Y-136874095D01*
X69417429Y-136874095D01*
X69369810Y-136897905D01*
X69346000Y-136921714D01*
X69322190Y-136969333D01*
X69322190Y-137064571D01*
X69346000Y-137112190D01*
X69369810Y-137136000D01*
X69417429Y-137159809D01*
X69441238Y-137159809D01*
X69488857Y-137136000D01*
X69512667Y-137112190D01*
X69536476Y-137064571D01*
X69536476Y-136969333D01*
X69560286Y-136921714D01*
X69584095Y-136897905D01*
X69631714Y-136874095D01*
X69726952Y-136874095D01*
X69774571Y-136897905D01*
X69798381Y-136921714D01*
X69822190Y-136969333D01*
X69822190Y-137064571D01*
X69798381Y-137112190D01*
X69774571Y-137136000D01*
X69726952Y-137159809D01*
X69631714Y-137159809D01*
X69584095Y-137136000D01*
X69560286Y-137112190D01*
X69536476Y-137064571D01*
M02*
