M48
;DRILL file {KiCad 4.0.7} date 04/04/18 08:51:20
;FORMAT={-:-/ absolute / metric / decimal}
FMAT,2
METRIC,TZ
T1C0.400
T2C0.900
T3C1.000
T4C1.500
T5C2.000
T6C2.000
%
G90
G05
M71
T1
X64.262Y-134.747
X65.913Y-134.747
X66.294Y-183.134
X69.215Y-133.096
X69.723Y-127.508
X69.977Y-178.816
X73.787Y-117.094
X78.105Y-127.889
X80.772Y-160.147
X81.661Y-193.421
X83.058Y-118.618
X83.693Y-157.226
X83.82Y-191.262
X85.979Y-192.786
X86.106Y-173.609
X86.233Y-167.259
X86.868Y-128.143
X88.011Y-154.178
X88.646Y-127.
X92.075Y-133.223
X92.456Y-130.81
X92.583Y-183.769
X93.853Y-192.913
X94.361Y-138.557
X95.631Y-143.256
X95.631Y-200.025
X97.79Y-200.025
X103.505Y-183.007
X104.648Y-133.604
X105.537Y-114.046
X106.045Y-195.834
X107.569Y-185.801
X107.569Y-187.452
X109.728Y-139.954
X110.998Y-130.556
X110.998Y-132.207
X114.681Y-196.469
X115.189Y-174.625
X115.697Y-189.865
X116.332Y-196.469
X120.015Y-139.954
X120.015Y-178.689
X120.396Y-161.544
X121.793Y-180.34
X121.793Y-183.642
X122.047Y-150.749
X125.476Y-147.32
X128.143Y-147.32
X133.985Y-128.143
X133.985Y-129.667
X133.985Y-130.937
X133.985Y-137.033
X136.271Y-128.143
X136.271Y-129.667
X136.271Y-130.937
T2
X99.187Y-103.759
X101.727Y-103.759
T3
X60.325Y-120.777
X60.325Y-123.317
X60.325Y-125.857
X60.325Y-128.397
X60.325Y-138.557
X60.325Y-141.097
X60.325Y-143.637
X60.325Y-146.177
X60.325Y-155.829
X60.325Y-158.369
X60.325Y-160.909
X60.325Y-163.449
X60.579Y-58.547
X60.579Y-61.087
X60.579Y-63.627
X60.579Y-66.167
X60.579Y-76.327
X60.579Y-78.867
X60.579Y-81.407
X60.579Y-83.947
X60.579Y-93.599
X60.579Y-96.139
X60.579Y-98.679
X60.579Y-101.219
X67.183Y-57.023
X67.183Y-78.359
X69.683Y-57.023
X69.683Y-78.359
X72.183Y-57.023
X72.183Y-78.359
X97.531Y-57.023
X97.663Y-78.359
X100.031Y-57.023
X100.163Y-78.359
X102.531Y-57.023
X102.663Y-78.359
X128.651Y-57.023
X128.651Y-78.359
X131.151Y-57.023
X131.151Y-78.359
X133.651Y-57.023
X133.651Y-78.359
X140.081Y-120.777
X140.081Y-123.317
X140.081Y-125.857
X140.081Y-128.397
X140.081Y-134.493
X140.081Y-137.033
X140.081Y-139.573
X140.081Y-142.113
X140.081Y-144.653
X140.081Y-147.193
X140.081Y-152.273
X140.081Y-154.813
X140.081Y-157.353
X140.081Y-159.893
X140.081Y-162.433
X140.081Y-164.973
X140.335Y-58.547
X140.335Y-61.087
X140.335Y-63.627
X140.335Y-66.167
X140.335Y-72.263
X140.335Y-74.803
X140.335Y-77.343
X140.335Y-79.883
X140.335Y-82.423
X140.335Y-84.963
X140.335Y-90.043
X140.335Y-92.583
X140.335Y-95.123
X140.335Y-97.663
X140.335Y-100.203
X140.335Y-102.743
T4
X93.941Y-204.188
X93.941Y-208.788
X93.941Y-213.388
X99.441Y-204.188
X99.441Y-208.788
X99.441Y-213.388
X104.941Y-204.188
X104.941Y-208.788
X104.941Y-213.388
T5
X61.826Y-206.755
X61.849Y-190.755
X74.826Y-190.755
X74.826Y-206.755
X125.707Y-169.673
X125.707Y-185.673
X125.707Y-190.755
X125.707Y-206.755
X138.684Y-185.673
X138.684Y-206.755
X138.707Y-169.673
X138.707Y-190.755
T6
X65.283Y-64.023
X65.283Y-85.359
X74.083Y-64.023
X74.083Y-85.359
X95.631Y-64.023
X95.763Y-85.359
X104.431Y-64.023
X104.563Y-85.359
X126.751Y-64.023
X126.751Y-85.359
X135.551Y-64.023
X135.551Y-85.359
T3
X62.199Y-169.815G85X62.199Y-171.815
G05
X65.023Y-96.655G85X65.023Y-97.655
G05
X64.199Y-175.515G85X66.199Y-175.515
G05
X68.199Y-169.815G85X68.199Y-171.815
G05
X69.723Y-96.655G85X69.723Y-97.655
G05
X74.423Y-96.655G85X74.423Y-97.655
G05
X95.503Y-96.655G85X95.503Y-97.655
G05
X100.203Y-96.655G85X100.203Y-97.655
G05
X104.903Y-96.655G85X104.903Y-97.655
G05
X126.491Y-96.655G85X126.491Y-97.655
G05
X131.191Y-96.655G85X131.191Y-97.655
G05
X135.891Y-96.655G85X135.891Y-97.655
G05
T0
M30
