G04 #@! TF.FileFunction,Copper,L1,Top,Signal*
%FSLAX46Y46*%
G04 Gerber Fmt 4.6, Leading zero omitted, Abs format (unit mm)*
G04 Created by KiCad (PCBNEW 4.0.7) date Sunday, 08 April 2018 'PMt' 12:22:29*
%MOMM*%
%LPD*%
G01*
G04 APERTURE LIST*
%ADD10C,0.100000*%
%ADD11R,2.600000X1.600000*%
%ADD12R,1.500000X1.250000*%
%ADD13R,1.250000X1.500000*%
%ADD14C,1.800000*%
%ADD15C,4.000000*%
%ADD16R,1.100000X1.100000*%
%ADD17R,1.800000X1.800000*%
%ADD18R,1.700000X1.700000*%
%ADD19O,1.700000X1.700000*%
%ADD20O,5.000000X4.000000*%
%ADD21R,3.500000X3.500000*%
%ADD22R,1.500000X1.300000*%
%ADD23R,1.300000X1.500000*%
%ADD24O,3.500000X3.000000*%
%ADD25O,3.000000X4.000000*%
%ADD26R,1.143000X0.508000*%
%ADD27R,0.508000X1.143000*%
%ADD28R,1.600000X2.600000*%
%ADD29C,0.600000*%
%ADD30C,0.250000*%
%ADD31C,0.500000*%
%ADD32C,0.750000*%
G04 APERTURE END LIST*
D10*
D11*
X83715000Y-173609000D03*
X80115000Y-173609000D03*
X79778000Y-111442500D03*
X76178000Y-111442500D03*
X80115000Y-179959000D03*
X83715000Y-179959000D03*
X87906000Y-111442500D03*
X84306000Y-111442500D03*
D12*
X108545000Y-146177000D03*
X106045000Y-146177000D03*
D13*
X100965000Y-197719000D03*
X100965000Y-195219000D03*
X127127000Y-123210000D03*
X127127000Y-125710000D03*
X130937000Y-123210000D03*
X130937000Y-125710000D03*
D12*
X108565000Y-124460000D03*
X106065000Y-124460000D03*
D13*
X96520000Y-111780000D03*
X96520000Y-114280000D03*
D12*
X106065000Y-131445000D03*
X108565000Y-131445000D03*
D14*
X102155000Y-56515000D03*
X99655000Y-56515000D03*
X97155000Y-56515000D03*
D15*
X104055000Y-63515000D03*
X95255000Y-63515000D03*
D16*
X64392000Y-185293000D03*
X61592000Y-185293000D03*
D17*
X88900000Y-102235000D03*
D14*
X86360000Y-102235000D03*
X130095000Y-56515000D03*
X127595000Y-56515000D03*
X125095000Y-56515000D03*
D15*
X131995000Y-63515000D03*
X123195000Y-63515000D03*
D14*
X102150000Y-76820000D03*
X99650000Y-76820000D03*
X97150000Y-76820000D03*
D15*
X104050000Y-83820000D03*
X95250000Y-83820000D03*
D18*
X60960000Y-57277000D03*
D19*
X60960000Y-59817000D03*
X60960000Y-62357000D03*
X60960000Y-64897000D03*
D18*
X137160000Y-88773000D03*
D19*
X137160000Y-91313000D03*
X137160000Y-93853000D03*
X137160000Y-96393000D03*
X137160000Y-98933000D03*
X137160000Y-101473000D03*
D18*
X60960000Y-75057000D03*
D19*
X60960000Y-77597000D03*
X60960000Y-80137000D03*
X60960000Y-82677000D03*
D18*
X137160000Y-64897000D03*
D19*
X137160000Y-62357000D03*
X137160000Y-59817000D03*
X137160000Y-57277000D03*
D18*
X137160000Y-71120000D03*
D19*
X137160000Y-73660000D03*
X137160000Y-76200000D03*
X137160000Y-78740000D03*
X137160000Y-81280000D03*
X137160000Y-83820000D03*
D20*
X123865500Y-185736500D03*
X123865500Y-169736500D03*
X136865500Y-169736500D03*
X136842500Y-185736500D03*
X123865500Y-206755000D03*
X123865500Y-190755000D03*
X136865500Y-190755000D03*
X136842500Y-206755000D03*
D18*
X60960000Y-120777000D03*
D19*
X60960000Y-123317000D03*
X60960000Y-125857000D03*
X60960000Y-128397000D03*
D18*
X137160000Y-134556500D03*
D19*
X137160000Y-137096500D03*
X137160000Y-139636500D03*
X137160000Y-142176500D03*
X137160000Y-144716500D03*
X137160000Y-147256500D03*
D18*
X60960000Y-138557000D03*
D19*
X60960000Y-141097000D03*
X60960000Y-143637000D03*
X60960000Y-146177000D03*
D18*
X137160000Y-128333500D03*
D19*
X137160000Y-125793500D03*
X137160000Y-123253500D03*
X137160000Y-120713500D03*
D18*
X137160000Y-152209500D03*
D19*
X137160000Y-154749500D03*
X137160000Y-157289500D03*
X137160000Y-159829500D03*
X137160000Y-162369500D03*
X137160000Y-164909500D03*
D20*
X74826000Y-190755000D03*
X74826000Y-206755000D03*
X61826000Y-206755000D03*
X61849000Y-190755000D03*
D21*
X67945000Y-172974000D03*
X61945000Y-172974000D03*
X64945000Y-177674000D03*
D14*
X130090000Y-76820000D03*
X127590000Y-76820000D03*
X125090000Y-76820000D03*
D15*
X131990000Y-83820000D03*
X123190000Y-83820000D03*
D22*
X94187000Y-180594000D03*
X91487000Y-180594000D03*
D23*
X84201000Y-199945000D03*
X84201000Y-202645000D03*
X87503000Y-199945000D03*
X87503000Y-202645000D03*
D22*
X98378000Y-138430000D03*
X95678000Y-138430000D03*
X105965000Y-160020000D03*
X108665000Y-160020000D03*
X108665000Y-163830000D03*
X105965000Y-163830000D03*
X105965000Y-156210000D03*
X108665000Y-156210000D03*
D14*
X74215000Y-56515000D03*
X71715000Y-56515000D03*
X69215000Y-56515000D03*
D15*
X76115000Y-63515000D03*
X67315000Y-63515000D03*
D24*
X105068000Y-212943500D03*
X99568000Y-212943500D03*
X94068000Y-212943500D03*
X105068000Y-208343500D03*
X99568000Y-208343500D03*
X94068000Y-208343500D03*
X105068000Y-203743500D03*
X99568000Y-203743500D03*
X94068000Y-203743500D03*
D25*
X127635000Y-99695000D03*
X132335000Y-99695000D03*
X122935000Y-99695000D03*
X71755000Y-99695000D03*
X76455000Y-99695000D03*
X67055000Y-99695000D03*
X99695000Y-99695000D03*
X104395000Y-99695000D03*
X94995000Y-99695000D03*
D14*
X74210000Y-77089000D03*
X71710000Y-77089000D03*
X69210000Y-77089000D03*
D15*
X76110000Y-84089000D03*
X67310000Y-84089000D03*
D26*
X73660000Y-180594000D03*
X73660000Y-181864000D03*
X73660000Y-183134000D03*
X73660000Y-184404000D03*
X67310000Y-184404000D03*
X67310000Y-183134000D03*
X67310000Y-181864000D03*
X67310000Y-180594000D03*
X75565000Y-121158000D03*
X75565000Y-119888000D03*
X75565000Y-118618000D03*
X75565000Y-117348000D03*
X81915000Y-117348000D03*
X81915000Y-118618000D03*
X81915000Y-119888000D03*
X81915000Y-121158000D03*
D27*
X93789500Y-120967500D03*
X96329500Y-120967500D03*
X97599500Y-120967500D03*
X98869500Y-120967500D03*
X100139500Y-120967500D03*
X101409500Y-120967500D03*
X102679500Y-120967500D03*
X102679500Y-127317500D03*
X101409500Y-127317500D03*
X100139500Y-127317500D03*
X98869500Y-127317500D03*
X97599500Y-127317500D03*
X96329500Y-127317500D03*
X95059500Y-127317500D03*
X93789500Y-127317500D03*
X95059500Y-120967500D03*
D12*
X71140000Y-178816000D03*
X73640000Y-178816000D03*
D18*
X60960000Y-99949000D03*
D19*
X60960000Y-97409000D03*
X60960000Y-94869000D03*
X60960000Y-92329000D03*
D18*
X60960000Y-163449000D03*
D19*
X60960000Y-160909000D03*
X60960000Y-158369000D03*
X60960000Y-155829000D03*
D22*
X83265000Y-100965000D03*
X80565000Y-100965000D03*
D28*
X92837000Y-172698000D03*
X92837000Y-176298000D03*
D12*
X108545000Y-138303000D03*
X106045000Y-138303000D03*
D22*
X108665000Y-151765000D03*
X105965000Y-151765000D03*
X105965000Y-142240000D03*
X108665000Y-142240000D03*
D23*
X107950000Y-111680000D03*
X107950000Y-114380000D03*
D27*
X103505000Y-185928000D03*
X102235000Y-185928000D03*
X100965000Y-185928000D03*
X99695000Y-185928000D03*
X98425000Y-185928000D03*
X97155000Y-185928000D03*
X95885000Y-185928000D03*
X95885000Y-192278000D03*
X97155000Y-192278000D03*
X99695000Y-192278000D03*
X100965000Y-192278000D03*
X102235000Y-192278000D03*
X103505000Y-192278000D03*
X98425000Y-192278000D03*
X93853000Y-148844000D03*
X95123000Y-148844000D03*
X96393000Y-148844000D03*
X97663000Y-148844000D03*
X98933000Y-148844000D03*
X100203000Y-148844000D03*
X101473000Y-148844000D03*
X101473000Y-142494000D03*
X100203000Y-142494000D03*
X97663000Y-142494000D03*
X96393000Y-142494000D03*
X95123000Y-142494000D03*
X93853000Y-142494000D03*
X98933000Y-142494000D03*
D29*
X89916000Y-180594000D03*
X69469000Y-178816000D03*
X65913000Y-183134000D03*
X83248500Y-118618000D03*
X102679500Y-128587500D03*
X81978500Y-111442500D03*
X104140000Y-124460000D03*
X98869500Y-128587500D03*
X96393000Y-150114000D03*
X110490000Y-156210000D03*
X92837000Y-178435000D03*
X86042500Y-173609000D03*
X87503000Y-197866000D03*
X100330000Y-138430000D03*
X98933000Y-141224000D03*
X99568000Y-191135000D03*
X96774000Y-140589000D03*
X92964000Y-140589000D03*
X97663000Y-143637000D03*
X109347000Y-204978000D03*
X109347000Y-209232500D03*
X87757000Y-143891000D03*
X87757000Y-146939000D03*
X96012000Y-151511000D03*
X92964000Y-151511000D03*
X83375500Y-121158000D03*
X75565000Y-122301000D03*
X92710000Y-120967500D03*
X97663000Y-147701000D03*
X99695000Y-187071000D03*
X102870000Y-143764000D03*
X102870000Y-147066000D03*
D30*
X100330000Y-138430000D02*
X98378000Y-138430000D01*
X98378000Y-138430000D02*
X100203000Y-138430000D01*
X108665000Y-156210000D02*
X110490000Y-156210000D01*
X91487000Y-180594000D02*
X89916000Y-180594000D01*
X71140000Y-178816000D02*
X69469000Y-178816000D01*
X67310000Y-183134000D02*
X65913000Y-183134000D01*
X81915000Y-118618000D02*
X83248500Y-118618000D01*
X102679500Y-127317500D02*
X102679500Y-128587500D01*
X79778000Y-111442500D02*
X81978500Y-111442500D01*
X106065000Y-124460000D02*
X104140000Y-124460000D01*
X98869500Y-127317500D02*
X98869500Y-128587500D01*
X96393000Y-148844000D02*
X96393000Y-150114000D01*
X92837000Y-176298000D02*
X92837000Y-178435000D01*
X83715000Y-173609000D02*
X86042500Y-173609000D01*
X87503000Y-199945000D02*
X87503000Y-197866000D01*
X98933000Y-142494000D02*
X98933000Y-141224000D01*
X98869500Y-142430500D02*
X98933000Y-142494000D01*
X83715000Y-173736000D02*
X83715000Y-173504000D01*
D31*
X99568000Y-191135000D02*
X91313000Y-191135000D01*
X88519000Y-188341000D02*
X88519000Y-179197000D01*
X85471000Y-176149000D02*
X81280000Y-176149000D01*
X91313000Y-191135000D02*
X88519000Y-188341000D01*
X88519000Y-179197000D02*
X85471000Y-176149000D01*
X81280000Y-176149000D02*
X80115000Y-174984000D01*
X80115000Y-174984000D02*
X80115000Y-173609000D01*
X99695000Y-192278000D02*
X99695000Y-191262000D01*
X99695000Y-191262000D02*
X99568000Y-191135000D01*
X73660000Y-184404000D02*
X74930000Y-184404000D01*
X74930000Y-184404000D02*
X76200000Y-183134000D01*
X76200000Y-183134000D02*
X76200000Y-175387000D01*
X76200000Y-175387000D02*
X77978000Y-173609000D01*
X77978000Y-173609000D02*
X80115000Y-173609000D01*
X80115000Y-173609000D02*
X80115000Y-173123000D01*
X80115000Y-173123000D02*
X79756000Y-173228000D01*
X80115000Y-173609000D02*
X80115000Y-172996000D01*
X97663000Y-142494000D02*
X97663000Y-140589000D01*
X97663000Y-140589000D02*
X96774000Y-140589000D01*
X97663000Y-142494000D02*
X97663000Y-142176500D01*
X92964000Y-140589000D02*
X88773000Y-140589000D01*
X80327500Y-119570500D02*
X78105000Y-117348000D01*
X88773000Y-140589000D02*
X80327500Y-132143500D01*
X80327500Y-132143500D02*
X80327500Y-119570500D01*
X78105000Y-117348000D02*
X75565000Y-117348000D01*
X75565000Y-117348000D02*
X75565000Y-112055500D01*
D30*
X75565000Y-112055500D02*
X76178000Y-111442500D01*
D31*
X97663000Y-142494000D02*
X97663000Y-143637000D01*
X76178000Y-111442500D02*
X76178000Y-111083500D01*
D30*
X80115000Y-179959000D02*
X80115000Y-184807000D01*
X78232000Y-186690000D02*
X70612000Y-186690000D01*
X70612000Y-186690000D02*
X69088000Y-185166000D01*
X80115000Y-184807000D02*
X78232000Y-186690000D01*
X68326000Y-181864000D02*
X67310000Y-181864000D01*
X69088000Y-185166000D02*
X69088000Y-182626000D01*
X69088000Y-182626000D02*
X68326000Y-181864000D01*
X80115000Y-179959000D02*
X80137000Y-179959000D01*
X67818000Y-181864000D02*
X67310000Y-181864000D01*
X83715000Y-179959000D02*
X83715000Y-184763000D01*
X83715000Y-184763000D02*
X80899000Y-187579000D01*
X80899000Y-187579000D02*
X68199000Y-187579000D01*
X68199000Y-187579000D02*
X67310000Y-186690000D01*
X67310000Y-186690000D02*
X67310000Y-184404000D01*
X83715000Y-179959000D02*
X83185000Y-179959000D01*
X67310000Y-184404000D02*
X67437000Y-184277000D01*
X81915000Y-119888000D02*
X85026500Y-119888000D01*
X87906000Y-117008500D02*
X87906000Y-111442500D01*
X85026500Y-119888000D02*
X87906000Y-117008500D01*
X87906000Y-111442500D02*
X87906000Y-111801500D01*
X81915000Y-117348000D02*
X81915000Y-113833500D01*
X81915000Y-113833500D02*
X84306000Y-111442500D01*
X113665000Y-146558000D02*
X123865500Y-156758500D01*
X108545000Y-146177000D02*
X113284000Y-146177000D01*
X113284000Y-146177000D02*
X113665000Y-146558000D01*
X123865500Y-156758500D02*
X123865500Y-169736500D01*
X123865500Y-169736500D02*
X123865500Y-168950500D01*
X123803000Y-169799000D02*
X123865500Y-169736500D01*
X104140000Y-146177000D02*
X65532000Y-146177000D01*
X104648000Y-146177000D02*
X104140000Y-146177000D01*
X104140000Y-146177000D02*
X106045000Y-146177000D01*
X65532000Y-146177000D02*
X62992000Y-143637000D01*
X62992000Y-143637000D02*
X60960000Y-143637000D01*
X100965000Y-197719000D02*
X103485000Y-197719000D01*
X105068000Y-199302000D02*
X105068000Y-203743500D01*
X103485000Y-197719000D02*
X105068000Y-199302000D01*
D31*
X100965000Y-197719000D02*
X101199000Y-197719000D01*
D30*
X109347000Y-209232500D02*
X109347000Y-213042500D01*
X109347000Y-213042500D02*
X106997500Y-215392000D01*
X106997500Y-215392000D02*
X69977000Y-215392000D01*
X66167000Y-211582000D02*
X66167000Y-201676000D01*
X69977000Y-215392000D02*
X66167000Y-211582000D01*
X66167000Y-201676000D02*
X58547000Y-194056000D01*
X58547000Y-194056000D02*
X58547000Y-167513000D01*
X58547000Y-167513000D02*
X59182000Y-166878000D01*
X59182000Y-166878000D02*
X59182000Y-139446000D01*
X59182000Y-139446000D02*
X60071000Y-138557000D01*
X60071000Y-138557000D02*
X60960000Y-138557000D01*
X107208000Y-195219000D02*
X100965000Y-195219000D01*
X109347000Y-197358000D02*
X107208000Y-195219000D01*
X109347000Y-204978000D02*
X109347000Y-197358000D01*
X100965000Y-195219000D02*
X100965000Y-192278000D01*
X130937000Y-123210000D02*
X130937000Y-117094000D01*
X130937000Y-117094000D02*
X130048000Y-116205000D01*
X108565000Y-124460000D02*
X109855000Y-124333000D01*
X128270000Y-114427000D02*
X130048000Y-116205000D01*
X115697000Y-114427000D02*
X128270000Y-114427000D01*
X112776000Y-117348000D02*
X115697000Y-114427000D01*
X109855000Y-124333000D02*
X112776000Y-121412000D01*
X112776000Y-121412000D02*
X112776000Y-117348000D01*
X127127000Y-123210000D02*
X130937000Y-123210000D01*
X127147000Y-123190000D02*
X127127000Y-123210000D01*
X130937000Y-123210000D02*
X137116500Y-123210000D01*
X137116500Y-123210000D02*
X137160000Y-123253500D01*
X137160000Y-123253500D02*
X137160000Y-123063000D01*
X131104000Y-123043000D02*
X130937000Y-123210000D01*
X108565000Y-124460000D02*
X108565000Y-123972000D01*
X127127000Y-125710000D02*
X127127000Y-127127000D01*
X132016500Y-132016500D02*
X138684000Y-132016500D01*
X127127000Y-127127000D02*
X132016500Y-132016500D01*
X138684000Y-132016500D02*
X139255500Y-132588000D01*
X139255500Y-132588000D02*
X139255500Y-141287500D01*
X139255500Y-141287500D02*
X138366500Y-142176500D01*
X138366500Y-142176500D02*
X137160000Y-142176500D01*
X127127000Y-125710000D02*
X127127000Y-125793500D01*
X130937000Y-125710000D02*
X130937000Y-127889000D01*
X130937000Y-127889000D02*
X133921500Y-130873500D01*
X139065000Y-147256500D02*
X137160000Y-147256500D01*
X133921500Y-130873500D02*
X139128500Y-130873500D01*
X139128500Y-130873500D02*
X140017500Y-131762500D01*
X140017500Y-131762500D02*
X140017500Y-146304000D01*
X140017500Y-146304000D02*
X139065000Y-147256500D01*
X137731500Y-147256500D02*
X137414000Y-147193000D01*
X137731500Y-147256500D02*
X137223500Y-147256500D01*
X132969000Y-138303000D02*
X134302500Y-139636500D01*
X134302500Y-139636500D02*
X137160000Y-139636500D01*
X108545000Y-138303000D02*
X132969000Y-138303000D01*
X101473000Y-142494000D02*
X101473000Y-144018000D01*
X101473000Y-144018000D02*
X102108000Y-144653000D01*
X102108000Y-144653000D02*
X103505000Y-144653000D01*
X103505000Y-144653000D02*
X104394000Y-143764000D01*
X104394000Y-137414000D02*
X105410000Y-136398000D01*
X104394000Y-143764000D02*
X104394000Y-137414000D01*
X105410000Y-136398000D02*
X107569000Y-136398000D01*
X107569000Y-136398000D02*
X108565000Y-137394000D01*
X108565000Y-137394000D02*
X108565000Y-138430000D01*
X137033000Y-139763500D02*
X137160000Y-139636500D01*
X108565000Y-138092500D02*
X108565000Y-138430000D01*
X102679500Y-120967500D02*
X102679500Y-114744500D01*
X102679500Y-114744500D02*
X104394000Y-113030000D01*
X104394000Y-113030000D02*
X129476500Y-113030000D01*
X129476500Y-113030000D02*
X137160000Y-120713500D01*
X137160000Y-125793500D02*
X137223500Y-125793500D01*
X137223500Y-125793500D02*
X138938000Y-124079000D01*
X138938000Y-124079000D02*
X138938000Y-122491500D01*
X138938000Y-122491500D02*
X137160000Y-120713500D01*
X137160000Y-125730000D02*
X137541000Y-125730000D01*
X60960000Y-123317000D02*
X63690500Y-123317000D01*
X63690500Y-123317000D02*
X66802000Y-120205500D01*
X66802000Y-120205500D02*
X66802000Y-115570000D01*
X66802000Y-115570000D02*
X72517000Y-109855000D01*
X72517000Y-109855000D02*
X95631000Y-109855000D01*
X95631000Y-109855000D02*
X96266000Y-110490000D01*
X96266000Y-110490000D02*
X96520000Y-111780000D01*
X93853000Y-142494000D02*
X93853000Y-131699000D01*
X93853000Y-131699000D02*
X91059000Y-128905000D01*
X96520000Y-111780000D02*
X93706000Y-111780000D01*
X86614000Y-124460000D02*
X86614000Y-121793000D01*
X91059000Y-128905000D02*
X86614000Y-124460000D01*
X86614000Y-121793000D02*
X89852500Y-118554500D01*
X93706000Y-111780000D02*
X89852500Y-115633500D01*
X89852500Y-115633500D02*
X89852500Y-118554500D01*
X93853000Y-142494000D02*
X93853000Y-142367000D01*
X96329500Y-120967500D02*
X96329500Y-114470500D01*
X96329500Y-114470500D02*
X96520000Y-114280000D01*
X100139500Y-127317500D02*
X100139500Y-130175000D01*
X101409500Y-131445000D02*
X100139500Y-130175000D01*
X106065000Y-131445000D02*
X101409500Y-131445000D01*
X105791000Y-131171000D02*
X106065000Y-131445000D01*
X108565000Y-131445000D02*
X108565000Y-130570000D01*
X108565000Y-130570000D02*
X107916000Y-129921000D01*
X107916000Y-129921000D02*
X102108000Y-129921000D01*
X101409500Y-127317500D02*
X101409500Y-129222500D01*
X101409500Y-129222500D02*
X102108000Y-129921000D01*
X102155000Y-56515000D02*
X118745000Y-56515000D01*
X134493000Y-57277000D02*
X137160000Y-57277000D01*
X133350000Y-58420000D02*
X134493000Y-57277000D01*
X120650000Y-58420000D02*
X133350000Y-58420000D01*
X118745000Y-56515000D02*
X120650000Y-58420000D01*
X137160000Y-59817000D02*
X102957000Y-59817000D01*
X102957000Y-59817000D02*
X99655000Y-56515000D01*
X97155000Y-56515000D02*
X99655000Y-56515000D01*
X99655000Y-56515000D02*
X99655000Y-57232000D01*
D31*
X70104000Y-202692000D02*
X70104000Y-209423000D01*
X70485000Y-184658000D02*
X71501000Y-185674000D01*
X70485000Y-180594000D02*
X70485000Y-184658000D01*
X71501000Y-185674000D02*
X75692000Y-185674000D01*
X77470000Y-183896000D02*
X77470000Y-178943000D01*
X75692000Y-185674000D02*
X77470000Y-183896000D01*
X96774000Y-205232000D02*
X94068000Y-207938000D01*
X78994000Y-177419000D02*
X84582000Y-177419000D01*
X77470000Y-178943000D02*
X78994000Y-177419000D01*
X86868000Y-179705000D02*
X86868000Y-185928000D01*
X84582000Y-177419000D02*
X86868000Y-179705000D01*
X95504000Y-201168000D02*
X96774000Y-202438000D01*
X94068000Y-207938000D02*
X94068000Y-208343500D01*
X86868000Y-185928000D02*
X70104000Y-202692000D01*
X70104000Y-209423000D02*
X72390000Y-211709000D01*
X72390000Y-211709000D02*
X81661000Y-211709000D01*
X81661000Y-211709000D02*
X92202000Y-201168000D01*
X92202000Y-201168000D02*
X95504000Y-201168000D01*
X96774000Y-202438000D02*
X96774000Y-205232000D01*
X77597000Y-168910000D02*
X77597000Y-161671000D01*
X85598000Y-153670000D02*
X80772000Y-158496000D01*
X80772000Y-158496000D02*
X77597000Y-161671000D01*
X85598000Y-153670000D02*
X87757000Y-151511000D01*
X87757000Y-146939000D02*
X87757000Y-151511000D01*
X87757000Y-143891000D02*
X87757000Y-142367000D01*
X87757000Y-142367000D02*
X72961500Y-127571500D01*
X75565000Y-122301000D02*
X74295000Y-122301000D01*
X72961500Y-127571500D02*
X72961500Y-123634500D01*
X72961500Y-123634500D02*
X74295000Y-122301000D01*
X87757000Y-151511000D02*
X92964000Y-151511000D01*
X96012000Y-151511000D02*
X96901000Y-151511000D01*
X97663000Y-150749000D02*
X97663000Y-148844000D01*
X96901000Y-151511000D02*
X97663000Y-150749000D01*
X81915000Y-121158000D02*
X83375500Y-121158000D01*
X75565000Y-121158000D02*
X75565000Y-122301000D01*
X93789500Y-120967500D02*
X92710000Y-120967500D01*
X97663000Y-148844000D02*
X97663000Y-147701000D01*
X92837000Y-172698000D02*
X95990000Y-172698000D01*
X99695000Y-176403000D02*
X99695000Y-185928000D01*
X95990000Y-172698000D02*
X99695000Y-176403000D01*
X99695000Y-185928000D02*
X99695000Y-187071000D01*
X92837000Y-172698000D02*
X92837000Y-170561000D01*
X92837000Y-170561000D02*
X91186000Y-168910000D01*
X77597000Y-168910000D02*
X91186000Y-168910000D01*
X73640000Y-178816000D02*
X73640000Y-172867000D01*
X73640000Y-172867000D02*
X77597000Y-168910000D01*
X64392000Y-185293000D02*
X64392000Y-181480000D01*
X64392000Y-181480000D02*
X65278000Y-180594000D01*
X73660000Y-180594000D02*
X73660000Y-178836000D01*
X73660000Y-178836000D02*
X73640000Y-178816000D01*
X65278000Y-180594000D02*
X67310000Y-180594000D01*
X67310000Y-180594000D02*
X70485000Y-180594000D01*
X70485000Y-180594000D02*
X73660000Y-180594000D01*
D30*
X86360000Y-102235000D02*
X85090000Y-102235000D01*
X60960000Y-102235000D02*
X60960000Y-99949000D01*
X62230000Y-103505000D02*
X60960000Y-102235000D01*
X83820000Y-103505000D02*
X62230000Y-103505000D01*
X85090000Y-102235000D02*
X83820000Y-103505000D01*
X127595000Y-56515000D02*
X130095000Y-56515000D01*
X127595000Y-56515000D02*
X127595000Y-55840000D01*
X127595000Y-55840000D02*
X125095000Y-53340000D01*
X125095000Y-53340000D02*
X59690000Y-53340000D01*
X59690000Y-53340000D02*
X58420000Y-54610000D01*
X58420000Y-54610000D02*
X58420000Y-63500000D01*
X58420000Y-63500000D02*
X59817000Y-64897000D01*
X59817000Y-64897000D02*
X60960000Y-64897000D01*
X60960000Y-62357000D02*
X60452000Y-62357000D01*
X60452000Y-62357000D02*
X59055000Y-60960000D01*
X123190000Y-54610000D02*
X125095000Y-56515000D01*
X60325000Y-54610000D02*
X123190000Y-54610000D01*
X59055000Y-55880000D02*
X60325000Y-54610000D01*
X59055000Y-60960000D02*
X59055000Y-55880000D01*
X125095000Y-56515000D02*
X124973000Y-56515000D01*
X60579000Y-62357000D02*
X60579000Y-62230000D01*
X102150000Y-76820000D02*
X119619000Y-76820000D01*
X135636000Y-79756000D02*
X137160000Y-81280000D01*
X122555000Y-79756000D02*
X135636000Y-79756000D01*
X119619000Y-76820000D02*
X122555000Y-79756000D01*
X97150000Y-76820000D02*
X99650000Y-76820000D01*
X137160000Y-83820000D02*
X137033000Y-83820000D01*
X137033000Y-83820000D02*
X133985000Y-80772000D01*
X133985000Y-80772000D02*
X101854000Y-80772000D01*
X101854000Y-80772000D02*
X99650000Y-78568000D01*
X99650000Y-78568000D02*
X99650000Y-76820000D01*
X95123000Y-142494000D02*
X95123000Y-141478000D01*
X95678000Y-140923000D02*
X95678000Y-138176000D01*
X95123000Y-141478000D02*
X95678000Y-140923000D01*
X60960000Y-120777000D02*
X59944000Y-120777000D01*
X58674000Y-122047000D02*
X58674000Y-132080000D01*
X59944000Y-120777000D02*
X58674000Y-122047000D01*
X58674000Y-132080000D02*
X62992000Y-136398000D01*
X62992000Y-136398000D02*
X62992000Y-138938000D01*
X62992000Y-138938000D02*
X68707000Y-144653000D01*
X68707000Y-144653000D02*
X94488000Y-144653000D01*
X94488000Y-144653000D02*
X95123000Y-144018000D01*
X95123000Y-144018000D02*
X95123000Y-142494000D01*
X95059500Y-142430500D02*
X95123000Y-142494000D01*
X100139500Y-120967500D02*
X100139500Y-111950500D01*
X65786000Y-115062000D02*
X65786000Y-119761000D01*
X100139500Y-111950500D02*
X97155000Y-108966000D01*
X97155000Y-108966000D02*
X71882000Y-108966000D01*
X71882000Y-108966000D02*
X65786000Y-115062000D01*
X59309000Y-127571500D02*
X60134500Y-128397000D01*
X60134500Y-128397000D02*
X60960000Y-128397000D01*
X65786000Y-119761000D02*
X63563500Y-121983500D01*
X60071000Y-121983500D02*
X59309000Y-122745500D01*
X63563500Y-121983500D02*
X60071000Y-121983500D01*
X59309000Y-122745500D02*
X59309000Y-127571500D01*
X102870000Y-140843000D02*
X102870000Y-135255000D01*
X102870000Y-135255000D02*
X97599500Y-129984500D01*
X97599500Y-129984500D02*
X97599500Y-127317500D01*
X98933000Y-148844000D02*
X98933000Y-147574000D01*
X99441000Y-147066000D02*
X102870000Y-147066000D01*
X98933000Y-147574000D02*
X99441000Y-147066000D01*
X102870000Y-141097000D02*
X102870000Y-140843000D01*
X102870000Y-142704736D02*
X102870000Y-140843000D01*
X102870000Y-143764000D02*
X102870000Y-142704736D01*
X97599500Y-127317500D02*
X97599500Y-126746000D01*
X97599500Y-126746000D02*
X98425000Y-125920500D01*
X113284000Y-125920500D02*
X113284000Y-125857000D01*
X98425000Y-125920500D02*
X113284000Y-125920500D01*
X137096500Y-134493000D02*
X131572000Y-134493000D01*
X131572000Y-134493000D02*
X126809500Y-129730500D01*
X137096500Y-134493000D02*
X137160000Y-134556500D01*
X126809500Y-129730500D02*
X117157500Y-129730500D01*
X117157500Y-129730500D02*
X113284000Y-125857000D01*
X97599500Y-127317500D02*
X96329500Y-127317500D01*
X138112500Y-137096500D02*
X137160000Y-137096500D01*
X138684000Y-137668000D02*
X138112500Y-137096500D01*
X138684000Y-140335000D02*
X138684000Y-137668000D01*
X138049000Y-140970000D02*
X138684000Y-140335000D01*
X134874000Y-140970000D02*
X138049000Y-140970000D01*
X128524000Y-147320000D02*
X134874000Y-140970000D01*
X128524000Y-170688000D02*
X128524000Y-147320000D01*
X123444000Y-175768000D02*
X128524000Y-170688000D01*
X118618000Y-175768000D02*
X123444000Y-175768000D01*
X114554000Y-171704000D02*
X118618000Y-175768000D01*
X114554000Y-164084000D02*
X114554000Y-171704000D01*
X110490000Y-160020000D02*
X114554000Y-164084000D01*
X108665000Y-160020000D02*
X110490000Y-160020000D01*
X73025000Y-83820000D02*
X73025000Y-93980000D01*
X64262000Y-75057000D02*
X73025000Y-83820000D01*
X60960000Y-75057000D02*
X64262000Y-75057000D01*
X76455000Y-97410000D02*
X76455000Y-99695000D01*
X73025000Y-93980000D02*
X76455000Y-97410000D01*
X71755000Y-99695000D02*
X71755000Y-83820000D01*
X65532000Y-77597000D02*
X60960000Y-77597000D01*
X71755000Y-83820000D02*
X65532000Y-77597000D01*
X64135000Y-81915000D02*
X64135000Y-96775000D01*
X64135000Y-96775000D02*
X67055000Y-99695000D01*
X60960000Y-80137000D02*
X62357000Y-80137000D01*
X62357000Y-80137000D02*
X64135000Y-81915000D01*
X107950000Y-111680000D02*
X130730000Y-111680000D01*
X130730000Y-111680000D02*
X139827000Y-120777000D01*
X139827000Y-127381000D02*
X139827000Y-120777000D01*
X137160000Y-128333500D02*
X138874500Y-128333500D01*
X139827000Y-127381000D02*
X138874500Y-128333500D01*
X107950000Y-111680000D02*
X107950000Y-111506000D01*
X125090000Y-76820000D02*
X125090000Y-73792000D01*
X127762000Y-71120000D02*
X137160000Y-71120000D01*
X125090000Y-73792000D02*
X127762000Y-71120000D01*
X127590000Y-76820000D02*
X127590000Y-75737000D01*
X129667000Y-73660000D02*
X137160000Y-73660000D01*
X127590000Y-75737000D02*
X129667000Y-73660000D01*
X130090000Y-76820000D02*
X136540000Y-76820000D01*
X136540000Y-76820000D02*
X137160000Y-76200000D01*
X130710000Y-76200000D02*
X130090000Y-76820000D01*
X123865500Y-190755000D02*
X123865500Y-199603500D01*
X105068000Y-208343500D02*
X115125500Y-208343500D01*
X115125500Y-208343500D02*
X115443000Y-208026000D01*
X115443000Y-208026000D02*
X115125500Y-208343500D01*
X123865500Y-199603500D02*
X115443000Y-208026000D01*
X105068000Y-208343500D02*
X105537000Y-208343500D01*
X96393000Y-142494000D02*
X96393000Y-144272000D01*
X96393000Y-144272000D02*
X95250000Y-145415000D01*
X95250000Y-145415000D02*
X67310000Y-145415000D01*
X62992000Y-141097000D02*
X60960000Y-141097000D01*
X67310000Y-145415000D02*
X62992000Y-141097000D01*
X137160000Y-162369500D02*
X137604500Y-162369500D01*
X138684000Y-163449000D02*
X138684000Y-165862000D01*
X137604500Y-162369500D02*
X138684000Y-163449000D01*
X138684000Y-165862000D02*
X138176000Y-166370000D01*
X132842000Y-166370000D02*
X131318000Y-167894000D01*
X138176000Y-166370000D02*
X132842000Y-166370000D01*
X131318000Y-167894000D02*
X131318000Y-170688000D01*
X97155000Y-190246000D02*
X95885000Y-188976000D01*
X131318000Y-170688000D02*
X111760000Y-190246000D01*
X95885000Y-188976000D02*
X95885000Y-185928000D01*
X111760000Y-190246000D02*
X97155000Y-190246000D01*
X137160000Y-162369500D02*
X136398000Y-162369500D01*
X136398000Y-162369500D02*
X134747000Y-160718500D01*
X135826500Y-152209500D02*
X137160000Y-152209500D01*
X134747000Y-153289000D02*
X135826500Y-152209500D01*
X134747000Y-160718500D02*
X134747000Y-153289000D01*
X99568000Y-203743500D02*
X99568000Y-204787500D01*
X132588000Y-172593000D02*
X139192000Y-172593000D01*
X111633000Y-204724000D02*
X111633000Y-193548000D01*
X98044000Y-210629500D02*
X101219000Y-210629500D01*
X99568000Y-204787500D02*
X96837500Y-207518000D01*
X140081000Y-155765500D02*
X139065000Y-154749500D01*
X140081000Y-171704000D02*
X140081000Y-155765500D01*
X102298500Y-206946500D02*
X103187500Y-206057500D01*
X96837500Y-207518000D02*
X96837500Y-209423000D01*
X96837500Y-209423000D02*
X98044000Y-210629500D01*
X101219000Y-210629500D02*
X102298500Y-209550000D01*
X139192000Y-172593000D02*
X140081000Y-171704000D01*
X102298500Y-209550000D02*
X102298500Y-206946500D01*
X111633000Y-193548000D02*
X132588000Y-172593000D01*
X103187500Y-206057500D02*
X110299500Y-206057500D01*
X110299500Y-206057500D02*
X111633000Y-204724000D01*
X139065000Y-154749500D02*
X137160000Y-154749500D01*
X99568000Y-204089000D02*
X99568000Y-203743500D01*
X100683000Y-203743500D02*
X99568000Y-203743500D01*
X103505000Y-192278000D02*
X111379000Y-192278000D01*
X111379000Y-192278000D02*
X132588000Y-171069000D01*
X132588000Y-171069000D02*
X132588000Y-168529000D01*
X132588000Y-168529000D02*
X133985000Y-167132000D01*
X133985000Y-167132000D02*
X138684000Y-167132000D01*
X138684000Y-167132000D02*
X139446000Y-166370000D01*
X139446000Y-166370000D02*
X139446000Y-158242000D01*
D31*
X138493500Y-157289500D02*
X137160000Y-157289500D01*
X139446000Y-158242000D02*
X138493500Y-157289500D01*
X102235000Y-192278000D02*
X103505000Y-192278000D01*
D30*
X97155000Y-185928000D02*
X97155000Y-188087000D01*
X97155000Y-188087000D02*
X98425000Y-189357000D01*
X98425000Y-189357000D02*
X111125000Y-189357000D01*
X111125000Y-189357000D02*
X130048000Y-170434000D01*
X130048000Y-167513000D02*
X132651500Y-164909500D01*
X130048000Y-170434000D02*
X130048000Y-167513000D01*
X132651500Y-164909500D02*
X137160000Y-164909500D01*
X94187000Y-180594000D02*
X95631000Y-180594000D01*
X97155000Y-182118000D02*
X97155000Y-185928000D01*
X95631000Y-180594000D02*
X97155000Y-182118000D01*
X84201000Y-199945000D02*
X82884000Y-199945000D01*
X82169000Y-204771000D02*
X80185000Y-206755000D01*
X82169000Y-200660000D02*
X82169000Y-204771000D01*
X82884000Y-199945000D02*
X82169000Y-200660000D01*
X84201000Y-199945000D02*
X84201000Y-195834000D01*
X74826000Y-206755000D02*
X80185000Y-206755000D01*
X95885000Y-192278000D02*
X87757000Y-192278000D01*
X87757000Y-192278000D02*
X84201000Y-195834000D01*
X87503000Y-202645000D02*
X84281000Y-202565000D01*
X84281000Y-202565000D02*
X84201000Y-202645000D01*
X87503000Y-202645000D02*
X88820000Y-202645000D01*
X97155000Y-194310000D02*
X97155000Y-192278000D01*
X88820000Y-202645000D02*
X97155000Y-194310000D01*
X105965000Y-160020000D02*
X100203000Y-160020000D01*
X100203000Y-160020000D02*
X95123000Y-154940000D01*
X95123000Y-154940000D02*
X95123000Y-148844000D01*
X105965000Y-163830000D02*
X105965000Y-160020000D01*
X108665000Y-167005000D02*
X108665000Y-185594000D01*
X108665000Y-185594000D02*
X105791000Y-188468000D01*
X105791000Y-188468000D02*
X99314000Y-188468000D01*
X99314000Y-188468000D02*
X98425000Y-187579000D01*
X98425000Y-187579000D02*
X98425000Y-185928000D01*
X93853000Y-148844000D02*
X93853000Y-155575000D01*
X93853000Y-155575000D02*
X105410000Y-167132000D01*
X105410000Y-167132000D02*
X108538000Y-167132000D01*
X108538000Y-167132000D02*
X108665000Y-167005000D01*
X108665000Y-165274000D02*
X108665000Y-167005000D01*
X108665000Y-165274000D02*
X108665000Y-163830000D01*
X93853000Y-148844000D02*
X93662500Y-148844000D01*
X108665000Y-163830000D02*
X109220000Y-163830000D01*
X105965000Y-156210000D02*
X105965000Y-151765000D01*
X105965000Y-151765000D02*
X101854000Y-151765000D01*
X100203000Y-150114000D02*
X100203000Y-148844000D01*
X101854000Y-151765000D02*
X100203000Y-150114000D01*
D31*
X100250000Y-148891000D02*
X100203000Y-148844000D01*
D30*
X99568000Y-212943500D02*
X105068000Y-212943500D01*
X99568000Y-199771000D02*
X99568000Y-199707500D01*
X102298500Y-202438000D02*
X102298500Y-205613000D01*
X99568000Y-199707500D02*
X102298500Y-202438000D01*
X98425000Y-192278000D02*
X98425000Y-198628000D01*
X98425000Y-198628000D02*
X99568000Y-199771000D01*
X102298500Y-205613000D02*
X99568000Y-208343500D01*
X99568000Y-208343500D02*
X99568000Y-208216500D01*
X99568000Y-208343500D02*
X99441000Y-208343500D01*
X60960000Y-57277000D02*
X66167000Y-57277000D01*
X66167000Y-57277000D02*
X71755000Y-62865000D01*
X74210000Y-72432000D02*
X74210000Y-77089000D01*
X71755000Y-69977000D02*
X74210000Y-72432000D01*
X71755000Y-62865000D02*
X71755000Y-69977000D01*
X69210000Y-77089000D02*
X71710000Y-77089000D01*
X60960000Y-59817000D02*
X61722000Y-59817000D01*
X61722000Y-59817000D02*
X64135000Y-62230000D01*
X64135000Y-62230000D02*
X64135000Y-72014000D01*
X64135000Y-72014000D02*
X69210000Y-77089000D01*
X137160000Y-88773000D02*
X111887000Y-88773000D01*
X104395000Y-96265000D02*
X104395000Y-99695000D01*
X111887000Y-88773000D02*
X104395000Y-96265000D01*
X99695000Y-99695000D02*
X99695000Y-100330000D01*
X99695000Y-100330000D02*
X102235000Y-102870000D01*
X116967000Y-91313000D02*
X137160000Y-91313000D01*
X105410000Y-102870000D02*
X116967000Y-91313000D01*
X102235000Y-102870000D02*
X105410000Y-102870000D01*
X99695000Y-100195000D02*
X99695000Y-99695000D01*
X137160000Y-93853000D02*
X120142000Y-93853000D01*
X94995000Y-102615000D02*
X94995000Y-99695000D01*
X95885000Y-103505000D02*
X94995000Y-102615000D01*
X110490000Y-103505000D02*
X95885000Y-103505000D01*
X120142000Y-93853000D02*
X110490000Y-103505000D01*
X132335000Y-99695000D02*
X132335000Y-98170000D01*
X132335000Y-98170000D02*
X134112000Y-96393000D01*
X134112000Y-96393000D02*
X137160000Y-96393000D01*
X132335000Y-99695000D02*
X133351000Y-99695000D01*
X136652000Y-95885000D02*
X137160000Y-96393000D01*
X127635000Y-99695000D02*
X127635000Y-101600000D01*
X127635000Y-101600000D02*
X128905000Y-102870000D01*
X133223000Y-102870000D02*
X137160000Y-98933000D01*
X128905000Y-102870000D02*
X133223000Y-102870000D01*
X127635000Y-99695000D02*
X127635000Y-100075000D01*
X122935000Y-99695000D02*
X122935000Y-102615000D01*
X137160000Y-102870000D02*
X137160000Y-101473000D01*
X136525000Y-103505000D02*
X137160000Y-102870000D01*
X123825000Y-103505000D02*
X136525000Y-103505000D01*
X122935000Y-102615000D02*
X123825000Y-103505000D01*
X137160000Y-64897000D02*
X137033000Y-64897000D01*
X137033000Y-64897000D02*
X134620000Y-67310000D01*
X83185000Y-56515000D02*
X74215000Y-56515000D01*
X93980000Y-67310000D02*
X83185000Y-56515000D01*
X134620000Y-67310000D02*
X93980000Y-67310000D01*
X137160000Y-64897000D02*
X137160000Y-65151000D01*
X71715000Y-56515000D02*
X71715000Y-57110000D01*
X71715000Y-57110000D02*
X73025000Y-58420000D01*
X138557000Y-62357000D02*
X137160000Y-62357000D01*
X139700000Y-63500000D02*
X138557000Y-62357000D01*
X139700000Y-67310000D02*
X139700000Y-63500000D01*
X138430000Y-68580000D02*
X139700000Y-67310000D01*
X93345000Y-68580000D02*
X138430000Y-68580000D01*
X83185000Y-58420000D02*
X93345000Y-68580000D01*
X73025000Y-58420000D02*
X83185000Y-58420000D01*
X69215000Y-56515000D02*
X71715000Y-56515000D01*
X83265000Y-100965000D02*
X83820000Y-100965000D01*
X83820000Y-100965000D02*
X84455000Y-99695000D01*
X84455000Y-99695000D02*
X87630000Y-99695000D01*
X87630000Y-99695000D02*
X88900000Y-100965000D01*
X88900000Y-100965000D02*
X88900000Y-102235000D01*
X88900000Y-102235000D02*
X88900000Y-101600000D01*
X60960000Y-97409000D02*
X61849000Y-97409000D01*
X80565000Y-102315000D02*
X80565000Y-100965000D01*
X80010000Y-102870000D02*
X80565000Y-102315000D01*
X63500000Y-102870000D02*
X80010000Y-102870000D01*
X62865000Y-102235000D02*
X63500000Y-102870000D01*
X62865000Y-98425000D02*
X62865000Y-102235000D01*
X61849000Y-97409000D02*
X62865000Y-98425000D01*
X60960000Y-163449000D02*
X60960000Y-166370000D01*
X60960000Y-166370000D02*
X59309000Y-168021000D01*
X65151000Y-187452000D02*
X68072000Y-190373000D01*
X68072000Y-190373000D02*
X68072000Y-210693000D01*
X59309000Y-168021000D02*
X59309000Y-186690000D01*
X59309000Y-186690000D02*
X60071000Y-187452000D01*
X60071000Y-187452000D02*
X65151000Y-187452000D01*
X68072000Y-210693000D02*
X70993000Y-213614000D01*
X70993000Y-213614000D02*
X83947000Y-213614000D01*
X83947000Y-213614000D02*
X93817500Y-203743500D01*
X93817500Y-203743500D02*
X94068000Y-203743500D01*
X105965000Y-142240000D02*
X105965000Y-138530000D01*
X105965000Y-138530000D02*
X106065000Y-138430000D01*
X100203000Y-142494000D02*
X100203000Y-144399000D01*
X100203000Y-144399000D02*
X101219000Y-145415000D01*
X101219000Y-145415000D02*
X104013000Y-145415000D01*
X104013000Y-145415000D02*
X105965000Y-143463000D01*
X105965000Y-143463000D02*
X105965000Y-141605000D01*
X106065000Y-138430000D02*
X106065000Y-138236000D01*
X107315000Y-144145000D02*
X107315000Y-148844000D01*
X108665000Y-141605000D02*
X108665000Y-142795000D01*
X108665000Y-142795000D02*
X107315000Y-144145000D01*
X107315000Y-148844000D02*
X101473000Y-148844000D01*
X108665000Y-150194000D02*
X108665000Y-151765000D01*
X107315000Y-148844000D02*
X108665000Y-150194000D01*
D31*
X101473000Y-148844000D02*
X101727000Y-148844000D01*
D30*
X107950000Y-114380000D02*
X107950000Y-121031000D01*
X106489500Y-122491500D02*
X98234500Y-122491500D01*
X107950000Y-121031000D02*
X106489500Y-122491500D01*
X98234500Y-122491500D02*
X97599500Y-121856500D01*
X97599500Y-120967500D02*
X97599500Y-121856500D01*
D32*
X61592000Y-185293000D02*
X61592000Y-173327000D01*
X61592000Y-173327000D02*
X61945000Y-172974000D01*
M02*
