G04 #@! TF.FileFunction,Soldermask,Top*
%FSLAX46Y46*%
G04 Gerber Fmt 4.6, Leading zero omitted, Abs format (unit mm)*
G04 Created by KiCad (PCBNEW 4.0.7) date Sunday, 08 April 2018 'AMt' 07:59:28*
%MOMM*%
%LPD*%
G01*
G04 APERTURE LIST*
%ADD10C,0.100000*%
%ADD11R,3.000000X2.000000*%
%ADD12R,1.900000X1.650000*%
%ADD13R,1.650000X1.900000*%
%ADD14C,2.200000*%
%ADD15C,4.400000*%
%ADD16R,1.500000X1.500000*%
%ADD17R,2.200000X2.200000*%
%ADD18R,2.100000X2.100000*%
%ADD19O,2.100000X2.100000*%
%ADD20O,5.400000X4.400000*%
%ADD21R,3.900000X3.900000*%
%ADD22R,1.900000X1.700000*%
%ADD23R,1.700000X1.900000*%
%ADD24O,3.900000X3.400000*%
%ADD25O,3.400000X4.400000*%
%ADD26R,1.543000X0.908000*%
%ADD27R,0.908000X1.543000*%
%ADD28R,2.000000X3.000000*%
G04 APERTURE END LIST*
D10*
D11*
X83715000Y-173609000D03*
X80115000Y-173609000D03*
X79778000Y-111442500D03*
X76178000Y-111442500D03*
X80115000Y-179959000D03*
X83715000Y-179959000D03*
X87906000Y-111442500D03*
X84306000Y-111442500D03*
D12*
X107295000Y-160464500D03*
X104795000Y-160464500D03*
D13*
X114363500Y-194163000D03*
X114363500Y-191663000D03*
D12*
X110700500Y-116967000D03*
X113200500Y-116967000D03*
X108033500Y-120523000D03*
X110533500Y-120523000D03*
X107866500Y-116967000D03*
X105366500Y-116967000D03*
D13*
X79248000Y-132608000D03*
X79248000Y-135108000D03*
X97155000Y-141712000D03*
X97155000Y-139212000D03*
D14*
X102155000Y-56515000D03*
X99655000Y-56515000D03*
X97155000Y-56515000D03*
D15*
X104055000Y-63515000D03*
X95255000Y-63515000D03*
D16*
X64392000Y-185293000D03*
X61592000Y-185293000D03*
D17*
X88900000Y-102235000D03*
D14*
X86360000Y-102235000D03*
X130095000Y-56515000D03*
X127595000Y-56515000D03*
X125095000Y-56515000D03*
D15*
X131995000Y-63515000D03*
X123195000Y-63515000D03*
D14*
X102150000Y-76820000D03*
X99650000Y-76820000D03*
X97150000Y-76820000D03*
D15*
X104050000Y-83820000D03*
X95250000Y-83820000D03*
D18*
X60960000Y-57277000D03*
D19*
X60960000Y-59817000D03*
X60960000Y-62357000D03*
X60960000Y-64897000D03*
D18*
X137160000Y-88773000D03*
D19*
X137160000Y-91313000D03*
X137160000Y-93853000D03*
X137160000Y-96393000D03*
X137160000Y-98933000D03*
X137160000Y-101473000D03*
D18*
X60960000Y-75057000D03*
D19*
X60960000Y-77597000D03*
X60960000Y-80137000D03*
X60960000Y-82677000D03*
D18*
X137160000Y-64897000D03*
D19*
X137160000Y-62357000D03*
X137160000Y-59817000D03*
X137160000Y-57277000D03*
D18*
X137160000Y-71120000D03*
D19*
X137160000Y-73660000D03*
X137160000Y-76200000D03*
X137160000Y-78740000D03*
X137160000Y-81280000D03*
X137160000Y-83820000D03*
D20*
X123865500Y-185736500D03*
X123865500Y-169736500D03*
X136865500Y-169736500D03*
X136842500Y-185736500D03*
X123865500Y-206755000D03*
X123865500Y-190755000D03*
X136865500Y-190755000D03*
X136842500Y-206755000D03*
D18*
X60960000Y-120777000D03*
D19*
X60960000Y-123317000D03*
X60960000Y-125857000D03*
X60960000Y-128397000D03*
D18*
X137160000Y-134556500D03*
D19*
X137160000Y-137096500D03*
X137160000Y-139636500D03*
X137160000Y-142176500D03*
X137160000Y-144716500D03*
X137160000Y-147256500D03*
D18*
X60960000Y-138557000D03*
D19*
X60960000Y-141097000D03*
X60960000Y-143637000D03*
X60960000Y-146177000D03*
D18*
X137160000Y-128333500D03*
D19*
X137160000Y-125793500D03*
X137160000Y-123253500D03*
X137160000Y-120713500D03*
D18*
X137160000Y-152209500D03*
D19*
X137160000Y-154749500D03*
X137160000Y-157289500D03*
X137160000Y-159829500D03*
X137160000Y-162369500D03*
X137160000Y-164909500D03*
D20*
X74826000Y-190755000D03*
X74826000Y-206755000D03*
X61826000Y-206755000D03*
X61849000Y-190755000D03*
D21*
X67945000Y-172974000D03*
X61945000Y-172974000D03*
X64945000Y-177674000D03*
D14*
X130090000Y-76820000D03*
X127590000Y-76820000D03*
X125090000Y-76820000D03*
D15*
X131990000Y-83820000D03*
X123190000Y-83820000D03*
D22*
X107870000Y-169418000D03*
X110570000Y-169418000D03*
D23*
X94615000Y-187499000D03*
X94615000Y-190199000D03*
D22*
X86026000Y-194183000D03*
X88726000Y-194183000D03*
D23*
X67945000Y-127555000D03*
X67945000Y-130255000D03*
X124079000Y-149051000D03*
X124079000Y-146351000D03*
D22*
X101680000Y-170180000D03*
X98980000Y-170180000D03*
X108665000Y-131318000D03*
X105965000Y-131318000D03*
D14*
X74215000Y-56515000D03*
X71715000Y-56515000D03*
X69215000Y-56515000D03*
D15*
X76115000Y-63515000D03*
X67315000Y-63515000D03*
D24*
X105068000Y-212943500D03*
X99568000Y-212943500D03*
X94068000Y-212943500D03*
X105068000Y-208343500D03*
X99568000Y-208343500D03*
X94068000Y-208343500D03*
X105068000Y-203743500D03*
X99568000Y-203743500D03*
X94068000Y-203743500D03*
D25*
X127635000Y-99695000D03*
X132335000Y-99695000D03*
X122935000Y-99695000D03*
X71755000Y-99695000D03*
X76455000Y-99695000D03*
X67055000Y-99695000D03*
X99695000Y-99695000D03*
X104395000Y-99695000D03*
X94995000Y-99695000D03*
D14*
X74210000Y-77089000D03*
X71710000Y-77089000D03*
X69210000Y-77089000D03*
D15*
X76110000Y-84089000D03*
X67310000Y-84089000D03*
D26*
X73660000Y-180594000D03*
X73660000Y-181864000D03*
X73660000Y-183134000D03*
X73660000Y-184404000D03*
X67310000Y-184404000D03*
X67310000Y-183134000D03*
X67310000Y-181864000D03*
X67310000Y-180594000D03*
X75565000Y-121158000D03*
X75565000Y-119888000D03*
X75565000Y-118618000D03*
X75565000Y-117348000D03*
X81915000Y-117348000D03*
X81915000Y-118618000D03*
X81915000Y-119888000D03*
X81915000Y-121158000D03*
X105473500Y-194183000D03*
X105473500Y-192913000D03*
X105473500Y-191643000D03*
X105473500Y-190373000D03*
X111823500Y-190373000D03*
X111823500Y-191643000D03*
X111823500Y-192913000D03*
X111823500Y-194183000D03*
X76708000Y-129286000D03*
X76708000Y-130556000D03*
X76708000Y-131826000D03*
X76708000Y-133096000D03*
X70358000Y-133096000D03*
X70358000Y-131826000D03*
X70358000Y-130556000D03*
X70358000Y-129286000D03*
D27*
X125430381Y-159166500D03*
X124160381Y-159166500D03*
X122890381Y-159166500D03*
X121620381Y-159166500D03*
X121620381Y-152816500D03*
X122890381Y-152816500D03*
X124160381Y-152816500D03*
X125430381Y-152816500D03*
D26*
X109855000Y-173355000D03*
X109855000Y-174625000D03*
X109855000Y-175895000D03*
X109855000Y-177165000D03*
X103505000Y-177165000D03*
X103505000Y-175895000D03*
X103505000Y-174625000D03*
X103505000Y-173355000D03*
D27*
X87489000Y-185740500D03*
X88759000Y-185740500D03*
X90029000Y-185740500D03*
X91299000Y-185740500D03*
X91299000Y-192090500D03*
X90029000Y-192090500D03*
X88759000Y-192090500D03*
X87489000Y-192090500D03*
D26*
X88011000Y-148336000D03*
X88011000Y-145796000D03*
X88011000Y-144526000D03*
X88011000Y-143256000D03*
X88011000Y-141986000D03*
X88011000Y-140716000D03*
X88011000Y-139446000D03*
X94361000Y-139446000D03*
X94361000Y-140716000D03*
X94361000Y-141986000D03*
X94361000Y-143256000D03*
X94361000Y-144526000D03*
X94361000Y-145796000D03*
X94361000Y-147066000D03*
X94361000Y-148336000D03*
X88011000Y-147066000D03*
D27*
X114300000Y-139954000D03*
X113030000Y-139954000D03*
X111760000Y-139954000D03*
X110490000Y-139954000D03*
X110490000Y-133604000D03*
X111760000Y-133604000D03*
X113030000Y-133604000D03*
X114300000Y-133604000D03*
D13*
X103441500Y-193314000D03*
X103441500Y-195814000D03*
D12*
X111843500Y-188595000D03*
X114343500Y-188595000D03*
X88793000Y-183769000D03*
X91293000Y-183769000D03*
X91333000Y-194310000D03*
X93833000Y-194310000D03*
D13*
X114300000Y-173970000D03*
X114300000Y-171470000D03*
D12*
X107549000Y-183007000D03*
X105049000Y-183007000D03*
D13*
X79248000Y-130409000D03*
X79248000Y-127909000D03*
X67945000Y-133497000D03*
X67945000Y-135997000D03*
D12*
X116225000Y-139954000D03*
X118725000Y-139954000D03*
X108565000Y-133604000D03*
X106065000Y-133604000D03*
X124186000Y-161544000D03*
X121686000Y-161544000D03*
D13*
X120015000Y-152634000D03*
X120015000Y-150134000D03*
X88011000Y-150261000D03*
X88011000Y-152761000D03*
D12*
X71140000Y-178816000D03*
X73640000Y-178816000D03*
D13*
X73787000Y-118638000D03*
X73787000Y-121138000D03*
D18*
X60960000Y-99949000D03*
D19*
X60960000Y-97409000D03*
X60960000Y-94869000D03*
X60960000Y-92329000D03*
D18*
X60960000Y-163449000D03*
D19*
X60960000Y-160909000D03*
X60960000Y-158369000D03*
X60960000Y-155829000D03*
D22*
X83265000Y-100965000D03*
X80565000Y-100965000D03*
D28*
X92837000Y-172698000D03*
X92837000Y-176298000D03*
D12*
X113645000Y-142367000D03*
X111145000Y-142367000D03*
D22*
X115777000Y-131445000D03*
X113077000Y-131445000D03*
D23*
X107569000Y-140669000D03*
X107569000Y-137969000D03*
X89535000Y-134286000D03*
X89535000Y-136986000D03*
M02*
